solid zone0
 facet normal 0 -0 -1
  outer loop
   vertex 0.124524 0.172549 0
   vertex 0.124881 0.167106 0
   vertex 0 0.161654 0
  endloop
 endfacet
 facet normal 0 -0 -1
  outer loop
   vertex 0.124881 0.167106 0
   vertex 0.125 0.161654 0
   vertex 0 0.161654 0
  endloop
 endfacet
 facet normal 0 0 -1
  outer loop
   vertex 0 0.161654 0
   vertex 0.125 0.161654 0
   vertex 0.124881 0.156202 0
  endloop
 endfacet
 facet normal 0 -0 -1
  outer loop
   vertex 0.122037 0.188709 0
   vertex 0.123101 0.18336 0
   vertex 0 0.161654 0
  endloop
 endfacet
 facet normal 0 -0 -1
  outer loop
   vertex 0.123101 0.18336 0
   vertex 0.123931 0.17797 0
   vertex 0 0.161654 0
  endloop
 endfacet
 facet normal 0 0 -1
  outer loop
   vertex 0 0.161654 0
   vertex 0.123931 0.17797 0
   vertex 0.124524 0.172549 0
  endloop
 endfacet
 facet normal 0 -0 -1
  outer loop
   vertex 0.117462 0.204407 0
   vertex 0.119215 0.199242 0
   vertex 0 0.161654 0
  endloop
 endfacet
 facet normal 0 -0 -1
  outer loop
   vertex 0.119215 0.199242 0
   vertex 0.120741 0.194006 0
   vertex 0 0.161654 0
  endloop
 endfacet
 facet normal 0 0 -1
  outer loop
   vertex 0 0.161654 0
   vertex 0.120741 0.194006 0
   vertex 0.122037 0.188709 0
  endloop
 endfacet
 facet normal 0 -0 -1
  outer loop
   vertex 0.110876 0.219373 0
   vertex 0.113288 0.214481 0
   vertex 0 0.161654 0
  endloop
 endfacet
 facet normal 0 -0 -1
  outer loop
   vertex 0.113288 0.214481 0
   vertex 0.115485 0.209489 0
   vertex 0 0.161654 0
  endloop
 endfacet
 facet normal 0 0 -1
  outer loop
   vertex 0 0.161654 0
   vertex 0.115485 0.209489 0
   vertex 0.117462 0.204407 0
  endloop
 endfacet
 facet normal 0 -0 -1
  outer loop
   vertex 0.102394 0.233351 0
   vertex 0.105424 0.228817 0
   vertex 0 0.161654 0
  endloop
 endfacet
 facet normal 0 -0 -1
  outer loop
   vertex 0.105424 0.228817 0
   vertex 0.108253 0.224154 0
   vertex 0 0.161654 0
  endloop
 endfacet
 facet normal 0 0 -1
  outer loop
   vertex 0 0.161654 0
   vertex 0.108253 0.224154 0
   vertex 0.110876 0.219373 0
  endloop
 endfacet
 facet normal 0 -0 -1
  outer loop
   vertex 0.0921597 0.246103 0
   vertex 0.0957556 0.242003 0
   vertex 0 0.161654 0
  endloop
 endfacet
 facet normal 0 -0 -1
  outer loop
   vertex 0.0957556 0.242003 0
   vertex 0.0991692 0.237749 0
   vertex 0 0.161654 0
  endloop
 endfacet
 facet normal 0 0 -1
  outer loop
   vertex 0 0.161654 0
   vertex 0.0991692 0.237749 0
   vertex 0.102394 0.233351 0
  endloop
 endfacet
 facet normal 0 -0 -1
  outer loop
   vertex 0.0803485 0.25741 0
   vertex 0.0844488 0.253814 0
   vertex 0 0.161654 0
  endloop
 endfacet
 facet normal 0 -0 -1
  outer loop
   vertex 0.0844488 0.253814 0
   vertex 0.0883883 0.250042 0
   vertex 0 0.161654 0
  endloop
 endfacet
 facet normal 0 0 -1
  outer loop
   vertex 0 0.161654 0
   vertex 0.0883883 0.250042 0
   vertex 0.0921597 0.246103 0
  endloop
 endfacet
 facet normal 0 -0 -1
  outer loop
   vertex 0.0671625 0.267078 0
   vertex 0.0716971 0.264048 0
   vertex 0 0.161654 0
  endloop
 endfacet
 facet normal 0 -0 -1
  outer loop
   vertex 0.0716971 0.264048 0
   vertex 0.0760952 0.260823 0
   vertex 0 0.161654 0
  endloop
 endfacet
 facet normal 0 0 -1
  outer loop
   vertex 0 0.161654 0
   vertex 0.0760952 0.260823 0
   vertex 0.0803485 0.25741 0
  endloop
 endfacet
 facet normal 0 -0 -1
  outer loop
   vertex 0.0528273 0.274943 0
   vertex 0.0577186 0.27253 0
   vertex 0 0.161654 0
  endloop
 endfacet
 facet normal 0 -0 -1
  outer loop
   vertex 0.0577186 0.27253 0
   vertex 0.0625 0.269907 0
   vertex 0 0.161654 0
  endloop
 endfacet
 facet normal 0 0 -1
  outer loop
   vertex 0 0.161654 0
   vertex 0.0625 0.269907 0
   vertex 0.0671625 0.267078 0
  endloop
 endfacet
 facet normal 0 -0 -1
  outer loop
   vertex 0.0375882 0.280869 0
   vertex 0.0427525 0.279116 0
   vertex 0 0.161654 0
  endloop
 endfacet
 facet normal 0 -0 -1
  outer loop
   vertex 0.0427525 0.279116 0
   vertex 0.0478354 0.277139 0
   vertex 0 0.161654 0
  endloop
 endfacet
 facet normal 0 0 -1
  outer loop
   vertex 0 0.161654 0
   vertex 0.0478354 0.277139 0
   vertex 0.0528273 0.274943 0
  endloop
 endfacet
 facet normal 0 -0 -1
  outer loop
   vertex 0.021706 0.284755 0
   vertex 0.027055 0.283691 0
   vertex 0 0.161654 0
  endloop
 endfacet
 facet normal 0 -0 -1
  outer loop
   vertex 0.027055 0.283691 0
   vertex 0.0323524 0.282395 0
   vertex 0 0.161654 0
  endloop
 endfacet
 facet normal 0 0 -1
  outer loop
   vertex 0 0.161654 0
   vertex 0.0323524 0.282395 0
   vertex 0.0375882 0.280869 0
  endloop
 endfacet
 facet normal 0 -0 -1
  outer loop
   vertex 0.00545242 0.286535 0
   vertex 0.0108945 0.286178 0
   vertex 0 0.161654 0
  endloop
 endfacet
 facet normal 0 -0 -1
  outer loop
   vertex 0.0108945 0.286178 0
   vertex 0.0163158 0.285585 0
   vertex 0 0.161654 0
  endloop
 endfacet
 facet normal 0 0 -1
  outer loop
   vertex 0 0.161654 0
   vertex 0.0163158 0.285585 0
   vertex 0.021706 0.284755 0
  endloop
 endfacet
 facet normal 0 0 -1
  outer loop
   vertex -0.0108945 0.286178 0
   vertex -0.00545242 0.286535 0
   vertex 0 0.161654 0
  endloop
 endfacet
 facet normal 0 0 -1
  outer loop
   vertex -0.00545242 0.286535 0
   vertex -7.65404e-18 0.286654 0
   vertex 0 0.161654 0
  endloop
 endfacet
 facet normal 0 0 -1
  outer loop
   vertex 0 0.161654 0
   vertex -7.65404e-18 0.286654 0
   vertex 0.00545242 0.286535 0
  endloop
 endfacet
 facet normal 0 0 -1
  outer loop
   vertex -0.027055 0.283691 0
   vertex -0.021706 0.284755 0
   vertex 0 0.161654 0
  endloop
 endfacet
 facet normal 0 0 -1
  outer loop
   vertex -0.021706 0.284755 0
   vertex -0.0163158 0.285585 0
   vertex 0 0.161654 0
  endloop
 endfacet
 facet normal 0 0 -1
  outer loop
   vertex 0 0.161654 0
   vertex -0.0163158 0.285585 0
   vertex -0.0108945 0.286178 0
  endloop
 endfacet
 facet normal 0 0 -1
  outer loop
   vertex -0.0427525 0.279116 0
   vertex -0.0375882 0.280869 0
   vertex 0 0.161654 0
  endloop
 endfacet
 facet normal 0 0 -1
  outer loop
   vertex -0.0375882 0.280869 0
   vertex -0.0323524 0.282395 0
   vertex 0 0.161654 0
  endloop
 endfacet
 facet normal 0 0 -1
  outer loop
   vertex 0 0.161654 0
   vertex -0.0323524 0.282395 0
   vertex -0.027055 0.283691 0
  endloop
 endfacet
 facet normal 0 0 -1
  outer loop
   vertex -0.0577186 0.27253 0
   vertex -0.0528273 0.274943 0
   vertex 0 0.161654 0
  endloop
 endfacet
 facet normal 0 0 -1
  outer loop
   vertex -0.0528273 0.274943 0
   vertex -0.0478354 0.277139 0
   vertex 0 0.161654 0
  endloop
 endfacet
 facet normal 0 0 -1
  outer loop
   vertex 0 0.161654 0
   vertex -0.0478354 0.277139 0
   vertex -0.0427525 0.279116 0
  endloop
 endfacet
 facet normal 0 0 -1
  outer loop
   vertex -0.0716971 0.264048 0
   vertex -0.0671625 0.267078 0
   vertex 0 0.161654 0
  endloop
 endfacet
 facet normal 0 0 -1
  outer loop
   vertex -0.0671625 0.267078 0
   vertex -0.0625 0.269907 0
   vertex 0 0.161654 0
  endloop
 endfacet
 facet normal 0 0 -1
  outer loop
   vertex 0 0.161654 0
   vertex -0.0625 0.269907 0
   vertex -0.0577186 0.27253 0
  endloop
 endfacet
 facet normal 0 0 -1
  outer loop
   vertex -0.0844488 0.253814 0
   vertex -0.0803485 0.25741 0
   vertex 0 0.161654 0
  endloop
 endfacet
 facet normal 0 0 -1
  outer loop
   vertex -0.0803485 0.25741 0
   vertex -0.0760952 0.260823 0
   vertex 0 0.161654 0
  endloop
 endfacet
 facet normal 0 0 -1
  outer loop
   vertex 0 0.161654 0
   vertex -0.0760952 0.260823 0
   vertex -0.0716971 0.264048 0
  endloop
 endfacet
 facet normal 0 0 -1
  outer loop
   vertex -0.0957556 0.242003 0
   vertex -0.0921597 0.246103 0
   vertex 0 0.161654 0
  endloop
 endfacet
 facet normal 0 0 -1
  outer loop
   vertex -0.0921597 0.246103 0
   vertex -0.0883883 0.250042 0
   vertex 0 0.161654 0
  endloop
 endfacet
 facet normal 0 0 -1
  outer loop
   vertex 0 0.161654 0
   vertex -0.0883883 0.250042 0
   vertex -0.0844488 0.253814 0
  endloop
 endfacet
 facet normal 0 0 -1
  outer loop
   vertex -0.105424 0.228817 0
   vertex -0.102394 0.233351 0
   vertex 0 0.161654 0
  endloop
 endfacet
 facet normal 0 0 -1
  outer loop
   vertex -0.102394 0.233351 0
   vertex -0.0991692 0.237749 0
   vertex 0 0.161654 0
  endloop
 endfacet
 facet normal 0 0 -1
  outer loop
   vertex 0 0.161654 0
   vertex -0.0991692 0.237749 0
   vertex -0.0957556 0.242003 0
  endloop
 endfacet
 facet normal 0 0 -1
  outer loop
   vertex -0.113288 0.214481 0
   vertex -0.110876 0.219373 0
   vertex 0 0.161654 0
  endloop
 endfacet
 facet normal 0 0 -1
  outer loop
   vertex -0.110876 0.219373 0
   vertex -0.108253 0.224154 0
   vertex 0 0.161654 0
  endloop
 endfacet
 facet normal 0 0 -1
  outer loop
   vertex 0 0.161654 0
   vertex -0.108253 0.224154 0
   vertex -0.105424 0.228817 0
  endloop
 endfacet
 facet normal 0 0 -1
  outer loop
   vertex -0.119215 0.199242 0
   vertex -0.117462 0.204407 0
   vertex 0 0.161654 0
  endloop
 endfacet
 facet normal 0 0 -1
  outer loop
   vertex -0.117462 0.204407 0
   vertex -0.115485 0.209489 0
   vertex 0 0.161654 0
  endloop
 endfacet
 facet normal 0 0 -1
  outer loop
   vertex 0 0.161654 0
   vertex -0.115485 0.209489 0
   vertex -0.113288 0.214481 0
  endloop
 endfacet
 facet normal 0 0 -1
  outer loop
   vertex -0.123101 0.18336 0
   vertex -0.122037 0.188709 0
   vertex 0 0.161654 0
  endloop
 endfacet
 facet normal 0 0 -1
  outer loop
   vertex -0.122037 0.188709 0
   vertex -0.120741 0.194006 0
   vertex 0 0.161654 0
  endloop
 endfacet
 facet normal 0 0 -1
  outer loop
   vertex 0 0.161654 0
   vertex -0.120741 0.194006 0
   vertex -0.119215 0.199242 0
  endloop
 endfacet
 facet normal 0 0 -1
  outer loop
   vertex -0.124881 0.167106 0
   vertex -0.124524 0.172549 0
   vertex 0 0.161654 0
  endloop
 endfacet
 facet normal 0 0 -1
  outer loop
   vertex -0.124524 0.172549 0
   vertex -0.123931 0.17797 0
   vertex 0 0.161654 0
  endloop
 endfacet
 facet normal 0 0 -1
  outer loop
   vertex 0 0.161654 0
   vertex -0.123931 0.17797 0
   vertex -0.123101 0.18336 0
  endloop
 endfacet
 facet normal 0 0 -1
  outer loop
   vertex -0.124524 0.15076 0
   vertex -0.124881 0.156202 0
   vertex 0 0.161654 0
  endloop
 endfacet
 facet normal 0 0 -1
  outer loop
   vertex -0.124881 0.156202 0
   vertex -0.125 0.161654 0
   vertex 0 0.161654 0
  endloop
 endfacet
 facet normal 0 0 -1
  outer loop
   vertex 0 0.161654 0
   vertex -0.125 0.161654 0
   vertex -0.124881 0.167106 0
  endloop
 endfacet
 facet normal 0 0 -1
  outer loop
   vertex -0.122037 0.134599 0
   vertex -0.123101 0.139948 0
   vertex 0 0.161654 0
  endloop
 endfacet
 facet normal 0 0 -1
  outer loop
   vertex -0.123101 0.139948 0
   vertex -0.123931 0.145338 0
   vertex 0 0.161654 0
  endloop
 endfacet
 facet normal 0 0 -1
  outer loop
   vertex 0 0.161654 0
   vertex -0.123931 0.145338 0
   vertex -0.124524 0.15076 0
  endloop
 endfacet
 facet normal 0 0 -1
  outer loop
   vertex -0.117462 0.118902 0
   vertex -0.119215 0.124066 0
   vertex 0 0.161654 0
  endloop
 endfacet
 facet normal 0 0 -1
  outer loop
   vertex -0.119215 0.124066 0
   vertex -0.120741 0.129302 0
   vertex 0 0.161654 0
  endloop
 endfacet
 facet normal 0 0 -1
  outer loop
   vertex 0 0.161654 0
   vertex -0.120741 0.129302 0
   vertex -0.122037 0.134599 0
  endloop
 endfacet
 facet normal 0 0 -1
  outer loop
   vertex -0.110876 0.103935 0
   vertex -0.113288 0.108827 0
   vertex 0 0.161654 0
  endloop
 endfacet
 facet normal 0 0 -1
  outer loop
   vertex -0.113288 0.108827 0
   vertex -0.115485 0.113819 0
   vertex 0 0.161654 0
  endloop
 endfacet
 facet normal 0 0 -1
  outer loop
   vertex 0 0.161654 0
   vertex -0.115485 0.113819 0
   vertex -0.117462 0.118902 0
  endloop
 endfacet
 facet normal 0 0 -1
  outer loop
   vertex -0.102394 0.089957 0
   vertex -0.105424 0.0944916 0
   vertex 0 0.161654 0
  endloop
 endfacet
 facet normal 0 0 -1
  outer loop
   vertex -0.105424 0.0944916 0
   vertex -0.108253 0.0991541 0
   vertex 0 0.161654 0
  endloop
 endfacet
 facet normal 0 0 -1
  outer loop
   vertex 0 0.161654 0
   vertex -0.108253 0.0991541 0
   vertex -0.110876 0.103935 0
  endloop
 endfacet
 facet normal 0 0 -1
  outer loop
   vertex -0.0921597 0.0772053 0
   vertex -0.0957556 0.0813056 0
   vertex 0 0.161654 0
  endloop
 endfacet
 facet normal 0 0 -1
  outer loop
   vertex -0.0957556 0.0813056 0
   vertex -0.0991692 0.0855589 0
   vertex 0 0.161654 0
  endloop
 endfacet
 facet normal 0 0 -1
  outer loop
   vertex 0 0.161654 0
   vertex -0.0991692 0.0855589 0
   vertex -0.102394 0.089957 0
  endloop
 endfacet
 facet normal 0 0 -1
  outer loop
   vertex -0.0803485 0.0658985 0
   vertex -0.0844488 0.0694944 0
   vertex 0 0.161654 0
  endloop
 endfacet
 facet normal 0 0 -1
  outer loop
   vertex -0.0844488 0.0694944 0
   vertex -0.0883883 0.0732657 0
   vertex 0 0.161654 0
  endloop
 endfacet
 facet normal 0 0 -1
  outer loop
   vertex 0 0.161654 0
   vertex -0.0883883 0.0732657 0
   vertex -0.0921597 0.0772053 0
  endloop
 endfacet
 facet normal 0 0 -1
  outer loop
   vertex -0.0671625 0.0562301 0
   vertex -0.0716971 0.0592601 0
   vertex 0 0.161654 0
  endloop
 endfacet
 facet normal 0 0 -1
  outer loop
   vertex -0.0716971 0.0592601 0
   vertex -0.0760952 0.0624849 0
   vertex 0 0.161654 0
  endloop
 endfacet
 facet normal 0 0 -1
  outer loop
   vertex 0 0.161654 0
   vertex -0.0760952 0.0624849 0
   vertex -0.0803485 0.0658985 0
  endloop
 endfacet
 facet normal 0 0 -1
  outer loop
   vertex -0.0528273 0.0483656 0
   vertex -0.0577186 0.0507777 0
   vertex 0 0.161654 0
  endloop
 endfacet
 facet normal 0 0 -1
  outer loop
   vertex -0.0577186 0.0507777 0
   vertex -0.0625 0.0534009 0
   vertex 0 0.161654 0
  endloop
 endfacet
 facet normal 0 0 -1
  outer loop
   vertex 0 0.161654 0
   vertex -0.0625 0.0534009 0
   vertex -0.0671625 0.0562301 0
  endloop
 endfacet
 facet normal 0 0 -1
  outer loop
   vertex -0.0375882 0.0424395 0
   vertex -0.0427525 0.0441925 0
   vertex 0 0.161654 0
  endloop
 endfacet
 facet normal 0 0 -1
  outer loop
   vertex -0.0427525 0.0441925 0
   vertex -0.0478354 0.0461691 0
   vertex 0 0.161654 0
  endloop
 endfacet
 facet normal 0 0 -1
  outer loop
   vertex 0 0.161654 0
   vertex -0.0478354 0.0461691 0
   vertex -0.0528273 0.0483656 0
  endloop
 endfacet
 facet normal 0 0 -1
  outer loop
   vertex -0.021706 0.0385531 0
   vertex -0.027055 0.0396171 0
   vertex 0 0.161654 0
  endloop
 endfacet
 facet normal 0 0 -1
  outer loop
   vertex -0.027055 0.0396171 0
   vertex -0.0323524 0.0409133 0
   vertex 0 0.161654 0
  endloop
 endfacet
 facet normal 0 0 -1
  outer loop
   vertex 0 0.161654 0
   vertex -0.0323524 0.0409133 0
   vertex -0.0375882 0.0424395 0
  endloop
 endfacet
 facet normal 0 0 -1
  outer loop
   vertex -0.00545242 0.036773 0
   vertex -0.0108945 0.0371297 0
   vertex 0 0.161654 0
  endloop
 endfacet
 facet normal 0 0 -1
  outer loop
   vertex -0.0108945 0.0371297 0
   vertex -0.0163158 0.0377235 0
   vertex 0 0.161654 0
  endloop
 endfacet
 facet normal 0 0 -1
  outer loop
   vertex 0 0.161654 0
   vertex -0.0163158 0.0377235 0
   vertex -0.021706 0.0385531 0
  endloop
 endfacet
 facet normal -0 0 -1
  outer loop
   vertex 0.0108945 0.0371297 0
   vertex 0.00545242 0.036773 0
   vertex 0 0.161654 0
  endloop
 endfacet
 facet normal -0 0 -1
  outer loop
   vertex 0.00545242 0.036773 0
   vertex 2.29621e-17 0.0366541 0
   vertex 0 0.161654 0
  endloop
 endfacet
 facet normal 0 -0 -1
  outer loop
   vertex 0 0.161654 0
   vertex 2.29621e-17 0.0366541 0
   vertex -0.00545242 0.036773 0
  endloop
 endfacet
 facet normal -0 0 -1
  outer loop
   vertex 0.027055 0.0396171 0
   vertex 0.021706 0.0385531 0
   vertex 0 0.161654 0
  endloop
 endfacet
 facet normal -0 0 -1
  outer loop
   vertex 0.021706 0.0385531 0
   vertex 0.0163158 0.0377235 0
   vertex 0 0.161654 0
  endloop
 endfacet
 facet normal 0 0 -1
  outer loop
   vertex 0 0.161654 0
   vertex 0.0163158 0.0377235 0
   vertex 0.0108945 0.0371297 0
  endloop
 endfacet
 facet normal -0 0 -1
  outer loop
   vertex 0.0427525 0.0441925 0
   vertex 0.0375882 0.0424395 0
   vertex 0 0.161654 0
  endloop
 endfacet
 facet normal -0 0 -1
  outer loop
   vertex 0.0375882 0.0424395 0
   vertex 0.0323524 0.0409133 0
   vertex 0 0.161654 0
  endloop
 endfacet
 facet normal 0 0 -1
  outer loop
   vertex 0 0.161654 0
   vertex 0.0323524 0.0409133 0
   vertex 0.027055 0.0396171 0
  endloop
 endfacet
 facet normal -0 0 -1
  outer loop
   vertex 0.0577186 0.0507777 0
   vertex 0.0528273 0.0483656 0
   vertex 0 0.161654 0
  endloop
 endfacet
 facet normal -0 0 -1
  outer loop
   vertex 0.0528273 0.0483656 0
   vertex 0.0478354 0.0461691 0
   vertex 0 0.161654 0
  endloop
 endfacet
 facet normal 0 0 -1
  outer loop
   vertex 0 0.161654 0
   vertex 0.0478354 0.0461691 0
   vertex 0.0427525 0.0441925 0
  endloop
 endfacet
 facet normal -0 0 -1
  outer loop
   vertex 0.0716971 0.0592601 0
   vertex 0.0671625 0.0562301 0
   vertex 0 0.161654 0
  endloop
 endfacet
 facet normal -0 0 -1
  outer loop
   vertex 0.0671625 0.0562301 0
   vertex 0.0625 0.0534009 0
   vertex 0 0.161654 0
  endloop
 endfacet
 facet normal 0 0 -1
  outer loop
   vertex 0 0.161654 0
   vertex 0.0625 0.0534009 0
   vertex 0.0577186 0.0507777 0
  endloop
 endfacet
 facet normal -0 0 -1
  outer loop
   vertex 0.0844488 0.0694944 0
   vertex 0.0803485 0.0658985 0
   vertex 0 0.161654 0
  endloop
 endfacet
 facet normal -0 0 -1
  outer loop
   vertex 0.0803485 0.0658985 0
   vertex 0.0760952 0.0624849 0
   vertex 0 0.161654 0
  endloop
 endfacet
 facet normal 0 0 -1
  outer loop
   vertex 0 0.161654 0
   vertex 0.0760952 0.0624849 0
   vertex 0.0716971 0.0592601 0
  endloop
 endfacet
 facet normal -0 0 -1
  outer loop
   vertex 0.0957556 0.0813056 0
   vertex 0.0921597 0.0772053 0
   vertex 0 0.161654 0
  endloop
 endfacet
 facet normal -0 0 -1
  outer loop
   vertex 0.0921597 0.0772053 0
   vertex 0.0883883 0.0732657 0
   vertex 0 0.161654 0
  endloop
 endfacet
 facet normal 0 0 -1
  outer loop
   vertex 0 0.161654 0
   vertex 0.0883883 0.0732657 0
   vertex 0.0844488 0.0694944 0
  endloop
 endfacet
 facet normal -0 0 -1
  outer loop
   vertex 0.105424 0.0944916 0
   vertex 0.102394 0.089957 0
   vertex 0 0.161654 0
  endloop
 endfacet
 facet normal -0 0 -1
  outer loop
   vertex 0.102394 0.089957 0
   vertex 0.0991692 0.0855589 0
   vertex 0 0.161654 0
  endloop
 endfacet
 facet normal 0 0 -1
  outer loop
   vertex 0 0.161654 0
   vertex 0.0991692 0.0855589 0
   vertex 0.0957556 0.0813056 0
  endloop
 endfacet
 facet normal -0 0 -1
  outer loop
   vertex 0.113288 0.108827 0
   vertex 0.110876 0.103935 0
   vertex 0 0.161654 0
  endloop
 endfacet
 facet normal -0 0 -1
  outer loop
   vertex 0.110876 0.103935 0
   vertex 0.108253 0.0991541 0
   vertex 0 0.161654 0
  endloop
 endfacet
 facet normal 0 0 -1
  outer loop
   vertex 0 0.161654 0
   vertex 0.108253 0.0991541 0
   vertex 0.105424 0.0944916 0
  endloop
 endfacet
 facet normal -0 0 -1
  outer loop
   vertex 0.119215 0.124066 0
   vertex 0.117462 0.118902 0
   vertex 0 0.161654 0
  endloop
 endfacet
 facet normal -0 0 -1
  outer loop
   vertex 0.117462 0.118902 0
   vertex 0.115485 0.113819 0
   vertex 0 0.161654 0
  endloop
 endfacet
 facet normal 0 0 -1
  outer loop
   vertex 0 0.161654 0
   vertex 0.115485 0.113819 0
   vertex 0.113288 0.108827 0
  endloop
 endfacet
 facet normal -0 0 -1
  outer loop
   vertex 0.123101 0.139948 0
   vertex 0.122037 0.134599 0
   vertex 0 0.161654 0
  endloop
 endfacet
 facet normal -0 0 -1
  outer loop
   vertex 0.122037 0.134599 0
   vertex 0.120741 0.129302 0
   vertex 0 0.161654 0
  endloop
 endfacet
 facet normal 0 0 -1
  outer loop
   vertex 0 0.161654 0
   vertex 0.120741 0.129302 0
   vertex 0.119215 0.124066 0
  endloop
 endfacet
 facet normal -0 0 -1
  outer loop
   vertex 0.124881 0.156202 0
   vertex 0.124524 0.15076 0
   vertex 0 0.161654 0
  endloop
 endfacet
 facet normal -0 0 -1
  outer loop
   vertex 0.124524 0.15076 0
   vertex 0.123931 0.145338 0
   vertex 0 0.161654 0
  endloop
 endfacet
 facet normal 0 0 -1
  outer loop
   vertex 0 0.161654 0
   vertex 0.123931 0.145338 0
   vertex 0.123101 0.139948 0
  endloop
 endfacet
 facet normal -0.999762 0.0218146 0
  outer loop
   vertex -0.125 0.161654 0
   vertex -0.124881 0.167106 0.5
   vertex -0.124881 0.167106 0
  endloop
 endfacet
 facet normal -0.997859 0.0654029 0
  outer loop
   vertex -0.124881 0.167106 0.5
   vertex -0.124524 0.172549 0.5
   vertex -0.124881 0.167106 0
  endloop
 endfacet
 facet normal -0.997859 0.0654029 0
  outer loop
   vertex -0.124881 0.167106 0
   vertex -0.124524 0.172549 0.5
   vertex -0.124524 0.172549 0
  endloop
 endfacet
 facet normal -0.994056 0.108867 0
  outer loop
   vertex -0.124524 0.172549 0.5
   vertex -0.123931 0.17797 0.5
   vertex -0.124524 0.172549 0
  endloop
 endfacet
 facet normal -0.994056 0.108867 0
  outer loop
   vertex -0.124524 0.172549 0
   vertex -0.123931 0.17797 0.5
   vertex -0.123931 0.17797 0
  endloop
 endfacet
 facet normal -0.988361 0.152124 0
  outer loop
   vertex -0.123931 0.17797 0.5
   vertex -0.123101 0.18336 0.5
   vertex -0.123931 0.17797 0
  endloop
 endfacet
 facet normal -0.988361 0.152124 0
  outer loop
   vertex -0.123931 0.17797 0
   vertex -0.123101 0.18336 0.5
   vertex -0.123101 0.18336 0
  endloop
 endfacet
 facet normal -0.980785 0.19509 0
  outer loop
   vertex -0.123101 0.18336 0.5
   vertex -0.122037 0.188709 0.5
   vertex -0.123101 0.18336 0
  endloop
 endfacet
 facet normal -0.980785 0.19509 0
  outer loop
   vertex -0.123101 0.18336 0
   vertex -0.122037 0.188709 0.5
   vertex -0.122037 0.188709 0
  endloop
 endfacet
 facet normal -0.971342 0.237686 0
  outer loop
   vertex -0.122037 0.188709 0.5
   vertex -0.120741 0.194006 0.5
   vertex -0.122037 0.188709 0
  endloop
 endfacet
 facet normal -0.971342 0.237686 0
  outer loop
   vertex -0.122037 0.188709 0
   vertex -0.120741 0.194006 0.5
   vertex -0.120741 0.194006 0
  endloop
 endfacet
 facet normal -0.96005 0.279829 0
  outer loop
   vertex -0.120741 0.194006 0.5
   vertex -0.119215 0.199242 0.5
   vertex -0.120741 0.194006 0
  endloop
 endfacet
 facet normal -0.96005 0.279829 0
  outer loop
   vertex -0.120741 0.194006 0
   vertex -0.119215 0.199242 0.5
   vertex -0.119215 0.199242 0
  endloop
 endfacet
 facet normal -0.94693 0.321439 0
  outer loop
   vertex -0.119215 0.199242 0.5
   vertex -0.117462 0.204407 0.5
   vertex -0.119215 0.199242 0
  endloop
 endfacet
 facet normal -0.94693 0.321439 0
  outer loop
   vertex -0.119215 0.199242 0
   vertex -0.117462 0.204407 0.5
   vertex -0.117462 0.204407 0
  endloop
 endfacet
 facet normal -0.932008 0.362439 0
  outer loop
   vertex -0.117462 0.204407 0.5
   vertex -0.115485 0.209489 0.5
   vertex -0.117462 0.204407 0
  endloop
 endfacet
 facet normal -0.932008 0.362439 0
  outer loop
   vertex -0.117462 0.204407 0
   vertex -0.115485 0.209489 0.5
   vertex -0.115485 0.209489 0
  endloop
 endfacet
 facet normal -0.915312 0.402745 0
  outer loop
   vertex -0.115485 0.209489 0.5
   vertex -0.113288 0.214481 0.5
   vertex -0.115485 0.209489 0
  endloop
 endfacet
 facet normal -0.915312 0.402745 0
  outer loop
   vertex -0.115485 0.209489 0
   vertex -0.113288 0.214481 0.5
   vertex -0.113288 0.214481 0
  endloop
 endfacet
 facet normal -0.896872 0.44229 0
  outer loop
   vertex -0.113288 0.214481 0.5
   vertex -0.110876 0.219373 0.5
   vertex -0.113288 0.214481 0
  endloop
 endfacet
 facet normal -0.896872 0.44229 0
  outer loop
   vertex -0.113288 0.214481 0
   vertex -0.110876 0.219373 0.5
   vertex -0.110876 0.219373 0
  endloop
 endfacet
 facet normal -0.876727 0.480989 0
  outer loop
   vertex -0.110876 0.219373 0.5
   vertex -0.108253 0.224154 0.5
   vertex -0.110876 0.219373 0
  endloop
 endfacet
 facet normal -0.876727 0.480989 0
  outer loop
   vertex -0.110876 0.219373 0
   vertex -0.108253 0.224154 0.5
   vertex -0.108253 0.224154 0
  endloop
 endfacet
 facet normal -0.854912 0.518773 0
  outer loop
   vertex -0.108253 0.224154 0.5
   vertex -0.105424 0.228817 0.5
   vertex -0.108253 0.224154 0
  endloop
 endfacet
 facet normal -0.854912 0.518773 0
  outer loop
   vertex -0.108253 0.224154 0
   vertex -0.105424 0.228817 0.5
   vertex -0.105424 0.228817 0
  endloop
 endfacet
 facet normal -0.83147 0.55557 0
  outer loop
   vertex -0.105424 0.228817 0.5
   vertex -0.102394 0.233351 0.5
   vertex -0.105424 0.228817 0
  endloop
 endfacet
 facet normal -0.83147 0.55557 0
  outer loop
   vertex -0.105424 0.228817 0
   vertex -0.102394 0.233351 0.5
   vertex -0.102394 0.233351 0
  endloop
 endfacet
 facet normal -0.806444 0.59131 0
  outer loop
   vertex -0.102394 0.233351 0.5
   vertex -0.0991692 0.237749 0.5
   vertex -0.102394 0.233351 0
  endloop
 endfacet
 facet normal -0.806444 0.59131 0
  outer loop
   vertex -0.102394 0.233351 0
   vertex -0.0991692 0.237749 0.5
   vertex -0.0991692 0.237749 0
  endloop
 endfacet
 facet normal -0.779885 0.625923 0
  outer loop
   vertex -0.0991692 0.237749 0.5
   vertex -0.0957556 0.242003 0.5
   vertex -0.0991692 0.237749 0
  endloop
 endfacet
 facet normal -0.779885 0.625923 0
  outer loop
   vertex -0.0991692 0.237749 0
   vertex -0.0957556 0.242003 0.5
   vertex -0.0957556 0.242003 0
  endloop
 endfacet
 facet normal -0.75184 0.659346 0
  outer loop
   vertex -0.0957556 0.242003 0.5
   vertex -0.0921597 0.246103 0.5
   vertex -0.0957556 0.242003 0
  endloop
 endfacet
 facet normal -0.75184 0.659346 0
  outer loop
   vertex -0.0957556 0.242003 0
   vertex -0.0921597 0.246103 0.5
   vertex -0.0921597 0.246103 0
  endloop
 endfacet
 facet normal -0.722364 0.691513 0
  outer loop
   vertex -0.0921597 0.246103 0.5
   vertex -0.0883883 0.250042 0.5
   vertex -0.0921597 0.246103 0
  endloop
 endfacet
 facet normal -0.722364 0.691513 0
  outer loop
   vertex -0.0921597 0.246103 0
   vertex -0.0883883 0.250042 0.5
   vertex -0.0883883 0.250042 0
  endloop
 endfacet
 facet normal -0.691513 0.722364 0
  outer loop
   vertex -0.0883883 0.250042 0.5
   vertex -0.0844488 0.253814 0.5
   vertex -0.0883883 0.250042 0
  endloop
 endfacet
 facet normal -0.691513 0.722364 0
  outer loop
   vertex -0.0883883 0.250042 0
   vertex -0.0844488 0.253814 0.5
   vertex -0.0844488 0.253814 0
  endloop
 endfacet
 facet normal -0.659346 0.75184 0
  outer loop
   vertex -0.0844488 0.253814 0.5
   vertex -0.0803485 0.25741 0.5
   vertex -0.0844488 0.253814 0
  endloop
 endfacet
 facet normal -0.659346 0.75184 0
  outer loop
   vertex -0.0844488 0.253814 0
   vertex -0.0803485 0.25741 0.5
   vertex -0.0803485 0.25741 0
  endloop
 endfacet
 facet normal -0.625923 0.779885 0
  outer loop
   vertex -0.0803485 0.25741 0.5
   vertex -0.0760952 0.260823 0.5
   vertex -0.0803485 0.25741 0
  endloop
 endfacet
 facet normal -0.625923 0.779885 0
  outer loop
   vertex -0.0803485 0.25741 0
   vertex -0.0760952 0.260823 0.5
   vertex -0.0760952 0.260823 0
  endloop
 endfacet
 facet normal -0.59131 0.806444 0
  outer loop
   vertex -0.0760952 0.260823 0.5
   vertex -0.0716971 0.264048 0.5
   vertex -0.0760952 0.260823 0
  endloop
 endfacet
 facet normal -0.59131 0.806444 0
  outer loop
   vertex -0.0760952 0.260823 0
   vertex -0.0716971 0.264048 0.5
   vertex -0.0716971 0.264048 0
  endloop
 endfacet
 facet normal -0.55557 0.83147 0
  outer loop
   vertex -0.0716971 0.264048 0.5
   vertex -0.0671625 0.267078 0.5
   vertex -0.0716971 0.264048 0
  endloop
 endfacet
 facet normal -0.55557 0.83147 0
  outer loop
   vertex -0.0716971 0.264048 0
   vertex -0.0671625 0.267078 0.5
   vertex -0.0671625 0.267078 0
  endloop
 endfacet
 facet normal -0.518773 0.854912 0
  outer loop
   vertex -0.0671625 0.267078 0.5
   vertex -0.0625 0.269907 0.5
   vertex -0.0671625 0.267078 0
  endloop
 endfacet
 facet normal -0.518773 0.854912 0
  outer loop
   vertex -0.0671625 0.267078 0
   vertex -0.0625 0.269907 0.5
   vertex -0.0625 0.269907 0
  endloop
 endfacet
 facet normal -0.480989 0.876727 0
  outer loop
   vertex -0.0625 0.269907 0.5
   vertex -0.0577186 0.27253 0.5
   vertex -0.0625 0.269907 0
  endloop
 endfacet
 facet normal -0.480989 0.876727 0
  outer loop
   vertex -0.0625 0.269907 0
   vertex -0.0577186 0.27253 0.5
   vertex -0.0577186 0.27253 0
  endloop
 endfacet
 facet normal -0.44229 0.896872 0
  outer loop
   vertex -0.0577186 0.27253 0.5
   vertex -0.0528273 0.274943 0.5
   vertex -0.0577186 0.27253 0
  endloop
 endfacet
 facet normal -0.44229 0.896872 0
  outer loop
   vertex -0.0577186 0.27253 0
   vertex -0.0528273 0.274943 0.5
   vertex -0.0528273 0.274943 0
  endloop
 endfacet
 facet normal -0.402745 0.915312 0
  outer loop
   vertex -0.0528273 0.274943 0.5
   vertex -0.0478354 0.277139 0.5
   vertex -0.0528273 0.274943 0
  endloop
 endfacet
 facet normal -0.402745 0.915312 0
  outer loop
   vertex -0.0528273 0.274943 0
   vertex -0.0478354 0.277139 0.5
   vertex -0.0478354 0.277139 0
  endloop
 endfacet
 facet normal -0.362439 0.932008 0
  outer loop
   vertex -0.0478354 0.277139 0.5
   vertex -0.0427525 0.279116 0.5
   vertex -0.0478354 0.277139 0
  endloop
 endfacet
 facet normal -0.362439 0.932008 0
  outer loop
   vertex -0.0478354 0.277139 0
   vertex -0.0427525 0.279116 0.5
   vertex -0.0427525 0.279116 0
  endloop
 endfacet
 facet normal -0.321439 0.94693 0
  outer loop
   vertex -0.0427525 0.279116 0.5
   vertex -0.0375882 0.280869 0.5
   vertex -0.0427525 0.279116 0
  endloop
 endfacet
 facet normal -0.321439 0.94693 0
  outer loop
   vertex -0.0427525 0.279116 0
   vertex -0.0375882 0.280869 0.5
   vertex -0.0375882 0.280869 0
  endloop
 endfacet
 facet normal -0.279829 0.96005 0
  outer loop
   vertex -0.0375882 0.280869 0.5
   vertex -0.0323524 0.282395 0.5
   vertex -0.0375882 0.280869 0
  endloop
 endfacet
 facet normal -0.279829 0.96005 0
  outer loop
   vertex -0.0375882 0.280869 0
   vertex -0.0323524 0.282395 0.5
   vertex -0.0323524 0.282395 0
  endloop
 endfacet
 facet normal -0.237686 0.971342 0
  outer loop
   vertex -0.0323524 0.282395 0.5
   vertex -0.027055 0.283691 0.5
   vertex -0.0323524 0.282395 0
  endloop
 endfacet
 facet normal -0.237686 0.971342 0
  outer loop
   vertex -0.0323524 0.282395 0
   vertex -0.027055 0.283691 0.5
   vertex -0.027055 0.283691 0
  endloop
 endfacet
 facet normal -0.19509 0.980785 0
  outer loop
   vertex -0.027055 0.283691 0.5
   vertex -0.021706 0.284755 0.5
   vertex -0.027055 0.283691 0
  endloop
 endfacet
 facet normal -0.19509 0.980785 0
  outer loop
   vertex -0.027055 0.283691 0
   vertex -0.021706 0.284755 0.5
   vertex -0.021706 0.284755 0
  endloop
 endfacet
 facet normal -0.152124 0.988361 0
  outer loop
   vertex -0.021706 0.284755 0.5
   vertex -0.0163158 0.285585 0.5
   vertex -0.021706 0.284755 0
  endloop
 endfacet
 facet normal -0.152124 0.988361 0
  outer loop
   vertex -0.021706 0.284755 0
   vertex -0.0163158 0.285585 0.5
   vertex -0.0163158 0.285585 0
  endloop
 endfacet
 facet normal -0.108867 0.994056 0
  outer loop
   vertex -0.0163158 0.285585 0.5
   vertex -0.0108945 0.286178 0.5
   vertex -0.0163158 0.285585 0
  endloop
 endfacet
 facet normal -0.108867 0.994056 0
  outer loop
   vertex -0.0163158 0.285585 0
   vertex -0.0108945 0.286178 0.5
   vertex -0.0108945 0.286178 0
  endloop
 endfacet
 facet normal -0.0654029 0.997859 0
  outer loop
   vertex -0.0108945 0.286178 0.5
   vertex -0.00545242 0.286535 0.5
   vertex -0.0108945 0.286178 0
  endloop
 endfacet
 facet normal -0.0654029 0.997859 0
  outer loop
   vertex -0.0108945 0.286178 0
   vertex -0.00545242 0.286535 0.5
   vertex -0.00545242 0.286535 0
  endloop
 endfacet
 facet normal -0.0218146 0.999762 0
  outer loop
   vertex -0.00545242 0.286535 0.5
   vertex -7.65404e-18 0.286654 0.5
   vertex -0.00545242 0.286535 0
  endloop
 endfacet
 facet normal -0.0218146 0.999762 0
  outer loop
   vertex -0.00545242 0.286535 0
   vertex -7.65404e-18 0.286654 0.5
   vertex -7.65404e-18 0.286654 0
  endloop
 endfacet
 facet normal 0.0218146 0.999762 0
  outer loop
   vertex -7.65404e-18 0.286654 0.5
   vertex 0.00545242 0.286535 0.5
   vertex -7.65404e-18 0.286654 0
  endloop
 endfacet
 facet normal 0.0218146 0.999762 0
  outer loop
   vertex -7.65404e-18 0.286654 0
   vertex 0.00545242 0.286535 0.5
   vertex 0.00545242 0.286535 0
  endloop
 endfacet
 facet normal 0.0654029 0.997859 0
  outer loop
   vertex 0.00545242 0.286535 0.5
   vertex 0.0108945 0.286178 0.5
   vertex 0.00545242 0.286535 0
  endloop
 endfacet
 facet normal 0.0654029 0.997859 0
  outer loop
   vertex 0.00545242 0.286535 0
   vertex 0.0108945 0.286178 0.5
   vertex 0.0108945 0.286178 0
  endloop
 endfacet
 facet normal 0.108867 0.994056 0
  outer loop
   vertex 0.0108945 0.286178 0.5
   vertex 0.0163158 0.285585 0.5
   vertex 0.0108945 0.286178 0
  endloop
 endfacet
 facet normal 0.108867 0.994056 0
  outer loop
   vertex 0.0108945 0.286178 0
   vertex 0.0163158 0.285585 0.5
   vertex 0.0163158 0.285585 0
  endloop
 endfacet
 facet normal 0.152124 0.988361 0
  outer loop
   vertex 0.0163158 0.285585 0.5
   vertex 0.021706 0.284755 0.5
   vertex 0.0163158 0.285585 0
  endloop
 endfacet
 facet normal 0.152124 0.988361 0
  outer loop
   vertex 0.0163158 0.285585 0
   vertex 0.021706 0.284755 0.5
   vertex 0.021706 0.284755 0
  endloop
 endfacet
 facet normal 0.19509 0.980785 0
  outer loop
   vertex 0.021706 0.284755 0.5
   vertex 0.027055 0.283691 0.5
   vertex 0.021706 0.284755 0
  endloop
 endfacet
 facet normal 0.19509 0.980785 0
  outer loop
   vertex 0.021706 0.284755 0
   vertex 0.027055 0.283691 0.5
   vertex 0.027055 0.283691 0
  endloop
 endfacet
 facet normal 0.237686 0.971342 0
  outer loop
   vertex 0.027055 0.283691 0.5
   vertex 0.0323524 0.282395 0.5
   vertex 0.027055 0.283691 0
  endloop
 endfacet
 facet normal 0.237686 0.971342 0
  outer loop
   vertex 0.027055 0.283691 0
   vertex 0.0323524 0.282395 0.5
   vertex 0.0323524 0.282395 0
  endloop
 endfacet
 facet normal 0.279829 0.96005 0
  outer loop
   vertex 0.0323524 0.282395 0.5
   vertex 0.0375882 0.280869 0.5
   vertex 0.0323524 0.282395 0
  endloop
 endfacet
 facet normal 0.279829 0.96005 0
  outer loop
   vertex 0.0323524 0.282395 0
   vertex 0.0375882 0.280869 0.5
   vertex 0.0375882 0.280869 0
  endloop
 endfacet
 facet normal 0.321439 0.94693 0
  outer loop
   vertex 0.0375882 0.280869 0.5
   vertex 0.0427525 0.279116 0.5
   vertex 0.0375882 0.280869 0
  endloop
 endfacet
 facet normal 0.321439 0.94693 0
  outer loop
   vertex 0.0375882 0.280869 0
   vertex 0.0427525 0.279116 0.5
   vertex 0.0427525 0.279116 0
  endloop
 endfacet
 facet normal 0.362439 0.932008 0
  outer loop
   vertex 0.0427525 0.279116 0.5
   vertex 0.0478354 0.277139 0.5
   vertex 0.0427525 0.279116 0
  endloop
 endfacet
 facet normal 0.362439 0.932008 0
  outer loop
   vertex 0.0427525 0.279116 0
   vertex 0.0478354 0.277139 0.5
   vertex 0.0478354 0.277139 0
  endloop
 endfacet
 facet normal 0.402745 0.915312 0
  outer loop
   vertex 0.0478354 0.277139 0.5
   vertex 0.0528273 0.274943 0.5
   vertex 0.0478354 0.277139 0
  endloop
 endfacet
 facet normal 0.402745 0.915312 0
  outer loop
   vertex 0.0478354 0.277139 0
   vertex 0.0528273 0.274943 0.5
   vertex 0.0528273 0.274943 0
  endloop
 endfacet
 facet normal 0.44229 0.896872 0
  outer loop
   vertex 0.0528273 0.274943 0.5
   vertex 0.0577186 0.27253 0.5
   vertex 0.0528273 0.274943 0
  endloop
 endfacet
 facet normal 0.44229 0.896872 0
  outer loop
   vertex 0.0528273 0.274943 0
   vertex 0.0577186 0.27253 0.5
   vertex 0.0577186 0.27253 0
  endloop
 endfacet
 facet normal 0.480989 0.876727 0
  outer loop
   vertex 0.0577186 0.27253 0.5
   vertex 0.0625 0.269907 0.5
   vertex 0.0577186 0.27253 0
  endloop
 endfacet
 facet normal 0.480989 0.876727 0
  outer loop
   vertex 0.0577186 0.27253 0
   vertex 0.0625 0.269907 0.5
   vertex 0.0625 0.269907 0
  endloop
 endfacet
 facet normal 0.518773 0.854912 0
  outer loop
   vertex 0.0625 0.269907 0.5
   vertex 0.0671625 0.267078 0.5
   vertex 0.0625 0.269907 0
  endloop
 endfacet
 facet normal 0.518773 0.854912 0
  outer loop
   vertex 0.0625 0.269907 0
   vertex 0.0671625 0.267078 0.5
   vertex 0.0671625 0.267078 0
  endloop
 endfacet
 facet normal 0.55557 0.83147 0
  outer loop
   vertex 0.0671625 0.267078 0.5
   vertex 0.0716971 0.264048 0.5
   vertex 0.0671625 0.267078 0
  endloop
 endfacet
 facet normal 0.55557 0.83147 0
  outer loop
   vertex 0.0671625 0.267078 0
   vertex 0.0716971 0.264048 0.5
   vertex 0.0716971 0.264048 0
  endloop
 endfacet
 facet normal 0.59131 0.806444 0
  outer loop
   vertex 0.0716971 0.264048 0.5
   vertex 0.0760952 0.260823 0.5
   vertex 0.0716971 0.264048 0
  endloop
 endfacet
 facet normal 0.59131 0.806444 0
  outer loop
   vertex 0.0716971 0.264048 0
   vertex 0.0760952 0.260823 0.5
   vertex 0.0760952 0.260823 0
  endloop
 endfacet
 facet normal 0.625923 0.779885 0
  outer loop
   vertex 0.0760952 0.260823 0.5
   vertex 0.0803485 0.25741 0.5
   vertex 0.0760952 0.260823 0
  endloop
 endfacet
 facet normal 0.625923 0.779885 0
  outer loop
   vertex 0.0760952 0.260823 0
   vertex 0.0803485 0.25741 0.5
   vertex 0.0803485 0.25741 0
  endloop
 endfacet
 facet normal 0.659346 0.75184 0
  outer loop
   vertex 0.0803485 0.25741 0.5
   vertex 0.0844488 0.253814 0.5
   vertex 0.0803485 0.25741 0
  endloop
 endfacet
 facet normal 0.659346 0.75184 0
  outer loop
   vertex 0.0803485 0.25741 0
   vertex 0.0844488 0.253814 0.5
   vertex 0.0844488 0.253814 0
  endloop
 endfacet
 facet normal 0.691513 0.722364 0
  outer loop
   vertex 0.0844488 0.253814 0.5
   vertex 0.0883883 0.250042 0.5
   vertex 0.0844488 0.253814 0
  endloop
 endfacet
 facet normal 0.691513 0.722364 0
  outer loop
   vertex 0.0844488 0.253814 0
   vertex 0.0883883 0.250042 0.5
   vertex 0.0883883 0.250042 0
  endloop
 endfacet
 facet normal 0.722364 0.691513 0
  outer loop
   vertex 0.0883883 0.250042 0.5
   vertex 0.0921597 0.246103 0.5
   vertex 0.0883883 0.250042 0
  endloop
 endfacet
 facet normal 0.722364 0.691513 0
  outer loop
   vertex 0.0883883 0.250042 0
   vertex 0.0921597 0.246103 0.5
   vertex 0.0921597 0.246103 0
  endloop
 endfacet
 facet normal 0.75184 0.659346 0
  outer loop
   vertex 0.0921597 0.246103 0.5
   vertex 0.0957556 0.242003 0.5
   vertex 0.0921597 0.246103 0
  endloop
 endfacet
 facet normal 0.75184 0.659346 0
  outer loop
   vertex 0.0921597 0.246103 0
   vertex 0.0957556 0.242003 0.5
   vertex 0.0957556 0.242003 0
  endloop
 endfacet
 facet normal 0.779885 0.625923 0
  outer loop
   vertex 0.0957556 0.242003 0.5
   vertex 0.0991692 0.237749 0.5
   vertex 0.0957556 0.242003 0
  endloop
 endfacet
 facet normal 0.779885 0.625923 0
  outer loop
   vertex 0.0957556 0.242003 0
   vertex 0.0991692 0.237749 0.5
   vertex 0.0991692 0.237749 0
  endloop
 endfacet
 facet normal 0.806444 0.59131 0
  outer loop
   vertex 0.0991692 0.237749 0.5
   vertex 0.102394 0.233351 0.5
   vertex 0.0991692 0.237749 0
  endloop
 endfacet
 facet normal 0.806444 0.59131 0
  outer loop
   vertex 0.0991692 0.237749 0
   vertex 0.102394 0.233351 0.5
   vertex 0.102394 0.233351 0
  endloop
 endfacet
 facet normal 0.83147 0.55557 0
  outer loop
   vertex 0.102394 0.233351 0.5
   vertex 0.105424 0.228817 0.5
   vertex 0.102394 0.233351 0
  endloop
 endfacet
 facet normal 0.83147 0.55557 0
  outer loop
   vertex 0.102394 0.233351 0
   vertex 0.105424 0.228817 0.5
   vertex 0.105424 0.228817 0
  endloop
 endfacet
 facet normal 0.854912 0.518773 0
  outer loop
   vertex 0.105424 0.228817 0.5
   vertex 0.108253 0.224154 0.5
   vertex 0.105424 0.228817 0
  endloop
 endfacet
 facet normal 0.854912 0.518773 0
  outer loop
   vertex 0.105424 0.228817 0
   vertex 0.108253 0.224154 0.5
   vertex 0.108253 0.224154 0
  endloop
 endfacet
 facet normal 0.876727 0.480989 0
  outer loop
   vertex 0.108253 0.224154 0.5
   vertex 0.110876 0.219373 0.5
   vertex 0.108253 0.224154 0
  endloop
 endfacet
 facet normal 0.876727 0.480989 0
  outer loop
   vertex 0.108253 0.224154 0
   vertex 0.110876 0.219373 0.5
   vertex 0.110876 0.219373 0
  endloop
 endfacet
 facet normal 0.896872 0.44229 0
  outer loop
   vertex 0.110876 0.219373 0.5
   vertex 0.113288 0.214481 0.5
   vertex 0.110876 0.219373 0
  endloop
 endfacet
 facet normal 0.896872 0.44229 0
  outer loop
   vertex 0.110876 0.219373 0
   vertex 0.113288 0.214481 0.5
   vertex 0.113288 0.214481 0
  endloop
 endfacet
 facet normal 0.915312 0.402745 0
  outer loop
   vertex 0.113288 0.214481 0.5
   vertex 0.115485 0.209489 0.5
   vertex 0.113288 0.214481 0
  endloop
 endfacet
 facet normal 0.915312 0.402745 0
  outer loop
   vertex 0.113288 0.214481 0
   vertex 0.115485 0.209489 0.5
   vertex 0.115485 0.209489 0
  endloop
 endfacet
 facet normal 0.932008 0.362439 0
  outer loop
   vertex 0.115485 0.209489 0.5
   vertex 0.117462 0.204407 0.5
   vertex 0.115485 0.209489 0
  endloop
 endfacet
 facet normal 0.932008 0.362439 0
  outer loop
   vertex 0.115485 0.209489 0
   vertex 0.117462 0.204407 0.5
   vertex 0.117462 0.204407 0
  endloop
 endfacet
 facet normal 0.94693 0.321439 0
  outer loop
   vertex 0.117462 0.204407 0.5
   vertex 0.119215 0.199242 0.5
   vertex 0.117462 0.204407 0
  endloop
 endfacet
 facet normal 0.94693 0.321439 0
  outer loop
   vertex 0.117462 0.204407 0
   vertex 0.119215 0.199242 0.5
   vertex 0.119215 0.199242 0
  endloop
 endfacet
 facet normal 0.96005 0.279829 0
  outer loop
   vertex 0.119215 0.199242 0.5
   vertex 0.120741 0.194006 0.5
   vertex 0.119215 0.199242 0
  endloop
 endfacet
 facet normal 0.96005 0.279829 0
  outer loop
   vertex 0.119215 0.199242 0
   vertex 0.120741 0.194006 0.5
   vertex 0.120741 0.194006 0
  endloop
 endfacet
 facet normal 0.971342 0.237686 0
  outer loop
   vertex 0.120741 0.194006 0.5
   vertex 0.122037 0.188709 0.5
   vertex 0.120741 0.194006 0
  endloop
 endfacet
 facet normal 0.971342 0.237686 0
  outer loop
   vertex 0.120741 0.194006 0
   vertex 0.122037 0.188709 0.5
   vertex 0.122037 0.188709 0
  endloop
 endfacet
 facet normal 0.980785 0.19509 0
  outer loop
   vertex 0.122037 0.188709 0.5
   vertex 0.123101 0.18336 0.5
   vertex 0.122037 0.188709 0
  endloop
 endfacet
 facet normal 0.980785 0.19509 0
  outer loop
   vertex 0.122037 0.188709 0
   vertex 0.123101 0.18336 0.5
   vertex 0.123101 0.18336 0
  endloop
 endfacet
 facet normal 0.988361 0.152124 0
  outer loop
   vertex 0.123101 0.18336 0.5
   vertex 0.123931 0.17797 0.5
   vertex 0.123101 0.18336 0
  endloop
 endfacet
 facet normal 0.988361 0.152124 0
  outer loop
   vertex 0.123101 0.18336 0
   vertex 0.123931 0.17797 0.5
   vertex 0.123931 0.17797 0
  endloop
 endfacet
 facet normal 0.994056 0.108867 0
  outer loop
   vertex 0.123931 0.17797 0.5
   vertex 0.124524 0.172549 0.5
   vertex 0.123931 0.17797 0
  endloop
 endfacet
 facet normal 0.994056 0.108867 0
  outer loop
   vertex 0.123931 0.17797 0
   vertex 0.124524 0.172549 0.5
   vertex 0.124524 0.172549 0
  endloop
 endfacet
 facet normal 0.997859 0.0654029 0
  outer loop
   vertex 0.124524 0.172549 0.5
   vertex 0.124881 0.167106 0.5
   vertex 0.124524 0.172549 0
  endloop
 endfacet
 facet normal 0.997859 0.0654029 0
  outer loop
   vertex 0.124524 0.172549 0
   vertex 0.124881 0.167106 0.5
   vertex 0.124881 0.167106 0
  endloop
 endfacet
 facet normal 0.999762 0.0218146 0
  outer loop
   vertex 0.124881 0.167106 0.5
   vertex 0.125 0.161654 0.5
   vertex 0.124881 0.167106 0
  endloop
 endfacet
 facet normal 0.999762 0.0218146 -1.20367e-18
  outer loop
   vertex 0.124881 0.167106 0
   vertex 0.125 0.161654 0.5
   vertex 0.125 0.161654 0
  endloop
 endfacet
 facet normal 0.999762 -0.0218146 1.21095e-18
  outer loop
   vertex 0.125 0.161654 0.5
   vertex 0.124881 0.156202 0.5
   vertex 0.125 0.161654 0
  endloop
 endfacet
 facet normal 0.999762 -0.0218146 0
  outer loop
   vertex 0.125 0.161654 0
   vertex 0.124881 0.156202 0.5
   vertex 0.124881 0.156202 0
  endloop
 endfacet
 facet normal 0.997859 -0.0654029 0
  outer loop
   vertex 0.124881 0.156202 0.5
   vertex 0.124524 0.15076 0.5
   vertex 0.124881 0.156202 0
  endloop
 endfacet
 facet normal 0.997859 -0.0654029 0
  outer loop
   vertex 0.124881 0.156202 0
   vertex 0.124524 0.15076 0.5
   vertex 0.124524 0.15076 0
  endloop
 endfacet
 facet normal 0.994056 -0.108867 0
  outer loop
   vertex 0.124524 0.15076 0.5
   vertex 0.123931 0.145338 0.5
   vertex 0.124524 0.15076 0
  endloop
 endfacet
 facet normal 0.994056 -0.108867 0
  outer loop
   vertex 0.124524 0.15076 0
   vertex 0.123931 0.145338 0.5
   vertex 0.123931 0.145338 0
  endloop
 endfacet
 facet normal 0.988361 -0.152124 0
  outer loop
   vertex 0.123931 0.145338 0.5
   vertex 0.123101 0.139948 0.5
   vertex 0.123931 0.145338 0
  endloop
 endfacet
 facet normal 0.988361 -0.152124 0
  outer loop
   vertex 0.123931 0.145338 0
   vertex 0.123101 0.139948 0.5
   vertex 0.123101 0.139948 0
  endloop
 endfacet
 facet normal 0.980785 -0.19509 0
  outer loop
   vertex 0.123101 0.139948 0.5
   vertex 0.122037 0.134599 0.5
   vertex 0.123101 0.139948 0
  endloop
 endfacet
 facet normal 0.980785 -0.19509 0
  outer loop
   vertex 0.123101 0.139948 0
   vertex 0.122037 0.134599 0.5
   vertex 0.122037 0.134599 0
  endloop
 endfacet
 facet normal 0.971342 -0.237686 0
  outer loop
   vertex 0.122037 0.134599 0.5
   vertex 0.120741 0.129302 0.5
   vertex 0.122037 0.134599 0
  endloop
 endfacet
 facet normal 0.971342 -0.237686 0
  outer loop
   vertex 0.122037 0.134599 0
   vertex 0.120741 0.129302 0.5
   vertex 0.120741 0.129302 0
  endloop
 endfacet
 facet normal 0.96005 -0.279829 0
  outer loop
   vertex 0.120741 0.129302 0.5
   vertex 0.119215 0.124066 0.5
   vertex 0.120741 0.129302 0
  endloop
 endfacet
 facet normal 0.96005 -0.279829 0
  outer loop
   vertex 0.120741 0.129302 0
   vertex 0.119215 0.124066 0.5
   vertex 0.119215 0.124066 0
  endloop
 endfacet
 facet normal 0.94693 -0.321439 0
  outer loop
   vertex 0.119215 0.124066 0.5
   vertex 0.117462 0.118902 0.5
   vertex 0.119215 0.124066 0
  endloop
 endfacet
 facet normal 0.94693 -0.321439 0
  outer loop
   vertex 0.119215 0.124066 0
   vertex 0.117462 0.118902 0.5
   vertex 0.117462 0.118902 0
  endloop
 endfacet
 facet normal 0.932008 -0.362439 0
  outer loop
   vertex 0.117462 0.118902 0.5
   vertex 0.115485 0.113819 0.5
   vertex 0.117462 0.118902 0
  endloop
 endfacet
 facet normal 0.932008 -0.362439 0
  outer loop
   vertex 0.117462 0.118902 0
   vertex 0.115485 0.113819 0.5
   vertex 0.115485 0.113819 0
  endloop
 endfacet
 facet normal 0.915312 -0.402745 0
  outer loop
   vertex 0.115485 0.113819 0.5
   vertex 0.113288 0.108827 0.5
   vertex 0.115485 0.113819 0
  endloop
 endfacet
 facet normal 0.915312 -0.402745 0
  outer loop
   vertex 0.115485 0.113819 0
   vertex 0.113288 0.108827 0.5
   vertex 0.113288 0.108827 0
  endloop
 endfacet
 facet normal 0.896872 -0.44229 0
  outer loop
   vertex 0.113288 0.108827 0.5
   vertex 0.110876 0.103935 0.5
   vertex 0.113288 0.108827 0
  endloop
 endfacet
 facet normal 0.896872 -0.44229 0
  outer loop
   vertex 0.113288 0.108827 0
   vertex 0.110876 0.103935 0.5
   vertex 0.110876 0.103935 0
  endloop
 endfacet
 facet normal 0.876727 -0.480989 0
  outer loop
   vertex 0.110876 0.103935 0.5
   vertex 0.108253 0.0991541 0.5
   vertex 0.110876 0.103935 0
  endloop
 endfacet
 facet normal 0.876727 -0.480989 0
  outer loop
   vertex 0.110876 0.103935 0
   vertex 0.108253 0.0991541 0.5
   vertex 0.108253 0.0991541 0
  endloop
 endfacet
 facet normal 0.854912 -0.518773 0
  outer loop
   vertex 0.108253 0.0991541 0.5
   vertex 0.105424 0.0944916 0.5
   vertex 0.108253 0.0991541 0
  endloop
 endfacet
 facet normal 0.854912 -0.518773 0
  outer loop
   vertex 0.108253 0.0991541 0
   vertex 0.105424 0.0944916 0.5
   vertex 0.105424 0.0944916 0
  endloop
 endfacet
 facet normal 0.83147 -0.55557 0
  outer loop
   vertex 0.105424 0.0944916 0.5
   vertex 0.102394 0.089957 0.5
   vertex 0.105424 0.0944916 0
  endloop
 endfacet
 facet normal 0.83147 -0.55557 0
  outer loop
   vertex 0.105424 0.0944916 0
   vertex 0.102394 0.089957 0.5
   vertex 0.102394 0.089957 0
  endloop
 endfacet
 facet normal 0.806444 -0.59131 0
  outer loop
   vertex 0.102394 0.089957 0.5
   vertex 0.0991692 0.0855589 0.5
   vertex 0.102394 0.089957 0
  endloop
 endfacet
 facet normal 0.806444 -0.59131 0
  outer loop
   vertex 0.102394 0.089957 0
   vertex 0.0991692 0.0855589 0.5
   vertex 0.0991692 0.0855589 0
  endloop
 endfacet
 facet normal 0.779885 -0.625923 0
  outer loop
   vertex 0.0991692 0.0855589 0.5
   vertex 0.0957556 0.0813056 0.5
   vertex 0.0991692 0.0855589 0
  endloop
 endfacet
 facet normal 0.779885 -0.625923 0
  outer loop
   vertex 0.0991692 0.0855589 0
   vertex 0.0957556 0.0813056 0.5
   vertex 0.0957556 0.0813056 0
  endloop
 endfacet
 facet normal 0.75184 -0.659346 0
  outer loop
   vertex 0.0957556 0.0813056 0.5
   vertex 0.0921597 0.0772053 0.5
   vertex 0.0957556 0.0813056 0
  endloop
 endfacet
 facet normal 0.75184 -0.659346 0
  outer loop
   vertex 0.0957556 0.0813056 0
   vertex 0.0921597 0.0772053 0.5
   vertex 0.0921597 0.0772053 0
  endloop
 endfacet
 facet normal 0.722364 -0.691513 0
  outer loop
   vertex 0.0921597 0.0772053 0.5
   vertex 0.0883883 0.0732657 0.5
   vertex 0.0921597 0.0772053 0
  endloop
 endfacet
 facet normal 0.722364 -0.691513 0
  outer loop
   vertex 0.0921597 0.0772053 0
   vertex 0.0883883 0.0732657 0.5
   vertex 0.0883883 0.0732657 0
  endloop
 endfacet
 facet normal 0.691513 -0.722364 0
  outer loop
   vertex 0.0883883 0.0732657 0.5
   vertex 0.0844488 0.0694944 0.5
   vertex 0.0883883 0.0732657 0
  endloop
 endfacet
 facet normal 0.691513 -0.722364 0
  outer loop
   vertex 0.0883883 0.0732657 0
   vertex 0.0844488 0.0694944 0.5
   vertex 0.0844488 0.0694944 0
  endloop
 endfacet
 facet normal 0.659346 -0.75184 0
  outer loop
   vertex 0.0844488 0.0694944 0.5
   vertex 0.0803485 0.0658985 0.5
   vertex 0.0844488 0.0694944 0
  endloop
 endfacet
 facet normal 0.659346 -0.75184 0
  outer loop
   vertex 0.0844488 0.0694944 0
   vertex 0.0803485 0.0658985 0.5
   vertex 0.0803485 0.0658985 0
  endloop
 endfacet
 facet normal 0.625923 -0.779885 0
  outer loop
   vertex 0.0803485 0.0658985 0.5
   vertex 0.0760952 0.0624849 0.5
   vertex 0.0803485 0.0658985 0
  endloop
 endfacet
 facet normal 0.625923 -0.779885 0
  outer loop
   vertex 0.0803485 0.0658985 0
   vertex 0.0760952 0.0624849 0.5
   vertex 0.0760952 0.0624849 0
  endloop
 endfacet
 facet normal 0.59131 -0.806444 0
  outer loop
   vertex 0.0760952 0.0624849 0.5
   vertex 0.0716971 0.0592601 0.5
   vertex 0.0760952 0.0624849 0
  endloop
 endfacet
 facet normal 0.59131 -0.806444 0
  outer loop
   vertex 0.0760952 0.0624849 0
   vertex 0.0716971 0.0592601 0.5
   vertex 0.0716971 0.0592601 0
  endloop
 endfacet
 facet normal 0.55557 -0.83147 0
  outer loop
   vertex 0.0716971 0.0592601 0.5
   vertex 0.0671625 0.0562301 0.5
   vertex 0.0716971 0.0592601 0
  endloop
 endfacet
 facet normal 0.55557 -0.83147 0
  outer loop
   vertex 0.0716971 0.0592601 0
   vertex 0.0671625 0.0562301 0.5
   vertex 0.0671625 0.0562301 0
  endloop
 endfacet
 facet normal 0.518773 -0.854912 0
  outer loop
   vertex 0.0671625 0.0562301 0.5
   vertex 0.0625 0.0534009 0.5
   vertex 0.0671625 0.0562301 0
  endloop
 endfacet
 facet normal 0.518773 -0.854912 0
  outer loop
   vertex 0.0671625 0.0562301 0
   vertex 0.0625 0.0534009 0.5
   vertex 0.0625 0.0534009 0
  endloop
 endfacet
 facet normal 0.480989 -0.876727 0
  outer loop
   vertex 0.0625 0.0534009 0.5
   vertex 0.0577186 0.0507777 0.5
   vertex 0.0625 0.0534009 0
  endloop
 endfacet
 facet normal 0.480989 -0.876727 0
  outer loop
   vertex 0.0625 0.0534009 0
   vertex 0.0577186 0.0507777 0.5
   vertex 0.0577186 0.0507777 0
  endloop
 endfacet
 facet normal 0.44229 -0.896872 0
  outer loop
   vertex 0.0577186 0.0507777 0.5
   vertex 0.0528273 0.0483656 0.5
   vertex 0.0577186 0.0507777 0
  endloop
 endfacet
 facet normal 0.44229 -0.896872 0
  outer loop
   vertex 0.0577186 0.0507777 0
   vertex 0.0528273 0.0483656 0.5
   vertex 0.0528273 0.0483656 0
  endloop
 endfacet
 facet normal 0.402745 -0.915312 0
  outer loop
   vertex 0.0528273 0.0483656 0.5
   vertex 0.0478354 0.0461691 0.5
   vertex 0.0528273 0.0483656 0
  endloop
 endfacet
 facet normal 0.402745 -0.915312 0
  outer loop
   vertex 0.0528273 0.0483656 0
   vertex 0.0478354 0.0461691 0.5
   vertex 0.0478354 0.0461691 0
  endloop
 endfacet
 facet normal 0.362439 -0.932008 0
  outer loop
   vertex 0.0478354 0.0461691 0.5
   vertex 0.0427525 0.0441925 0.5
   vertex 0.0478354 0.0461691 0
  endloop
 endfacet
 facet normal 0.362439 -0.932008 0
  outer loop
   vertex 0.0478354 0.0461691 0
   vertex 0.0427525 0.0441925 0.5
   vertex 0.0427525 0.0441925 0
  endloop
 endfacet
 facet normal 0.321439 -0.94693 0
  outer loop
   vertex 0.0427525 0.0441925 0.5
   vertex 0.0375882 0.0424395 0.5
   vertex 0.0427525 0.0441925 0
  endloop
 endfacet
 facet normal 0.321439 -0.94693 0
  outer loop
   vertex 0.0427525 0.0441925 0
   vertex 0.0375882 0.0424395 0.5
   vertex 0.0375882 0.0424395 0
  endloop
 endfacet
 facet normal 0.279829 -0.96005 0
  outer loop
   vertex 0.0375882 0.0424395 0.5
   vertex 0.0323524 0.0409133 0.5
   vertex 0.0375882 0.0424395 0
  endloop
 endfacet
 facet normal 0.279829 -0.96005 0
  outer loop
   vertex 0.0375882 0.0424395 0
   vertex 0.0323524 0.0409133 0.5
   vertex 0.0323524 0.0409133 0
  endloop
 endfacet
 facet normal 0.237686 -0.971342 0
  outer loop
   vertex 0.0323524 0.0409133 0.5
   vertex 0.027055 0.0396171 0.5
   vertex 0.0323524 0.0409133 0
  endloop
 endfacet
 facet normal 0.237686 -0.971342 0
  outer loop
   vertex 0.0323524 0.0409133 0
   vertex 0.027055 0.0396171 0.5
   vertex 0.027055 0.0396171 0
  endloop
 endfacet
 facet normal 0.19509 -0.980785 0
  outer loop
   vertex 0.027055 0.0396171 0.5
   vertex 0.021706 0.0385531 0.5
   vertex 0.027055 0.0396171 0
  endloop
 endfacet
 facet normal 0.19509 -0.980785 0
  outer loop
   vertex 0.027055 0.0396171 0
   vertex 0.021706 0.0385531 0.5
   vertex 0.021706 0.0385531 0
  endloop
 endfacet
 facet normal 0.152124 -0.988361 0
  outer loop
   vertex 0.021706 0.0385531 0.5
   vertex 0.0163158 0.0377235 0.5
   vertex 0.021706 0.0385531 0
  endloop
 endfacet
 facet normal 0.152124 -0.988361 0
  outer loop
   vertex 0.021706 0.0385531 0
   vertex 0.0163158 0.0377235 0.5
   vertex 0.0163158 0.0377235 0
  endloop
 endfacet
 facet normal 0.108867 -0.994056 0
  outer loop
   vertex 0.0163158 0.0377235 0.5
   vertex 0.0108945 0.0371297 0.5
   vertex 0.0163158 0.0377235 0
  endloop
 endfacet
 facet normal 0.108867 -0.994056 0
  outer loop
   vertex 0.0163158 0.0377235 0
   vertex 0.0108945 0.0371297 0.5
   vertex 0.0108945 0.0371297 0
  endloop
 endfacet
 facet normal 0.0654029 -0.997859 0
  outer loop
   vertex 0.0108945 0.0371297 0.5
   vertex 0.00545242 0.036773 0.5
   vertex 0.0108945 0.0371297 0
  endloop
 endfacet
 facet normal 0.0654029 -0.997859 0
  outer loop
   vertex 0.0108945 0.0371297 0
   vertex 0.00545242 0.036773 0.5
   vertex 0.00545242 0.036773 0
  endloop
 endfacet
 facet normal 0.0218146 -0.999762 0
  outer loop
   vertex 0.00545242 0.036773 0.5
   vertex 2.29621e-17 0.0366541 0.5
   vertex 0.00545242 0.036773 0
  endloop
 endfacet
 facet normal 0.0218146 -0.999762 0
  outer loop
   vertex 0.00545242 0.036773 0
   vertex 2.29621e-17 0.0366541 0.5
   vertex 2.29621e-17 0.0366541 0
  endloop
 endfacet
 facet normal -0.0218146 -0.999762 -0
  outer loop
   vertex 2.29621e-17 0.0366541 0.5
   vertex -0.00545242 0.036773 0.5
   vertex 2.29621e-17 0.0366541 0
  endloop
 endfacet
 facet normal -0.0218146 -0.999762 0
  outer loop
   vertex 2.29621e-17 0.0366541 0
   vertex -0.00545242 0.036773 0.5
   vertex -0.00545242 0.036773 0
  endloop
 endfacet
 facet normal -0.0654029 -0.997859 -0
  outer loop
   vertex -0.00545242 0.036773 0.5
   vertex -0.0108945 0.0371297 0.5
   vertex -0.00545242 0.036773 0
  endloop
 endfacet
 facet normal -0.0654029 -0.997859 0
  outer loop
   vertex -0.00545242 0.036773 0
   vertex -0.0108945 0.0371297 0.5
   vertex -0.0108945 0.0371297 0
  endloop
 endfacet
 facet normal -0.108867 -0.994056 -0
  outer loop
   vertex -0.0108945 0.0371297 0.5
   vertex -0.0163158 0.0377235 0.5
   vertex -0.0108945 0.0371297 0
  endloop
 endfacet
 facet normal -0.108867 -0.994056 0
  outer loop
   vertex -0.0108945 0.0371297 0
   vertex -0.0163158 0.0377235 0.5
   vertex -0.0163158 0.0377235 0
  endloop
 endfacet
 facet normal -0.152124 -0.988361 -0
  outer loop
   vertex -0.0163158 0.0377235 0.5
   vertex -0.021706 0.0385531 0.5
   vertex -0.0163158 0.0377235 0
  endloop
 endfacet
 facet normal -0.152124 -0.988361 0
  outer loop
   vertex -0.0163158 0.0377235 0
   vertex -0.021706 0.0385531 0.5
   vertex -0.021706 0.0385531 0
  endloop
 endfacet
 facet normal -0.19509 -0.980785 -0
  outer loop
   vertex -0.021706 0.0385531 0.5
   vertex -0.027055 0.0396171 0.5
   vertex -0.021706 0.0385531 0
  endloop
 endfacet
 facet normal -0.19509 -0.980785 0
  outer loop
   vertex -0.021706 0.0385531 0
   vertex -0.027055 0.0396171 0.5
   vertex -0.027055 0.0396171 0
  endloop
 endfacet
 facet normal -0.237686 -0.971342 -0
  outer loop
   vertex -0.027055 0.0396171 0.5
   vertex -0.0323524 0.0409133 0.5
   vertex -0.027055 0.0396171 0
  endloop
 endfacet
 facet normal -0.237686 -0.971342 0
  outer loop
   vertex -0.027055 0.0396171 0
   vertex -0.0323524 0.0409133 0.5
   vertex -0.0323524 0.0409133 0
  endloop
 endfacet
 facet normal -0.279829 -0.96005 -0
  outer loop
   vertex -0.0323524 0.0409133 0.5
   vertex -0.0375882 0.0424395 0.5
   vertex -0.0323524 0.0409133 0
  endloop
 endfacet
 facet normal -0.279829 -0.96005 0
  outer loop
   vertex -0.0323524 0.0409133 0
   vertex -0.0375882 0.0424395 0.5
   vertex -0.0375882 0.0424395 0
  endloop
 endfacet
 facet normal -0.321439 -0.94693 -0
  outer loop
   vertex -0.0375882 0.0424395 0.5
   vertex -0.0427525 0.0441925 0.5
   vertex -0.0375882 0.0424395 0
  endloop
 endfacet
 facet normal -0.321439 -0.94693 0
  outer loop
   vertex -0.0375882 0.0424395 0
   vertex -0.0427525 0.0441925 0.5
   vertex -0.0427525 0.0441925 0
  endloop
 endfacet
 facet normal -0.362439 -0.932008 -0
  outer loop
   vertex -0.0427525 0.0441925 0.5
   vertex -0.0478354 0.0461691 0.5
   vertex -0.0427525 0.0441925 0
  endloop
 endfacet
 facet normal -0.362439 -0.932008 0
  outer loop
   vertex -0.0427525 0.0441925 0
   vertex -0.0478354 0.0461691 0.5
   vertex -0.0478354 0.0461691 0
  endloop
 endfacet
 facet normal -0.402745 -0.915312 -0
  outer loop
   vertex -0.0478354 0.0461691 0.5
   vertex -0.0528273 0.0483656 0.5
   vertex -0.0478354 0.0461691 0
  endloop
 endfacet
 facet normal -0.402745 -0.915312 0
  outer loop
   vertex -0.0478354 0.0461691 0
   vertex -0.0528273 0.0483656 0.5
   vertex -0.0528273 0.0483656 0
  endloop
 endfacet
 facet normal -0.44229 -0.896872 -0
  outer loop
   vertex -0.0528273 0.0483656 0.5
   vertex -0.0577186 0.0507777 0.5
   vertex -0.0528273 0.0483656 0
  endloop
 endfacet
 facet normal -0.44229 -0.896872 0
  outer loop
   vertex -0.0528273 0.0483656 0
   vertex -0.0577186 0.0507777 0.5
   vertex -0.0577186 0.0507777 0
  endloop
 endfacet
 facet normal -0.480989 -0.876727 -0
  outer loop
   vertex -0.0577186 0.0507777 0.5
   vertex -0.0625 0.0534009 0.5
   vertex -0.0577186 0.0507777 0
  endloop
 endfacet
 facet normal -0.480989 -0.876727 0
  outer loop
   vertex -0.0577186 0.0507777 0
   vertex -0.0625 0.0534009 0.5
   vertex -0.0625 0.0534009 0
  endloop
 endfacet
 facet normal -0.518773 -0.854912 -0
  outer loop
   vertex -0.0625 0.0534009 0.5
   vertex -0.0671625 0.0562301 0.5
   vertex -0.0625 0.0534009 0
  endloop
 endfacet
 facet normal -0.518773 -0.854912 0
  outer loop
   vertex -0.0625 0.0534009 0
   vertex -0.0671625 0.0562301 0.5
   vertex -0.0671625 0.0562301 0
  endloop
 endfacet
 facet normal -0.55557 -0.83147 -0
  outer loop
   vertex -0.0671625 0.0562301 0.5
   vertex -0.0716971 0.0592601 0.5
   vertex -0.0671625 0.0562301 0
  endloop
 endfacet
 facet normal -0.55557 -0.83147 0
  outer loop
   vertex -0.0671625 0.0562301 0
   vertex -0.0716971 0.0592601 0.5
   vertex -0.0716971 0.0592601 0
  endloop
 endfacet
 facet normal -0.59131 -0.806444 -0
  outer loop
   vertex -0.0716971 0.0592601 0.5
   vertex -0.0760952 0.0624849 0.5
   vertex -0.0716971 0.0592601 0
  endloop
 endfacet
 facet normal -0.59131 -0.806444 0
  outer loop
   vertex -0.0716971 0.0592601 0
   vertex -0.0760952 0.0624849 0.5
   vertex -0.0760952 0.0624849 0
  endloop
 endfacet
 facet normal -0.625923 -0.779885 -0
  outer loop
   vertex -0.0760952 0.0624849 0.5
   vertex -0.0803485 0.0658985 0.5
   vertex -0.0760952 0.0624849 0
  endloop
 endfacet
 facet normal -0.625923 -0.779885 0
  outer loop
   vertex -0.0760952 0.0624849 0
   vertex -0.0803485 0.0658985 0.5
   vertex -0.0803485 0.0658985 0
  endloop
 endfacet
 facet normal -0.659346 -0.75184 -0
  outer loop
   vertex -0.0803485 0.0658985 0.5
   vertex -0.0844488 0.0694944 0.5
   vertex -0.0803485 0.0658985 0
  endloop
 endfacet
 facet normal -0.659346 -0.75184 0
  outer loop
   vertex -0.0803485 0.0658985 0
   vertex -0.0844488 0.0694944 0.5
   vertex -0.0844488 0.0694944 0
  endloop
 endfacet
 facet normal -0.691513 -0.722364 -0
  outer loop
   vertex -0.0844488 0.0694944 0.5
   vertex -0.0883883 0.0732657 0.5
   vertex -0.0844488 0.0694944 0
  endloop
 endfacet
 facet normal -0.691513 -0.722364 0
  outer loop
   vertex -0.0844488 0.0694944 0
   vertex -0.0883883 0.0732657 0.5
   vertex -0.0883883 0.0732657 0
  endloop
 endfacet
 facet normal -0.722364 -0.691513 -0
  outer loop
   vertex -0.0883883 0.0732657 0.5
   vertex -0.0921597 0.0772053 0.5
   vertex -0.0883883 0.0732657 0
  endloop
 endfacet
 facet normal -0.722364 -0.691513 0
  outer loop
   vertex -0.0883883 0.0732657 0
   vertex -0.0921597 0.0772053 0.5
   vertex -0.0921597 0.0772053 0
  endloop
 endfacet
 facet normal -0.75184 -0.659346 -0
  outer loop
   vertex -0.0921597 0.0772053 0.5
   vertex -0.0957556 0.0813056 0.5
   vertex -0.0921597 0.0772053 0
  endloop
 endfacet
 facet normal -0.75184 -0.659346 0
  outer loop
   vertex -0.0921597 0.0772053 0
   vertex -0.0957556 0.0813056 0.5
   vertex -0.0957556 0.0813056 0
  endloop
 endfacet
 facet normal -0.779885 -0.625923 -0
  outer loop
   vertex -0.0957556 0.0813056 0.5
   vertex -0.0991692 0.0855589 0.5
   vertex -0.0957556 0.0813056 0
  endloop
 endfacet
 facet normal -0.779885 -0.625923 0
  outer loop
   vertex -0.0957556 0.0813056 0
   vertex -0.0991692 0.0855589 0.5
   vertex -0.0991692 0.0855589 0
  endloop
 endfacet
 facet normal -0.806444 -0.59131 -0
  outer loop
   vertex -0.0991692 0.0855589 0.5
   vertex -0.102394 0.089957 0.5
   vertex -0.0991692 0.0855589 0
  endloop
 endfacet
 facet normal -0.806444 -0.59131 0
  outer loop
   vertex -0.0991692 0.0855589 0
   vertex -0.102394 0.089957 0.5
   vertex -0.102394 0.089957 0
  endloop
 endfacet
 facet normal -0.83147 -0.55557 -0
  outer loop
   vertex -0.102394 0.089957 0.5
   vertex -0.105424 0.0944916 0.5
   vertex -0.102394 0.089957 0
  endloop
 endfacet
 facet normal -0.83147 -0.55557 0
  outer loop
   vertex -0.102394 0.089957 0
   vertex -0.105424 0.0944916 0.5
   vertex -0.105424 0.0944916 0
  endloop
 endfacet
 facet normal -0.854912 -0.518773 -0
  outer loop
   vertex -0.105424 0.0944916 0.5
   vertex -0.108253 0.0991541 0.5
   vertex -0.105424 0.0944916 0
  endloop
 endfacet
 facet normal -0.854912 -0.518773 0
  outer loop
   vertex -0.105424 0.0944916 0
   vertex -0.108253 0.0991541 0.5
   vertex -0.108253 0.0991541 0
  endloop
 endfacet
 facet normal -0.876727 -0.480989 -0
  outer loop
   vertex -0.108253 0.0991541 0.5
   vertex -0.110876 0.103935 0.5
   vertex -0.108253 0.0991541 0
  endloop
 endfacet
 facet normal -0.876727 -0.480989 0
  outer loop
   vertex -0.108253 0.0991541 0
   vertex -0.110876 0.103935 0.5
   vertex -0.110876 0.103935 0
  endloop
 endfacet
 facet normal -0.896872 -0.44229 -0
  outer loop
   vertex -0.110876 0.103935 0.5
   vertex -0.113288 0.108827 0.5
   vertex -0.110876 0.103935 0
  endloop
 endfacet
 facet normal -0.896872 -0.44229 0
  outer loop
   vertex -0.110876 0.103935 0
   vertex -0.113288 0.108827 0.5
   vertex -0.113288 0.108827 0
  endloop
 endfacet
 facet normal -0.915312 -0.402745 -0
  outer loop
   vertex -0.113288 0.108827 0.5
   vertex -0.115485 0.113819 0.5
   vertex -0.113288 0.108827 0
  endloop
 endfacet
 facet normal -0.915312 -0.402745 0
  outer loop
   vertex -0.113288 0.108827 0
   vertex -0.115485 0.113819 0.5
   vertex -0.115485 0.113819 0
  endloop
 endfacet
 facet normal -0.932008 -0.362439 -0
  outer loop
   vertex -0.115485 0.113819 0.5
   vertex -0.117462 0.118902 0.5
   vertex -0.115485 0.113819 0
  endloop
 endfacet
 facet normal -0.932008 -0.362439 0
  outer loop
   vertex -0.115485 0.113819 0
   vertex -0.117462 0.118902 0.5
   vertex -0.117462 0.118902 0
  endloop
 endfacet
 facet normal -0.94693 -0.321439 -0
  outer loop
   vertex -0.117462 0.118902 0.5
   vertex -0.119215 0.124066 0.5
   vertex -0.117462 0.118902 0
  endloop
 endfacet
 facet normal -0.94693 -0.321439 0
  outer loop
   vertex -0.117462 0.118902 0
   vertex -0.119215 0.124066 0.5
   vertex -0.119215 0.124066 0
  endloop
 endfacet
 facet normal -0.96005 -0.279829 -0
  outer loop
   vertex -0.119215 0.124066 0.5
   vertex -0.120741 0.129302 0.5
   vertex -0.119215 0.124066 0
  endloop
 endfacet
 facet normal -0.96005 -0.279829 0
  outer loop
   vertex -0.119215 0.124066 0
   vertex -0.120741 0.129302 0.5
   vertex -0.120741 0.129302 0
  endloop
 endfacet
 facet normal -0.971342 -0.237686 -0
  outer loop
   vertex -0.120741 0.129302 0.5
   vertex -0.122037 0.134599 0.5
   vertex -0.120741 0.129302 0
  endloop
 endfacet
 facet normal -0.971342 -0.237686 0
  outer loop
   vertex -0.120741 0.129302 0
   vertex -0.122037 0.134599 0.5
   vertex -0.122037 0.134599 0
  endloop
 endfacet
 facet normal -0.980785 -0.19509 -0
  outer loop
   vertex -0.122037 0.134599 0.5
   vertex -0.123101 0.139948 0.5
   vertex -0.122037 0.134599 0
  endloop
 endfacet
 facet normal -0.980785 -0.19509 0
  outer loop
   vertex -0.122037 0.134599 0
   vertex -0.123101 0.139948 0.5
   vertex -0.123101 0.139948 0
  endloop
 endfacet
 facet normal -0.988361 -0.152124 -0
  outer loop
   vertex -0.123101 0.139948 0.5
   vertex -0.123931 0.145338 0.5
   vertex -0.123101 0.139948 0
  endloop
 endfacet
 facet normal -0.988361 -0.152124 0
  outer loop
   vertex -0.123101 0.139948 0
   vertex -0.123931 0.145338 0.5
   vertex -0.123931 0.145338 0
  endloop
 endfacet
 facet normal -0.994056 -0.108867 -0
  outer loop
   vertex -0.123931 0.145338 0.5
   vertex -0.124524 0.15076 0.5
   vertex -0.123931 0.145338 0
  endloop
 endfacet
 facet normal -0.994056 -0.108867 0
  outer loop
   vertex -0.123931 0.145338 0
   vertex -0.124524 0.15076 0.5
   vertex -0.124524 0.15076 0
  endloop
 endfacet
 facet normal -0.997859 -0.0654029 -0
  outer loop
   vertex -0.124524 0.15076 0.5
   vertex -0.124881 0.156202 0.5
   vertex -0.124524 0.15076 0
  endloop
 endfacet
 facet normal -0.997859 -0.0654029 0
  outer loop
   vertex -0.124524 0.15076 0
   vertex -0.124881 0.156202 0.5
   vertex -0.124881 0.156202 0
  endloop
 endfacet
 facet normal -0.999762 -0.0218146 -0
  outer loop
   vertex -0.124881 0.156202 0.5
   vertex -0.125 0.161654 0.5
   vertex -0.124881 0.156202 0
  endloop
 endfacet
 facet normal -0.999762 -0.0218146 0
  outer loop
   vertex -0.124881 0.156202 0
   vertex -0.125 0.161654 0.5
   vertex -0.125 0.161654 0
  endloop
 endfacet
 facet normal -0.999762 0.0218146 0
  outer loop
   vertex -0.125 0.161654 0.5
   vertex -0.124881 0.167106 0.5
   vertex -0.125 0.161654 0
  endloop
 endfacet
 facet normal 0 -0 1
  outer loop
   vertex 0.124524 0.15076 0.5
   vertex 0.124881 0.156202 0.5
   vertex 0 0.161654 0.5
  endloop
 endfacet
 facet normal 0 -0 1
  outer loop
   vertex 0.124881 0.156202 0.5
   vertex 0.125 0.161654 0.5
   vertex 0 0.161654 0.5
  endloop
 endfacet
 facet normal 0 0 1
  outer loop
   vertex 0 0.161654 0.5
   vertex 0.125 0.161654 0.5
   vertex 0.124881 0.167106 0.5
  endloop
 endfacet
 facet normal 0 -0 1
  outer loop
   vertex 0.122037 0.134599 0.5
   vertex 0.123101 0.139948 0.5
   vertex 0 0.161654 0.5
  endloop
 endfacet
 facet normal 0 -0 1
  outer loop
   vertex 0.123101 0.139948 0.5
   vertex 0.123931 0.145338 0.5
   vertex 0 0.161654 0.5
  endloop
 endfacet
 facet normal 0 0 1
  outer loop
   vertex 0 0.161654 0.5
   vertex 0.123931 0.145338 0.5
   vertex 0.124524 0.15076 0.5
  endloop
 endfacet
 facet normal 0 -0 1
  outer loop
   vertex 0.117462 0.118902 0.5
   vertex 0.119215 0.124066 0.5
   vertex 0 0.161654 0.5
  endloop
 endfacet
 facet normal 0 -0 1
  outer loop
   vertex 0.119215 0.124066 0.5
   vertex 0.120741 0.129302 0.5
   vertex 0 0.161654 0.5
  endloop
 endfacet
 facet normal 0 0 1
  outer loop
   vertex 0 0.161654 0.5
   vertex 0.120741 0.129302 0.5
   vertex 0.122037 0.134599 0.5
  endloop
 endfacet
 facet normal 0 -0 1
  outer loop
   vertex 0.110876 0.103935 0.5
   vertex 0.113288 0.108827 0.5
   vertex 0 0.161654 0.5
  endloop
 endfacet
 facet normal 0 -0 1
  outer loop
   vertex 0.113288 0.108827 0.5
   vertex 0.115485 0.113819 0.5
   vertex 0 0.161654 0.5
  endloop
 endfacet
 facet normal 0 0 1
  outer loop
   vertex 0 0.161654 0.5
   vertex 0.115485 0.113819 0.5
   vertex 0.117462 0.118902 0.5
  endloop
 endfacet
 facet normal 0 -0 1
  outer loop
   vertex 0.102394 0.089957 0.5
   vertex 0.105424 0.0944916 0.5
   vertex 0 0.161654 0.5
  endloop
 endfacet
 facet normal 0 -0 1
  outer loop
   vertex 0.105424 0.0944916 0.5
   vertex 0.108253 0.0991541 0.5
   vertex 0 0.161654 0.5
  endloop
 endfacet
 facet normal 0 0 1
  outer loop
   vertex 0 0.161654 0.5
   vertex 0.108253 0.0991541 0.5
   vertex 0.110876 0.103935 0.5
  endloop
 endfacet
 facet normal 0 -0 1
  outer loop
   vertex 0.0921597 0.0772053 0.5
   vertex 0.0957556 0.0813056 0.5
   vertex 0 0.161654 0.5
  endloop
 endfacet
 facet normal 0 -0 1
  outer loop
   vertex 0.0957556 0.0813056 0.5
   vertex 0.0991692 0.0855589 0.5
   vertex 0 0.161654 0.5
  endloop
 endfacet
 facet normal 0 0 1
  outer loop
   vertex 0 0.161654 0.5
   vertex 0.0991692 0.0855589 0.5
   vertex 0.102394 0.089957 0.5
  endloop
 endfacet
 facet normal 0 -0 1
  outer loop
   vertex 0.0803485 0.0658985 0.5
   vertex 0.0844488 0.0694944 0.5
   vertex 0 0.161654 0.5
  endloop
 endfacet
 facet normal 0 -0 1
  outer loop
   vertex 0.0844488 0.0694944 0.5
   vertex 0.0883883 0.0732657 0.5
   vertex 0 0.161654 0.5
  endloop
 endfacet
 facet normal 0 0 1
  outer loop
   vertex 0 0.161654 0.5
   vertex 0.0883883 0.0732657 0.5
   vertex 0.0921597 0.0772053 0.5
  endloop
 endfacet
 facet normal 0 -0 1
  outer loop
   vertex 0.0671625 0.0562301 0.5
   vertex 0.0716971 0.0592601 0.5
   vertex 0 0.161654 0.5
  endloop
 endfacet
 facet normal 0 -0 1
  outer loop
   vertex 0.0716971 0.0592601 0.5
   vertex 0.0760952 0.0624849 0.5
   vertex 0 0.161654 0.5
  endloop
 endfacet
 facet normal 0 0 1
  outer loop
   vertex 0 0.161654 0.5
   vertex 0.0760952 0.0624849 0.5
   vertex 0.0803485 0.0658985 0.5
  endloop
 endfacet
 facet normal 0 -0 1
  outer loop
   vertex 0.0528273 0.0483656 0.5
   vertex 0.0577186 0.0507777 0.5
   vertex 0 0.161654 0.5
  endloop
 endfacet
 facet normal 0 -0 1
  outer loop
   vertex 0.0577186 0.0507777 0.5
   vertex 0.0625 0.0534009 0.5
   vertex 0 0.161654 0.5
  endloop
 endfacet
 facet normal 0 0 1
  outer loop
   vertex 0 0.161654 0.5
   vertex 0.0625 0.0534009 0.5
   vertex 0.0671625 0.0562301 0.5
  endloop
 endfacet
 facet normal 0 -0 1
  outer loop
   vertex 0.0375882 0.0424395 0.5
   vertex 0.0427525 0.0441925 0.5
   vertex 0 0.161654 0.5
  endloop
 endfacet
 facet normal 0 -0 1
  outer loop
   vertex 0.0427525 0.0441925 0.5
   vertex 0.0478354 0.0461691 0.5
   vertex 0 0.161654 0.5
  endloop
 endfacet
 facet normal 0 0 1
  outer loop
   vertex 0 0.161654 0.5
   vertex 0.0478354 0.0461691 0.5
   vertex 0.0528273 0.0483656 0.5
  endloop
 endfacet
 facet normal 0 -0 1
  outer loop
   vertex 0.021706 0.0385531 0.5
   vertex 0.027055 0.0396171 0.5
   vertex 0 0.161654 0.5
  endloop
 endfacet
 facet normal 0 -0 1
  outer loop
   vertex 0.027055 0.0396171 0.5
   vertex 0.0323524 0.0409133 0.5
   vertex 0 0.161654 0.5
  endloop
 endfacet
 facet normal 0 0 1
  outer loop
   vertex 0 0.161654 0.5
   vertex 0.0323524 0.0409133 0.5
   vertex 0.0375882 0.0424395 0.5
  endloop
 endfacet
 facet normal 0 -0 1
  outer loop
   vertex 0.00545242 0.036773 0.5
   vertex 0.0108945 0.0371297 0.5
   vertex 0 0.161654 0.5
  endloop
 endfacet
 facet normal 0 -0 1
  outer loop
   vertex 0.0108945 0.0371297 0.5
   vertex 0.0163158 0.0377235 0.5
   vertex 0 0.161654 0.5
  endloop
 endfacet
 facet normal 0 0 1
  outer loop
   vertex 0 0.161654 0.5
   vertex 0.0163158 0.0377235 0.5
   vertex 0.021706 0.0385531 0.5
  endloop
 endfacet
 facet normal -0 0 1
  outer loop
   vertex -0.0108945 0.0371297 0.5
   vertex -0.00545242 0.036773 0.5
   vertex 0 0.161654 0.5
  endloop
 endfacet
 facet normal -0 0 1
  outer loop
   vertex -0.00545242 0.036773 0.5
   vertex 2.29621e-17 0.0366541 0.5
   vertex 0 0.161654 0.5
  endloop
 endfacet
 facet normal 0 0 1
  outer loop
   vertex 0 0.161654 0.5
   vertex 2.29621e-17 0.0366541 0.5
   vertex 0.00545242 0.036773 0.5
  endloop
 endfacet
 facet normal -0 0 1
  outer loop
   vertex -0.027055 0.0396171 0.5
   vertex -0.021706 0.0385531 0.5
   vertex 0 0.161654 0.5
  endloop
 endfacet
 facet normal -0 0 1
  outer loop
   vertex -0.021706 0.0385531 0.5
   vertex -0.0163158 0.0377235 0.5
   vertex 0 0.161654 0.5
  endloop
 endfacet
 facet normal 0 0 1
  outer loop
   vertex 0 0.161654 0.5
   vertex -0.0163158 0.0377235 0.5
   vertex -0.0108945 0.0371297 0.5
  endloop
 endfacet
 facet normal -0 0 1
  outer loop
   vertex -0.0427525 0.0441925 0.5
   vertex -0.0375882 0.0424395 0.5
   vertex 0 0.161654 0.5
  endloop
 endfacet
 facet normal -0 0 1
  outer loop
   vertex -0.0375882 0.0424395 0.5
   vertex -0.0323524 0.0409133 0.5
   vertex 0 0.161654 0.5
  endloop
 endfacet
 facet normal 0 0 1
  outer loop
   vertex 0 0.161654 0.5
   vertex -0.0323524 0.0409133 0.5
   vertex -0.027055 0.0396171 0.5
  endloop
 endfacet
 facet normal -0 0 1
  outer loop
   vertex -0.0577186 0.0507777 0.5
   vertex -0.0528273 0.0483656 0.5
   vertex 0 0.161654 0.5
  endloop
 endfacet
 facet normal -0 0 1
  outer loop
   vertex -0.0528273 0.0483656 0.5
   vertex -0.0478354 0.0461691 0.5
   vertex 0 0.161654 0.5
  endloop
 endfacet
 facet normal 0 0 1
  outer loop
   vertex 0 0.161654 0.5
   vertex -0.0478354 0.0461691 0.5
   vertex -0.0427525 0.0441925 0.5
  endloop
 endfacet
 facet normal -0 0 1
  outer loop
   vertex -0.0716971 0.0592601 0.5
   vertex -0.0671625 0.0562301 0.5
   vertex 0 0.161654 0.5
  endloop
 endfacet
 facet normal -0 0 1
  outer loop
   vertex -0.0671625 0.0562301 0.5
   vertex -0.0625 0.0534009 0.5
   vertex 0 0.161654 0.5
  endloop
 endfacet
 facet normal 0 0 1
  outer loop
   vertex 0 0.161654 0.5
   vertex -0.0625 0.0534009 0.5
   vertex -0.0577186 0.0507777 0.5
  endloop
 endfacet
 facet normal -0 0 1
  outer loop
   vertex -0.0844488 0.0694944 0.5
   vertex -0.0803485 0.0658985 0.5
   vertex 0 0.161654 0.5
  endloop
 endfacet
 facet normal -0 0 1
  outer loop
   vertex -0.0803485 0.0658985 0.5
   vertex -0.0760952 0.0624849 0.5
   vertex 0 0.161654 0.5
  endloop
 endfacet
 facet normal 0 0 1
  outer loop
   vertex 0 0.161654 0.5
   vertex -0.0760952 0.0624849 0.5
   vertex -0.0716971 0.0592601 0.5
  endloop
 endfacet
 facet normal -0 0 1
  outer loop
   vertex -0.0957556 0.0813056 0.5
   vertex -0.0921597 0.0772053 0.5
   vertex 0 0.161654 0.5
  endloop
 endfacet
 facet normal -0 0 1
  outer loop
   vertex -0.0921597 0.0772053 0.5
   vertex -0.0883883 0.0732657 0.5
   vertex 0 0.161654 0.5
  endloop
 endfacet
 facet normal 0 0 1
  outer loop
   vertex 0 0.161654 0.5
   vertex -0.0883883 0.0732657 0.5
   vertex -0.0844488 0.0694944 0.5
  endloop
 endfacet
 facet normal -0 0 1
  outer loop
   vertex -0.105424 0.0944916 0.5
   vertex -0.102394 0.089957 0.5
   vertex 0 0.161654 0.5
  endloop
 endfacet
 facet normal -0 0 1
  outer loop
   vertex -0.102394 0.089957 0.5
   vertex -0.0991692 0.0855589 0.5
   vertex 0 0.161654 0.5
  endloop
 endfacet
 facet normal 0 0 1
  outer loop
   vertex 0 0.161654 0.5
   vertex -0.0991692 0.0855589 0.5
   vertex -0.0957556 0.0813056 0.5
  endloop
 endfacet
 facet normal -0 0 1
  outer loop
   vertex -0.113288 0.108827 0.5
   vertex -0.110876 0.103935 0.5
   vertex 0 0.161654 0.5
  endloop
 endfacet
 facet normal -0 0 1
  outer loop
   vertex -0.110876 0.103935 0.5
   vertex -0.108253 0.0991541 0.5
   vertex 0 0.161654 0.5
  endloop
 endfacet
 facet normal 0 0 1
  outer loop
   vertex 0 0.161654 0.5
   vertex -0.108253 0.0991541 0.5
   vertex -0.105424 0.0944916 0.5
  endloop
 endfacet
 facet normal -0 0 1
  outer loop
   vertex -0.119215 0.124066 0.5
   vertex -0.117462 0.118902 0.5
   vertex 0 0.161654 0.5
  endloop
 endfacet
 facet normal -0 0 1
  outer loop
   vertex -0.117462 0.118902 0.5
   vertex -0.115485 0.113819 0.5
   vertex 0 0.161654 0.5
  endloop
 endfacet
 facet normal 0 0 1
  outer loop
   vertex 0 0.161654 0.5
   vertex -0.115485 0.113819 0.5
   vertex -0.113288 0.108827 0.5
  endloop
 endfacet
 facet normal -0 0 1
  outer loop
   vertex -0.123101 0.139948 0.5
   vertex -0.122037 0.134599 0.5
   vertex 0 0.161654 0.5
  endloop
 endfacet
 facet normal -0 0 1
  outer loop
   vertex -0.122037 0.134599 0.5
   vertex -0.120741 0.129302 0.5
   vertex 0 0.161654 0.5
  endloop
 endfacet
 facet normal 0 0 1
  outer loop
   vertex 0 0.161654 0.5
   vertex -0.120741 0.129302 0.5
   vertex -0.119215 0.124066 0.5
  endloop
 endfacet
 facet normal -0 0 1
  outer loop
   vertex -0.124881 0.156202 0.5
   vertex -0.124524 0.15076 0.5
   vertex 0 0.161654 0.5
  endloop
 endfacet
 facet normal -0 0 1
  outer loop
   vertex -0.124524 0.15076 0.5
   vertex -0.123931 0.145338 0.5
   vertex 0 0.161654 0.5
  endloop
 endfacet
 facet normal 0 0 1
  outer loop
   vertex 0 0.161654 0.5
   vertex -0.123931 0.145338 0.5
   vertex -0.123101 0.139948 0.5
  endloop
 endfacet
 facet normal 0 0 1
  outer loop
   vertex -0.124524 0.172549 0.5
   vertex -0.124881 0.167106 0.5
   vertex 0 0.161654 0.5
  endloop
 endfacet
 facet normal 0 0 1
  outer loop
   vertex -0.124881 0.167106 0.5
   vertex -0.125 0.161654 0.5
   vertex 0 0.161654 0.5
  endloop
 endfacet
 facet normal 0 0 1
  outer loop
   vertex 0 0.161654 0.5
   vertex -0.125 0.161654 0.5
   vertex -0.124881 0.156202 0.5
  endloop
 endfacet
 facet normal 0 0 1
  outer loop
   vertex -0.122037 0.188709 0.5
   vertex -0.123101 0.18336 0.5
   vertex 0 0.161654 0.5
  endloop
 endfacet
 facet normal 0 0 1
  outer loop
   vertex -0.123101 0.18336 0.5
   vertex -0.123931 0.17797 0.5
   vertex 0 0.161654 0.5
  endloop
 endfacet
 facet normal 0 0 1
  outer loop
   vertex 0 0.161654 0.5
   vertex -0.123931 0.17797 0.5
   vertex -0.124524 0.172549 0.5
  endloop
 endfacet
 facet normal 0 0 1
  outer loop
   vertex -0.117462 0.204407 0.5
   vertex -0.119215 0.199242 0.5
   vertex 0 0.161654 0.5
  endloop
 endfacet
 facet normal 0 0 1
  outer loop
   vertex -0.119215 0.199242 0.5
   vertex -0.120741 0.194006 0.5
   vertex 0 0.161654 0.5
  endloop
 endfacet
 facet normal 0 0 1
  outer loop
   vertex 0 0.161654 0.5
   vertex -0.120741 0.194006 0.5
   vertex -0.122037 0.188709 0.5
  endloop
 endfacet
 facet normal 0 0 1
  outer loop
   vertex -0.110876 0.219373 0.5
   vertex -0.113288 0.214481 0.5
   vertex 0 0.161654 0.5
  endloop
 endfacet
 facet normal 0 0 1
  outer loop
   vertex -0.113288 0.214481 0.5
   vertex -0.115485 0.209489 0.5
   vertex 0 0.161654 0.5
  endloop
 endfacet
 facet normal 0 0 1
  outer loop
   vertex 0 0.161654 0.5
   vertex -0.115485 0.209489 0.5
   vertex -0.117462 0.204407 0.5
  endloop
 endfacet
 facet normal 0 0 1
  outer loop
   vertex -0.102394 0.233351 0.5
   vertex -0.105424 0.228817 0.5
   vertex 0 0.161654 0.5
  endloop
 endfacet
 facet normal 0 0 1
  outer loop
   vertex -0.105424 0.228817 0.5
   vertex -0.108253 0.224154 0.5
   vertex 0 0.161654 0.5
  endloop
 endfacet
 facet normal 0 0 1
  outer loop
   vertex 0 0.161654 0.5
   vertex -0.108253 0.224154 0.5
   vertex -0.110876 0.219373 0.5
  endloop
 endfacet
 facet normal 0 0 1
  outer loop
   vertex -0.0921597 0.246103 0.5
   vertex -0.0957556 0.242003 0.5
   vertex 0 0.161654 0.5
  endloop
 endfacet
 facet normal 0 0 1
  outer loop
   vertex -0.0957556 0.242003 0.5
   vertex -0.0991692 0.237749 0.5
   vertex 0 0.161654 0.5
  endloop
 endfacet
 facet normal 0 0 1
  outer loop
   vertex 0 0.161654 0.5
   vertex -0.0991692 0.237749 0.5
   vertex -0.102394 0.233351 0.5
  endloop
 endfacet
 facet normal 0 0 1
  outer loop
   vertex -0.0803485 0.25741 0.5
   vertex -0.0844488 0.253814 0.5
   vertex 0 0.161654 0.5
  endloop
 endfacet
 facet normal 0 0 1
  outer loop
   vertex -0.0844488 0.253814 0.5
   vertex -0.0883883 0.250042 0.5
   vertex 0 0.161654 0.5
  endloop
 endfacet
 facet normal 0 0 1
  outer loop
   vertex 0 0.161654 0.5
   vertex -0.0883883 0.250042 0.5
   vertex -0.0921597 0.246103 0.5
  endloop
 endfacet
 facet normal 0 0 1
  outer loop
   vertex -0.0671625 0.267078 0.5
   vertex -0.0716971 0.264048 0.5
   vertex 0 0.161654 0.5
  endloop
 endfacet
 facet normal 0 0 1
  outer loop
   vertex -0.0716971 0.264048 0.5
   vertex -0.0760952 0.260823 0.5
   vertex 0 0.161654 0.5
  endloop
 endfacet
 facet normal 0 0 1
  outer loop
   vertex 0 0.161654 0.5
   vertex -0.0760952 0.260823 0.5
   vertex -0.0803485 0.25741 0.5
  endloop
 endfacet
 facet normal 0 0 1
  outer loop
   vertex -0.0528273 0.274943 0.5
   vertex -0.0577186 0.27253 0.5
   vertex 0 0.161654 0.5
  endloop
 endfacet
 facet normal 0 0 1
  outer loop
   vertex -0.0577186 0.27253 0.5
   vertex -0.0625 0.269907 0.5
   vertex 0 0.161654 0.5
  endloop
 endfacet
 facet normal 0 0 1
  outer loop
   vertex 0 0.161654 0.5
   vertex -0.0625 0.269907 0.5
   vertex -0.0671625 0.267078 0.5
  endloop
 endfacet
 facet normal 0 0 1
  outer loop
   vertex -0.0375882 0.280869 0.5
   vertex -0.0427525 0.279116 0.5
   vertex 0 0.161654 0.5
  endloop
 endfacet
 facet normal 0 0 1
  outer loop
   vertex -0.0427525 0.279116 0.5
   vertex -0.0478354 0.277139 0.5
   vertex 0 0.161654 0.5
  endloop
 endfacet
 facet normal 0 0 1
  outer loop
   vertex 0 0.161654 0.5
   vertex -0.0478354 0.277139 0.5
   vertex -0.0528273 0.274943 0.5
  endloop
 endfacet
 facet normal 0 0 1
  outer loop
   vertex -0.021706 0.284755 0.5
   vertex -0.027055 0.283691 0.5
   vertex 0 0.161654 0.5
  endloop
 endfacet
 facet normal 0 0 1
  outer loop
   vertex -0.027055 0.283691 0.5
   vertex -0.0323524 0.282395 0.5
   vertex 0 0.161654 0.5
  endloop
 endfacet
 facet normal 0 0 1
  outer loop
   vertex 0 0.161654 0.5
   vertex -0.0323524 0.282395 0.5
   vertex -0.0375882 0.280869 0.5
  endloop
 endfacet
 facet normal 0 0 1
  outer loop
   vertex -0.00545242 0.286535 0.5
   vertex -0.0108945 0.286178 0.5
   vertex 0 0.161654 0.5
  endloop
 endfacet
 facet normal 0 0 1
  outer loop
   vertex -0.0108945 0.286178 0.5
   vertex -0.0163158 0.285585 0.5
   vertex 0 0.161654 0.5
  endloop
 endfacet
 facet normal 0 0 1
  outer loop
   vertex 0 0.161654 0.5
   vertex -0.0163158 0.285585 0.5
   vertex -0.021706 0.284755 0.5
  endloop
 endfacet
 facet normal 0 0 1
  outer loop
   vertex 0.0108945 0.286178 0.5
   vertex 0.00545242 0.286535 0.5
   vertex 0 0.161654 0.5
  endloop
 endfacet
 facet normal 0 0 1
  outer loop
   vertex 0.00545242 0.286535 0.5
   vertex -7.65404e-18 0.286654 0.5
   vertex 0 0.161654 0.5
  endloop
 endfacet
 facet normal 0 0 1
  outer loop
   vertex 0 0.161654 0.5
   vertex -7.65404e-18 0.286654 0.5
   vertex -0.00545242 0.286535 0.5
  endloop
 endfacet
 facet normal 0 0 1
  outer loop
   vertex 0.027055 0.283691 0.5
   vertex 0.021706 0.284755 0.5
   vertex 0 0.161654 0.5
  endloop
 endfacet
 facet normal 0 0 1
  outer loop
   vertex 0.021706 0.284755 0.5
   vertex 0.0163158 0.285585 0.5
   vertex 0 0.161654 0.5
  endloop
 endfacet
 facet normal 0 0 1
  outer loop
   vertex 0 0.161654 0.5
   vertex 0.0163158 0.285585 0.5
   vertex 0.0108945 0.286178 0.5
  endloop
 endfacet
 facet normal 0 0 1
  outer loop
   vertex 0.0427525 0.279116 0.5
   vertex 0.0375882 0.280869 0.5
   vertex 0 0.161654 0.5
  endloop
 endfacet
 facet normal 0 0 1
  outer loop
   vertex 0.0375882 0.280869 0.5
   vertex 0.0323524 0.282395 0.5
   vertex 0 0.161654 0.5
  endloop
 endfacet
 facet normal 0 0 1
  outer loop
   vertex 0 0.161654 0.5
   vertex 0.0323524 0.282395 0.5
   vertex 0.027055 0.283691 0.5
  endloop
 endfacet
 facet normal 0 0 1
  outer loop
   vertex 0.0577186 0.27253 0.5
   vertex 0.0528273 0.274943 0.5
   vertex 0 0.161654 0.5
  endloop
 endfacet
 facet normal 0 0 1
  outer loop
   vertex 0.0528273 0.274943 0.5
   vertex 0.0478354 0.277139 0.5
   vertex 0 0.161654 0.5
  endloop
 endfacet
 facet normal 0 0 1
  outer loop
   vertex 0 0.161654 0.5
   vertex 0.0478354 0.277139 0.5
   vertex 0.0427525 0.279116 0.5
  endloop
 endfacet
 facet normal 0 0 1
  outer loop
   vertex 0.0716971 0.264048 0.5
   vertex 0.0671625 0.267078 0.5
   vertex 0 0.161654 0.5
  endloop
 endfacet
 facet normal 0 0 1
  outer loop
   vertex 0.0671625 0.267078 0.5
   vertex 0.0625 0.269907 0.5
   vertex 0 0.161654 0.5
  endloop
 endfacet
 facet normal 0 0 1
  outer loop
   vertex 0 0.161654 0.5
   vertex 0.0625 0.269907 0.5
   vertex 0.0577186 0.27253 0.5
  endloop
 endfacet
 facet normal 0 0 1
  outer loop
   vertex 0.0844488 0.253814 0.5
   vertex 0.0803485 0.25741 0.5
   vertex 0 0.161654 0.5
  endloop
 endfacet
 facet normal 0 0 1
  outer loop
   vertex 0.0803485 0.25741 0.5
   vertex 0.0760952 0.260823 0.5
   vertex 0 0.161654 0.5
  endloop
 endfacet
 facet normal 0 0 1
  outer loop
   vertex 0 0.161654 0.5
   vertex 0.0760952 0.260823 0.5
   vertex 0.0716971 0.264048 0.5
  endloop
 endfacet
 facet normal 0 0 1
  outer loop
   vertex 0.0957556 0.242003 0.5
   vertex 0.0921597 0.246103 0.5
   vertex 0 0.161654 0.5
  endloop
 endfacet
 facet normal 0 0 1
  outer loop
   vertex 0.0921597 0.246103 0.5
   vertex 0.0883883 0.250042 0.5
   vertex 0 0.161654 0.5
  endloop
 endfacet
 facet normal 0 0 1
  outer loop
   vertex 0 0.161654 0.5
   vertex 0.0883883 0.250042 0.5
   vertex 0.0844488 0.253814 0.5
  endloop
 endfacet
 facet normal 0 0 1
  outer loop
   vertex 0.105424 0.228817 0.5
   vertex 0.102394 0.233351 0.5
   vertex 0 0.161654 0.5
  endloop
 endfacet
 facet normal 0 0 1
  outer loop
   vertex 0.102394 0.233351 0.5
   vertex 0.0991692 0.237749 0.5
   vertex 0 0.161654 0.5
  endloop
 endfacet
 facet normal 0 0 1
  outer loop
   vertex 0 0.161654 0.5
   vertex 0.0991692 0.237749 0.5
   vertex 0.0957556 0.242003 0.5
  endloop
 endfacet
 facet normal 0 0 1
  outer loop
   vertex 0.113288 0.214481 0.5
   vertex 0.110876 0.219373 0.5
   vertex 0 0.161654 0.5
  endloop
 endfacet
 facet normal 0 0 1
  outer loop
   vertex 0.110876 0.219373 0.5
   vertex 0.108253 0.224154 0.5
   vertex 0 0.161654 0.5
  endloop
 endfacet
 facet normal 0 0 1
  outer loop
   vertex 0 0.161654 0.5
   vertex 0.108253 0.224154 0.5
   vertex 0.105424 0.228817 0.5
  endloop
 endfacet
 facet normal 0 0 1
  outer loop
   vertex 0.119215 0.199242 0.5
   vertex 0.117462 0.204407 0.5
   vertex 0 0.161654 0.5
  endloop
 endfacet
 facet normal 0 0 1
  outer loop
   vertex 0.117462 0.204407 0.5
   vertex 0.115485 0.209489 0.5
   vertex 0 0.161654 0.5
  endloop
 endfacet
 facet normal 0 0 1
  outer loop
   vertex 0 0.161654 0.5
   vertex 0.115485 0.209489 0.5
   vertex 0.113288 0.214481 0.5
  endloop
 endfacet
 facet normal 0 0 1
  outer loop
   vertex 0.123101 0.18336 0.5
   vertex 0.122037 0.188709 0.5
   vertex 0 0.161654 0.5
  endloop
 endfacet
 facet normal 0 0 1
  outer loop
   vertex 0.122037 0.188709 0.5
   vertex 0.120741 0.194006 0.5
   vertex 0 0.161654 0.5
  endloop
 endfacet
 facet normal 0 0 1
  outer loop
   vertex 0 0.161654 0.5
   vertex 0.120741 0.194006 0.5
   vertex 0.119215 0.199242 0.5
  endloop
 endfacet
 facet normal 0 0 1
  outer loop
   vertex 0.124881 0.167106 0.5
   vertex 0.124524 0.172549 0.5
   vertex 0 0.161654 0.5
  endloop
 endfacet
 facet normal 0 0 1
  outer loop
   vertex 0.124524 0.172549 0.5
   vertex 0.123931 0.17797 0.5
   vertex 0 0.161654 0.5
  endloop
 endfacet
 facet normal 0 0 1
  outer loop
   vertex 0 0.161654 0.5
   vertex 0.123931 0.17797 0.5
   vertex 0.123101 0.18336 0.5
  endloop
 endfacet
endsolid zone0
