solid zone0
 facet normal 0 -0 -1
  outer loop
   vertex 0.124524 0.172382 0
   vertex 0.124881 0.16694 0
   vertex 0 0.161488 0
  endloop
 endfacet
 facet normal 0 -0 -1
  outer loop
   vertex 0.124881 0.16694 0
   vertex 0.125 0.161488 0
   vertex 0 0.161488 0
  endloop
 endfacet
 facet normal 0 0 -1
  outer loop
   vertex 0 0.161488 0
   vertex 0.125 0.161488 0
   vertex 0.124881 0.156035 0
  endloop
 endfacet
 facet normal 0 -0 -1
  outer loop
   vertex 0.122037 0.188543 0
   vertex 0.123101 0.183194 0
   vertex 0 0.161488 0
  endloop
 endfacet
 facet normal 0 -0 -1
  outer loop
   vertex 0.123101 0.183194 0
   vertex 0.123931 0.177804 0
   vertex 0 0.161488 0
  endloop
 endfacet
 facet normal 0 0 -1
  outer loop
   vertex 0 0.161488 0
   vertex 0.123931 0.177804 0
   vertex 0.124524 0.172382 0
  endloop
 endfacet
 facet normal 0 -0 -1
  outer loop
   vertex 0.117462 0.20424 0
   vertex 0.119215 0.199076 0
   vertex 0 0.161488 0
  endloop
 endfacet
 facet normal 0 -0 -1
  outer loop
   vertex 0.119215 0.199076 0
   vertex 0.120741 0.19384 0
   vertex 0 0.161488 0
  endloop
 endfacet
 facet normal 0 0 -1
  outer loop
   vertex 0 0.161488 0
   vertex 0.120741 0.19384 0
   vertex 0.122037 0.188543 0
  endloop
 endfacet
 facet normal 0 -0 -1
  outer loop
   vertex 0.110876 0.219206 0
   vertex 0.113288 0.214315 0
   vertex 0 0.161488 0
  endloop
 endfacet
 facet normal 0 -0 -1
  outer loop
   vertex 0.113288 0.214315 0
   vertex 0.115485 0.209323 0
   vertex 0 0.161488 0
  endloop
 endfacet
 facet normal 0 0 -1
  outer loop
   vertex 0 0.161488 0
   vertex 0.115485 0.209323 0
   vertex 0.117462 0.20424 0
  endloop
 endfacet
 facet normal 0 -0 -1
  outer loop
   vertex 0.102394 0.233185 0
   vertex 0.105424 0.22865 0
   vertex 0 0.161488 0
  endloop
 endfacet
 facet normal 0 -0 -1
  outer loop
   vertex 0.105424 0.22865 0
   vertex 0.108253 0.223988 0
   vertex 0 0.161488 0
  endloop
 endfacet
 facet normal 0 0 -1
  outer loop
   vertex 0 0.161488 0
   vertex 0.108253 0.223988 0
   vertex 0.110876 0.219206 0
  endloop
 endfacet
 facet normal 0 -0 -1
  outer loop
   vertex 0.0921597 0.245937 0
   vertex 0.0957556 0.241836 0
   vertex 0 0.161488 0
  endloop
 endfacet
 facet normal 0 -0 -1
  outer loop
   vertex 0.0957556 0.241836 0
   vertex 0.0991692 0.237583 0
   vertex 0 0.161488 0
  endloop
 endfacet
 facet normal 0 0 -1
  outer loop
   vertex 0 0.161488 0
   vertex 0.0991692 0.237583 0
   vertex 0.102394 0.233185 0
  endloop
 endfacet
 facet normal 0 -0 -1
  outer loop
   vertex 0.0803485 0.257243 0
   vertex 0.0844488 0.253647 0
   vertex 0 0.161488 0
  endloop
 endfacet
 facet normal 0 -0 -1
  outer loop
   vertex 0.0844488 0.253647 0
   vertex 0.0883883 0.249876 0
   vertex 0 0.161488 0
  endloop
 endfacet
 facet normal 0 0 -1
  outer loop
   vertex 0 0.161488 0
   vertex 0.0883883 0.249876 0
   vertex 0.0921597 0.245937 0
  endloop
 endfacet
 facet normal 0 -0 -1
  outer loop
   vertex 0.0671625 0.266912 0
   vertex 0.0716971 0.263882 0
   vertex 0 0.161488 0
  endloop
 endfacet
 facet normal 0 -0 -1
  outer loop
   vertex 0.0716971 0.263882 0
   vertex 0.0760952 0.260657 0
   vertex 0 0.161488 0
  endloop
 endfacet
 facet normal 0 0 -1
  outer loop
   vertex 0 0.161488 0
   vertex 0.0760952 0.260657 0
   vertex 0.0803485 0.257243 0
  endloop
 endfacet
 facet normal 0 -0 -1
  outer loop
   vertex 0.0528273 0.274776 0
   vertex 0.0577186 0.272364 0
   vertex 0 0.161488 0
  endloop
 endfacet
 facet normal 0 -0 -1
  outer loop
   vertex 0.0577186 0.272364 0
   vertex 0.0625 0.269741 0
   vertex 0 0.161488 0
  endloop
 endfacet
 facet normal 0 0 -1
  outer loop
   vertex 0 0.161488 0
   vertex 0.0625 0.269741 0
   vertex 0.0671625 0.266912 0
  endloop
 endfacet
 facet normal 0 -0 -1
  outer loop
   vertex 0.0375882 0.280702 0
   vertex 0.0427525 0.278949 0
   vertex 0 0.161488 0
  endloop
 endfacet
 facet normal 0 -0 -1
  outer loop
   vertex 0.0427525 0.278949 0
   vertex 0.0478354 0.276973 0
   vertex 0 0.161488 0
  endloop
 endfacet
 facet normal 0 0 -1
  outer loop
   vertex 0 0.161488 0
   vertex 0.0478354 0.276973 0
   vertex 0.0528273 0.274776 0
  endloop
 endfacet
 facet normal 0 -0 -1
  outer loop
   vertex 0.021706 0.284589 0
   vertex 0.027055 0.283525 0
   vertex 0 0.161488 0
  endloop
 endfacet
 facet normal 0 -0 -1
  outer loop
   vertex 0.027055 0.283525 0
   vertex 0.0323524 0.282228 0
   vertex 0 0.161488 0
  endloop
 endfacet
 facet normal 0 0 -1
  outer loop
   vertex 0 0.161488 0
   vertex 0.0323524 0.282228 0
   vertex 0.0375882 0.280702 0
  endloop
 endfacet
 facet normal 0 -0 -1
  outer loop
   vertex 0.00545242 0.286369 0
   vertex 0.0108945 0.286012 0
   vertex 0 0.161488 0
  endloop
 endfacet
 facet normal 0 -0 -1
  outer loop
   vertex 0.0108945 0.286012 0
   vertex 0.0163158 0.285418 0
   vertex 0 0.161488 0
  endloop
 endfacet
 facet normal 0 0 -1
  outer loop
   vertex 0 0.161488 0
   vertex 0.0163158 0.285418 0
   vertex 0.021706 0.284589 0
  endloop
 endfacet
 facet normal 0 0 -1
  outer loop
   vertex -0.0108945 0.286012 0
   vertex -0.00545242 0.286369 0
   vertex 0 0.161488 0
  endloop
 endfacet
 facet normal 0 0 -1
  outer loop
   vertex -0.00545242 0.286369 0
   vertex -7.65404e-18 0.286488 0
   vertex 0 0.161488 0
  endloop
 endfacet
 facet normal 0 0 -1
  outer loop
   vertex 0 0.161488 0
   vertex -7.65404e-18 0.286488 0
   vertex 0.00545242 0.286369 0
  endloop
 endfacet
 facet normal 0 0 -1
  outer loop
   vertex -0.027055 0.283525 0
   vertex -0.021706 0.284589 0
   vertex 0 0.161488 0
  endloop
 endfacet
 facet normal 0 0 -1
  outer loop
   vertex -0.021706 0.284589 0
   vertex -0.0163158 0.285418 0
   vertex 0 0.161488 0
  endloop
 endfacet
 facet normal 0 0 -1
  outer loop
   vertex 0 0.161488 0
   vertex -0.0163158 0.285418 0
   vertex -0.0108945 0.286012 0
  endloop
 endfacet
 facet normal 0 0 -1
  outer loop
   vertex -0.0427525 0.278949 0
   vertex -0.0375882 0.280702 0
   vertex 0 0.161488 0
  endloop
 endfacet
 facet normal 0 0 -1
  outer loop
   vertex -0.0375882 0.280702 0
   vertex -0.0323524 0.282228 0
   vertex 0 0.161488 0
  endloop
 endfacet
 facet normal 0 0 -1
  outer loop
   vertex 0 0.161488 0
   vertex -0.0323524 0.282228 0
   vertex -0.027055 0.283525 0
  endloop
 endfacet
 facet normal 0 0 -1
  outer loop
   vertex -0.0577186 0.272364 0
   vertex -0.0528273 0.274776 0
   vertex 0 0.161488 0
  endloop
 endfacet
 facet normal 0 0 -1
  outer loop
   vertex -0.0528273 0.274776 0
   vertex -0.0478354 0.276973 0
   vertex 0 0.161488 0
  endloop
 endfacet
 facet normal 0 0 -1
  outer loop
   vertex 0 0.161488 0
   vertex -0.0478354 0.276973 0
   vertex -0.0427525 0.278949 0
  endloop
 endfacet
 facet normal 0 0 -1
  outer loop
   vertex -0.0716971 0.263882 0
   vertex -0.0671625 0.266912 0
   vertex 0 0.161488 0
  endloop
 endfacet
 facet normal 0 0 -1
  outer loop
   vertex -0.0671625 0.266912 0
   vertex -0.0625 0.269741 0
   vertex 0 0.161488 0
  endloop
 endfacet
 facet normal 0 0 -1
  outer loop
   vertex 0 0.161488 0
   vertex -0.0625 0.269741 0
   vertex -0.0577186 0.272364 0
  endloop
 endfacet
 facet normal 0 0 -1
  outer loop
   vertex -0.0844488 0.253647 0
   vertex -0.0803485 0.257243 0
   vertex 0 0.161488 0
  endloop
 endfacet
 facet normal 0 0 -1
  outer loop
   vertex -0.0803485 0.257243 0
   vertex -0.0760952 0.260657 0
   vertex 0 0.161488 0
  endloop
 endfacet
 facet normal 0 0 -1
  outer loop
   vertex 0 0.161488 0
   vertex -0.0760952 0.260657 0
   vertex -0.0716971 0.263882 0
  endloop
 endfacet
 facet normal 0 0 -1
  outer loop
   vertex -0.0957556 0.241836 0
   vertex -0.0921597 0.245937 0
   vertex 0 0.161488 0
  endloop
 endfacet
 facet normal 0 0 -1
  outer loop
   vertex -0.0921597 0.245937 0
   vertex -0.0883883 0.249876 0
   vertex 0 0.161488 0
  endloop
 endfacet
 facet normal 0 0 -1
  outer loop
   vertex 0 0.161488 0
   vertex -0.0883883 0.249876 0
   vertex -0.0844488 0.253647 0
  endloop
 endfacet
 facet normal 0 0 -1
  outer loop
   vertex -0.105424 0.22865 0
   vertex -0.102394 0.233185 0
   vertex 0 0.161488 0
  endloop
 endfacet
 facet normal 0 0 -1
  outer loop
   vertex -0.102394 0.233185 0
   vertex -0.0991692 0.237583 0
   vertex 0 0.161488 0
  endloop
 endfacet
 facet normal 0 0 -1
  outer loop
   vertex 0 0.161488 0
   vertex -0.0991692 0.237583 0
   vertex -0.0957556 0.241836 0
  endloop
 endfacet
 facet normal 0 0 -1
  outer loop
   vertex -0.113288 0.214315 0
   vertex -0.110876 0.219206 0
   vertex 0 0.161488 0
  endloop
 endfacet
 facet normal 0 0 -1
  outer loop
   vertex -0.110876 0.219206 0
   vertex -0.108253 0.223988 0
   vertex 0 0.161488 0
  endloop
 endfacet
 facet normal 0 0 -1
  outer loop
   vertex 0 0.161488 0
   vertex -0.108253 0.223988 0
   vertex -0.105424 0.22865 0
  endloop
 endfacet
 facet normal 0 0 -1
  outer loop
   vertex -0.119215 0.199076 0
   vertex -0.117462 0.20424 0
   vertex 0 0.161488 0
  endloop
 endfacet
 facet normal 0 0 -1
  outer loop
   vertex -0.117462 0.20424 0
   vertex -0.115485 0.209323 0
   vertex 0 0.161488 0
  endloop
 endfacet
 facet normal 0 0 -1
  outer loop
   vertex 0 0.161488 0
   vertex -0.115485 0.209323 0
   vertex -0.113288 0.214315 0
  endloop
 endfacet
 facet normal 0 0 -1
  outer loop
   vertex -0.123101 0.183194 0
   vertex -0.122037 0.188543 0
   vertex 0 0.161488 0
  endloop
 endfacet
 facet normal 0 0 -1
  outer loop
   vertex -0.122037 0.188543 0
   vertex -0.120741 0.19384 0
   vertex 0 0.161488 0
  endloop
 endfacet
 facet normal 0 0 -1
  outer loop
   vertex 0 0.161488 0
   vertex -0.120741 0.19384 0
   vertex -0.119215 0.199076 0
  endloop
 endfacet
 facet normal 0 0 -1
  outer loop
   vertex -0.124881 0.16694 0
   vertex -0.124524 0.172382 0
   vertex 0 0.161488 0
  endloop
 endfacet
 facet normal 0 0 -1
  outer loop
   vertex -0.124524 0.172382 0
   vertex -0.123931 0.177804 0
   vertex 0 0.161488 0
  endloop
 endfacet
 facet normal 0 0 -1
  outer loop
   vertex 0 0.161488 0
   vertex -0.123931 0.177804 0
   vertex -0.123101 0.183194 0
  endloop
 endfacet
 facet normal 0 0 -1
  outer loop
   vertex -0.124524 0.150593 0
   vertex -0.124881 0.156035 0
   vertex 0 0.161488 0
  endloop
 endfacet
 facet normal 0 0 -1
  outer loop
   vertex -0.124881 0.156035 0
   vertex -0.125 0.161488 0
   vertex 0 0.161488 0
  endloop
 endfacet
 facet normal 0 0 -1
  outer loop
   vertex 0 0.161488 0
   vertex -0.125 0.161488 0
   vertex -0.124881 0.16694 0
  endloop
 endfacet
 facet normal 0 0 -1
  outer loop
   vertex -0.122037 0.134433 0
   vertex -0.123101 0.139782 0
   vertex 0 0.161488 0
  endloop
 endfacet
 facet normal 0 0 -1
  outer loop
   vertex -0.123101 0.139782 0
   vertex -0.123931 0.145172 0
   vertex 0 0.161488 0
  endloop
 endfacet
 facet normal 0 0 -1
  outer loop
   vertex 0 0.161488 0
   vertex -0.123931 0.145172 0
   vertex -0.124524 0.150593 0
  endloop
 endfacet
 facet normal 0 0 -1
  outer loop
   vertex -0.117462 0.118735 0
   vertex -0.119215 0.1239 0
   vertex 0 0.161488 0
  endloop
 endfacet
 facet normal 0 0 -1
  outer loop
   vertex -0.119215 0.1239 0
   vertex -0.120741 0.129135 0
   vertex 0 0.161488 0
  endloop
 endfacet
 facet normal 0 0 -1
  outer loop
   vertex 0 0.161488 0
   vertex -0.120741 0.129135 0
   vertex -0.122037 0.134433 0
  endloop
 endfacet
 facet normal 0 0 -1
  outer loop
   vertex -0.110876 0.103769 0
   vertex -0.113288 0.10866 0
   vertex 0 0.161488 0
  endloop
 endfacet
 facet normal 0 0 -1
  outer loop
   vertex -0.113288 0.10866 0
   vertex -0.115485 0.113652 0
   vertex 0 0.161488 0
  endloop
 endfacet
 facet normal 0 0 -1
  outer loop
   vertex 0 0.161488 0
   vertex -0.115485 0.113652 0
   vertex -0.117462 0.118735 0
  endloop
 endfacet
 facet normal 0 0 -1
  outer loop
   vertex -0.102394 0.0897907 0
   vertex -0.105424 0.0943253 0
   vertex 0 0.161488 0
  endloop
 endfacet
 facet normal 0 0 -1
  outer loop
   vertex -0.105424 0.0943253 0
   vertex -0.108253 0.0989878 0
   vertex 0 0.161488 0
  endloop
 endfacet
 facet normal 0 0 -1
  outer loop
   vertex 0 0.161488 0
   vertex -0.108253 0.0989878 0
   vertex -0.110876 0.103769 0
  endloop
 endfacet
 facet normal 0 0 -1
  outer loop
   vertex -0.0921597 0.077039 0
   vertex -0.0957556 0.0811393 0
   vertex 0 0.161488 0
  endloop
 endfacet
 facet normal 0 0 -1
  outer loop
   vertex -0.0957556 0.0811393 0
   vertex -0.0991692 0.0853926 0
   vertex 0 0.161488 0
  endloop
 endfacet
 facet normal 0 0 -1
  outer loop
   vertex 0 0.161488 0
   vertex -0.0991692 0.0853926 0
   vertex -0.102394 0.0897907 0
  endloop
 endfacet
 facet normal 0 0 -1
  outer loop
   vertex -0.0803485 0.0657322 0
   vertex -0.0844488 0.0693281 0
   vertex 0 0.161488 0
  endloop
 endfacet
 facet normal 0 0 -1
  outer loop
   vertex -0.0844488 0.0693281 0
   vertex -0.0883883 0.0730994 0
   vertex 0 0.161488 0
  endloop
 endfacet
 facet normal 0 0 -1
  outer loop
   vertex 0 0.161488 0
   vertex -0.0883883 0.0730994 0
   vertex -0.0921597 0.077039 0
  endloop
 endfacet
 facet normal 0 0 -1
  outer loop
   vertex -0.0671625 0.0560638 0
   vertex -0.0716971 0.0590938 0
   vertex 0 0.161488 0
  endloop
 endfacet
 facet normal 0 0 -1
  outer loop
   vertex -0.0716971 0.0590938 0
   vertex -0.0760952 0.0623186 0
   vertex 0 0.161488 0
  endloop
 endfacet
 facet normal 0 0 -1
  outer loop
   vertex 0 0.161488 0
   vertex -0.0760952 0.0623186 0
   vertex -0.0803485 0.0657322 0
  endloop
 endfacet
 facet normal 0 0 -1
  outer loop
   vertex -0.0528273 0.0481993 0
   vertex -0.0577186 0.0506114 0
   vertex 0 0.161488 0
  endloop
 endfacet
 facet normal 0 0 -1
  outer loop
   vertex -0.0577186 0.0506114 0
   vertex -0.0625 0.0532346 0
   vertex 0 0.161488 0
  endloop
 endfacet
 facet normal 0 0 -1
  outer loop
   vertex 0 0.161488 0
   vertex -0.0625 0.0532346 0
   vertex -0.0671625 0.0560638 0
  endloop
 endfacet
 facet normal 0 0 -1
  outer loop
   vertex -0.0375882 0.0422732 0
   vertex -0.0427525 0.0440262 0
   vertex 0 0.161488 0
  endloop
 endfacet
 facet normal 0 0 -1
  outer loop
   vertex -0.0427525 0.0440262 0
   vertex -0.0478354 0.0460028 0
   vertex 0 0.161488 0
  endloop
 endfacet
 facet normal 0 0 -1
  outer loop
   vertex 0 0.161488 0
   vertex -0.0478354 0.0460028 0
   vertex -0.0528273 0.0481993 0
  endloop
 endfacet
 facet normal 0 0 -1
  outer loop
   vertex -0.021706 0.0383868 0
   vertex -0.027055 0.0394508 0
   vertex 0 0.161488 0
  endloop
 endfacet
 facet normal 0 0 -1
  outer loop
   vertex -0.027055 0.0394508 0
   vertex -0.0323524 0.040747 0
   vertex 0 0.161488 0
  endloop
 endfacet
 facet normal 0 0 -1
  outer loop
   vertex 0 0.161488 0
   vertex -0.0323524 0.040747 0
   vertex -0.0375882 0.0422732 0
  endloop
 endfacet
 facet normal 0 0 -1
  outer loop
   vertex -0.00545242 0.0366067 0
   vertex -0.0108945 0.0369634 0
   vertex 0 0.161488 0
  endloop
 endfacet
 facet normal 0 0 -1
  outer loop
   vertex -0.0108945 0.0369634 0
   vertex -0.0163158 0.0375572 0
   vertex 0 0.161488 0
  endloop
 endfacet
 facet normal 0 0 -1
  outer loop
   vertex 0 0.161488 0
   vertex -0.0163158 0.0375572 0
   vertex -0.021706 0.0383868 0
  endloop
 endfacet
 facet normal -0 0 -1
  outer loop
   vertex 0.0108945 0.0369634 0
   vertex 0.00545242 0.0366067 0
   vertex 0 0.161488 0
  endloop
 endfacet
 facet normal -0 0 -1
  outer loop
   vertex 0.00545242 0.0366067 0
   vertex 2.29621e-17 0.0364878 0
   vertex 0 0.161488 0
  endloop
 endfacet
 facet normal 0 -0 -1
  outer loop
   vertex 0 0.161488 0
   vertex 2.29621e-17 0.0364878 0
   vertex -0.00545242 0.0366067 0
  endloop
 endfacet
 facet normal -0 0 -1
  outer loop
   vertex 0.027055 0.0394508 0
   vertex 0.021706 0.0383868 0
   vertex 0 0.161488 0
  endloop
 endfacet
 facet normal -0 0 -1
  outer loop
   vertex 0.021706 0.0383868 0
   vertex 0.0163158 0.0375572 0
   vertex 0 0.161488 0
  endloop
 endfacet
 facet normal 0 0 -1
  outer loop
   vertex 0 0.161488 0
   vertex 0.0163158 0.0375572 0
   vertex 0.0108945 0.0369634 0
  endloop
 endfacet
 facet normal -0 0 -1
  outer loop
   vertex 0.0427525 0.0440262 0
   vertex 0.0375882 0.0422732 0
   vertex 0 0.161488 0
  endloop
 endfacet
 facet normal -0 0 -1
  outer loop
   vertex 0.0375882 0.0422732 0
   vertex 0.0323524 0.040747 0
   vertex 0 0.161488 0
  endloop
 endfacet
 facet normal 0 0 -1
  outer loop
   vertex 0 0.161488 0
   vertex 0.0323524 0.040747 0
   vertex 0.027055 0.0394508 0
  endloop
 endfacet
 facet normal -0 0 -1
  outer loop
   vertex 0.0577186 0.0506114 0
   vertex 0.0528273 0.0481993 0
   vertex 0 0.161488 0
  endloop
 endfacet
 facet normal -0 0 -1
  outer loop
   vertex 0.0528273 0.0481993 0
   vertex 0.0478354 0.0460028 0
   vertex 0 0.161488 0
  endloop
 endfacet
 facet normal 0 0 -1
  outer loop
   vertex 0 0.161488 0
   vertex 0.0478354 0.0460028 0
   vertex 0.0427525 0.0440262 0
  endloop
 endfacet
 facet normal -0 0 -1
  outer loop
   vertex 0.0716971 0.0590938 0
   vertex 0.0671625 0.0560638 0
   vertex 0 0.161488 0
  endloop
 endfacet
 facet normal -0 0 -1
  outer loop
   vertex 0.0671625 0.0560638 0
   vertex 0.0625 0.0532346 0
   vertex 0 0.161488 0
  endloop
 endfacet
 facet normal 0 0 -1
  outer loop
   vertex 0 0.161488 0
   vertex 0.0625 0.0532346 0
   vertex 0.0577186 0.0506114 0
  endloop
 endfacet
 facet normal -0 0 -1
  outer loop
   vertex 0.0844488 0.0693281 0
   vertex 0.0803485 0.0657322 0
   vertex 0 0.161488 0
  endloop
 endfacet
 facet normal -0 0 -1
  outer loop
   vertex 0.0803485 0.0657322 0
   vertex 0.0760952 0.0623186 0
   vertex 0 0.161488 0
  endloop
 endfacet
 facet normal 0 0 -1
  outer loop
   vertex 0 0.161488 0
   vertex 0.0760952 0.0623186 0
   vertex 0.0716971 0.0590938 0
  endloop
 endfacet
 facet normal -0 0 -1
  outer loop
   vertex 0.0957556 0.0811393 0
   vertex 0.0921597 0.077039 0
   vertex 0 0.161488 0
  endloop
 endfacet
 facet normal -0 0 -1
  outer loop
   vertex 0.0921597 0.077039 0
   vertex 0.0883883 0.0730994 0
   vertex 0 0.161488 0
  endloop
 endfacet
 facet normal 0 0 -1
  outer loop
   vertex 0 0.161488 0
   vertex 0.0883883 0.0730994 0
   vertex 0.0844488 0.0693281 0
  endloop
 endfacet
 facet normal -0 0 -1
  outer loop
   vertex 0.105424 0.0943253 0
   vertex 0.102394 0.0897907 0
   vertex 0 0.161488 0
  endloop
 endfacet
 facet normal -0 0 -1
  outer loop
   vertex 0.102394 0.0897907 0
   vertex 0.0991692 0.0853926 0
   vertex 0 0.161488 0
  endloop
 endfacet
 facet normal 0 0 -1
  outer loop
   vertex 0 0.161488 0
   vertex 0.0991692 0.0853926 0
   vertex 0.0957556 0.0811393 0
  endloop
 endfacet
 facet normal -0 0 -1
  outer loop
   vertex 0.113288 0.10866 0
   vertex 0.110876 0.103769 0
   vertex 0 0.161488 0
  endloop
 endfacet
 facet normal -0 0 -1
  outer loop
   vertex 0.110876 0.103769 0
   vertex 0.108253 0.0989878 0
   vertex 0 0.161488 0
  endloop
 endfacet
 facet normal 0 0 -1
  outer loop
   vertex 0 0.161488 0
   vertex 0.108253 0.0989878 0
   vertex 0.105424 0.0943253 0
  endloop
 endfacet
 facet normal -0 0 -1
  outer loop
   vertex 0.119215 0.1239 0
   vertex 0.117462 0.118735 0
   vertex 0 0.161488 0
  endloop
 endfacet
 facet normal -0 0 -1
  outer loop
   vertex 0.117462 0.118735 0
   vertex 0.115485 0.113652 0
   vertex 0 0.161488 0
  endloop
 endfacet
 facet normal 0 0 -1
  outer loop
   vertex 0 0.161488 0
   vertex 0.115485 0.113652 0
   vertex 0.113288 0.10866 0
  endloop
 endfacet
 facet normal -0 0 -1
  outer loop
   vertex 0.123101 0.139782 0
   vertex 0.122037 0.134433 0
   vertex 0 0.161488 0
  endloop
 endfacet
 facet normal -0 0 -1
  outer loop
   vertex 0.122037 0.134433 0
   vertex 0.120741 0.129135 0
   vertex 0 0.161488 0
  endloop
 endfacet
 facet normal 0 0 -1
  outer loop
   vertex 0 0.161488 0
   vertex 0.120741 0.129135 0
   vertex 0.119215 0.1239 0
  endloop
 endfacet
 facet normal -0 0 -1
  outer loop
   vertex 0.124881 0.156035 0
   vertex 0.124524 0.150593 0
   vertex 0 0.161488 0
  endloop
 endfacet
 facet normal -0 0 -1
  outer loop
   vertex 0.124524 0.150593 0
   vertex 0.123931 0.145172 0
   vertex 0 0.161488 0
  endloop
 endfacet
 facet normal 0 0 -1
  outer loop
   vertex 0 0.161488 0
   vertex 0.123931 0.145172 0
   vertex 0.123101 0.139782 0
  endloop
 endfacet
 facet normal -0.999762 0.0218146 0
  outer loop
   vertex -0.125 0.161488 0
   vertex -0.124881 0.16694 0.5
   vertex -0.124881 0.16694 0
  endloop
 endfacet
 facet normal -0.997859 0.0654029 0
  outer loop
   vertex -0.124881 0.16694 0.5
   vertex -0.124524 0.172382 0.5
   vertex -0.124881 0.16694 0
  endloop
 endfacet
 facet normal -0.997859 0.0654029 0
  outer loop
   vertex -0.124881 0.16694 0
   vertex -0.124524 0.172382 0.5
   vertex -0.124524 0.172382 0
  endloop
 endfacet
 facet normal -0.994056 0.108867 0
  outer loop
   vertex -0.124524 0.172382 0.5
   vertex -0.123931 0.177804 0.5
   vertex -0.124524 0.172382 0
  endloop
 endfacet
 facet normal -0.994056 0.108867 0
  outer loop
   vertex -0.124524 0.172382 0
   vertex -0.123931 0.177804 0.5
   vertex -0.123931 0.177804 0
  endloop
 endfacet
 facet normal -0.988361 0.152124 0
  outer loop
   vertex -0.123931 0.177804 0.5
   vertex -0.123101 0.183194 0.5
   vertex -0.123931 0.177804 0
  endloop
 endfacet
 facet normal -0.988361 0.152124 0
  outer loop
   vertex -0.123931 0.177804 0
   vertex -0.123101 0.183194 0.5
   vertex -0.123101 0.183194 0
  endloop
 endfacet
 facet normal -0.980785 0.19509 0
  outer loop
   vertex -0.123101 0.183194 0.5
   vertex -0.122037 0.188543 0.5
   vertex -0.123101 0.183194 0
  endloop
 endfacet
 facet normal -0.980785 0.19509 0
  outer loop
   vertex -0.123101 0.183194 0
   vertex -0.122037 0.188543 0.5
   vertex -0.122037 0.188543 0
  endloop
 endfacet
 facet normal -0.971342 0.237686 0
  outer loop
   vertex -0.122037 0.188543 0.5
   vertex -0.120741 0.19384 0.5
   vertex -0.122037 0.188543 0
  endloop
 endfacet
 facet normal -0.971342 0.237686 0
  outer loop
   vertex -0.122037 0.188543 0
   vertex -0.120741 0.19384 0.5
   vertex -0.120741 0.19384 0
  endloop
 endfacet
 facet normal -0.96005 0.279829 0
  outer loop
   vertex -0.120741 0.19384 0.5
   vertex -0.119215 0.199076 0.5
   vertex -0.120741 0.19384 0
  endloop
 endfacet
 facet normal -0.96005 0.279829 0
  outer loop
   vertex -0.120741 0.19384 0
   vertex -0.119215 0.199076 0.5
   vertex -0.119215 0.199076 0
  endloop
 endfacet
 facet normal -0.94693 0.321439 0
  outer loop
   vertex -0.119215 0.199076 0.5
   vertex -0.117462 0.20424 0.5
   vertex -0.119215 0.199076 0
  endloop
 endfacet
 facet normal -0.94693 0.321439 0
  outer loop
   vertex -0.119215 0.199076 0
   vertex -0.117462 0.20424 0.5
   vertex -0.117462 0.20424 0
  endloop
 endfacet
 facet normal -0.932008 0.362439 0
  outer loop
   vertex -0.117462 0.20424 0.5
   vertex -0.115485 0.209323 0.5
   vertex -0.117462 0.20424 0
  endloop
 endfacet
 facet normal -0.932008 0.362439 0
  outer loop
   vertex -0.117462 0.20424 0
   vertex -0.115485 0.209323 0.5
   vertex -0.115485 0.209323 0
  endloop
 endfacet
 facet normal -0.915312 0.402745 0
  outer loop
   vertex -0.115485 0.209323 0.5
   vertex -0.113288 0.214315 0.5
   vertex -0.115485 0.209323 0
  endloop
 endfacet
 facet normal -0.915312 0.402745 0
  outer loop
   vertex -0.115485 0.209323 0
   vertex -0.113288 0.214315 0.5
   vertex -0.113288 0.214315 0
  endloop
 endfacet
 facet normal -0.896872 0.44229 0
  outer loop
   vertex -0.113288 0.214315 0.5
   vertex -0.110876 0.219206 0.5
   vertex -0.113288 0.214315 0
  endloop
 endfacet
 facet normal -0.896872 0.44229 0
  outer loop
   vertex -0.113288 0.214315 0
   vertex -0.110876 0.219206 0.5
   vertex -0.110876 0.219206 0
  endloop
 endfacet
 facet normal -0.876727 0.480989 0
  outer loop
   vertex -0.110876 0.219206 0.5
   vertex -0.108253 0.223988 0.5
   vertex -0.110876 0.219206 0
  endloop
 endfacet
 facet normal -0.876727 0.480989 0
  outer loop
   vertex -0.110876 0.219206 0
   vertex -0.108253 0.223988 0.5
   vertex -0.108253 0.223988 0
  endloop
 endfacet
 facet normal -0.854912 0.518773 0
  outer loop
   vertex -0.108253 0.223988 0.5
   vertex -0.105424 0.22865 0.5
   vertex -0.108253 0.223988 0
  endloop
 endfacet
 facet normal -0.854912 0.518773 0
  outer loop
   vertex -0.108253 0.223988 0
   vertex -0.105424 0.22865 0.5
   vertex -0.105424 0.22865 0
  endloop
 endfacet
 facet normal -0.83147 0.55557 0
  outer loop
   vertex -0.105424 0.22865 0.5
   vertex -0.102394 0.233185 0.5
   vertex -0.105424 0.22865 0
  endloop
 endfacet
 facet normal -0.83147 0.55557 0
  outer loop
   vertex -0.105424 0.22865 0
   vertex -0.102394 0.233185 0.5
   vertex -0.102394 0.233185 0
  endloop
 endfacet
 facet normal -0.806444 0.59131 0
  outer loop
   vertex -0.102394 0.233185 0.5
   vertex -0.0991692 0.237583 0.5
   vertex -0.102394 0.233185 0
  endloop
 endfacet
 facet normal -0.806444 0.59131 0
  outer loop
   vertex -0.102394 0.233185 0
   vertex -0.0991692 0.237583 0.5
   vertex -0.0991692 0.237583 0
  endloop
 endfacet
 facet normal -0.779885 0.625923 0
  outer loop
   vertex -0.0991692 0.237583 0.5
   vertex -0.0957556 0.241836 0.5
   vertex -0.0991692 0.237583 0
  endloop
 endfacet
 facet normal -0.779885 0.625923 0
  outer loop
   vertex -0.0991692 0.237583 0
   vertex -0.0957556 0.241836 0.5
   vertex -0.0957556 0.241836 0
  endloop
 endfacet
 facet normal -0.75184 0.659346 0
  outer loop
   vertex -0.0957556 0.241836 0.5
   vertex -0.0921597 0.245937 0.5
   vertex -0.0957556 0.241836 0
  endloop
 endfacet
 facet normal -0.75184 0.659346 0
  outer loop
   vertex -0.0957556 0.241836 0
   vertex -0.0921597 0.245937 0.5
   vertex -0.0921597 0.245937 0
  endloop
 endfacet
 facet normal -0.722364 0.691513 0
  outer loop
   vertex -0.0921597 0.245937 0.5
   vertex -0.0883883 0.249876 0.5
   vertex -0.0921597 0.245937 0
  endloop
 endfacet
 facet normal -0.722364 0.691513 0
  outer loop
   vertex -0.0921597 0.245937 0
   vertex -0.0883883 0.249876 0.5
   vertex -0.0883883 0.249876 0
  endloop
 endfacet
 facet normal -0.691513 0.722364 0
  outer loop
   vertex -0.0883883 0.249876 0.5
   vertex -0.0844488 0.253647 0.5
   vertex -0.0883883 0.249876 0
  endloop
 endfacet
 facet normal -0.691513 0.722364 0
  outer loop
   vertex -0.0883883 0.249876 0
   vertex -0.0844488 0.253647 0.5
   vertex -0.0844488 0.253647 0
  endloop
 endfacet
 facet normal -0.659346 0.75184 0
  outer loop
   vertex -0.0844488 0.253647 0.5
   vertex -0.0803485 0.257243 0.5
   vertex -0.0844488 0.253647 0
  endloop
 endfacet
 facet normal -0.659346 0.75184 0
  outer loop
   vertex -0.0844488 0.253647 0
   vertex -0.0803485 0.257243 0.5
   vertex -0.0803485 0.257243 0
  endloop
 endfacet
 facet normal -0.625923 0.779885 0
  outer loop
   vertex -0.0803485 0.257243 0.5
   vertex -0.0760952 0.260657 0.5
   vertex -0.0803485 0.257243 0
  endloop
 endfacet
 facet normal -0.625923 0.779885 0
  outer loop
   vertex -0.0803485 0.257243 0
   vertex -0.0760952 0.260657 0.5
   vertex -0.0760952 0.260657 0
  endloop
 endfacet
 facet normal -0.59131 0.806444 0
  outer loop
   vertex -0.0760952 0.260657 0.5
   vertex -0.0716971 0.263882 0.5
   vertex -0.0760952 0.260657 0
  endloop
 endfacet
 facet normal -0.59131 0.806444 0
  outer loop
   vertex -0.0760952 0.260657 0
   vertex -0.0716971 0.263882 0.5
   vertex -0.0716971 0.263882 0
  endloop
 endfacet
 facet normal -0.55557 0.83147 0
  outer loop
   vertex -0.0716971 0.263882 0.5
   vertex -0.0671625 0.266912 0.5
   vertex -0.0716971 0.263882 0
  endloop
 endfacet
 facet normal -0.55557 0.83147 0
  outer loop
   vertex -0.0716971 0.263882 0
   vertex -0.0671625 0.266912 0.5
   vertex -0.0671625 0.266912 0
  endloop
 endfacet
 facet normal -0.518773 0.854912 0
  outer loop
   vertex -0.0671625 0.266912 0.5
   vertex -0.0625 0.269741 0.5
   vertex -0.0671625 0.266912 0
  endloop
 endfacet
 facet normal -0.518773 0.854912 0
  outer loop
   vertex -0.0671625 0.266912 0
   vertex -0.0625 0.269741 0.5
   vertex -0.0625 0.269741 0
  endloop
 endfacet
 facet normal -0.480989 0.876727 0
  outer loop
   vertex -0.0625 0.269741 0.5
   vertex -0.0577186 0.272364 0.5
   vertex -0.0625 0.269741 0
  endloop
 endfacet
 facet normal -0.480989 0.876727 0
  outer loop
   vertex -0.0625 0.269741 0
   vertex -0.0577186 0.272364 0.5
   vertex -0.0577186 0.272364 0
  endloop
 endfacet
 facet normal -0.44229 0.896872 0
  outer loop
   vertex -0.0577186 0.272364 0.5
   vertex -0.0528273 0.274776 0.5
   vertex -0.0577186 0.272364 0
  endloop
 endfacet
 facet normal -0.44229 0.896872 0
  outer loop
   vertex -0.0577186 0.272364 0
   vertex -0.0528273 0.274776 0.5
   vertex -0.0528273 0.274776 0
  endloop
 endfacet
 facet normal -0.402745 0.915312 0
  outer loop
   vertex -0.0528273 0.274776 0.5
   vertex -0.0478354 0.276973 0.5
   vertex -0.0528273 0.274776 0
  endloop
 endfacet
 facet normal -0.402745 0.915312 0
  outer loop
   vertex -0.0528273 0.274776 0
   vertex -0.0478354 0.276973 0.5
   vertex -0.0478354 0.276973 0
  endloop
 endfacet
 facet normal -0.362439 0.932008 0
  outer loop
   vertex -0.0478354 0.276973 0.5
   vertex -0.0427525 0.278949 0.5
   vertex -0.0478354 0.276973 0
  endloop
 endfacet
 facet normal -0.362439 0.932008 0
  outer loop
   vertex -0.0478354 0.276973 0
   vertex -0.0427525 0.278949 0.5
   vertex -0.0427525 0.278949 0
  endloop
 endfacet
 facet normal -0.321439 0.94693 0
  outer loop
   vertex -0.0427525 0.278949 0.5
   vertex -0.0375882 0.280702 0.5
   vertex -0.0427525 0.278949 0
  endloop
 endfacet
 facet normal -0.321439 0.94693 0
  outer loop
   vertex -0.0427525 0.278949 0
   vertex -0.0375882 0.280702 0.5
   vertex -0.0375882 0.280702 0
  endloop
 endfacet
 facet normal -0.279829 0.96005 0
  outer loop
   vertex -0.0375882 0.280702 0.5
   vertex -0.0323524 0.282228 0.5
   vertex -0.0375882 0.280702 0
  endloop
 endfacet
 facet normal -0.279829 0.96005 0
  outer loop
   vertex -0.0375882 0.280702 0
   vertex -0.0323524 0.282228 0.5
   vertex -0.0323524 0.282228 0
  endloop
 endfacet
 facet normal -0.237686 0.971342 0
  outer loop
   vertex -0.0323524 0.282228 0.5
   vertex -0.027055 0.283525 0.5
   vertex -0.0323524 0.282228 0
  endloop
 endfacet
 facet normal -0.237686 0.971342 0
  outer loop
   vertex -0.0323524 0.282228 0
   vertex -0.027055 0.283525 0.5
   vertex -0.027055 0.283525 0
  endloop
 endfacet
 facet normal -0.19509 0.980785 0
  outer loop
   vertex -0.027055 0.283525 0.5
   vertex -0.021706 0.284589 0.5
   vertex -0.027055 0.283525 0
  endloop
 endfacet
 facet normal -0.19509 0.980785 0
  outer loop
   vertex -0.027055 0.283525 0
   vertex -0.021706 0.284589 0.5
   vertex -0.021706 0.284589 0
  endloop
 endfacet
 facet normal -0.152124 0.988361 0
  outer loop
   vertex -0.021706 0.284589 0.5
   vertex -0.0163158 0.285418 0.5
   vertex -0.021706 0.284589 0
  endloop
 endfacet
 facet normal -0.152124 0.988361 0
  outer loop
   vertex -0.021706 0.284589 0
   vertex -0.0163158 0.285418 0.5
   vertex -0.0163158 0.285418 0
  endloop
 endfacet
 facet normal -0.108867 0.994056 0
  outer loop
   vertex -0.0163158 0.285418 0.5
   vertex -0.0108945 0.286012 0.5
   vertex -0.0163158 0.285418 0
  endloop
 endfacet
 facet normal -0.108867 0.994056 0
  outer loop
   vertex -0.0163158 0.285418 0
   vertex -0.0108945 0.286012 0.5
   vertex -0.0108945 0.286012 0
  endloop
 endfacet
 facet normal -0.0654029 0.997859 0
  outer loop
   vertex -0.0108945 0.286012 0.5
   vertex -0.00545242 0.286369 0.5
   vertex -0.0108945 0.286012 0
  endloop
 endfacet
 facet normal -0.0654029 0.997859 0
  outer loop
   vertex -0.0108945 0.286012 0
   vertex -0.00545242 0.286369 0.5
   vertex -0.00545242 0.286369 0
  endloop
 endfacet
 facet normal -0.0218146 0.999762 0
  outer loop
   vertex -0.00545242 0.286369 0.5
   vertex -7.65404e-18 0.286488 0.5
   vertex -0.00545242 0.286369 0
  endloop
 endfacet
 facet normal -0.0218146 0.999762 0
  outer loop
   vertex -0.00545242 0.286369 0
   vertex -7.65404e-18 0.286488 0.5
   vertex -7.65404e-18 0.286488 0
  endloop
 endfacet
 facet normal 0.0218146 0.999762 0
  outer loop
   vertex -7.65404e-18 0.286488 0.5
   vertex 0.00545242 0.286369 0.5
   vertex -7.65404e-18 0.286488 0
  endloop
 endfacet
 facet normal 0.0218146 0.999762 0
  outer loop
   vertex -7.65404e-18 0.286488 0
   vertex 0.00545242 0.286369 0.5
   vertex 0.00545242 0.286369 0
  endloop
 endfacet
 facet normal 0.0654029 0.997859 0
  outer loop
   vertex 0.00545242 0.286369 0.5
   vertex 0.0108945 0.286012 0.5
   vertex 0.00545242 0.286369 0
  endloop
 endfacet
 facet normal 0.0654029 0.997859 0
  outer loop
   vertex 0.00545242 0.286369 0
   vertex 0.0108945 0.286012 0.5
   vertex 0.0108945 0.286012 0
  endloop
 endfacet
 facet normal 0.108867 0.994056 0
  outer loop
   vertex 0.0108945 0.286012 0.5
   vertex 0.0163158 0.285418 0.5
   vertex 0.0108945 0.286012 0
  endloop
 endfacet
 facet normal 0.108867 0.994056 0
  outer loop
   vertex 0.0108945 0.286012 0
   vertex 0.0163158 0.285418 0.5
   vertex 0.0163158 0.285418 0
  endloop
 endfacet
 facet normal 0.152124 0.988361 0
  outer loop
   vertex 0.0163158 0.285418 0.5
   vertex 0.021706 0.284589 0.5
   vertex 0.0163158 0.285418 0
  endloop
 endfacet
 facet normal 0.152124 0.988361 0
  outer loop
   vertex 0.0163158 0.285418 0
   vertex 0.021706 0.284589 0.5
   vertex 0.021706 0.284589 0
  endloop
 endfacet
 facet normal 0.19509 0.980785 0
  outer loop
   vertex 0.021706 0.284589 0.5
   vertex 0.027055 0.283525 0.5
   vertex 0.021706 0.284589 0
  endloop
 endfacet
 facet normal 0.19509 0.980785 0
  outer loop
   vertex 0.021706 0.284589 0
   vertex 0.027055 0.283525 0.5
   vertex 0.027055 0.283525 0
  endloop
 endfacet
 facet normal 0.237686 0.971342 0
  outer loop
   vertex 0.027055 0.283525 0.5
   vertex 0.0323524 0.282228 0.5
   vertex 0.027055 0.283525 0
  endloop
 endfacet
 facet normal 0.237686 0.971342 0
  outer loop
   vertex 0.027055 0.283525 0
   vertex 0.0323524 0.282228 0.5
   vertex 0.0323524 0.282228 0
  endloop
 endfacet
 facet normal 0.279829 0.96005 0
  outer loop
   vertex 0.0323524 0.282228 0.5
   vertex 0.0375882 0.280702 0.5
   vertex 0.0323524 0.282228 0
  endloop
 endfacet
 facet normal 0.279829 0.96005 0
  outer loop
   vertex 0.0323524 0.282228 0
   vertex 0.0375882 0.280702 0.5
   vertex 0.0375882 0.280702 0
  endloop
 endfacet
 facet normal 0.321439 0.94693 0
  outer loop
   vertex 0.0375882 0.280702 0.5
   vertex 0.0427525 0.278949 0.5
   vertex 0.0375882 0.280702 0
  endloop
 endfacet
 facet normal 0.321439 0.94693 0
  outer loop
   vertex 0.0375882 0.280702 0
   vertex 0.0427525 0.278949 0.5
   vertex 0.0427525 0.278949 0
  endloop
 endfacet
 facet normal 0.362439 0.932008 0
  outer loop
   vertex 0.0427525 0.278949 0.5
   vertex 0.0478354 0.276973 0.5
   vertex 0.0427525 0.278949 0
  endloop
 endfacet
 facet normal 0.362439 0.932008 0
  outer loop
   vertex 0.0427525 0.278949 0
   vertex 0.0478354 0.276973 0.5
   vertex 0.0478354 0.276973 0
  endloop
 endfacet
 facet normal 0.402745 0.915312 0
  outer loop
   vertex 0.0478354 0.276973 0.5
   vertex 0.0528273 0.274776 0.5
   vertex 0.0478354 0.276973 0
  endloop
 endfacet
 facet normal 0.402745 0.915312 0
  outer loop
   vertex 0.0478354 0.276973 0
   vertex 0.0528273 0.274776 0.5
   vertex 0.0528273 0.274776 0
  endloop
 endfacet
 facet normal 0.44229 0.896872 0
  outer loop
   vertex 0.0528273 0.274776 0.5
   vertex 0.0577186 0.272364 0.5
   vertex 0.0528273 0.274776 0
  endloop
 endfacet
 facet normal 0.44229 0.896872 0
  outer loop
   vertex 0.0528273 0.274776 0
   vertex 0.0577186 0.272364 0.5
   vertex 0.0577186 0.272364 0
  endloop
 endfacet
 facet normal 0.480989 0.876727 0
  outer loop
   vertex 0.0577186 0.272364 0.5
   vertex 0.0625 0.269741 0.5
   vertex 0.0577186 0.272364 0
  endloop
 endfacet
 facet normal 0.480989 0.876727 0
  outer loop
   vertex 0.0577186 0.272364 0
   vertex 0.0625 0.269741 0.5
   vertex 0.0625 0.269741 0
  endloop
 endfacet
 facet normal 0.518773 0.854912 0
  outer loop
   vertex 0.0625 0.269741 0.5
   vertex 0.0671625 0.266912 0.5
   vertex 0.0625 0.269741 0
  endloop
 endfacet
 facet normal 0.518773 0.854912 0
  outer loop
   vertex 0.0625 0.269741 0
   vertex 0.0671625 0.266912 0.5
   vertex 0.0671625 0.266912 0
  endloop
 endfacet
 facet normal 0.55557 0.83147 0
  outer loop
   vertex 0.0671625 0.266912 0.5
   vertex 0.0716971 0.263882 0.5
   vertex 0.0671625 0.266912 0
  endloop
 endfacet
 facet normal 0.55557 0.83147 0
  outer loop
   vertex 0.0671625 0.266912 0
   vertex 0.0716971 0.263882 0.5
   vertex 0.0716971 0.263882 0
  endloop
 endfacet
 facet normal 0.59131 0.806444 0
  outer loop
   vertex 0.0716971 0.263882 0.5
   vertex 0.0760952 0.260657 0.5
   vertex 0.0716971 0.263882 0
  endloop
 endfacet
 facet normal 0.59131 0.806444 0
  outer loop
   vertex 0.0716971 0.263882 0
   vertex 0.0760952 0.260657 0.5
   vertex 0.0760952 0.260657 0
  endloop
 endfacet
 facet normal 0.625923 0.779885 0
  outer loop
   vertex 0.0760952 0.260657 0.5
   vertex 0.0803485 0.257243 0.5
   vertex 0.0760952 0.260657 0
  endloop
 endfacet
 facet normal 0.625923 0.779885 0
  outer loop
   vertex 0.0760952 0.260657 0
   vertex 0.0803485 0.257243 0.5
   vertex 0.0803485 0.257243 0
  endloop
 endfacet
 facet normal 0.659346 0.75184 0
  outer loop
   vertex 0.0803485 0.257243 0.5
   vertex 0.0844488 0.253647 0.5
   vertex 0.0803485 0.257243 0
  endloop
 endfacet
 facet normal 0.659346 0.75184 0
  outer loop
   vertex 0.0803485 0.257243 0
   vertex 0.0844488 0.253647 0.5
   vertex 0.0844488 0.253647 0
  endloop
 endfacet
 facet normal 0.691513 0.722364 0
  outer loop
   vertex 0.0844488 0.253647 0.5
   vertex 0.0883883 0.249876 0.5
   vertex 0.0844488 0.253647 0
  endloop
 endfacet
 facet normal 0.691513 0.722364 0
  outer loop
   vertex 0.0844488 0.253647 0
   vertex 0.0883883 0.249876 0.5
   vertex 0.0883883 0.249876 0
  endloop
 endfacet
 facet normal 0.722364 0.691513 0
  outer loop
   vertex 0.0883883 0.249876 0.5
   vertex 0.0921597 0.245937 0.5
   vertex 0.0883883 0.249876 0
  endloop
 endfacet
 facet normal 0.722364 0.691513 0
  outer loop
   vertex 0.0883883 0.249876 0
   vertex 0.0921597 0.245937 0.5
   vertex 0.0921597 0.245937 0
  endloop
 endfacet
 facet normal 0.75184 0.659346 0
  outer loop
   vertex 0.0921597 0.245937 0.5
   vertex 0.0957556 0.241836 0.5
   vertex 0.0921597 0.245937 0
  endloop
 endfacet
 facet normal 0.75184 0.659346 0
  outer loop
   vertex 0.0921597 0.245937 0
   vertex 0.0957556 0.241836 0.5
   vertex 0.0957556 0.241836 0
  endloop
 endfacet
 facet normal 0.779885 0.625923 0
  outer loop
   vertex 0.0957556 0.241836 0.5
   vertex 0.0991692 0.237583 0.5
   vertex 0.0957556 0.241836 0
  endloop
 endfacet
 facet normal 0.779885 0.625923 0
  outer loop
   vertex 0.0957556 0.241836 0
   vertex 0.0991692 0.237583 0.5
   vertex 0.0991692 0.237583 0
  endloop
 endfacet
 facet normal 0.806444 0.59131 0
  outer loop
   vertex 0.0991692 0.237583 0.5
   vertex 0.102394 0.233185 0.5
   vertex 0.0991692 0.237583 0
  endloop
 endfacet
 facet normal 0.806444 0.59131 0
  outer loop
   vertex 0.0991692 0.237583 0
   vertex 0.102394 0.233185 0.5
   vertex 0.102394 0.233185 0
  endloop
 endfacet
 facet normal 0.83147 0.55557 0
  outer loop
   vertex 0.102394 0.233185 0.5
   vertex 0.105424 0.22865 0.5
   vertex 0.102394 0.233185 0
  endloop
 endfacet
 facet normal 0.83147 0.55557 0
  outer loop
   vertex 0.102394 0.233185 0
   vertex 0.105424 0.22865 0.5
   vertex 0.105424 0.22865 0
  endloop
 endfacet
 facet normal 0.854912 0.518773 0
  outer loop
   vertex 0.105424 0.22865 0.5
   vertex 0.108253 0.223988 0.5
   vertex 0.105424 0.22865 0
  endloop
 endfacet
 facet normal 0.854912 0.518773 0
  outer loop
   vertex 0.105424 0.22865 0
   vertex 0.108253 0.223988 0.5
   vertex 0.108253 0.223988 0
  endloop
 endfacet
 facet normal 0.876727 0.480989 0
  outer loop
   vertex 0.108253 0.223988 0.5
   vertex 0.110876 0.219206 0.5
   vertex 0.108253 0.223988 0
  endloop
 endfacet
 facet normal 0.876727 0.480989 0
  outer loop
   vertex 0.108253 0.223988 0
   vertex 0.110876 0.219206 0.5
   vertex 0.110876 0.219206 0
  endloop
 endfacet
 facet normal 0.896872 0.44229 0
  outer loop
   vertex 0.110876 0.219206 0.5
   vertex 0.113288 0.214315 0.5
   vertex 0.110876 0.219206 0
  endloop
 endfacet
 facet normal 0.896872 0.44229 0
  outer loop
   vertex 0.110876 0.219206 0
   vertex 0.113288 0.214315 0.5
   vertex 0.113288 0.214315 0
  endloop
 endfacet
 facet normal 0.915312 0.402745 0
  outer loop
   vertex 0.113288 0.214315 0.5
   vertex 0.115485 0.209323 0.5
   vertex 0.113288 0.214315 0
  endloop
 endfacet
 facet normal 0.915312 0.402745 0
  outer loop
   vertex 0.113288 0.214315 0
   vertex 0.115485 0.209323 0.5
   vertex 0.115485 0.209323 0
  endloop
 endfacet
 facet normal 0.932008 0.362439 0
  outer loop
   vertex 0.115485 0.209323 0.5
   vertex 0.117462 0.20424 0.5
   vertex 0.115485 0.209323 0
  endloop
 endfacet
 facet normal 0.932008 0.362439 0
  outer loop
   vertex 0.115485 0.209323 0
   vertex 0.117462 0.20424 0.5
   vertex 0.117462 0.20424 0
  endloop
 endfacet
 facet normal 0.94693 0.321439 0
  outer loop
   vertex 0.117462 0.20424 0.5
   vertex 0.119215 0.199076 0.5
   vertex 0.117462 0.20424 0
  endloop
 endfacet
 facet normal 0.94693 0.321439 0
  outer loop
   vertex 0.117462 0.20424 0
   vertex 0.119215 0.199076 0.5
   vertex 0.119215 0.199076 0
  endloop
 endfacet
 facet normal 0.96005 0.279829 0
  outer loop
   vertex 0.119215 0.199076 0.5
   vertex 0.120741 0.19384 0.5
   vertex 0.119215 0.199076 0
  endloop
 endfacet
 facet normal 0.96005 0.279829 0
  outer loop
   vertex 0.119215 0.199076 0
   vertex 0.120741 0.19384 0.5
   vertex 0.120741 0.19384 0
  endloop
 endfacet
 facet normal 0.971342 0.237686 0
  outer loop
   vertex 0.120741 0.19384 0.5
   vertex 0.122037 0.188543 0.5
   vertex 0.120741 0.19384 0
  endloop
 endfacet
 facet normal 0.971342 0.237686 0
  outer loop
   vertex 0.120741 0.19384 0
   vertex 0.122037 0.188543 0.5
   vertex 0.122037 0.188543 0
  endloop
 endfacet
 facet normal 0.980785 0.19509 0
  outer loop
   vertex 0.122037 0.188543 0.5
   vertex 0.123101 0.183194 0.5
   vertex 0.122037 0.188543 0
  endloop
 endfacet
 facet normal 0.980785 0.19509 0
  outer loop
   vertex 0.122037 0.188543 0
   vertex 0.123101 0.183194 0.5
   vertex 0.123101 0.183194 0
  endloop
 endfacet
 facet normal 0.988361 0.152124 0
  outer loop
   vertex 0.123101 0.183194 0.5
   vertex 0.123931 0.177804 0.5
   vertex 0.123101 0.183194 0
  endloop
 endfacet
 facet normal 0.988361 0.152124 0
  outer loop
   vertex 0.123101 0.183194 0
   vertex 0.123931 0.177804 0.5
   vertex 0.123931 0.177804 0
  endloop
 endfacet
 facet normal 0.994056 0.108867 0
  outer loop
   vertex 0.123931 0.177804 0.5
   vertex 0.124524 0.172382 0.5
   vertex 0.123931 0.177804 0
  endloop
 endfacet
 facet normal 0.994056 0.108867 0
  outer loop
   vertex 0.123931 0.177804 0
   vertex 0.124524 0.172382 0.5
   vertex 0.124524 0.172382 0
  endloop
 endfacet
 facet normal 0.997859 0.0654029 0
  outer loop
   vertex 0.124524 0.172382 0.5
   vertex 0.124881 0.16694 0.5
   vertex 0.124524 0.172382 0
  endloop
 endfacet
 facet normal 0.997859 0.0654029 0
  outer loop
   vertex 0.124524 0.172382 0
   vertex 0.124881 0.16694 0.5
   vertex 0.124881 0.16694 0
  endloop
 endfacet
 facet normal 0.999762 0.0218146 0
  outer loop
   vertex 0.124881 0.16694 0.5
   vertex 0.125 0.161488 0.5
   vertex 0.124881 0.16694 0
  endloop
 endfacet
 facet normal 0.999762 0.0218146 -1.20367e-18
  outer loop
   vertex 0.124881 0.16694 0
   vertex 0.125 0.161488 0.5
   vertex 0.125 0.161488 0
  endloop
 endfacet
 facet normal 0.999762 -0.0218146 1.21095e-18
  outer loop
   vertex 0.125 0.161488 0.5
   vertex 0.124881 0.156035 0.5
   vertex 0.125 0.161488 0
  endloop
 endfacet
 facet normal 0.999762 -0.0218146 0
  outer loop
   vertex 0.125 0.161488 0
   vertex 0.124881 0.156035 0.5
   vertex 0.124881 0.156035 0
  endloop
 endfacet
 facet normal 0.997859 -0.0654029 0
  outer loop
   vertex 0.124881 0.156035 0.5
   vertex 0.124524 0.150593 0.5
   vertex 0.124881 0.156035 0
  endloop
 endfacet
 facet normal 0.997859 -0.0654029 0
  outer loop
   vertex 0.124881 0.156035 0
   vertex 0.124524 0.150593 0.5
   vertex 0.124524 0.150593 0
  endloop
 endfacet
 facet normal 0.994056 -0.108867 0
  outer loop
   vertex 0.124524 0.150593 0.5
   vertex 0.123931 0.145172 0.5
   vertex 0.124524 0.150593 0
  endloop
 endfacet
 facet normal 0.994056 -0.108867 0
  outer loop
   vertex 0.124524 0.150593 0
   vertex 0.123931 0.145172 0.5
   vertex 0.123931 0.145172 0
  endloop
 endfacet
 facet normal 0.988361 -0.152124 0
  outer loop
   vertex 0.123931 0.145172 0.5
   vertex 0.123101 0.139782 0.5
   vertex 0.123931 0.145172 0
  endloop
 endfacet
 facet normal 0.988361 -0.152124 0
  outer loop
   vertex 0.123931 0.145172 0
   vertex 0.123101 0.139782 0.5
   vertex 0.123101 0.139782 0
  endloop
 endfacet
 facet normal 0.980785 -0.19509 0
  outer loop
   vertex 0.123101 0.139782 0.5
   vertex 0.122037 0.134433 0.5
   vertex 0.123101 0.139782 0
  endloop
 endfacet
 facet normal 0.980785 -0.19509 0
  outer loop
   vertex 0.123101 0.139782 0
   vertex 0.122037 0.134433 0.5
   vertex 0.122037 0.134433 0
  endloop
 endfacet
 facet normal 0.971342 -0.237686 0
  outer loop
   vertex 0.122037 0.134433 0.5
   vertex 0.120741 0.129135 0.5
   vertex 0.122037 0.134433 0
  endloop
 endfacet
 facet normal 0.971342 -0.237686 0
  outer loop
   vertex 0.122037 0.134433 0
   vertex 0.120741 0.129135 0.5
   vertex 0.120741 0.129135 0
  endloop
 endfacet
 facet normal 0.96005 -0.279829 0
  outer loop
   vertex 0.120741 0.129135 0.5
   vertex 0.119215 0.1239 0.5
   vertex 0.120741 0.129135 0
  endloop
 endfacet
 facet normal 0.96005 -0.279829 0
  outer loop
   vertex 0.120741 0.129135 0
   vertex 0.119215 0.1239 0.5
   vertex 0.119215 0.1239 0
  endloop
 endfacet
 facet normal 0.94693 -0.321439 0
  outer loop
   vertex 0.119215 0.1239 0.5
   vertex 0.117462 0.118735 0.5
   vertex 0.119215 0.1239 0
  endloop
 endfacet
 facet normal 0.94693 -0.321439 0
  outer loop
   vertex 0.119215 0.1239 0
   vertex 0.117462 0.118735 0.5
   vertex 0.117462 0.118735 0
  endloop
 endfacet
 facet normal 0.932008 -0.362439 0
  outer loop
   vertex 0.117462 0.118735 0.5
   vertex 0.115485 0.113652 0.5
   vertex 0.117462 0.118735 0
  endloop
 endfacet
 facet normal 0.932008 -0.362439 0
  outer loop
   vertex 0.117462 0.118735 0
   vertex 0.115485 0.113652 0.5
   vertex 0.115485 0.113652 0
  endloop
 endfacet
 facet normal 0.915312 -0.402745 0
  outer loop
   vertex 0.115485 0.113652 0.5
   vertex 0.113288 0.10866 0.5
   vertex 0.115485 0.113652 0
  endloop
 endfacet
 facet normal 0.915312 -0.402745 0
  outer loop
   vertex 0.115485 0.113652 0
   vertex 0.113288 0.10866 0.5
   vertex 0.113288 0.10866 0
  endloop
 endfacet
 facet normal 0.896872 -0.44229 0
  outer loop
   vertex 0.113288 0.10866 0.5
   vertex 0.110876 0.103769 0.5
   vertex 0.113288 0.10866 0
  endloop
 endfacet
 facet normal 0.896872 -0.44229 0
  outer loop
   vertex 0.113288 0.10866 0
   vertex 0.110876 0.103769 0.5
   vertex 0.110876 0.103769 0
  endloop
 endfacet
 facet normal 0.876727 -0.480989 0
  outer loop
   vertex 0.110876 0.103769 0.5
   vertex 0.108253 0.0989878 0.5
   vertex 0.110876 0.103769 0
  endloop
 endfacet
 facet normal 0.876727 -0.480989 0
  outer loop
   vertex 0.110876 0.103769 0
   vertex 0.108253 0.0989878 0.5
   vertex 0.108253 0.0989878 0
  endloop
 endfacet
 facet normal 0.854912 -0.518773 0
  outer loop
   vertex 0.108253 0.0989878 0.5
   vertex 0.105424 0.0943253 0.5
   vertex 0.108253 0.0989878 0
  endloop
 endfacet
 facet normal 0.854912 -0.518773 0
  outer loop
   vertex 0.108253 0.0989878 0
   vertex 0.105424 0.0943253 0.5
   vertex 0.105424 0.0943253 0
  endloop
 endfacet
 facet normal 0.83147 -0.55557 0
  outer loop
   vertex 0.105424 0.0943253 0.5
   vertex 0.102394 0.0897907 0.5
   vertex 0.105424 0.0943253 0
  endloop
 endfacet
 facet normal 0.83147 -0.55557 0
  outer loop
   vertex 0.105424 0.0943253 0
   vertex 0.102394 0.0897907 0.5
   vertex 0.102394 0.0897907 0
  endloop
 endfacet
 facet normal 0.806444 -0.59131 0
  outer loop
   vertex 0.102394 0.0897907 0.5
   vertex 0.0991692 0.0853926 0.5
   vertex 0.102394 0.0897907 0
  endloop
 endfacet
 facet normal 0.806444 -0.59131 0
  outer loop
   vertex 0.102394 0.0897907 0
   vertex 0.0991692 0.0853926 0.5
   vertex 0.0991692 0.0853926 0
  endloop
 endfacet
 facet normal 0.779885 -0.625923 0
  outer loop
   vertex 0.0991692 0.0853926 0.5
   vertex 0.0957556 0.0811393 0.5
   vertex 0.0991692 0.0853926 0
  endloop
 endfacet
 facet normal 0.779885 -0.625923 0
  outer loop
   vertex 0.0991692 0.0853926 0
   vertex 0.0957556 0.0811393 0.5
   vertex 0.0957556 0.0811393 0
  endloop
 endfacet
 facet normal 0.75184 -0.659346 0
  outer loop
   vertex 0.0957556 0.0811393 0.5
   vertex 0.0921597 0.077039 0.5
   vertex 0.0957556 0.0811393 0
  endloop
 endfacet
 facet normal 0.75184 -0.659346 0
  outer loop
   vertex 0.0957556 0.0811393 0
   vertex 0.0921597 0.077039 0.5
   vertex 0.0921597 0.077039 0
  endloop
 endfacet
 facet normal 0.722364 -0.691513 0
  outer loop
   vertex 0.0921597 0.077039 0.5
   vertex 0.0883883 0.0730994 0.5
   vertex 0.0921597 0.077039 0
  endloop
 endfacet
 facet normal 0.722364 -0.691513 0
  outer loop
   vertex 0.0921597 0.077039 0
   vertex 0.0883883 0.0730994 0.5
   vertex 0.0883883 0.0730994 0
  endloop
 endfacet
 facet normal 0.691513 -0.722364 0
  outer loop
   vertex 0.0883883 0.0730994 0.5
   vertex 0.0844488 0.0693281 0.5
   vertex 0.0883883 0.0730994 0
  endloop
 endfacet
 facet normal 0.691513 -0.722364 0
  outer loop
   vertex 0.0883883 0.0730994 0
   vertex 0.0844488 0.0693281 0.5
   vertex 0.0844488 0.0693281 0
  endloop
 endfacet
 facet normal 0.659346 -0.75184 0
  outer loop
   vertex 0.0844488 0.0693281 0.5
   vertex 0.0803485 0.0657322 0.5
   vertex 0.0844488 0.0693281 0
  endloop
 endfacet
 facet normal 0.659346 -0.75184 0
  outer loop
   vertex 0.0844488 0.0693281 0
   vertex 0.0803485 0.0657322 0.5
   vertex 0.0803485 0.0657322 0
  endloop
 endfacet
 facet normal 0.625923 -0.779885 0
  outer loop
   vertex 0.0803485 0.0657322 0.5
   vertex 0.0760952 0.0623186 0.5
   vertex 0.0803485 0.0657322 0
  endloop
 endfacet
 facet normal 0.625923 -0.779885 0
  outer loop
   vertex 0.0803485 0.0657322 0
   vertex 0.0760952 0.0623186 0.5
   vertex 0.0760952 0.0623186 0
  endloop
 endfacet
 facet normal 0.59131 -0.806444 0
  outer loop
   vertex 0.0760952 0.0623186 0.5
   vertex 0.0716971 0.0590938 0.5
   vertex 0.0760952 0.0623186 0
  endloop
 endfacet
 facet normal 0.59131 -0.806444 0
  outer loop
   vertex 0.0760952 0.0623186 0
   vertex 0.0716971 0.0590938 0.5
   vertex 0.0716971 0.0590938 0
  endloop
 endfacet
 facet normal 0.55557 -0.83147 0
  outer loop
   vertex 0.0716971 0.0590938 0.5
   vertex 0.0671625 0.0560638 0.5
   vertex 0.0716971 0.0590938 0
  endloop
 endfacet
 facet normal 0.55557 -0.83147 0
  outer loop
   vertex 0.0716971 0.0590938 0
   vertex 0.0671625 0.0560638 0.5
   vertex 0.0671625 0.0560638 0
  endloop
 endfacet
 facet normal 0.518773 -0.854912 0
  outer loop
   vertex 0.0671625 0.0560638 0.5
   vertex 0.0625 0.0532346 0.5
   vertex 0.0671625 0.0560638 0
  endloop
 endfacet
 facet normal 0.518773 -0.854912 0
  outer loop
   vertex 0.0671625 0.0560638 0
   vertex 0.0625 0.0532346 0.5
   vertex 0.0625 0.0532346 0
  endloop
 endfacet
 facet normal 0.480989 -0.876727 0
  outer loop
   vertex 0.0625 0.0532346 0.5
   vertex 0.0577186 0.0506114 0.5
   vertex 0.0625 0.0532346 0
  endloop
 endfacet
 facet normal 0.480989 -0.876727 0
  outer loop
   vertex 0.0625 0.0532346 0
   vertex 0.0577186 0.0506114 0.5
   vertex 0.0577186 0.0506114 0
  endloop
 endfacet
 facet normal 0.44229 -0.896872 0
  outer loop
   vertex 0.0577186 0.0506114 0.5
   vertex 0.0528273 0.0481993 0.5
   vertex 0.0577186 0.0506114 0
  endloop
 endfacet
 facet normal 0.44229 -0.896872 0
  outer loop
   vertex 0.0577186 0.0506114 0
   vertex 0.0528273 0.0481993 0.5
   vertex 0.0528273 0.0481993 0
  endloop
 endfacet
 facet normal 0.402745 -0.915312 0
  outer loop
   vertex 0.0528273 0.0481993 0.5
   vertex 0.0478354 0.0460028 0.5
   vertex 0.0528273 0.0481993 0
  endloop
 endfacet
 facet normal 0.402745 -0.915312 0
  outer loop
   vertex 0.0528273 0.0481993 0
   vertex 0.0478354 0.0460028 0.5
   vertex 0.0478354 0.0460028 0
  endloop
 endfacet
 facet normal 0.362439 -0.932008 0
  outer loop
   vertex 0.0478354 0.0460028 0.5
   vertex 0.0427525 0.0440262 0.5
   vertex 0.0478354 0.0460028 0
  endloop
 endfacet
 facet normal 0.362439 -0.932008 0
  outer loop
   vertex 0.0478354 0.0460028 0
   vertex 0.0427525 0.0440262 0.5
   vertex 0.0427525 0.0440262 0
  endloop
 endfacet
 facet normal 0.321439 -0.94693 0
  outer loop
   vertex 0.0427525 0.0440262 0.5
   vertex 0.0375882 0.0422732 0.5
   vertex 0.0427525 0.0440262 0
  endloop
 endfacet
 facet normal 0.321439 -0.94693 0
  outer loop
   vertex 0.0427525 0.0440262 0
   vertex 0.0375882 0.0422732 0.5
   vertex 0.0375882 0.0422732 0
  endloop
 endfacet
 facet normal 0.279829 -0.96005 0
  outer loop
   vertex 0.0375882 0.0422732 0.5
   vertex 0.0323524 0.040747 0.5
   vertex 0.0375882 0.0422732 0
  endloop
 endfacet
 facet normal 0.279829 -0.96005 0
  outer loop
   vertex 0.0375882 0.0422732 0
   vertex 0.0323524 0.040747 0.5
   vertex 0.0323524 0.040747 0
  endloop
 endfacet
 facet normal 0.237686 -0.971342 0
  outer loop
   vertex 0.0323524 0.040747 0.5
   vertex 0.027055 0.0394508 0.5
   vertex 0.0323524 0.040747 0
  endloop
 endfacet
 facet normal 0.237686 -0.971342 0
  outer loop
   vertex 0.0323524 0.040747 0
   vertex 0.027055 0.0394508 0.5
   vertex 0.027055 0.0394508 0
  endloop
 endfacet
 facet normal 0.19509 -0.980785 0
  outer loop
   vertex 0.027055 0.0394508 0.5
   vertex 0.021706 0.0383868 0.5
   vertex 0.027055 0.0394508 0
  endloop
 endfacet
 facet normal 0.19509 -0.980785 0
  outer loop
   vertex 0.027055 0.0394508 0
   vertex 0.021706 0.0383868 0.5
   vertex 0.021706 0.0383868 0
  endloop
 endfacet
 facet normal 0.152124 -0.988361 0
  outer loop
   vertex 0.021706 0.0383868 0.5
   vertex 0.0163158 0.0375572 0.5
   vertex 0.021706 0.0383868 0
  endloop
 endfacet
 facet normal 0.152124 -0.988361 0
  outer loop
   vertex 0.021706 0.0383868 0
   vertex 0.0163158 0.0375572 0.5
   vertex 0.0163158 0.0375572 0
  endloop
 endfacet
 facet normal 0.108867 -0.994056 0
  outer loop
   vertex 0.0163158 0.0375572 0.5
   vertex 0.0108945 0.0369634 0.5
   vertex 0.0163158 0.0375572 0
  endloop
 endfacet
 facet normal 0.108867 -0.994056 0
  outer loop
   vertex 0.0163158 0.0375572 0
   vertex 0.0108945 0.0369634 0.5
   vertex 0.0108945 0.0369634 0
  endloop
 endfacet
 facet normal 0.0654029 -0.997859 0
  outer loop
   vertex 0.0108945 0.0369634 0.5
   vertex 0.00545242 0.0366067 0.5
   vertex 0.0108945 0.0369634 0
  endloop
 endfacet
 facet normal 0.0654029 -0.997859 0
  outer loop
   vertex 0.0108945 0.0369634 0
   vertex 0.00545242 0.0366067 0.5
   vertex 0.00545242 0.0366067 0
  endloop
 endfacet
 facet normal 0.0218146 -0.999762 0
  outer loop
   vertex 0.00545242 0.0366067 0.5
   vertex 2.29621e-17 0.0364878 0.5
   vertex 0.00545242 0.0366067 0
  endloop
 endfacet
 facet normal 0.0218146 -0.999762 0
  outer loop
   vertex 0.00545242 0.0366067 0
   vertex 2.29621e-17 0.0364878 0.5
   vertex 2.29621e-17 0.0364878 0
  endloop
 endfacet
 facet normal -0.0218146 -0.999762 -0
  outer loop
   vertex 2.29621e-17 0.0364878 0.5
   vertex -0.00545242 0.0366067 0.5
   vertex 2.29621e-17 0.0364878 0
  endloop
 endfacet
 facet normal -0.0218146 -0.999762 0
  outer loop
   vertex 2.29621e-17 0.0364878 0
   vertex -0.00545242 0.0366067 0.5
   vertex -0.00545242 0.0366067 0
  endloop
 endfacet
 facet normal -0.0654029 -0.997859 -0
  outer loop
   vertex -0.00545242 0.0366067 0.5
   vertex -0.0108945 0.0369634 0.5
   vertex -0.00545242 0.0366067 0
  endloop
 endfacet
 facet normal -0.0654029 -0.997859 0
  outer loop
   vertex -0.00545242 0.0366067 0
   vertex -0.0108945 0.0369634 0.5
   vertex -0.0108945 0.0369634 0
  endloop
 endfacet
 facet normal -0.108867 -0.994056 -0
  outer loop
   vertex -0.0108945 0.0369634 0.5
   vertex -0.0163158 0.0375572 0.5
   vertex -0.0108945 0.0369634 0
  endloop
 endfacet
 facet normal -0.108867 -0.994056 0
  outer loop
   vertex -0.0108945 0.0369634 0
   vertex -0.0163158 0.0375572 0.5
   vertex -0.0163158 0.0375572 0
  endloop
 endfacet
 facet normal -0.152124 -0.988361 -0
  outer loop
   vertex -0.0163158 0.0375572 0.5
   vertex -0.021706 0.0383868 0.5
   vertex -0.0163158 0.0375572 0
  endloop
 endfacet
 facet normal -0.152124 -0.988361 0
  outer loop
   vertex -0.0163158 0.0375572 0
   vertex -0.021706 0.0383868 0.5
   vertex -0.021706 0.0383868 0
  endloop
 endfacet
 facet normal -0.19509 -0.980785 -0
  outer loop
   vertex -0.021706 0.0383868 0.5
   vertex -0.027055 0.0394508 0.5
   vertex -0.021706 0.0383868 0
  endloop
 endfacet
 facet normal -0.19509 -0.980785 0
  outer loop
   vertex -0.021706 0.0383868 0
   vertex -0.027055 0.0394508 0.5
   vertex -0.027055 0.0394508 0
  endloop
 endfacet
 facet normal -0.237686 -0.971342 -0
  outer loop
   vertex -0.027055 0.0394508 0.5
   vertex -0.0323524 0.040747 0.5
   vertex -0.027055 0.0394508 0
  endloop
 endfacet
 facet normal -0.237686 -0.971342 0
  outer loop
   vertex -0.027055 0.0394508 0
   vertex -0.0323524 0.040747 0.5
   vertex -0.0323524 0.040747 0
  endloop
 endfacet
 facet normal -0.279829 -0.96005 -0
  outer loop
   vertex -0.0323524 0.040747 0.5
   vertex -0.0375882 0.0422732 0.5
   vertex -0.0323524 0.040747 0
  endloop
 endfacet
 facet normal -0.279829 -0.96005 0
  outer loop
   vertex -0.0323524 0.040747 0
   vertex -0.0375882 0.0422732 0.5
   vertex -0.0375882 0.0422732 0
  endloop
 endfacet
 facet normal -0.321439 -0.94693 -0
  outer loop
   vertex -0.0375882 0.0422732 0.5
   vertex -0.0427525 0.0440262 0.5
   vertex -0.0375882 0.0422732 0
  endloop
 endfacet
 facet normal -0.321439 -0.94693 0
  outer loop
   vertex -0.0375882 0.0422732 0
   vertex -0.0427525 0.0440262 0.5
   vertex -0.0427525 0.0440262 0
  endloop
 endfacet
 facet normal -0.362439 -0.932008 -0
  outer loop
   vertex -0.0427525 0.0440262 0.5
   vertex -0.0478354 0.0460028 0.5
   vertex -0.0427525 0.0440262 0
  endloop
 endfacet
 facet normal -0.362439 -0.932008 0
  outer loop
   vertex -0.0427525 0.0440262 0
   vertex -0.0478354 0.0460028 0.5
   vertex -0.0478354 0.0460028 0
  endloop
 endfacet
 facet normal -0.402745 -0.915312 -0
  outer loop
   vertex -0.0478354 0.0460028 0.5
   vertex -0.0528273 0.0481993 0.5
   vertex -0.0478354 0.0460028 0
  endloop
 endfacet
 facet normal -0.402745 -0.915312 0
  outer loop
   vertex -0.0478354 0.0460028 0
   vertex -0.0528273 0.0481993 0.5
   vertex -0.0528273 0.0481993 0
  endloop
 endfacet
 facet normal -0.44229 -0.896872 -0
  outer loop
   vertex -0.0528273 0.0481993 0.5
   vertex -0.0577186 0.0506114 0.5
   vertex -0.0528273 0.0481993 0
  endloop
 endfacet
 facet normal -0.44229 -0.896872 0
  outer loop
   vertex -0.0528273 0.0481993 0
   vertex -0.0577186 0.0506114 0.5
   vertex -0.0577186 0.0506114 0
  endloop
 endfacet
 facet normal -0.480989 -0.876727 -0
  outer loop
   vertex -0.0577186 0.0506114 0.5
   vertex -0.0625 0.0532346 0.5
   vertex -0.0577186 0.0506114 0
  endloop
 endfacet
 facet normal -0.480989 -0.876727 0
  outer loop
   vertex -0.0577186 0.0506114 0
   vertex -0.0625 0.0532346 0.5
   vertex -0.0625 0.0532346 0
  endloop
 endfacet
 facet normal -0.518773 -0.854912 -0
  outer loop
   vertex -0.0625 0.0532346 0.5
   vertex -0.0671625 0.0560638 0.5
   vertex -0.0625 0.0532346 0
  endloop
 endfacet
 facet normal -0.518773 -0.854912 0
  outer loop
   vertex -0.0625 0.0532346 0
   vertex -0.0671625 0.0560638 0.5
   vertex -0.0671625 0.0560638 0
  endloop
 endfacet
 facet normal -0.55557 -0.83147 -0
  outer loop
   vertex -0.0671625 0.0560638 0.5
   vertex -0.0716971 0.0590938 0.5
   vertex -0.0671625 0.0560638 0
  endloop
 endfacet
 facet normal -0.55557 -0.83147 0
  outer loop
   vertex -0.0671625 0.0560638 0
   vertex -0.0716971 0.0590938 0.5
   vertex -0.0716971 0.0590938 0
  endloop
 endfacet
 facet normal -0.59131 -0.806444 -0
  outer loop
   vertex -0.0716971 0.0590938 0.5
   vertex -0.0760952 0.0623186 0.5
   vertex -0.0716971 0.0590938 0
  endloop
 endfacet
 facet normal -0.59131 -0.806444 0
  outer loop
   vertex -0.0716971 0.0590938 0
   vertex -0.0760952 0.0623186 0.5
   vertex -0.0760952 0.0623186 0
  endloop
 endfacet
 facet normal -0.625923 -0.779885 -0
  outer loop
   vertex -0.0760952 0.0623186 0.5
   vertex -0.0803485 0.0657322 0.5
   vertex -0.0760952 0.0623186 0
  endloop
 endfacet
 facet normal -0.625923 -0.779885 0
  outer loop
   vertex -0.0760952 0.0623186 0
   vertex -0.0803485 0.0657322 0.5
   vertex -0.0803485 0.0657322 0
  endloop
 endfacet
 facet normal -0.659346 -0.75184 -0
  outer loop
   vertex -0.0803485 0.0657322 0.5
   vertex -0.0844488 0.0693281 0.5
   vertex -0.0803485 0.0657322 0
  endloop
 endfacet
 facet normal -0.659346 -0.75184 0
  outer loop
   vertex -0.0803485 0.0657322 0
   vertex -0.0844488 0.0693281 0.5
   vertex -0.0844488 0.0693281 0
  endloop
 endfacet
 facet normal -0.691513 -0.722364 -0
  outer loop
   vertex -0.0844488 0.0693281 0.5
   vertex -0.0883883 0.0730994 0.5
   vertex -0.0844488 0.0693281 0
  endloop
 endfacet
 facet normal -0.691513 -0.722364 0
  outer loop
   vertex -0.0844488 0.0693281 0
   vertex -0.0883883 0.0730994 0.5
   vertex -0.0883883 0.0730994 0
  endloop
 endfacet
 facet normal -0.722364 -0.691513 -0
  outer loop
   vertex -0.0883883 0.0730994 0.5
   vertex -0.0921597 0.077039 0.5
   vertex -0.0883883 0.0730994 0
  endloop
 endfacet
 facet normal -0.722364 -0.691513 0
  outer loop
   vertex -0.0883883 0.0730994 0
   vertex -0.0921597 0.077039 0.5
   vertex -0.0921597 0.077039 0
  endloop
 endfacet
 facet normal -0.75184 -0.659346 -0
  outer loop
   vertex -0.0921597 0.077039 0.5
   vertex -0.0957556 0.0811393 0.5
   vertex -0.0921597 0.077039 0
  endloop
 endfacet
 facet normal -0.75184 -0.659346 0
  outer loop
   vertex -0.0921597 0.077039 0
   vertex -0.0957556 0.0811393 0.5
   vertex -0.0957556 0.0811393 0
  endloop
 endfacet
 facet normal -0.779885 -0.625923 -0
  outer loop
   vertex -0.0957556 0.0811393 0.5
   vertex -0.0991692 0.0853926 0.5
   vertex -0.0957556 0.0811393 0
  endloop
 endfacet
 facet normal -0.779885 -0.625923 0
  outer loop
   vertex -0.0957556 0.0811393 0
   vertex -0.0991692 0.0853926 0.5
   vertex -0.0991692 0.0853926 0
  endloop
 endfacet
 facet normal -0.806444 -0.59131 -0
  outer loop
   vertex -0.0991692 0.0853926 0.5
   vertex -0.102394 0.0897907 0.5
   vertex -0.0991692 0.0853926 0
  endloop
 endfacet
 facet normal -0.806444 -0.59131 0
  outer loop
   vertex -0.0991692 0.0853926 0
   vertex -0.102394 0.0897907 0.5
   vertex -0.102394 0.0897907 0
  endloop
 endfacet
 facet normal -0.83147 -0.55557 -0
  outer loop
   vertex -0.102394 0.0897907 0.5
   vertex -0.105424 0.0943253 0.5
   vertex -0.102394 0.0897907 0
  endloop
 endfacet
 facet normal -0.83147 -0.55557 0
  outer loop
   vertex -0.102394 0.0897907 0
   vertex -0.105424 0.0943253 0.5
   vertex -0.105424 0.0943253 0
  endloop
 endfacet
 facet normal -0.854912 -0.518773 -0
  outer loop
   vertex -0.105424 0.0943253 0.5
   vertex -0.108253 0.0989878 0.5
   vertex -0.105424 0.0943253 0
  endloop
 endfacet
 facet normal -0.854912 -0.518773 0
  outer loop
   vertex -0.105424 0.0943253 0
   vertex -0.108253 0.0989878 0.5
   vertex -0.108253 0.0989878 0
  endloop
 endfacet
 facet normal -0.876727 -0.480989 -0
  outer loop
   vertex -0.108253 0.0989878 0.5
   vertex -0.110876 0.103769 0.5
   vertex -0.108253 0.0989878 0
  endloop
 endfacet
 facet normal -0.876727 -0.480989 0
  outer loop
   vertex -0.108253 0.0989878 0
   vertex -0.110876 0.103769 0.5
   vertex -0.110876 0.103769 0
  endloop
 endfacet
 facet normal -0.896872 -0.44229 -0
  outer loop
   vertex -0.110876 0.103769 0.5
   vertex -0.113288 0.10866 0.5
   vertex -0.110876 0.103769 0
  endloop
 endfacet
 facet normal -0.896872 -0.44229 0
  outer loop
   vertex -0.110876 0.103769 0
   vertex -0.113288 0.10866 0.5
   vertex -0.113288 0.10866 0
  endloop
 endfacet
 facet normal -0.915312 -0.402745 -0
  outer loop
   vertex -0.113288 0.10866 0.5
   vertex -0.115485 0.113652 0.5
   vertex -0.113288 0.10866 0
  endloop
 endfacet
 facet normal -0.915312 -0.402745 0
  outer loop
   vertex -0.113288 0.10866 0
   vertex -0.115485 0.113652 0.5
   vertex -0.115485 0.113652 0
  endloop
 endfacet
 facet normal -0.932008 -0.362439 -0
  outer loop
   vertex -0.115485 0.113652 0.5
   vertex -0.117462 0.118735 0.5
   vertex -0.115485 0.113652 0
  endloop
 endfacet
 facet normal -0.932008 -0.362439 0
  outer loop
   vertex -0.115485 0.113652 0
   vertex -0.117462 0.118735 0.5
   vertex -0.117462 0.118735 0
  endloop
 endfacet
 facet normal -0.94693 -0.321439 -0
  outer loop
   vertex -0.117462 0.118735 0.5
   vertex -0.119215 0.1239 0.5
   vertex -0.117462 0.118735 0
  endloop
 endfacet
 facet normal -0.94693 -0.321439 0
  outer loop
   vertex -0.117462 0.118735 0
   vertex -0.119215 0.1239 0.5
   vertex -0.119215 0.1239 0
  endloop
 endfacet
 facet normal -0.96005 -0.279829 -0
  outer loop
   vertex -0.119215 0.1239 0.5
   vertex -0.120741 0.129135 0.5
   vertex -0.119215 0.1239 0
  endloop
 endfacet
 facet normal -0.96005 -0.279829 0
  outer loop
   vertex -0.119215 0.1239 0
   vertex -0.120741 0.129135 0.5
   vertex -0.120741 0.129135 0
  endloop
 endfacet
 facet normal -0.971342 -0.237686 -0
  outer loop
   vertex -0.120741 0.129135 0.5
   vertex -0.122037 0.134433 0.5
   vertex -0.120741 0.129135 0
  endloop
 endfacet
 facet normal -0.971342 -0.237686 0
  outer loop
   vertex -0.120741 0.129135 0
   vertex -0.122037 0.134433 0.5
   vertex -0.122037 0.134433 0
  endloop
 endfacet
 facet normal -0.980785 -0.19509 -0
  outer loop
   vertex -0.122037 0.134433 0.5
   vertex -0.123101 0.139782 0.5
   vertex -0.122037 0.134433 0
  endloop
 endfacet
 facet normal -0.980785 -0.19509 0
  outer loop
   vertex -0.122037 0.134433 0
   vertex -0.123101 0.139782 0.5
   vertex -0.123101 0.139782 0
  endloop
 endfacet
 facet normal -0.988361 -0.152124 -0
  outer loop
   vertex -0.123101 0.139782 0.5
   vertex -0.123931 0.145172 0.5
   vertex -0.123101 0.139782 0
  endloop
 endfacet
 facet normal -0.988361 -0.152124 0
  outer loop
   vertex -0.123101 0.139782 0
   vertex -0.123931 0.145172 0.5
   vertex -0.123931 0.145172 0
  endloop
 endfacet
 facet normal -0.994056 -0.108867 -0
  outer loop
   vertex -0.123931 0.145172 0.5
   vertex -0.124524 0.150593 0.5
   vertex -0.123931 0.145172 0
  endloop
 endfacet
 facet normal -0.994056 -0.108867 0
  outer loop
   vertex -0.123931 0.145172 0
   vertex -0.124524 0.150593 0.5
   vertex -0.124524 0.150593 0
  endloop
 endfacet
 facet normal -0.997859 -0.0654029 -0
  outer loop
   vertex -0.124524 0.150593 0.5
   vertex -0.124881 0.156035 0.5
   vertex -0.124524 0.150593 0
  endloop
 endfacet
 facet normal -0.997859 -0.0654029 0
  outer loop
   vertex -0.124524 0.150593 0
   vertex -0.124881 0.156035 0.5
   vertex -0.124881 0.156035 0
  endloop
 endfacet
 facet normal -0.999762 -0.0218146 -0
  outer loop
   vertex -0.124881 0.156035 0.5
   vertex -0.125 0.161488 0.5
   vertex -0.124881 0.156035 0
  endloop
 endfacet
 facet normal -0.999762 -0.0218146 0
  outer loop
   vertex -0.124881 0.156035 0
   vertex -0.125 0.161488 0.5
   vertex -0.125 0.161488 0
  endloop
 endfacet
 facet normal -0.999762 0.0218146 0
  outer loop
   vertex -0.125 0.161488 0.5
   vertex -0.124881 0.16694 0.5
   vertex -0.125 0.161488 0
  endloop
 endfacet
 facet normal 0 -0 1
  outer loop
   vertex 0.124524 0.150593 0.5
   vertex 0.124881 0.156035 0.5
   vertex 0 0.161488 0.5
  endloop
 endfacet
 facet normal 0 -0 1
  outer loop
   vertex 0.124881 0.156035 0.5
   vertex 0.125 0.161488 0.5
   vertex 0 0.161488 0.5
  endloop
 endfacet
 facet normal 0 0 1
  outer loop
   vertex 0 0.161488 0.5
   vertex 0.125 0.161488 0.5
   vertex 0.124881 0.16694 0.5
  endloop
 endfacet
 facet normal 0 -0 1
  outer loop
   vertex 0.122037 0.134433 0.5
   vertex 0.123101 0.139782 0.5
   vertex 0 0.161488 0.5
  endloop
 endfacet
 facet normal 0 -0 1
  outer loop
   vertex 0.123101 0.139782 0.5
   vertex 0.123931 0.145172 0.5
   vertex 0 0.161488 0.5
  endloop
 endfacet
 facet normal 0 0 1
  outer loop
   vertex 0 0.161488 0.5
   vertex 0.123931 0.145172 0.5
   vertex 0.124524 0.150593 0.5
  endloop
 endfacet
 facet normal 0 -0 1
  outer loop
   vertex 0.117462 0.118735 0.5
   vertex 0.119215 0.1239 0.5
   vertex 0 0.161488 0.5
  endloop
 endfacet
 facet normal 0 -0 1
  outer loop
   vertex 0.119215 0.1239 0.5
   vertex 0.120741 0.129135 0.5
   vertex 0 0.161488 0.5
  endloop
 endfacet
 facet normal 0 0 1
  outer loop
   vertex 0 0.161488 0.5
   vertex 0.120741 0.129135 0.5
   vertex 0.122037 0.134433 0.5
  endloop
 endfacet
 facet normal 0 -0 1
  outer loop
   vertex 0.110876 0.103769 0.5
   vertex 0.113288 0.10866 0.5
   vertex 0 0.161488 0.5
  endloop
 endfacet
 facet normal 0 -0 1
  outer loop
   vertex 0.113288 0.10866 0.5
   vertex 0.115485 0.113652 0.5
   vertex 0 0.161488 0.5
  endloop
 endfacet
 facet normal 0 0 1
  outer loop
   vertex 0 0.161488 0.5
   vertex 0.115485 0.113652 0.5
   vertex 0.117462 0.118735 0.5
  endloop
 endfacet
 facet normal 0 -0 1
  outer loop
   vertex 0.102394 0.0897907 0.5
   vertex 0.105424 0.0943253 0.5
   vertex 0 0.161488 0.5
  endloop
 endfacet
 facet normal 0 -0 1
  outer loop
   vertex 0.105424 0.0943253 0.5
   vertex 0.108253 0.0989878 0.5
   vertex 0 0.161488 0.5
  endloop
 endfacet
 facet normal 0 0 1
  outer loop
   vertex 0 0.161488 0.5
   vertex 0.108253 0.0989878 0.5
   vertex 0.110876 0.103769 0.5
  endloop
 endfacet
 facet normal 0 -0 1
  outer loop
   vertex 0.0921597 0.077039 0.5
   vertex 0.0957556 0.0811393 0.5
   vertex 0 0.161488 0.5
  endloop
 endfacet
 facet normal 0 -0 1
  outer loop
   vertex 0.0957556 0.0811393 0.5
   vertex 0.0991692 0.0853926 0.5
   vertex 0 0.161488 0.5
  endloop
 endfacet
 facet normal 0 0 1
  outer loop
   vertex 0 0.161488 0.5
   vertex 0.0991692 0.0853926 0.5
   vertex 0.102394 0.0897907 0.5
  endloop
 endfacet
 facet normal 0 -0 1
  outer loop
   vertex 0.0803485 0.0657322 0.5
   vertex 0.0844488 0.0693281 0.5
   vertex 0 0.161488 0.5
  endloop
 endfacet
 facet normal 0 -0 1
  outer loop
   vertex 0.0844488 0.0693281 0.5
   vertex 0.0883883 0.0730994 0.5
   vertex 0 0.161488 0.5
  endloop
 endfacet
 facet normal 0 0 1
  outer loop
   vertex 0 0.161488 0.5
   vertex 0.0883883 0.0730994 0.5
   vertex 0.0921597 0.077039 0.5
  endloop
 endfacet
 facet normal 0 -0 1
  outer loop
   vertex 0.0671625 0.0560638 0.5
   vertex 0.0716971 0.0590938 0.5
   vertex 0 0.161488 0.5
  endloop
 endfacet
 facet normal 0 -0 1
  outer loop
   vertex 0.0716971 0.0590938 0.5
   vertex 0.0760952 0.0623186 0.5
   vertex 0 0.161488 0.5
  endloop
 endfacet
 facet normal 0 0 1
  outer loop
   vertex 0 0.161488 0.5
   vertex 0.0760952 0.0623186 0.5
   vertex 0.0803485 0.0657322 0.5
  endloop
 endfacet
 facet normal 0 -0 1
  outer loop
   vertex 0.0528273 0.0481993 0.5
   vertex 0.0577186 0.0506114 0.5
   vertex 0 0.161488 0.5
  endloop
 endfacet
 facet normal 0 -0 1
  outer loop
   vertex 0.0577186 0.0506114 0.5
   vertex 0.0625 0.0532346 0.5
   vertex 0 0.161488 0.5
  endloop
 endfacet
 facet normal 0 0 1
  outer loop
   vertex 0 0.161488 0.5
   vertex 0.0625 0.0532346 0.5
   vertex 0.0671625 0.0560638 0.5
  endloop
 endfacet
 facet normal 0 -0 1
  outer loop
   vertex 0.0375882 0.0422732 0.5
   vertex 0.0427525 0.0440262 0.5
   vertex 0 0.161488 0.5
  endloop
 endfacet
 facet normal 0 -0 1
  outer loop
   vertex 0.0427525 0.0440262 0.5
   vertex 0.0478354 0.0460028 0.5
   vertex 0 0.161488 0.5
  endloop
 endfacet
 facet normal 0 0 1
  outer loop
   vertex 0 0.161488 0.5
   vertex 0.0478354 0.0460028 0.5
   vertex 0.0528273 0.0481993 0.5
  endloop
 endfacet
 facet normal 0 -0 1
  outer loop
   vertex 0.021706 0.0383868 0.5
   vertex 0.027055 0.0394508 0.5
   vertex 0 0.161488 0.5
  endloop
 endfacet
 facet normal 0 -0 1
  outer loop
   vertex 0.027055 0.0394508 0.5
   vertex 0.0323524 0.040747 0.5
   vertex 0 0.161488 0.5
  endloop
 endfacet
 facet normal 0 0 1
  outer loop
   vertex 0 0.161488 0.5
   vertex 0.0323524 0.040747 0.5
   vertex 0.0375882 0.0422732 0.5
  endloop
 endfacet
 facet normal 0 -0 1
  outer loop
   vertex 0.00545242 0.0366067 0.5
   vertex 0.0108945 0.0369634 0.5
   vertex 0 0.161488 0.5
  endloop
 endfacet
 facet normal 0 -0 1
  outer loop
   vertex 0.0108945 0.0369634 0.5
   vertex 0.0163158 0.0375572 0.5
   vertex 0 0.161488 0.5
  endloop
 endfacet
 facet normal 0 0 1
  outer loop
   vertex 0 0.161488 0.5
   vertex 0.0163158 0.0375572 0.5
   vertex 0.021706 0.0383868 0.5
  endloop
 endfacet
 facet normal -0 0 1
  outer loop
   vertex -0.0108945 0.0369634 0.5
   vertex -0.00545242 0.0366067 0.5
   vertex 0 0.161488 0.5
  endloop
 endfacet
 facet normal -0 0 1
  outer loop
   vertex -0.00545242 0.0366067 0.5
   vertex 2.29621e-17 0.0364878 0.5
   vertex 0 0.161488 0.5
  endloop
 endfacet
 facet normal 0 0 1
  outer loop
   vertex 0 0.161488 0.5
   vertex 2.29621e-17 0.0364878 0.5
   vertex 0.00545242 0.0366067 0.5
  endloop
 endfacet
 facet normal -0 0 1
  outer loop
   vertex -0.027055 0.0394508 0.5
   vertex -0.021706 0.0383868 0.5
   vertex 0 0.161488 0.5
  endloop
 endfacet
 facet normal -0 0 1
  outer loop
   vertex -0.021706 0.0383868 0.5
   vertex -0.0163158 0.0375572 0.5
   vertex 0 0.161488 0.5
  endloop
 endfacet
 facet normal 0 0 1
  outer loop
   vertex 0 0.161488 0.5
   vertex -0.0163158 0.0375572 0.5
   vertex -0.0108945 0.0369634 0.5
  endloop
 endfacet
 facet normal -0 0 1
  outer loop
   vertex -0.0427525 0.0440262 0.5
   vertex -0.0375882 0.0422732 0.5
   vertex 0 0.161488 0.5
  endloop
 endfacet
 facet normal -0 0 1
  outer loop
   vertex -0.0375882 0.0422732 0.5
   vertex -0.0323524 0.040747 0.5
   vertex 0 0.161488 0.5
  endloop
 endfacet
 facet normal 0 0 1
  outer loop
   vertex 0 0.161488 0.5
   vertex -0.0323524 0.040747 0.5
   vertex -0.027055 0.0394508 0.5
  endloop
 endfacet
 facet normal -0 0 1
  outer loop
   vertex -0.0577186 0.0506114 0.5
   vertex -0.0528273 0.0481993 0.5
   vertex 0 0.161488 0.5
  endloop
 endfacet
 facet normal -0 0 1
  outer loop
   vertex -0.0528273 0.0481993 0.5
   vertex -0.0478354 0.0460028 0.5
   vertex 0 0.161488 0.5
  endloop
 endfacet
 facet normal 0 0 1
  outer loop
   vertex 0 0.161488 0.5
   vertex -0.0478354 0.0460028 0.5
   vertex -0.0427525 0.0440262 0.5
  endloop
 endfacet
 facet normal -0 0 1
  outer loop
   vertex -0.0716971 0.0590938 0.5
   vertex -0.0671625 0.0560638 0.5
   vertex 0 0.161488 0.5
  endloop
 endfacet
 facet normal -0 0 1
  outer loop
   vertex -0.0671625 0.0560638 0.5
   vertex -0.0625 0.0532346 0.5
   vertex 0 0.161488 0.5
  endloop
 endfacet
 facet normal 0 0 1
  outer loop
   vertex 0 0.161488 0.5
   vertex -0.0625 0.0532346 0.5
   vertex -0.0577186 0.0506114 0.5
  endloop
 endfacet
 facet normal -0 0 1
  outer loop
   vertex -0.0844488 0.0693281 0.5
   vertex -0.0803485 0.0657322 0.5
   vertex 0 0.161488 0.5
  endloop
 endfacet
 facet normal -0 0 1
  outer loop
   vertex -0.0803485 0.0657322 0.5
   vertex -0.0760952 0.0623186 0.5
   vertex 0 0.161488 0.5
  endloop
 endfacet
 facet normal 0 0 1
  outer loop
   vertex 0 0.161488 0.5
   vertex -0.0760952 0.0623186 0.5
   vertex -0.0716971 0.0590938 0.5
  endloop
 endfacet
 facet normal -0 0 1
  outer loop
   vertex -0.0957556 0.0811393 0.5
   vertex -0.0921597 0.077039 0.5
   vertex 0 0.161488 0.5
  endloop
 endfacet
 facet normal -0 0 1
  outer loop
   vertex -0.0921597 0.077039 0.5
   vertex -0.0883883 0.0730994 0.5
   vertex 0 0.161488 0.5
  endloop
 endfacet
 facet normal 0 0 1
  outer loop
   vertex 0 0.161488 0.5
   vertex -0.0883883 0.0730994 0.5
   vertex -0.0844488 0.0693281 0.5
  endloop
 endfacet
 facet normal -0 0 1
  outer loop
   vertex -0.105424 0.0943253 0.5
   vertex -0.102394 0.0897907 0.5
   vertex 0 0.161488 0.5
  endloop
 endfacet
 facet normal -0 0 1
  outer loop
   vertex -0.102394 0.0897907 0.5
   vertex -0.0991692 0.0853926 0.5
   vertex 0 0.161488 0.5
  endloop
 endfacet
 facet normal 0 0 1
  outer loop
   vertex 0 0.161488 0.5
   vertex -0.0991692 0.0853926 0.5
   vertex -0.0957556 0.0811393 0.5
  endloop
 endfacet
 facet normal -0 0 1
  outer loop
   vertex -0.113288 0.10866 0.5
   vertex -0.110876 0.103769 0.5
   vertex 0 0.161488 0.5
  endloop
 endfacet
 facet normal -0 0 1
  outer loop
   vertex -0.110876 0.103769 0.5
   vertex -0.108253 0.0989878 0.5
   vertex 0 0.161488 0.5
  endloop
 endfacet
 facet normal 0 0 1
  outer loop
   vertex 0 0.161488 0.5
   vertex -0.108253 0.0989878 0.5
   vertex -0.105424 0.0943253 0.5
  endloop
 endfacet
 facet normal -0 0 1
  outer loop
   vertex -0.119215 0.1239 0.5
   vertex -0.117462 0.118735 0.5
   vertex 0 0.161488 0.5
  endloop
 endfacet
 facet normal -0 0 1
  outer loop
   vertex -0.117462 0.118735 0.5
   vertex -0.115485 0.113652 0.5
   vertex 0 0.161488 0.5
  endloop
 endfacet
 facet normal 0 0 1
  outer loop
   vertex 0 0.161488 0.5
   vertex -0.115485 0.113652 0.5
   vertex -0.113288 0.10866 0.5
  endloop
 endfacet
 facet normal -0 0 1
  outer loop
   vertex -0.123101 0.139782 0.5
   vertex -0.122037 0.134433 0.5
   vertex 0 0.161488 0.5
  endloop
 endfacet
 facet normal -0 0 1
  outer loop
   vertex -0.122037 0.134433 0.5
   vertex -0.120741 0.129135 0.5
   vertex 0 0.161488 0.5
  endloop
 endfacet
 facet normal 0 0 1
  outer loop
   vertex 0 0.161488 0.5
   vertex -0.120741 0.129135 0.5
   vertex -0.119215 0.1239 0.5
  endloop
 endfacet
 facet normal -0 0 1
  outer loop
   vertex -0.124881 0.156035 0.5
   vertex -0.124524 0.150593 0.5
   vertex 0 0.161488 0.5
  endloop
 endfacet
 facet normal -0 0 1
  outer loop
   vertex -0.124524 0.150593 0.5
   vertex -0.123931 0.145172 0.5
   vertex 0 0.161488 0.5
  endloop
 endfacet
 facet normal 0 0 1
  outer loop
   vertex 0 0.161488 0.5
   vertex -0.123931 0.145172 0.5
   vertex -0.123101 0.139782 0.5
  endloop
 endfacet
 facet normal 0 0 1
  outer loop
   vertex -0.124524 0.172382 0.5
   vertex -0.124881 0.16694 0.5
   vertex 0 0.161488 0.5
  endloop
 endfacet
 facet normal 0 0 1
  outer loop
   vertex -0.124881 0.16694 0.5
   vertex -0.125 0.161488 0.5
   vertex 0 0.161488 0.5
  endloop
 endfacet
 facet normal 0 0 1
  outer loop
   vertex 0 0.161488 0.5
   vertex -0.125 0.161488 0.5
   vertex -0.124881 0.156035 0.5
  endloop
 endfacet
 facet normal 0 0 1
  outer loop
   vertex -0.122037 0.188543 0.5
   vertex -0.123101 0.183194 0.5
   vertex 0 0.161488 0.5
  endloop
 endfacet
 facet normal 0 0 1
  outer loop
   vertex -0.123101 0.183194 0.5
   vertex -0.123931 0.177804 0.5
   vertex 0 0.161488 0.5
  endloop
 endfacet
 facet normal 0 0 1
  outer loop
   vertex 0 0.161488 0.5
   vertex -0.123931 0.177804 0.5
   vertex -0.124524 0.172382 0.5
  endloop
 endfacet
 facet normal 0 0 1
  outer loop
   vertex -0.117462 0.20424 0.5
   vertex -0.119215 0.199076 0.5
   vertex 0 0.161488 0.5
  endloop
 endfacet
 facet normal 0 0 1
  outer loop
   vertex -0.119215 0.199076 0.5
   vertex -0.120741 0.19384 0.5
   vertex 0 0.161488 0.5
  endloop
 endfacet
 facet normal 0 0 1
  outer loop
   vertex 0 0.161488 0.5
   vertex -0.120741 0.19384 0.5
   vertex -0.122037 0.188543 0.5
  endloop
 endfacet
 facet normal 0 0 1
  outer loop
   vertex -0.110876 0.219206 0.5
   vertex -0.113288 0.214315 0.5
   vertex 0 0.161488 0.5
  endloop
 endfacet
 facet normal 0 0 1
  outer loop
   vertex -0.113288 0.214315 0.5
   vertex -0.115485 0.209323 0.5
   vertex 0 0.161488 0.5
  endloop
 endfacet
 facet normal 0 0 1
  outer loop
   vertex 0 0.161488 0.5
   vertex -0.115485 0.209323 0.5
   vertex -0.117462 0.20424 0.5
  endloop
 endfacet
 facet normal 0 0 1
  outer loop
   vertex -0.102394 0.233185 0.5
   vertex -0.105424 0.22865 0.5
   vertex 0 0.161488 0.5
  endloop
 endfacet
 facet normal 0 0 1
  outer loop
   vertex -0.105424 0.22865 0.5
   vertex -0.108253 0.223988 0.5
   vertex 0 0.161488 0.5
  endloop
 endfacet
 facet normal 0 0 1
  outer loop
   vertex 0 0.161488 0.5
   vertex -0.108253 0.223988 0.5
   vertex -0.110876 0.219206 0.5
  endloop
 endfacet
 facet normal 0 0 1
  outer loop
   vertex -0.0921597 0.245937 0.5
   vertex -0.0957556 0.241836 0.5
   vertex 0 0.161488 0.5
  endloop
 endfacet
 facet normal 0 0 1
  outer loop
   vertex -0.0957556 0.241836 0.5
   vertex -0.0991692 0.237583 0.5
   vertex 0 0.161488 0.5
  endloop
 endfacet
 facet normal 0 0 1
  outer loop
   vertex 0 0.161488 0.5
   vertex -0.0991692 0.237583 0.5
   vertex -0.102394 0.233185 0.5
  endloop
 endfacet
 facet normal 0 0 1
  outer loop
   vertex -0.0803485 0.257243 0.5
   vertex -0.0844488 0.253647 0.5
   vertex 0 0.161488 0.5
  endloop
 endfacet
 facet normal 0 0 1
  outer loop
   vertex -0.0844488 0.253647 0.5
   vertex -0.0883883 0.249876 0.5
   vertex 0 0.161488 0.5
  endloop
 endfacet
 facet normal 0 0 1
  outer loop
   vertex 0 0.161488 0.5
   vertex -0.0883883 0.249876 0.5
   vertex -0.0921597 0.245937 0.5
  endloop
 endfacet
 facet normal 0 0 1
  outer loop
   vertex -0.0671625 0.266912 0.5
   vertex -0.0716971 0.263882 0.5
   vertex 0 0.161488 0.5
  endloop
 endfacet
 facet normal 0 0 1
  outer loop
   vertex -0.0716971 0.263882 0.5
   vertex -0.0760952 0.260657 0.5
   vertex 0 0.161488 0.5
  endloop
 endfacet
 facet normal 0 0 1
  outer loop
   vertex 0 0.161488 0.5
   vertex -0.0760952 0.260657 0.5
   vertex -0.0803485 0.257243 0.5
  endloop
 endfacet
 facet normal 0 0 1
  outer loop
   vertex -0.0528273 0.274776 0.5
   vertex -0.0577186 0.272364 0.5
   vertex 0 0.161488 0.5
  endloop
 endfacet
 facet normal 0 0 1
  outer loop
   vertex -0.0577186 0.272364 0.5
   vertex -0.0625 0.269741 0.5
   vertex 0 0.161488 0.5
  endloop
 endfacet
 facet normal 0 0 1
  outer loop
   vertex 0 0.161488 0.5
   vertex -0.0625 0.269741 0.5
   vertex -0.0671625 0.266912 0.5
  endloop
 endfacet
 facet normal 0 0 1
  outer loop
   vertex -0.0375882 0.280702 0.5
   vertex -0.0427525 0.278949 0.5
   vertex 0 0.161488 0.5
  endloop
 endfacet
 facet normal 0 0 1
  outer loop
   vertex -0.0427525 0.278949 0.5
   vertex -0.0478354 0.276973 0.5
   vertex 0 0.161488 0.5
  endloop
 endfacet
 facet normal 0 0 1
  outer loop
   vertex 0 0.161488 0.5
   vertex -0.0478354 0.276973 0.5
   vertex -0.0528273 0.274776 0.5
  endloop
 endfacet
 facet normal 0 0 1
  outer loop
   vertex -0.021706 0.284589 0.5
   vertex -0.027055 0.283525 0.5
   vertex 0 0.161488 0.5
  endloop
 endfacet
 facet normal 0 0 1
  outer loop
   vertex -0.027055 0.283525 0.5
   vertex -0.0323524 0.282228 0.5
   vertex 0 0.161488 0.5
  endloop
 endfacet
 facet normal 0 0 1
  outer loop
   vertex 0 0.161488 0.5
   vertex -0.0323524 0.282228 0.5
   vertex -0.0375882 0.280702 0.5
  endloop
 endfacet
 facet normal 0 0 1
  outer loop
   vertex -0.00545242 0.286369 0.5
   vertex -0.0108945 0.286012 0.5
   vertex 0 0.161488 0.5
  endloop
 endfacet
 facet normal 0 0 1
  outer loop
   vertex -0.0108945 0.286012 0.5
   vertex -0.0163158 0.285418 0.5
   vertex 0 0.161488 0.5
  endloop
 endfacet
 facet normal 0 0 1
  outer loop
   vertex 0 0.161488 0.5
   vertex -0.0163158 0.285418 0.5
   vertex -0.021706 0.284589 0.5
  endloop
 endfacet
 facet normal 0 0 1
  outer loop
   vertex 0.0108945 0.286012 0.5
   vertex 0.00545242 0.286369 0.5
   vertex 0 0.161488 0.5
  endloop
 endfacet
 facet normal 0 0 1
  outer loop
   vertex 0.00545242 0.286369 0.5
   vertex -7.65404e-18 0.286488 0.5
   vertex 0 0.161488 0.5
  endloop
 endfacet
 facet normal 0 0 1
  outer loop
   vertex 0 0.161488 0.5
   vertex -7.65404e-18 0.286488 0.5
   vertex -0.00545242 0.286369 0.5
  endloop
 endfacet
 facet normal 0 0 1
  outer loop
   vertex 0.027055 0.283525 0.5
   vertex 0.021706 0.284589 0.5
   vertex 0 0.161488 0.5
  endloop
 endfacet
 facet normal 0 0 1
  outer loop
   vertex 0.021706 0.284589 0.5
   vertex 0.0163158 0.285418 0.5
   vertex 0 0.161488 0.5
  endloop
 endfacet
 facet normal 0 0 1
  outer loop
   vertex 0 0.161488 0.5
   vertex 0.0163158 0.285418 0.5
   vertex 0.0108945 0.286012 0.5
  endloop
 endfacet
 facet normal 0 0 1
  outer loop
   vertex 0.0427525 0.278949 0.5
   vertex 0.0375882 0.280702 0.5
   vertex 0 0.161488 0.5
  endloop
 endfacet
 facet normal 0 0 1
  outer loop
   vertex 0.0375882 0.280702 0.5
   vertex 0.0323524 0.282228 0.5
   vertex 0 0.161488 0.5
  endloop
 endfacet
 facet normal 0 0 1
  outer loop
   vertex 0 0.161488 0.5
   vertex 0.0323524 0.282228 0.5
   vertex 0.027055 0.283525 0.5
  endloop
 endfacet
 facet normal 0 0 1
  outer loop
   vertex 0.0577186 0.272364 0.5
   vertex 0.0528273 0.274776 0.5
   vertex 0 0.161488 0.5
  endloop
 endfacet
 facet normal 0 0 1
  outer loop
   vertex 0.0528273 0.274776 0.5
   vertex 0.0478354 0.276973 0.5
   vertex 0 0.161488 0.5
  endloop
 endfacet
 facet normal 0 0 1
  outer loop
   vertex 0 0.161488 0.5
   vertex 0.0478354 0.276973 0.5
   vertex 0.0427525 0.278949 0.5
  endloop
 endfacet
 facet normal 0 0 1
  outer loop
   vertex 0.0716971 0.263882 0.5
   vertex 0.0671625 0.266912 0.5
   vertex 0 0.161488 0.5
  endloop
 endfacet
 facet normal 0 0 1
  outer loop
   vertex 0.0671625 0.266912 0.5
   vertex 0.0625 0.269741 0.5
   vertex 0 0.161488 0.5
  endloop
 endfacet
 facet normal 0 0 1
  outer loop
   vertex 0 0.161488 0.5
   vertex 0.0625 0.269741 0.5
   vertex 0.0577186 0.272364 0.5
  endloop
 endfacet
 facet normal 0 0 1
  outer loop
   vertex 0.0844488 0.253647 0.5
   vertex 0.0803485 0.257243 0.5
   vertex 0 0.161488 0.5
  endloop
 endfacet
 facet normal 0 0 1
  outer loop
   vertex 0.0803485 0.257243 0.5
   vertex 0.0760952 0.260657 0.5
   vertex 0 0.161488 0.5
  endloop
 endfacet
 facet normal 0 0 1
  outer loop
   vertex 0 0.161488 0.5
   vertex 0.0760952 0.260657 0.5
   vertex 0.0716971 0.263882 0.5
  endloop
 endfacet
 facet normal 0 0 1
  outer loop
   vertex 0.0957556 0.241836 0.5
   vertex 0.0921597 0.245937 0.5
   vertex 0 0.161488 0.5
  endloop
 endfacet
 facet normal 0 0 1
  outer loop
   vertex 0.0921597 0.245937 0.5
   vertex 0.0883883 0.249876 0.5
   vertex 0 0.161488 0.5
  endloop
 endfacet
 facet normal 0 0 1
  outer loop
   vertex 0 0.161488 0.5
   vertex 0.0883883 0.249876 0.5
   vertex 0.0844488 0.253647 0.5
  endloop
 endfacet
 facet normal 0 0 1
  outer loop
   vertex 0.105424 0.22865 0.5
   vertex 0.102394 0.233185 0.5
   vertex 0 0.161488 0.5
  endloop
 endfacet
 facet normal 0 0 1
  outer loop
   vertex 0.102394 0.233185 0.5
   vertex 0.0991692 0.237583 0.5
   vertex 0 0.161488 0.5
  endloop
 endfacet
 facet normal 0 0 1
  outer loop
   vertex 0 0.161488 0.5
   vertex 0.0991692 0.237583 0.5
   vertex 0.0957556 0.241836 0.5
  endloop
 endfacet
 facet normal 0 0 1
  outer loop
   vertex 0.113288 0.214315 0.5
   vertex 0.110876 0.219206 0.5
   vertex 0 0.161488 0.5
  endloop
 endfacet
 facet normal 0 0 1
  outer loop
   vertex 0.110876 0.219206 0.5
   vertex 0.108253 0.223988 0.5
   vertex 0 0.161488 0.5
  endloop
 endfacet
 facet normal 0 0 1
  outer loop
   vertex 0 0.161488 0.5
   vertex 0.108253 0.223988 0.5
   vertex 0.105424 0.22865 0.5
  endloop
 endfacet
 facet normal 0 0 1
  outer loop
   vertex 0.119215 0.199076 0.5
   vertex 0.117462 0.20424 0.5
   vertex 0 0.161488 0.5
  endloop
 endfacet
 facet normal 0 0 1
  outer loop
   vertex 0.117462 0.20424 0.5
   vertex 0.115485 0.209323 0.5
   vertex 0 0.161488 0.5
  endloop
 endfacet
 facet normal 0 0 1
  outer loop
   vertex 0 0.161488 0.5
   vertex 0.115485 0.209323 0.5
   vertex 0.113288 0.214315 0.5
  endloop
 endfacet
 facet normal 0 0 1
  outer loop
   vertex 0.123101 0.183194 0.5
   vertex 0.122037 0.188543 0.5
   vertex 0 0.161488 0.5
  endloop
 endfacet
 facet normal 0 0 1
  outer loop
   vertex 0.122037 0.188543 0.5
   vertex 0.120741 0.19384 0.5
   vertex 0 0.161488 0.5
  endloop
 endfacet
 facet normal 0 0 1
  outer loop
   vertex 0 0.161488 0.5
   vertex 0.120741 0.19384 0.5
   vertex 0.119215 0.199076 0.5
  endloop
 endfacet
 facet normal 0 0 1
  outer loop
   vertex 0.124881 0.16694 0.5
   vertex 0.124524 0.172382 0.5
   vertex 0 0.161488 0.5
  endloop
 endfacet
 facet normal 0 0 1
  outer loop
   vertex 0.124524 0.172382 0.5
   vertex 0.123931 0.177804 0.5
   vertex 0 0.161488 0.5
  endloop
 endfacet
 facet normal 0 0 1
  outer loop
   vertex 0 0.161488 0.5
   vertex 0.123931 0.177804 0.5
   vertex 0.123101 0.183194 0.5
  endloop
 endfacet
endsolid zone0
