solid zone0
 facet normal 0 -0 -1
  outer loop
   vertex 0.124524 0.163471 0
   vertex 0.124881 0.158029 0
   vertex 0 0.152576 0
  endloop
 endfacet
 facet normal 0 -0 -1
  outer loop
   vertex 0.124881 0.158029 0
   vertex 0.125 0.152576 0
   vertex 0 0.152576 0
  endloop
 endfacet
 facet normal 0 0 -1
  outer loop
   vertex 0 0.152576 0
   vertex 0.125 0.152576 0
   vertex 0.124881 0.147124 0
  endloop
 endfacet
 facet normal 0 -0 -1
  outer loop
   vertex 0.122037 0.179631 0
   vertex 0.123101 0.174282 0
   vertex 0 0.152576 0
  endloop
 endfacet
 facet normal 0 -0 -1
  outer loop
   vertex 0.123101 0.174282 0
   vertex 0.123931 0.168892 0
   vertex 0 0.152576 0
  endloop
 endfacet
 facet normal 0 0 -1
  outer loop
   vertex 0 0.152576 0
   vertex 0.123931 0.168892 0
   vertex 0.124524 0.163471 0
  endloop
 endfacet
 facet normal 0 -0 -1
  outer loop
   vertex 0.117462 0.195329 0
   vertex 0.119215 0.190165 0
   vertex 0 0.152576 0
  endloop
 endfacet
 facet normal 0 -0 -1
  outer loop
   vertex 0.119215 0.190165 0
   vertex 0.120741 0.184929 0
   vertex 0 0.152576 0
  endloop
 endfacet
 facet normal 0 0 -1
  outer loop
   vertex 0 0.152576 0
   vertex 0.120741 0.184929 0
   vertex 0.122037 0.179631 0
  endloop
 endfacet
 facet normal 0 -0 -1
  outer loop
   vertex 0.110876 0.210295 0
   vertex 0.113288 0.205404 0
   vertex 0 0.152576 0
  endloop
 endfacet
 facet normal 0 -0 -1
  outer loop
   vertex 0.113288 0.205404 0
   vertex 0.115485 0.200412 0
   vertex 0 0.152576 0
  endloop
 endfacet
 facet normal 0 0 -1
  outer loop
   vertex 0 0.152576 0
   vertex 0.115485 0.200412 0
   vertex 0.117462 0.195329 0
  endloop
 endfacet
 facet normal 0 -0 -1
  outer loop
   vertex 0.102394 0.224274 0
   vertex 0.105424 0.219739 0
   vertex 0 0.152576 0
  endloop
 endfacet
 facet normal 0 -0 -1
  outer loop
   vertex 0.105424 0.219739 0
   vertex 0.108253 0.215076 0
   vertex 0 0.152576 0
  endloop
 endfacet
 facet normal 0 0 -1
  outer loop
   vertex 0 0.152576 0
   vertex 0.108253 0.215076 0
   vertex 0.110876 0.210295 0
  endloop
 endfacet
 facet normal 0 -0 -1
  outer loop
   vertex 0.0921597 0.237025 0
   vertex 0.0957556 0.232925 0
   vertex 0 0.152576 0
  endloop
 endfacet
 facet normal 0 -0 -1
  outer loop
   vertex 0.0957556 0.232925 0
   vertex 0.0991692 0.228672 0
   vertex 0 0.152576 0
  endloop
 endfacet
 facet normal 0 0 -1
  outer loop
   vertex 0 0.152576 0
   vertex 0.0991692 0.228672 0
   vertex 0.102394 0.224274 0
  endloop
 endfacet
 facet normal 0 -0 -1
  outer loop
   vertex 0.0803485 0.248332 0
   vertex 0.0844488 0.244736 0
   vertex 0 0.152576 0
  endloop
 endfacet
 facet normal 0 -0 -1
  outer loop
   vertex 0.0844488 0.244736 0
   vertex 0.0883883 0.240965 0
   vertex 0 0.152576 0
  endloop
 endfacet
 facet normal 0 0 -1
  outer loop
   vertex 0 0.152576 0
   vertex 0.0883883 0.240965 0
   vertex 0.0921597 0.237025 0
  endloop
 endfacet
 facet normal 0 -0 -1
  outer loop
   vertex 0.0671625 0.258 0
   vertex 0.0716971 0.25497 0
   vertex 0 0.152576 0
  endloop
 endfacet
 facet normal 0 -0 -1
  outer loop
   vertex 0.0716971 0.25497 0
   vertex 0.0760952 0.251746 0
   vertex 0 0.152576 0
  endloop
 endfacet
 facet normal 0 0 -1
  outer loop
   vertex 0 0.152576 0
   vertex 0.0760952 0.251746 0
   vertex 0.0803485 0.248332 0
  endloop
 endfacet
 facet normal 0 -0 -1
  outer loop
   vertex 0.0528273 0.265865 0
   vertex 0.0577186 0.263453 0
   vertex 0 0.152576 0
  endloop
 endfacet
 facet normal 0 -0 -1
  outer loop
   vertex 0.0577186 0.263453 0
   vertex 0.0625 0.26083 0
   vertex 0 0.152576 0
  endloop
 endfacet
 facet normal 0 0 -1
  outer loop
   vertex 0 0.152576 0
   vertex 0.0625 0.26083 0
   vertex 0.0671625 0.258 0
  endloop
 endfacet
 facet normal 0 -0 -1
  outer loop
   vertex 0.0375882 0.271791 0
   vertex 0.0427525 0.270038 0
   vertex 0 0.152576 0
  endloop
 endfacet
 facet normal 0 -0 -1
  outer loop
   vertex 0.0427525 0.270038 0
   vertex 0.0478354 0.268061 0
   vertex 0 0.152576 0
  endloop
 endfacet
 facet normal 0 0 -1
  outer loop
   vertex 0 0.152576 0
   vertex 0.0478354 0.268061 0
   vertex 0.0528273 0.265865 0
  endloop
 endfacet
 facet normal 0 -0 -1
  outer loop
   vertex 0.021706 0.275677 0
   vertex 0.027055 0.274613 0
   vertex 0 0.152576 0
  endloop
 endfacet
 facet normal 0 -0 -1
  outer loop
   vertex 0.027055 0.274613 0
   vertex 0.0323524 0.273317 0
   vertex 0 0.152576 0
  endloop
 endfacet
 facet normal 0 0 -1
  outer loop
   vertex 0 0.152576 0
   vertex 0.0323524 0.273317 0
   vertex 0.0375882 0.271791 0
  endloop
 endfacet
 facet normal 0 -0 -1
  outer loop
   vertex 0.00545242 0.277457 0
   vertex 0.0108945 0.277101 0
   vertex 0 0.152576 0
  endloop
 endfacet
 facet normal 0 -0 -1
  outer loop
   vertex 0.0108945 0.277101 0
   vertex 0.0163158 0.276507 0
   vertex 0 0.152576 0
  endloop
 endfacet
 facet normal 0 0 -1
  outer loop
   vertex 0 0.152576 0
   vertex 0.0163158 0.276507 0
   vertex 0.021706 0.275677 0
  endloop
 endfacet
 facet normal 0 0 -1
  outer loop
   vertex -0.0108945 0.277101 0
   vertex -0.00545242 0.277457 0
   vertex 0 0.152576 0
  endloop
 endfacet
 facet normal 0 0 -1
  outer loop
   vertex -0.00545242 0.277457 0
   vertex -7.65404e-18 0.277576 0
   vertex 0 0.152576 0
  endloop
 endfacet
 facet normal 0 0 -1
  outer loop
   vertex 0 0.152576 0
   vertex -7.65404e-18 0.277576 0
   vertex 0.00545242 0.277457 0
  endloop
 endfacet
 facet normal 0 0 -1
  outer loop
   vertex -0.027055 0.274613 0
   vertex -0.021706 0.275677 0
   vertex 0 0.152576 0
  endloop
 endfacet
 facet normal 0 0 -1
  outer loop
   vertex -0.021706 0.275677 0
   vertex -0.0163158 0.276507 0
   vertex 0 0.152576 0
  endloop
 endfacet
 facet normal 0 0 -1
  outer loop
   vertex 0 0.152576 0
   vertex -0.0163158 0.276507 0
   vertex -0.0108945 0.277101 0
  endloop
 endfacet
 facet normal 0 0 -1
  outer loop
   vertex -0.0427525 0.270038 0
   vertex -0.0375882 0.271791 0
   vertex 0 0.152576 0
  endloop
 endfacet
 facet normal 0 0 -1
  outer loop
   vertex -0.0375882 0.271791 0
   vertex -0.0323524 0.273317 0
   vertex 0 0.152576 0
  endloop
 endfacet
 facet normal 0 0 -1
  outer loop
   vertex 0 0.152576 0
   vertex -0.0323524 0.273317 0
   vertex -0.027055 0.274613 0
  endloop
 endfacet
 facet normal 0 0 -1
  outer loop
   vertex -0.0577186 0.263453 0
   vertex -0.0528273 0.265865 0
   vertex 0 0.152576 0
  endloop
 endfacet
 facet normal 0 0 -1
  outer loop
   vertex -0.0528273 0.265865 0
   vertex -0.0478354 0.268061 0
   vertex 0 0.152576 0
  endloop
 endfacet
 facet normal 0 0 -1
  outer loop
   vertex 0 0.152576 0
   vertex -0.0478354 0.268061 0
   vertex -0.0427525 0.270038 0
  endloop
 endfacet
 facet normal 0 0 -1
  outer loop
   vertex -0.0716971 0.25497 0
   vertex -0.0671625 0.258 0
   vertex 0 0.152576 0
  endloop
 endfacet
 facet normal 0 0 -1
  outer loop
   vertex -0.0671625 0.258 0
   vertex -0.0625 0.26083 0
   vertex 0 0.152576 0
  endloop
 endfacet
 facet normal 0 0 -1
  outer loop
   vertex 0 0.152576 0
   vertex -0.0625 0.26083 0
   vertex -0.0577186 0.263453 0
  endloop
 endfacet
 facet normal 0 0 -1
  outer loop
   vertex -0.0844488 0.244736 0
   vertex -0.0803485 0.248332 0
   vertex 0 0.152576 0
  endloop
 endfacet
 facet normal 0 0 -1
  outer loop
   vertex -0.0803485 0.248332 0
   vertex -0.0760952 0.251746 0
   vertex 0 0.152576 0
  endloop
 endfacet
 facet normal 0 0 -1
  outer loop
   vertex 0 0.152576 0
   vertex -0.0760952 0.251746 0
   vertex -0.0716971 0.25497 0
  endloop
 endfacet
 facet normal 0 0 -1
  outer loop
   vertex -0.0957556 0.232925 0
   vertex -0.0921597 0.237025 0
   vertex 0 0.152576 0
  endloop
 endfacet
 facet normal 0 0 -1
  outer loop
   vertex -0.0921597 0.237025 0
   vertex -0.0883883 0.240965 0
   vertex 0 0.152576 0
  endloop
 endfacet
 facet normal 0 0 -1
  outer loop
   vertex 0 0.152576 0
   vertex -0.0883883 0.240965 0
   vertex -0.0844488 0.244736 0
  endloop
 endfacet
 facet normal 0 0 -1
  outer loop
   vertex -0.105424 0.219739 0
   vertex -0.102394 0.224274 0
   vertex 0 0.152576 0
  endloop
 endfacet
 facet normal 0 0 -1
  outer loop
   vertex -0.102394 0.224274 0
   vertex -0.0991692 0.228672 0
   vertex 0 0.152576 0
  endloop
 endfacet
 facet normal 0 0 -1
  outer loop
   vertex 0 0.152576 0
   vertex -0.0991692 0.228672 0
   vertex -0.0957556 0.232925 0
  endloop
 endfacet
 facet normal 0 0 -1
  outer loop
   vertex -0.113288 0.205404 0
   vertex -0.110876 0.210295 0
   vertex 0 0.152576 0
  endloop
 endfacet
 facet normal 0 0 -1
  outer loop
   vertex -0.110876 0.210295 0
   vertex -0.108253 0.215076 0
   vertex 0 0.152576 0
  endloop
 endfacet
 facet normal 0 0 -1
  outer loop
   vertex 0 0.152576 0
   vertex -0.108253 0.215076 0
   vertex -0.105424 0.219739 0
  endloop
 endfacet
 facet normal 0 0 -1
  outer loop
   vertex -0.119215 0.190165 0
   vertex -0.117462 0.195329 0
   vertex 0 0.152576 0
  endloop
 endfacet
 facet normal 0 0 -1
  outer loop
   vertex -0.117462 0.195329 0
   vertex -0.115485 0.200412 0
   vertex 0 0.152576 0
  endloop
 endfacet
 facet normal 0 0 -1
  outer loop
   vertex 0 0.152576 0
   vertex -0.115485 0.200412 0
   vertex -0.113288 0.205404 0
  endloop
 endfacet
 facet normal 0 0 -1
  outer loop
   vertex -0.123101 0.174282 0
   vertex -0.122037 0.179631 0
   vertex 0 0.152576 0
  endloop
 endfacet
 facet normal 0 0 -1
  outer loop
   vertex -0.122037 0.179631 0
   vertex -0.120741 0.184929 0
   vertex 0 0.152576 0
  endloop
 endfacet
 facet normal 0 0 -1
  outer loop
   vertex 0 0.152576 0
   vertex -0.120741 0.184929 0
   vertex -0.119215 0.190165 0
  endloop
 endfacet
 facet normal 0 0 -1
  outer loop
   vertex -0.124881 0.158029 0
   vertex -0.124524 0.163471 0
   vertex 0 0.152576 0
  endloop
 endfacet
 facet normal 0 0 -1
  outer loop
   vertex -0.124524 0.163471 0
   vertex -0.123931 0.168892 0
   vertex 0 0.152576 0
  endloop
 endfacet
 facet normal 0 0 -1
  outer loop
   vertex 0 0.152576 0
   vertex -0.123931 0.168892 0
   vertex -0.123101 0.174282 0
  endloop
 endfacet
 facet normal 0 0 -1
  outer loop
   vertex -0.124524 0.141682 0
   vertex -0.124881 0.147124 0
   vertex 0 0.152576 0
  endloop
 endfacet
 facet normal 0 0 -1
  outer loop
   vertex -0.124881 0.147124 0
   vertex -0.125 0.152576 0
   vertex 0 0.152576 0
  endloop
 endfacet
 facet normal 0 0 -1
  outer loop
   vertex 0 0.152576 0
   vertex -0.125 0.152576 0
   vertex -0.124881 0.158029 0
  endloop
 endfacet
 facet normal 0 0 -1
  outer loop
   vertex -0.122037 0.125521 0
   vertex -0.123101 0.13087 0
   vertex 0 0.152576 0
  endloop
 endfacet
 facet normal 0 0 -1
  outer loop
   vertex -0.123101 0.13087 0
   vertex -0.123931 0.136261 0
   vertex 0 0.152576 0
  endloop
 endfacet
 facet normal 0 0 -1
  outer loop
   vertex 0 0.152576 0
   vertex -0.123931 0.136261 0
   vertex -0.124524 0.141682 0
  endloop
 endfacet
 facet normal 0 0 -1
  outer loop
   vertex -0.117462 0.109824 0
   vertex -0.119215 0.114988 0
   vertex 0 0.152576 0
  endloop
 endfacet
 facet normal 0 0 -1
  outer loop
   vertex -0.119215 0.114988 0
   vertex -0.120741 0.120224 0
   vertex 0 0.152576 0
  endloop
 endfacet
 facet normal 0 0 -1
  outer loop
   vertex 0 0.152576 0
   vertex -0.120741 0.120224 0
   vertex -0.122037 0.125521 0
  endloop
 endfacet
 facet normal 0 0 -1
  outer loop
   vertex -0.110876 0.0948579 0
   vertex -0.113288 0.0997492 0
   vertex 0 0.152576 0
  endloop
 endfacet
 facet normal 0 0 -1
  outer loop
   vertex -0.113288 0.0997492 0
   vertex -0.115485 0.104741 0
   vertex 0 0.152576 0
  endloop
 endfacet
 facet normal 0 0 -1
  outer loop
   vertex 0 0.152576 0
   vertex -0.115485 0.104741 0
   vertex -0.117462 0.109824 0
  endloop
 endfacet
 facet normal 0 0 -1
  outer loop
   vertex -0.102394 0.0808794 0
   vertex -0.105424 0.085414 0
   vertex 0 0.152576 0
  endloop
 endfacet
 facet normal 0 0 -1
  outer loop
   vertex -0.105424 0.085414 0
   vertex -0.108253 0.0900764 0
   vertex 0 0.152576 0
  endloop
 endfacet
 facet normal 0 0 -1
  outer loop
   vertex 0 0.152576 0
   vertex -0.108253 0.0900764 0
   vertex -0.110876 0.0948579 0
  endloop
 endfacet
 facet normal 0 0 -1
  outer loop
   vertex -0.0921597 0.0681277 0
   vertex -0.0957556 0.072228 0
   vertex 0 0.152576 0
  endloop
 endfacet
 facet normal 0 0 -1
  outer loop
   vertex -0.0957556 0.072228 0
   vertex -0.0991692 0.0764813 0
   vertex 0 0.152576 0
  endloop
 endfacet
 facet normal 0 0 -1
  outer loop
   vertex 0 0.152576 0
   vertex -0.0991692 0.0764813 0
   vertex -0.102394 0.0808794 0
  endloop
 endfacet
 facet normal 0 0 -1
  outer loop
   vertex -0.0803485 0.0568209 0
   vertex -0.0844488 0.0604168 0
   vertex 0 0.152576 0
  endloop
 endfacet
 facet normal 0 0 -1
  outer loop
   vertex -0.0844488 0.0604168 0
   vertex -0.0883883 0.0641881 0
   vertex 0 0.152576 0
  endloop
 endfacet
 facet normal 0 0 -1
  outer loop
   vertex 0 0.152576 0
   vertex -0.0883883 0.0641881 0
   vertex -0.0921597 0.0681277 0
  endloop
 endfacet
 facet normal 0 0 -1
  outer loop
   vertex -0.0671625 0.0471525 0
   vertex -0.0716971 0.0501824 0
   vertex 0 0.152576 0
  endloop
 endfacet
 facet normal 0 0 -1
  outer loop
   vertex -0.0716971 0.0501824 0
   vertex -0.0760952 0.0534073 0
   vertex 0 0.152576 0
  endloop
 endfacet
 facet normal 0 0 -1
  outer loop
   vertex 0 0.152576 0
   vertex -0.0760952 0.0534073 0
   vertex -0.0803485 0.0568209 0
  endloop
 endfacet
 facet normal 0 0 -1
  outer loop
   vertex -0.0528273 0.039288 0
   vertex -0.0577186 0.0417001 0
   vertex 0 0.152576 0
  endloop
 endfacet
 facet normal 0 0 -1
  outer loop
   vertex -0.0577186 0.0417001 0
   vertex -0.0625 0.0443233 0
   vertex 0 0.152576 0
  endloop
 endfacet
 facet normal 0 0 -1
  outer loop
   vertex 0 0.152576 0
   vertex -0.0625 0.0443233 0
   vertex -0.0671625 0.0471525 0
  endloop
 endfacet
 facet normal 0 0 -1
  outer loop
   vertex -0.0375882 0.0333618 0
   vertex -0.0427525 0.0351149 0
   vertex 0 0.152576 0
  endloop
 endfacet
 facet normal 0 0 -1
  outer loop
   vertex -0.0427525 0.0351149 0
   vertex -0.0478354 0.0370915 0
   vertex 0 0.152576 0
  endloop
 endfacet
 facet normal 0 0 -1
  outer loop
   vertex 0 0.152576 0
   vertex -0.0478354 0.0370915 0
   vertex -0.0528273 0.039288 0
  endloop
 endfacet
 facet normal 0 0 -1
  outer loop
   vertex -0.021706 0.0294755 0
   vertex -0.027055 0.0305394 0
   vertex 0 0.152576 0
  endloop
 endfacet
 facet normal 0 0 -1
  outer loop
   vertex -0.027055 0.0305394 0
   vertex -0.0323524 0.0318357 0
   vertex 0 0.152576 0
  endloop
 endfacet
 facet normal 0 0 -1
  outer loop
   vertex 0 0.152576 0
   vertex -0.0323524 0.0318357 0
   vertex -0.0375882 0.0333618 0
  endloop
 endfacet
 facet normal 0 0 -1
  outer loop
   vertex -0.00545242 0.0276954 0
   vertex -0.0108945 0.0280521 0
   vertex 0 0.152576 0
  endloop
 endfacet
 facet normal 0 0 -1
  outer loop
   vertex -0.0108945 0.0280521 0
   vertex -0.0163158 0.0286458 0
   vertex 0 0.152576 0
  endloop
 endfacet
 facet normal 0 0 -1
  outer loop
   vertex 0 0.152576 0
   vertex -0.0163158 0.0286458 0
   vertex -0.021706 0.0294755 0
  endloop
 endfacet
 facet normal -0 0 -1
  outer loop
   vertex 0.0108945 0.0280521 0
   vertex 0.00545242 0.0276954 0
   vertex 0 0.152576 0
  endloop
 endfacet
 facet normal -0 0 -1
  outer loop
   vertex 0.00545242 0.0276954 0
   vertex 2.29621e-17 0.0275764 0
   vertex 0 0.152576 0
  endloop
 endfacet
 facet normal 0 -0 -1
  outer loop
   vertex 0 0.152576 0
   vertex 2.29621e-17 0.0275764 0
   vertex -0.00545242 0.0276954 0
  endloop
 endfacet
 facet normal -0 0 -1
  outer loop
   vertex 0.027055 0.0305394 0
   vertex 0.021706 0.0294755 0
   vertex 0 0.152576 0
  endloop
 endfacet
 facet normal -0 0 -1
  outer loop
   vertex 0.021706 0.0294755 0
   vertex 0.0163158 0.0286458 0
   vertex 0 0.152576 0
  endloop
 endfacet
 facet normal 0 0 -1
  outer loop
   vertex 0 0.152576 0
   vertex 0.0163158 0.0286458 0
   vertex 0.0108945 0.0280521 0
  endloop
 endfacet
 facet normal -0 0 -1
  outer loop
   vertex 0.0427525 0.0351149 0
   vertex 0.0375882 0.0333618 0
   vertex 0 0.152576 0
  endloop
 endfacet
 facet normal -0 0 -1
  outer loop
   vertex 0.0375882 0.0333618 0
   vertex 0.0323524 0.0318357 0
   vertex 0 0.152576 0
  endloop
 endfacet
 facet normal 0 0 -1
  outer loop
   vertex 0 0.152576 0
   vertex 0.0323524 0.0318357 0
   vertex 0.027055 0.0305394 0
  endloop
 endfacet
 facet normal -0 0 -1
  outer loop
   vertex 0.0577186 0.0417001 0
   vertex 0.0528273 0.039288 0
   vertex 0 0.152576 0
  endloop
 endfacet
 facet normal -0 0 -1
  outer loop
   vertex 0.0528273 0.039288 0
   vertex 0.0478354 0.0370915 0
   vertex 0 0.152576 0
  endloop
 endfacet
 facet normal 0 0 -1
  outer loop
   vertex 0 0.152576 0
   vertex 0.0478354 0.0370915 0
   vertex 0.0427525 0.0351149 0
  endloop
 endfacet
 facet normal -0 0 -1
  outer loop
   vertex 0.0716971 0.0501824 0
   vertex 0.0671625 0.0471525 0
   vertex 0 0.152576 0
  endloop
 endfacet
 facet normal -0 0 -1
  outer loop
   vertex 0.0671625 0.0471525 0
   vertex 0.0625 0.0443233 0
   vertex 0 0.152576 0
  endloop
 endfacet
 facet normal 0 0 -1
  outer loop
   vertex 0 0.152576 0
   vertex 0.0625 0.0443233 0
   vertex 0.0577186 0.0417001 0
  endloop
 endfacet
 facet normal -0 0 -1
  outer loop
   vertex 0.0844488 0.0604168 0
   vertex 0.0803485 0.0568209 0
   vertex 0 0.152576 0
  endloop
 endfacet
 facet normal -0 0 -1
  outer loop
   vertex 0.0803485 0.0568209 0
   vertex 0.0760952 0.0534073 0
   vertex 0 0.152576 0
  endloop
 endfacet
 facet normal 0 0 -1
  outer loop
   vertex 0 0.152576 0
   vertex 0.0760952 0.0534073 0
   vertex 0.0716971 0.0501824 0
  endloop
 endfacet
 facet normal -0 0 -1
  outer loop
   vertex 0.0957556 0.072228 0
   vertex 0.0921597 0.0681277 0
   vertex 0 0.152576 0
  endloop
 endfacet
 facet normal -0 0 -1
  outer loop
   vertex 0.0921597 0.0681277 0
   vertex 0.0883883 0.0641881 0
   vertex 0 0.152576 0
  endloop
 endfacet
 facet normal 0 0 -1
  outer loop
   vertex 0 0.152576 0
   vertex 0.0883883 0.0641881 0
   vertex 0.0844488 0.0604168 0
  endloop
 endfacet
 facet normal -0 0 -1
  outer loop
   vertex 0.105424 0.085414 0
   vertex 0.102394 0.0808794 0
   vertex 0 0.152576 0
  endloop
 endfacet
 facet normal -0 0 -1
  outer loop
   vertex 0.102394 0.0808794 0
   vertex 0.0991692 0.0764813 0
   vertex 0 0.152576 0
  endloop
 endfacet
 facet normal 0 0 -1
  outer loop
   vertex 0 0.152576 0
   vertex 0.0991692 0.0764813 0
   vertex 0.0957556 0.072228 0
  endloop
 endfacet
 facet normal -0 0 -1
  outer loop
   vertex 0.113288 0.0997492 0
   vertex 0.110876 0.0948579 0
   vertex 0 0.152576 0
  endloop
 endfacet
 facet normal -0 0 -1
  outer loop
   vertex 0.110876 0.0948579 0
   vertex 0.108253 0.0900764 0
   vertex 0 0.152576 0
  endloop
 endfacet
 facet normal 0 0 -1
  outer loop
   vertex 0 0.152576 0
   vertex 0.108253 0.0900764 0
   vertex 0.105424 0.085414 0
  endloop
 endfacet
 facet normal -0 0 -1
  outer loop
   vertex 0.119215 0.114988 0
   vertex 0.117462 0.109824 0
   vertex 0 0.152576 0
  endloop
 endfacet
 facet normal -0 0 -1
  outer loop
   vertex 0.117462 0.109824 0
   vertex 0.115485 0.104741 0
   vertex 0 0.152576 0
  endloop
 endfacet
 facet normal 0 0 -1
  outer loop
   vertex 0 0.152576 0
   vertex 0.115485 0.104741 0
   vertex 0.113288 0.0997492 0
  endloop
 endfacet
 facet normal -0 0 -1
  outer loop
   vertex 0.123101 0.13087 0
   vertex 0.122037 0.125521 0
   vertex 0 0.152576 0
  endloop
 endfacet
 facet normal -0 0 -1
  outer loop
   vertex 0.122037 0.125521 0
   vertex 0.120741 0.120224 0
   vertex 0 0.152576 0
  endloop
 endfacet
 facet normal 0 0 -1
  outer loop
   vertex 0 0.152576 0
   vertex 0.120741 0.120224 0
   vertex 0.119215 0.114988 0
  endloop
 endfacet
 facet normal -0 0 -1
  outer loop
   vertex 0.124881 0.147124 0
   vertex 0.124524 0.141682 0
   vertex 0 0.152576 0
  endloop
 endfacet
 facet normal -0 0 -1
  outer loop
   vertex 0.124524 0.141682 0
   vertex 0.123931 0.136261 0
   vertex 0 0.152576 0
  endloop
 endfacet
 facet normal 0 0 -1
  outer loop
   vertex 0 0.152576 0
   vertex 0.123931 0.136261 0
   vertex 0.123101 0.13087 0
  endloop
 endfacet
 facet normal -0.999762 0.0218146 0
  outer loop
   vertex -0.125 0.152576 0
   vertex -0.124881 0.158029 0.5
   vertex -0.124881 0.158029 0
  endloop
 endfacet
 facet normal -0.997859 0.0654029 0
  outer loop
   vertex -0.124881 0.158029 0.5
   vertex -0.124524 0.163471 0.5
   vertex -0.124881 0.158029 0
  endloop
 endfacet
 facet normal -0.997859 0.0654029 0
  outer loop
   vertex -0.124881 0.158029 0
   vertex -0.124524 0.163471 0.5
   vertex -0.124524 0.163471 0
  endloop
 endfacet
 facet normal -0.994056 0.108867 0
  outer loop
   vertex -0.124524 0.163471 0.5
   vertex -0.123931 0.168892 0.5
   vertex -0.124524 0.163471 0
  endloop
 endfacet
 facet normal -0.994056 0.108867 0
  outer loop
   vertex -0.124524 0.163471 0
   vertex -0.123931 0.168892 0.5
   vertex -0.123931 0.168892 0
  endloop
 endfacet
 facet normal -0.988361 0.152124 0
  outer loop
   vertex -0.123931 0.168892 0.5
   vertex -0.123101 0.174282 0.5
   vertex -0.123931 0.168892 0
  endloop
 endfacet
 facet normal -0.988361 0.152124 0
  outer loop
   vertex -0.123931 0.168892 0
   vertex -0.123101 0.174282 0.5
   vertex -0.123101 0.174282 0
  endloop
 endfacet
 facet normal -0.980785 0.19509 0
  outer loop
   vertex -0.123101 0.174282 0.5
   vertex -0.122037 0.179631 0.5
   vertex -0.123101 0.174282 0
  endloop
 endfacet
 facet normal -0.980785 0.19509 0
  outer loop
   vertex -0.123101 0.174282 0
   vertex -0.122037 0.179631 0.5
   vertex -0.122037 0.179631 0
  endloop
 endfacet
 facet normal -0.971342 0.237686 0
  outer loop
   vertex -0.122037 0.179631 0.5
   vertex -0.120741 0.184929 0.5
   vertex -0.122037 0.179631 0
  endloop
 endfacet
 facet normal -0.971342 0.237686 0
  outer loop
   vertex -0.122037 0.179631 0
   vertex -0.120741 0.184929 0.5
   vertex -0.120741 0.184929 0
  endloop
 endfacet
 facet normal -0.96005 0.279829 0
  outer loop
   vertex -0.120741 0.184929 0.5
   vertex -0.119215 0.190165 0.5
   vertex -0.120741 0.184929 0
  endloop
 endfacet
 facet normal -0.96005 0.279829 0
  outer loop
   vertex -0.120741 0.184929 0
   vertex -0.119215 0.190165 0.5
   vertex -0.119215 0.190165 0
  endloop
 endfacet
 facet normal -0.94693 0.321439 0
  outer loop
   vertex -0.119215 0.190165 0.5
   vertex -0.117462 0.195329 0.5
   vertex -0.119215 0.190165 0
  endloop
 endfacet
 facet normal -0.94693 0.321439 0
  outer loop
   vertex -0.119215 0.190165 0
   vertex -0.117462 0.195329 0.5
   vertex -0.117462 0.195329 0
  endloop
 endfacet
 facet normal -0.932008 0.362439 0
  outer loop
   vertex -0.117462 0.195329 0.5
   vertex -0.115485 0.200412 0.5
   vertex -0.117462 0.195329 0
  endloop
 endfacet
 facet normal -0.932008 0.362439 0
  outer loop
   vertex -0.117462 0.195329 0
   vertex -0.115485 0.200412 0.5
   vertex -0.115485 0.200412 0
  endloop
 endfacet
 facet normal -0.915312 0.402745 0
  outer loop
   vertex -0.115485 0.200412 0.5
   vertex -0.113288 0.205404 0.5
   vertex -0.115485 0.200412 0
  endloop
 endfacet
 facet normal -0.915312 0.402745 0
  outer loop
   vertex -0.115485 0.200412 0
   vertex -0.113288 0.205404 0.5
   vertex -0.113288 0.205404 0
  endloop
 endfacet
 facet normal -0.896872 0.44229 0
  outer loop
   vertex -0.113288 0.205404 0.5
   vertex -0.110876 0.210295 0.5
   vertex -0.113288 0.205404 0
  endloop
 endfacet
 facet normal -0.896872 0.44229 0
  outer loop
   vertex -0.113288 0.205404 0
   vertex -0.110876 0.210295 0.5
   vertex -0.110876 0.210295 0
  endloop
 endfacet
 facet normal -0.876727 0.480989 0
  outer loop
   vertex -0.110876 0.210295 0.5
   vertex -0.108253 0.215076 0.5
   vertex -0.110876 0.210295 0
  endloop
 endfacet
 facet normal -0.876727 0.480989 0
  outer loop
   vertex -0.110876 0.210295 0
   vertex -0.108253 0.215076 0.5
   vertex -0.108253 0.215076 0
  endloop
 endfacet
 facet normal -0.854912 0.518773 0
  outer loop
   vertex -0.108253 0.215076 0.5
   vertex -0.105424 0.219739 0.5
   vertex -0.108253 0.215076 0
  endloop
 endfacet
 facet normal -0.854912 0.518773 0
  outer loop
   vertex -0.108253 0.215076 0
   vertex -0.105424 0.219739 0.5
   vertex -0.105424 0.219739 0
  endloop
 endfacet
 facet normal -0.83147 0.55557 0
  outer loop
   vertex -0.105424 0.219739 0.5
   vertex -0.102394 0.224274 0.5
   vertex -0.105424 0.219739 0
  endloop
 endfacet
 facet normal -0.83147 0.55557 0
  outer loop
   vertex -0.105424 0.219739 0
   vertex -0.102394 0.224274 0.5
   vertex -0.102394 0.224274 0
  endloop
 endfacet
 facet normal -0.806444 0.59131 0
  outer loop
   vertex -0.102394 0.224274 0.5
   vertex -0.0991692 0.228672 0.5
   vertex -0.102394 0.224274 0
  endloop
 endfacet
 facet normal -0.806444 0.59131 0
  outer loop
   vertex -0.102394 0.224274 0
   vertex -0.0991692 0.228672 0.5
   vertex -0.0991692 0.228672 0
  endloop
 endfacet
 facet normal -0.779885 0.625923 0
  outer loop
   vertex -0.0991692 0.228672 0.5
   vertex -0.0957556 0.232925 0.5
   vertex -0.0991692 0.228672 0
  endloop
 endfacet
 facet normal -0.779885 0.625923 0
  outer loop
   vertex -0.0991692 0.228672 0
   vertex -0.0957556 0.232925 0.5
   vertex -0.0957556 0.232925 0
  endloop
 endfacet
 facet normal -0.75184 0.659346 0
  outer loop
   vertex -0.0957556 0.232925 0.5
   vertex -0.0921597 0.237025 0.5
   vertex -0.0957556 0.232925 0
  endloop
 endfacet
 facet normal -0.75184 0.659346 0
  outer loop
   vertex -0.0957556 0.232925 0
   vertex -0.0921597 0.237025 0.5
   vertex -0.0921597 0.237025 0
  endloop
 endfacet
 facet normal -0.722364 0.691513 0
  outer loop
   vertex -0.0921597 0.237025 0.5
   vertex -0.0883883 0.240965 0.5
   vertex -0.0921597 0.237025 0
  endloop
 endfacet
 facet normal -0.722364 0.691513 0
  outer loop
   vertex -0.0921597 0.237025 0
   vertex -0.0883883 0.240965 0.5
   vertex -0.0883883 0.240965 0
  endloop
 endfacet
 facet normal -0.691513 0.722364 0
  outer loop
   vertex -0.0883883 0.240965 0.5
   vertex -0.0844488 0.244736 0.5
   vertex -0.0883883 0.240965 0
  endloop
 endfacet
 facet normal -0.691513 0.722364 0
  outer loop
   vertex -0.0883883 0.240965 0
   vertex -0.0844488 0.244736 0.5
   vertex -0.0844488 0.244736 0
  endloop
 endfacet
 facet normal -0.659346 0.75184 0
  outer loop
   vertex -0.0844488 0.244736 0.5
   vertex -0.0803485 0.248332 0.5
   vertex -0.0844488 0.244736 0
  endloop
 endfacet
 facet normal -0.659346 0.75184 0
  outer loop
   vertex -0.0844488 0.244736 0
   vertex -0.0803485 0.248332 0.5
   vertex -0.0803485 0.248332 0
  endloop
 endfacet
 facet normal -0.625923 0.779885 0
  outer loop
   vertex -0.0803485 0.248332 0.5
   vertex -0.0760952 0.251746 0.5
   vertex -0.0803485 0.248332 0
  endloop
 endfacet
 facet normal -0.625923 0.779885 0
  outer loop
   vertex -0.0803485 0.248332 0
   vertex -0.0760952 0.251746 0.5
   vertex -0.0760952 0.251746 0
  endloop
 endfacet
 facet normal -0.59131 0.806444 0
  outer loop
   vertex -0.0760952 0.251746 0.5
   vertex -0.0716971 0.25497 0.5
   vertex -0.0760952 0.251746 0
  endloop
 endfacet
 facet normal -0.59131 0.806444 0
  outer loop
   vertex -0.0760952 0.251746 0
   vertex -0.0716971 0.25497 0.5
   vertex -0.0716971 0.25497 0
  endloop
 endfacet
 facet normal -0.55557 0.83147 0
  outer loop
   vertex -0.0716971 0.25497 0.5
   vertex -0.0671625 0.258 0.5
   vertex -0.0716971 0.25497 0
  endloop
 endfacet
 facet normal -0.55557 0.83147 0
  outer loop
   vertex -0.0716971 0.25497 0
   vertex -0.0671625 0.258 0.5
   vertex -0.0671625 0.258 0
  endloop
 endfacet
 facet normal -0.518773 0.854912 0
  outer loop
   vertex -0.0671625 0.258 0.5
   vertex -0.0625 0.26083 0.5
   vertex -0.0671625 0.258 0
  endloop
 endfacet
 facet normal -0.518773 0.854912 0
  outer loop
   vertex -0.0671625 0.258 0
   vertex -0.0625 0.26083 0.5
   vertex -0.0625 0.26083 0
  endloop
 endfacet
 facet normal -0.480989 0.876727 0
  outer loop
   vertex -0.0625 0.26083 0.5
   vertex -0.0577186 0.263453 0.5
   vertex -0.0625 0.26083 0
  endloop
 endfacet
 facet normal -0.480989 0.876727 0
  outer loop
   vertex -0.0625 0.26083 0
   vertex -0.0577186 0.263453 0.5
   vertex -0.0577186 0.263453 0
  endloop
 endfacet
 facet normal -0.44229 0.896872 0
  outer loop
   vertex -0.0577186 0.263453 0.5
   vertex -0.0528273 0.265865 0.5
   vertex -0.0577186 0.263453 0
  endloop
 endfacet
 facet normal -0.44229 0.896872 0
  outer loop
   vertex -0.0577186 0.263453 0
   vertex -0.0528273 0.265865 0.5
   vertex -0.0528273 0.265865 0
  endloop
 endfacet
 facet normal -0.402745 0.915312 0
  outer loop
   vertex -0.0528273 0.265865 0.5
   vertex -0.0478354 0.268061 0.5
   vertex -0.0528273 0.265865 0
  endloop
 endfacet
 facet normal -0.402745 0.915312 0
  outer loop
   vertex -0.0528273 0.265865 0
   vertex -0.0478354 0.268061 0.5
   vertex -0.0478354 0.268061 0
  endloop
 endfacet
 facet normal -0.362439 0.932008 0
  outer loop
   vertex -0.0478354 0.268061 0.5
   vertex -0.0427525 0.270038 0.5
   vertex -0.0478354 0.268061 0
  endloop
 endfacet
 facet normal -0.362439 0.932008 0
  outer loop
   vertex -0.0478354 0.268061 0
   vertex -0.0427525 0.270038 0.5
   vertex -0.0427525 0.270038 0
  endloop
 endfacet
 facet normal -0.321439 0.94693 0
  outer loop
   vertex -0.0427525 0.270038 0.5
   vertex -0.0375882 0.271791 0.5
   vertex -0.0427525 0.270038 0
  endloop
 endfacet
 facet normal -0.321439 0.94693 0
  outer loop
   vertex -0.0427525 0.270038 0
   vertex -0.0375882 0.271791 0.5
   vertex -0.0375882 0.271791 0
  endloop
 endfacet
 facet normal -0.279829 0.96005 0
  outer loop
   vertex -0.0375882 0.271791 0.5
   vertex -0.0323524 0.273317 0.5
   vertex -0.0375882 0.271791 0
  endloop
 endfacet
 facet normal -0.279829 0.96005 0
  outer loop
   vertex -0.0375882 0.271791 0
   vertex -0.0323524 0.273317 0.5
   vertex -0.0323524 0.273317 0
  endloop
 endfacet
 facet normal -0.237686 0.971342 0
  outer loop
   vertex -0.0323524 0.273317 0.5
   vertex -0.027055 0.274613 0.5
   vertex -0.0323524 0.273317 0
  endloop
 endfacet
 facet normal -0.237686 0.971342 0
  outer loop
   vertex -0.0323524 0.273317 0
   vertex -0.027055 0.274613 0.5
   vertex -0.027055 0.274613 0
  endloop
 endfacet
 facet normal -0.19509 0.980785 0
  outer loop
   vertex -0.027055 0.274613 0.5
   vertex -0.021706 0.275677 0.5
   vertex -0.027055 0.274613 0
  endloop
 endfacet
 facet normal -0.19509 0.980785 0
  outer loop
   vertex -0.027055 0.274613 0
   vertex -0.021706 0.275677 0.5
   vertex -0.021706 0.275677 0
  endloop
 endfacet
 facet normal -0.152124 0.988361 0
  outer loop
   vertex -0.021706 0.275677 0.5
   vertex -0.0163158 0.276507 0.5
   vertex -0.021706 0.275677 0
  endloop
 endfacet
 facet normal -0.152124 0.988361 0
  outer loop
   vertex -0.021706 0.275677 0
   vertex -0.0163158 0.276507 0.5
   vertex -0.0163158 0.276507 0
  endloop
 endfacet
 facet normal -0.108867 0.994056 0
  outer loop
   vertex -0.0163158 0.276507 0.5
   vertex -0.0108945 0.277101 0.5
   vertex -0.0163158 0.276507 0
  endloop
 endfacet
 facet normal -0.108867 0.994056 0
  outer loop
   vertex -0.0163158 0.276507 0
   vertex -0.0108945 0.277101 0.5
   vertex -0.0108945 0.277101 0
  endloop
 endfacet
 facet normal -0.0654029 0.997859 0
  outer loop
   vertex -0.0108945 0.277101 0.5
   vertex -0.00545242 0.277457 0.5
   vertex -0.0108945 0.277101 0
  endloop
 endfacet
 facet normal -0.0654029 0.997859 0
  outer loop
   vertex -0.0108945 0.277101 0
   vertex -0.00545242 0.277457 0.5
   vertex -0.00545242 0.277457 0
  endloop
 endfacet
 facet normal -0.0218146 0.999762 0
  outer loop
   vertex -0.00545242 0.277457 0.5
   vertex -7.65404e-18 0.277576 0.5
   vertex -0.00545242 0.277457 0
  endloop
 endfacet
 facet normal -0.0218146 0.999762 0
  outer loop
   vertex -0.00545242 0.277457 0
   vertex -7.65404e-18 0.277576 0.5
   vertex -7.65404e-18 0.277576 0
  endloop
 endfacet
 facet normal 0.0218146 0.999762 0
  outer loop
   vertex -7.65404e-18 0.277576 0.5
   vertex 0.00545242 0.277457 0.5
   vertex -7.65404e-18 0.277576 0
  endloop
 endfacet
 facet normal 0.0218146 0.999762 0
  outer loop
   vertex -7.65404e-18 0.277576 0
   vertex 0.00545242 0.277457 0.5
   vertex 0.00545242 0.277457 0
  endloop
 endfacet
 facet normal 0.0654029 0.997859 0
  outer loop
   vertex 0.00545242 0.277457 0.5
   vertex 0.0108945 0.277101 0.5
   vertex 0.00545242 0.277457 0
  endloop
 endfacet
 facet normal 0.0654029 0.997859 0
  outer loop
   vertex 0.00545242 0.277457 0
   vertex 0.0108945 0.277101 0.5
   vertex 0.0108945 0.277101 0
  endloop
 endfacet
 facet normal 0.108867 0.994056 0
  outer loop
   vertex 0.0108945 0.277101 0.5
   vertex 0.0163158 0.276507 0.5
   vertex 0.0108945 0.277101 0
  endloop
 endfacet
 facet normal 0.108867 0.994056 0
  outer loop
   vertex 0.0108945 0.277101 0
   vertex 0.0163158 0.276507 0.5
   vertex 0.0163158 0.276507 0
  endloop
 endfacet
 facet normal 0.152124 0.988361 0
  outer loop
   vertex 0.0163158 0.276507 0.5
   vertex 0.021706 0.275677 0.5
   vertex 0.0163158 0.276507 0
  endloop
 endfacet
 facet normal 0.152124 0.988361 0
  outer loop
   vertex 0.0163158 0.276507 0
   vertex 0.021706 0.275677 0.5
   vertex 0.021706 0.275677 0
  endloop
 endfacet
 facet normal 0.19509 0.980785 0
  outer loop
   vertex 0.021706 0.275677 0.5
   vertex 0.027055 0.274613 0.5
   vertex 0.021706 0.275677 0
  endloop
 endfacet
 facet normal 0.19509 0.980785 0
  outer loop
   vertex 0.021706 0.275677 0
   vertex 0.027055 0.274613 0.5
   vertex 0.027055 0.274613 0
  endloop
 endfacet
 facet normal 0.237686 0.971342 0
  outer loop
   vertex 0.027055 0.274613 0.5
   vertex 0.0323524 0.273317 0.5
   vertex 0.027055 0.274613 0
  endloop
 endfacet
 facet normal 0.237686 0.971342 0
  outer loop
   vertex 0.027055 0.274613 0
   vertex 0.0323524 0.273317 0.5
   vertex 0.0323524 0.273317 0
  endloop
 endfacet
 facet normal 0.279829 0.96005 0
  outer loop
   vertex 0.0323524 0.273317 0.5
   vertex 0.0375882 0.271791 0.5
   vertex 0.0323524 0.273317 0
  endloop
 endfacet
 facet normal 0.279829 0.96005 0
  outer loop
   vertex 0.0323524 0.273317 0
   vertex 0.0375882 0.271791 0.5
   vertex 0.0375882 0.271791 0
  endloop
 endfacet
 facet normal 0.321439 0.94693 0
  outer loop
   vertex 0.0375882 0.271791 0.5
   vertex 0.0427525 0.270038 0.5
   vertex 0.0375882 0.271791 0
  endloop
 endfacet
 facet normal 0.321439 0.94693 0
  outer loop
   vertex 0.0375882 0.271791 0
   vertex 0.0427525 0.270038 0.5
   vertex 0.0427525 0.270038 0
  endloop
 endfacet
 facet normal 0.362439 0.932008 0
  outer loop
   vertex 0.0427525 0.270038 0.5
   vertex 0.0478354 0.268061 0.5
   vertex 0.0427525 0.270038 0
  endloop
 endfacet
 facet normal 0.362439 0.932008 0
  outer loop
   vertex 0.0427525 0.270038 0
   vertex 0.0478354 0.268061 0.5
   vertex 0.0478354 0.268061 0
  endloop
 endfacet
 facet normal 0.402745 0.915312 0
  outer loop
   vertex 0.0478354 0.268061 0.5
   vertex 0.0528273 0.265865 0.5
   vertex 0.0478354 0.268061 0
  endloop
 endfacet
 facet normal 0.402745 0.915312 0
  outer loop
   vertex 0.0478354 0.268061 0
   vertex 0.0528273 0.265865 0.5
   vertex 0.0528273 0.265865 0
  endloop
 endfacet
 facet normal 0.44229 0.896872 0
  outer loop
   vertex 0.0528273 0.265865 0.5
   vertex 0.0577186 0.263453 0.5
   vertex 0.0528273 0.265865 0
  endloop
 endfacet
 facet normal 0.44229 0.896872 0
  outer loop
   vertex 0.0528273 0.265865 0
   vertex 0.0577186 0.263453 0.5
   vertex 0.0577186 0.263453 0
  endloop
 endfacet
 facet normal 0.480989 0.876727 0
  outer loop
   vertex 0.0577186 0.263453 0.5
   vertex 0.0625 0.26083 0.5
   vertex 0.0577186 0.263453 0
  endloop
 endfacet
 facet normal 0.480989 0.876727 0
  outer loop
   vertex 0.0577186 0.263453 0
   vertex 0.0625 0.26083 0.5
   vertex 0.0625 0.26083 0
  endloop
 endfacet
 facet normal 0.518773 0.854912 0
  outer loop
   vertex 0.0625 0.26083 0.5
   vertex 0.0671625 0.258 0.5
   vertex 0.0625 0.26083 0
  endloop
 endfacet
 facet normal 0.518773 0.854912 0
  outer loop
   vertex 0.0625 0.26083 0
   vertex 0.0671625 0.258 0.5
   vertex 0.0671625 0.258 0
  endloop
 endfacet
 facet normal 0.55557 0.83147 0
  outer loop
   vertex 0.0671625 0.258 0.5
   vertex 0.0716971 0.25497 0.5
   vertex 0.0671625 0.258 0
  endloop
 endfacet
 facet normal 0.55557 0.83147 0
  outer loop
   vertex 0.0671625 0.258 0
   vertex 0.0716971 0.25497 0.5
   vertex 0.0716971 0.25497 0
  endloop
 endfacet
 facet normal 0.59131 0.806444 0
  outer loop
   vertex 0.0716971 0.25497 0.5
   vertex 0.0760952 0.251746 0.5
   vertex 0.0716971 0.25497 0
  endloop
 endfacet
 facet normal 0.59131 0.806444 0
  outer loop
   vertex 0.0716971 0.25497 0
   vertex 0.0760952 0.251746 0.5
   vertex 0.0760952 0.251746 0
  endloop
 endfacet
 facet normal 0.625923 0.779885 0
  outer loop
   vertex 0.0760952 0.251746 0.5
   vertex 0.0803485 0.248332 0.5
   vertex 0.0760952 0.251746 0
  endloop
 endfacet
 facet normal 0.625923 0.779885 0
  outer loop
   vertex 0.0760952 0.251746 0
   vertex 0.0803485 0.248332 0.5
   vertex 0.0803485 0.248332 0
  endloop
 endfacet
 facet normal 0.659346 0.75184 0
  outer loop
   vertex 0.0803485 0.248332 0.5
   vertex 0.0844488 0.244736 0.5
   vertex 0.0803485 0.248332 0
  endloop
 endfacet
 facet normal 0.659346 0.75184 0
  outer loop
   vertex 0.0803485 0.248332 0
   vertex 0.0844488 0.244736 0.5
   vertex 0.0844488 0.244736 0
  endloop
 endfacet
 facet normal 0.691513 0.722364 0
  outer loop
   vertex 0.0844488 0.244736 0.5
   vertex 0.0883883 0.240965 0.5
   vertex 0.0844488 0.244736 0
  endloop
 endfacet
 facet normal 0.691513 0.722364 0
  outer loop
   vertex 0.0844488 0.244736 0
   vertex 0.0883883 0.240965 0.5
   vertex 0.0883883 0.240965 0
  endloop
 endfacet
 facet normal 0.722364 0.691513 0
  outer loop
   vertex 0.0883883 0.240965 0.5
   vertex 0.0921597 0.237025 0.5
   vertex 0.0883883 0.240965 0
  endloop
 endfacet
 facet normal 0.722364 0.691513 0
  outer loop
   vertex 0.0883883 0.240965 0
   vertex 0.0921597 0.237025 0.5
   vertex 0.0921597 0.237025 0
  endloop
 endfacet
 facet normal 0.75184 0.659346 0
  outer loop
   vertex 0.0921597 0.237025 0.5
   vertex 0.0957556 0.232925 0.5
   vertex 0.0921597 0.237025 0
  endloop
 endfacet
 facet normal 0.75184 0.659346 0
  outer loop
   vertex 0.0921597 0.237025 0
   vertex 0.0957556 0.232925 0.5
   vertex 0.0957556 0.232925 0
  endloop
 endfacet
 facet normal 0.779885 0.625923 0
  outer loop
   vertex 0.0957556 0.232925 0.5
   vertex 0.0991692 0.228672 0.5
   vertex 0.0957556 0.232925 0
  endloop
 endfacet
 facet normal 0.779885 0.625923 0
  outer loop
   vertex 0.0957556 0.232925 0
   vertex 0.0991692 0.228672 0.5
   vertex 0.0991692 0.228672 0
  endloop
 endfacet
 facet normal 0.806444 0.59131 0
  outer loop
   vertex 0.0991692 0.228672 0.5
   vertex 0.102394 0.224274 0.5
   vertex 0.0991692 0.228672 0
  endloop
 endfacet
 facet normal 0.806444 0.59131 0
  outer loop
   vertex 0.0991692 0.228672 0
   vertex 0.102394 0.224274 0.5
   vertex 0.102394 0.224274 0
  endloop
 endfacet
 facet normal 0.83147 0.55557 0
  outer loop
   vertex 0.102394 0.224274 0.5
   vertex 0.105424 0.219739 0.5
   vertex 0.102394 0.224274 0
  endloop
 endfacet
 facet normal 0.83147 0.55557 0
  outer loop
   vertex 0.102394 0.224274 0
   vertex 0.105424 0.219739 0.5
   vertex 0.105424 0.219739 0
  endloop
 endfacet
 facet normal 0.854912 0.518773 0
  outer loop
   vertex 0.105424 0.219739 0.5
   vertex 0.108253 0.215076 0.5
   vertex 0.105424 0.219739 0
  endloop
 endfacet
 facet normal 0.854912 0.518773 0
  outer loop
   vertex 0.105424 0.219739 0
   vertex 0.108253 0.215076 0.5
   vertex 0.108253 0.215076 0
  endloop
 endfacet
 facet normal 0.876727 0.480989 0
  outer loop
   vertex 0.108253 0.215076 0.5
   vertex 0.110876 0.210295 0.5
   vertex 0.108253 0.215076 0
  endloop
 endfacet
 facet normal 0.876727 0.480989 0
  outer loop
   vertex 0.108253 0.215076 0
   vertex 0.110876 0.210295 0.5
   vertex 0.110876 0.210295 0
  endloop
 endfacet
 facet normal 0.896872 0.44229 0
  outer loop
   vertex 0.110876 0.210295 0.5
   vertex 0.113288 0.205404 0.5
   vertex 0.110876 0.210295 0
  endloop
 endfacet
 facet normal 0.896872 0.44229 0
  outer loop
   vertex 0.110876 0.210295 0
   vertex 0.113288 0.205404 0.5
   vertex 0.113288 0.205404 0
  endloop
 endfacet
 facet normal 0.915312 0.402745 0
  outer loop
   vertex 0.113288 0.205404 0.5
   vertex 0.115485 0.200412 0.5
   vertex 0.113288 0.205404 0
  endloop
 endfacet
 facet normal 0.915312 0.402745 0
  outer loop
   vertex 0.113288 0.205404 0
   vertex 0.115485 0.200412 0.5
   vertex 0.115485 0.200412 0
  endloop
 endfacet
 facet normal 0.932008 0.362439 0
  outer loop
   vertex 0.115485 0.200412 0.5
   vertex 0.117462 0.195329 0.5
   vertex 0.115485 0.200412 0
  endloop
 endfacet
 facet normal 0.932008 0.362439 0
  outer loop
   vertex 0.115485 0.200412 0
   vertex 0.117462 0.195329 0.5
   vertex 0.117462 0.195329 0
  endloop
 endfacet
 facet normal 0.94693 0.321439 0
  outer loop
   vertex 0.117462 0.195329 0.5
   vertex 0.119215 0.190165 0.5
   vertex 0.117462 0.195329 0
  endloop
 endfacet
 facet normal 0.94693 0.321439 0
  outer loop
   vertex 0.117462 0.195329 0
   vertex 0.119215 0.190165 0.5
   vertex 0.119215 0.190165 0
  endloop
 endfacet
 facet normal 0.96005 0.279829 0
  outer loop
   vertex 0.119215 0.190165 0.5
   vertex 0.120741 0.184929 0.5
   vertex 0.119215 0.190165 0
  endloop
 endfacet
 facet normal 0.96005 0.279829 0
  outer loop
   vertex 0.119215 0.190165 0
   vertex 0.120741 0.184929 0.5
   vertex 0.120741 0.184929 0
  endloop
 endfacet
 facet normal 0.971342 0.237686 0
  outer loop
   vertex 0.120741 0.184929 0.5
   vertex 0.122037 0.179631 0.5
   vertex 0.120741 0.184929 0
  endloop
 endfacet
 facet normal 0.971342 0.237686 0
  outer loop
   vertex 0.120741 0.184929 0
   vertex 0.122037 0.179631 0.5
   vertex 0.122037 0.179631 0
  endloop
 endfacet
 facet normal 0.980785 0.19509 0
  outer loop
   vertex 0.122037 0.179631 0.5
   vertex 0.123101 0.174282 0.5
   vertex 0.122037 0.179631 0
  endloop
 endfacet
 facet normal 0.980785 0.19509 0
  outer loop
   vertex 0.122037 0.179631 0
   vertex 0.123101 0.174282 0.5
   vertex 0.123101 0.174282 0
  endloop
 endfacet
 facet normal 0.988361 0.152124 0
  outer loop
   vertex 0.123101 0.174282 0.5
   vertex 0.123931 0.168892 0.5
   vertex 0.123101 0.174282 0
  endloop
 endfacet
 facet normal 0.988361 0.152124 0
  outer loop
   vertex 0.123101 0.174282 0
   vertex 0.123931 0.168892 0.5
   vertex 0.123931 0.168892 0
  endloop
 endfacet
 facet normal 0.994056 0.108867 0
  outer loop
   vertex 0.123931 0.168892 0.5
   vertex 0.124524 0.163471 0.5
   vertex 0.123931 0.168892 0
  endloop
 endfacet
 facet normal 0.994056 0.108867 0
  outer loop
   vertex 0.123931 0.168892 0
   vertex 0.124524 0.163471 0.5
   vertex 0.124524 0.163471 0
  endloop
 endfacet
 facet normal 0.997859 0.0654029 0
  outer loop
   vertex 0.124524 0.163471 0.5
   vertex 0.124881 0.158029 0.5
   vertex 0.124524 0.163471 0
  endloop
 endfacet
 facet normal 0.997859 0.0654029 0
  outer loop
   vertex 0.124524 0.163471 0
   vertex 0.124881 0.158029 0.5
   vertex 0.124881 0.158029 0
  endloop
 endfacet
 facet normal 0.999762 0.0218146 0
  outer loop
   vertex 0.124881 0.158029 0.5
   vertex 0.125 0.152576 0.5
   vertex 0.124881 0.158029 0
  endloop
 endfacet
 facet normal 0.999762 0.0218146 -1.20367e-18
  outer loop
   vertex 0.124881 0.158029 0
   vertex 0.125 0.152576 0.5
   vertex 0.125 0.152576 0
  endloop
 endfacet
 facet normal 0.999762 -0.0218146 1.21095e-18
  outer loop
   vertex 0.125 0.152576 0.5
   vertex 0.124881 0.147124 0.5
   vertex 0.125 0.152576 0
  endloop
 endfacet
 facet normal 0.999762 -0.0218146 0
  outer loop
   vertex 0.125 0.152576 0
   vertex 0.124881 0.147124 0.5
   vertex 0.124881 0.147124 0
  endloop
 endfacet
 facet normal 0.997859 -0.0654029 0
  outer loop
   vertex 0.124881 0.147124 0.5
   vertex 0.124524 0.141682 0.5
   vertex 0.124881 0.147124 0
  endloop
 endfacet
 facet normal 0.997859 -0.0654029 0
  outer loop
   vertex 0.124881 0.147124 0
   vertex 0.124524 0.141682 0.5
   vertex 0.124524 0.141682 0
  endloop
 endfacet
 facet normal 0.994056 -0.108867 0
  outer loop
   vertex 0.124524 0.141682 0.5
   vertex 0.123931 0.136261 0.5
   vertex 0.124524 0.141682 0
  endloop
 endfacet
 facet normal 0.994056 -0.108867 0
  outer loop
   vertex 0.124524 0.141682 0
   vertex 0.123931 0.136261 0.5
   vertex 0.123931 0.136261 0
  endloop
 endfacet
 facet normal 0.988361 -0.152124 0
  outer loop
   vertex 0.123931 0.136261 0.5
   vertex 0.123101 0.13087 0.5
   vertex 0.123931 0.136261 0
  endloop
 endfacet
 facet normal 0.988361 -0.152124 0
  outer loop
   vertex 0.123931 0.136261 0
   vertex 0.123101 0.13087 0.5
   vertex 0.123101 0.13087 0
  endloop
 endfacet
 facet normal 0.980785 -0.19509 0
  outer loop
   vertex 0.123101 0.13087 0.5
   vertex 0.122037 0.125521 0.5
   vertex 0.123101 0.13087 0
  endloop
 endfacet
 facet normal 0.980785 -0.19509 0
  outer loop
   vertex 0.123101 0.13087 0
   vertex 0.122037 0.125521 0.5
   vertex 0.122037 0.125521 0
  endloop
 endfacet
 facet normal 0.971342 -0.237686 0
  outer loop
   vertex 0.122037 0.125521 0.5
   vertex 0.120741 0.120224 0.5
   vertex 0.122037 0.125521 0
  endloop
 endfacet
 facet normal 0.971342 -0.237686 0
  outer loop
   vertex 0.122037 0.125521 0
   vertex 0.120741 0.120224 0.5
   vertex 0.120741 0.120224 0
  endloop
 endfacet
 facet normal 0.96005 -0.279829 0
  outer loop
   vertex 0.120741 0.120224 0.5
   vertex 0.119215 0.114988 0.5
   vertex 0.120741 0.120224 0
  endloop
 endfacet
 facet normal 0.96005 -0.279829 0
  outer loop
   vertex 0.120741 0.120224 0
   vertex 0.119215 0.114988 0.5
   vertex 0.119215 0.114988 0
  endloop
 endfacet
 facet normal 0.94693 -0.321439 0
  outer loop
   vertex 0.119215 0.114988 0.5
   vertex 0.117462 0.109824 0.5
   vertex 0.119215 0.114988 0
  endloop
 endfacet
 facet normal 0.94693 -0.321439 0
  outer loop
   vertex 0.119215 0.114988 0
   vertex 0.117462 0.109824 0.5
   vertex 0.117462 0.109824 0
  endloop
 endfacet
 facet normal 0.932008 -0.362439 0
  outer loop
   vertex 0.117462 0.109824 0.5
   vertex 0.115485 0.104741 0.5
   vertex 0.117462 0.109824 0
  endloop
 endfacet
 facet normal 0.932008 -0.362439 0
  outer loop
   vertex 0.117462 0.109824 0
   vertex 0.115485 0.104741 0.5
   vertex 0.115485 0.104741 0
  endloop
 endfacet
 facet normal 0.915312 -0.402745 0
  outer loop
   vertex 0.115485 0.104741 0.5
   vertex 0.113288 0.0997492 0.5
   vertex 0.115485 0.104741 0
  endloop
 endfacet
 facet normal 0.915312 -0.402745 0
  outer loop
   vertex 0.115485 0.104741 0
   vertex 0.113288 0.0997492 0.5
   vertex 0.113288 0.0997492 0
  endloop
 endfacet
 facet normal 0.896872 -0.44229 0
  outer loop
   vertex 0.113288 0.0997492 0.5
   vertex 0.110876 0.0948579 0.5
   vertex 0.113288 0.0997492 0
  endloop
 endfacet
 facet normal 0.896872 -0.44229 0
  outer loop
   vertex 0.113288 0.0997492 0
   vertex 0.110876 0.0948579 0.5
   vertex 0.110876 0.0948579 0
  endloop
 endfacet
 facet normal 0.876727 -0.480989 0
  outer loop
   vertex 0.110876 0.0948579 0.5
   vertex 0.108253 0.0900764 0.5
   vertex 0.110876 0.0948579 0
  endloop
 endfacet
 facet normal 0.876727 -0.480989 0
  outer loop
   vertex 0.110876 0.0948579 0
   vertex 0.108253 0.0900764 0.5
   vertex 0.108253 0.0900764 0
  endloop
 endfacet
 facet normal 0.854912 -0.518773 0
  outer loop
   vertex 0.108253 0.0900764 0.5
   vertex 0.105424 0.085414 0.5
   vertex 0.108253 0.0900764 0
  endloop
 endfacet
 facet normal 0.854912 -0.518773 0
  outer loop
   vertex 0.108253 0.0900764 0
   vertex 0.105424 0.085414 0.5
   vertex 0.105424 0.085414 0
  endloop
 endfacet
 facet normal 0.83147 -0.55557 0
  outer loop
   vertex 0.105424 0.085414 0.5
   vertex 0.102394 0.0808794 0.5
   vertex 0.105424 0.085414 0
  endloop
 endfacet
 facet normal 0.83147 -0.55557 0
  outer loop
   vertex 0.105424 0.085414 0
   vertex 0.102394 0.0808794 0.5
   vertex 0.102394 0.0808794 0
  endloop
 endfacet
 facet normal 0.806444 -0.59131 0
  outer loop
   vertex 0.102394 0.0808794 0.5
   vertex 0.0991692 0.0764813 0.5
   vertex 0.102394 0.0808794 0
  endloop
 endfacet
 facet normal 0.806444 -0.59131 0
  outer loop
   vertex 0.102394 0.0808794 0
   vertex 0.0991692 0.0764813 0.5
   vertex 0.0991692 0.0764813 0
  endloop
 endfacet
 facet normal 0.779885 -0.625923 0
  outer loop
   vertex 0.0991692 0.0764813 0.5
   vertex 0.0957556 0.072228 0.5
   vertex 0.0991692 0.0764813 0
  endloop
 endfacet
 facet normal 0.779885 -0.625923 0
  outer loop
   vertex 0.0991692 0.0764813 0
   vertex 0.0957556 0.072228 0.5
   vertex 0.0957556 0.072228 0
  endloop
 endfacet
 facet normal 0.75184 -0.659346 0
  outer loop
   vertex 0.0957556 0.072228 0.5
   vertex 0.0921597 0.0681277 0.5
   vertex 0.0957556 0.072228 0
  endloop
 endfacet
 facet normal 0.75184 -0.659346 0
  outer loop
   vertex 0.0957556 0.072228 0
   vertex 0.0921597 0.0681277 0.5
   vertex 0.0921597 0.0681277 0
  endloop
 endfacet
 facet normal 0.722364 -0.691513 0
  outer loop
   vertex 0.0921597 0.0681277 0.5
   vertex 0.0883883 0.0641881 0.5
   vertex 0.0921597 0.0681277 0
  endloop
 endfacet
 facet normal 0.722364 -0.691513 0
  outer loop
   vertex 0.0921597 0.0681277 0
   vertex 0.0883883 0.0641881 0.5
   vertex 0.0883883 0.0641881 0
  endloop
 endfacet
 facet normal 0.691513 -0.722364 0
  outer loop
   vertex 0.0883883 0.0641881 0.5
   vertex 0.0844488 0.0604168 0.5
   vertex 0.0883883 0.0641881 0
  endloop
 endfacet
 facet normal 0.691513 -0.722364 0
  outer loop
   vertex 0.0883883 0.0641881 0
   vertex 0.0844488 0.0604168 0.5
   vertex 0.0844488 0.0604168 0
  endloop
 endfacet
 facet normal 0.659346 -0.75184 0
  outer loop
   vertex 0.0844488 0.0604168 0.5
   vertex 0.0803485 0.0568209 0.5
   vertex 0.0844488 0.0604168 0
  endloop
 endfacet
 facet normal 0.659346 -0.75184 0
  outer loop
   vertex 0.0844488 0.0604168 0
   vertex 0.0803485 0.0568209 0.5
   vertex 0.0803485 0.0568209 0
  endloop
 endfacet
 facet normal 0.625923 -0.779885 0
  outer loop
   vertex 0.0803485 0.0568209 0.5
   vertex 0.0760952 0.0534073 0.5
   vertex 0.0803485 0.0568209 0
  endloop
 endfacet
 facet normal 0.625923 -0.779885 0
  outer loop
   vertex 0.0803485 0.0568209 0
   vertex 0.0760952 0.0534073 0.5
   vertex 0.0760952 0.0534073 0
  endloop
 endfacet
 facet normal 0.59131 -0.806444 0
  outer loop
   vertex 0.0760952 0.0534073 0.5
   vertex 0.0716971 0.0501824 0.5
   vertex 0.0760952 0.0534073 0
  endloop
 endfacet
 facet normal 0.59131 -0.806444 0
  outer loop
   vertex 0.0760952 0.0534073 0
   vertex 0.0716971 0.0501824 0.5
   vertex 0.0716971 0.0501824 0
  endloop
 endfacet
 facet normal 0.55557 -0.83147 0
  outer loop
   vertex 0.0716971 0.0501824 0.5
   vertex 0.0671625 0.0471525 0.5
   vertex 0.0716971 0.0501824 0
  endloop
 endfacet
 facet normal 0.55557 -0.83147 0
  outer loop
   vertex 0.0716971 0.0501824 0
   vertex 0.0671625 0.0471525 0.5
   vertex 0.0671625 0.0471525 0
  endloop
 endfacet
 facet normal 0.518773 -0.854912 0
  outer loop
   vertex 0.0671625 0.0471525 0.5
   vertex 0.0625 0.0443233 0.5
   vertex 0.0671625 0.0471525 0
  endloop
 endfacet
 facet normal 0.518773 -0.854912 0
  outer loop
   vertex 0.0671625 0.0471525 0
   vertex 0.0625 0.0443233 0.5
   vertex 0.0625 0.0443233 0
  endloop
 endfacet
 facet normal 0.480989 -0.876727 0
  outer loop
   vertex 0.0625 0.0443233 0.5
   vertex 0.0577186 0.0417001 0.5
   vertex 0.0625 0.0443233 0
  endloop
 endfacet
 facet normal 0.480989 -0.876727 0
  outer loop
   vertex 0.0625 0.0443233 0
   vertex 0.0577186 0.0417001 0.5
   vertex 0.0577186 0.0417001 0
  endloop
 endfacet
 facet normal 0.44229 -0.896872 0
  outer loop
   vertex 0.0577186 0.0417001 0.5
   vertex 0.0528273 0.039288 0.5
   vertex 0.0577186 0.0417001 0
  endloop
 endfacet
 facet normal 0.44229 -0.896872 0
  outer loop
   vertex 0.0577186 0.0417001 0
   vertex 0.0528273 0.039288 0.5
   vertex 0.0528273 0.039288 0
  endloop
 endfacet
 facet normal 0.402745 -0.915312 0
  outer loop
   vertex 0.0528273 0.039288 0.5
   vertex 0.0478354 0.0370915 0.5
   vertex 0.0528273 0.039288 0
  endloop
 endfacet
 facet normal 0.402745 -0.915312 0
  outer loop
   vertex 0.0528273 0.039288 0
   vertex 0.0478354 0.0370915 0.5
   vertex 0.0478354 0.0370915 0
  endloop
 endfacet
 facet normal 0.362439 -0.932008 0
  outer loop
   vertex 0.0478354 0.0370915 0.5
   vertex 0.0427525 0.0351149 0.5
   vertex 0.0478354 0.0370915 0
  endloop
 endfacet
 facet normal 0.362439 -0.932008 0
  outer loop
   vertex 0.0478354 0.0370915 0
   vertex 0.0427525 0.0351149 0.5
   vertex 0.0427525 0.0351149 0
  endloop
 endfacet
 facet normal 0.321439 -0.94693 0
  outer loop
   vertex 0.0427525 0.0351149 0.5
   vertex 0.0375882 0.0333618 0.5
   vertex 0.0427525 0.0351149 0
  endloop
 endfacet
 facet normal 0.321439 -0.94693 0
  outer loop
   vertex 0.0427525 0.0351149 0
   vertex 0.0375882 0.0333618 0.5
   vertex 0.0375882 0.0333618 0
  endloop
 endfacet
 facet normal 0.279829 -0.96005 0
  outer loop
   vertex 0.0375882 0.0333618 0.5
   vertex 0.0323524 0.0318357 0.5
   vertex 0.0375882 0.0333618 0
  endloop
 endfacet
 facet normal 0.279829 -0.96005 0
  outer loop
   vertex 0.0375882 0.0333618 0
   vertex 0.0323524 0.0318357 0.5
   vertex 0.0323524 0.0318357 0
  endloop
 endfacet
 facet normal 0.237686 -0.971342 0
  outer loop
   vertex 0.0323524 0.0318357 0.5
   vertex 0.027055 0.0305394 0.5
   vertex 0.0323524 0.0318357 0
  endloop
 endfacet
 facet normal 0.237686 -0.971342 0
  outer loop
   vertex 0.0323524 0.0318357 0
   vertex 0.027055 0.0305394 0.5
   vertex 0.027055 0.0305394 0
  endloop
 endfacet
 facet normal 0.19509 -0.980785 0
  outer loop
   vertex 0.027055 0.0305394 0.5
   vertex 0.021706 0.0294755 0.5
   vertex 0.027055 0.0305394 0
  endloop
 endfacet
 facet normal 0.19509 -0.980785 0
  outer loop
   vertex 0.027055 0.0305394 0
   vertex 0.021706 0.0294755 0.5
   vertex 0.021706 0.0294755 0
  endloop
 endfacet
 facet normal 0.152124 -0.988361 0
  outer loop
   vertex 0.021706 0.0294755 0.5
   vertex 0.0163158 0.0286458 0.5
   vertex 0.021706 0.0294755 0
  endloop
 endfacet
 facet normal 0.152124 -0.988361 0
  outer loop
   vertex 0.021706 0.0294755 0
   vertex 0.0163158 0.0286458 0.5
   vertex 0.0163158 0.0286458 0
  endloop
 endfacet
 facet normal 0.108867 -0.994056 0
  outer loop
   vertex 0.0163158 0.0286458 0.5
   vertex 0.0108945 0.0280521 0.5
   vertex 0.0163158 0.0286458 0
  endloop
 endfacet
 facet normal 0.108867 -0.994056 0
  outer loop
   vertex 0.0163158 0.0286458 0
   vertex 0.0108945 0.0280521 0.5
   vertex 0.0108945 0.0280521 0
  endloop
 endfacet
 facet normal 0.0654029 -0.997859 0
  outer loop
   vertex 0.0108945 0.0280521 0.5
   vertex 0.00545242 0.0276954 0.5
   vertex 0.0108945 0.0280521 0
  endloop
 endfacet
 facet normal 0.0654029 -0.997859 0
  outer loop
   vertex 0.0108945 0.0280521 0
   vertex 0.00545242 0.0276954 0.5
   vertex 0.00545242 0.0276954 0
  endloop
 endfacet
 facet normal 0.0218146 -0.999762 0
  outer loop
   vertex 0.00545242 0.0276954 0.5
   vertex 2.29621e-17 0.0275764 0.5
   vertex 0.00545242 0.0276954 0
  endloop
 endfacet
 facet normal 0.0218146 -0.999762 0
  outer loop
   vertex 0.00545242 0.0276954 0
   vertex 2.29621e-17 0.0275764 0.5
   vertex 2.29621e-17 0.0275764 0
  endloop
 endfacet
 facet normal -0.0218146 -0.999762 -0
  outer loop
   vertex 2.29621e-17 0.0275764 0.5
   vertex -0.00545242 0.0276954 0.5
   vertex 2.29621e-17 0.0275764 0
  endloop
 endfacet
 facet normal -0.0218146 -0.999762 0
  outer loop
   vertex 2.29621e-17 0.0275764 0
   vertex -0.00545242 0.0276954 0.5
   vertex -0.00545242 0.0276954 0
  endloop
 endfacet
 facet normal -0.0654029 -0.997859 -0
  outer loop
   vertex -0.00545242 0.0276954 0.5
   vertex -0.0108945 0.0280521 0.5
   vertex -0.00545242 0.0276954 0
  endloop
 endfacet
 facet normal -0.0654029 -0.997859 0
  outer loop
   vertex -0.00545242 0.0276954 0
   vertex -0.0108945 0.0280521 0.5
   vertex -0.0108945 0.0280521 0
  endloop
 endfacet
 facet normal -0.108867 -0.994056 -0
  outer loop
   vertex -0.0108945 0.0280521 0.5
   vertex -0.0163158 0.0286458 0.5
   vertex -0.0108945 0.0280521 0
  endloop
 endfacet
 facet normal -0.108867 -0.994056 0
  outer loop
   vertex -0.0108945 0.0280521 0
   vertex -0.0163158 0.0286458 0.5
   vertex -0.0163158 0.0286458 0
  endloop
 endfacet
 facet normal -0.152124 -0.988361 -0
  outer loop
   vertex -0.0163158 0.0286458 0.5
   vertex -0.021706 0.0294755 0.5
   vertex -0.0163158 0.0286458 0
  endloop
 endfacet
 facet normal -0.152124 -0.988361 0
  outer loop
   vertex -0.0163158 0.0286458 0
   vertex -0.021706 0.0294755 0.5
   vertex -0.021706 0.0294755 0
  endloop
 endfacet
 facet normal -0.19509 -0.980785 -0
  outer loop
   vertex -0.021706 0.0294755 0.5
   vertex -0.027055 0.0305394 0.5
   vertex -0.021706 0.0294755 0
  endloop
 endfacet
 facet normal -0.19509 -0.980785 0
  outer loop
   vertex -0.021706 0.0294755 0
   vertex -0.027055 0.0305394 0.5
   vertex -0.027055 0.0305394 0
  endloop
 endfacet
 facet normal -0.237686 -0.971342 -0
  outer loop
   vertex -0.027055 0.0305394 0.5
   vertex -0.0323524 0.0318357 0.5
   vertex -0.027055 0.0305394 0
  endloop
 endfacet
 facet normal -0.237686 -0.971342 0
  outer loop
   vertex -0.027055 0.0305394 0
   vertex -0.0323524 0.0318357 0.5
   vertex -0.0323524 0.0318357 0
  endloop
 endfacet
 facet normal -0.279829 -0.96005 -0
  outer loop
   vertex -0.0323524 0.0318357 0.5
   vertex -0.0375882 0.0333618 0.5
   vertex -0.0323524 0.0318357 0
  endloop
 endfacet
 facet normal -0.279829 -0.96005 0
  outer loop
   vertex -0.0323524 0.0318357 0
   vertex -0.0375882 0.0333618 0.5
   vertex -0.0375882 0.0333618 0
  endloop
 endfacet
 facet normal -0.321439 -0.94693 -0
  outer loop
   vertex -0.0375882 0.0333618 0.5
   vertex -0.0427525 0.0351149 0.5
   vertex -0.0375882 0.0333618 0
  endloop
 endfacet
 facet normal -0.321439 -0.94693 0
  outer loop
   vertex -0.0375882 0.0333618 0
   vertex -0.0427525 0.0351149 0.5
   vertex -0.0427525 0.0351149 0
  endloop
 endfacet
 facet normal -0.362439 -0.932008 -0
  outer loop
   vertex -0.0427525 0.0351149 0.5
   vertex -0.0478354 0.0370915 0.5
   vertex -0.0427525 0.0351149 0
  endloop
 endfacet
 facet normal -0.362439 -0.932008 0
  outer loop
   vertex -0.0427525 0.0351149 0
   vertex -0.0478354 0.0370915 0.5
   vertex -0.0478354 0.0370915 0
  endloop
 endfacet
 facet normal -0.402745 -0.915312 -0
  outer loop
   vertex -0.0478354 0.0370915 0.5
   vertex -0.0528273 0.039288 0.5
   vertex -0.0478354 0.0370915 0
  endloop
 endfacet
 facet normal -0.402745 -0.915312 0
  outer loop
   vertex -0.0478354 0.0370915 0
   vertex -0.0528273 0.039288 0.5
   vertex -0.0528273 0.039288 0
  endloop
 endfacet
 facet normal -0.44229 -0.896872 -0
  outer loop
   vertex -0.0528273 0.039288 0.5
   vertex -0.0577186 0.0417001 0.5
   vertex -0.0528273 0.039288 0
  endloop
 endfacet
 facet normal -0.44229 -0.896872 0
  outer loop
   vertex -0.0528273 0.039288 0
   vertex -0.0577186 0.0417001 0.5
   vertex -0.0577186 0.0417001 0
  endloop
 endfacet
 facet normal -0.480989 -0.876727 -0
  outer loop
   vertex -0.0577186 0.0417001 0.5
   vertex -0.0625 0.0443233 0.5
   vertex -0.0577186 0.0417001 0
  endloop
 endfacet
 facet normal -0.480989 -0.876727 0
  outer loop
   vertex -0.0577186 0.0417001 0
   vertex -0.0625 0.0443233 0.5
   vertex -0.0625 0.0443233 0
  endloop
 endfacet
 facet normal -0.518773 -0.854912 -0
  outer loop
   vertex -0.0625 0.0443233 0.5
   vertex -0.0671625 0.0471525 0.5
   vertex -0.0625 0.0443233 0
  endloop
 endfacet
 facet normal -0.518773 -0.854912 0
  outer loop
   vertex -0.0625 0.0443233 0
   vertex -0.0671625 0.0471525 0.5
   vertex -0.0671625 0.0471525 0
  endloop
 endfacet
 facet normal -0.55557 -0.83147 -0
  outer loop
   vertex -0.0671625 0.0471525 0.5
   vertex -0.0716971 0.0501824 0.5
   vertex -0.0671625 0.0471525 0
  endloop
 endfacet
 facet normal -0.55557 -0.83147 0
  outer loop
   vertex -0.0671625 0.0471525 0
   vertex -0.0716971 0.0501824 0.5
   vertex -0.0716971 0.0501824 0
  endloop
 endfacet
 facet normal -0.59131 -0.806444 -0
  outer loop
   vertex -0.0716971 0.0501824 0.5
   vertex -0.0760952 0.0534073 0.5
   vertex -0.0716971 0.0501824 0
  endloop
 endfacet
 facet normal -0.59131 -0.806444 0
  outer loop
   vertex -0.0716971 0.0501824 0
   vertex -0.0760952 0.0534073 0.5
   vertex -0.0760952 0.0534073 0
  endloop
 endfacet
 facet normal -0.625923 -0.779885 -0
  outer loop
   vertex -0.0760952 0.0534073 0.5
   vertex -0.0803485 0.0568209 0.5
   vertex -0.0760952 0.0534073 0
  endloop
 endfacet
 facet normal -0.625923 -0.779885 0
  outer loop
   vertex -0.0760952 0.0534073 0
   vertex -0.0803485 0.0568209 0.5
   vertex -0.0803485 0.0568209 0
  endloop
 endfacet
 facet normal -0.659346 -0.75184 -0
  outer loop
   vertex -0.0803485 0.0568209 0.5
   vertex -0.0844488 0.0604168 0.5
   vertex -0.0803485 0.0568209 0
  endloop
 endfacet
 facet normal -0.659346 -0.75184 0
  outer loop
   vertex -0.0803485 0.0568209 0
   vertex -0.0844488 0.0604168 0.5
   vertex -0.0844488 0.0604168 0
  endloop
 endfacet
 facet normal -0.691513 -0.722364 -0
  outer loop
   vertex -0.0844488 0.0604168 0.5
   vertex -0.0883883 0.0641881 0.5
   vertex -0.0844488 0.0604168 0
  endloop
 endfacet
 facet normal -0.691513 -0.722364 0
  outer loop
   vertex -0.0844488 0.0604168 0
   vertex -0.0883883 0.0641881 0.5
   vertex -0.0883883 0.0641881 0
  endloop
 endfacet
 facet normal -0.722364 -0.691513 -0
  outer loop
   vertex -0.0883883 0.0641881 0.5
   vertex -0.0921597 0.0681277 0.5
   vertex -0.0883883 0.0641881 0
  endloop
 endfacet
 facet normal -0.722364 -0.691513 0
  outer loop
   vertex -0.0883883 0.0641881 0
   vertex -0.0921597 0.0681277 0.5
   vertex -0.0921597 0.0681277 0
  endloop
 endfacet
 facet normal -0.75184 -0.659346 -0
  outer loop
   vertex -0.0921597 0.0681277 0.5
   vertex -0.0957556 0.072228 0.5
   vertex -0.0921597 0.0681277 0
  endloop
 endfacet
 facet normal -0.75184 -0.659346 0
  outer loop
   vertex -0.0921597 0.0681277 0
   vertex -0.0957556 0.072228 0.5
   vertex -0.0957556 0.072228 0
  endloop
 endfacet
 facet normal -0.779885 -0.625923 -0
  outer loop
   vertex -0.0957556 0.072228 0.5
   vertex -0.0991692 0.0764813 0.5
   vertex -0.0957556 0.072228 0
  endloop
 endfacet
 facet normal -0.779885 -0.625923 0
  outer loop
   vertex -0.0957556 0.072228 0
   vertex -0.0991692 0.0764813 0.5
   vertex -0.0991692 0.0764813 0
  endloop
 endfacet
 facet normal -0.806444 -0.59131 -0
  outer loop
   vertex -0.0991692 0.0764813 0.5
   vertex -0.102394 0.0808794 0.5
   vertex -0.0991692 0.0764813 0
  endloop
 endfacet
 facet normal -0.806444 -0.59131 0
  outer loop
   vertex -0.0991692 0.0764813 0
   vertex -0.102394 0.0808794 0.5
   vertex -0.102394 0.0808794 0
  endloop
 endfacet
 facet normal -0.83147 -0.55557 -0
  outer loop
   vertex -0.102394 0.0808794 0.5
   vertex -0.105424 0.085414 0.5
   vertex -0.102394 0.0808794 0
  endloop
 endfacet
 facet normal -0.83147 -0.55557 0
  outer loop
   vertex -0.102394 0.0808794 0
   vertex -0.105424 0.085414 0.5
   vertex -0.105424 0.085414 0
  endloop
 endfacet
 facet normal -0.854912 -0.518773 -0
  outer loop
   vertex -0.105424 0.085414 0.5
   vertex -0.108253 0.0900764 0.5
   vertex -0.105424 0.085414 0
  endloop
 endfacet
 facet normal -0.854912 -0.518773 0
  outer loop
   vertex -0.105424 0.085414 0
   vertex -0.108253 0.0900764 0.5
   vertex -0.108253 0.0900764 0
  endloop
 endfacet
 facet normal -0.876727 -0.480989 -0
  outer loop
   vertex -0.108253 0.0900764 0.5
   vertex -0.110876 0.0948579 0.5
   vertex -0.108253 0.0900764 0
  endloop
 endfacet
 facet normal -0.876727 -0.480989 0
  outer loop
   vertex -0.108253 0.0900764 0
   vertex -0.110876 0.0948579 0.5
   vertex -0.110876 0.0948579 0
  endloop
 endfacet
 facet normal -0.896872 -0.44229 -0
  outer loop
   vertex -0.110876 0.0948579 0.5
   vertex -0.113288 0.0997492 0.5
   vertex -0.110876 0.0948579 0
  endloop
 endfacet
 facet normal -0.896872 -0.44229 0
  outer loop
   vertex -0.110876 0.0948579 0
   vertex -0.113288 0.0997492 0.5
   vertex -0.113288 0.0997492 0
  endloop
 endfacet
 facet normal -0.915312 -0.402745 -0
  outer loop
   vertex -0.113288 0.0997492 0.5
   vertex -0.115485 0.104741 0.5
   vertex -0.113288 0.0997492 0
  endloop
 endfacet
 facet normal -0.915312 -0.402745 0
  outer loop
   vertex -0.113288 0.0997492 0
   vertex -0.115485 0.104741 0.5
   vertex -0.115485 0.104741 0
  endloop
 endfacet
 facet normal -0.932008 -0.362439 -0
  outer loop
   vertex -0.115485 0.104741 0.5
   vertex -0.117462 0.109824 0.5
   vertex -0.115485 0.104741 0
  endloop
 endfacet
 facet normal -0.932008 -0.362439 0
  outer loop
   vertex -0.115485 0.104741 0
   vertex -0.117462 0.109824 0.5
   vertex -0.117462 0.109824 0
  endloop
 endfacet
 facet normal -0.94693 -0.321439 -0
  outer loop
   vertex -0.117462 0.109824 0.5
   vertex -0.119215 0.114988 0.5
   vertex -0.117462 0.109824 0
  endloop
 endfacet
 facet normal -0.94693 -0.321439 0
  outer loop
   vertex -0.117462 0.109824 0
   vertex -0.119215 0.114988 0.5
   vertex -0.119215 0.114988 0
  endloop
 endfacet
 facet normal -0.96005 -0.279829 -0
  outer loop
   vertex -0.119215 0.114988 0.5
   vertex -0.120741 0.120224 0.5
   vertex -0.119215 0.114988 0
  endloop
 endfacet
 facet normal -0.96005 -0.279829 0
  outer loop
   vertex -0.119215 0.114988 0
   vertex -0.120741 0.120224 0.5
   vertex -0.120741 0.120224 0
  endloop
 endfacet
 facet normal -0.971342 -0.237686 -0
  outer loop
   vertex -0.120741 0.120224 0.5
   vertex -0.122037 0.125521 0.5
   vertex -0.120741 0.120224 0
  endloop
 endfacet
 facet normal -0.971342 -0.237686 0
  outer loop
   vertex -0.120741 0.120224 0
   vertex -0.122037 0.125521 0.5
   vertex -0.122037 0.125521 0
  endloop
 endfacet
 facet normal -0.980785 -0.19509 -0
  outer loop
   vertex -0.122037 0.125521 0.5
   vertex -0.123101 0.13087 0.5
   vertex -0.122037 0.125521 0
  endloop
 endfacet
 facet normal -0.980785 -0.19509 0
  outer loop
   vertex -0.122037 0.125521 0
   vertex -0.123101 0.13087 0.5
   vertex -0.123101 0.13087 0
  endloop
 endfacet
 facet normal -0.988361 -0.152124 -0
  outer loop
   vertex -0.123101 0.13087 0.5
   vertex -0.123931 0.136261 0.5
   vertex -0.123101 0.13087 0
  endloop
 endfacet
 facet normal -0.988361 -0.152124 0
  outer loop
   vertex -0.123101 0.13087 0
   vertex -0.123931 0.136261 0.5
   vertex -0.123931 0.136261 0
  endloop
 endfacet
 facet normal -0.994056 -0.108867 -0
  outer loop
   vertex -0.123931 0.136261 0.5
   vertex -0.124524 0.141682 0.5
   vertex -0.123931 0.136261 0
  endloop
 endfacet
 facet normal -0.994056 -0.108867 0
  outer loop
   vertex -0.123931 0.136261 0
   vertex -0.124524 0.141682 0.5
   vertex -0.124524 0.141682 0
  endloop
 endfacet
 facet normal -0.997859 -0.0654029 -0
  outer loop
   vertex -0.124524 0.141682 0.5
   vertex -0.124881 0.147124 0.5
   vertex -0.124524 0.141682 0
  endloop
 endfacet
 facet normal -0.997859 -0.0654029 0
  outer loop
   vertex -0.124524 0.141682 0
   vertex -0.124881 0.147124 0.5
   vertex -0.124881 0.147124 0
  endloop
 endfacet
 facet normal -0.999762 -0.0218146 -0
  outer loop
   vertex -0.124881 0.147124 0.5
   vertex -0.125 0.152576 0.5
   vertex -0.124881 0.147124 0
  endloop
 endfacet
 facet normal -0.999762 -0.0218146 0
  outer loop
   vertex -0.124881 0.147124 0
   vertex -0.125 0.152576 0.5
   vertex -0.125 0.152576 0
  endloop
 endfacet
 facet normal -0.999762 0.0218146 0
  outer loop
   vertex -0.125 0.152576 0.5
   vertex -0.124881 0.158029 0.5
   vertex -0.125 0.152576 0
  endloop
 endfacet
 facet normal 0 -0 1
  outer loop
   vertex 0.124524 0.141682 0.5
   vertex 0.124881 0.147124 0.5
   vertex 0 0.152576 0.5
  endloop
 endfacet
 facet normal 0 -0 1
  outer loop
   vertex 0.124881 0.147124 0.5
   vertex 0.125 0.152576 0.5
   vertex 0 0.152576 0.5
  endloop
 endfacet
 facet normal 0 0 1
  outer loop
   vertex 0 0.152576 0.5
   vertex 0.125 0.152576 0.5
   vertex 0.124881 0.158029 0.5
  endloop
 endfacet
 facet normal 0 -0 1
  outer loop
   vertex 0.122037 0.125521 0.5
   vertex 0.123101 0.13087 0.5
   vertex 0 0.152576 0.5
  endloop
 endfacet
 facet normal 0 -0 1
  outer loop
   vertex 0.123101 0.13087 0.5
   vertex 0.123931 0.136261 0.5
   vertex 0 0.152576 0.5
  endloop
 endfacet
 facet normal 0 0 1
  outer loop
   vertex 0 0.152576 0.5
   vertex 0.123931 0.136261 0.5
   vertex 0.124524 0.141682 0.5
  endloop
 endfacet
 facet normal 0 -0 1
  outer loop
   vertex 0.117462 0.109824 0.5
   vertex 0.119215 0.114988 0.5
   vertex 0 0.152576 0.5
  endloop
 endfacet
 facet normal 0 -0 1
  outer loop
   vertex 0.119215 0.114988 0.5
   vertex 0.120741 0.120224 0.5
   vertex 0 0.152576 0.5
  endloop
 endfacet
 facet normal 0 0 1
  outer loop
   vertex 0 0.152576 0.5
   vertex 0.120741 0.120224 0.5
   vertex 0.122037 0.125521 0.5
  endloop
 endfacet
 facet normal 0 -0 1
  outer loop
   vertex 0.110876 0.0948579 0.5
   vertex 0.113288 0.0997492 0.5
   vertex 0 0.152576 0.5
  endloop
 endfacet
 facet normal 0 -0 1
  outer loop
   vertex 0.113288 0.0997492 0.5
   vertex 0.115485 0.104741 0.5
   vertex 0 0.152576 0.5
  endloop
 endfacet
 facet normal 0 0 1
  outer loop
   vertex 0 0.152576 0.5
   vertex 0.115485 0.104741 0.5
   vertex 0.117462 0.109824 0.5
  endloop
 endfacet
 facet normal 0 -0 1
  outer loop
   vertex 0.102394 0.0808794 0.5
   vertex 0.105424 0.085414 0.5
   vertex 0 0.152576 0.5
  endloop
 endfacet
 facet normal 0 -0 1
  outer loop
   vertex 0.105424 0.085414 0.5
   vertex 0.108253 0.0900764 0.5
   vertex 0 0.152576 0.5
  endloop
 endfacet
 facet normal 0 0 1
  outer loop
   vertex 0 0.152576 0.5
   vertex 0.108253 0.0900764 0.5
   vertex 0.110876 0.0948579 0.5
  endloop
 endfacet
 facet normal 0 -0 1
  outer loop
   vertex 0.0921597 0.0681277 0.5
   vertex 0.0957556 0.072228 0.5
   vertex 0 0.152576 0.5
  endloop
 endfacet
 facet normal 0 -0 1
  outer loop
   vertex 0.0957556 0.072228 0.5
   vertex 0.0991692 0.0764813 0.5
   vertex 0 0.152576 0.5
  endloop
 endfacet
 facet normal 0 0 1
  outer loop
   vertex 0 0.152576 0.5
   vertex 0.0991692 0.0764813 0.5
   vertex 0.102394 0.0808794 0.5
  endloop
 endfacet
 facet normal 0 -0 1
  outer loop
   vertex 0.0803485 0.0568209 0.5
   vertex 0.0844488 0.0604168 0.5
   vertex 0 0.152576 0.5
  endloop
 endfacet
 facet normal 0 -0 1
  outer loop
   vertex 0.0844488 0.0604168 0.5
   vertex 0.0883883 0.0641881 0.5
   vertex 0 0.152576 0.5
  endloop
 endfacet
 facet normal 0 0 1
  outer loop
   vertex 0 0.152576 0.5
   vertex 0.0883883 0.0641881 0.5
   vertex 0.0921597 0.0681277 0.5
  endloop
 endfacet
 facet normal 0 -0 1
  outer loop
   vertex 0.0671625 0.0471525 0.5
   vertex 0.0716971 0.0501824 0.5
   vertex 0 0.152576 0.5
  endloop
 endfacet
 facet normal 0 -0 1
  outer loop
   vertex 0.0716971 0.0501824 0.5
   vertex 0.0760952 0.0534073 0.5
   vertex 0 0.152576 0.5
  endloop
 endfacet
 facet normal 0 0 1
  outer loop
   vertex 0 0.152576 0.5
   vertex 0.0760952 0.0534073 0.5
   vertex 0.0803485 0.0568209 0.5
  endloop
 endfacet
 facet normal 0 -0 1
  outer loop
   vertex 0.0528273 0.039288 0.5
   vertex 0.0577186 0.0417001 0.5
   vertex 0 0.152576 0.5
  endloop
 endfacet
 facet normal 0 -0 1
  outer loop
   vertex 0.0577186 0.0417001 0.5
   vertex 0.0625 0.0443233 0.5
   vertex 0 0.152576 0.5
  endloop
 endfacet
 facet normal 0 0 1
  outer loop
   vertex 0 0.152576 0.5
   vertex 0.0625 0.0443233 0.5
   vertex 0.0671625 0.0471525 0.5
  endloop
 endfacet
 facet normal 0 -0 1
  outer loop
   vertex 0.0375882 0.0333618 0.5
   vertex 0.0427525 0.0351149 0.5
   vertex 0 0.152576 0.5
  endloop
 endfacet
 facet normal 0 -0 1
  outer loop
   vertex 0.0427525 0.0351149 0.5
   vertex 0.0478354 0.0370915 0.5
   vertex 0 0.152576 0.5
  endloop
 endfacet
 facet normal 0 0 1
  outer loop
   vertex 0 0.152576 0.5
   vertex 0.0478354 0.0370915 0.5
   vertex 0.0528273 0.039288 0.5
  endloop
 endfacet
 facet normal 0 -0 1
  outer loop
   vertex 0.021706 0.0294755 0.5
   vertex 0.027055 0.0305394 0.5
   vertex 0 0.152576 0.5
  endloop
 endfacet
 facet normal 0 -0 1
  outer loop
   vertex 0.027055 0.0305394 0.5
   vertex 0.0323524 0.0318357 0.5
   vertex 0 0.152576 0.5
  endloop
 endfacet
 facet normal 0 0 1
  outer loop
   vertex 0 0.152576 0.5
   vertex 0.0323524 0.0318357 0.5
   vertex 0.0375882 0.0333618 0.5
  endloop
 endfacet
 facet normal 0 -0 1
  outer loop
   vertex 0.00545242 0.0276954 0.5
   vertex 0.0108945 0.0280521 0.5
   vertex 0 0.152576 0.5
  endloop
 endfacet
 facet normal 0 -0 1
  outer loop
   vertex 0.0108945 0.0280521 0.5
   vertex 0.0163158 0.0286458 0.5
   vertex 0 0.152576 0.5
  endloop
 endfacet
 facet normal 0 0 1
  outer loop
   vertex 0 0.152576 0.5
   vertex 0.0163158 0.0286458 0.5
   vertex 0.021706 0.0294755 0.5
  endloop
 endfacet
 facet normal -0 0 1
  outer loop
   vertex -0.0108945 0.0280521 0.5
   vertex -0.00545242 0.0276954 0.5
   vertex 0 0.152576 0.5
  endloop
 endfacet
 facet normal -0 0 1
  outer loop
   vertex -0.00545242 0.0276954 0.5
   vertex 2.29621e-17 0.0275764 0.5
   vertex 0 0.152576 0.5
  endloop
 endfacet
 facet normal 0 0 1
  outer loop
   vertex 0 0.152576 0.5
   vertex 2.29621e-17 0.0275764 0.5
   vertex 0.00545242 0.0276954 0.5
  endloop
 endfacet
 facet normal -0 0 1
  outer loop
   vertex -0.027055 0.0305394 0.5
   vertex -0.021706 0.0294755 0.5
   vertex 0 0.152576 0.5
  endloop
 endfacet
 facet normal -0 0 1
  outer loop
   vertex -0.021706 0.0294755 0.5
   vertex -0.0163158 0.0286458 0.5
   vertex 0 0.152576 0.5
  endloop
 endfacet
 facet normal 0 0 1
  outer loop
   vertex 0 0.152576 0.5
   vertex -0.0163158 0.0286458 0.5
   vertex -0.0108945 0.0280521 0.5
  endloop
 endfacet
 facet normal -0 0 1
  outer loop
   vertex -0.0427525 0.0351149 0.5
   vertex -0.0375882 0.0333618 0.5
   vertex 0 0.152576 0.5
  endloop
 endfacet
 facet normal -0 0 1
  outer loop
   vertex -0.0375882 0.0333618 0.5
   vertex -0.0323524 0.0318357 0.5
   vertex 0 0.152576 0.5
  endloop
 endfacet
 facet normal 0 0 1
  outer loop
   vertex 0 0.152576 0.5
   vertex -0.0323524 0.0318357 0.5
   vertex -0.027055 0.0305394 0.5
  endloop
 endfacet
 facet normal -0 0 1
  outer loop
   vertex -0.0577186 0.0417001 0.5
   vertex -0.0528273 0.039288 0.5
   vertex 0 0.152576 0.5
  endloop
 endfacet
 facet normal -0 0 1
  outer loop
   vertex -0.0528273 0.039288 0.5
   vertex -0.0478354 0.0370915 0.5
   vertex 0 0.152576 0.5
  endloop
 endfacet
 facet normal 0 0 1
  outer loop
   vertex 0 0.152576 0.5
   vertex -0.0478354 0.0370915 0.5
   vertex -0.0427525 0.0351149 0.5
  endloop
 endfacet
 facet normal -0 0 1
  outer loop
   vertex -0.0716971 0.0501824 0.5
   vertex -0.0671625 0.0471525 0.5
   vertex 0 0.152576 0.5
  endloop
 endfacet
 facet normal -0 0 1
  outer loop
   vertex -0.0671625 0.0471525 0.5
   vertex -0.0625 0.0443233 0.5
   vertex 0 0.152576 0.5
  endloop
 endfacet
 facet normal 0 0 1
  outer loop
   vertex 0 0.152576 0.5
   vertex -0.0625 0.0443233 0.5
   vertex -0.0577186 0.0417001 0.5
  endloop
 endfacet
 facet normal -0 0 1
  outer loop
   vertex -0.0844488 0.0604168 0.5
   vertex -0.0803485 0.0568209 0.5
   vertex 0 0.152576 0.5
  endloop
 endfacet
 facet normal -0 0 1
  outer loop
   vertex -0.0803485 0.0568209 0.5
   vertex -0.0760952 0.0534073 0.5
   vertex 0 0.152576 0.5
  endloop
 endfacet
 facet normal 0 0 1
  outer loop
   vertex 0 0.152576 0.5
   vertex -0.0760952 0.0534073 0.5
   vertex -0.0716971 0.0501824 0.5
  endloop
 endfacet
 facet normal -0 0 1
  outer loop
   vertex -0.0957556 0.072228 0.5
   vertex -0.0921597 0.0681277 0.5
   vertex 0 0.152576 0.5
  endloop
 endfacet
 facet normal -0 0 1
  outer loop
   vertex -0.0921597 0.0681277 0.5
   vertex -0.0883883 0.0641881 0.5
   vertex 0 0.152576 0.5
  endloop
 endfacet
 facet normal 0 0 1
  outer loop
   vertex 0 0.152576 0.5
   vertex -0.0883883 0.0641881 0.5
   vertex -0.0844488 0.0604168 0.5
  endloop
 endfacet
 facet normal -0 0 1
  outer loop
   vertex -0.105424 0.085414 0.5
   vertex -0.102394 0.0808794 0.5
   vertex 0 0.152576 0.5
  endloop
 endfacet
 facet normal -0 0 1
  outer loop
   vertex -0.102394 0.0808794 0.5
   vertex -0.0991692 0.0764813 0.5
   vertex 0 0.152576 0.5
  endloop
 endfacet
 facet normal 0 0 1
  outer loop
   vertex 0 0.152576 0.5
   vertex -0.0991692 0.0764813 0.5
   vertex -0.0957556 0.072228 0.5
  endloop
 endfacet
 facet normal -0 0 1
  outer loop
   vertex -0.113288 0.0997492 0.5
   vertex -0.110876 0.0948579 0.5
   vertex 0 0.152576 0.5
  endloop
 endfacet
 facet normal -0 0 1
  outer loop
   vertex -0.110876 0.0948579 0.5
   vertex -0.108253 0.0900764 0.5
   vertex 0 0.152576 0.5
  endloop
 endfacet
 facet normal 0 0 1
  outer loop
   vertex 0 0.152576 0.5
   vertex -0.108253 0.0900764 0.5
   vertex -0.105424 0.085414 0.5
  endloop
 endfacet
 facet normal -0 0 1
  outer loop
   vertex -0.119215 0.114988 0.5
   vertex -0.117462 0.109824 0.5
   vertex 0 0.152576 0.5
  endloop
 endfacet
 facet normal -0 0 1
  outer loop
   vertex -0.117462 0.109824 0.5
   vertex -0.115485 0.104741 0.5
   vertex 0 0.152576 0.5
  endloop
 endfacet
 facet normal 0 0 1
  outer loop
   vertex 0 0.152576 0.5
   vertex -0.115485 0.104741 0.5
   vertex -0.113288 0.0997492 0.5
  endloop
 endfacet
 facet normal -0 0 1
  outer loop
   vertex -0.123101 0.13087 0.5
   vertex -0.122037 0.125521 0.5
   vertex 0 0.152576 0.5
  endloop
 endfacet
 facet normal -0 0 1
  outer loop
   vertex -0.122037 0.125521 0.5
   vertex -0.120741 0.120224 0.5
   vertex 0 0.152576 0.5
  endloop
 endfacet
 facet normal 0 0 1
  outer loop
   vertex 0 0.152576 0.5
   vertex -0.120741 0.120224 0.5
   vertex -0.119215 0.114988 0.5
  endloop
 endfacet
 facet normal -0 0 1
  outer loop
   vertex -0.124881 0.147124 0.5
   vertex -0.124524 0.141682 0.5
   vertex 0 0.152576 0.5
  endloop
 endfacet
 facet normal -0 0 1
  outer loop
   vertex -0.124524 0.141682 0.5
   vertex -0.123931 0.136261 0.5
   vertex 0 0.152576 0.5
  endloop
 endfacet
 facet normal 0 0 1
  outer loop
   vertex 0 0.152576 0.5
   vertex -0.123931 0.136261 0.5
   vertex -0.123101 0.13087 0.5
  endloop
 endfacet
 facet normal 0 0 1
  outer loop
   vertex -0.124524 0.163471 0.5
   vertex -0.124881 0.158029 0.5
   vertex 0 0.152576 0.5
  endloop
 endfacet
 facet normal 0 0 1
  outer loop
   vertex -0.124881 0.158029 0.5
   vertex -0.125 0.152576 0.5
   vertex 0 0.152576 0.5
  endloop
 endfacet
 facet normal 0 0 1
  outer loop
   vertex 0 0.152576 0.5
   vertex -0.125 0.152576 0.5
   vertex -0.124881 0.147124 0.5
  endloop
 endfacet
 facet normal 0 0 1
  outer loop
   vertex -0.122037 0.179631 0.5
   vertex -0.123101 0.174282 0.5
   vertex 0 0.152576 0.5
  endloop
 endfacet
 facet normal 0 0 1
  outer loop
   vertex -0.123101 0.174282 0.5
   vertex -0.123931 0.168892 0.5
   vertex 0 0.152576 0.5
  endloop
 endfacet
 facet normal 0 0 1
  outer loop
   vertex 0 0.152576 0.5
   vertex -0.123931 0.168892 0.5
   vertex -0.124524 0.163471 0.5
  endloop
 endfacet
 facet normal 0 0 1
  outer loop
   vertex -0.117462 0.195329 0.5
   vertex -0.119215 0.190165 0.5
   vertex 0 0.152576 0.5
  endloop
 endfacet
 facet normal 0 0 1
  outer loop
   vertex -0.119215 0.190165 0.5
   vertex -0.120741 0.184929 0.5
   vertex 0 0.152576 0.5
  endloop
 endfacet
 facet normal 0 0 1
  outer loop
   vertex 0 0.152576 0.5
   vertex -0.120741 0.184929 0.5
   vertex -0.122037 0.179631 0.5
  endloop
 endfacet
 facet normal 0 0 1
  outer loop
   vertex -0.110876 0.210295 0.5
   vertex -0.113288 0.205404 0.5
   vertex 0 0.152576 0.5
  endloop
 endfacet
 facet normal 0 0 1
  outer loop
   vertex -0.113288 0.205404 0.5
   vertex -0.115485 0.200412 0.5
   vertex 0 0.152576 0.5
  endloop
 endfacet
 facet normal 0 0 1
  outer loop
   vertex 0 0.152576 0.5
   vertex -0.115485 0.200412 0.5
   vertex -0.117462 0.195329 0.5
  endloop
 endfacet
 facet normal 0 0 1
  outer loop
   vertex -0.102394 0.224274 0.5
   vertex -0.105424 0.219739 0.5
   vertex 0 0.152576 0.5
  endloop
 endfacet
 facet normal 0 0 1
  outer loop
   vertex -0.105424 0.219739 0.5
   vertex -0.108253 0.215076 0.5
   vertex 0 0.152576 0.5
  endloop
 endfacet
 facet normal 0 0 1
  outer loop
   vertex 0 0.152576 0.5
   vertex -0.108253 0.215076 0.5
   vertex -0.110876 0.210295 0.5
  endloop
 endfacet
 facet normal 0 0 1
  outer loop
   vertex -0.0921597 0.237025 0.5
   vertex -0.0957556 0.232925 0.5
   vertex 0 0.152576 0.5
  endloop
 endfacet
 facet normal 0 0 1
  outer loop
   vertex -0.0957556 0.232925 0.5
   vertex -0.0991692 0.228672 0.5
   vertex 0 0.152576 0.5
  endloop
 endfacet
 facet normal 0 0 1
  outer loop
   vertex 0 0.152576 0.5
   vertex -0.0991692 0.228672 0.5
   vertex -0.102394 0.224274 0.5
  endloop
 endfacet
 facet normal 0 0 1
  outer loop
   vertex -0.0803485 0.248332 0.5
   vertex -0.0844488 0.244736 0.5
   vertex 0 0.152576 0.5
  endloop
 endfacet
 facet normal 0 0 1
  outer loop
   vertex -0.0844488 0.244736 0.5
   vertex -0.0883883 0.240965 0.5
   vertex 0 0.152576 0.5
  endloop
 endfacet
 facet normal 0 0 1
  outer loop
   vertex 0 0.152576 0.5
   vertex -0.0883883 0.240965 0.5
   vertex -0.0921597 0.237025 0.5
  endloop
 endfacet
 facet normal 0 0 1
  outer loop
   vertex -0.0671625 0.258 0.5
   vertex -0.0716971 0.25497 0.5
   vertex 0 0.152576 0.5
  endloop
 endfacet
 facet normal 0 0 1
  outer loop
   vertex -0.0716971 0.25497 0.5
   vertex -0.0760952 0.251746 0.5
   vertex 0 0.152576 0.5
  endloop
 endfacet
 facet normal 0 0 1
  outer loop
   vertex 0 0.152576 0.5
   vertex -0.0760952 0.251746 0.5
   vertex -0.0803485 0.248332 0.5
  endloop
 endfacet
 facet normal 0 0 1
  outer loop
   vertex -0.0528273 0.265865 0.5
   vertex -0.0577186 0.263453 0.5
   vertex 0 0.152576 0.5
  endloop
 endfacet
 facet normal 0 0 1
  outer loop
   vertex -0.0577186 0.263453 0.5
   vertex -0.0625 0.26083 0.5
   vertex 0 0.152576 0.5
  endloop
 endfacet
 facet normal 0 0 1
  outer loop
   vertex 0 0.152576 0.5
   vertex -0.0625 0.26083 0.5
   vertex -0.0671625 0.258 0.5
  endloop
 endfacet
 facet normal 0 0 1
  outer loop
   vertex -0.0375882 0.271791 0.5
   vertex -0.0427525 0.270038 0.5
   vertex 0 0.152576 0.5
  endloop
 endfacet
 facet normal 0 0 1
  outer loop
   vertex -0.0427525 0.270038 0.5
   vertex -0.0478354 0.268061 0.5
   vertex 0 0.152576 0.5
  endloop
 endfacet
 facet normal 0 0 1
  outer loop
   vertex 0 0.152576 0.5
   vertex -0.0478354 0.268061 0.5
   vertex -0.0528273 0.265865 0.5
  endloop
 endfacet
 facet normal 0 0 1
  outer loop
   vertex -0.021706 0.275677 0.5
   vertex -0.027055 0.274613 0.5
   vertex 0 0.152576 0.5
  endloop
 endfacet
 facet normal 0 0 1
  outer loop
   vertex -0.027055 0.274613 0.5
   vertex -0.0323524 0.273317 0.5
   vertex 0 0.152576 0.5
  endloop
 endfacet
 facet normal 0 0 1
  outer loop
   vertex 0 0.152576 0.5
   vertex -0.0323524 0.273317 0.5
   vertex -0.0375882 0.271791 0.5
  endloop
 endfacet
 facet normal 0 0 1
  outer loop
   vertex -0.00545242 0.277457 0.5
   vertex -0.0108945 0.277101 0.5
   vertex 0 0.152576 0.5
  endloop
 endfacet
 facet normal 0 0 1
  outer loop
   vertex -0.0108945 0.277101 0.5
   vertex -0.0163158 0.276507 0.5
   vertex 0 0.152576 0.5
  endloop
 endfacet
 facet normal 0 0 1
  outer loop
   vertex 0 0.152576 0.5
   vertex -0.0163158 0.276507 0.5
   vertex -0.021706 0.275677 0.5
  endloop
 endfacet
 facet normal 0 0 1
  outer loop
   vertex 0.0108945 0.277101 0.5
   vertex 0.00545242 0.277457 0.5
   vertex 0 0.152576 0.5
  endloop
 endfacet
 facet normal 0 0 1
  outer loop
   vertex 0.00545242 0.277457 0.5
   vertex -7.65404e-18 0.277576 0.5
   vertex 0 0.152576 0.5
  endloop
 endfacet
 facet normal 0 0 1
  outer loop
   vertex 0 0.152576 0.5
   vertex -7.65404e-18 0.277576 0.5
   vertex -0.00545242 0.277457 0.5
  endloop
 endfacet
 facet normal 0 0 1
  outer loop
   vertex 0.027055 0.274613 0.5
   vertex 0.021706 0.275677 0.5
   vertex 0 0.152576 0.5
  endloop
 endfacet
 facet normal 0 0 1
  outer loop
   vertex 0.021706 0.275677 0.5
   vertex 0.0163158 0.276507 0.5
   vertex 0 0.152576 0.5
  endloop
 endfacet
 facet normal 0 0 1
  outer loop
   vertex 0 0.152576 0.5
   vertex 0.0163158 0.276507 0.5
   vertex 0.0108945 0.277101 0.5
  endloop
 endfacet
 facet normal 0 0 1
  outer loop
   vertex 0.0427525 0.270038 0.5
   vertex 0.0375882 0.271791 0.5
   vertex 0 0.152576 0.5
  endloop
 endfacet
 facet normal 0 0 1
  outer loop
   vertex 0.0375882 0.271791 0.5
   vertex 0.0323524 0.273317 0.5
   vertex 0 0.152576 0.5
  endloop
 endfacet
 facet normal 0 0 1
  outer loop
   vertex 0 0.152576 0.5
   vertex 0.0323524 0.273317 0.5
   vertex 0.027055 0.274613 0.5
  endloop
 endfacet
 facet normal 0 0 1
  outer loop
   vertex 0.0577186 0.263453 0.5
   vertex 0.0528273 0.265865 0.5
   vertex 0 0.152576 0.5
  endloop
 endfacet
 facet normal 0 0 1
  outer loop
   vertex 0.0528273 0.265865 0.5
   vertex 0.0478354 0.268061 0.5
   vertex 0 0.152576 0.5
  endloop
 endfacet
 facet normal 0 0 1
  outer loop
   vertex 0 0.152576 0.5
   vertex 0.0478354 0.268061 0.5
   vertex 0.0427525 0.270038 0.5
  endloop
 endfacet
 facet normal 0 0 1
  outer loop
   vertex 0.0716971 0.25497 0.5
   vertex 0.0671625 0.258 0.5
   vertex 0 0.152576 0.5
  endloop
 endfacet
 facet normal 0 0 1
  outer loop
   vertex 0.0671625 0.258 0.5
   vertex 0.0625 0.26083 0.5
   vertex 0 0.152576 0.5
  endloop
 endfacet
 facet normal 0 0 1
  outer loop
   vertex 0 0.152576 0.5
   vertex 0.0625 0.26083 0.5
   vertex 0.0577186 0.263453 0.5
  endloop
 endfacet
 facet normal 0 0 1
  outer loop
   vertex 0.0844488 0.244736 0.5
   vertex 0.0803485 0.248332 0.5
   vertex 0 0.152576 0.5
  endloop
 endfacet
 facet normal 0 0 1
  outer loop
   vertex 0.0803485 0.248332 0.5
   vertex 0.0760952 0.251746 0.5
   vertex 0 0.152576 0.5
  endloop
 endfacet
 facet normal 0 0 1
  outer loop
   vertex 0 0.152576 0.5
   vertex 0.0760952 0.251746 0.5
   vertex 0.0716971 0.25497 0.5
  endloop
 endfacet
 facet normal 0 0 1
  outer loop
   vertex 0.0957556 0.232925 0.5
   vertex 0.0921597 0.237025 0.5
   vertex 0 0.152576 0.5
  endloop
 endfacet
 facet normal 0 0 1
  outer loop
   vertex 0.0921597 0.237025 0.5
   vertex 0.0883883 0.240965 0.5
   vertex 0 0.152576 0.5
  endloop
 endfacet
 facet normal 0 0 1
  outer loop
   vertex 0 0.152576 0.5
   vertex 0.0883883 0.240965 0.5
   vertex 0.0844488 0.244736 0.5
  endloop
 endfacet
 facet normal 0 0 1
  outer loop
   vertex 0.105424 0.219739 0.5
   vertex 0.102394 0.224274 0.5
   vertex 0 0.152576 0.5
  endloop
 endfacet
 facet normal 0 0 1
  outer loop
   vertex 0.102394 0.224274 0.5
   vertex 0.0991692 0.228672 0.5
   vertex 0 0.152576 0.5
  endloop
 endfacet
 facet normal 0 0 1
  outer loop
   vertex 0 0.152576 0.5
   vertex 0.0991692 0.228672 0.5
   vertex 0.0957556 0.232925 0.5
  endloop
 endfacet
 facet normal 0 0 1
  outer loop
   vertex 0.113288 0.205404 0.5
   vertex 0.110876 0.210295 0.5
   vertex 0 0.152576 0.5
  endloop
 endfacet
 facet normal 0 0 1
  outer loop
   vertex 0.110876 0.210295 0.5
   vertex 0.108253 0.215076 0.5
   vertex 0 0.152576 0.5
  endloop
 endfacet
 facet normal 0 0 1
  outer loop
   vertex 0 0.152576 0.5
   vertex 0.108253 0.215076 0.5
   vertex 0.105424 0.219739 0.5
  endloop
 endfacet
 facet normal 0 0 1
  outer loop
   vertex 0.119215 0.190165 0.5
   vertex 0.117462 0.195329 0.5
   vertex 0 0.152576 0.5
  endloop
 endfacet
 facet normal 0 0 1
  outer loop
   vertex 0.117462 0.195329 0.5
   vertex 0.115485 0.200412 0.5
   vertex 0 0.152576 0.5
  endloop
 endfacet
 facet normal 0 0 1
  outer loop
   vertex 0 0.152576 0.5
   vertex 0.115485 0.200412 0.5
   vertex 0.113288 0.205404 0.5
  endloop
 endfacet
 facet normal 0 0 1
  outer loop
   vertex 0.123101 0.174282 0.5
   vertex 0.122037 0.179631 0.5
   vertex 0 0.152576 0.5
  endloop
 endfacet
 facet normal 0 0 1
  outer loop
   vertex 0.122037 0.179631 0.5
   vertex 0.120741 0.184929 0.5
   vertex 0 0.152576 0.5
  endloop
 endfacet
 facet normal 0 0 1
  outer loop
   vertex 0 0.152576 0.5
   vertex 0.120741 0.184929 0.5
   vertex 0.119215 0.190165 0.5
  endloop
 endfacet
 facet normal 0 0 1
  outer loop
   vertex 0.124881 0.158029 0.5
   vertex 0.124524 0.163471 0.5
   vertex 0 0.152576 0.5
  endloop
 endfacet
 facet normal 0 0 1
  outer loop
   vertex 0.124524 0.163471 0.5
   vertex 0.123931 0.168892 0.5
   vertex 0 0.152576 0.5
  endloop
 endfacet
 facet normal 0 0 1
  outer loop
   vertex 0 0.152576 0.5
   vertex 0.123931 0.168892 0.5
   vertex 0.123101 0.174282 0.5
  endloop
 endfacet
endsolid zone0
