solid zone0
 facet normal 0 -0 -1
  outer loop
   vertex 0.124524 0.172913 0
   vertex 0.124881 0.167471 0
   vertex 0 0.162018 0
  endloop
 endfacet
 facet normal 0 -0 -1
  outer loop
   vertex 0.124881 0.167471 0
   vertex 0.125 0.162018 0
   vertex 0 0.162018 0
  endloop
 endfacet
 facet normal 0 0 -1
  outer loop
   vertex 0 0.162018 0
   vertex 0.125 0.162018 0
   vertex 0.124881 0.156566 0
  endloop
 endfacet
 facet normal 0 -0 -1
  outer loop
   vertex 0.122037 0.189073 0
   vertex 0.123101 0.183724 0
   vertex 0 0.162018 0
  endloop
 endfacet
 facet normal 0 -0 -1
  outer loop
   vertex 0.123101 0.183724 0
   vertex 0.123931 0.178334 0
   vertex 0 0.162018 0
  endloop
 endfacet
 facet normal 0 0 -1
  outer loop
   vertex 0 0.162018 0
   vertex 0.123931 0.178334 0
   vertex 0.124524 0.172913 0
  endloop
 endfacet
 facet normal 0 -0 -1
  outer loop
   vertex 0.117462 0.204771 0
   vertex 0.119215 0.199607 0
   vertex 0 0.162018 0
  endloop
 endfacet
 facet normal 0 -0 -1
  outer loop
   vertex 0.119215 0.199607 0
   vertex 0.120741 0.194371 0
   vertex 0 0.162018 0
  endloop
 endfacet
 facet normal 0 0 -1
  outer loop
   vertex 0 0.162018 0
   vertex 0.120741 0.194371 0
   vertex 0.122037 0.189073 0
  endloop
 endfacet
 facet normal 0 -0 -1
  outer loop
   vertex 0.110876 0.219737 0
   vertex 0.113288 0.214846 0
   vertex 0 0.162018 0
  endloop
 endfacet
 facet normal 0 -0 -1
  outer loop
   vertex 0.113288 0.214846 0
   vertex 0.115485 0.209854 0
   vertex 0 0.162018 0
  endloop
 endfacet
 facet normal 0 0 -1
  outer loop
   vertex 0 0.162018 0
   vertex 0.115485 0.209854 0
   vertex 0.117462 0.204771 0
  endloop
 endfacet
 facet normal 0 -0 -1
  outer loop
   vertex 0.102394 0.233715 0
   vertex 0.105424 0.229181 0
   vertex 0 0.162018 0
  endloop
 endfacet
 facet normal 0 -0 -1
  outer loop
   vertex 0.105424 0.229181 0
   vertex 0.108253 0.224518 0
   vertex 0 0.162018 0
  endloop
 endfacet
 facet normal 0 0 -1
  outer loop
   vertex 0 0.162018 0
   vertex 0.108253 0.224518 0
   vertex 0.110876 0.219737 0
  endloop
 endfacet
 facet normal 0 -0 -1
  outer loop
   vertex 0.0921597 0.246467 0
   vertex 0.0957556 0.242367 0
   vertex 0 0.162018 0
  endloop
 endfacet
 facet normal 0 -0 -1
  outer loop
   vertex 0.0957556 0.242367 0
   vertex 0.0991692 0.238113 0
   vertex 0 0.162018 0
  endloop
 endfacet
 facet normal 0 0 -1
  outer loop
   vertex 0 0.162018 0
   vertex 0.0991692 0.238113 0
   vertex 0.102394 0.233715 0
  endloop
 endfacet
 facet normal 0 -0 -1
  outer loop
   vertex 0.0803485 0.257774 0
   vertex 0.0844488 0.254178 0
   vertex 0 0.162018 0
  endloop
 endfacet
 facet normal 0 -0 -1
  outer loop
   vertex 0.0844488 0.254178 0
   vertex 0.0883883 0.250407 0
   vertex 0 0.162018 0
  endloop
 endfacet
 facet normal 0 0 -1
  outer loop
   vertex 0 0.162018 0
   vertex 0.0883883 0.250407 0
   vertex 0.0921597 0.246467 0
  endloop
 endfacet
 facet normal 0 -0 -1
  outer loop
   vertex 0.0671625 0.267442 0
   vertex 0.0716971 0.264412 0
   vertex 0 0.162018 0
  endloop
 endfacet
 facet normal 0 -0 -1
  outer loop
   vertex 0.0716971 0.264412 0
   vertex 0.0760952 0.261187 0
   vertex 0 0.162018 0
  endloop
 endfacet
 facet normal 0 0 -1
  outer loop
   vertex 0 0.162018 0
   vertex 0.0760952 0.261187 0
   vertex 0.0803485 0.257774 0
  endloop
 endfacet
 facet normal 0 -0 -1
  outer loop
   vertex 0.0528273 0.275307 0
   vertex 0.0577186 0.272895 0
   vertex 0 0.162018 0
  endloop
 endfacet
 facet normal 0 -0 -1
  outer loop
   vertex 0.0577186 0.272895 0
   vertex 0.0625 0.270271 0
   vertex 0 0.162018 0
  endloop
 endfacet
 facet normal 0 0 -1
  outer loop
   vertex 0 0.162018 0
   vertex 0.0625 0.270271 0
   vertex 0.0671625 0.267442 0
  endloop
 endfacet
 facet normal 0 -0 -1
  outer loop
   vertex 0.0375882 0.281233 0
   vertex 0.0427525 0.27948 0
   vertex 0 0.162018 0
  endloop
 endfacet
 facet normal 0 -0 -1
  outer loop
   vertex 0.0427525 0.27948 0
   vertex 0.0478354 0.277503 0
   vertex 0 0.162018 0
  endloop
 endfacet
 facet normal 0 0 -1
  outer loop
   vertex 0 0.162018 0
   vertex 0.0478354 0.277503 0
   vertex 0.0528273 0.275307 0
  endloop
 endfacet
 facet normal 0 -0 -1
  outer loop
   vertex 0.021706 0.285119 0
   vertex 0.027055 0.284055 0
   vertex 0 0.162018 0
  endloop
 endfacet
 facet normal 0 -0 -1
  outer loop
   vertex 0.027055 0.284055 0
   vertex 0.0323524 0.282759 0
   vertex 0 0.162018 0
  endloop
 endfacet
 facet normal 0 0 -1
  outer loop
   vertex 0 0.162018 0
   vertex 0.0323524 0.282759 0
   vertex 0.0375882 0.281233 0
  endloop
 endfacet
 facet normal 0 -0 -1
  outer loop
   vertex 0.00545242 0.286899 0
   vertex 0.0108945 0.286543 0
   vertex 0 0.162018 0
  endloop
 endfacet
 facet normal 0 -0 -1
  outer loop
   vertex 0.0108945 0.286543 0
   vertex 0.0163158 0.285949 0
   vertex 0 0.162018 0
  endloop
 endfacet
 facet normal 0 0 -1
  outer loop
   vertex 0 0.162018 0
   vertex 0.0163158 0.285949 0
   vertex 0.021706 0.285119 0
  endloop
 endfacet
 facet normal 0 0 -1
  outer loop
   vertex -0.0108945 0.286543 0
   vertex -0.00545242 0.286899 0
   vertex 0 0.162018 0
  endloop
 endfacet
 facet normal 0 0 -1
  outer loop
   vertex -0.00545242 0.286899 0
   vertex -7.65404e-18 0.287018 0
   vertex 0 0.162018 0
  endloop
 endfacet
 facet normal 0 0 -1
  outer loop
   vertex 0 0.162018 0
   vertex -7.65404e-18 0.287018 0
   vertex 0.00545242 0.286899 0
  endloop
 endfacet
 facet normal 0 0 -1
  outer loop
   vertex -0.027055 0.284055 0
   vertex -0.021706 0.285119 0
   vertex 0 0.162018 0
  endloop
 endfacet
 facet normal 0 0 -1
  outer loop
   vertex -0.021706 0.285119 0
   vertex -0.0163158 0.285949 0
   vertex 0 0.162018 0
  endloop
 endfacet
 facet normal 0 0 -1
  outer loop
   vertex 0 0.162018 0
   vertex -0.0163158 0.285949 0
   vertex -0.0108945 0.286543 0
  endloop
 endfacet
 facet normal 0 0 -1
  outer loop
   vertex -0.0427525 0.27948 0
   vertex -0.0375882 0.281233 0
   vertex 0 0.162018 0
  endloop
 endfacet
 facet normal 0 0 -1
  outer loop
   vertex -0.0375882 0.281233 0
   vertex -0.0323524 0.282759 0
   vertex 0 0.162018 0
  endloop
 endfacet
 facet normal 0 0 -1
  outer loop
   vertex 0 0.162018 0
   vertex -0.0323524 0.282759 0
   vertex -0.027055 0.284055 0
  endloop
 endfacet
 facet normal 0 0 -1
  outer loop
   vertex -0.0577186 0.272895 0
   vertex -0.0528273 0.275307 0
   vertex 0 0.162018 0
  endloop
 endfacet
 facet normal 0 0 -1
  outer loop
   vertex -0.0528273 0.275307 0
   vertex -0.0478354 0.277503 0
   vertex 0 0.162018 0
  endloop
 endfacet
 facet normal 0 0 -1
  outer loop
   vertex 0 0.162018 0
   vertex -0.0478354 0.277503 0
   vertex -0.0427525 0.27948 0
  endloop
 endfacet
 facet normal 0 0 -1
  outer loop
   vertex -0.0716971 0.264412 0
   vertex -0.0671625 0.267442 0
   vertex 0 0.162018 0
  endloop
 endfacet
 facet normal 0 0 -1
  outer loop
   vertex -0.0671625 0.267442 0
   vertex -0.0625 0.270271 0
   vertex 0 0.162018 0
  endloop
 endfacet
 facet normal 0 0 -1
  outer loop
   vertex 0 0.162018 0
   vertex -0.0625 0.270271 0
   vertex -0.0577186 0.272895 0
  endloop
 endfacet
 facet normal 0 0 -1
  outer loop
   vertex -0.0844488 0.254178 0
   vertex -0.0803485 0.257774 0
   vertex 0 0.162018 0
  endloop
 endfacet
 facet normal 0 0 -1
  outer loop
   vertex -0.0803485 0.257774 0
   vertex -0.0760952 0.261187 0
   vertex 0 0.162018 0
  endloop
 endfacet
 facet normal 0 0 -1
  outer loop
   vertex 0 0.162018 0
   vertex -0.0760952 0.261187 0
   vertex -0.0716971 0.264412 0
  endloop
 endfacet
 facet normal 0 0 -1
  outer loop
   vertex -0.0957556 0.242367 0
   vertex -0.0921597 0.246467 0
   vertex 0 0.162018 0
  endloop
 endfacet
 facet normal 0 0 -1
  outer loop
   vertex -0.0921597 0.246467 0
   vertex -0.0883883 0.250407 0
   vertex 0 0.162018 0
  endloop
 endfacet
 facet normal 0 0 -1
  outer loop
   vertex 0 0.162018 0
   vertex -0.0883883 0.250407 0
   vertex -0.0844488 0.254178 0
  endloop
 endfacet
 facet normal 0 0 -1
  outer loop
   vertex -0.105424 0.229181 0
   vertex -0.102394 0.233715 0
   vertex 0 0.162018 0
  endloop
 endfacet
 facet normal 0 0 -1
  outer loop
   vertex -0.102394 0.233715 0
   vertex -0.0991692 0.238113 0
   vertex 0 0.162018 0
  endloop
 endfacet
 facet normal 0 0 -1
  outer loop
   vertex 0 0.162018 0
   vertex -0.0991692 0.238113 0
   vertex -0.0957556 0.242367 0
  endloop
 endfacet
 facet normal 0 0 -1
  outer loop
   vertex -0.113288 0.214846 0
   vertex -0.110876 0.219737 0
   vertex 0 0.162018 0
  endloop
 endfacet
 facet normal 0 0 -1
  outer loop
   vertex -0.110876 0.219737 0
   vertex -0.108253 0.224518 0
   vertex 0 0.162018 0
  endloop
 endfacet
 facet normal 0 0 -1
  outer loop
   vertex 0 0.162018 0
   vertex -0.108253 0.224518 0
   vertex -0.105424 0.229181 0
  endloop
 endfacet
 facet normal 0 0 -1
  outer loop
   vertex -0.119215 0.199607 0
   vertex -0.117462 0.204771 0
   vertex 0 0.162018 0
  endloop
 endfacet
 facet normal 0 0 -1
  outer loop
   vertex -0.117462 0.204771 0
   vertex -0.115485 0.209854 0
   vertex 0 0.162018 0
  endloop
 endfacet
 facet normal 0 0 -1
  outer loop
   vertex 0 0.162018 0
   vertex -0.115485 0.209854 0
   vertex -0.113288 0.214846 0
  endloop
 endfacet
 facet normal 0 0 -1
  outer loop
   vertex -0.123101 0.183724 0
   vertex -0.122037 0.189073 0
   vertex 0 0.162018 0
  endloop
 endfacet
 facet normal 0 0 -1
  outer loop
   vertex -0.122037 0.189073 0
   vertex -0.120741 0.194371 0
   vertex 0 0.162018 0
  endloop
 endfacet
 facet normal 0 0 -1
  outer loop
   vertex 0 0.162018 0
   vertex -0.120741 0.194371 0
   vertex -0.119215 0.199607 0
  endloop
 endfacet
 facet normal 0 0 -1
  outer loop
   vertex -0.124881 0.167471 0
   vertex -0.124524 0.172913 0
   vertex 0 0.162018 0
  endloop
 endfacet
 facet normal 0 0 -1
  outer loop
   vertex -0.124524 0.172913 0
   vertex -0.123931 0.178334 0
   vertex 0 0.162018 0
  endloop
 endfacet
 facet normal 0 0 -1
  outer loop
   vertex 0 0.162018 0
   vertex -0.123931 0.178334 0
   vertex -0.123101 0.183724 0
  endloop
 endfacet
 facet normal 0 0 -1
  outer loop
   vertex -0.124524 0.151124 0
   vertex -0.124881 0.156566 0
   vertex 0 0.162018 0
  endloop
 endfacet
 facet normal 0 0 -1
  outer loop
   vertex -0.124881 0.156566 0
   vertex -0.125 0.162018 0
   vertex 0 0.162018 0
  endloop
 endfacet
 facet normal 0 0 -1
  outer loop
   vertex 0 0.162018 0
   vertex -0.125 0.162018 0
   vertex -0.124881 0.167471 0
  endloop
 endfacet
 facet normal 0 0 -1
  outer loop
   vertex -0.122037 0.134963 0
   vertex -0.123101 0.140312 0
   vertex 0 0.162018 0
  endloop
 endfacet
 facet normal 0 0 -1
  outer loop
   vertex -0.123101 0.140312 0
   vertex -0.123931 0.145703 0
   vertex 0 0.162018 0
  endloop
 endfacet
 facet normal 0 0 -1
  outer loop
   vertex 0 0.162018 0
   vertex -0.123931 0.145703 0
   vertex -0.124524 0.151124 0
  endloop
 endfacet
 facet normal 0 0 -1
  outer loop
   vertex -0.117462 0.119266 0
   vertex -0.119215 0.12443 0
   vertex 0 0.162018 0
  endloop
 endfacet
 facet normal 0 0 -1
  outer loop
   vertex -0.119215 0.12443 0
   vertex -0.120741 0.129666 0
   vertex 0 0.162018 0
  endloop
 endfacet
 facet normal 0 0 -1
  outer loop
   vertex 0 0.162018 0
   vertex -0.120741 0.129666 0
   vertex -0.122037 0.134963 0
  endloop
 endfacet
 facet normal 0 0 -1
  outer loop
   vertex -0.110876 0.1043 0
   vertex -0.113288 0.109191 0
   vertex 0 0.162018 0
  endloop
 endfacet
 facet normal 0 0 -1
  outer loop
   vertex -0.113288 0.109191 0
   vertex -0.115485 0.114183 0
   vertex 0 0.162018 0
  endloop
 endfacet
 facet normal 0 0 -1
  outer loop
   vertex 0 0.162018 0
   vertex -0.115485 0.114183 0
   vertex -0.117462 0.119266 0
  endloop
 endfacet
 facet normal 0 0 -1
  outer loop
   vertex -0.102394 0.0903212 0
   vertex -0.105424 0.0948558 0
   vertex 0 0.162018 0
  endloop
 endfacet
 facet normal 0 0 -1
  outer loop
   vertex -0.105424 0.0948558 0
   vertex -0.108253 0.0995183 0
   vertex 0 0.162018 0
  endloop
 endfacet
 facet normal 0 0 -1
  outer loop
   vertex 0 0.162018 0
   vertex -0.108253 0.0995183 0
   vertex -0.110876 0.1043 0
  endloop
 endfacet
 facet normal 0 0 -1
  outer loop
   vertex -0.0921597 0.0775695 0
   vertex -0.0957556 0.0816698 0
   vertex 0 0.162018 0
  endloop
 endfacet
 facet normal 0 0 -1
  outer loop
   vertex -0.0957556 0.0816698 0
   vertex -0.0991692 0.0859231 0
   vertex 0 0.162018 0
  endloop
 endfacet
 facet normal 0 0 -1
  outer loop
   vertex 0 0.162018 0
   vertex -0.0991692 0.0859231 0
   vertex -0.102394 0.0903212 0
  endloop
 endfacet
 facet normal 0 0 -1
  outer loop
   vertex -0.0803485 0.0662627 0
   vertex -0.0844488 0.0698586 0
   vertex 0 0.162018 0
  endloop
 endfacet
 facet normal 0 0 -1
  outer loop
   vertex -0.0844488 0.0698586 0
   vertex -0.0883883 0.0736299 0
   vertex 0 0.162018 0
  endloop
 endfacet
 facet normal 0 0 -1
  outer loop
   vertex 0 0.162018 0
   vertex -0.0883883 0.0736299 0
   vertex -0.0921597 0.0775695 0
  endloop
 endfacet
 facet normal 0 0 -1
  outer loop
   vertex -0.0671625 0.0565944 0
   vertex -0.0716971 0.0596243 0
   vertex 0 0.162018 0
  endloop
 endfacet
 facet normal 0 0 -1
  outer loop
   vertex -0.0716971 0.0596243 0
   vertex -0.0760952 0.0628491 0
   vertex 0 0.162018 0
  endloop
 endfacet
 facet normal 0 0 -1
  outer loop
   vertex 0 0.162018 0
   vertex -0.0760952 0.0628491 0
   vertex -0.0803485 0.0662627 0
  endloop
 endfacet
 facet normal 0 0 -1
  outer loop
   vertex -0.0528273 0.0487298 0
   vertex -0.0577186 0.0511419 0
   vertex 0 0.162018 0
  endloop
 endfacet
 facet normal 0 0 -1
  outer loop
   vertex -0.0577186 0.0511419 0
   vertex -0.0625 0.0537651 0
   vertex 0 0.162018 0
  endloop
 endfacet
 facet normal 0 0 -1
  outer loop
   vertex 0 0.162018 0
   vertex -0.0625 0.0537651 0
   vertex -0.0671625 0.0565944 0
  endloop
 endfacet
 facet normal 0 0 -1
  outer loop
   vertex -0.0375882 0.0428037 0
   vertex -0.0427525 0.0445567 0
   vertex 0 0.162018 0
  endloop
 endfacet
 facet normal 0 0 -1
  outer loop
   vertex -0.0427525 0.0445567 0
   vertex -0.0478354 0.0465334 0
   vertex 0 0.162018 0
  endloop
 endfacet
 facet normal 0 0 -1
  outer loop
   vertex 0 0.162018 0
   vertex -0.0478354 0.0465334 0
   vertex -0.0528273 0.0487298 0
  endloop
 endfacet
 facet normal 0 0 -1
  outer loop
   vertex -0.021706 0.0389173 0
   vertex -0.027055 0.0399813 0
   vertex 0 0.162018 0
  endloop
 endfacet
 facet normal 0 0 -1
  outer loop
   vertex -0.027055 0.0399813 0
   vertex -0.0323524 0.0412776 0
   vertex 0 0.162018 0
  endloop
 endfacet
 facet normal 0 0 -1
  outer loop
   vertex 0 0.162018 0
   vertex -0.0323524 0.0412776 0
   vertex -0.0375882 0.0428037 0
  endloop
 endfacet
 facet normal 0 0 -1
  outer loop
   vertex -0.00545242 0.0371373 0
   vertex -0.0108945 0.037494 0
   vertex 0 0.162018 0
  endloop
 endfacet
 facet normal 0 0 -1
  outer loop
   vertex -0.0108945 0.037494 0
   vertex -0.0163158 0.0380877 0
   vertex 0 0.162018 0
  endloop
 endfacet
 facet normal 0 0 -1
  outer loop
   vertex 0 0.162018 0
   vertex -0.0163158 0.0380877 0
   vertex -0.021706 0.0389173 0
  endloop
 endfacet
 facet normal -0 0 -1
  outer loop
   vertex 0.0108945 0.037494 0
   vertex 0.00545242 0.0371373 0
   vertex 0 0.162018 0
  endloop
 endfacet
 facet normal -0 0 -1
  outer loop
   vertex 0.00545242 0.0371373 0
   vertex 2.29621e-17 0.0370183 0
   vertex 0 0.162018 0
  endloop
 endfacet
 facet normal 0 -0 -1
  outer loop
   vertex 0 0.162018 0
   vertex 2.29621e-17 0.0370183 0
   vertex -0.00545242 0.0371373 0
  endloop
 endfacet
 facet normal -0 0 -1
  outer loop
   vertex 0.027055 0.0399813 0
   vertex 0.021706 0.0389173 0
   vertex 0 0.162018 0
  endloop
 endfacet
 facet normal -0 0 -1
  outer loop
   vertex 0.021706 0.0389173 0
   vertex 0.0163158 0.0380877 0
   vertex 0 0.162018 0
  endloop
 endfacet
 facet normal 0 0 -1
  outer loop
   vertex 0 0.162018 0
   vertex 0.0163158 0.0380877 0
   vertex 0.0108945 0.037494 0
  endloop
 endfacet
 facet normal -0 0 -1
  outer loop
   vertex 0.0427525 0.0445567 0
   vertex 0.0375882 0.0428037 0
   vertex 0 0.162018 0
  endloop
 endfacet
 facet normal -0 0 -1
  outer loop
   vertex 0.0375882 0.0428037 0
   vertex 0.0323524 0.0412776 0
   vertex 0 0.162018 0
  endloop
 endfacet
 facet normal 0 0 -1
  outer loop
   vertex 0 0.162018 0
   vertex 0.0323524 0.0412776 0
   vertex 0.027055 0.0399813 0
  endloop
 endfacet
 facet normal -0 0 -1
  outer loop
   vertex 0.0577186 0.0511419 0
   vertex 0.0528273 0.0487298 0
   vertex 0 0.162018 0
  endloop
 endfacet
 facet normal -0 0 -1
  outer loop
   vertex 0.0528273 0.0487298 0
   vertex 0.0478354 0.0465334 0
   vertex 0 0.162018 0
  endloop
 endfacet
 facet normal 0 0 -1
  outer loop
   vertex 0 0.162018 0
   vertex 0.0478354 0.0465334 0
   vertex 0.0427525 0.0445567 0
  endloop
 endfacet
 facet normal -0 0 -1
  outer loop
   vertex 0.0716971 0.0596243 0
   vertex 0.0671625 0.0565944 0
   vertex 0 0.162018 0
  endloop
 endfacet
 facet normal -0 0 -1
  outer loop
   vertex 0.0671625 0.0565944 0
   vertex 0.0625 0.0537651 0
   vertex 0 0.162018 0
  endloop
 endfacet
 facet normal 0 0 -1
  outer loop
   vertex 0 0.162018 0
   vertex 0.0625 0.0537651 0
   vertex 0.0577186 0.0511419 0
  endloop
 endfacet
 facet normal -0 0 -1
  outer loop
   vertex 0.0844488 0.0698586 0
   vertex 0.0803485 0.0662627 0
   vertex 0 0.162018 0
  endloop
 endfacet
 facet normal -0 0 -1
  outer loop
   vertex 0.0803485 0.0662627 0
   vertex 0.0760952 0.0628491 0
   vertex 0 0.162018 0
  endloop
 endfacet
 facet normal 0 0 -1
  outer loop
   vertex 0 0.162018 0
   vertex 0.0760952 0.0628491 0
   vertex 0.0716971 0.0596243 0
  endloop
 endfacet
 facet normal -0 0 -1
  outer loop
   vertex 0.0957556 0.0816698 0
   vertex 0.0921597 0.0775695 0
   vertex 0 0.162018 0
  endloop
 endfacet
 facet normal -0 0 -1
  outer loop
   vertex 0.0921597 0.0775695 0
   vertex 0.0883883 0.0736299 0
   vertex 0 0.162018 0
  endloop
 endfacet
 facet normal 0 0 -1
  outer loop
   vertex 0 0.162018 0
   vertex 0.0883883 0.0736299 0
   vertex 0.0844488 0.0698586 0
  endloop
 endfacet
 facet normal -0 0 -1
  outer loop
   vertex 0.105424 0.0948558 0
   vertex 0.102394 0.0903212 0
   vertex 0 0.162018 0
  endloop
 endfacet
 facet normal -0 0 -1
  outer loop
   vertex 0.102394 0.0903212 0
   vertex 0.0991692 0.0859231 0
   vertex 0 0.162018 0
  endloop
 endfacet
 facet normal 0 0 -1
  outer loop
   vertex 0 0.162018 0
   vertex 0.0991692 0.0859231 0
   vertex 0.0957556 0.0816698 0
  endloop
 endfacet
 facet normal -0 0 -1
  outer loop
   vertex 0.113288 0.109191 0
   vertex 0.110876 0.1043 0
   vertex 0 0.162018 0
  endloop
 endfacet
 facet normal -0 0 -1
  outer loop
   vertex 0.110876 0.1043 0
   vertex 0.108253 0.0995183 0
   vertex 0 0.162018 0
  endloop
 endfacet
 facet normal 0 0 -1
  outer loop
   vertex 0 0.162018 0
   vertex 0.108253 0.0995183 0
   vertex 0.105424 0.0948558 0
  endloop
 endfacet
 facet normal -0 0 -1
  outer loop
   vertex 0.119215 0.12443 0
   vertex 0.117462 0.119266 0
   vertex 0 0.162018 0
  endloop
 endfacet
 facet normal -0 0 -1
  outer loop
   vertex 0.117462 0.119266 0
   vertex 0.115485 0.114183 0
   vertex 0 0.162018 0
  endloop
 endfacet
 facet normal 0 0 -1
  outer loop
   vertex 0 0.162018 0
   vertex 0.115485 0.114183 0
   vertex 0.113288 0.109191 0
  endloop
 endfacet
 facet normal -0 0 -1
  outer loop
   vertex 0.123101 0.140312 0
   vertex 0.122037 0.134963 0
   vertex 0 0.162018 0
  endloop
 endfacet
 facet normal -0 0 -1
  outer loop
   vertex 0.122037 0.134963 0
   vertex 0.120741 0.129666 0
   vertex 0 0.162018 0
  endloop
 endfacet
 facet normal 0 0 -1
  outer loop
   vertex 0 0.162018 0
   vertex 0.120741 0.129666 0
   vertex 0.119215 0.12443 0
  endloop
 endfacet
 facet normal -0 0 -1
  outer loop
   vertex 0.124881 0.156566 0
   vertex 0.124524 0.151124 0
   vertex 0 0.162018 0
  endloop
 endfacet
 facet normal -0 0 -1
  outer loop
   vertex 0.124524 0.151124 0
   vertex 0.123931 0.145703 0
   vertex 0 0.162018 0
  endloop
 endfacet
 facet normal 0 0 -1
  outer loop
   vertex 0 0.162018 0
   vertex 0.123931 0.145703 0
   vertex 0.123101 0.140312 0
  endloop
 endfacet
 facet normal -0.999762 0.0218146 0
  outer loop
   vertex -0.125 0.162018 0
   vertex -0.124881 0.167471 0.5
   vertex -0.124881 0.167471 0
  endloop
 endfacet
 facet normal -0.997859 0.0654029 0
  outer loop
   vertex -0.124881 0.167471 0.5
   vertex -0.124524 0.172913 0.5
   vertex -0.124881 0.167471 0
  endloop
 endfacet
 facet normal -0.997859 0.0654029 0
  outer loop
   vertex -0.124881 0.167471 0
   vertex -0.124524 0.172913 0.5
   vertex -0.124524 0.172913 0
  endloop
 endfacet
 facet normal -0.994056 0.108867 0
  outer loop
   vertex -0.124524 0.172913 0.5
   vertex -0.123931 0.178334 0.5
   vertex -0.124524 0.172913 0
  endloop
 endfacet
 facet normal -0.994056 0.108867 0
  outer loop
   vertex -0.124524 0.172913 0
   vertex -0.123931 0.178334 0.5
   vertex -0.123931 0.178334 0
  endloop
 endfacet
 facet normal -0.988361 0.152124 0
  outer loop
   vertex -0.123931 0.178334 0.5
   vertex -0.123101 0.183724 0.5
   vertex -0.123931 0.178334 0
  endloop
 endfacet
 facet normal -0.988361 0.152124 0
  outer loop
   vertex -0.123931 0.178334 0
   vertex -0.123101 0.183724 0.5
   vertex -0.123101 0.183724 0
  endloop
 endfacet
 facet normal -0.980785 0.19509 0
  outer loop
   vertex -0.123101 0.183724 0.5
   vertex -0.122037 0.189073 0.5
   vertex -0.123101 0.183724 0
  endloop
 endfacet
 facet normal -0.980785 0.19509 0
  outer loop
   vertex -0.123101 0.183724 0
   vertex -0.122037 0.189073 0.5
   vertex -0.122037 0.189073 0
  endloop
 endfacet
 facet normal -0.971342 0.237686 0
  outer loop
   vertex -0.122037 0.189073 0.5
   vertex -0.120741 0.194371 0.5
   vertex -0.122037 0.189073 0
  endloop
 endfacet
 facet normal -0.971342 0.237686 0
  outer loop
   vertex -0.122037 0.189073 0
   vertex -0.120741 0.194371 0.5
   vertex -0.120741 0.194371 0
  endloop
 endfacet
 facet normal -0.96005 0.279829 0
  outer loop
   vertex -0.120741 0.194371 0.5
   vertex -0.119215 0.199607 0.5
   vertex -0.120741 0.194371 0
  endloop
 endfacet
 facet normal -0.96005 0.279829 0
  outer loop
   vertex -0.120741 0.194371 0
   vertex -0.119215 0.199607 0.5
   vertex -0.119215 0.199607 0
  endloop
 endfacet
 facet normal -0.94693 0.321439 0
  outer loop
   vertex -0.119215 0.199607 0.5
   vertex -0.117462 0.204771 0.5
   vertex -0.119215 0.199607 0
  endloop
 endfacet
 facet normal -0.94693 0.321439 0
  outer loop
   vertex -0.119215 0.199607 0
   vertex -0.117462 0.204771 0.5
   vertex -0.117462 0.204771 0
  endloop
 endfacet
 facet normal -0.932008 0.362439 0
  outer loop
   vertex -0.117462 0.204771 0.5
   vertex -0.115485 0.209854 0.5
   vertex -0.117462 0.204771 0
  endloop
 endfacet
 facet normal -0.932008 0.362439 0
  outer loop
   vertex -0.117462 0.204771 0
   vertex -0.115485 0.209854 0.5
   vertex -0.115485 0.209854 0
  endloop
 endfacet
 facet normal -0.915312 0.402745 0
  outer loop
   vertex -0.115485 0.209854 0.5
   vertex -0.113288 0.214846 0.5
   vertex -0.115485 0.209854 0
  endloop
 endfacet
 facet normal -0.915312 0.402745 0
  outer loop
   vertex -0.115485 0.209854 0
   vertex -0.113288 0.214846 0.5
   vertex -0.113288 0.214846 0
  endloop
 endfacet
 facet normal -0.896872 0.44229 0
  outer loop
   vertex -0.113288 0.214846 0.5
   vertex -0.110876 0.219737 0.5
   vertex -0.113288 0.214846 0
  endloop
 endfacet
 facet normal -0.896872 0.44229 0
  outer loop
   vertex -0.113288 0.214846 0
   vertex -0.110876 0.219737 0.5
   vertex -0.110876 0.219737 0
  endloop
 endfacet
 facet normal -0.876727 0.480989 0
  outer loop
   vertex -0.110876 0.219737 0.5
   vertex -0.108253 0.224518 0.5
   vertex -0.110876 0.219737 0
  endloop
 endfacet
 facet normal -0.876727 0.480989 0
  outer loop
   vertex -0.110876 0.219737 0
   vertex -0.108253 0.224518 0.5
   vertex -0.108253 0.224518 0
  endloop
 endfacet
 facet normal -0.854912 0.518773 0
  outer loop
   vertex -0.108253 0.224518 0.5
   vertex -0.105424 0.229181 0.5
   vertex -0.108253 0.224518 0
  endloop
 endfacet
 facet normal -0.854912 0.518773 0
  outer loop
   vertex -0.108253 0.224518 0
   vertex -0.105424 0.229181 0.5
   vertex -0.105424 0.229181 0
  endloop
 endfacet
 facet normal -0.83147 0.55557 0
  outer loop
   vertex -0.105424 0.229181 0.5
   vertex -0.102394 0.233715 0.5
   vertex -0.105424 0.229181 0
  endloop
 endfacet
 facet normal -0.83147 0.55557 0
  outer loop
   vertex -0.105424 0.229181 0
   vertex -0.102394 0.233715 0.5
   vertex -0.102394 0.233715 0
  endloop
 endfacet
 facet normal -0.806444 0.59131 0
  outer loop
   vertex -0.102394 0.233715 0.5
   vertex -0.0991692 0.238113 0.5
   vertex -0.102394 0.233715 0
  endloop
 endfacet
 facet normal -0.806444 0.59131 0
  outer loop
   vertex -0.102394 0.233715 0
   vertex -0.0991692 0.238113 0.5
   vertex -0.0991692 0.238113 0
  endloop
 endfacet
 facet normal -0.779885 0.625923 0
  outer loop
   vertex -0.0991692 0.238113 0.5
   vertex -0.0957556 0.242367 0.5
   vertex -0.0991692 0.238113 0
  endloop
 endfacet
 facet normal -0.779885 0.625923 0
  outer loop
   vertex -0.0991692 0.238113 0
   vertex -0.0957556 0.242367 0.5
   vertex -0.0957556 0.242367 0
  endloop
 endfacet
 facet normal -0.75184 0.659346 0
  outer loop
   vertex -0.0957556 0.242367 0.5
   vertex -0.0921597 0.246467 0.5
   vertex -0.0957556 0.242367 0
  endloop
 endfacet
 facet normal -0.75184 0.659346 0
  outer loop
   vertex -0.0957556 0.242367 0
   vertex -0.0921597 0.246467 0.5
   vertex -0.0921597 0.246467 0
  endloop
 endfacet
 facet normal -0.722364 0.691513 0
  outer loop
   vertex -0.0921597 0.246467 0.5
   vertex -0.0883883 0.250407 0.5
   vertex -0.0921597 0.246467 0
  endloop
 endfacet
 facet normal -0.722364 0.691513 0
  outer loop
   vertex -0.0921597 0.246467 0
   vertex -0.0883883 0.250407 0.5
   vertex -0.0883883 0.250407 0
  endloop
 endfacet
 facet normal -0.691513 0.722364 0
  outer loop
   vertex -0.0883883 0.250407 0.5
   vertex -0.0844488 0.254178 0.5
   vertex -0.0883883 0.250407 0
  endloop
 endfacet
 facet normal -0.691513 0.722364 0
  outer loop
   vertex -0.0883883 0.250407 0
   vertex -0.0844488 0.254178 0.5
   vertex -0.0844488 0.254178 0
  endloop
 endfacet
 facet normal -0.659346 0.75184 0
  outer loop
   vertex -0.0844488 0.254178 0.5
   vertex -0.0803485 0.257774 0.5
   vertex -0.0844488 0.254178 0
  endloop
 endfacet
 facet normal -0.659346 0.75184 0
  outer loop
   vertex -0.0844488 0.254178 0
   vertex -0.0803485 0.257774 0.5
   vertex -0.0803485 0.257774 0
  endloop
 endfacet
 facet normal -0.625923 0.779885 0
  outer loop
   vertex -0.0803485 0.257774 0.5
   vertex -0.0760952 0.261187 0.5
   vertex -0.0803485 0.257774 0
  endloop
 endfacet
 facet normal -0.625923 0.779885 0
  outer loop
   vertex -0.0803485 0.257774 0
   vertex -0.0760952 0.261187 0.5
   vertex -0.0760952 0.261187 0
  endloop
 endfacet
 facet normal -0.59131 0.806444 0
  outer loop
   vertex -0.0760952 0.261187 0.5
   vertex -0.0716971 0.264412 0.5
   vertex -0.0760952 0.261187 0
  endloop
 endfacet
 facet normal -0.59131 0.806444 0
  outer loop
   vertex -0.0760952 0.261187 0
   vertex -0.0716971 0.264412 0.5
   vertex -0.0716971 0.264412 0
  endloop
 endfacet
 facet normal -0.55557 0.83147 0
  outer loop
   vertex -0.0716971 0.264412 0.5
   vertex -0.0671625 0.267442 0.5
   vertex -0.0716971 0.264412 0
  endloop
 endfacet
 facet normal -0.55557 0.83147 0
  outer loop
   vertex -0.0716971 0.264412 0
   vertex -0.0671625 0.267442 0.5
   vertex -0.0671625 0.267442 0
  endloop
 endfacet
 facet normal -0.518773 0.854912 0
  outer loop
   vertex -0.0671625 0.267442 0.5
   vertex -0.0625 0.270271 0.5
   vertex -0.0671625 0.267442 0
  endloop
 endfacet
 facet normal -0.518773 0.854912 0
  outer loop
   vertex -0.0671625 0.267442 0
   vertex -0.0625 0.270271 0.5
   vertex -0.0625 0.270271 0
  endloop
 endfacet
 facet normal -0.480989 0.876727 0
  outer loop
   vertex -0.0625 0.270271 0.5
   vertex -0.0577186 0.272895 0.5
   vertex -0.0625 0.270271 0
  endloop
 endfacet
 facet normal -0.480989 0.876727 0
  outer loop
   vertex -0.0625 0.270271 0
   vertex -0.0577186 0.272895 0.5
   vertex -0.0577186 0.272895 0
  endloop
 endfacet
 facet normal -0.44229 0.896872 0
  outer loop
   vertex -0.0577186 0.272895 0.5
   vertex -0.0528273 0.275307 0.5
   vertex -0.0577186 0.272895 0
  endloop
 endfacet
 facet normal -0.44229 0.896872 0
  outer loop
   vertex -0.0577186 0.272895 0
   vertex -0.0528273 0.275307 0.5
   vertex -0.0528273 0.275307 0
  endloop
 endfacet
 facet normal -0.402745 0.915312 0
  outer loop
   vertex -0.0528273 0.275307 0.5
   vertex -0.0478354 0.277503 0.5
   vertex -0.0528273 0.275307 0
  endloop
 endfacet
 facet normal -0.402745 0.915312 0
  outer loop
   vertex -0.0528273 0.275307 0
   vertex -0.0478354 0.277503 0.5
   vertex -0.0478354 0.277503 0
  endloop
 endfacet
 facet normal -0.362439 0.932008 0
  outer loop
   vertex -0.0478354 0.277503 0.5
   vertex -0.0427525 0.27948 0.5
   vertex -0.0478354 0.277503 0
  endloop
 endfacet
 facet normal -0.362439 0.932008 0
  outer loop
   vertex -0.0478354 0.277503 0
   vertex -0.0427525 0.27948 0.5
   vertex -0.0427525 0.27948 0
  endloop
 endfacet
 facet normal -0.321439 0.94693 0
  outer loop
   vertex -0.0427525 0.27948 0.5
   vertex -0.0375882 0.281233 0.5
   vertex -0.0427525 0.27948 0
  endloop
 endfacet
 facet normal -0.321439 0.94693 0
  outer loop
   vertex -0.0427525 0.27948 0
   vertex -0.0375882 0.281233 0.5
   vertex -0.0375882 0.281233 0
  endloop
 endfacet
 facet normal -0.279829 0.96005 0
  outer loop
   vertex -0.0375882 0.281233 0.5
   vertex -0.0323524 0.282759 0.5
   vertex -0.0375882 0.281233 0
  endloop
 endfacet
 facet normal -0.279829 0.96005 0
  outer loop
   vertex -0.0375882 0.281233 0
   vertex -0.0323524 0.282759 0.5
   vertex -0.0323524 0.282759 0
  endloop
 endfacet
 facet normal -0.237686 0.971342 0
  outer loop
   vertex -0.0323524 0.282759 0.5
   vertex -0.027055 0.284055 0.5
   vertex -0.0323524 0.282759 0
  endloop
 endfacet
 facet normal -0.237686 0.971342 0
  outer loop
   vertex -0.0323524 0.282759 0
   vertex -0.027055 0.284055 0.5
   vertex -0.027055 0.284055 0
  endloop
 endfacet
 facet normal -0.19509 0.980785 0
  outer loop
   vertex -0.027055 0.284055 0.5
   vertex -0.021706 0.285119 0.5
   vertex -0.027055 0.284055 0
  endloop
 endfacet
 facet normal -0.19509 0.980785 0
  outer loop
   vertex -0.027055 0.284055 0
   vertex -0.021706 0.285119 0.5
   vertex -0.021706 0.285119 0
  endloop
 endfacet
 facet normal -0.152124 0.988361 0
  outer loop
   vertex -0.021706 0.285119 0.5
   vertex -0.0163158 0.285949 0.5
   vertex -0.021706 0.285119 0
  endloop
 endfacet
 facet normal -0.152124 0.988361 0
  outer loop
   vertex -0.021706 0.285119 0
   vertex -0.0163158 0.285949 0.5
   vertex -0.0163158 0.285949 0
  endloop
 endfacet
 facet normal -0.108867 0.994056 0
  outer loop
   vertex -0.0163158 0.285949 0.5
   vertex -0.0108945 0.286543 0.5
   vertex -0.0163158 0.285949 0
  endloop
 endfacet
 facet normal -0.108867 0.994056 0
  outer loop
   vertex -0.0163158 0.285949 0
   vertex -0.0108945 0.286543 0.5
   vertex -0.0108945 0.286543 0
  endloop
 endfacet
 facet normal -0.0654029 0.997859 0
  outer loop
   vertex -0.0108945 0.286543 0.5
   vertex -0.00545242 0.286899 0.5
   vertex -0.0108945 0.286543 0
  endloop
 endfacet
 facet normal -0.0654029 0.997859 0
  outer loop
   vertex -0.0108945 0.286543 0
   vertex -0.00545242 0.286899 0.5
   vertex -0.00545242 0.286899 0
  endloop
 endfacet
 facet normal -0.0218146 0.999762 0
  outer loop
   vertex -0.00545242 0.286899 0.5
   vertex -7.65404e-18 0.287018 0.5
   vertex -0.00545242 0.286899 0
  endloop
 endfacet
 facet normal -0.0218146 0.999762 0
  outer loop
   vertex -0.00545242 0.286899 0
   vertex -7.65404e-18 0.287018 0.5
   vertex -7.65404e-18 0.287018 0
  endloop
 endfacet
 facet normal 0.0218146 0.999762 0
  outer loop
   vertex -7.65404e-18 0.287018 0.5
   vertex 0.00545242 0.286899 0.5
   vertex -7.65404e-18 0.287018 0
  endloop
 endfacet
 facet normal 0.0218146 0.999762 0
  outer loop
   vertex -7.65404e-18 0.287018 0
   vertex 0.00545242 0.286899 0.5
   vertex 0.00545242 0.286899 0
  endloop
 endfacet
 facet normal 0.0654029 0.997859 0
  outer loop
   vertex 0.00545242 0.286899 0.5
   vertex 0.0108945 0.286543 0.5
   vertex 0.00545242 0.286899 0
  endloop
 endfacet
 facet normal 0.0654029 0.997859 0
  outer loop
   vertex 0.00545242 0.286899 0
   vertex 0.0108945 0.286543 0.5
   vertex 0.0108945 0.286543 0
  endloop
 endfacet
 facet normal 0.108867 0.994056 0
  outer loop
   vertex 0.0108945 0.286543 0.5
   vertex 0.0163158 0.285949 0.5
   vertex 0.0108945 0.286543 0
  endloop
 endfacet
 facet normal 0.108867 0.994056 0
  outer loop
   vertex 0.0108945 0.286543 0
   vertex 0.0163158 0.285949 0.5
   vertex 0.0163158 0.285949 0
  endloop
 endfacet
 facet normal 0.152124 0.988361 0
  outer loop
   vertex 0.0163158 0.285949 0.5
   vertex 0.021706 0.285119 0.5
   vertex 0.0163158 0.285949 0
  endloop
 endfacet
 facet normal 0.152124 0.988361 0
  outer loop
   vertex 0.0163158 0.285949 0
   vertex 0.021706 0.285119 0.5
   vertex 0.021706 0.285119 0
  endloop
 endfacet
 facet normal 0.19509 0.980785 0
  outer loop
   vertex 0.021706 0.285119 0.5
   vertex 0.027055 0.284055 0.5
   vertex 0.021706 0.285119 0
  endloop
 endfacet
 facet normal 0.19509 0.980785 0
  outer loop
   vertex 0.021706 0.285119 0
   vertex 0.027055 0.284055 0.5
   vertex 0.027055 0.284055 0
  endloop
 endfacet
 facet normal 0.237686 0.971342 0
  outer loop
   vertex 0.027055 0.284055 0.5
   vertex 0.0323524 0.282759 0.5
   vertex 0.027055 0.284055 0
  endloop
 endfacet
 facet normal 0.237686 0.971342 0
  outer loop
   vertex 0.027055 0.284055 0
   vertex 0.0323524 0.282759 0.5
   vertex 0.0323524 0.282759 0
  endloop
 endfacet
 facet normal 0.279829 0.96005 0
  outer loop
   vertex 0.0323524 0.282759 0.5
   vertex 0.0375882 0.281233 0.5
   vertex 0.0323524 0.282759 0
  endloop
 endfacet
 facet normal 0.279829 0.96005 0
  outer loop
   vertex 0.0323524 0.282759 0
   vertex 0.0375882 0.281233 0.5
   vertex 0.0375882 0.281233 0
  endloop
 endfacet
 facet normal 0.321439 0.94693 0
  outer loop
   vertex 0.0375882 0.281233 0.5
   vertex 0.0427525 0.27948 0.5
   vertex 0.0375882 0.281233 0
  endloop
 endfacet
 facet normal 0.321439 0.94693 0
  outer loop
   vertex 0.0375882 0.281233 0
   vertex 0.0427525 0.27948 0.5
   vertex 0.0427525 0.27948 0
  endloop
 endfacet
 facet normal 0.362439 0.932008 0
  outer loop
   vertex 0.0427525 0.27948 0.5
   vertex 0.0478354 0.277503 0.5
   vertex 0.0427525 0.27948 0
  endloop
 endfacet
 facet normal 0.362439 0.932008 0
  outer loop
   vertex 0.0427525 0.27948 0
   vertex 0.0478354 0.277503 0.5
   vertex 0.0478354 0.277503 0
  endloop
 endfacet
 facet normal 0.402745 0.915312 0
  outer loop
   vertex 0.0478354 0.277503 0.5
   vertex 0.0528273 0.275307 0.5
   vertex 0.0478354 0.277503 0
  endloop
 endfacet
 facet normal 0.402745 0.915312 0
  outer loop
   vertex 0.0478354 0.277503 0
   vertex 0.0528273 0.275307 0.5
   vertex 0.0528273 0.275307 0
  endloop
 endfacet
 facet normal 0.44229 0.896872 0
  outer loop
   vertex 0.0528273 0.275307 0.5
   vertex 0.0577186 0.272895 0.5
   vertex 0.0528273 0.275307 0
  endloop
 endfacet
 facet normal 0.44229 0.896872 0
  outer loop
   vertex 0.0528273 0.275307 0
   vertex 0.0577186 0.272895 0.5
   vertex 0.0577186 0.272895 0
  endloop
 endfacet
 facet normal 0.480989 0.876727 0
  outer loop
   vertex 0.0577186 0.272895 0.5
   vertex 0.0625 0.270271 0.5
   vertex 0.0577186 0.272895 0
  endloop
 endfacet
 facet normal 0.480989 0.876727 0
  outer loop
   vertex 0.0577186 0.272895 0
   vertex 0.0625 0.270271 0.5
   vertex 0.0625 0.270271 0
  endloop
 endfacet
 facet normal 0.518773 0.854912 0
  outer loop
   vertex 0.0625 0.270271 0.5
   vertex 0.0671625 0.267442 0.5
   vertex 0.0625 0.270271 0
  endloop
 endfacet
 facet normal 0.518773 0.854912 0
  outer loop
   vertex 0.0625 0.270271 0
   vertex 0.0671625 0.267442 0.5
   vertex 0.0671625 0.267442 0
  endloop
 endfacet
 facet normal 0.55557 0.83147 0
  outer loop
   vertex 0.0671625 0.267442 0.5
   vertex 0.0716971 0.264412 0.5
   vertex 0.0671625 0.267442 0
  endloop
 endfacet
 facet normal 0.55557 0.83147 0
  outer loop
   vertex 0.0671625 0.267442 0
   vertex 0.0716971 0.264412 0.5
   vertex 0.0716971 0.264412 0
  endloop
 endfacet
 facet normal 0.59131 0.806444 0
  outer loop
   vertex 0.0716971 0.264412 0.5
   vertex 0.0760952 0.261187 0.5
   vertex 0.0716971 0.264412 0
  endloop
 endfacet
 facet normal 0.59131 0.806444 0
  outer loop
   vertex 0.0716971 0.264412 0
   vertex 0.0760952 0.261187 0.5
   vertex 0.0760952 0.261187 0
  endloop
 endfacet
 facet normal 0.625923 0.779885 0
  outer loop
   vertex 0.0760952 0.261187 0.5
   vertex 0.0803485 0.257774 0.5
   vertex 0.0760952 0.261187 0
  endloop
 endfacet
 facet normal 0.625923 0.779885 0
  outer loop
   vertex 0.0760952 0.261187 0
   vertex 0.0803485 0.257774 0.5
   vertex 0.0803485 0.257774 0
  endloop
 endfacet
 facet normal 0.659346 0.75184 0
  outer loop
   vertex 0.0803485 0.257774 0.5
   vertex 0.0844488 0.254178 0.5
   vertex 0.0803485 0.257774 0
  endloop
 endfacet
 facet normal 0.659346 0.75184 0
  outer loop
   vertex 0.0803485 0.257774 0
   vertex 0.0844488 0.254178 0.5
   vertex 0.0844488 0.254178 0
  endloop
 endfacet
 facet normal 0.691513 0.722364 0
  outer loop
   vertex 0.0844488 0.254178 0.5
   vertex 0.0883883 0.250407 0.5
   vertex 0.0844488 0.254178 0
  endloop
 endfacet
 facet normal 0.691513 0.722364 0
  outer loop
   vertex 0.0844488 0.254178 0
   vertex 0.0883883 0.250407 0.5
   vertex 0.0883883 0.250407 0
  endloop
 endfacet
 facet normal 0.722364 0.691513 0
  outer loop
   vertex 0.0883883 0.250407 0.5
   vertex 0.0921597 0.246467 0.5
   vertex 0.0883883 0.250407 0
  endloop
 endfacet
 facet normal 0.722364 0.691513 0
  outer loop
   vertex 0.0883883 0.250407 0
   vertex 0.0921597 0.246467 0.5
   vertex 0.0921597 0.246467 0
  endloop
 endfacet
 facet normal 0.75184 0.659346 0
  outer loop
   vertex 0.0921597 0.246467 0.5
   vertex 0.0957556 0.242367 0.5
   vertex 0.0921597 0.246467 0
  endloop
 endfacet
 facet normal 0.75184 0.659346 0
  outer loop
   vertex 0.0921597 0.246467 0
   vertex 0.0957556 0.242367 0.5
   vertex 0.0957556 0.242367 0
  endloop
 endfacet
 facet normal 0.779885 0.625923 0
  outer loop
   vertex 0.0957556 0.242367 0.5
   vertex 0.0991692 0.238113 0.5
   vertex 0.0957556 0.242367 0
  endloop
 endfacet
 facet normal 0.779885 0.625923 0
  outer loop
   vertex 0.0957556 0.242367 0
   vertex 0.0991692 0.238113 0.5
   vertex 0.0991692 0.238113 0
  endloop
 endfacet
 facet normal 0.806444 0.59131 0
  outer loop
   vertex 0.0991692 0.238113 0.5
   vertex 0.102394 0.233715 0.5
   vertex 0.0991692 0.238113 0
  endloop
 endfacet
 facet normal 0.806444 0.59131 0
  outer loop
   vertex 0.0991692 0.238113 0
   vertex 0.102394 0.233715 0.5
   vertex 0.102394 0.233715 0
  endloop
 endfacet
 facet normal 0.83147 0.55557 0
  outer loop
   vertex 0.102394 0.233715 0.5
   vertex 0.105424 0.229181 0.5
   vertex 0.102394 0.233715 0
  endloop
 endfacet
 facet normal 0.83147 0.55557 0
  outer loop
   vertex 0.102394 0.233715 0
   vertex 0.105424 0.229181 0.5
   vertex 0.105424 0.229181 0
  endloop
 endfacet
 facet normal 0.854912 0.518773 0
  outer loop
   vertex 0.105424 0.229181 0.5
   vertex 0.108253 0.224518 0.5
   vertex 0.105424 0.229181 0
  endloop
 endfacet
 facet normal 0.854912 0.518773 0
  outer loop
   vertex 0.105424 0.229181 0
   vertex 0.108253 0.224518 0.5
   vertex 0.108253 0.224518 0
  endloop
 endfacet
 facet normal 0.876727 0.480989 0
  outer loop
   vertex 0.108253 0.224518 0.5
   vertex 0.110876 0.219737 0.5
   vertex 0.108253 0.224518 0
  endloop
 endfacet
 facet normal 0.876727 0.480989 0
  outer loop
   vertex 0.108253 0.224518 0
   vertex 0.110876 0.219737 0.5
   vertex 0.110876 0.219737 0
  endloop
 endfacet
 facet normal 0.896872 0.44229 0
  outer loop
   vertex 0.110876 0.219737 0.5
   vertex 0.113288 0.214846 0.5
   vertex 0.110876 0.219737 0
  endloop
 endfacet
 facet normal 0.896872 0.44229 0
  outer loop
   vertex 0.110876 0.219737 0
   vertex 0.113288 0.214846 0.5
   vertex 0.113288 0.214846 0
  endloop
 endfacet
 facet normal 0.915312 0.402745 0
  outer loop
   vertex 0.113288 0.214846 0.5
   vertex 0.115485 0.209854 0.5
   vertex 0.113288 0.214846 0
  endloop
 endfacet
 facet normal 0.915312 0.402745 0
  outer loop
   vertex 0.113288 0.214846 0
   vertex 0.115485 0.209854 0.5
   vertex 0.115485 0.209854 0
  endloop
 endfacet
 facet normal 0.932008 0.362439 0
  outer loop
   vertex 0.115485 0.209854 0.5
   vertex 0.117462 0.204771 0.5
   vertex 0.115485 0.209854 0
  endloop
 endfacet
 facet normal 0.932008 0.362439 0
  outer loop
   vertex 0.115485 0.209854 0
   vertex 0.117462 0.204771 0.5
   vertex 0.117462 0.204771 0
  endloop
 endfacet
 facet normal 0.94693 0.321439 0
  outer loop
   vertex 0.117462 0.204771 0.5
   vertex 0.119215 0.199607 0.5
   vertex 0.117462 0.204771 0
  endloop
 endfacet
 facet normal 0.94693 0.321439 0
  outer loop
   vertex 0.117462 0.204771 0
   vertex 0.119215 0.199607 0.5
   vertex 0.119215 0.199607 0
  endloop
 endfacet
 facet normal 0.96005 0.279829 0
  outer loop
   vertex 0.119215 0.199607 0.5
   vertex 0.120741 0.194371 0.5
   vertex 0.119215 0.199607 0
  endloop
 endfacet
 facet normal 0.96005 0.279829 0
  outer loop
   vertex 0.119215 0.199607 0
   vertex 0.120741 0.194371 0.5
   vertex 0.120741 0.194371 0
  endloop
 endfacet
 facet normal 0.971342 0.237686 0
  outer loop
   vertex 0.120741 0.194371 0.5
   vertex 0.122037 0.189073 0.5
   vertex 0.120741 0.194371 0
  endloop
 endfacet
 facet normal 0.971342 0.237686 0
  outer loop
   vertex 0.120741 0.194371 0
   vertex 0.122037 0.189073 0.5
   vertex 0.122037 0.189073 0
  endloop
 endfacet
 facet normal 0.980785 0.19509 0
  outer loop
   vertex 0.122037 0.189073 0.5
   vertex 0.123101 0.183724 0.5
   vertex 0.122037 0.189073 0
  endloop
 endfacet
 facet normal 0.980785 0.19509 0
  outer loop
   vertex 0.122037 0.189073 0
   vertex 0.123101 0.183724 0.5
   vertex 0.123101 0.183724 0
  endloop
 endfacet
 facet normal 0.988361 0.152124 0
  outer loop
   vertex 0.123101 0.183724 0.5
   vertex 0.123931 0.178334 0.5
   vertex 0.123101 0.183724 0
  endloop
 endfacet
 facet normal 0.988361 0.152124 0
  outer loop
   vertex 0.123101 0.183724 0
   vertex 0.123931 0.178334 0.5
   vertex 0.123931 0.178334 0
  endloop
 endfacet
 facet normal 0.994056 0.108867 0
  outer loop
   vertex 0.123931 0.178334 0.5
   vertex 0.124524 0.172913 0.5
   vertex 0.123931 0.178334 0
  endloop
 endfacet
 facet normal 0.994056 0.108867 0
  outer loop
   vertex 0.123931 0.178334 0
   vertex 0.124524 0.172913 0.5
   vertex 0.124524 0.172913 0
  endloop
 endfacet
 facet normal 0.997859 0.0654029 0
  outer loop
   vertex 0.124524 0.172913 0.5
   vertex 0.124881 0.167471 0.5
   vertex 0.124524 0.172913 0
  endloop
 endfacet
 facet normal 0.997859 0.0654029 0
  outer loop
   vertex 0.124524 0.172913 0
   vertex 0.124881 0.167471 0.5
   vertex 0.124881 0.167471 0
  endloop
 endfacet
 facet normal 0.999762 0.0218146 0
  outer loop
   vertex 0.124881 0.167471 0.5
   vertex 0.125 0.162018 0.5
   vertex 0.124881 0.167471 0
  endloop
 endfacet
 facet normal 0.999762 0.0218146 -1.20367e-18
  outer loop
   vertex 0.124881 0.167471 0
   vertex 0.125 0.162018 0.5
   vertex 0.125 0.162018 0
  endloop
 endfacet
 facet normal 0.999762 -0.0218146 1.21095e-18
  outer loop
   vertex 0.125 0.162018 0.5
   vertex 0.124881 0.156566 0.5
   vertex 0.125 0.162018 0
  endloop
 endfacet
 facet normal 0.999762 -0.0218146 0
  outer loop
   vertex 0.125 0.162018 0
   vertex 0.124881 0.156566 0.5
   vertex 0.124881 0.156566 0
  endloop
 endfacet
 facet normal 0.997859 -0.0654029 0
  outer loop
   vertex 0.124881 0.156566 0.5
   vertex 0.124524 0.151124 0.5
   vertex 0.124881 0.156566 0
  endloop
 endfacet
 facet normal 0.997859 -0.0654029 0
  outer loop
   vertex 0.124881 0.156566 0
   vertex 0.124524 0.151124 0.5
   vertex 0.124524 0.151124 0
  endloop
 endfacet
 facet normal 0.994056 -0.108867 0
  outer loop
   vertex 0.124524 0.151124 0.5
   vertex 0.123931 0.145703 0.5
   vertex 0.124524 0.151124 0
  endloop
 endfacet
 facet normal 0.994056 -0.108867 0
  outer loop
   vertex 0.124524 0.151124 0
   vertex 0.123931 0.145703 0.5
   vertex 0.123931 0.145703 0
  endloop
 endfacet
 facet normal 0.988361 -0.152124 0
  outer loop
   vertex 0.123931 0.145703 0.5
   vertex 0.123101 0.140312 0.5
   vertex 0.123931 0.145703 0
  endloop
 endfacet
 facet normal 0.988361 -0.152124 0
  outer loop
   vertex 0.123931 0.145703 0
   vertex 0.123101 0.140312 0.5
   vertex 0.123101 0.140312 0
  endloop
 endfacet
 facet normal 0.980785 -0.19509 0
  outer loop
   vertex 0.123101 0.140312 0.5
   vertex 0.122037 0.134963 0.5
   vertex 0.123101 0.140312 0
  endloop
 endfacet
 facet normal 0.980785 -0.19509 0
  outer loop
   vertex 0.123101 0.140312 0
   vertex 0.122037 0.134963 0.5
   vertex 0.122037 0.134963 0
  endloop
 endfacet
 facet normal 0.971342 -0.237686 0
  outer loop
   vertex 0.122037 0.134963 0.5
   vertex 0.120741 0.129666 0.5
   vertex 0.122037 0.134963 0
  endloop
 endfacet
 facet normal 0.971342 -0.237686 0
  outer loop
   vertex 0.122037 0.134963 0
   vertex 0.120741 0.129666 0.5
   vertex 0.120741 0.129666 0
  endloop
 endfacet
 facet normal 0.96005 -0.279829 0
  outer loop
   vertex 0.120741 0.129666 0.5
   vertex 0.119215 0.12443 0.5
   vertex 0.120741 0.129666 0
  endloop
 endfacet
 facet normal 0.96005 -0.279829 0
  outer loop
   vertex 0.120741 0.129666 0
   vertex 0.119215 0.12443 0.5
   vertex 0.119215 0.12443 0
  endloop
 endfacet
 facet normal 0.94693 -0.321439 0
  outer loop
   vertex 0.119215 0.12443 0.5
   vertex 0.117462 0.119266 0.5
   vertex 0.119215 0.12443 0
  endloop
 endfacet
 facet normal 0.94693 -0.321439 0
  outer loop
   vertex 0.119215 0.12443 0
   vertex 0.117462 0.119266 0.5
   vertex 0.117462 0.119266 0
  endloop
 endfacet
 facet normal 0.932008 -0.362439 0
  outer loop
   vertex 0.117462 0.119266 0.5
   vertex 0.115485 0.114183 0.5
   vertex 0.117462 0.119266 0
  endloop
 endfacet
 facet normal 0.932008 -0.362439 0
  outer loop
   vertex 0.117462 0.119266 0
   vertex 0.115485 0.114183 0.5
   vertex 0.115485 0.114183 0
  endloop
 endfacet
 facet normal 0.915312 -0.402745 0
  outer loop
   vertex 0.115485 0.114183 0.5
   vertex 0.113288 0.109191 0.5
   vertex 0.115485 0.114183 0
  endloop
 endfacet
 facet normal 0.915312 -0.402745 0
  outer loop
   vertex 0.115485 0.114183 0
   vertex 0.113288 0.109191 0.5
   vertex 0.113288 0.109191 0
  endloop
 endfacet
 facet normal 0.896872 -0.44229 0
  outer loop
   vertex 0.113288 0.109191 0.5
   vertex 0.110876 0.1043 0.5
   vertex 0.113288 0.109191 0
  endloop
 endfacet
 facet normal 0.896872 -0.44229 0
  outer loop
   vertex 0.113288 0.109191 0
   vertex 0.110876 0.1043 0.5
   vertex 0.110876 0.1043 0
  endloop
 endfacet
 facet normal 0.876727 -0.480989 0
  outer loop
   vertex 0.110876 0.1043 0.5
   vertex 0.108253 0.0995183 0.5
   vertex 0.110876 0.1043 0
  endloop
 endfacet
 facet normal 0.876727 -0.480989 0
  outer loop
   vertex 0.110876 0.1043 0
   vertex 0.108253 0.0995183 0.5
   vertex 0.108253 0.0995183 0
  endloop
 endfacet
 facet normal 0.854912 -0.518773 0
  outer loop
   vertex 0.108253 0.0995183 0.5
   vertex 0.105424 0.0948558 0.5
   vertex 0.108253 0.0995183 0
  endloop
 endfacet
 facet normal 0.854912 -0.518773 0
  outer loop
   vertex 0.108253 0.0995183 0
   vertex 0.105424 0.0948558 0.5
   vertex 0.105424 0.0948558 0
  endloop
 endfacet
 facet normal 0.83147 -0.55557 0
  outer loop
   vertex 0.105424 0.0948558 0.5
   vertex 0.102394 0.0903212 0.5
   vertex 0.105424 0.0948558 0
  endloop
 endfacet
 facet normal 0.83147 -0.55557 0
  outer loop
   vertex 0.105424 0.0948558 0
   vertex 0.102394 0.0903212 0.5
   vertex 0.102394 0.0903212 0
  endloop
 endfacet
 facet normal 0.806444 -0.59131 0
  outer loop
   vertex 0.102394 0.0903212 0.5
   vertex 0.0991692 0.0859231 0.5
   vertex 0.102394 0.0903212 0
  endloop
 endfacet
 facet normal 0.806444 -0.59131 0
  outer loop
   vertex 0.102394 0.0903212 0
   vertex 0.0991692 0.0859231 0.5
   vertex 0.0991692 0.0859231 0
  endloop
 endfacet
 facet normal 0.779885 -0.625923 0
  outer loop
   vertex 0.0991692 0.0859231 0.5
   vertex 0.0957556 0.0816698 0.5
   vertex 0.0991692 0.0859231 0
  endloop
 endfacet
 facet normal 0.779885 -0.625923 0
  outer loop
   vertex 0.0991692 0.0859231 0
   vertex 0.0957556 0.0816698 0.5
   vertex 0.0957556 0.0816698 0
  endloop
 endfacet
 facet normal 0.75184 -0.659346 0
  outer loop
   vertex 0.0957556 0.0816698 0.5
   vertex 0.0921597 0.0775695 0.5
   vertex 0.0957556 0.0816698 0
  endloop
 endfacet
 facet normal 0.75184 -0.659346 0
  outer loop
   vertex 0.0957556 0.0816698 0
   vertex 0.0921597 0.0775695 0.5
   vertex 0.0921597 0.0775695 0
  endloop
 endfacet
 facet normal 0.722364 -0.691513 0
  outer loop
   vertex 0.0921597 0.0775695 0.5
   vertex 0.0883883 0.0736299 0.5
   vertex 0.0921597 0.0775695 0
  endloop
 endfacet
 facet normal 0.722364 -0.691513 0
  outer loop
   vertex 0.0921597 0.0775695 0
   vertex 0.0883883 0.0736299 0.5
   vertex 0.0883883 0.0736299 0
  endloop
 endfacet
 facet normal 0.691513 -0.722364 0
  outer loop
   vertex 0.0883883 0.0736299 0.5
   vertex 0.0844488 0.0698586 0.5
   vertex 0.0883883 0.0736299 0
  endloop
 endfacet
 facet normal 0.691513 -0.722364 0
  outer loop
   vertex 0.0883883 0.0736299 0
   vertex 0.0844488 0.0698586 0.5
   vertex 0.0844488 0.0698586 0
  endloop
 endfacet
 facet normal 0.659346 -0.75184 0
  outer loop
   vertex 0.0844488 0.0698586 0.5
   vertex 0.0803485 0.0662627 0.5
   vertex 0.0844488 0.0698586 0
  endloop
 endfacet
 facet normal 0.659346 -0.75184 0
  outer loop
   vertex 0.0844488 0.0698586 0
   vertex 0.0803485 0.0662627 0.5
   vertex 0.0803485 0.0662627 0
  endloop
 endfacet
 facet normal 0.625923 -0.779885 0
  outer loop
   vertex 0.0803485 0.0662627 0.5
   vertex 0.0760952 0.0628491 0.5
   vertex 0.0803485 0.0662627 0
  endloop
 endfacet
 facet normal 0.625923 -0.779885 0
  outer loop
   vertex 0.0803485 0.0662627 0
   vertex 0.0760952 0.0628491 0.5
   vertex 0.0760952 0.0628491 0
  endloop
 endfacet
 facet normal 0.59131 -0.806444 0
  outer loop
   vertex 0.0760952 0.0628491 0.5
   vertex 0.0716971 0.0596243 0.5
   vertex 0.0760952 0.0628491 0
  endloop
 endfacet
 facet normal 0.59131 -0.806444 0
  outer loop
   vertex 0.0760952 0.0628491 0
   vertex 0.0716971 0.0596243 0.5
   vertex 0.0716971 0.0596243 0
  endloop
 endfacet
 facet normal 0.55557 -0.83147 0
  outer loop
   vertex 0.0716971 0.0596243 0.5
   vertex 0.0671625 0.0565944 0.5
   vertex 0.0716971 0.0596243 0
  endloop
 endfacet
 facet normal 0.55557 -0.83147 0
  outer loop
   vertex 0.0716971 0.0596243 0
   vertex 0.0671625 0.0565944 0.5
   vertex 0.0671625 0.0565944 0
  endloop
 endfacet
 facet normal 0.518773 -0.854912 0
  outer loop
   vertex 0.0671625 0.0565944 0.5
   vertex 0.0625 0.0537651 0.5
   vertex 0.0671625 0.0565944 0
  endloop
 endfacet
 facet normal 0.518773 -0.854912 0
  outer loop
   vertex 0.0671625 0.0565944 0
   vertex 0.0625 0.0537651 0.5
   vertex 0.0625 0.0537651 0
  endloop
 endfacet
 facet normal 0.480989 -0.876727 0
  outer loop
   vertex 0.0625 0.0537651 0.5
   vertex 0.0577186 0.0511419 0.5
   vertex 0.0625 0.0537651 0
  endloop
 endfacet
 facet normal 0.480989 -0.876727 0
  outer loop
   vertex 0.0625 0.0537651 0
   vertex 0.0577186 0.0511419 0.5
   vertex 0.0577186 0.0511419 0
  endloop
 endfacet
 facet normal 0.44229 -0.896872 0
  outer loop
   vertex 0.0577186 0.0511419 0.5
   vertex 0.0528273 0.0487298 0.5
   vertex 0.0577186 0.0511419 0
  endloop
 endfacet
 facet normal 0.44229 -0.896872 0
  outer loop
   vertex 0.0577186 0.0511419 0
   vertex 0.0528273 0.0487298 0.5
   vertex 0.0528273 0.0487298 0
  endloop
 endfacet
 facet normal 0.402745 -0.915312 0
  outer loop
   vertex 0.0528273 0.0487298 0.5
   vertex 0.0478354 0.0465334 0.5
   vertex 0.0528273 0.0487298 0
  endloop
 endfacet
 facet normal 0.402745 -0.915312 0
  outer loop
   vertex 0.0528273 0.0487298 0
   vertex 0.0478354 0.0465334 0.5
   vertex 0.0478354 0.0465334 0
  endloop
 endfacet
 facet normal 0.362439 -0.932008 0
  outer loop
   vertex 0.0478354 0.0465334 0.5
   vertex 0.0427525 0.0445567 0.5
   vertex 0.0478354 0.0465334 0
  endloop
 endfacet
 facet normal 0.362439 -0.932008 0
  outer loop
   vertex 0.0478354 0.0465334 0
   vertex 0.0427525 0.0445567 0.5
   vertex 0.0427525 0.0445567 0
  endloop
 endfacet
 facet normal 0.321439 -0.94693 0
  outer loop
   vertex 0.0427525 0.0445567 0.5
   vertex 0.0375882 0.0428037 0.5
   vertex 0.0427525 0.0445567 0
  endloop
 endfacet
 facet normal 0.321439 -0.94693 0
  outer loop
   vertex 0.0427525 0.0445567 0
   vertex 0.0375882 0.0428037 0.5
   vertex 0.0375882 0.0428037 0
  endloop
 endfacet
 facet normal 0.279829 -0.96005 0
  outer loop
   vertex 0.0375882 0.0428037 0.5
   vertex 0.0323524 0.0412776 0.5
   vertex 0.0375882 0.0428037 0
  endloop
 endfacet
 facet normal 0.279829 -0.96005 0
  outer loop
   vertex 0.0375882 0.0428037 0
   vertex 0.0323524 0.0412776 0.5
   vertex 0.0323524 0.0412776 0
  endloop
 endfacet
 facet normal 0.237686 -0.971342 0
  outer loop
   vertex 0.0323524 0.0412776 0.5
   vertex 0.027055 0.0399813 0.5
   vertex 0.0323524 0.0412776 0
  endloop
 endfacet
 facet normal 0.237686 -0.971342 0
  outer loop
   vertex 0.0323524 0.0412776 0
   vertex 0.027055 0.0399813 0.5
   vertex 0.027055 0.0399813 0
  endloop
 endfacet
 facet normal 0.19509 -0.980785 0
  outer loop
   vertex 0.027055 0.0399813 0.5
   vertex 0.021706 0.0389173 0.5
   vertex 0.027055 0.0399813 0
  endloop
 endfacet
 facet normal 0.19509 -0.980785 0
  outer loop
   vertex 0.027055 0.0399813 0
   vertex 0.021706 0.0389173 0.5
   vertex 0.021706 0.0389173 0
  endloop
 endfacet
 facet normal 0.152124 -0.988361 0
  outer loop
   vertex 0.021706 0.0389173 0.5
   vertex 0.0163158 0.0380877 0.5
   vertex 0.021706 0.0389173 0
  endloop
 endfacet
 facet normal 0.152124 -0.988361 0
  outer loop
   vertex 0.021706 0.0389173 0
   vertex 0.0163158 0.0380877 0.5
   vertex 0.0163158 0.0380877 0
  endloop
 endfacet
 facet normal 0.108867 -0.994056 0
  outer loop
   vertex 0.0163158 0.0380877 0.5
   vertex 0.0108945 0.037494 0.5
   vertex 0.0163158 0.0380877 0
  endloop
 endfacet
 facet normal 0.108867 -0.994056 0
  outer loop
   vertex 0.0163158 0.0380877 0
   vertex 0.0108945 0.037494 0.5
   vertex 0.0108945 0.037494 0
  endloop
 endfacet
 facet normal 0.0654029 -0.997859 0
  outer loop
   vertex 0.0108945 0.037494 0.5
   vertex 0.00545242 0.0371373 0.5
   vertex 0.0108945 0.037494 0
  endloop
 endfacet
 facet normal 0.0654029 -0.997859 0
  outer loop
   vertex 0.0108945 0.037494 0
   vertex 0.00545242 0.0371373 0.5
   vertex 0.00545242 0.0371373 0
  endloop
 endfacet
 facet normal 0.0218146 -0.999762 0
  outer loop
   vertex 0.00545242 0.0371373 0.5
   vertex 2.29621e-17 0.0370183 0.5
   vertex 0.00545242 0.0371373 0
  endloop
 endfacet
 facet normal 0.0218146 -0.999762 0
  outer loop
   vertex 0.00545242 0.0371373 0
   vertex 2.29621e-17 0.0370183 0.5
   vertex 2.29621e-17 0.0370183 0
  endloop
 endfacet
 facet normal -0.0218146 -0.999762 -0
  outer loop
   vertex 2.29621e-17 0.0370183 0.5
   vertex -0.00545242 0.0371373 0.5
   vertex 2.29621e-17 0.0370183 0
  endloop
 endfacet
 facet normal -0.0218146 -0.999762 0
  outer loop
   vertex 2.29621e-17 0.0370183 0
   vertex -0.00545242 0.0371373 0.5
   vertex -0.00545242 0.0371373 0
  endloop
 endfacet
 facet normal -0.0654029 -0.997859 -0
  outer loop
   vertex -0.00545242 0.0371373 0.5
   vertex -0.0108945 0.037494 0.5
   vertex -0.00545242 0.0371373 0
  endloop
 endfacet
 facet normal -0.0654029 -0.997859 0
  outer loop
   vertex -0.00545242 0.0371373 0
   vertex -0.0108945 0.037494 0.5
   vertex -0.0108945 0.037494 0
  endloop
 endfacet
 facet normal -0.108867 -0.994056 -0
  outer loop
   vertex -0.0108945 0.037494 0.5
   vertex -0.0163158 0.0380877 0.5
   vertex -0.0108945 0.037494 0
  endloop
 endfacet
 facet normal -0.108867 -0.994056 0
  outer loop
   vertex -0.0108945 0.037494 0
   vertex -0.0163158 0.0380877 0.5
   vertex -0.0163158 0.0380877 0
  endloop
 endfacet
 facet normal -0.152124 -0.988361 -0
  outer loop
   vertex -0.0163158 0.0380877 0.5
   vertex -0.021706 0.0389173 0.5
   vertex -0.0163158 0.0380877 0
  endloop
 endfacet
 facet normal -0.152124 -0.988361 0
  outer loop
   vertex -0.0163158 0.0380877 0
   vertex -0.021706 0.0389173 0.5
   vertex -0.021706 0.0389173 0
  endloop
 endfacet
 facet normal -0.19509 -0.980785 -0
  outer loop
   vertex -0.021706 0.0389173 0.5
   vertex -0.027055 0.0399813 0.5
   vertex -0.021706 0.0389173 0
  endloop
 endfacet
 facet normal -0.19509 -0.980785 0
  outer loop
   vertex -0.021706 0.0389173 0
   vertex -0.027055 0.0399813 0.5
   vertex -0.027055 0.0399813 0
  endloop
 endfacet
 facet normal -0.237686 -0.971342 -0
  outer loop
   vertex -0.027055 0.0399813 0.5
   vertex -0.0323524 0.0412776 0.5
   vertex -0.027055 0.0399813 0
  endloop
 endfacet
 facet normal -0.237686 -0.971342 0
  outer loop
   vertex -0.027055 0.0399813 0
   vertex -0.0323524 0.0412776 0.5
   vertex -0.0323524 0.0412776 0
  endloop
 endfacet
 facet normal -0.279829 -0.96005 -0
  outer loop
   vertex -0.0323524 0.0412776 0.5
   vertex -0.0375882 0.0428037 0.5
   vertex -0.0323524 0.0412776 0
  endloop
 endfacet
 facet normal -0.279829 -0.96005 0
  outer loop
   vertex -0.0323524 0.0412776 0
   vertex -0.0375882 0.0428037 0.5
   vertex -0.0375882 0.0428037 0
  endloop
 endfacet
 facet normal -0.321439 -0.94693 -0
  outer loop
   vertex -0.0375882 0.0428037 0.5
   vertex -0.0427525 0.0445567 0.5
   vertex -0.0375882 0.0428037 0
  endloop
 endfacet
 facet normal -0.321439 -0.94693 0
  outer loop
   vertex -0.0375882 0.0428037 0
   vertex -0.0427525 0.0445567 0.5
   vertex -0.0427525 0.0445567 0
  endloop
 endfacet
 facet normal -0.362439 -0.932008 -0
  outer loop
   vertex -0.0427525 0.0445567 0.5
   vertex -0.0478354 0.0465334 0.5
   vertex -0.0427525 0.0445567 0
  endloop
 endfacet
 facet normal -0.362439 -0.932008 0
  outer loop
   vertex -0.0427525 0.0445567 0
   vertex -0.0478354 0.0465334 0.5
   vertex -0.0478354 0.0465334 0
  endloop
 endfacet
 facet normal -0.402745 -0.915312 -0
  outer loop
   vertex -0.0478354 0.0465334 0.5
   vertex -0.0528273 0.0487298 0.5
   vertex -0.0478354 0.0465334 0
  endloop
 endfacet
 facet normal -0.402745 -0.915312 0
  outer loop
   vertex -0.0478354 0.0465334 0
   vertex -0.0528273 0.0487298 0.5
   vertex -0.0528273 0.0487298 0
  endloop
 endfacet
 facet normal -0.44229 -0.896872 -0
  outer loop
   vertex -0.0528273 0.0487298 0.5
   vertex -0.0577186 0.0511419 0.5
   vertex -0.0528273 0.0487298 0
  endloop
 endfacet
 facet normal -0.44229 -0.896872 0
  outer loop
   vertex -0.0528273 0.0487298 0
   vertex -0.0577186 0.0511419 0.5
   vertex -0.0577186 0.0511419 0
  endloop
 endfacet
 facet normal -0.480989 -0.876727 -0
  outer loop
   vertex -0.0577186 0.0511419 0.5
   vertex -0.0625 0.0537651 0.5
   vertex -0.0577186 0.0511419 0
  endloop
 endfacet
 facet normal -0.480989 -0.876727 0
  outer loop
   vertex -0.0577186 0.0511419 0
   vertex -0.0625 0.0537651 0.5
   vertex -0.0625 0.0537651 0
  endloop
 endfacet
 facet normal -0.518773 -0.854912 -0
  outer loop
   vertex -0.0625 0.0537651 0.5
   vertex -0.0671625 0.0565944 0.5
   vertex -0.0625 0.0537651 0
  endloop
 endfacet
 facet normal -0.518773 -0.854912 0
  outer loop
   vertex -0.0625 0.0537651 0
   vertex -0.0671625 0.0565944 0.5
   vertex -0.0671625 0.0565944 0
  endloop
 endfacet
 facet normal -0.55557 -0.83147 -0
  outer loop
   vertex -0.0671625 0.0565944 0.5
   vertex -0.0716971 0.0596243 0.5
   vertex -0.0671625 0.0565944 0
  endloop
 endfacet
 facet normal -0.55557 -0.83147 0
  outer loop
   vertex -0.0671625 0.0565944 0
   vertex -0.0716971 0.0596243 0.5
   vertex -0.0716971 0.0596243 0
  endloop
 endfacet
 facet normal -0.59131 -0.806444 -0
  outer loop
   vertex -0.0716971 0.0596243 0.5
   vertex -0.0760952 0.0628491 0.5
   vertex -0.0716971 0.0596243 0
  endloop
 endfacet
 facet normal -0.59131 -0.806444 0
  outer loop
   vertex -0.0716971 0.0596243 0
   vertex -0.0760952 0.0628491 0.5
   vertex -0.0760952 0.0628491 0
  endloop
 endfacet
 facet normal -0.625923 -0.779885 -0
  outer loop
   vertex -0.0760952 0.0628491 0.5
   vertex -0.0803485 0.0662627 0.5
   vertex -0.0760952 0.0628491 0
  endloop
 endfacet
 facet normal -0.625923 -0.779885 0
  outer loop
   vertex -0.0760952 0.0628491 0
   vertex -0.0803485 0.0662627 0.5
   vertex -0.0803485 0.0662627 0
  endloop
 endfacet
 facet normal -0.659346 -0.75184 -0
  outer loop
   vertex -0.0803485 0.0662627 0.5
   vertex -0.0844488 0.0698586 0.5
   vertex -0.0803485 0.0662627 0
  endloop
 endfacet
 facet normal -0.659346 -0.75184 0
  outer loop
   vertex -0.0803485 0.0662627 0
   vertex -0.0844488 0.0698586 0.5
   vertex -0.0844488 0.0698586 0
  endloop
 endfacet
 facet normal -0.691513 -0.722364 -0
  outer loop
   vertex -0.0844488 0.0698586 0.5
   vertex -0.0883883 0.0736299 0.5
   vertex -0.0844488 0.0698586 0
  endloop
 endfacet
 facet normal -0.691513 -0.722364 0
  outer loop
   vertex -0.0844488 0.0698586 0
   vertex -0.0883883 0.0736299 0.5
   vertex -0.0883883 0.0736299 0
  endloop
 endfacet
 facet normal -0.722364 -0.691513 -0
  outer loop
   vertex -0.0883883 0.0736299 0.5
   vertex -0.0921597 0.0775695 0.5
   vertex -0.0883883 0.0736299 0
  endloop
 endfacet
 facet normal -0.722364 -0.691513 0
  outer loop
   vertex -0.0883883 0.0736299 0
   vertex -0.0921597 0.0775695 0.5
   vertex -0.0921597 0.0775695 0
  endloop
 endfacet
 facet normal -0.75184 -0.659346 -0
  outer loop
   vertex -0.0921597 0.0775695 0.5
   vertex -0.0957556 0.0816698 0.5
   vertex -0.0921597 0.0775695 0
  endloop
 endfacet
 facet normal -0.75184 -0.659346 0
  outer loop
   vertex -0.0921597 0.0775695 0
   vertex -0.0957556 0.0816698 0.5
   vertex -0.0957556 0.0816698 0
  endloop
 endfacet
 facet normal -0.779885 -0.625923 -0
  outer loop
   vertex -0.0957556 0.0816698 0.5
   vertex -0.0991692 0.0859231 0.5
   vertex -0.0957556 0.0816698 0
  endloop
 endfacet
 facet normal -0.779885 -0.625923 0
  outer loop
   vertex -0.0957556 0.0816698 0
   vertex -0.0991692 0.0859231 0.5
   vertex -0.0991692 0.0859231 0
  endloop
 endfacet
 facet normal -0.806444 -0.59131 -0
  outer loop
   vertex -0.0991692 0.0859231 0.5
   vertex -0.102394 0.0903212 0.5
   vertex -0.0991692 0.0859231 0
  endloop
 endfacet
 facet normal -0.806444 -0.59131 0
  outer loop
   vertex -0.0991692 0.0859231 0
   vertex -0.102394 0.0903212 0.5
   vertex -0.102394 0.0903212 0
  endloop
 endfacet
 facet normal -0.83147 -0.55557 -0
  outer loop
   vertex -0.102394 0.0903212 0.5
   vertex -0.105424 0.0948558 0.5
   vertex -0.102394 0.0903212 0
  endloop
 endfacet
 facet normal -0.83147 -0.55557 0
  outer loop
   vertex -0.102394 0.0903212 0
   vertex -0.105424 0.0948558 0.5
   vertex -0.105424 0.0948558 0
  endloop
 endfacet
 facet normal -0.854912 -0.518773 -0
  outer loop
   vertex -0.105424 0.0948558 0.5
   vertex -0.108253 0.0995183 0.5
   vertex -0.105424 0.0948558 0
  endloop
 endfacet
 facet normal -0.854912 -0.518773 0
  outer loop
   vertex -0.105424 0.0948558 0
   vertex -0.108253 0.0995183 0.5
   vertex -0.108253 0.0995183 0
  endloop
 endfacet
 facet normal -0.876727 -0.480989 -0
  outer loop
   vertex -0.108253 0.0995183 0.5
   vertex -0.110876 0.1043 0.5
   vertex -0.108253 0.0995183 0
  endloop
 endfacet
 facet normal -0.876727 -0.480989 0
  outer loop
   vertex -0.108253 0.0995183 0
   vertex -0.110876 0.1043 0.5
   vertex -0.110876 0.1043 0
  endloop
 endfacet
 facet normal -0.896872 -0.44229 -0
  outer loop
   vertex -0.110876 0.1043 0.5
   vertex -0.113288 0.109191 0.5
   vertex -0.110876 0.1043 0
  endloop
 endfacet
 facet normal -0.896872 -0.44229 0
  outer loop
   vertex -0.110876 0.1043 0
   vertex -0.113288 0.109191 0.5
   vertex -0.113288 0.109191 0
  endloop
 endfacet
 facet normal -0.915312 -0.402745 -0
  outer loop
   vertex -0.113288 0.109191 0.5
   vertex -0.115485 0.114183 0.5
   vertex -0.113288 0.109191 0
  endloop
 endfacet
 facet normal -0.915312 -0.402745 0
  outer loop
   vertex -0.113288 0.109191 0
   vertex -0.115485 0.114183 0.5
   vertex -0.115485 0.114183 0
  endloop
 endfacet
 facet normal -0.932008 -0.362439 -0
  outer loop
   vertex -0.115485 0.114183 0.5
   vertex -0.117462 0.119266 0.5
   vertex -0.115485 0.114183 0
  endloop
 endfacet
 facet normal -0.932008 -0.362439 0
  outer loop
   vertex -0.115485 0.114183 0
   vertex -0.117462 0.119266 0.5
   vertex -0.117462 0.119266 0
  endloop
 endfacet
 facet normal -0.94693 -0.321439 -0
  outer loop
   vertex -0.117462 0.119266 0.5
   vertex -0.119215 0.12443 0.5
   vertex -0.117462 0.119266 0
  endloop
 endfacet
 facet normal -0.94693 -0.321439 0
  outer loop
   vertex -0.117462 0.119266 0
   vertex -0.119215 0.12443 0.5
   vertex -0.119215 0.12443 0
  endloop
 endfacet
 facet normal -0.96005 -0.279829 -0
  outer loop
   vertex -0.119215 0.12443 0.5
   vertex -0.120741 0.129666 0.5
   vertex -0.119215 0.12443 0
  endloop
 endfacet
 facet normal -0.96005 -0.279829 0
  outer loop
   vertex -0.119215 0.12443 0
   vertex -0.120741 0.129666 0.5
   vertex -0.120741 0.129666 0
  endloop
 endfacet
 facet normal -0.971342 -0.237686 -0
  outer loop
   vertex -0.120741 0.129666 0.5
   vertex -0.122037 0.134963 0.5
   vertex -0.120741 0.129666 0
  endloop
 endfacet
 facet normal -0.971342 -0.237686 0
  outer loop
   vertex -0.120741 0.129666 0
   vertex -0.122037 0.134963 0.5
   vertex -0.122037 0.134963 0
  endloop
 endfacet
 facet normal -0.980785 -0.19509 -0
  outer loop
   vertex -0.122037 0.134963 0.5
   vertex -0.123101 0.140312 0.5
   vertex -0.122037 0.134963 0
  endloop
 endfacet
 facet normal -0.980785 -0.19509 0
  outer loop
   vertex -0.122037 0.134963 0
   vertex -0.123101 0.140312 0.5
   vertex -0.123101 0.140312 0
  endloop
 endfacet
 facet normal -0.988361 -0.152124 -0
  outer loop
   vertex -0.123101 0.140312 0.5
   vertex -0.123931 0.145703 0.5
   vertex -0.123101 0.140312 0
  endloop
 endfacet
 facet normal -0.988361 -0.152124 0
  outer loop
   vertex -0.123101 0.140312 0
   vertex -0.123931 0.145703 0.5
   vertex -0.123931 0.145703 0
  endloop
 endfacet
 facet normal -0.994056 -0.108867 -0
  outer loop
   vertex -0.123931 0.145703 0.5
   vertex -0.124524 0.151124 0.5
   vertex -0.123931 0.145703 0
  endloop
 endfacet
 facet normal -0.994056 -0.108867 0
  outer loop
   vertex -0.123931 0.145703 0
   vertex -0.124524 0.151124 0.5
   vertex -0.124524 0.151124 0
  endloop
 endfacet
 facet normal -0.997859 -0.0654029 -0
  outer loop
   vertex -0.124524 0.151124 0.5
   vertex -0.124881 0.156566 0.5
   vertex -0.124524 0.151124 0
  endloop
 endfacet
 facet normal -0.997859 -0.0654029 0
  outer loop
   vertex -0.124524 0.151124 0
   vertex -0.124881 0.156566 0.5
   vertex -0.124881 0.156566 0
  endloop
 endfacet
 facet normal -0.999762 -0.0218146 -0
  outer loop
   vertex -0.124881 0.156566 0.5
   vertex -0.125 0.162018 0.5
   vertex -0.124881 0.156566 0
  endloop
 endfacet
 facet normal -0.999762 -0.0218146 0
  outer loop
   vertex -0.124881 0.156566 0
   vertex -0.125 0.162018 0.5
   vertex -0.125 0.162018 0
  endloop
 endfacet
 facet normal -0.999762 0.0218146 0
  outer loop
   vertex -0.125 0.162018 0.5
   vertex -0.124881 0.167471 0.5
   vertex -0.125 0.162018 0
  endloop
 endfacet
 facet normal 0 -0 1
  outer loop
   vertex 0.124524 0.151124 0.5
   vertex 0.124881 0.156566 0.5
   vertex 0 0.162018 0.5
  endloop
 endfacet
 facet normal 0 -0 1
  outer loop
   vertex 0.124881 0.156566 0.5
   vertex 0.125 0.162018 0.5
   vertex 0 0.162018 0.5
  endloop
 endfacet
 facet normal 0 0 1
  outer loop
   vertex 0 0.162018 0.5
   vertex 0.125 0.162018 0.5
   vertex 0.124881 0.167471 0.5
  endloop
 endfacet
 facet normal 0 -0 1
  outer loop
   vertex 0.122037 0.134963 0.5
   vertex 0.123101 0.140312 0.5
   vertex 0 0.162018 0.5
  endloop
 endfacet
 facet normal 0 -0 1
  outer loop
   vertex 0.123101 0.140312 0.5
   vertex 0.123931 0.145703 0.5
   vertex 0 0.162018 0.5
  endloop
 endfacet
 facet normal 0 0 1
  outer loop
   vertex 0 0.162018 0.5
   vertex 0.123931 0.145703 0.5
   vertex 0.124524 0.151124 0.5
  endloop
 endfacet
 facet normal 0 -0 1
  outer loop
   vertex 0.117462 0.119266 0.5
   vertex 0.119215 0.12443 0.5
   vertex 0 0.162018 0.5
  endloop
 endfacet
 facet normal 0 -0 1
  outer loop
   vertex 0.119215 0.12443 0.5
   vertex 0.120741 0.129666 0.5
   vertex 0 0.162018 0.5
  endloop
 endfacet
 facet normal 0 0 1
  outer loop
   vertex 0 0.162018 0.5
   vertex 0.120741 0.129666 0.5
   vertex 0.122037 0.134963 0.5
  endloop
 endfacet
 facet normal 0 -0 1
  outer loop
   vertex 0.110876 0.1043 0.5
   vertex 0.113288 0.109191 0.5
   vertex 0 0.162018 0.5
  endloop
 endfacet
 facet normal 0 -0 1
  outer loop
   vertex 0.113288 0.109191 0.5
   vertex 0.115485 0.114183 0.5
   vertex 0 0.162018 0.5
  endloop
 endfacet
 facet normal 0 0 1
  outer loop
   vertex 0 0.162018 0.5
   vertex 0.115485 0.114183 0.5
   vertex 0.117462 0.119266 0.5
  endloop
 endfacet
 facet normal 0 -0 1
  outer loop
   vertex 0.102394 0.0903212 0.5
   vertex 0.105424 0.0948558 0.5
   vertex 0 0.162018 0.5
  endloop
 endfacet
 facet normal 0 -0 1
  outer loop
   vertex 0.105424 0.0948558 0.5
   vertex 0.108253 0.0995183 0.5
   vertex 0 0.162018 0.5
  endloop
 endfacet
 facet normal 0 0 1
  outer loop
   vertex 0 0.162018 0.5
   vertex 0.108253 0.0995183 0.5
   vertex 0.110876 0.1043 0.5
  endloop
 endfacet
 facet normal 0 -0 1
  outer loop
   vertex 0.0921597 0.0775695 0.5
   vertex 0.0957556 0.0816698 0.5
   vertex 0 0.162018 0.5
  endloop
 endfacet
 facet normal 0 -0 1
  outer loop
   vertex 0.0957556 0.0816698 0.5
   vertex 0.0991692 0.0859231 0.5
   vertex 0 0.162018 0.5
  endloop
 endfacet
 facet normal 0 0 1
  outer loop
   vertex 0 0.162018 0.5
   vertex 0.0991692 0.0859231 0.5
   vertex 0.102394 0.0903212 0.5
  endloop
 endfacet
 facet normal 0 -0 1
  outer loop
   vertex 0.0803485 0.0662627 0.5
   vertex 0.0844488 0.0698586 0.5
   vertex 0 0.162018 0.5
  endloop
 endfacet
 facet normal 0 -0 1
  outer loop
   vertex 0.0844488 0.0698586 0.5
   vertex 0.0883883 0.0736299 0.5
   vertex 0 0.162018 0.5
  endloop
 endfacet
 facet normal 0 0 1
  outer loop
   vertex 0 0.162018 0.5
   vertex 0.0883883 0.0736299 0.5
   vertex 0.0921597 0.0775695 0.5
  endloop
 endfacet
 facet normal 0 -0 1
  outer loop
   vertex 0.0671625 0.0565944 0.5
   vertex 0.0716971 0.0596243 0.5
   vertex 0 0.162018 0.5
  endloop
 endfacet
 facet normal 0 -0 1
  outer loop
   vertex 0.0716971 0.0596243 0.5
   vertex 0.0760952 0.0628491 0.5
   vertex 0 0.162018 0.5
  endloop
 endfacet
 facet normal 0 0 1
  outer loop
   vertex 0 0.162018 0.5
   vertex 0.0760952 0.0628491 0.5
   vertex 0.0803485 0.0662627 0.5
  endloop
 endfacet
 facet normal 0 -0 1
  outer loop
   vertex 0.0528273 0.0487298 0.5
   vertex 0.0577186 0.0511419 0.5
   vertex 0 0.162018 0.5
  endloop
 endfacet
 facet normal 0 -0 1
  outer loop
   vertex 0.0577186 0.0511419 0.5
   vertex 0.0625 0.0537651 0.5
   vertex 0 0.162018 0.5
  endloop
 endfacet
 facet normal 0 0 1
  outer loop
   vertex 0 0.162018 0.5
   vertex 0.0625 0.0537651 0.5
   vertex 0.0671625 0.0565944 0.5
  endloop
 endfacet
 facet normal 0 -0 1
  outer loop
   vertex 0.0375882 0.0428037 0.5
   vertex 0.0427525 0.0445567 0.5
   vertex 0 0.162018 0.5
  endloop
 endfacet
 facet normal 0 -0 1
  outer loop
   vertex 0.0427525 0.0445567 0.5
   vertex 0.0478354 0.0465334 0.5
   vertex 0 0.162018 0.5
  endloop
 endfacet
 facet normal 0 0 1
  outer loop
   vertex 0 0.162018 0.5
   vertex 0.0478354 0.0465334 0.5
   vertex 0.0528273 0.0487298 0.5
  endloop
 endfacet
 facet normal 0 -0 1
  outer loop
   vertex 0.021706 0.0389173 0.5
   vertex 0.027055 0.0399813 0.5
   vertex 0 0.162018 0.5
  endloop
 endfacet
 facet normal 0 -0 1
  outer loop
   vertex 0.027055 0.0399813 0.5
   vertex 0.0323524 0.0412776 0.5
   vertex 0 0.162018 0.5
  endloop
 endfacet
 facet normal 0 0 1
  outer loop
   vertex 0 0.162018 0.5
   vertex 0.0323524 0.0412776 0.5
   vertex 0.0375882 0.0428037 0.5
  endloop
 endfacet
 facet normal 0 -0 1
  outer loop
   vertex 0.00545242 0.0371373 0.5
   vertex 0.0108945 0.037494 0.5
   vertex 0 0.162018 0.5
  endloop
 endfacet
 facet normal 0 -0 1
  outer loop
   vertex 0.0108945 0.037494 0.5
   vertex 0.0163158 0.0380877 0.5
   vertex 0 0.162018 0.5
  endloop
 endfacet
 facet normal 0 0 1
  outer loop
   vertex 0 0.162018 0.5
   vertex 0.0163158 0.0380877 0.5
   vertex 0.021706 0.0389173 0.5
  endloop
 endfacet
 facet normal -0 0 1
  outer loop
   vertex -0.0108945 0.037494 0.5
   vertex -0.00545242 0.0371373 0.5
   vertex 0 0.162018 0.5
  endloop
 endfacet
 facet normal -0 0 1
  outer loop
   vertex -0.00545242 0.0371373 0.5
   vertex 2.29621e-17 0.0370183 0.5
   vertex 0 0.162018 0.5
  endloop
 endfacet
 facet normal 0 0 1
  outer loop
   vertex 0 0.162018 0.5
   vertex 2.29621e-17 0.0370183 0.5
   vertex 0.00545242 0.0371373 0.5
  endloop
 endfacet
 facet normal -0 0 1
  outer loop
   vertex -0.027055 0.0399813 0.5
   vertex -0.021706 0.0389173 0.5
   vertex 0 0.162018 0.5
  endloop
 endfacet
 facet normal -0 0 1
  outer loop
   vertex -0.021706 0.0389173 0.5
   vertex -0.0163158 0.0380877 0.5
   vertex 0 0.162018 0.5
  endloop
 endfacet
 facet normal 0 0 1
  outer loop
   vertex 0 0.162018 0.5
   vertex -0.0163158 0.0380877 0.5
   vertex -0.0108945 0.037494 0.5
  endloop
 endfacet
 facet normal -0 0 1
  outer loop
   vertex -0.0427525 0.0445567 0.5
   vertex -0.0375882 0.0428037 0.5
   vertex 0 0.162018 0.5
  endloop
 endfacet
 facet normal -0 0 1
  outer loop
   vertex -0.0375882 0.0428037 0.5
   vertex -0.0323524 0.0412776 0.5
   vertex 0 0.162018 0.5
  endloop
 endfacet
 facet normal 0 0 1
  outer loop
   vertex 0 0.162018 0.5
   vertex -0.0323524 0.0412776 0.5
   vertex -0.027055 0.0399813 0.5
  endloop
 endfacet
 facet normal -0 0 1
  outer loop
   vertex -0.0577186 0.0511419 0.5
   vertex -0.0528273 0.0487298 0.5
   vertex 0 0.162018 0.5
  endloop
 endfacet
 facet normal -0 0 1
  outer loop
   vertex -0.0528273 0.0487298 0.5
   vertex -0.0478354 0.0465334 0.5
   vertex 0 0.162018 0.5
  endloop
 endfacet
 facet normal 0 0 1
  outer loop
   vertex 0 0.162018 0.5
   vertex -0.0478354 0.0465334 0.5
   vertex -0.0427525 0.0445567 0.5
  endloop
 endfacet
 facet normal -0 0 1
  outer loop
   vertex -0.0716971 0.0596243 0.5
   vertex -0.0671625 0.0565944 0.5
   vertex 0 0.162018 0.5
  endloop
 endfacet
 facet normal -0 0 1
  outer loop
   vertex -0.0671625 0.0565944 0.5
   vertex -0.0625 0.0537651 0.5
   vertex 0 0.162018 0.5
  endloop
 endfacet
 facet normal 0 0 1
  outer loop
   vertex 0 0.162018 0.5
   vertex -0.0625 0.0537651 0.5
   vertex -0.0577186 0.0511419 0.5
  endloop
 endfacet
 facet normal -0 0 1
  outer loop
   vertex -0.0844488 0.0698586 0.5
   vertex -0.0803485 0.0662627 0.5
   vertex 0 0.162018 0.5
  endloop
 endfacet
 facet normal -0 0 1
  outer loop
   vertex -0.0803485 0.0662627 0.5
   vertex -0.0760952 0.0628491 0.5
   vertex 0 0.162018 0.5
  endloop
 endfacet
 facet normal 0 0 1
  outer loop
   vertex 0 0.162018 0.5
   vertex -0.0760952 0.0628491 0.5
   vertex -0.0716971 0.0596243 0.5
  endloop
 endfacet
 facet normal -0 0 1
  outer loop
   vertex -0.0957556 0.0816698 0.5
   vertex -0.0921597 0.0775695 0.5
   vertex 0 0.162018 0.5
  endloop
 endfacet
 facet normal -0 0 1
  outer loop
   vertex -0.0921597 0.0775695 0.5
   vertex -0.0883883 0.0736299 0.5
   vertex 0 0.162018 0.5
  endloop
 endfacet
 facet normal 0 0 1
  outer loop
   vertex 0 0.162018 0.5
   vertex -0.0883883 0.0736299 0.5
   vertex -0.0844488 0.0698586 0.5
  endloop
 endfacet
 facet normal -0 0 1
  outer loop
   vertex -0.105424 0.0948558 0.5
   vertex -0.102394 0.0903212 0.5
   vertex 0 0.162018 0.5
  endloop
 endfacet
 facet normal -0 0 1
  outer loop
   vertex -0.102394 0.0903212 0.5
   vertex -0.0991692 0.0859231 0.5
   vertex 0 0.162018 0.5
  endloop
 endfacet
 facet normal 0 0 1
  outer loop
   vertex 0 0.162018 0.5
   vertex -0.0991692 0.0859231 0.5
   vertex -0.0957556 0.0816698 0.5
  endloop
 endfacet
 facet normal -0 0 1
  outer loop
   vertex -0.113288 0.109191 0.5
   vertex -0.110876 0.1043 0.5
   vertex 0 0.162018 0.5
  endloop
 endfacet
 facet normal -0 0 1
  outer loop
   vertex -0.110876 0.1043 0.5
   vertex -0.108253 0.0995183 0.5
   vertex 0 0.162018 0.5
  endloop
 endfacet
 facet normal 0 0 1
  outer loop
   vertex 0 0.162018 0.5
   vertex -0.108253 0.0995183 0.5
   vertex -0.105424 0.0948558 0.5
  endloop
 endfacet
 facet normal -0 0 1
  outer loop
   vertex -0.119215 0.12443 0.5
   vertex -0.117462 0.119266 0.5
   vertex 0 0.162018 0.5
  endloop
 endfacet
 facet normal -0 0 1
  outer loop
   vertex -0.117462 0.119266 0.5
   vertex -0.115485 0.114183 0.5
   vertex 0 0.162018 0.5
  endloop
 endfacet
 facet normal 0 0 1
  outer loop
   vertex 0 0.162018 0.5
   vertex -0.115485 0.114183 0.5
   vertex -0.113288 0.109191 0.5
  endloop
 endfacet
 facet normal -0 0 1
  outer loop
   vertex -0.123101 0.140312 0.5
   vertex -0.122037 0.134963 0.5
   vertex 0 0.162018 0.5
  endloop
 endfacet
 facet normal -0 0 1
  outer loop
   vertex -0.122037 0.134963 0.5
   vertex -0.120741 0.129666 0.5
   vertex 0 0.162018 0.5
  endloop
 endfacet
 facet normal 0 0 1
  outer loop
   vertex 0 0.162018 0.5
   vertex -0.120741 0.129666 0.5
   vertex -0.119215 0.12443 0.5
  endloop
 endfacet
 facet normal -0 0 1
  outer loop
   vertex -0.124881 0.156566 0.5
   vertex -0.124524 0.151124 0.5
   vertex 0 0.162018 0.5
  endloop
 endfacet
 facet normal -0 0 1
  outer loop
   vertex -0.124524 0.151124 0.5
   vertex -0.123931 0.145703 0.5
   vertex 0 0.162018 0.5
  endloop
 endfacet
 facet normal 0 0 1
  outer loop
   vertex 0 0.162018 0.5
   vertex -0.123931 0.145703 0.5
   vertex -0.123101 0.140312 0.5
  endloop
 endfacet
 facet normal 0 0 1
  outer loop
   vertex -0.124524 0.172913 0.5
   vertex -0.124881 0.167471 0.5
   vertex 0 0.162018 0.5
  endloop
 endfacet
 facet normal 0 0 1
  outer loop
   vertex -0.124881 0.167471 0.5
   vertex -0.125 0.162018 0.5
   vertex 0 0.162018 0.5
  endloop
 endfacet
 facet normal 0 0 1
  outer loop
   vertex 0 0.162018 0.5
   vertex -0.125 0.162018 0.5
   vertex -0.124881 0.156566 0.5
  endloop
 endfacet
 facet normal 0 0 1
  outer loop
   vertex -0.122037 0.189073 0.5
   vertex -0.123101 0.183724 0.5
   vertex 0 0.162018 0.5
  endloop
 endfacet
 facet normal 0 0 1
  outer loop
   vertex -0.123101 0.183724 0.5
   vertex -0.123931 0.178334 0.5
   vertex 0 0.162018 0.5
  endloop
 endfacet
 facet normal 0 0 1
  outer loop
   vertex 0 0.162018 0.5
   vertex -0.123931 0.178334 0.5
   vertex -0.124524 0.172913 0.5
  endloop
 endfacet
 facet normal 0 0 1
  outer loop
   vertex -0.117462 0.204771 0.5
   vertex -0.119215 0.199607 0.5
   vertex 0 0.162018 0.5
  endloop
 endfacet
 facet normal 0 0 1
  outer loop
   vertex -0.119215 0.199607 0.5
   vertex -0.120741 0.194371 0.5
   vertex 0 0.162018 0.5
  endloop
 endfacet
 facet normal 0 0 1
  outer loop
   vertex 0 0.162018 0.5
   vertex -0.120741 0.194371 0.5
   vertex -0.122037 0.189073 0.5
  endloop
 endfacet
 facet normal 0 0 1
  outer loop
   vertex -0.110876 0.219737 0.5
   vertex -0.113288 0.214846 0.5
   vertex 0 0.162018 0.5
  endloop
 endfacet
 facet normal 0 0 1
  outer loop
   vertex -0.113288 0.214846 0.5
   vertex -0.115485 0.209854 0.5
   vertex 0 0.162018 0.5
  endloop
 endfacet
 facet normal 0 0 1
  outer loop
   vertex 0 0.162018 0.5
   vertex -0.115485 0.209854 0.5
   vertex -0.117462 0.204771 0.5
  endloop
 endfacet
 facet normal 0 0 1
  outer loop
   vertex -0.102394 0.233715 0.5
   vertex -0.105424 0.229181 0.5
   vertex 0 0.162018 0.5
  endloop
 endfacet
 facet normal 0 0 1
  outer loop
   vertex -0.105424 0.229181 0.5
   vertex -0.108253 0.224518 0.5
   vertex 0 0.162018 0.5
  endloop
 endfacet
 facet normal 0 0 1
  outer loop
   vertex 0 0.162018 0.5
   vertex -0.108253 0.224518 0.5
   vertex -0.110876 0.219737 0.5
  endloop
 endfacet
 facet normal 0 0 1
  outer loop
   vertex -0.0921597 0.246467 0.5
   vertex -0.0957556 0.242367 0.5
   vertex 0 0.162018 0.5
  endloop
 endfacet
 facet normal 0 0 1
  outer loop
   vertex -0.0957556 0.242367 0.5
   vertex -0.0991692 0.238113 0.5
   vertex 0 0.162018 0.5
  endloop
 endfacet
 facet normal 0 0 1
  outer loop
   vertex 0 0.162018 0.5
   vertex -0.0991692 0.238113 0.5
   vertex -0.102394 0.233715 0.5
  endloop
 endfacet
 facet normal 0 0 1
  outer loop
   vertex -0.0803485 0.257774 0.5
   vertex -0.0844488 0.254178 0.5
   vertex 0 0.162018 0.5
  endloop
 endfacet
 facet normal 0 0 1
  outer loop
   vertex -0.0844488 0.254178 0.5
   vertex -0.0883883 0.250407 0.5
   vertex 0 0.162018 0.5
  endloop
 endfacet
 facet normal 0 0 1
  outer loop
   vertex 0 0.162018 0.5
   vertex -0.0883883 0.250407 0.5
   vertex -0.0921597 0.246467 0.5
  endloop
 endfacet
 facet normal 0 0 1
  outer loop
   vertex -0.0671625 0.267442 0.5
   vertex -0.0716971 0.264412 0.5
   vertex 0 0.162018 0.5
  endloop
 endfacet
 facet normal 0 0 1
  outer loop
   vertex -0.0716971 0.264412 0.5
   vertex -0.0760952 0.261187 0.5
   vertex 0 0.162018 0.5
  endloop
 endfacet
 facet normal 0 0 1
  outer loop
   vertex 0 0.162018 0.5
   vertex -0.0760952 0.261187 0.5
   vertex -0.0803485 0.257774 0.5
  endloop
 endfacet
 facet normal 0 0 1
  outer loop
   vertex -0.0528273 0.275307 0.5
   vertex -0.0577186 0.272895 0.5
   vertex 0 0.162018 0.5
  endloop
 endfacet
 facet normal 0 0 1
  outer loop
   vertex -0.0577186 0.272895 0.5
   vertex -0.0625 0.270271 0.5
   vertex 0 0.162018 0.5
  endloop
 endfacet
 facet normal 0 0 1
  outer loop
   vertex 0 0.162018 0.5
   vertex -0.0625 0.270271 0.5
   vertex -0.0671625 0.267442 0.5
  endloop
 endfacet
 facet normal 0 0 1
  outer loop
   vertex -0.0375882 0.281233 0.5
   vertex -0.0427525 0.27948 0.5
   vertex 0 0.162018 0.5
  endloop
 endfacet
 facet normal 0 0 1
  outer loop
   vertex -0.0427525 0.27948 0.5
   vertex -0.0478354 0.277503 0.5
   vertex 0 0.162018 0.5
  endloop
 endfacet
 facet normal 0 0 1
  outer loop
   vertex 0 0.162018 0.5
   vertex -0.0478354 0.277503 0.5
   vertex -0.0528273 0.275307 0.5
  endloop
 endfacet
 facet normal 0 0 1
  outer loop
   vertex -0.021706 0.285119 0.5
   vertex -0.027055 0.284055 0.5
   vertex 0 0.162018 0.5
  endloop
 endfacet
 facet normal 0 0 1
  outer loop
   vertex -0.027055 0.284055 0.5
   vertex -0.0323524 0.282759 0.5
   vertex 0 0.162018 0.5
  endloop
 endfacet
 facet normal 0 0 1
  outer loop
   vertex 0 0.162018 0.5
   vertex -0.0323524 0.282759 0.5
   vertex -0.0375882 0.281233 0.5
  endloop
 endfacet
 facet normal 0 0 1
  outer loop
   vertex -0.00545242 0.286899 0.5
   vertex -0.0108945 0.286543 0.5
   vertex 0 0.162018 0.5
  endloop
 endfacet
 facet normal 0 0 1
  outer loop
   vertex -0.0108945 0.286543 0.5
   vertex -0.0163158 0.285949 0.5
   vertex 0 0.162018 0.5
  endloop
 endfacet
 facet normal 0 0 1
  outer loop
   vertex 0 0.162018 0.5
   vertex -0.0163158 0.285949 0.5
   vertex -0.021706 0.285119 0.5
  endloop
 endfacet
 facet normal 0 0 1
  outer loop
   vertex 0.0108945 0.286543 0.5
   vertex 0.00545242 0.286899 0.5
   vertex 0 0.162018 0.5
  endloop
 endfacet
 facet normal 0 0 1
  outer loop
   vertex 0.00545242 0.286899 0.5
   vertex -7.65404e-18 0.287018 0.5
   vertex 0 0.162018 0.5
  endloop
 endfacet
 facet normal 0 0 1
  outer loop
   vertex 0 0.162018 0.5
   vertex -7.65404e-18 0.287018 0.5
   vertex -0.00545242 0.286899 0.5
  endloop
 endfacet
 facet normal 0 0 1
  outer loop
   vertex 0.027055 0.284055 0.5
   vertex 0.021706 0.285119 0.5
   vertex 0 0.162018 0.5
  endloop
 endfacet
 facet normal 0 0 1
  outer loop
   vertex 0.021706 0.285119 0.5
   vertex 0.0163158 0.285949 0.5
   vertex 0 0.162018 0.5
  endloop
 endfacet
 facet normal 0 0 1
  outer loop
   vertex 0 0.162018 0.5
   vertex 0.0163158 0.285949 0.5
   vertex 0.0108945 0.286543 0.5
  endloop
 endfacet
 facet normal 0 0 1
  outer loop
   vertex 0.0427525 0.27948 0.5
   vertex 0.0375882 0.281233 0.5
   vertex 0 0.162018 0.5
  endloop
 endfacet
 facet normal 0 0 1
  outer loop
   vertex 0.0375882 0.281233 0.5
   vertex 0.0323524 0.282759 0.5
   vertex 0 0.162018 0.5
  endloop
 endfacet
 facet normal 0 0 1
  outer loop
   vertex 0 0.162018 0.5
   vertex 0.0323524 0.282759 0.5
   vertex 0.027055 0.284055 0.5
  endloop
 endfacet
 facet normal 0 0 1
  outer loop
   vertex 0.0577186 0.272895 0.5
   vertex 0.0528273 0.275307 0.5
   vertex 0 0.162018 0.5
  endloop
 endfacet
 facet normal 0 0 1
  outer loop
   vertex 0.0528273 0.275307 0.5
   vertex 0.0478354 0.277503 0.5
   vertex 0 0.162018 0.5
  endloop
 endfacet
 facet normal 0 0 1
  outer loop
   vertex 0 0.162018 0.5
   vertex 0.0478354 0.277503 0.5
   vertex 0.0427525 0.27948 0.5
  endloop
 endfacet
 facet normal 0 0 1
  outer loop
   vertex 0.0716971 0.264412 0.5
   vertex 0.0671625 0.267442 0.5
   vertex 0 0.162018 0.5
  endloop
 endfacet
 facet normal 0 0 1
  outer loop
   vertex 0.0671625 0.267442 0.5
   vertex 0.0625 0.270271 0.5
   vertex 0 0.162018 0.5
  endloop
 endfacet
 facet normal 0 0 1
  outer loop
   vertex 0 0.162018 0.5
   vertex 0.0625 0.270271 0.5
   vertex 0.0577186 0.272895 0.5
  endloop
 endfacet
 facet normal 0 0 1
  outer loop
   vertex 0.0844488 0.254178 0.5
   vertex 0.0803485 0.257774 0.5
   vertex 0 0.162018 0.5
  endloop
 endfacet
 facet normal 0 0 1
  outer loop
   vertex 0.0803485 0.257774 0.5
   vertex 0.0760952 0.261187 0.5
   vertex 0 0.162018 0.5
  endloop
 endfacet
 facet normal 0 0 1
  outer loop
   vertex 0 0.162018 0.5
   vertex 0.0760952 0.261187 0.5
   vertex 0.0716971 0.264412 0.5
  endloop
 endfacet
 facet normal 0 0 1
  outer loop
   vertex 0.0957556 0.242367 0.5
   vertex 0.0921597 0.246467 0.5
   vertex 0 0.162018 0.5
  endloop
 endfacet
 facet normal 0 0 1
  outer loop
   vertex 0.0921597 0.246467 0.5
   vertex 0.0883883 0.250407 0.5
   vertex 0 0.162018 0.5
  endloop
 endfacet
 facet normal 0 0 1
  outer loop
   vertex 0 0.162018 0.5
   vertex 0.0883883 0.250407 0.5
   vertex 0.0844488 0.254178 0.5
  endloop
 endfacet
 facet normal 0 0 1
  outer loop
   vertex 0.105424 0.229181 0.5
   vertex 0.102394 0.233715 0.5
   vertex 0 0.162018 0.5
  endloop
 endfacet
 facet normal 0 0 1
  outer loop
   vertex 0.102394 0.233715 0.5
   vertex 0.0991692 0.238113 0.5
   vertex 0 0.162018 0.5
  endloop
 endfacet
 facet normal 0 0 1
  outer loop
   vertex 0 0.162018 0.5
   vertex 0.0991692 0.238113 0.5
   vertex 0.0957556 0.242367 0.5
  endloop
 endfacet
 facet normal 0 0 1
  outer loop
   vertex 0.113288 0.214846 0.5
   vertex 0.110876 0.219737 0.5
   vertex 0 0.162018 0.5
  endloop
 endfacet
 facet normal 0 0 1
  outer loop
   vertex 0.110876 0.219737 0.5
   vertex 0.108253 0.224518 0.5
   vertex 0 0.162018 0.5
  endloop
 endfacet
 facet normal 0 0 1
  outer loop
   vertex 0 0.162018 0.5
   vertex 0.108253 0.224518 0.5
   vertex 0.105424 0.229181 0.5
  endloop
 endfacet
 facet normal 0 0 1
  outer loop
   vertex 0.119215 0.199607 0.5
   vertex 0.117462 0.204771 0.5
   vertex 0 0.162018 0.5
  endloop
 endfacet
 facet normal 0 0 1
  outer loop
   vertex 0.117462 0.204771 0.5
   vertex 0.115485 0.209854 0.5
   vertex 0 0.162018 0.5
  endloop
 endfacet
 facet normal 0 0 1
  outer loop
   vertex 0 0.162018 0.5
   vertex 0.115485 0.209854 0.5
   vertex 0.113288 0.214846 0.5
  endloop
 endfacet
 facet normal 0 0 1
  outer loop
   vertex 0.123101 0.183724 0.5
   vertex 0.122037 0.189073 0.5
   vertex 0 0.162018 0.5
  endloop
 endfacet
 facet normal 0 0 1
  outer loop
   vertex 0.122037 0.189073 0.5
   vertex 0.120741 0.194371 0.5
   vertex 0 0.162018 0.5
  endloop
 endfacet
 facet normal 0 0 1
  outer loop
   vertex 0 0.162018 0.5
   vertex 0.120741 0.194371 0.5
   vertex 0.119215 0.199607 0.5
  endloop
 endfacet
 facet normal 0 0 1
  outer loop
   vertex 0.124881 0.167471 0.5
   vertex 0.124524 0.172913 0.5
   vertex 0 0.162018 0.5
  endloop
 endfacet
 facet normal 0 0 1
  outer loop
   vertex 0.124524 0.172913 0.5
   vertex 0.123931 0.178334 0.5
   vertex 0 0.162018 0.5
  endloop
 endfacet
 facet normal 0 0 1
  outer loop
   vertex 0 0.162018 0.5
   vertex 0.123931 0.178334 0.5
   vertex 0.123101 0.183724 0.5
  endloop
 endfacet
endsolid zone0
