solid zone0
 facet normal 0 -0 -1
  outer loop
   vertex 0.124524 0.172719 0
   vertex 0.124881 0.167277 0
   vertex 0 0.161824 0
  endloop
 endfacet
 facet normal 0 -0 -1
  outer loop
   vertex 0.124881 0.167277 0
   vertex 0.125 0.161824 0
   vertex 0 0.161824 0
  endloop
 endfacet
 facet normal 0 0 -1
  outer loop
   vertex 0 0.161824 0
   vertex 0.125 0.161824 0
   vertex 0.124881 0.156372 0
  endloop
 endfacet
 facet normal 0 -0 -1
  outer loop
   vertex 0.122037 0.188879 0
   vertex 0.123101 0.18353 0
   vertex 0 0.161824 0
  endloop
 endfacet
 facet normal 0 -0 -1
  outer loop
   vertex 0.123101 0.18353 0
   vertex 0.123931 0.17814 0
   vertex 0 0.161824 0
  endloop
 endfacet
 facet normal 0 0 -1
  outer loop
   vertex 0 0.161824 0
   vertex 0.123931 0.17814 0
   vertex 0.124524 0.172719 0
  endloop
 endfacet
 facet normal 0 -0 -1
  outer loop
   vertex 0.117462 0.204577 0
   vertex 0.119215 0.199412 0
   vertex 0 0.161824 0
  endloop
 endfacet
 facet normal 0 -0 -1
  outer loop
   vertex 0.119215 0.199412 0
   vertex 0.120741 0.194177 0
   vertex 0 0.161824 0
  endloop
 endfacet
 facet normal 0 0 -1
  outer loop
   vertex 0 0.161824 0
   vertex 0.120741 0.194177 0
   vertex 0.122037 0.188879 0
  endloop
 endfacet
 facet normal 0 -0 -1
  outer loop
   vertex 0.110876 0.219543 0
   vertex 0.113288 0.214651 0
   vertex 0 0.161824 0
  endloop
 endfacet
 facet normal 0 -0 -1
  outer loop
   vertex 0.113288 0.214651 0
   vertex 0.115485 0.20966 0
   vertex 0 0.161824 0
  endloop
 endfacet
 facet normal 0 0 -1
  outer loop
   vertex 0 0.161824 0
   vertex 0.115485 0.20966 0
   vertex 0.117462 0.204577 0
  endloop
 endfacet
 facet normal 0 -0 -1
  outer loop
   vertex 0.102394 0.233521 0
   vertex 0.105424 0.228987 0
   vertex 0 0.161824 0
  endloop
 endfacet
 facet normal 0 -0 -1
  outer loop
   vertex 0.105424 0.228987 0
   vertex 0.108253 0.224324 0
   vertex 0 0.161824 0
  endloop
 endfacet
 facet normal 0 0 -1
  outer loop
   vertex 0 0.161824 0
   vertex 0.108253 0.224324 0
   vertex 0.110876 0.219543 0
  endloop
 endfacet
 facet normal 0 -0 -1
  outer loop
   vertex 0.0921597 0.246273 0
   vertex 0.0957556 0.242173 0
   vertex 0 0.161824 0
  endloop
 endfacet
 facet normal 0 -0 -1
  outer loop
   vertex 0.0957556 0.242173 0
   vertex 0.0991692 0.237919 0
   vertex 0 0.161824 0
  endloop
 endfacet
 facet normal 0 0 -1
  outer loop
   vertex 0 0.161824 0
   vertex 0.0991692 0.237919 0
   vertex 0.102394 0.233521 0
  endloop
 endfacet
 facet normal 0 -0 -1
  outer loop
   vertex 0.0803485 0.25758 0
   vertex 0.0844488 0.253984 0
   vertex 0 0.161824 0
  endloop
 endfacet
 facet normal 0 -0 -1
  outer loop
   vertex 0.0844488 0.253984 0
   vertex 0.0883883 0.250212 0
   vertex 0 0.161824 0
  endloop
 endfacet
 facet normal 0 0 -1
  outer loop
   vertex 0 0.161824 0
   vertex 0.0883883 0.250212 0
   vertex 0.0921597 0.246273 0
  endloop
 endfacet
 facet normal 0 -0 -1
  outer loop
   vertex 0.0671625 0.267248 0
   vertex 0.0716971 0.264218 0
   vertex 0 0.161824 0
  endloop
 endfacet
 facet normal 0 -0 -1
  outer loop
   vertex 0.0716971 0.264218 0
   vertex 0.0760952 0.260993 0
   vertex 0 0.161824 0
  endloop
 endfacet
 facet normal 0 0 -1
  outer loop
   vertex 0 0.161824 0
   vertex 0.0760952 0.260993 0
   vertex 0.0803485 0.25758 0
  endloop
 endfacet
 facet normal 0 -0 -1
  outer loop
   vertex 0.0528273 0.275113 0
   vertex 0.0577186 0.2727 0
   vertex 0 0.161824 0
  endloop
 endfacet
 facet normal 0 -0 -1
  outer loop
   vertex 0.0577186 0.2727 0
   vertex 0.0625 0.270077 0
   vertex 0 0.161824 0
  endloop
 endfacet
 facet normal 0 0 -1
  outer loop
   vertex 0 0.161824 0
   vertex 0.0625 0.270077 0
   vertex 0.0671625 0.267248 0
  endloop
 endfacet
 facet normal 0 -0 -1
  outer loop
   vertex 0.0375882 0.281039 0
   vertex 0.0427525 0.279286 0
   vertex 0 0.161824 0
  endloop
 endfacet
 facet normal 0 -0 -1
  outer loop
   vertex 0.0427525 0.279286 0
   vertex 0.0478354 0.277309 0
   vertex 0 0.161824 0
  endloop
 endfacet
 facet normal 0 0 -1
  outer loop
   vertex 0 0.161824 0
   vertex 0.0478354 0.277309 0
   vertex 0.0528273 0.275113 0
  endloop
 endfacet
 facet normal 0 -0 -1
  outer loop
   vertex 0.021706 0.284925 0
   vertex 0.027055 0.283861 0
   vertex 0 0.161824 0
  endloop
 endfacet
 facet normal 0 -0 -1
  outer loop
   vertex 0.027055 0.283861 0
   vertex 0.0323524 0.282565 0
   vertex 0 0.161824 0
  endloop
 endfacet
 facet normal 0 0 -1
  outer loop
   vertex 0 0.161824 0
   vertex 0.0323524 0.282565 0
   vertex 0.0375882 0.281039 0
  endloop
 endfacet
 facet normal 0 -0 -1
  outer loop
   vertex 0.00545242 0.286705 0
   vertex 0.0108945 0.286348 0
   vertex 0 0.161824 0
  endloop
 endfacet
 facet normal 0 -0 -1
  outer loop
   vertex 0.0108945 0.286348 0
   vertex 0.0163158 0.285755 0
   vertex 0 0.161824 0
  endloop
 endfacet
 facet normal 0 0 -1
  outer loop
   vertex 0 0.161824 0
   vertex 0.0163158 0.285755 0
   vertex 0.021706 0.284925 0
  endloop
 endfacet
 facet normal 0 0 -1
  outer loop
   vertex -0.0108945 0.286348 0
   vertex -0.00545242 0.286705 0
   vertex 0 0.161824 0
  endloop
 endfacet
 facet normal 0 0 -1
  outer loop
   vertex -0.00545242 0.286705 0
   vertex -7.65404e-18 0.286824 0
   vertex 0 0.161824 0
  endloop
 endfacet
 facet normal 0 0 -1
  outer loop
   vertex 0 0.161824 0
   vertex -7.65404e-18 0.286824 0
   vertex 0.00545242 0.286705 0
  endloop
 endfacet
 facet normal 0 0 -1
  outer loop
   vertex -0.027055 0.283861 0
   vertex -0.021706 0.284925 0
   vertex 0 0.161824 0
  endloop
 endfacet
 facet normal 0 0 -1
  outer loop
   vertex -0.021706 0.284925 0
   vertex -0.0163158 0.285755 0
   vertex 0 0.161824 0
  endloop
 endfacet
 facet normal 0 0 -1
  outer loop
   vertex 0 0.161824 0
   vertex -0.0163158 0.285755 0
   vertex -0.0108945 0.286348 0
  endloop
 endfacet
 facet normal 0 0 -1
  outer loop
   vertex -0.0427525 0.279286 0
   vertex -0.0375882 0.281039 0
   vertex 0 0.161824 0
  endloop
 endfacet
 facet normal 0 0 -1
  outer loop
   vertex -0.0375882 0.281039 0
   vertex -0.0323524 0.282565 0
   vertex 0 0.161824 0
  endloop
 endfacet
 facet normal 0 0 -1
  outer loop
   vertex 0 0.161824 0
   vertex -0.0323524 0.282565 0
   vertex -0.027055 0.283861 0
  endloop
 endfacet
 facet normal 0 0 -1
  outer loop
   vertex -0.0577186 0.2727 0
   vertex -0.0528273 0.275113 0
   vertex 0 0.161824 0
  endloop
 endfacet
 facet normal 0 0 -1
  outer loop
   vertex -0.0528273 0.275113 0
   vertex -0.0478354 0.277309 0
   vertex 0 0.161824 0
  endloop
 endfacet
 facet normal 0 0 -1
  outer loop
   vertex 0 0.161824 0
   vertex -0.0478354 0.277309 0
   vertex -0.0427525 0.279286 0
  endloop
 endfacet
 facet normal 0 0 -1
  outer loop
   vertex -0.0716971 0.264218 0
   vertex -0.0671625 0.267248 0
   vertex 0 0.161824 0
  endloop
 endfacet
 facet normal 0 0 -1
  outer loop
   vertex -0.0671625 0.267248 0
   vertex -0.0625 0.270077 0
   vertex 0 0.161824 0
  endloop
 endfacet
 facet normal 0 0 -1
  outer loop
   vertex 0 0.161824 0
   vertex -0.0625 0.270077 0
   vertex -0.0577186 0.2727 0
  endloop
 endfacet
 facet normal 0 0 -1
  outer loop
   vertex -0.0844488 0.253984 0
   vertex -0.0803485 0.25758 0
   vertex 0 0.161824 0
  endloop
 endfacet
 facet normal 0 0 -1
  outer loop
   vertex -0.0803485 0.25758 0
   vertex -0.0760952 0.260993 0
   vertex 0 0.161824 0
  endloop
 endfacet
 facet normal 0 0 -1
  outer loop
   vertex 0 0.161824 0
   vertex -0.0760952 0.260993 0
   vertex -0.0716971 0.264218 0
  endloop
 endfacet
 facet normal 0 0 -1
  outer loop
   vertex -0.0957556 0.242173 0
   vertex -0.0921597 0.246273 0
   vertex 0 0.161824 0
  endloop
 endfacet
 facet normal 0 0 -1
  outer loop
   vertex -0.0921597 0.246273 0
   vertex -0.0883883 0.250212 0
   vertex 0 0.161824 0
  endloop
 endfacet
 facet normal 0 0 -1
  outer loop
   vertex 0 0.161824 0
   vertex -0.0883883 0.250212 0
   vertex -0.0844488 0.253984 0
  endloop
 endfacet
 facet normal 0 0 -1
  outer loop
   vertex -0.105424 0.228987 0
   vertex -0.102394 0.233521 0
   vertex 0 0.161824 0
  endloop
 endfacet
 facet normal 0 0 -1
  outer loop
   vertex -0.102394 0.233521 0
   vertex -0.0991692 0.237919 0
   vertex 0 0.161824 0
  endloop
 endfacet
 facet normal 0 0 -1
  outer loop
   vertex 0 0.161824 0
   vertex -0.0991692 0.237919 0
   vertex -0.0957556 0.242173 0
  endloop
 endfacet
 facet normal 0 0 -1
  outer loop
   vertex -0.113288 0.214651 0
   vertex -0.110876 0.219543 0
   vertex 0 0.161824 0
  endloop
 endfacet
 facet normal 0 0 -1
  outer loop
   vertex -0.110876 0.219543 0
   vertex -0.108253 0.224324 0
   vertex 0 0.161824 0
  endloop
 endfacet
 facet normal 0 0 -1
  outer loop
   vertex 0 0.161824 0
   vertex -0.108253 0.224324 0
   vertex -0.105424 0.228987 0
  endloop
 endfacet
 facet normal 0 0 -1
  outer loop
   vertex -0.119215 0.199412 0
   vertex -0.117462 0.204577 0
   vertex 0 0.161824 0
  endloop
 endfacet
 facet normal 0 0 -1
  outer loop
   vertex -0.117462 0.204577 0
   vertex -0.115485 0.20966 0
   vertex 0 0.161824 0
  endloop
 endfacet
 facet normal 0 0 -1
  outer loop
   vertex 0 0.161824 0
   vertex -0.115485 0.20966 0
   vertex -0.113288 0.214651 0
  endloop
 endfacet
 facet normal 0 0 -1
  outer loop
   vertex -0.123101 0.18353 0
   vertex -0.122037 0.188879 0
   vertex 0 0.161824 0
  endloop
 endfacet
 facet normal 0 0 -1
  outer loop
   vertex -0.122037 0.188879 0
   vertex -0.120741 0.194177 0
   vertex 0 0.161824 0
  endloop
 endfacet
 facet normal 0 0 -1
  outer loop
   vertex 0 0.161824 0
   vertex -0.120741 0.194177 0
   vertex -0.119215 0.199412 0
  endloop
 endfacet
 facet normal 0 0 -1
  outer loop
   vertex -0.124881 0.167277 0
   vertex -0.124524 0.172719 0
   vertex 0 0.161824 0
  endloop
 endfacet
 facet normal 0 0 -1
  outer loop
   vertex -0.124524 0.172719 0
   vertex -0.123931 0.17814 0
   vertex 0 0.161824 0
  endloop
 endfacet
 facet normal 0 0 -1
  outer loop
   vertex 0 0.161824 0
   vertex -0.123931 0.17814 0
   vertex -0.123101 0.18353 0
  endloop
 endfacet
 facet normal 0 0 -1
  outer loop
   vertex -0.124524 0.15093 0
   vertex -0.124881 0.156372 0
   vertex 0 0.161824 0
  endloop
 endfacet
 facet normal 0 0 -1
  outer loop
   vertex -0.124881 0.156372 0
   vertex -0.125 0.161824 0
   vertex 0 0.161824 0
  endloop
 endfacet
 facet normal 0 0 -1
  outer loop
   vertex 0 0.161824 0
   vertex -0.125 0.161824 0
   vertex -0.124881 0.167277 0
  endloop
 endfacet
 facet normal 0 0 -1
  outer loop
   vertex -0.122037 0.134769 0
   vertex -0.123101 0.140118 0
   vertex 0 0.161824 0
  endloop
 endfacet
 facet normal 0 0 -1
  outer loop
   vertex -0.123101 0.140118 0
   vertex -0.123931 0.145508 0
   vertex 0 0.161824 0
  endloop
 endfacet
 facet normal 0 0 -1
  outer loop
   vertex 0 0.161824 0
   vertex -0.123931 0.145508 0
   vertex -0.124524 0.15093 0
  endloop
 endfacet
 facet normal 0 0 -1
  outer loop
   vertex -0.117462 0.119072 0
   vertex -0.119215 0.124236 0
   vertex 0 0.161824 0
  endloop
 endfacet
 facet normal 0 0 -1
  outer loop
   vertex -0.119215 0.124236 0
   vertex -0.120741 0.129472 0
   vertex 0 0.161824 0
  endloop
 endfacet
 facet normal 0 0 -1
  outer loop
   vertex 0 0.161824 0
   vertex -0.120741 0.129472 0
   vertex -0.122037 0.134769 0
  endloop
 endfacet
 facet normal 0 0 -1
  outer loop
   vertex -0.110876 0.104106 0
   vertex -0.113288 0.108997 0
   vertex 0 0.161824 0
  endloop
 endfacet
 facet normal 0 0 -1
  outer loop
   vertex -0.113288 0.108997 0
   vertex -0.115485 0.113989 0
   vertex 0 0.161824 0
  endloop
 endfacet
 facet normal 0 0 -1
  outer loop
   vertex 0 0.161824 0
   vertex -0.115485 0.113989 0
   vertex -0.117462 0.119072 0
  endloop
 endfacet
 facet normal 0 0 -1
  outer loop
   vertex -0.102394 0.0901271 0
   vertex -0.105424 0.0946617 0
   vertex 0 0.161824 0
  endloop
 endfacet
 facet normal 0 0 -1
  outer loop
   vertex -0.105424 0.0946617 0
   vertex -0.108253 0.0993241 0
   vertex 0 0.161824 0
  endloop
 endfacet
 facet normal 0 0 -1
  outer loop
   vertex 0 0.161824 0
   vertex -0.108253 0.0993241 0
   vertex -0.110876 0.104106 0
  endloop
 endfacet
 facet normal 0 0 -1
  outer loop
   vertex -0.0921597 0.0773754 0
   vertex -0.0957556 0.0814757 0
   vertex 0 0.161824 0
  endloop
 endfacet
 facet normal 0 0 -1
  outer loop
   vertex -0.0957556 0.0814757 0
   vertex -0.0991692 0.085729 0
   vertex 0 0.161824 0
  endloop
 endfacet
 facet normal 0 0 -1
  outer loop
   vertex 0 0.161824 0
   vertex -0.0991692 0.085729 0
   vertex -0.102394 0.0901271 0
  endloop
 endfacet
 facet normal 0 0 -1
  outer loop
   vertex -0.0803485 0.0660686 0
   vertex -0.0844488 0.0696645 0
   vertex 0 0.161824 0
  endloop
 endfacet
 facet normal 0 0 -1
  outer loop
   vertex -0.0844488 0.0696645 0
   vertex -0.0883883 0.0734358 0
   vertex 0 0.161824 0
  endloop
 endfacet
 facet normal 0 0 -1
  outer loop
   vertex 0 0.161824 0
   vertex -0.0883883 0.0734358 0
   vertex -0.0921597 0.0773754 0
  endloop
 endfacet
 facet normal 0 0 -1
  outer loop
   vertex -0.0671625 0.0564002 0
   vertex -0.0716971 0.0594301 0
   vertex 0 0.161824 0
  endloop
 endfacet
 facet normal 0 0 -1
  outer loop
   vertex -0.0716971 0.0594301 0
   vertex -0.0760952 0.062655 0
   vertex 0 0.161824 0
  endloop
 endfacet
 facet normal 0 0 -1
  outer loop
   vertex 0 0.161824 0
   vertex -0.0760952 0.062655 0
   vertex -0.0803485 0.0660686 0
  endloop
 endfacet
 facet normal 0 0 -1
  outer loop
   vertex -0.0528273 0.0485357 0
   vertex -0.0577186 0.0509478 0
   vertex 0 0.161824 0
  endloop
 endfacet
 facet normal 0 0 -1
  outer loop
   vertex -0.0577186 0.0509478 0
   vertex -0.0625 0.053571 0
   vertex 0 0.161824 0
  endloop
 endfacet
 facet normal 0 0 -1
  outer loop
   vertex 0 0.161824 0
   vertex -0.0625 0.053571 0
   vertex -0.0671625 0.0564002 0
  endloop
 endfacet
 facet normal 0 0 -1
  outer loop
   vertex -0.0375882 0.0426095 0
   vertex -0.0427525 0.0443626 0
   vertex 0 0.161824 0
  endloop
 endfacet
 facet normal 0 0 -1
  outer loop
   vertex -0.0427525 0.0443626 0
   vertex -0.0478354 0.0463392 0
   vertex 0 0.161824 0
  endloop
 endfacet
 facet normal 0 0 -1
  outer loop
   vertex 0 0.161824 0
   vertex -0.0478354 0.0463392 0
   vertex -0.0528273 0.0485357 0
  endloop
 endfacet
 facet normal 0 0 -1
  outer loop
   vertex -0.021706 0.0387232 0
   vertex -0.027055 0.0397871 0
   vertex 0 0.161824 0
  endloop
 endfacet
 facet normal 0 0 -1
  outer loop
   vertex -0.027055 0.0397871 0
   vertex -0.0323524 0.0410834 0
   vertex 0 0.161824 0
  endloop
 endfacet
 facet normal 0 0 -1
  outer loop
   vertex 0 0.161824 0
   vertex -0.0323524 0.0410834 0
   vertex -0.0375882 0.0426095 0
  endloop
 endfacet
 facet normal 0 0 -1
  outer loop
   vertex -0.00545242 0.0369431 0
   vertex -0.0108945 0.0372998 0
   vertex 0 0.161824 0
  endloop
 endfacet
 facet normal 0 0 -1
  outer loop
   vertex -0.0108945 0.0372998 0
   vertex -0.0163158 0.0378935 0
   vertex 0 0.161824 0
  endloop
 endfacet
 facet normal 0 0 -1
  outer loop
   vertex 0 0.161824 0
   vertex -0.0163158 0.0378935 0
   vertex -0.021706 0.0387232 0
  endloop
 endfacet
 facet normal -0 0 -1
  outer loop
   vertex 0.0108945 0.0372998 0
   vertex 0.00545242 0.0369431 0
   vertex 0 0.161824 0
  endloop
 endfacet
 facet normal -0 0 -1
  outer loop
   vertex 0.00545242 0.0369431 0
   vertex 2.29621e-17 0.0368241 0
   vertex 0 0.161824 0
  endloop
 endfacet
 facet normal 0 -0 -1
  outer loop
   vertex 0 0.161824 0
   vertex 2.29621e-17 0.0368241 0
   vertex -0.00545242 0.0369431 0
  endloop
 endfacet
 facet normal -0 0 -1
  outer loop
   vertex 0.027055 0.0397871 0
   vertex 0.021706 0.0387232 0
   vertex 0 0.161824 0
  endloop
 endfacet
 facet normal -0 0 -1
  outer loop
   vertex 0.021706 0.0387232 0
   vertex 0.0163158 0.0378935 0
   vertex 0 0.161824 0
  endloop
 endfacet
 facet normal 0 0 -1
  outer loop
   vertex 0 0.161824 0
   vertex 0.0163158 0.0378935 0
   vertex 0.0108945 0.0372998 0
  endloop
 endfacet
 facet normal -0 0 -1
  outer loop
   vertex 0.0427525 0.0443626 0
   vertex 0.0375882 0.0426095 0
   vertex 0 0.161824 0
  endloop
 endfacet
 facet normal -0 0 -1
  outer loop
   vertex 0.0375882 0.0426095 0
   vertex 0.0323524 0.0410834 0
   vertex 0 0.161824 0
  endloop
 endfacet
 facet normal 0 0 -1
  outer loop
   vertex 0 0.161824 0
   vertex 0.0323524 0.0410834 0
   vertex 0.027055 0.0397871 0
  endloop
 endfacet
 facet normal -0 0 -1
  outer loop
   vertex 0.0577186 0.0509478 0
   vertex 0.0528273 0.0485357 0
   vertex 0 0.161824 0
  endloop
 endfacet
 facet normal -0 0 -1
  outer loop
   vertex 0.0528273 0.0485357 0
   vertex 0.0478354 0.0463392 0
   vertex 0 0.161824 0
  endloop
 endfacet
 facet normal 0 0 -1
  outer loop
   vertex 0 0.161824 0
   vertex 0.0478354 0.0463392 0
   vertex 0.0427525 0.0443626 0
  endloop
 endfacet
 facet normal -0 0 -1
  outer loop
   vertex 0.0716971 0.0594301 0
   vertex 0.0671625 0.0564002 0
   vertex 0 0.161824 0
  endloop
 endfacet
 facet normal -0 0 -1
  outer loop
   vertex 0.0671625 0.0564002 0
   vertex 0.0625 0.053571 0
   vertex 0 0.161824 0
  endloop
 endfacet
 facet normal 0 0 -1
  outer loop
   vertex 0 0.161824 0
   vertex 0.0625 0.053571 0
   vertex 0.0577186 0.0509478 0
  endloop
 endfacet
 facet normal -0 0 -1
  outer loop
   vertex 0.0844488 0.0696645 0
   vertex 0.0803485 0.0660686 0
   vertex 0 0.161824 0
  endloop
 endfacet
 facet normal -0 0 -1
  outer loop
   vertex 0.0803485 0.0660686 0
   vertex 0.0760952 0.062655 0
   vertex 0 0.161824 0
  endloop
 endfacet
 facet normal 0 0 -1
  outer loop
   vertex 0 0.161824 0
   vertex 0.0760952 0.062655 0
   vertex 0.0716971 0.0594301 0
  endloop
 endfacet
 facet normal -0 0 -1
  outer loop
   vertex 0.0957556 0.0814757 0
   vertex 0.0921597 0.0773754 0
   vertex 0 0.161824 0
  endloop
 endfacet
 facet normal -0 0 -1
  outer loop
   vertex 0.0921597 0.0773754 0
   vertex 0.0883883 0.0734358 0
   vertex 0 0.161824 0
  endloop
 endfacet
 facet normal 0 0 -1
  outer loop
   vertex 0 0.161824 0
   vertex 0.0883883 0.0734358 0
   vertex 0.0844488 0.0696645 0
  endloop
 endfacet
 facet normal -0 0 -1
  outer loop
   vertex 0.105424 0.0946617 0
   vertex 0.102394 0.0901271 0
   vertex 0 0.161824 0
  endloop
 endfacet
 facet normal -0 0 -1
  outer loop
   vertex 0.102394 0.0901271 0
   vertex 0.0991692 0.085729 0
   vertex 0 0.161824 0
  endloop
 endfacet
 facet normal 0 0 -1
  outer loop
   vertex 0 0.161824 0
   vertex 0.0991692 0.085729 0
   vertex 0.0957556 0.0814757 0
  endloop
 endfacet
 facet normal -0 0 -1
  outer loop
   vertex 0.113288 0.108997 0
   vertex 0.110876 0.104106 0
   vertex 0 0.161824 0
  endloop
 endfacet
 facet normal -0 0 -1
  outer loop
   vertex 0.110876 0.104106 0
   vertex 0.108253 0.0993241 0
   vertex 0 0.161824 0
  endloop
 endfacet
 facet normal 0 0 -1
  outer loop
   vertex 0 0.161824 0
   vertex 0.108253 0.0993241 0
   vertex 0.105424 0.0946617 0
  endloop
 endfacet
 facet normal -0 0 -1
  outer loop
   vertex 0.119215 0.124236 0
   vertex 0.117462 0.119072 0
   vertex 0 0.161824 0
  endloop
 endfacet
 facet normal -0 0 -1
  outer loop
   vertex 0.117462 0.119072 0
   vertex 0.115485 0.113989 0
   vertex 0 0.161824 0
  endloop
 endfacet
 facet normal 0 0 -1
  outer loop
   vertex 0 0.161824 0
   vertex 0.115485 0.113989 0
   vertex 0.113288 0.108997 0
  endloop
 endfacet
 facet normal -0 0 -1
  outer loop
   vertex 0.123101 0.140118 0
   vertex 0.122037 0.134769 0
   vertex 0 0.161824 0
  endloop
 endfacet
 facet normal -0 0 -1
  outer loop
   vertex 0.122037 0.134769 0
   vertex 0.120741 0.129472 0
   vertex 0 0.161824 0
  endloop
 endfacet
 facet normal 0 0 -1
  outer loop
   vertex 0 0.161824 0
   vertex 0.120741 0.129472 0
   vertex 0.119215 0.124236 0
  endloop
 endfacet
 facet normal -0 0 -1
  outer loop
   vertex 0.124881 0.156372 0
   vertex 0.124524 0.15093 0
   vertex 0 0.161824 0
  endloop
 endfacet
 facet normal -0 0 -1
  outer loop
   vertex 0.124524 0.15093 0
   vertex 0.123931 0.145508 0
   vertex 0 0.161824 0
  endloop
 endfacet
 facet normal 0 0 -1
  outer loop
   vertex 0 0.161824 0
   vertex 0.123931 0.145508 0
   vertex 0.123101 0.140118 0
  endloop
 endfacet
 facet normal -0.999762 0.0218146 0
  outer loop
   vertex -0.125 0.161824 0
   vertex -0.124881 0.167277 0.5
   vertex -0.124881 0.167277 0
  endloop
 endfacet
 facet normal -0.997859 0.0654029 0
  outer loop
   vertex -0.124881 0.167277 0.5
   vertex -0.124524 0.172719 0.5
   vertex -0.124881 0.167277 0
  endloop
 endfacet
 facet normal -0.997859 0.0654029 0
  outer loop
   vertex -0.124881 0.167277 0
   vertex -0.124524 0.172719 0.5
   vertex -0.124524 0.172719 0
  endloop
 endfacet
 facet normal -0.994056 0.108867 0
  outer loop
   vertex -0.124524 0.172719 0.5
   vertex -0.123931 0.17814 0.5
   vertex -0.124524 0.172719 0
  endloop
 endfacet
 facet normal -0.994056 0.108867 0
  outer loop
   vertex -0.124524 0.172719 0
   vertex -0.123931 0.17814 0.5
   vertex -0.123931 0.17814 0
  endloop
 endfacet
 facet normal -0.988361 0.152124 0
  outer loop
   vertex -0.123931 0.17814 0.5
   vertex -0.123101 0.18353 0.5
   vertex -0.123931 0.17814 0
  endloop
 endfacet
 facet normal -0.988361 0.152124 0
  outer loop
   vertex -0.123931 0.17814 0
   vertex -0.123101 0.18353 0.5
   vertex -0.123101 0.18353 0
  endloop
 endfacet
 facet normal -0.980785 0.19509 0
  outer loop
   vertex -0.123101 0.18353 0.5
   vertex -0.122037 0.188879 0.5
   vertex -0.123101 0.18353 0
  endloop
 endfacet
 facet normal -0.980785 0.19509 0
  outer loop
   vertex -0.123101 0.18353 0
   vertex -0.122037 0.188879 0.5
   vertex -0.122037 0.188879 0
  endloop
 endfacet
 facet normal -0.971342 0.237686 0
  outer loop
   vertex -0.122037 0.188879 0.5
   vertex -0.120741 0.194177 0.5
   vertex -0.122037 0.188879 0
  endloop
 endfacet
 facet normal -0.971342 0.237686 0
  outer loop
   vertex -0.122037 0.188879 0
   vertex -0.120741 0.194177 0.5
   vertex -0.120741 0.194177 0
  endloop
 endfacet
 facet normal -0.96005 0.279829 0
  outer loop
   vertex -0.120741 0.194177 0.5
   vertex -0.119215 0.199412 0.5
   vertex -0.120741 0.194177 0
  endloop
 endfacet
 facet normal -0.96005 0.279829 0
  outer loop
   vertex -0.120741 0.194177 0
   vertex -0.119215 0.199412 0.5
   vertex -0.119215 0.199412 0
  endloop
 endfacet
 facet normal -0.94693 0.321439 0
  outer loop
   vertex -0.119215 0.199412 0.5
   vertex -0.117462 0.204577 0.5
   vertex -0.119215 0.199412 0
  endloop
 endfacet
 facet normal -0.94693 0.321439 0
  outer loop
   vertex -0.119215 0.199412 0
   vertex -0.117462 0.204577 0.5
   vertex -0.117462 0.204577 0
  endloop
 endfacet
 facet normal -0.932008 0.362439 0
  outer loop
   vertex -0.117462 0.204577 0.5
   vertex -0.115485 0.20966 0.5
   vertex -0.117462 0.204577 0
  endloop
 endfacet
 facet normal -0.932008 0.362439 0
  outer loop
   vertex -0.117462 0.204577 0
   vertex -0.115485 0.20966 0.5
   vertex -0.115485 0.20966 0
  endloop
 endfacet
 facet normal -0.915312 0.402745 0
  outer loop
   vertex -0.115485 0.20966 0.5
   vertex -0.113288 0.214651 0.5
   vertex -0.115485 0.20966 0
  endloop
 endfacet
 facet normal -0.915312 0.402745 0
  outer loop
   vertex -0.115485 0.20966 0
   vertex -0.113288 0.214651 0.5
   vertex -0.113288 0.214651 0
  endloop
 endfacet
 facet normal -0.896872 0.44229 0
  outer loop
   vertex -0.113288 0.214651 0.5
   vertex -0.110876 0.219543 0.5
   vertex -0.113288 0.214651 0
  endloop
 endfacet
 facet normal -0.896872 0.44229 0
  outer loop
   vertex -0.113288 0.214651 0
   vertex -0.110876 0.219543 0.5
   vertex -0.110876 0.219543 0
  endloop
 endfacet
 facet normal -0.876727 0.480989 0
  outer loop
   vertex -0.110876 0.219543 0.5
   vertex -0.108253 0.224324 0.5
   vertex -0.110876 0.219543 0
  endloop
 endfacet
 facet normal -0.876727 0.480989 0
  outer loop
   vertex -0.110876 0.219543 0
   vertex -0.108253 0.224324 0.5
   vertex -0.108253 0.224324 0
  endloop
 endfacet
 facet normal -0.854912 0.518773 0
  outer loop
   vertex -0.108253 0.224324 0.5
   vertex -0.105424 0.228987 0.5
   vertex -0.108253 0.224324 0
  endloop
 endfacet
 facet normal -0.854912 0.518773 0
  outer loop
   vertex -0.108253 0.224324 0
   vertex -0.105424 0.228987 0.5
   vertex -0.105424 0.228987 0
  endloop
 endfacet
 facet normal -0.83147 0.55557 0
  outer loop
   vertex -0.105424 0.228987 0.5
   vertex -0.102394 0.233521 0.5
   vertex -0.105424 0.228987 0
  endloop
 endfacet
 facet normal -0.83147 0.55557 0
  outer loop
   vertex -0.105424 0.228987 0
   vertex -0.102394 0.233521 0.5
   vertex -0.102394 0.233521 0
  endloop
 endfacet
 facet normal -0.806444 0.59131 0
  outer loop
   vertex -0.102394 0.233521 0.5
   vertex -0.0991692 0.237919 0.5
   vertex -0.102394 0.233521 0
  endloop
 endfacet
 facet normal -0.806444 0.59131 0
  outer loop
   vertex -0.102394 0.233521 0
   vertex -0.0991692 0.237919 0.5
   vertex -0.0991692 0.237919 0
  endloop
 endfacet
 facet normal -0.779885 0.625923 0
  outer loop
   vertex -0.0991692 0.237919 0.5
   vertex -0.0957556 0.242173 0.5
   vertex -0.0991692 0.237919 0
  endloop
 endfacet
 facet normal -0.779885 0.625923 0
  outer loop
   vertex -0.0991692 0.237919 0
   vertex -0.0957556 0.242173 0.5
   vertex -0.0957556 0.242173 0
  endloop
 endfacet
 facet normal -0.75184 0.659346 0
  outer loop
   vertex -0.0957556 0.242173 0.5
   vertex -0.0921597 0.246273 0.5
   vertex -0.0957556 0.242173 0
  endloop
 endfacet
 facet normal -0.75184 0.659346 0
  outer loop
   vertex -0.0957556 0.242173 0
   vertex -0.0921597 0.246273 0.5
   vertex -0.0921597 0.246273 0
  endloop
 endfacet
 facet normal -0.722364 0.691513 0
  outer loop
   vertex -0.0921597 0.246273 0.5
   vertex -0.0883883 0.250212 0.5
   vertex -0.0921597 0.246273 0
  endloop
 endfacet
 facet normal -0.722364 0.691513 0
  outer loop
   vertex -0.0921597 0.246273 0
   vertex -0.0883883 0.250212 0.5
   vertex -0.0883883 0.250212 0
  endloop
 endfacet
 facet normal -0.691513 0.722364 0
  outer loop
   vertex -0.0883883 0.250212 0.5
   vertex -0.0844488 0.253984 0.5
   vertex -0.0883883 0.250212 0
  endloop
 endfacet
 facet normal -0.691513 0.722364 0
  outer loop
   vertex -0.0883883 0.250212 0
   vertex -0.0844488 0.253984 0.5
   vertex -0.0844488 0.253984 0
  endloop
 endfacet
 facet normal -0.659346 0.75184 0
  outer loop
   vertex -0.0844488 0.253984 0.5
   vertex -0.0803485 0.25758 0.5
   vertex -0.0844488 0.253984 0
  endloop
 endfacet
 facet normal -0.659346 0.75184 0
  outer loop
   vertex -0.0844488 0.253984 0
   vertex -0.0803485 0.25758 0.5
   vertex -0.0803485 0.25758 0
  endloop
 endfacet
 facet normal -0.625923 0.779885 0
  outer loop
   vertex -0.0803485 0.25758 0.5
   vertex -0.0760952 0.260993 0.5
   vertex -0.0803485 0.25758 0
  endloop
 endfacet
 facet normal -0.625923 0.779885 0
  outer loop
   vertex -0.0803485 0.25758 0
   vertex -0.0760952 0.260993 0.5
   vertex -0.0760952 0.260993 0
  endloop
 endfacet
 facet normal -0.59131 0.806444 0
  outer loop
   vertex -0.0760952 0.260993 0.5
   vertex -0.0716971 0.264218 0.5
   vertex -0.0760952 0.260993 0
  endloop
 endfacet
 facet normal -0.59131 0.806444 0
  outer loop
   vertex -0.0760952 0.260993 0
   vertex -0.0716971 0.264218 0.5
   vertex -0.0716971 0.264218 0
  endloop
 endfacet
 facet normal -0.55557 0.83147 0
  outer loop
   vertex -0.0716971 0.264218 0.5
   vertex -0.0671625 0.267248 0.5
   vertex -0.0716971 0.264218 0
  endloop
 endfacet
 facet normal -0.55557 0.83147 0
  outer loop
   vertex -0.0716971 0.264218 0
   vertex -0.0671625 0.267248 0.5
   vertex -0.0671625 0.267248 0
  endloop
 endfacet
 facet normal -0.518773 0.854912 0
  outer loop
   vertex -0.0671625 0.267248 0.5
   vertex -0.0625 0.270077 0.5
   vertex -0.0671625 0.267248 0
  endloop
 endfacet
 facet normal -0.518773 0.854912 0
  outer loop
   vertex -0.0671625 0.267248 0
   vertex -0.0625 0.270077 0.5
   vertex -0.0625 0.270077 0
  endloop
 endfacet
 facet normal -0.480989 0.876727 0
  outer loop
   vertex -0.0625 0.270077 0.5
   vertex -0.0577186 0.2727 0.5
   vertex -0.0625 0.270077 0
  endloop
 endfacet
 facet normal -0.480989 0.876727 0
  outer loop
   vertex -0.0625 0.270077 0
   vertex -0.0577186 0.2727 0.5
   vertex -0.0577186 0.2727 0
  endloop
 endfacet
 facet normal -0.44229 0.896872 0
  outer loop
   vertex -0.0577186 0.2727 0.5
   vertex -0.0528273 0.275113 0.5
   vertex -0.0577186 0.2727 0
  endloop
 endfacet
 facet normal -0.44229 0.896872 0
  outer loop
   vertex -0.0577186 0.2727 0
   vertex -0.0528273 0.275113 0.5
   vertex -0.0528273 0.275113 0
  endloop
 endfacet
 facet normal -0.402745 0.915312 0
  outer loop
   vertex -0.0528273 0.275113 0.5
   vertex -0.0478354 0.277309 0.5
   vertex -0.0528273 0.275113 0
  endloop
 endfacet
 facet normal -0.402745 0.915312 0
  outer loop
   vertex -0.0528273 0.275113 0
   vertex -0.0478354 0.277309 0.5
   vertex -0.0478354 0.277309 0
  endloop
 endfacet
 facet normal -0.362439 0.932008 0
  outer loop
   vertex -0.0478354 0.277309 0.5
   vertex -0.0427525 0.279286 0.5
   vertex -0.0478354 0.277309 0
  endloop
 endfacet
 facet normal -0.362439 0.932008 0
  outer loop
   vertex -0.0478354 0.277309 0
   vertex -0.0427525 0.279286 0.5
   vertex -0.0427525 0.279286 0
  endloop
 endfacet
 facet normal -0.321439 0.94693 0
  outer loop
   vertex -0.0427525 0.279286 0.5
   vertex -0.0375882 0.281039 0.5
   vertex -0.0427525 0.279286 0
  endloop
 endfacet
 facet normal -0.321439 0.94693 0
  outer loop
   vertex -0.0427525 0.279286 0
   vertex -0.0375882 0.281039 0.5
   vertex -0.0375882 0.281039 0
  endloop
 endfacet
 facet normal -0.279829 0.96005 0
  outer loop
   vertex -0.0375882 0.281039 0.5
   vertex -0.0323524 0.282565 0.5
   vertex -0.0375882 0.281039 0
  endloop
 endfacet
 facet normal -0.279829 0.96005 0
  outer loop
   vertex -0.0375882 0.281039 0
   vertex -0.0323524 0.282565 0.5
   vertex -0.0323524 0.282565 0
  endloop
 endfacet
 facet normal -0.237686 0.971342 0
  outer loop
   vertex -0.0323524 0.282565 0.5
   vertex -0.027055 0.283861 0.5
   vertex -0.0323524 0.282565 0
  endloop
 endfacet
 facet normal -0.237686 0.971342 0
  outer loop
   vertex -0.0323524 0.282565 0
   vertex -0.027055 0.283861 0.5
   vertex -0.027055 0.283861 0
  endloop
 endfacet
 facet normal -0.19509 0.980785 0
  outer loop
   vertex -0.027055 0.283861 0.5
   vertex -0.021706 0.284925 0.5
   vertex -0.027055 0.283861 0
  endloop
 endfacet
 facet normal -0.19509 0.980785 0
  outer loop
   vertex -0.027055 0.283861 0
   vertex -0.021706 0.284925 0.5
   vertex -0.021706 0.284925 0
  endloop
 endfacet
 facet normal -0.152124 0.988361 0
  outer loop
   vertex -0.021706 0.284925 0.5
   vertex -0.0163158 0.285755 0.5
   vertex -0.021706 0.284925 0
  endloop
 endfacet
 facet normal -0.152124 0.988361 0
  outer loop
   vertex -0.021706 0.284925 0
   vertex -0.0163158 0.285755 0.5
   vertex -0.0163158 0.285755 0
  endloop
 endfacet
 facet normal -0.108867 0.994056 0
  outer loop
   vertex -0.0163158 0.285755 0.5
   vertex -0.0108945 0.286348 0.5
   vertex -0.0163158 0.285755 0
  endloop
 endfacet
 facet normal -0.108867 0.994056 0
  outer loop
   vertex -0.0163158 0.285755 0
   vertex -0.0108945 0.286348 0.5
   vertex -0.0108945 0.286348 0
  endloop
 endfacet
 facet normal -0.0654029 0.997859 0
  outer loop
   vertex -0.0108945 0.286348 0.5
   vertex -0.00545242 0.286705 0.5
   vertex -0.0108945 0.286348 0
  endloop
 endfacet
 facet normal -0.0654029 0.997859 0
  outer loop
   vertex -0.0108945 0.286348 0
   vertex -0.00545242 0.286705 0.5
   vertex -0.00545242 0.286705 0
  endloop
 endfacet
 facet normal -0.0218146 0.999762 0
  outer loop
   vertex -0.00545242 0.286705 0.5
   vertex -7.65404e-18 0.286824 0.5
   vertex -0.00545242 0.286705 0
  endloop
 endfacet
 facet normal -0.0218146 0.999762 0
  outer loop
   vertex -0.00545242 0.286705 0
   vertex -7.65404e-18 0.286824 0.5
   vertex -7.65404e-18 0.286824 0
  endloop
 endfacet
 facet normal 0.0218146 0.999762 0
  outer loop
   vertex -7.65404e-18 0.286824 0.5
   vertex 0.00545242 0.286705 0.5
   vertex -7.65404e-18 0.286824 0
  endloop
 endfacet
 facet normal 0.0218146 0.999762 0
  outer loop
   vertex -7.65404e-18 0.286824 0
   vertex 0.00545242 0.286705 0.5
   vertex 0.00545242 0.286705 0
  endloop
 endfacet
 facet normal 0.0654029 0.997859 0
  outer loop
   vertex 0.00545242 0.286705 0.5
   vertex 0.0108945 0.286348 0.5
   vertex 0.00545242 0.286705 0
  endloop
 endfacet
 facet normal 0.0654029 0.997859 0
  outer loop
   vertex 0.00545242 0.286705 0
   vertex 0.0108945 0.286348 0.5
   vertex 0.0108945 0.286348 0
  endloop
 endfacet
 facet normal 0.108867 0.994056 0
  outer loop
   vertex 0.0108945 0.286348 0.5
   vertex 0.0163158 0.285755 0.5
   vertex 0.0108945 0.286348 0
  endloop
 endfacet
 facet normal 0.108867 0.994056 0
  outer loop
   vertex 0.0108945 0.286348 0
   vertex 0.0163158 0.285755 0.5
   vertex 0.0163158 0.285755 0
  endloop
 endfacet
 facet normal 0.152124 0.988361 0
  outer loop
   vertex 0.0163158 0.285755 0.5
   vertex 0.021706 0.284925 0.5
   vertex 0.0163158 0.285755 0
  endloop
 endfacet
 facet normal 0.152124 0.988361 0
  outer loop
   vertex 0.0163158 0.285755 0
   vertex 0.021706 0.284925 0.5
   vertex 0.021706 0.284925 0
  endloop
 endfacet
 facet normal 0.19509 0.980785 0
  outer loop
   vertex 0.021706 0.284925 0.5
   vertex 0.027055 0.283861 0.5
   vertex 0.021706 0.284925 0
  endloop
 endfacet
 facet normal 0.19509 0.980785 0
  outer loop
   vertex 0.021706 0.284925 0
   vertex 0.027055 0.283861 0.5
   vertex 0.027055 0.283861 0
  endloop
 endfacet
 facet normal 0.237686 0.971342 0
  outer loop
   vertex 0.027055 0.283861 0.5
   vertex 0.0323524 0.282565 0.5
   vertex 0.027055 0.283861 0
  endloop
 endfacet
 facet normal 0.237686 0.971342 0
  outer loop
   vertex 0.027055 0.283861 0
   vertex 0.0323524 0.282565 0.5
   vertex 0.0323524 0.282565 0
  endloop
 endfacet
 facet normal 0.279829 0.96005 0
  outer loop
   vertex 0.0323524 0.282565 0.5
   vertex 0.0375882 0.281039 0.5
   vertex 0.0323524 0.282565 0
  endloop
 endfacet
 facet normal 0.279829 0.96005 0
  outer loop
   vertex 0.0323524 0.282565 0
   vertex 0.0375882 0.281039 0.5
   vertex 0.0375882 0.281039 0
  endloop
 endfacet
 facet normal 0.321439 0.94693 0
  outer loop
   vertex 0.0375882 0.281039 0.5
   vertex 0.0427525 0.279286 0.5
   vertex 0.0375882 0.281039 0
  endloop
 endfacet
 facet normal 0.321439 0.94693 0
  outer loop
   vertex 0.0375882 0.281039 0
   vertex 0.0427525 0.279286 0.5
   vertex 0.0427525 0.279286 0
  endloop
 endfacet
 facet normal 0.362439 0.932008 0
  outer loop
   vertex 0.0427525 0.279286 0.5
   vertex 0.0478354 0.277309 0.5
   vertex 0.0427525 0.279286 0
  endloop
 endfacet
 facet normal 0.362439 0.932008 0
  outer loop
   vertex 0.0427525 0.279286 0
   vertex 0.0478354 0.277309 0.5
   vertex 0.0478354 0.277309 0
  endloop
 endfacet
 facet normal 0.402745 0.915312 0
  outer loop
   vertex 0.0478354 0.277309 0.5
   vertex 0.0528273 0.275113 0.5
   vertex 0.0478354 0.277309 0
  endloop
 endfacet
 facet normal 0.402745 0.915312 0
  outer loop
   vertex 0.0478354 0.277309 0
   vertex 0.0528273 0.275113 0.5
   vertex 0.0528273 0.275113 0
  endloop
 endfacet
 facet normal 0.44229 0.896872 0
  outer loop
   vertex 0.0528273 0.275113 0.5
   vertex 0.0577186 0.2727 0.5
   vertex 0.0528273 0.275113 0
  endloop
 endfacet
 facet normal 0.44229 0.896872 0
  outer loop
   vertex 0.0528273 0.275113 0
   vertex 0.0577186 0.2727 0.5
   vertex 0.0577186 0.2727 0
  endloop
 endfacet
 facet normal 0.480989 0.876727 0
  outer loop
   vertex 0.0577186 0.2727 0.5
   vertex 0.0625 0.270077 0.5
   vertex 0.0577186 0.2727 0
  endloop
 endfacet
 facet normal 0.480989 0.876727 0
  outer loop
   vertex 0.0577186 0.2727 0
   vertex 0.0625 0.270077 0.5
   vertex 0.0625 0.270077 0
  endloop
 endfacet
 facet normal 0.518773 0.854912 0
  outer loop
   vertex 0.0625 0.270077 0.5
   vertex 0.0671625 0.267248 0.5
   vertex 0.0625 0.270077 0
  endloop
 endfacet
 facet normal 0.518773 0.854912 0
  outer loop
   vertex 0.0625 0.270077 0
   vertex 0.0671625 0.267248 0.5
   vertex 0.0671625 0.267248 0
  endloop
 endfacet
 facet normal 0.55557 0.83147 0
  outer loop
   vertex 0.0671625 0.267248 0.5
   vertex 0.0716971 0.264218 0.5
   vertex 0.0671625 0.267248 0
  endloop
 endfacet
 facet normal 0.55557 0.83147 0
  outer loop
   vertex 0.0671625 0.267248 0
   vertex 0.0716971 0.264218 0.5
   vertex 0.0716971 0.264218 0
  endloop
 endfacet
 facet normal 0.59131 0.806444 0
  outer loop
   vertex 0.0716971 0.264218 0.5
   vertex 0.0760952 0.260993 0.5
   vertex 0.0716971 0.264218 0
  endloop
 endfacet
 facet normal 0.59131 0.806444 0
  outer loop
   vertex 0.0716971 0.264218 0
   vertex 0.0760952 0.260993 0.5
   vertex 0.0760952 0.260993 0
  endloop
 endfacet
 facet normal 0.625923 0.779885 0
  outer loop
   vertex 0.0760952 0.260993 0.5
   vertex 0.0803485 0.25758 0.5
   vertex 0.0760952 0.260993 0
  endloop
 endfacet
 facet normal 0.625923 0.779885 0
  outer loop
   vertex 0.0760952 0.260993 0
   vertex 0.0803485 0.25758 0.5
   vertex 0.0803485 0.25758 0
  endloop
 endfacet
 facet normal 0.659346 0.75184 0
  outer loop
   vertex 0.0803485 0.25758 0.5
   vertex 0.0844488 0.253984 0.5
   vertex 0.0803485 0.25758 0
  endloop
 endfacet
 facet normal 0.659346 0.75184 0
  outer loop
   vertex 0.0803485 0.25758 0
   vertex 0.0844488 0.253984 0.5
   vertex 0.0844488 0.253984 0
  endloop
 endfacet
 facet normal 0.691513 0.722364 0
  outer loop
   vertex 0.0844488 0.253984 0.5
   vertex 0.0883883 0.250212 0.5
   vertex 0.0844488 0.253984 0
  endloop
 endfacet
 facet normal 0.691513 0.722364 0
  outer loop
   vertex 0.0844488 0.253984 0
   vertex 0.0883883 0.250212 0.5
   vertex 0.0883883 0.250212 0
  endloop
 endfacet
 facet normal 0.722364 0.691513 0
  outer loop
   vertex 0.0883883 0.250212 0.5
   vertex 0.0921597 0.246273 0.5
   vertex 0.0883883 0.250212 0
  endloop
 endfacet
 facet normal 0.722364 0.691513 0
  outer loop
   vertex 0.0883883 0.250212 0
   vertex 0.0921597 0.246273 0.5
   vertex 0.0921597 0.246273 0
  endloop
 endfacet
 facet normal 0.75184 0.659346 0
  outer loop
   vertex 0.0921597 0.246273 0.5
   vertex 0.0957556 0.242173 0.5
   vertex 0.0921597 0.246273 0
  endloop
 endfacet
 facet normal 0.75184 0.659346 0
  outer loop
   vertex 0.0921597 0.246273 0
   vertex 0.0957556 0.242173 0.5
   vertex 0.0957556 0.242173 0
  endloop
 endfacet
 facet normal 0.779885 0.625923 0
  outer loop
   vertex 0.0957556 0.242173 0.5
   vertex 0.0991692 0.237919 0.5
   vertex 0.0957556 0.242173 0
  endloop
 endfacet
 facet normal 0.779885 0.625923 0
  outer loop
   vertex 0.0957556 0.242173 0
   vertex 0.0991692 0.237919 0.5
   vertex 0.0991692 0.237919 0
  endloop
 endfacet
 facet normal 0.806444 0.59131 0
  outer loop
   vertex 0.0991692 0.237919 0.5
   vertex 0.102394 0.233521 0.5
   vertex 0.0991692 0.237919 0
  endloop
 endfacet
 facet normal 0.806444 0.59131 0
  outer loop
   vertex 0.0991692 0.237919 0
   vertex 0.102394 0.233521 0.5
   vertex 0.102394 0.233521 0
  endloop
 endfacet
 facet normal 0.83147 0.55557 0
  outer loop
   vertex 0.102394 0.233521 0.5
   vertex 0.105424 0.228987 0.5
   vertex 0.102394 0.233521 0
  endloop
 endfacet
 facet normal 0.83147 0.55557 0
  outer loop
   vertex 0.102394 0.233521 0
   vertex 0.105424 0.228987 0.5
   vertex 0.105424 0.228987 0
  endloop
 endfacet
 facet normal 0.854912 0.518773 0
  outer loop
   vertex 0.105424 0.228987 0.5
   vertex 0.108253 0.224324 0.5
   vertex 0.105424 0.228987 0
  endloop
 endfacet
 facet normal 0.854912 0.518773 0
  outer loop
   vertex 0.105424 0.228987 0
   vertex 0.108253 0.224324 0.5
   vertex 0.108253 0.224324 0
  endloop
 endfacet
 facet normal 0.876727 0.480989 0
  outer loop
   vertex 0.108253 0.224324 0.5
   vertex 0.110876 0.219543 0.5
   vertex 0.108253 0.224324 0
  endloop
 endfacet
 facet normal 0.876727 0.480989 0
  outer loop
   vertex 0.108253 0.224324 0
   vertex 0.110876 0.219543 0.5
   vertex 0.110876 0.219543 0
  endloop
 endfacet
 facet normal 0.896872 0.44229 0
  outer loop
   vertex 0.110876 0.219543 0.5
   vertex 0.113288 0.214651 0.5
   vertex 0.110876 0.219543 0
  endloop
 endfacet
 facet normal 0.896872 0.44229 0
  outer loop
   vertex 0.110876 0.219543 0
   vertex 0.113288 0.214651 0.5
   vertex 0.113288 0.214651 0
  endloop
 endfacet
 facet normal 0.915312 0.402745 0
  outer loop
   vertex 0.113288 0.214651 0.5
   vertex 0.115485 0.20966 0.5
   vertex 0.113288 0.214651 0
  endloop
 endfacet
 facet normal 0.915312 0.402745 0
  outer loop
   vertex 0.113288 0.214651 0
   vertex 0.115485 0.20966 0.5
   vertex 0.115485 0.20966 0
  endloop
 endfacet
 facet normal 0.932008 0.362439 0
  outer loop
   vertex 0.115485 0.20966 0.5
   vertex 0.117462 0.204577 0.5
   vertex 0.115485 0.20966 0
  endloop
 endfacet
 facet normal 0.932008 0.362439 0
  outer loop
   vertex 0.115485 0.20966 0
   vertex 0.117462 0.204577 0.5
   vertex 0.117462 0.204577 0
  endloop
 endfacet
 facet normal 0.94693 0.321439 0
  outer loop
   vertex 0.117462 0.204577 0.5
   vertex 0.119215 0.199412 0.5
   vertex 0.117462 0.204577 0
  endloop
 endfacet
 facet normal 0.94693 0.321439 0
  outer loop
   vertex 0.117462 0.204577 0
   vertex 0.119215 0.199412 0.5
   vertex 0.119215 0.199412 0
  endloop
 endfacet
 facet normal 0.96005 0.279829 0
  outer loop
   vertex 0.119215 0.199412 0.5
   vertex 0.120741 0.194177 0.5
   vertex 0.119215 0.199412 0
  endloop
 endfacet
 facet normal 0.96005 0.279829 0
  outer loop
   vertex 0.119215 0.199412 0
   vertex 0.120741 0.194177 0.5
   vertex 0.120741 0.194177 0
  endloop
 endfacet
 facet normal 0.971342 0.237686 0
  outer loop
   vertex 0.120741 0.194177 0.5
   vertex 0.122037 0.188879 0.5
   vertex 0.120741 0.194177 0
  endloop
 endfacet
 facet normal 0.971342 0.237686 0
  outer loop
   vertex 0.120741 0.194177 0
   vertex 0.122037 0.188879 0.5
   vertex 0.122037 0.188879 0
  endloop
 endfacet
 facet normal 0.980785 0.19509 0
  outer loop
   vertex 0.122037 0.188879 0.5
   vertex 0.123101 0.18353 0.5
   vertex 0.122037 0.188879 0
  endloop
 endfacet
 facet normal 0.980785 0.19509 0
  outer loop
   vertex 0.122037 0.188879 0
   vertex 0.123101 0.18353 0.5
   vertex 0.123101 0.18353 0
  endloop
 endfacet
 facet normal 0.988361 0.152124 0
  outer loop
   vertex 0.123101 0.18353 0.5
   vertex 0.123931 0.17814 0.5
   vertex 0.123101 0.18353 0
  endloop
 endfacet
 facet normal 0.988361 0.152124 0
  outer loop
   vertex 0.123101 0.18353 0
   vertex 0.123931 0.17814 0.5
   vertex 0.123931 0.17814 0
  endloop
 endfacet
 facet normal 0.994056 0.108867 0
  outer loop
   vertex 0.123931 0.17814 0.5
   vertex 0.124524 0.172719 0.5
   vertex 0.123931 0.17814 0
  endloop
 endfacet
 facet normal 0.994056 0.108867 0
  outer loop
   vertex 0.123931 0.17814 0
   vertex 0.124524 0.172719 0.5
   vertex 0.124524 0.172719 0
  endloop
 endfacet
 facet normal 0.997859 0.0654029 0
  outer loop
   vertex 0.124524 0.172719 0.5
   vertex 0.124881 0.167277 0.5
   vertex 0.124524 0.172719 0
  endloop
 endfacet
 facet normal 0.997859 0.0654029 0
  outer loop
   vertex 0.124524 0.172719 0
   vertex 0.124881 0.167277 0.5
   vertex 0.124881 0.167277 0
  endloop
 endfacet
 facet normal 0.999762 0.0218146 0
  outer loop
   vertex 0.124881 0.167277 0.5
   vertex 0.125 0.161824 0.5
   vertex 0.124881 0.167277 0
  endloop
 endfacet
 facet normal 0.999762 0.0218146 -1.20367e-18
  outer loop
   vertex 0.124881 0.167277 0
   vertex 0.125 0.161824 0.5
   vertex 0.125 0.161824 0
  endloop
 endfacet
 facet normal 0.999762 -0.0218146 1.21095e-18
  outer loop
   vertex 0.125 0.161824 0.5
   vertex 0.124881 0.156372 0.5
   vertex 0.125 0.161824 0
  endloop
 endfacet
 facet normal 0.999762 -0.0218146 0
  outer loop
   vertex 0.125 0.161824 0
   vertex 0.124881 0.156372 0.5
   vertex 0.124881 0.156372 0
  endloop
 endfacet
 facet normal 0.997859 -0.0654029 0
  outer loop
   vertex 0.124881 0.156372 0.5
   vertex 0.124524 0.15093 0.5
   vertex 0.124881 0.156372 0
  endloop
 endfacet
 facet normal 0.997859 -0.0654029 0
  outer loop
   vertex 0.124881 0.156372 0
   vertex 0.124524 0.15093 0.5
   vertex 0.124524 0.15093 0
  endloop
 endfacet
 facet normal 0.994056 -0.108867 0
  outer loop
   vertex 0.124524 0.15093 0.5
   vertex 0.123931 0.145508 0.5
   vertex 0.124524 0.15093 0
  endloop
 endfacet
 facet normal 0.994056 -0.108867 0
  outer loop
   vertex 0.124524 0.15093 0
   vertex 0.123931 0.145508 0.5
   vertex 0.123931 0.145508 0
  endloop
 endfacet
 facet normal 0.988361 -0.152124 0
  outer loop
   vertex 0.123931 0.145508 0.5
   vertex 0.123101 0.140118 0.5
   vertex 0.123931 0.145508 0
  endloop
 endfacet
 facet normal 0.988361 -0.152124 0
  outer loop
   vertex 0.123931 0.145508 0
   vertex 0.123101 0.140118 0.5
   vertex 0.123101 0.140118 0
  endloop
 endfacet
 facet normal 0.980785 -0.19509 0
  outer loop
   vertex 0.123101 0.140118 0.5
   vertex 0.122037 0.134769 0.5
   vertex 0.123101 0.140118 0
  endloop
 endfacet
 facet normal 0.980785 -0.19509 0
  outer loop
   vertex 0.123101 0.140118 0
   vertex 0.122037 0.134769 0.5
   vertex 0.122037 0.134769 0
  endloop
 endfacet
 facet normal 0.971342 -0.237686 0
  outer loop
   vertex 0.122037 0.134769 0.5
   vertex 0.120741 0.129472 0.5
   vertex 0.122037 0.134769 0
  endloop
 endfacet
 facet normal 0.971342 -0.237686 0
  outer loop
   vertex 0.122037 0.134769 0
   vertex 0.120741 0.129472 0.5
   vertex 0.120741 0.129472 0
  endloop
 endfacet
 facet normal 0.96005 -0.279829 0
  outer loop
   vertex 0.120741 0.129472 0.5
   vertex 0.119215 0.124236 0.5
   vertex 0.120741 0.129472 0
  endloop
 endfacet
 facet normal 0.96005 -0.279829 0
  outer loop
   vertex 0.120741 0.129472 0
   vertex 0.119215 0.124236 0.5
   vertex 0.119215 0.124236 0
  endloop
 endfacet
 facet normal 0.94693 -0.321439 0
  outer loop
   vertex 0.119215 0.124236 0.5
   vertex 0.117462 0.119072 0.5
   vertex 0.119215 0.124236 0
  endloop
 endfacet
 facet normal 0.94693 -0.321439 0
  outer loop
   vertex 0.119215 0.124236 0
   vertex 0.117462 0.119072 0.5
   vertex 0.117462 0.119072 0
  endloop
 endfacet
 facet normal 0.932008 -0.362439 0
  outer loop
   vertex 0.117462 0.119072 0.5
   vertex 0.115485 0.113989 0.5
   vertex 0.117462 0.119072 0
  endloop
 endfacet
 facet normal 0.932008 -0.362439 0
  outer loop
   vertex 0.117462 0.119072 0
   vertex 0.115485 0.113989 0.5
   vertex 0.115485 0.113989 0
  endloop
 endfacet
 facet normal 0.915312 -0.402745 0
  outer loop
   vertex 0.115485 0.113989 0.5
   vertex 0.113288 0.108997 0.5
   vertex 0.115485 0.113989 0
  endloop
 endfacet
 facet normal 0.915312 -0.402745 0
  outer loop
   vertex 0.115485 0.113989 0
   vertex 0.113288 0.108997 0.5
   vertex 0.113288 0.108997 0
  endloop
 endfacet
 facet normal 0.896872 -0.44229 0
  outer loop
   vertex 0.113288 0.108997 0.5
   vertex 0.110876 0.104106 0.5
   vertex 0.113288 0.108997 0
  endloop
 endfacet
 facet normal 0.896872 -0.44229 0
  outer loop
   vertex 0.113288 0.108997 0
   vertex 0.110876 0.104106 0.5
   vertex 0.110876 0.104106 0
  endloop
 endfacet
 facet normal 0.876727 -0.480989 0
  outer loop
   vertex 0.110876 0.104106 0.5
   vertex 0.108253 0.0993241 0.5
   vertex 0.110876 0.104106 0
  endloop
 endfacet
 facet normal 0.876727 -0.480989 0
  outer loop
   vertex 0.110876 0.104106 0
   vertex 0.108253 0.0993241 0.5
   vertex 0.108253 0.0993241 0
  endloop
 endfacet
 facet normal 0.854912 -0.518773 0
  outer loop
   vertex 0.108253 0.0993241 0.5
   vertex 0.105424 0.0946617 0.5
   vertex 0.108253 0.0993241 0
  endloop
 endfacet
 facet normal 0.854912 -0.518773 0
  outer loop
   vertex 0.108253 0.0993241 0
   vertex 0.105424 0.0946617 0.5
   vertex 0.105424 0.0946617 0
  endloop
 endfacet
 facet normal 0.83147 -0.55557 0
  outer loop
   vertex 0.105424 0.0946617 0.5
   vertex 0.102394 0.0901271 0.5
   vertex 0.105424 0.0946617 0
  endloop
 endfacet
 facet normal 0.83147 -0.55557 0
  outer loop
   vertex 0.105424 0.0946617 0
   vertex 0.102394 0.0901271 0.5
   vertex 0.102394 0.0901271 0
  endloop
 endfacet
 facet normal 0.806444 -0.59131 0
  outer loop
   vertex 0.102394 0.0901271 0.5
   vertex 0.0991692 0.085729 0.5
   vertex 0.102394 0.0901271 0
  endloop
 endfacet
 facet normal 0.806444 -0.59131 0
  outer loop
   vertex 0.102394 0.0901271 0
   vertex 0.0991692 0.085729 0.5
   vertex 0.0991692 0.085729 0
  endloop
 endfacet
 facet normal 0.779885 -0.625923 0
  outer loop
   vertex 0.0991692 0.085729 0.5
   vertex 0.0957556 0.0814757 0.5
   vertex 0.0991692 0.085729 0
  endloop
 endfacet
 facet normal 0.779885 -0.625923 0
  outer loop
   vertex 0.0991692 0.085729 0
   vertex 0.0957556 0.0814757 0.5
   vertex 0.0957556 0.0814757 0
  endloop
 endfacet
 facet normal 0.75184 -0.659346 0
  outer loop
   vertex 0.0957556 0.0814757 0.5
   vertex 0.0921597 0.0773754 0.5
   vertex 0.0957556 0.0814757 0
  endloop
 endfacet
 facet normal 0.75184 -0.659346 0
  outer loop
   vertex 0.0957556 0.0814757 0
   vertex 0.0921597 0.0773754 0.5
   vertex 0.0921597 0.0773754 0
  endloop
 endfacet
 facet normal 0.722364 -0.691513 0
  outer loop
   vertex 0.0921597 0.0773754 0.5
   vertex 0.0883883 0.0734358 0.5
   vertex 0.0921597 0.0773754 0
  endloop
 endfacet
 facet normal 0.722364 -0.691513 0
  outer loop
   vertex 0.0921597 0.0773754 0
   vertex 0.0883883 0.0734358 0.5
   vertex 0.0883883 0.0734358 0
  endloop
 endfacet
 facet normal 0.691513 -0.722364 0
  outer loop
   vertex 0.0883883 0.0734358 0.5
   vertex 0.0844488 0.0696645 0.5
   vertex 0.0883883 0.0734358 0
  endloop
 endfacet
 facet normal 0.691513 -0.722364 0
  outer loop
   vertex 0.0883883 0.0734358 0
   vertex 0.0844488 0.0696645 0.5
   vertex 0.0844488 0.0696645 0
  endloop
 endfacet
 facet normal 0.659346 -0.75184 0
  outer loop
   vertex 0.0844488 0.0696645 0.5
   vertex 0.0803485 0.0660686 0.5
   vertex 0.0844488 0.0696645 0
  endloop
 endfacet
 facet normal 0.659346 -0.75184 0
  outer loop
   vertex 0.0844488 0.0696645 0
   vertex 0.0803485 0.0660686 0.5
   vertex 0.0803485 0.0660686 0
  endloop
 endfacet
 facet normal 0.625923 -0.779885 0
  outer loop
   vertex 0.0803485 0.0660686 0.5
   vertex 0.0760952 0.062655 0.5
   vertex 0.0803485 0.0660686 0
  endloop
 endfacet
 facet normal 0.625923 -0.779885 0
  outer loop
   vertex 0.0803485 0.0660686 0
   vertex 0.0760952 0.062655 0.5
   vertex 0.0760952 0.062655 0
  endloop
 endfacet
 facet normal 0.59131 -0.806444 0
  outer loop
   vertex 0.0760952 0.062655 0.5
   vertex 0.0716971 0.0594301 0.5
   vertex 0.0760952 0.062655 0
  endloop
 endfacet
 facet normal 0.59131 -0.806444 0
  outer loop
   vertex 0.0760952 0.062655 0
   vertex 0.0716971 0.0594301 0.5
   vertex 0.0716971 0.0594301 0
  endloop
 endfacet
 facet normal 0.55557 -0.83147 0
  outer loop
   vertex 0.0716971 0.0594301 0.5
   vertex 0.0671625 0.0564002 0.5
   vertex 0.0716971 0.0594301 0
  endloop
 endfacet
 facet normal 0.55557 -0.83147 0
  outer loop
   vertex 0.0716971 0.0594301 0
   vertex 0.0671625 0.0564002 0.5
   vertex 0.0671625 0.0564002 0
  endloop
 endfacet
 facet normal 0.518773 -0.854912 0
  outer loop
   vertex 0.0671625 0.0564002 0.5
   vertex 0.0625 0.053571 0.5
   vertex 0.0671625 0.0564002 0
  endloop
 endfacet
 facet normal 0.518773 -0.854912 0
  outer loop
   vertex 0.0671625 0.0564002 0
   vertex 0.0625 0.053571 0.5
   vertex 0.0625 0.053571 0
  endloop
 endfacet
 facet normal 0.480989 -0.876727 0
  outer loop
   vertex 0.0625 0.053571 0.5
   vertex 0.0577186 0.0509478 0.5
   vertex 0.0625 0.053571 0
  endloop
 endfacet
 facet normal 0.480989 -0.876727 0
  outer loop
   vertex 0.0625 0.053571 0
   vertex 0.0577186 0.0509478 0.5
   vertex 0.0577186 0.0509478 0
  endloop
 endfacet
 facet normal 0.44229 -0.896872 0
  outer loop
   vertex 0.0577186 0.0509478 0.5
   vertex 0.0528273 0.0485357 0.5
   vertex 0.0577186 0.0509478 0
  endloop
 endfacet
 facet normal 0.44229 -0.896872 0
  outer loop
   vertex 0.0577186 0.0509478 0
   vertex 0.0528273 0.0485357 0.5
   vertex 0.0528273 0.0485357 0
  endloop
 endfacet
 facet normal 0.402745 -0.915312 0
  outer loop
   vertex 0.0528273 0.0485357 0.5
   vertex 0.0478354 0.0463392 0.5
   vertex 0.0528273 0.0485357 0
  endloop
 endfacet
 facet normal 0.402745 -0.915312 0
  outer loop
   vertex 0.0528273 0.0485357 0
   vertex 0.0478354 0.0463392 0.5
   vertex 0.0478354 0.0463392 0
  endloop
 endfacet
 facet normal 0.362439 -0.932008 0
  outer loop
   vertex 0.0478354 0.0463392 0.5
   vertex 0.0427525 0.0443626 0.5
   vertex 0.0478354 0.0463392 0
  endloop
 endfacet
 facet normal 0.362439 -0.932008 0
  outer loop
   vertex 0.0478354 0.0463392 0
   vertex 0.0427525 0.0443626 0.5
   vertex 0.0427525 0.0443626 0
  endloop
 endfacet
 facet normal 0.321439 -0.94693 0
  outer loop
   vertex 0.0427525 0.0443626 0.5
   vertex 0.0375882 0.0426095 0.5
   vertex 0.0427525 0.0443626 0
  endloop
 endfacet
 facet normal 0.321439 -0.94693 0
  outer loop
   vertex 0.0427525 0.0443626 0
   vertex 0.0375882 0.0426095 0.5
   vertex 0.0375882 0.0426095 0
  endloop
 endfacet
 facet normal 0.279829 -0.96005 0
  outer loop
   vertex 0.0375882 0.0426095 0.5
   vertex 0.0323524 0.0410834 0.5
   vertex 0.0375882 0.0426095 0
  endloop
 endfacet
 facet normal 0.279829 -0.96005 0
  outer loop
   vertex 0.0375882 0.0426095 0
   vertex 0.0323524 0.0410834 0.5
   vertex 0.0323524 0.0410834 0
  endloop
 endfacet
 facet normal 0.237686 -0.971342 0
  outer loop
   vertex 0.0323524 0.0410834 0.5
   vertex 0.027055 0.0397871 0.5
   vertex 0.0323524 0.0410834 0
  endloop
 endfacet
 facet normal 0.237686 -0.971342 0
  outer loop
   vertex 0.0323524 0.0410834 0
   vertex 0.027055 0.0397871 0.5
   vertex 0.027055 0.0397871 0
  endloop
 endfacet
 facet normal 0.19509 -0.980785 0
  outer loop
   vertex 0.027055 0.0397871 0.5
   vertex 0.021706 0.0387232 0.5
   vertex 0.027055 0.0397871 0
  endloop
 endfacet
 facet normal 0.19509 -0.980785 0
  outer loop
   vertex 0.027055 0.0397871 0
   vertex 0.021706 0.0387232 0.5
   vertex 0.021706 0.0387232 0
  endloop
 endfacet
 facet normal 0.152124 -0.988361 0
  outer loop
   vertex 0.021706 0.0387232 0.5
   vertex 0.0163158 0.0378935 0.5
   vertex 0.021706 0.0387232 0
  endloop
 endfacet
 facet normal 0.152124 -0.988361 0
  outer loop
   vertex 0.021706 0.0387232 0
   vertex 0.0163158 0.0378935 0.5
   vertex 0.0163158 0.0378935 0
  endloop
 endfacet
 facet normal 0.108867 -0.994056 0
  outer loop
   vertex 0.0163158 0.0378935 0.5
   vertex 0.0108945 0.0372998 0.5
   vertex 0.0163158 0.0378935 0
  endloop
 endfacet
 facet normal 0.108867 -0.994056 0
  outer loop
   vertex 0.0163158 0.0378935 0
   vertex 0.0108945 0.0372998 0.5
   vertex 0.0108945 0.0372998 0
  endloop
 endfacet
 facet normal 0.0654029 -0.997859 0
  outer loop
   vertex 0.0108945 0.0372998 0.5
   vertex 0.00545242 0.0369431 0.5
   vertex 0.0108945 0.0372998 0
  endloop
 endfacet
 facet normal 0.0654029 -0.997859 0
  outer loop
   vertex 0.0108945 0.0372998 0
   vertex 0.00545242 0.0369431 0.5
   vertex 0.00545242 0.0369431 0
  endloop
 endfacet
 facet normal 0.0218146 -0.999762 0
  outer loop
   vertex 0.00545242 0.0369431 0.5
   vertex 2.29621e-17 0.0368241 0.5
   vertex 0.00545242 0.0369431 0
  endloop
 endfacet
 facet normal 0.0218146 -0.999762 0
  outer loop
   vertex 0.00545242 0.0369431 0
   vertex 2.29621e-17 0.0368241 0.5
   vertex 2.29621e-17 0.0368241 0
  endloop
 endfacet
 facet normal -0.0218146 -0.999762 -0
  outer loop
   vertex 2.29621e-17 0.0368241 0.5
   vertex -0.00545242 0.0369431 0.5
   vertex 2.29621e-17 0.0368241 0
  endloop
 endfacet
 facet normal -0.0218146 -0.999762 0
  outer loop
   vertex 2.29621e-17 0.0368241 0
   vertex -0.00545242 0.0369431 0.5
   vertex -0.00545242 0.0369431 0
  endloop
 endfacet
 facet normal -0.0654029 -0.997859 -0
  outer loop
   vertex -0.00545242 0.0369431 0.5
   vertex -0.0108945 0.0372998 0.5
   vertex -0.00545242 0.0369431 0
  endloop
 endfacet
 facet normal -0.0654029 -0.997859 0
  outer loop
   vertex -0.00545242 0.0369431 0
   vertex -0.0108945 0.0372998 0.5
   vertex -0.0108945 0.0372998 0
  endloop
 endfacet
 facet normal -0.108867 -0.994056 -0
  outer loop
   vertex -0.0108945 0.0372998 0.5
   vertex -0.0163158 0.0378935 0.5
   vertex -0.0108945 0.0372998 0
  endloop
 endfacet
 facet normal -0.108867 -0.994056 0
  outer loop
   vertex -0.0108945 0.0372998 0
   vertex -0.0163158 0.0378935 0.5
   vertex -0.0163158 0.0378935 0
  endloop
 endfacet
 facet normal -0.152124 -0.988361 -0
  outer loop
   vertex -0.0163158 0.0378935 0.5
   vertex -0.021706 0.0387232 0.5
   vertex -0.0163158 0.0378935 0
  endloop
 endfacet
 facet normal -0.152124 -0.988361 0
  outer loop
   vertex -0.0163158 0.0378935 0
   vertex -0.021706 0.0387232 0.5
   vertex -0.021706 0.0387232 0
  endloop
 endfacet
 facet normal -0.19509 -0.980785 -0
  outer loop
   vertex -0.021706 0.0387232 0.5
   vertex -0.027055 0.0397871 0.5
   vertex -0.021706 0.0387232 0
  endloop
 endfacet
 facet normal -0.19509 -0.980785 0
  outer loop
   vertex -0.021706 0.0387232 0
   vertex -0.027055 0.0397871 0.5
   vertex -0.027055 0.0397871 0
  endloop
 endfacet
 facet normal -0.237686 -0.971342 -0
  outer loop
   vertex -0.027055 0.0397871 0.5
   vertex -0.0323524 0.0410834 0.5
   vertex -0.027055 0.0397871 0
  endloop
 endfacet
 facet normal -0.237686 -0.971342 0
  outer loop
   vertex -0.027055 0.0397871 0
   vertex -0.0323524 0.0410834 0.5
   vertex -0.0323524 0.0410834 0
  endloop
 endfacet
 facet normal -0.279829 -0.96005 -0
  outer loop
   vertex -0.0323524 0.0410834 0.5
   vertex -0.0375882 0.0426095 0.5
   vertex -0.0323524 0.0410834 0
  endloop
 endfacet
 facet normal -0.279829 -0.96005 0
  outer loop
   vertex -0.0323524 0.0410834 0
   vertex -0.0375882 0.0426095 0.5
   vertex -0.0375882 0.0426095 0
  endloop
 endfacet
 facet normal -0.321439 -0.94693 -0
  outer loop
   vertex -0.0375882 0.0426095 0.5
   vertex -0.0427525 0.0443626 0.5
   vertex -0.0375882 0.0426095 0
  endloop
 endfacet
 facet normal -0.321439 -0.94693 0
  outer loop
   vertex -0.0375882 0.0426095 0
   vertex -0.0427525 0.0443626 0.5
   vertex -0.0427525 0.0443626 0
  endloop
 endfacet
 facet normal -0.362439 -0.932008 -0
  outer loop
   vertex -0.0427525 0.0443626 0.5
   vertex -0.0478354 0.0463392 0.5
   vertex -0.0427525 0.0443626 0
  endloop
 endfacet
 facet normal -0.362439 -0.932008 0
  outer loop
   vertex -0.0427525 0.0443626 0
   vertex -0.0478354 0.0463392 0.5
   vertex -0.0478354 0.0463392 0
  endloop
 endfacet
 facet normal -0.402745 -0.915312 -0
  outer loop
   vertex -0.0478354 0.0463392 0.5
   vertex -0.0528273 0.0485357 0.5
   vertex -0.0478354 0.0463392 0
  endloop
 endfacet
 facet normal -0.402745 -0.915312 0
  outer loop
   vertex -0.0478354 0.0463392 0
   vertex -0.0528273 0.0485357 0.5
   vertex -0.0528273 0.0485357 0
  endloop
 endfacet
 facet normal -0.44229 -0.896872 -0
  outer loop
   vertex -0.0528273 0.0485357 0.5
   vertex -0.0577186 0.0509478 0.5
   vertex -0.0528273 0.0485357 0
  endloop
 endfacet
 facet normal -0.44229 -0.896872 0
  outer loop
   vertex -0.0528273 0.0485357 0
   vertex -0.0577186 0.0509478 0.5
   vertex -0.0577186 0.0509478 0
  endloop
 endfacet
 facet normal -0.480989 -0.876727 -0
  outer loop
   vertex -0.0577186 0.0509478 0.5
   vertex -0.0625 0.053571 0.5
   vertex -0.0577186 0.0509478 0
  endloop
 endfacet
 facet normal -0.480989 -0.876727 0
  outer loop
   vertex -0.0577186 0.0509478 0
   vertex -0.0625 0.053571 0.5
   vertex -0.0625 0.053571 0
  endloop
 endfacet
 facet normal -0.518773 -0.854912 -0
  outer loop
   vertex -0.0625 0.053571 0.5
   vertex -0.0671625 0.0564002 0.5
   vertex -0.0625 0.053571 0
  endloop
 endfacet
 facet normal -0.518773 -0.854912 0
  outer loop
   vertex -0.0625 0.053571 0
   vertex -0.0671625 0.0564002 0.5
   vertex -0.0671625 0.0564002 0
  endloop
 endfacet
 facet normal -0.55557 -0.83147 -0
  outer loop
   vertex -0.0671625 0.0564002 0.5
   vertex -0.0716971 0.0594301 0.5
   vertex -0.0671625 0.0564002 0
  endloop
 endfacet
 facet normal -0.55557 -0.83147 0
  outer loop
   vertex -0.0671625 0.0564002 0
   vertex -0.0716971 0.0594301 0.5
   vertex -0.0716971 0.0594301 0
  endloop
 endfacet
 facet normal -0.59131 -0.806444 -0
  outer loop
   vertex -0.0716971 0.0594301 0.5
   vertex -0.0760952 0.062655 0.5
   vertex -0.0716971 0.0594301 0
  endloop
 endfacet
 facet normal -0.59131 -0.806444 0
  outer loop
   vertex -0.0716971 0.0594301 0
   vertex -0.0760952 0.062655 0.5
   vertex -0.0760952 0.062655 0
  endloop
 endfacet
 facet normal -0.625923 -0.779885 -0
  outer loop
   vertex -0.0760952 0.062655 0.5
   vertex -0.0803485 0.0660686 0.5
   vertex -0.0760952 0.062655 0
  endloop
 endfacet
 facet normal -0.625923 -0.779885 0
  outer loop
   vertex -0.0760952 0.062655 0
   vertex -0.0803485 0.0660686 0.5
   vertex -0.0803485 0.0660686 0
  endloop
 endfacet
 facet normal -0.659346 -0.75184 -0
  outer loop
   vertex -0.0803485 0.0660686 0.5
   vertex -0.0844488 0.0696645 0.5
   vertex -0.0803485 0.0660686 0
  endloop
 endfacet
 facet normal -0.659346 -0.75184 0
  outer loop
   vertex -0.0803485 0.0660686 0
   vertex -0.0844488 0.0696645 0.5
   vertex -0.0844488 0.0696645 0
  endloop
 endfacet
 facet normal -0.691513 -0.722364 -0
  outer loop
   vertex -0.0844488 0.0696645 0.5
   vertex -0.0883883 0.0734358 0.5
   vertex -0.0844488 0.0696645 0
  endloop
 endfacet
 facet normal -0.691513 -0.722364 0
  outer loop
   vertex -0.0844488 0.0696645 0
   vertex -0.0883883 0.0734358 0.5
   vertex -0.0883883 0.0734358 0
  endloop
 endfacet
 facet normal -0.722364 -0.691513 -0
  outer loop
   vertex -0.0883883 0.0734358 0.5
   vertex -0.0921597 0.0773754 0.5
   vertex -0.0883883 0.0734358 0
  endloop
 endfacet
 facet normal -0.722364 -0.691513 0
  outer loop
   vertex -0.0883883 0.0734358 0
   vertex -0.0921597 0.0773754 0.5
   vertex -0.0921597 0.0773754 0
  endloop
 endfacet
 facet normal -0.75184 -0.659346 -0
  outer loop
   vertex -0.0921597 0.0773754 0.5
   vertex -0.0957556 0.0814757 0.5
   vertex -0.0921597 0.0773754 0
  endloop
 endfacet
 facet normal -0.75184 -0.659346 0
  outer loop
   vertex -0.0921597 0.0773754 0
   vertex -0.0957556 0.0814757 0.5
   vertex -0.0957556 0.0814757 0
  endloop
 endfacet
 facet normal -0.779885 -0.625923 -0
  outer loop
   vertex -0.0957556 0.0814757 0.5
   vertex -0.0991692 0.085729 0.5
   vertex -0.0957556 0.0814757 0
  endloop
 endfacet
 facet normal -0.779885 -0.625923 0
  outer loop
   vertex -0.0957556 0.0814757 0
   vertex -0.0991692 0.085729 0.5
   vertex -0.0991692 0.085729 0
  endloop
 endfacet
 facet normal -0.806444 -0.59131 -0
  outer loop
   vertex -0.0991692 0.085729 0.5
   vertex -0.102394 0.0901271 0.5
   vertex -0.0991692 0.085729 0
  endloop
 endfacet
 facet normal -0.806444 -0.59131 0
  outer loop
   vertex -0.0991692 0.085729 0
   vertex -0.102394 0.0901271 0.5
   vertex -0.102394 0.0901271 0
  endloop
 endfacet
 facet normal -0.83147 -0.55557 -0
  outer loop
   vertex -0.102394 0.0901271 0.5
   vertex -0.105424 0.0946617 0.5
   vertex -0.102394 0.0901271 0
  endloop
 endfacet
 facet normal -0.83147 -0.55557 0
  outer loop
   vertex -0.102394 0.0901271 0
   vertex -0.105424 0.0946617 0.5
   vertex -0.105424 0.0946617 0
  endloop
 endfacet
 facet normal -0.854912 -0.518773 -0
  outer loop
   vertex -0.105424 0.0946617 0.5
   vertex -0.108253 0.0993241 0.5
   vertex -0.105424 0.0946617 0
  endloop
 endfacet
 facet normal -0.854912 -0.518773 0
  outer loop
   vertex -0.105424 0.0946617 0
   vertex -0.108253 0.0993241 0.5
   vertex -0.108253 0.0993241 0
  endloop
 endfacet
 facet normal -0.876727 -0.480989 -0
  outer loop
   vertex -0.108253 0.0993241 0.5
   vertex -0.110876 0.104106 0.5
   vertex -0.108253 0.0993241 0
  endloop
 endfacet
 facet normal -0.876727 -0.480989 0
  outer loop
   vertex -0.108253 0.0993241 0
   vertex -0.110876 0.104106 0.5
   vertex -0.110876 0.104106 0
  endloop
 endfacet
 facet normal -0.896872 -0.44229 -0
  outer loop
   vertex -0.110876 0.104106 0.5
   vertex -0.113288 0.108997 0.5
   vertex -0.110876 0.104106 0
  endloop
 endfacet
 facet normal -0.896872 -0.44229 0
  outer loop
   vertex -0.110876 0.104106 0
   vertex -0.113288 0.108997 0.5
   vertex -0.113288 0.108997 0
  endloop
 endfacet
 facet normal -0.915312 -0.402745 -0
  outer loop
   vertex -0.113288 0.108997 0.5
   vertex -0.115485 0.113989 0.5
   vertex -0.113288 0.108997 0
  endloop
 endfacet
 facet normal -0.915312 -0.402745 0
  outer loop
   vertex -0.113288 0.108997 0
   vertex -0.115485 0.113989 0.5
   vertex -0.115485 0.113989 0
  endloop
 endfacet
 facet normal -0.932008 -0.362439 -0
  outer loop
   vertex -0.115485 0.113989 0.5
   vertex -0.117462 0.119072 0.5
   vertex -0.115485 0.113989 0
  endloop
 endfacet
 facet normal -0.932008 -0.362439 0
  outer loop
   vertex -0.115485 0.113989 0
   vertex -0.117462 0.119072 0.5
   vertex -0.117462 0.119072 0
  endloop
 endfacet
 facet normal -0.94693 -0.321439 -0
  outer loop
   vertex -0.117462 0.119072 0.5
   vertex -0.119215 0.124236 0.5
   vertex -0.117462 0.119072 0
  endloop
 endfacet
 facet normal -0.94693 -0.321439 0
  outer loop
   vertex -0.117462 0.119072 0
   vertex -0.119215 0.124236 0.5
   vertex -0.119215 0.124236 0
  endloop
 endfacet
 facet normal -0.96005 -0.279829 -0
  outer loop
   vertex -0.119215 0.124236 0.5
   vertex -0.120741 0.129472 0.5
   vertex -0.119215 0.124236 0
  endloop
 endfacet
 facet normal -0.96005 -0.279829 0
  outer loop
   vertex -0.119215 0.124236 0
   vertex -0.120741 0.129472 0.5
   vertex -0.120741 0.129472 0
  endloop
 endfacet
 facet normal -0.971342 -0.237686 -0
  outer loop
   vertex -0.120741 0.129472 0.5
   vertex -0.122037 0.134769 0.5
   vertex -0.120741 0.129472 0
  endloop
 endfacet
 facet normal -0.971342 -0.237686 0
  outer loop
   vertex -0.120741 0.129472 0
   vertex -0.122037 0.134769 0.5
   vertex -0.122037 0.134769 0
  endloop
 endfacet
 facet normal -0.980785 -0.19509 -0
  outer loop
   vertex -0.122037 0.134769 0.5
   vertex -0.123101 0.140118 0.5
   vertex -0.122037 0.134769 0
  endloop
 endfacet
 facet normal -0.980785 -0.19509 0
  outer loop
   vertex -0.122037 0.134769 0
   vertex -0.123101 0.140118 0.5
   vertex -0.123101 0.140118 0
  endloop
 endfacet
 facet normal -0.988361 -0.152124 -0
  outer loop
   vertex -0.123101 0.140118 0.5
   vertex -0.123931 0.145508 0.5
   vertex -0.123101 0.140118 0
  endloop
 endfacet
 facet normal -0.988361 -0.152124 0
  outer loop
   vertex -0.123101 0.140118 0
   vertex -0.123931 0.145508 0.5
   vertex -0.123931 0.145508 0
  endloop
 endfacet
 facet normal -0.994056 -0.108867 -0
  outer loop
   vertex -0.123931 0.145508 0.5
   vertex -0.124524 0.15093 0.5
   vertex -0.123931 0.145508 0
  endloop
 endfacet
 facet normal -0.994056 -0.108867 0
  outer loop
   vertex -0.123931 0.145508 0
   vertex -0.124524 0.15093 0.5
   vertex -0.124524 0.15093 0
  endloop
 endfacet
 facet normal -0.997859 -0.0654029 -0
  outer loop
   vertex -0.124524 0.15093 0.5
   vertex -0.124881 0.156372 0.5
   vertex -0.124524 0.15093 0
  endloop
 endfacet
 facet normal -0.997859 -0.0654029 0
  outer loop
   vertex -0.124524 0.15093 0
   vertex -0.124881 0.156372 0.5
   vertex -0.124881 0.156372 0
  endloop
 endfacet
 facet normal -0.999762 -0.0218146 -0
  outer loop
   vertex -0.124881 0.156372 0.5
   vertex -0.125 0.161824 0.5
   vertex -0.124881 0.156372 0
  endloop
 endfacet
 facet normal -0.999762 -0.0218146 0
  outer loop
   vertex -0.124881 0.156372 0
   vertex -0.125 0.161824 0.5
   vertex -0.125 0.161824 0
  endloop
 endfacet
 facet normal -0.999762 0.0218146 0
  outer loop
   vertex -0.125 0.161824 0.5
   vertex -0.124881 0.167277 0.5
   vertex -0.125 0.161824 0
  endloop
 endfacet
 facet normal 0 -0 1
  outer loop
   vertex 0.124524 0.15093 0.5
   vertex 0.124881 0.156372 0.5
   vertex 0 0.161824 0.5
  endloop
 endfacet
 facet normal 0 -0 1
  outer loop
   vertex 0.124881 0.156372 0.5
   vertex 0.125 0.161824 0.5
   vertex 0 0.161824 0.5
  endloop
 endfacet
 facet normal 0 0 1
  outer loop
   vertex 0 0.161824 0.5
   vertex 0.125 0.161824 0.5
   vertex 0.124881 0.167277 0.5
  endloop
 endfacet
 facet normal 0 -0 1
  outer loop
   vertex 0.122037 0.134769 0.5
   vertex 0.123101 0.140118 0.5
   vertex 0 0.161824 0.5
  endloop
 endfacet
 facet normal 0 -0 1
  outer loop
   vertex 0.123101 0.140118 0.5
   vertex 0.123931 0.145508 0.5
   vertex 0 0.161824 0.5
  endloop
 endfacet
 facet normal 0 0 1
  outer loop
   vertex 0 0.161824 0.5
   vertex 0.123931 0.145508 0.5
   vertex 0.124524 0.15093 0.5
  endloop
 endfacet
 facet normal 0 -0 1
  outer loop
   vertex 0.117462 0.119072 0.5
   vertex 0.119215 0.124236 0.5
   vertex 0 0.161824 0.5
  endloop
 endfacet
 facet normal 0 -0 1
  outer loop
   vertex 0.119215 0.124236 0.5
   vertex 0.120741 0.129472 0.5
   vertex 0 0.161824 0.5
  endloop
 endfacet
 facet normal 0 0 1
  outer loop
   vertex 0 0.161824 0.5
   vertex 0.120741 0.129472 0.5
   vertex 0.122037 0.134769 0.5
  endloop
 endfacet
 facet normal 0 -0 1
  outer loop
   vertex 0.110876 0.104106 0.5
   vertex 0.113288 0.108997 0.5
   vertex 0 0.161824 0.5
  endloop
 endfacet
 facet normal 0 -0 1
  outer loop
   vertex 0.113288 0.108997 0.5
   vertex 0.115485 0.113989 0.5
   vertex 0 0.161824 0.5
  endloop
 endfacet
 facet normal 0 0 1
  outer loop
   vertex 0 0.161824 0.5
   vertex 0.115485 0.113989 0.5
   vertex 0.117462 0.119072 0.5
  endloop
 endfacet
 facet normal 0 -0 1
  outer loop
   vertex 0.102394 0.0901271 0.5
   vertex 0.105424 0.0946617 0.5
   vertex 0 0.161824 0.5
  endloop
 endfacet
 facet normal 0 -0 1
  outer loop
   vertex 0.105424 0.0946617 0.5
   vertex 0.108253 0.0993241 0.5
   vertex 0 0.161824 0.5
  endloop
 endfacet
 facet normal 0 0 1
  outer loop
   vertex 0 0.161824 0.5
   vertex 0.108253 0.0993241 0.5
   vertex 0.110876 0.104106 0.5
  endloop
 endfacet
 facet normal 0 -0 1
  outer loop
   vertex 0.0921597 0.0773754 0.5
   vertex 0.0957556 0.0814757 0.5
   vertex 0 0.161824 0.5
  endloop
 endfacet
 facet normal 0 -0 1
  outer loop
   vertex 0.0957556 0.0814757 0.5
   vertex 0.0991692 0.085729 0.5
   vertex 0 0.161824 0.5
  endloop
 endfacet
 facet normal 0 0 1
  outer loop
   vertex 0 0.161824 0.5
   vertex 0.0991692 0.085729 0.5
   vertex 0.102394 0.0901271 0.5
  endloop
 endfacet
 facet normal 0 -0 1
  outer loop
   vertex 0.0803485 0.0660686 0.5
   vertex 0.0844488 0.0696645 0.5
   vertex 0 0.161824 0.5
  endloop
 endfacet
 facet normal 0 -0 1
  outer loop
   vertex 0.0844488 0.0696645 0.5
   vertex 0.0883883 0.0734358 0.5
   vertex 0 0.161824 0.5
  endloop
 endfacet
 facet normal 0 0 1
  outer loop
   vertex 0 0.161824 0.5
   vertex 0.0883883 0.0734358 0.5
   vertex 0.0921597 0.0773754 0.5
  endloop
 endfacet
 facet normal 0 -0 1
  outer loop
   vertex 0.0671625 0.0564002 0.5
   vertex 0.0716971 0.0594301 0.5
   vertex 0 0.161824 0.5
  endloop
 endfacet
 facet normal 0 -0 1
  outer loop
   vertex 0.0716971 0.0594301 0.5
   vertex 0.0760952 0.062655 0.5
   vertex 0 0.161824 0.5
  endloop
 endfacet
 facet normal 0 0 1
  outer loop
   vertex 0 0.161824 0.5
   vertex 0.0760952 0.062655 0.5
   vertex 0.0803485 0.0660686 0.5
  endloop
 endfacet
 facet normal 0 -0 1
  outer loop
   vertex 0.0528273 0.0485357 0.5
   vertex 0.0577186 0.0509478 0.5
   vertex 0 0.161824 0.5
  endloop
 endfacet
 facet normal 0 -0 1
  outer loop
   vertex 0.0577186 0.0509478 0.5
   vertex 0.0625 0.053571 0.5
   vertex 0 0.161824 0.5
  endloop
 endfacet
 facet normal 0 0 1
  outer loop
   vertex 0 0.161824 0.5
   vertex 0.0625 0.053571 0.5
   vertex 0.0671625 0.0564002 0.5
  endloop
 endfacet
 facet normal 0 -0 1
  outer loop
   vertex 0.0375882 0.0426095 0.5
   vertex 0.0427525 0.0443626 0.5
   vertex 0 0.161824 0.5
  endloop
 endfacet
 facet normal 0 -0 1
  outer loop
   vertex 0.0427525 0.0443626 0.5
   vertex 0.0478354 0.0463392 0.5
   vertex 0 0.161824 0.5
  endloop
 endfacet
 facet normal 0 0 1
  outer loop
   vertex 0 0.161824 0.5
   vertex 0.0478354 0.0463392 0.5
   vertex 0.0528273 0.0485357 0.5
  endloop
 endfacet
 facet normal 0 -0 1
  outer loop
   vertex 0.021706 0.0387232 0.5
   vertex 0.027055 0.0397871 0.5
   vertex 0 0.161824 0.5
  endloop
 endfacet
 facet normal 0 -0 1
  outer loop
   vertex 0.027055 0.0397871 0.5
   vertex 0.0323524 0.0410834 0.5
   vertex 0 0.161824 0.5
  endloop
 endfacet
 facet normal 0 0 1
  outer loop
   vertex 0 0.161824 0.5
   vertex 0.0323524 0.0410834 0.5
   vertex 0.0375882 0.0426095 0.5
  endloop
 endfacet
 facet normal 0 -0 1
  outer loop
   vertex 0.00545242 0.0369431 0.5
   vertex 0.0108945 0.0372998 0.5
   vertex 0 0.161824 0.5
  endloop
 endfacet
 facet normal 0 -0 1
  outer loop
   vertex 0.0108945 0.0372998 0.5
   vertex 0.0163158 0.0378935 0.5
   vertex 0 0.161824 0.5
  endloop
 endfacet
 facet normal 0 0 1
  outer loop
   vertex 0 0.161824 0.5
   vertex 0.0163158 0.0378935 0.5
   vertex 0.021706 0.0387232 0.5
  endloop
 endfacet
 facet normal -0 0 1
  outer loop
   vertex -0.0108945 0.0372998 0.5
   vertex -0.00545242 0.0369431 0.5
   vertex 0 0.161824 0.5
  endloop
 endfacet
 facet normal -0 0 1
  outer loop
   vertex -0.00545242 0.0369431 0.5
   vertex 2.29621e-17 0.0368241 0.5
   vertex 0 0.161824 0.5
  endloop
 endfacet
 facet normal 0 0 1
  outer loop
   vertex 0 0.161824 0.5
   vertex 2.29621e-17 0.0368241 0.5
   vertex 0.00545242 0.0369431 0.5
  endloop
 endfacet
 facet normal -0 0 1
  outer loop
   vertex -0.027055 0.0397871 0.5
   vertex -0.021706 0.0387232 0.5
   vertex 0 0.161824 0.5
  endloop
 endfacet
 facet normal -0 0 1
  outer loop
   vertex -0.021706 0.0387232 0.5
   vertex -0.0163158 0.0378935 0.5
   vertex 0 0.161824 0.5
  endloop
 endfacet
 facet normal 0 0 1
  outer loop
   vertex 0 0.161824 0.5
   vertex -0.0163158 0.0378935 0.5
   vertex -0.0108945 0.0372998 0.5
  endloop
 endfacet
 facet normal -0 0 1
  outer loop
   vertex -0.0427525 0.0443626 0.5
   vertex -0.0375882 0.0426095 0.5
   vertex 0 0.161824 0.5
  endloop
 endfacet
 facet normal -0 0 1
  outer loop
   vertex -0.0375882 0.0426095 0.5
   vertex -0.0323524 0.0410834 0.5
   vertex 0 0.161824 0.5
  endloop
 endfacet
 facet normal 0 0 1
  outer loop
   vertex 0 0.161824 0.5
   vertex -0.0323524 0.0410834 0.5
   vertex -0.027055 0.0397871 0.5
  endloop
 endfacet
 facet normal -0 0 1
  outer loop
   vertex -0.0577186 0.0509478 0.5
   vertex -0.0528273 0.0485357 0.5
   vertex 0 0.161824 0.5
  endloop
 endfacet
 facet normal -0 0 1
  outer loop
   vertex -0.0528273 0.0485357 0.5
   vertex -0.0478354 0.0463392 0.5
   vertex 0 0.161824 0.5
  endloop
 endfacet
 facet normal 0 0 1
  outer loop
   vertex 0 0.161824 0.5
   vertex -0.0478354 0.0463392 0.5
   vertex -0.0427525 0.0443626 0.5
  endloop
 endfacet
 facet normal -0 0 1
  outer loop
   vertex -0.0716971 0.0594301 0.5
   vertex -0.0671625 0.0564002 0.5
   vertex 0 0.161824 0.5
  endloop
 endfacet
 facet normal -0 0 1
  outer loop
   vertex -0.0671625 0.0564002 0.5
   vertex -0.0625 0.053571 0.5
   vertex 0 0.161824 0.5
  endloop
 endfacet
 facet normal 0 0 1
  outer loop
   vertex 0 0.161824 0.5
   vertex -0.0625 0.053571 0.5
   vertex -0.0577186 0.0509478 0.5
  endloop
 endfacet
 facet normal -0 0 1
  outer loop
   vertex -0.0844488 0.0696645 0.5
   vertex -0.0803485 0.0660686 0.5
   vertex 0 0.161824 0.5
  endloop
 endfacet
 facet normal -0 0 1
  outer loop
   vertex -0.0803485 0.0660686 0.5
   vertex -0.0760952 0.062655 0.5
   vertex 0 0.161824 0.5
  endloop
 endfacet
 facet normal 0 0 1
  outer loop
   vertex 0 0.161824 0.5
   vertex -0.0760952 0.062655 0.5
   vertex -0.0716971 0.0594301 0.5
  endloop
 endfacet
 facet normal -0 0 1
  outer loop
   vertex -0.0957556 0.0814757 0.5
   vertex -0.0921597 0.0773754 0.5
   vertex 0 0.161824 0.5
  endloop
 endfacet
 facet normal -0 0 1
  outer loop
   vertex -0.0921597 0.0773754 0.5
   vertex -0.0883883 0.0734358 0.5
   vertex 0 0.161824 0.5
  endloop
 endfacet
 facet normal 0 0 1
  outer loop
   vertex 0 0.161824 0.5
   vertex -0.0883883 0.0734358 0.5
   vertex -0.0844488 0.0696645 0.5
  endloop
 endfacet
 facet normal -0 0 1
  outer loop
   vertex -0.105424 0.0946617 0.5
   vertex -0.102394 0.0901271 0.5
   vertex 0 0.161824 0.5
  endloop
 endfacet
 facet normal -0 0 1
  outer loop
   vertex -0.102394 0.0901271 0.5
   vertex -0.0991692 0.085729 0.5
   vertex 0 0.161824 0.5
  endloop
 endfacet
 facet normal 0 0 1
  outer loop
   vertex 0 0.161824 0.5
   vertex -0.0991692 0.085729 0.5
   vertex -0.0957556 0.0814757 0.5
  endloop
 endfacet
 facet normal -0 0 1
  outer loop
   vertex -0.113288 0.108997 0.5
   vertex -0.110876 0.104106 0.5
   vertex 0 0.161824 0.5
  endloop
 endfacet
 facet normal -0 0 1
  outer loop
   vertex -0.110876 0.104106 0.5
   vertex -0.108253 0.0993241 0.5
   vertex 0 0.161824 0.5
  endloop
 endfacet
 facet normal 0 0 1
  outer loop
   vertex 0 0.161824 0.5
   vertex -0.108253 0.0993241 0.5
   vertex -0.105424 0.0946617 0.5
  endloop
 endfacet
 facet normal -0 0 1
  outer loop
   vertex -0.119215 0.124236 0.5
   vertex -0.117462 0.119072 0.5
   vertex 0 0.161824 0.5
  endloop
 endfacet
 facet normal -0 0 1
  outer loop
   vertex -0.117462 0.119072 0.5
   vertex -0.115485 0.113989 0.5
   vertex 0 0.161824 0.5
  endloop
 endfacet
 facet normal 0 0 1
  outer loop
   vertex 0 0.161824 0.5
   vertex -0.115485 0.113989 0.5
   vertex -0.113288 0.108997 0.5
  endloop
 endfacet
 facet normal -0 0 1
  outer loop
   vertex -0.123101 0.140118 0.5
   vertex -0.122037 0.134769 0.5
   vertex 0 0.161824 0.5
  endloop
 endfacet
 facet normal -0 0 1
  outer loop
   vertex -0.122037 0.134769 0.5
   vertex -0.120741 0.129472 0.5
   vertex 0 0.161824 0.5
  endloop
 endfacet
 facet normal 0 0 1
  outer loop
   vertex 0 0.161824 0.5
   vertex -0.120741 0.129472 0.5
   vertex -0.119215 0.124236 0.5
  endloop
 endfacet
 facet normal -0 0 1
  outer loop
   vertex -0.124881 0.156372 0.5
   vertex -0.124524 0.15093 0.5
   vertex 0 0.161824 0.5
  endloop
 endfacet
 facet normal -0 0 1
  outer loop
   vertex -0.124524 0.15093 0.5
   vertex -0.123931 0.145508 0.5
   vertex 0 0.161824 0.5
  endloop
 endfacet
 facet normal 0 0 1
  outer loop
   vertex 0 0.161824 0.5
   vertex -0.123931 0.145508 0.5
   vertex -0.123101 0.140118 0.5
  endloop
 endfacet
 facet normal 0 0 1
  outer loop
   vertex -0.124524 0.172719 0.5
   vertex -0.124881 0.167277 0.5
   vertex 0 0.161824 0.5
  endloop
 endfacet
 facet normal 0 0 1
  outer loop
   vertex -0.124881 0.167277 0.5
   vertex -0.125 0.161824 0.5
   vertex 0 0.161824 0.5
  endloop
 endfacet
 facet normal 0 0 1
  outer loop
   vertex 0 0.161824 0.5
   vertex -0.125 0.161824 0.5
   vertex -0.124881 0.156372 0.5
  endloop
 endfacet
 facet normal 0 0 1
  outer loop
   vertex -0.122037 0.188879 0.5
   vertex -0.123101 0.18353 0.5
   vertex 0 0.161824 0.5
  endloop
 endfacet
 facet normal 0 0 1
  outer loop
   vertex -0.123101 0.18353 0.5
   vertex -0.123931 0.17814 0.5
   vertex 0 0.161824 0.5
  endloop
 endfacet
 facet normal 0 0 1
  outer loop
   vertex 0 0.161824 0.5
   vertex -0.123931 0.17814 0.5
   vertex -0.124524 0.172719 0.5
  endloop
 endfacet
 facet normal 0 0 1
  outer loop
   vertex -0.117462 0.204577 0.5
   vertex -0.119215 0.199412 0.5
   vertex 0 0.161824 0.5
  endloop
 endfacet
 facet normal 0 0 1
  outer loop
   vertex -0.119215 0.199412 0.5
   vertex -0.120741 0.194177 0.5
   vertex 0 0.161824 0.5
  endloop
 endfacet
 facet normal 0 0 1
  outer loop
   vertex 0 0.161824 0.5
   vertex -0.120741 0.194177 0.5
   vertex -0.122037 0.188879 0.5
  endloop
 endfacet
 facet normal 0 0 1
  outer loop
   vertex -0.110876 0.219543 0.5
   vertex -0.113288 0.214651 0.5
   vertex 0 0.161824 0.5
  endloop
 endfacet
 facet normal 0 0 1
  outer loop
   vertex -0.113288 0.214651 0.5
   vertex -0.115485 0.20966 0.5
   vertex 0 0.161824 0.5
  endloop
 endfacet
 facet normal 0 0 1
  outer loop
   vertex 0 0.161824 0.5
   vertex -0.115485 0.20966 0.5
   vertex -0.117462 0.204577 0.5
  endloop
 endfacet
 facet normal 0 0 1
  outer loop
   vertex -0.102394 0.233521 0.5
   vertex -0.105424 0.228987 0.5
   vertex 0 0.161824 0.5
  endloop
 endfacet
 facet normal 0 0 1
  outer loop
   vertex -0.105424 0.228987 0.5
   vertex -0.108253 0.224324 0.5
   vertex 0 0.161824 0.5
  endloop
 endfacet
 facet normal 0 0 1
  outer loop
   vertex 0 0.161824 0.5
   vertex -0.108253 0.224324 0.5
   vertex -0.110876 0.219543 0.5
  endloop
 endfacet
 facet normal 0 0 1
  outer loop
   vertex -0.0921597 0.246273 0.5
   vertex -0.0957556 0.242173 0.5
   vertex 0 0.161824 0.5
  endloop
 endfacet
 facet normal 0 0 1
  outer loop
   vertex -0.0957556 0.242173 0.5
   vertex -0.0991692 0.237919 0.5
   vertex 0 0.161824 0.5
  endloop
 endfacet
 facet normal 0 0 1
  outer loop
   vertex 0 0.161824 0.5
   vertex -0.0991692 0.237919 0.5
   vertex -0.102394 0.233521 0.5
  endloop
 endfacet
 facet normal 0 0 1
  outer loop
   vertex -0.0803485 0.25758 0.5
   vertex -0.0844488 0.253984 0.5
   vertex 0 0.161824 0.5
  endloop
 endfacet
 facet normal 0 0 1
  outer loop
   vertex -0.0844488 0.253984 0.5
   vertex -0.0883883 0.250212 0.5
   vertex 0 0.161824 0.5
  endloop
 endfacet
 facet normal 0 0 1
  outer loop
   vertex 0 0.161824 0.5
   vertex -0.0883883 0.250212 0.5
   vertex -0.0921597 0.246273 0.5
  endloop
 endfacet
 facet normal 0 0 1
  outer loop
   vertex -0.0671625 0.267248 0.5
   vertex -0.0716971 0.264218 0.5
   vertex 0 0.161824 0.5
  endloop
 endfacet
 facet normal 0 0 1
  outer loop
   vertex -0.0716971 0.264218 0.5
   vertex -0.0760952 0.260993 0.5
   vertex 0 0.161824 0.5
  endloop
 endfacet
 facet normal 0 0 1
  outer loop
   vertex 0 0.161824 0.5
   vertex -0.0760952 0.260993 0.5
   vertex -0.0803485 0.25758 0.5
  endloop
 endfacet
 facet normal 0 0 1
  outer loop
   vertex -0.0528273 0.275113 0.5
   vertex -0.0577186 0.2727 0.5
   vertex 0 0.161824 0.5
  endloop
 endfacet
 facet normal 0 0 1
  outer loop
   vertex -0.0577186 0.2727 0.5
   vertex -0.0625 0.270077 0.5
   vertex 0 0.161824 0.5
  endloop
 endfacet
 facet normal 0 0 1
  outer loop
   vertex 0 0.161824 0.5
   vertex -0.0625 0.270077 0.5
   vertex -0.0671625 0.267248 0.5
  endloop
 endfacet
 facet normal 0 0 1
  outer loop
   vertex -0.0375882 0.281039 0.5
   vertex -0.0427525 0.279286 0.5
   vertex 0 0.161824 0.5
  endloop
 endfacet
 facet normal 0 0 1
  outer loop
   vertex -0.0427525 0.279286 0.5
   vertex -0.0478354 0.277309 0.5
   vertex 0 0.161824 0.5
  endloop
 endfacet
 facet normal 0 0 1
  outer loop
   vertex 0 0.161824 0.5
   vertex -0.0478354 0.277309 0.5
   vertex -0.0528273 0.275113 0.5
  endloop
 endfacet
 facet normal 0 0 1
  outer loop
   vertex -0.021706 0.284925 0.5
   vertex -0.027055 0.283861 0.5
   vertex 0 0.161824 0.5
  endloop
 endfacet
 facet normal 0 0 1
  outer loop
   vertex -0.027055 0.283861 0.5
   vertex -0.0323524 0.282565 0.5
   vertex 0 0.161824 0.5
  endloop
 endfacet
 facet normal 0 0 1
  outer loop
   vertex 0 0.161824 0.5
   vertex -0.0323524 0.282565 0.5
   vertex -0.0375882 0.281039 0.5
  endloop
 endfacet
 facet normal 0 0 1
  outer loop
   vertex -0.00545242 0.286705 0.5
   vertex -0.0108945 0.286348 0.5
   vertex 0 0.161824 0.5
  endloop
 endfacet
 facet normal 0 0 1
  outer loop
   vertex -0.0108945 0.286348 0.5
   vertex -0.0163158 0.285755 0.5
   vertex 0 0.161824 0.5
  endloop
 endfacet
 facet normal 0 0 1
  outer loop
   vertex 0 0.161824 0.5
   vertex -0.0163158 0.285755 0.5
   vertex -0.021706 0.284925 0.5
  endloop
 endfacet
 facet normal 0 0 1
  outer loop
   vertex 0.0108945 0.286348 0.5
   vertex 0.00545242 0.286705 0.5
   vertex 0 0.161824 0.5
  endloop
 endfacet
 facet normal 0 0 1
  outer loop
   vertex 0.00545242 0.286705 0.5
   vertex -7.65404e-18 0.286824 0.5
   vertex 0 0.161824 0.5
  endloop
 endfacet
 facet normal 0 0 1
  outer loop
   vertex 0 0.161824 0.5
   vertex -7.65404e-18 0.286824 0.5
   vertex -0.00545242 0.286705 0.5
  endloop
 endfacet
 facet normal 0 0 1
  outer loop
   vertex 0.027055 0.283861 0.5
   vertex 0.021706 0.284925 0.5
   vertex 0 0.161824 0.5
  endloop
 endfacet
 facet normal 0 0 1
  outer loop
   vertex 0.021706 0.284925 0.5
   vertex 0.0163158 0.285755 0.5
   vertex 0 0.161824 0.5
  endloop
 endfacet
 facet normal 0 0 1
  outer loop
   vertex 0 0.161824 0.5
   vertex 0.0163158 0.285755 0.5
   vertex 0.0108945 0.286348 0.5
  endloop
 endfacet
 facet normal 0 0 1
  outer loop
   vertex 0.0427525 0.279286 0.5
   vertex 0.0375882 0.281039 0.5
   vertex 0 0.161824 0.5
  endloop
 endfacet
 facet normal 0 0 1
  outer loop
   vertex 0.0375882 0.281039 0.5
   vertex 0.0323524 0.282565 0.5
   vertex 0 0.161824 0.5
  endloop
 endfacet
 facet normal 0 0 1
  outer loop
   vertex 0 0.161824 0.5
   vertex 0.0323524 0.282565 0.5
   vertex 0.027055 0.283861 0.5
  endloop
 endfacet
 facet normal 0 0 1
  outer loop
   vertex 0.0577186 0.2727 0.5
   vertex 0.0528273 0.275113 0.5
   vertex 0 0.161824 0.5
  endloop
 endfacet
 facet normal 0 0 1
  outer loop
   vertex 0.0528273 0.275113 0.5
   vertex 0.0478354 0.277309 0.5
   vertex 0 0.161824 0.5
  endloop
 endfacet
 facet normal 0 0 1
  outer loop
   vertex 0 0.161824 0.5
   vertex 0.0478354 0.277309 0.5
   vertex 0.0427525 0.279286 0.5
  endloop
 endfacet
 facet normal 0 0 1
  outer loop
   vertex 0.0716971 0.264218 0.5
   vertex 0.0671625 0.267248 0.5
   vertex 0 0.161824 0.5
  endloop
 endfacet
 facet normal 0 0 1
  outer loop
   vertex 0.0671625 0.267248 0.5
   vertex 0.0625 0.270077 0.5
   vertex 0 0.161824 0.5
  endloop
 endfacet
 facet normal 0 0 1
  outer loop
   vertex 0 0.161824 0.5
   vertex 0.0625 0.270077 0.5
   vertex 0.0577186 0.2727 0.5
  endloop
 endfacet
 facet normal 0 0 1
  outer loop
   vertex 0.0844488 0.253984 0.5
   vertex 0.0803485 0.25758 0.5
   vertex 0 0.161824 0.5
  endloop
 endfacet
 facet normal 0 0 1
  outer loop
   vertex 0.0803485 0.25758 0.5
   vertex 0.0760952 0.260993 0.5
   vertex 0 0.161824 0.5
  endloop
 endfacet
 facet normal 0 0 1
  outer loop
   vertex 0 0.161824 0.5
   vertex 0.0760952 0.260993 0.5
   vertex 0.0716971 0.264218 0.5
  endloop
 endfacet
 facet normal 0 0 1
  outer loop
   vertex 0.0957556 0.242173 0.5
   vertex 0.0921597 0.246273 0.5
   vertex 0 0.161824 0.5
  endloop
 endfacet
 facet normal 0 0 1
  outer loop
   vertex 0.0921597 0.246273 0.5
   vertex 0.0883883 0.250212 0.5
   vertex 0 0.161824 0.5
  endloop
 endfacet
 facet normal 0 0 1
  outer loop
   vertex 0 0.161824 0.5
   vertex 0.0883883 0.250212 0.5
   vertex 0.0844488 0.253984 0.5
  endloop
 endfacet
 facet normal 0 0 1
  outer loop
   vertex 0.105424 0.228987 0.5
   vertex 0.102394 0.233521 0.5
   vertex 0 0.161824 0.5
  endloop
 endfacet
 facet normal 0 0 1
  outer loop
   vertex 0.102394 0.233521 0.5
   vertex 0.0991692 0.237919 0.5
   vertex 0 0.161824 0.5
  endloop
 endfacet
 facet normal 0 0 1
  outer loop
   vertex 0 0.161824 0.5
   vertex 0.0991692 0.237919 0.5
   vertex 0.0957556 0.242173 0.5
  endloop
 endfacet
 facet normal 0 0 1
  outer loop
   vertex 0.113288 0.214651 0.5
   vertex 0.110876 0.219543 0.5
   vertex 0 0.161824 0.5
  endloop
 endfacet
 facet normal 0 0 1
  outer loop
   vertex 0.110876 0.219543 0.5
   vertex 0.108253 0.224324 0.5
   vertex 0 0.161824 0.5
  endloop
 endfacet
 facet normal 0 0 1
  outer loop
   vertex 0 0.161824 0.5
   vertex 0.108253 0.224324 0.5
   vertex 0.105424 0.228987 0.5
  endloop
 endfacet
 facet normal 0 0 1
  outer loop
   vertex 0.119215 0.199412 0.5
   vertex 0.117462 0.204577 0.5
   vertex 0 0.161824 0.5
  endloop
 endfacet
 facet normal 0 0 1
  outer loop
   vertex 0.117462 0.204577 0.5
   vertex 0.115485 0.20966 0.5
   vertex 0 0.161824 0.5
  endloop
 endfacet
 facet normal 0 0 1
  outer loop
   vertex 0 0.161824 0.5
   vertex 0.115485 0.20966 0.5
   vertex 0.113288 0.214651 0.5
  endloop
 endfacet
 facet normal 0 0 1
  outer loop
   vertex 0.123101 0.18353 0.5
   vertex 0.122037 0.188879 0.5
   vertex 0 0.161824 0.5
  endloop
 endfacet
 facet normal 0 0 1
  outer loop
   vertex 0.122037 0.188879 0.5
   vertex 0.120741 0.194177 0.5
   vertex 0 0.161824 0.5
  endloop
 endfacet
 facet normal 0 0 1
  outer loop
   vertex 0 0.161824 0.5
   vertex 0.120741 0.194177 0.5
   vertex 0.119215 0.199412 0.5
  endloop
 endfacet
 facet normal 0 0 1
  outer loop
   vertex 0.124881 0.167277 0.5
   vertex 0.124524 0.172719 0.5
   vertex 0 0.161824 0.5
  endloop
 endfacet
 facet normal 0 0 1
  outer loop
   vertex 0.124524 0.172719 0.5
   vertex 0.123931 0.17814 0.5
   vertex 0 0.161824 0.5
  endloop
 endfacet
 facet normal 0 0 1
  outer loop
   vertex 0 0.161824 0.5
   vertex 0.123931 0.17814 0.5
   vertex 0.123101 0.18353 0.5
  endloop
 endfacet
endsolid zone0
