solid zone0
 facet normal 0 -0 -1
  outer loop
   vertex 0.124524 0.172972 0
   vertex 0.124881 0.16753 0
   vertex 0 0.162078 0
  endloop
 endfacet
 facet normal 0 -0 -1
  outer loop
   vertex 0.124881 0.16753 0
   vertex 0.125 0.162078 0
   vertex 0 0.162078 0
  endloop
 endfacet
 facet normal 0 0 -1
  outer loop
   vertex 0 0.162078 0
   vertex 0.125 0.162078 0
   vertex 0.124881 0.156626 0
  endloop
 endfacet
 facet normal 0 -0 -1
  outer loop
   vertex 0.122037 0.189133 0
   vertex 0.123101 0.183784 0
   vertex 0 0.162078 0
  endloop
 endfacet
 facet normal 0 -0 -1
  outer loop
   vertex 0.123101 0.183784 0
   vertex 0.123931 0.178394 0
   vertex 0 0.162078 0
  endloop
 endfacet
 facet normal 0 0 -1
  outer loop
   vertex 0 0.162078 0
   vertex 0.123931 0.178394 0
   vertex 0.124524 0.172972 0
  endloop
 endfacet
 facet normal 0 -0 -1
  outer loop
   vertex 0.117462 0.204831 0
   vertex 0.119215 0.199666 0
   vertex 0 0.162078 0
  endloop
 endfacet
 facet normal 0 -0 -1
  outer loop
   vertex 0.119215 0.199666 0
   vertex 0.120741 0.19443 0
   vertex 0 0.162078 0
  endloop
 endfacet
 facet normal 0 0 -1
  outer loop
   vertex 0 0.162078 0
   vertex 0.120741 0.19443 0
   vertex 0.122037 0.189133 0
  endloop
 endfacet
 facet normal 0 -0 -1
  outer loop
   vertex 0.110876 0.219797 0
   vertex 0.113288 0.214905 0
   vertex 0 0.162078 0
  endloop
 endfacet
 facet normal 0 -0 -1
  outer loop
   vertex 0.113288 0.214905 0
   vertex 0.115485 0.209913 0
   vertex 0 0.162078 0
  endloop
 endfacet
 facet normal 0 0 -1
  outer loop
   vertex 0 0.162078 0
   vertex 0.115485 0.209913 0
   vertex 0.117462 0.204831 0
  endloop
 endfacet
 facet normal 0 -0 -1
  outer loop
   vertex 0.102394 0.233775 0
   vertex 0.105424 0.22924 0
   vertex 0 0.162078 0
  endloop
 endfacet
 facet normal 0 -0 -1
  outer loop
   vertex 0.105424 0.22924 0
   vertex 0.108253 0.224578 0
   vertex 0 0.162078 0
  endloop
 endfacet
 facet normal 0 0 -1
  outer loop
   vertex 0 0.162078 0
   vertex 0.108253 0.224578 0
   vertex 0.110876 0.219797 0
  endloop
 endfacet
 facet normal 0 -0 -1
  outer loop
   vertex 0.0921597 0.246527 0
   vertex 0.0957556 0.242426 0
   vertex 0 0.162078 0
  endloop
 endfacet
 facet normal 0 -0 -1
  outer loop
   vertex 0.0957556 0.242426 0
   vertex 0.0991692 0.238173 0
   vertex 0 0.162078 0
  endloop
 endfacet
 facet normal 0 0 -1
  outer loop
   vertex 0 0.162078 0
   vertex 0.0991692 0.238173 0
   vertex 0.102394 0.233775 0
  endloop
 endfacet
 facet normal 0 -0 -1
  outer loop
   vertex 0.0803485 0.257834 0
   vertex 0.0844488 0.254238 0
   vertex 0 0.162078 0
  endloop
 endfacet
 facet normal 0 -0 -1
  outer loop
   vertex 0.0844488 0.254238 0
   vertex 0.0883883 0.250466 0
   vertex 0 0.162078 0
  endloop
 endfacet
 facet normal 0 0 -1
  outer loop
   vertex 0 0.162078 0
   vertex 0.0883883 0.250466 0
   vertex 0.0921597 0.246527 0
  endloop
 endfacet
 facet normal 0 -0 -1
  outer loop
   vertex 0.0671625 0.267502 0
   vertex 0.0716971 0.264472 0
   vertex 0 0.162078 0
  endloop
 endfacet
 facet normal 0 -0 -1
  outer loop
   vertex 0.0716971 0.264472 0
   vertex 0.0760952 0.261247 0
   vertex 0 0.162078 0
  endloop
 endfacet
 facet normal 0 0 -1
  outer loop
   vertex 0 0.162078 0
   vertex 0.0760952 0.261247 0
   vertex 0.0803485 0.257834 0
  endloop
 endfacet
 facet normal 0 -0 -1
  outer loop
   vertex 0.0528273 0.275366 0
   vertex 0.0577186 0.272954 0
   vertex 0 0.162078 0
  endloop
 endfacet
 facet normal 0 -0 -1
  outer loop
   vertex 0.0577186 0.272954 0
   vertex 0.0625 0.270331 0
   vertex 0 0.162078 0
  endloop
 endfacet
 facet normal 0 0 -1
  outer loop
   vertex 0 0.162078 0
   vertex 0.0625 0.270331 0
   vertex 0.0671625 0.267502 0
  endloop
 endfacet
 facet normal 0 -0 -1
  outer loop
   vertex 0.0375882 0.281293 0
   vertex 0.0427525 0.27954 0
   vertex 0 0.162078 0
  endloop
 endfacet
 facet normal 0 -0 -1
  outer loop
   vertex 0.0427525 0.27954 0
   vertex 0.0478354 0.277563 0
   vertex 0 0.162078 0
  endloop
 endfacet
 facet normal 0 0 -1
  outer loop
   vertex 0 0.162078 0
   vertex 0.0478354 0.277563 0
   vertex 0.0528273 0.275366 0
  endloop
 endfacet
 facet normal 0 -0 -1
  outer loop
   vertex 0.021706 0.285179 0
   vertex 0.027055 0.284115 0
   vertex 0 0.162078 0
  endloop
 endfacet
 facet normal 0 -0 -1
  outer loop
   vertex 0.027055 0.284115 0
   vertex 0.0323524 0.282819 0
   vertex 0 0.162078 0
  endloop
 endfacet
 facet normal 0 0 -1
  outer loop
   vertex 0 0.162078 0
   vertex 0.0323524 0.282819 0
   vertex 0.0375882 0.281293 0
  endloop
 endfacet
 facet normal 0 -0 -1
  outer loop
   vertex 0.00545242 0.286959 0
   vertex 0.0108945 0.286602 0
   vertex 0 0.162078 0
  endloop
 endfacet
 facet normal 0 -0 -1
  outer loop
   vertex 0.0108945 0.286602 0
   vertex 0.0163158 0.286009 0
   vertex 0 0.162078 0
  endloop
 endfacet
 facet normal 0 0 -1
  outer loop
   vertex 0 0.162078 0
   vertex 0.0163158 0.286009 0
   vertex 0.021706 0.285179 0
  endloop
 endfacet
 facet normal 0 0 -1
  outer loop
   vertex -0.0108945 0.286602 0
   vertex -0.00545242 0.286959 0
   vertex 0 0.162078 0
  endloop
 endfacet
 facet normal 0 0 -1
  outer loop
   vertex -0.00545242 0.286959 0
   vertex -7.65404e-18 0.287078 0
   vertex 0 0.162078 0
  endloop
 endfacet
 facet normal 0 0 -1
  outer loop
   vertex 0 0.162078 0
   vertex -7.65404e-18 0.287078 0
   vertex 0.00545242 0.286959 0
  endloop
 endfacet
 facet normal 0 0 -1
  outer loop
   vertex -0.027055 0.284115 0
   vertex -0.021706 0.285179 0
   vertex 0 0.162078 0
  endloop
 endfacet
 facet normal 0 0 -1
  outer loop
   vertex -0.021706 0.285179 0
   vertex -0.0163158 0.286009 0
   vertex 0 0.162078 0
  endloop
 endfacet
 facet normal 0 0 -1
  outer loop
   vertex 0 0.162078 0
   vertex -0.0163158 0.286009 0
   vertex -0.0108945 0.286602 0
  endloop
 endfacet
 facet normal 0 0 -1
  outer loop
   vertex -0.0427525 0.27954 0
   vertex -0.0375882 0.281293 0
   vertex 0 0.162078 0
  endloop
 endfacet
 facet normal 0 0 -1
  outer loop
   vertex -0.0375882 0.281293 0
   vertex -0.0323524 0.282819 0
   vertex 0 0.162078 0
  endloop
 endfacet
 facet normal 0 0 -1
  outer loop
   vertex 0 0.162078 0
   vertex -0.0323524 0.282819 0
   vertex -0.027055 0.284115 0
  endloop
 endfacet
 facet normal 0 0 -1
  outer loop
   vertex -0.0577186 0.272954 0
   vertex -0.0528273 0.275366 0
   vertex 0 0.162078 0
  endloop
 endfacet
 facet normal 0 0 -1
  outer loop
   vertex -0.0528273 0.275366 0
   vertex -0.0478354 0.277563 0
   vertex 0 0.162078 0
  endloop
 endfacet
 facet normal 0 0 -1
  outer loop
   vertex 0 0.162078 0
   vertex -0.0478354 0.277563 0
   vertex -0.0427525 0.27954 0
  endloop
 endfacet
 facet normal 0 0 -1
  outer loop
   vertex -0.0716971 0.264472 0
   vertex -0.0671625 0.267502 0
   vertex 0 0.162078 0
  endloop
 endfacet
 facet normal 0 0 -1
  outer loop
   vertex -0.0671625 0.267502 0
   vertex -0.0625 0.270331 0
   vertex 0 0.162078 0
  endloop
 endfacet
 facet normal 0 0 -1
  outer loop
   vertex 0 0.162078 0
   vertex -0.0625 0.270331 0
   vertex -0.0577186 0.272954 0
  endloop
 endfacet
 facet normal 0 0 -1
  outer loop
   vertex -0.0844488 0.254238 0
   vertex -0.0803485 0.257834 0
   vertex 0 0.162078 0
  endloop
 endfacet
 facet normal 0 0 -1
  outer loop
   vertex -0.0803485 0.257834 0
   vertex -0.0760952 0.261247 0
   vertex 0 0.162078 0
  endloop
 endfacet
 facet normal 0 0 -1
  outer loop
   vertex 0 0.162078 0
   vertex -0.0760952 0.261247 0
   vertex -0.0716971 0.264472 0
  endloop
 endfacet
 facet normal 0 0 -1
  outer loop
   vertex -0.0957556 0.242426 0
   vertex -0.0921597 0.246527 0
   vertex 0 0.162078 0
  endloop
 endfacet
 facet normal 0 0 -1
  outer loop
   vertex -0.0921597 0.246527 0
   vertex -0.0883883 0.250466 0
   vertex 0 0.162078 0
  endloop
 endfacet
 facet normal 0 0 -1
  outer loop
   vertex 0 0.162078 0
   vertex -0.0883883 0.250466 0
   vertex -0.0844488 0.254238 0
  endloop
 endfacet
 facet normal 0 0 -1
  outer loop
   vertex -0.105424 0.22924 0
   vertex -0.102394 0.233775 0
   vertex 0 0.162078 0
  endloop
 endfacet
 facet normal 0 0 -1
  outer loop
   vertex -0.102394 0.233775 0
   vertex -0.0991692 0.238173 0
   vertex 0 0.162078 0
  endloop
 endfacet
 facet normal 0 0 -1
  outer loop
   vertex 0 0.162078 0
   vertex -0.0991692 0.238173 0
   vertex -0.0957556 0.242426 0
  endloop
 endfacet
 facet normal 0 0 -1
  outer loop
   vertex -0.113288 0.214905 0
   vertex -0.110876 0.219797 0
   vertex 0 0.162078 0
  endloop
 endfacet
 facet normal 0 0 -1
  outer loop
   vertex -0.110876 0.219797 0
   vertex -0.108253 0.224578 0
   vertex 0 0.162078 0
  endloop
 endfacet
 facet normal 0 0 -1
  outer loop
   vertex 0 0.162078 0
   vertex -0.108253 0.224578 0
   vertex -0.105424 0.22924 0
  endloop
 endfacet
 facet normal 0 0 -1
  outer loop
   vertex -0.119215 0.199666 0
   vertex -0.117462 0.204831 0
   vertex 0 0.162078 0
  endloop
 endfacet
 facet normal 0 0 -1
  outer loop
   vertex -0.117462 0.204831 0
   vertex -0.115485 0.209913 0
   vertex 0 0.162078 0
  endloop
 endfacet
 facet normal 0 0 -1
  outer loop
   vertex 0 0.162078 0
   vertex -0.115485 0.209913 0
   vertex -0.113288 0.214905 0
  endloop
 endfacet
 facet normal 0 0 -1
  outer loop
   vertex -0.123101 0.183784 0
   vertex -0.122037 0.189133 0
   vertex 0 0.162078 0
  endloop
 endfacet
 facet normal 0 0 -1
  outer loop
   vertex -0.122037 0.189133 0
   vertex -0.120741 0.19443 0
   vertex 0 0.162078 0
  endloop
 endfacet
 facet normal 0 0 -1
  outer loop
   vertex 0 0.162078 0
   vertex -0.120741 0.19443 0
   vertex -0.119215 0.199666 0
  endloop
 endfacet
 facet normal 0 0 -1
  outer loop
   vertex -0.124881 0.16753 0
   vertex -0.124524 0.172972 0
   vertex 0 0.162078 0
  endloop
 endfacet
 facet normal 0 0 -1
  outer loop
   vertex -0.124524 0.172972 0
   vertex -0.123931 0.178394 0
   vertex 0 0.162078 0
  endloop
 endfacet
 facet normal 0 0 -1
  outer loop
   vertex 0 0.162078 0
   vertex -0.123931 0.178394 0
   vertex -0.123101 0.183784 0
  endloop
 endfacet
 facet normal 0 0 -1
  outer loop
   vertex -0.124524 0.151184 0
   vertex -0.124881 0.156626 0
   vertex 0 0.162078 0
  endloop
 endfacet
 facet normal 0 0 -1
  outer loop
   vertex -0.124881 0.156626 0
   vertex -0.125 0.162078 0
   vertex 0 0.162078 0
  endloop
 endfacet
 facet normal 0 0 -1
  outer loop
   vertex 0 0.162078 0
   vertex -0.125 0.162078 0
   vertex -0.124881 0.16753 0
  endloop
 endfacet
 facet normal 0 0 -1
  outer loop
   vertex -0.122037 0.135023 0
   vertex -0.123101 0.140372 0
   vertex 0 0.162078 0
  endloop
 endfacet
 facet normal 0 0 -1
  outer loop
   vertex -0.123101 0.140372 0
   vertex -0.123931 0.145762 0
   vertex 0 0.162078 0
  endloop
 endfacet
 facet normal 0 0 -1
  outer loop
   vertex 0 0.162078 0
   vertex -0.123931 0.145762 0
   vertex -0.124524 0.151184 0
  endloop
 endfacet
 facet normal 0 0 -1
  outer loop
   vertex -0.117462 0.119325 0
   vertex -0.119215 0.12449 0
   vertex 0 0.162078 0
  endloop
 endfacet
 facet normal 0 0 -1
  outer loop
   vertex -0.119215 0.12449 0
   vertex -0.120741 0.129726 0
   vertex 0 0.162078 0
  endloop
 endfacet
 facet normal 0 0 -1
  outer loop
   vertex 0 0.162078 0
   vertex -0.120741 0.129726 0
   vertex -0.122037 0.135023 0
  endloop
 endfacet
 facet normal 0 0 -1
  outer loop
   vertex -0.110876 0.104359 0
   vertex -0.113288 0.109251 0
   vertex 0 0.162078 0
  endloop
 endfacet
 facet normal 0 0 -1
  outer loop
   vertex -0.113288 0.109251 0
   vertex -0.115485 0.114243 0
   vertex 0 0.162078 0
  endloop
 endfacet
 facet normal 0 0 -1
  outer loop
   vertex 0 0.162078 0
   vertex -0.115485 0.114243 0
   vertex -0.117462 0.119325 0
  endloop
 endfacet
 facet normal 0 0 -1
  outer loop
   vertex -0.102394 0.090381 0
   vertex -0.105424 0.0949156 0
   vertex 0 0.162078 0
  endloop
 endfacet
 facet normal 0 0 -1
  outer loop
   vertex -0.105424 0.0949156 0
   vertex -0.108253 0.099578 0
   vertex 0 0.162078 0
  endloop
 endfacet
 facet normal 0 0 -1
  outer loop
   vertex 0 0.162078 0
   vertex -0.108253 0.099578 0
   vertex -0.110876 0.104359 0
  endloop
 endfacet
 facet normal 0 0 -1
  outer loop
   vertex -0.0921597 0.0776292 0
   vertex -0.0957556 0.0817296 0
   vertex 0 0.162078 0
  endloop
 endfacet
 facet normal 0 0 -1
  outer loop
   vertex -0.0957556 0.0817296 0
   vertex -0.0991692 0.0859828 0
   vertex 0 0.162078 0
  endloop
 endfacet
 facet normal 0 0 -1
  outer loop
   vertex 0 0.162078 0
   vertex -0.0991692 0.0859828 0
   vertex -0.102394 0.090381 0
  endloop
 endfacet
 facet normal 0 0 -1
  outer loop
   vertex -0.0803485 0.0663225 0
   vertex -0.0844488 0.0699183 0
   vertex 0 0.162078 0
  endloop
 endfacet
 facet normal 0 0 -1
  outer loop
   vertex -0.0844488 0.0699183 0
   vertex -0.0883883 0.0736897 0
   vertex 0 0.162078 0
  endloop
 endfacet
 facet normal 0 0 -1
  outer loop
   vertex 0 0.162078 0
   vertex -0.0883883 0.0736897 0
   vertex -0.0921597 0.0776292 0
  endloop
 endfacet
 facet normal 0 0 -1
  outer loop
   vertex -0.0671625 0.0566541 0
   vertex -0.0716971 0.059684 0
   vertex 0 0.162078 0
  endloop
 endfacet
 facet normal 0 0 -1
  outer loop
   vertex -0.0716971 0.059684 0
   vertex -0.0760952 0.0629088 0
   vertex 0 0.162078 0
  endloop
 endfacet
 facet normal 0 0 -1
  outer loop
   vertex 0 0.162078 0
   vertex -0.0760952 0.0629088 0
   vertex -0.0803485 0.0663225 0
  endloop
 endfacet
 facet normal 0 0 -1
  outer loop
   vertex -0.0528273 0.0487895 0
   vertex -0.0577186 0.0512017 0
   vertex 0 0.162078 0
  endloop
 endfacet
 facet normal 0 0 -1
  outer loop
   vertex -0.0577186 0.0512017 0
   vertex -0.0625 0.0538248 0
   vertex 0 0.162078 0
  endloop
 endfacet
 facet normal 0 0 -1
  outer loop
   vertex 0 0.162078 0
   vertex -0.0625 0.0538248 0
   vertex -0.0671625 0.0566541 0
  endloop
 endfacet
 facet normal 0 0 -1
  outer loop
   vertex -0.0375882 0.0428634 0
   vertex -0.0427525 0.0446164 0
   vertex 0 0.162078 0
  endloop
 endfacet
 facet normal 0 0 -1
  outer loop
   vertex -0.0427525 0.0446164 0
   vertex -0.0478354 0.0465931 0
   vertex 0 0.162078 0
  endloop
 endfacet
 facet normal 0 0 -1
  outer loop
   vertex 0 0.162078 0
   vertex -0.0478354 0.0465931 0
   vertex -0.0528273 0.0487895 0
  endloop
 endfacet
 facet normal 0 0 -1
  outer loop
   vertex -0.021706 0.038977 0
   vertex -0.027055 0.040041 0
   vertex 0 0.162078 0
  endloop
 endfacet
 facet normal 0 0 -1
  outer loop
   vertex -0.027055 0.040041 0
   vertex -0.0323524 0.0413373 0
   vertex 0 0.162078 0
  endloop
 endfacet
 facet normal 0 0 -1
  outer loop
   vertex 0 0.162078 0
   vertex -0.0323524 0.0413373 0
   vertex -0.0375882 0.0428634 0
  endloop
 endfacet
 facet normal 0 0 -1
  outer loop
   vertex -0.00545242 0.037197 0
   vertex -0.0108945 0.0375537 0
   vertex 0 0.162078 0
  endloop
 endfacet
 facet normal 0 0 -1
  outer loop
   vertex -0.0108945 0.0375537 0
   vertex -0.0163158 0.0381474 0
   vertex 0 0.162078 0
  endloop
 endfacet
 facet normal 0 0 -1
  outer loop
   vertex 0 0.162078 0
   vertex -0.0163158 0.0381474 0
   vertex -0.021706 0.038977 0
  endloop
 endfacet
 facet normal -0 0 -1
  outer loop
   vertex 0.0108945 0.0375537 0
   vertex 0.00545242 0.037197 0
   vertex 0 0.162078 0
  endloop
 endfacet
 facet normal -0 0 -1
  outer loop
   vertex 0.00545242 0.037197 0
   vertex 2.29621e-17 0.037078 0
   vertex 0 0.162078 0
  endloop
 endfacet
 facet normal 0 -0 -1
  outer loop
   vertex 0 0.162078 0
   vertex 2.29621e-17 0.037078 0
   vertex -0.00545242 0.037197 0
  endloop
 endfacet
 facet normal -0 0 -1
  outer loop
   vertex 0.027055 0.040041 0
   vertex 0.021706 0.038977 0
   vertex 0 0.162078 0
  endloop
 endfacet
 facet normal -0 0 -1
  outer loop
   vertex 0.021706 0.038977 0
   vertex 0.0163158 0.0381474 0
   vertex 0 0.162078 0
  endloop
 endfacet
 facet normal 0 0 -1
  outer loop
   vertex 0 0.162078 0
   vertex 0.0163158 0.0381474 0
   vertex 0.0108945 0.0375537 0
  endloop
 endfacet
 facet normal -0 0 -1
  outer loop
   vertex 0.0427525 0.0446164 0
   vertex 0.0375882 0.0428634 0
   vertex 0 0.162078 0
  endloop
 endfacet
 facet normal -0 0 -1
  outer loop
   vertex 0.0375882 0.0428634 0
   vertex 0.0323524 0.0413373 0
   vertex 0 0.162078 0
  endloop
 endfacet
 facet normal 0 0 -1
  outer loop
   vertex 0 0.162078 0
   vertex 0.0323524 0.0413373 0
   vertex 0.027055 0.040041 0
  endloop
 endfacet
 facet normal -0 0 -1
  outer loop
   vertex 0.0577186 0.0512017 0
   vertex 0.0528273 0.0487895 0
   vertex 0 0.162078 0
  endloop
 endfacet
 facet normal -0 0 -1
  outer loop
   vertex 0.0528273 0.0487895 0
   vertex 0.0478354 0.0465931 0
   vertex 0 0.162078 0
  endloop
 endfacet
 facet normal 0 0 -1
  outer loop
   vertex 0 0.162078 0
   vertex 0.0478354 0.0465931 0
   vertex 0.0427525 0.0446164 0
  endloop
 endfacet
 facet normal -0 0 -1
  outer loop
   vertex 0.0716971 0.059684 0
   vertex 0.0671625 0.0566541 0
   vertex 0 0.162078 0
  endloop
 endfacet
 facet normal -0 0 -1
  outer loop
   vertex 0.0671625 0.0566541 0
   vertex 0.0625 0.0538248 0
   vertex 0 0.162078 0
  endloop
 endfacet
 facet normal 0 0 -1
  outer loop
   vertex 0 0.162078 0
   vertex 0.0625 0.0538248 0
   vertex 0.0577186 0.0512017 0
  endloop
 endfacet
 facet normal -0 0 -1
  outer loop
   vertex 0.0844488 0.0699183 0
   vertex 0.0803485 0.0663225 0
   vertex 0 0.162078 0
  endloop
 endfacet
 facet normal -0 0 -1
  outer loop
   vertex 0.0803485 0.0663225 0
   vertex 0.0760952 0.0629088 0
   vertex 0 0.162078 0
  endloop
 endfacet
 facet normal 0 0 -1
  outer loop
   vertex 0 0.162078 0
   vertex 0.0760952 0.0629088 0
   vertex 0.0716971 0.059684 0
  endloop
 endfacet
 facet normal -0 0 -1
  outer loop
   vertex 0.0957556 0.0817296 0
   vertex 0.0921597 0.0776292 0
   vertex 0 0.162078 0
  endloop
 endfacet
 facet normal -0 0 -1
  outer loop
   vertex 0.0921597 0.0776292 0
   vertex 0.0883883 0.0736897 0
   vertex 0 0.162078 0
  endloop
 endfacet
 facet normal 0 0 -1
  outer loop
   vertex 0 0.162078 0
   vertex 0.0883883 0.0736897 0
   vertex 0.0844488 0.0699183 0
  endloop
 endfacet
 facet normal -0 0 -1
  outer loop
   vertex 0.105424 0.0949156 0
   vertex 0.102394 0.090381 0
   vertex 0 0.162078 0
  endloop
 endfacet
 facet normal -0 0 -1
  outer loop
   vertex 0.102394 0.090381 0
   vertex 0.0991692 0.0859828 0
   vertex 0 0.162078 0
  endloop
 endfacet
 facet normal 0 0 -1
  outer loop
   vertex 0 0.162078 0
   vertex 0.0991692 0.0859828 0
   vertex 0.0957556 0.0817296 0
  endloop
 endfacet
 facet normal -0 0 -1
  outer loop
   vertex 0.113288 0.109251 0
   vertex 0.110876 0.104359 0
   vertex 0 0.162078 0
  endloop
 endfacet
 facet normal -0 0 -1
  outer loop
   vertex 0.110876 0.104359 0
   vertex 0.108253 0.099578 0
   vertex 0 0.162078 0
  endloop
 endfacet
 facet normal 0 0 -1
  outer loop
   vertex 0 0.162078 0
   vertex 0.108253 0.099578 0
   vertex 0.105424 0.0949156 0
  endloop
 endfacet
 facet normal -0 0 -1
  outer loop
   vertex 0.119215 0.12449 0
   vertex 0.117462 0.119325 0
   vertex 0 0.162078 0
  endloop
 endfacet
 facet normal -0 0 -1
  outer loop
   vertex 0.117462 0.119325 0
   vertex 0.115485 0.114243 0
   vertex 0 0.162078 0
  endloop
 endfacet
 facet normal 0 0 -1
  outer loop
   vertex 0 0.162078 0
   vertex 0.115485 0.114243 0
   vertex 0.113288 0.109251 0
  endloop
 endfacet
 facet normal -0 0 -1
  outer loop
   vertex 0.123101 0.140372 0
   vertex 0.122037 0.135023 0
   vertex 0 0.162078 0
  endloop
 endfacet
 facet normal -0 0 -1
  outer loop
   vertex 0.122037 0.135023 0
   vertex 0.120741 0.129726 0
   vertex 0 0.162078 0
  endloop
 endfacet
 facet normal 0 0 -1
  outer loop
   vertex 0 0.162078 0
   vertex 0.120741 0.129726 0
   vertex 0.119215 0.12449 0
  endloop
 endfacet
 facet normal -0 0 -1
  outer loop
   vertex 0.124881 0.156626 0
   vertex 0.124524 0.151184 0
   vertex 0 0.162078 0
  endloop
 endfacet
 facet normal -0 0 -1
  outer loop
   vertex 0.124524 0.151184 0
   vertex 0.123931 0.145762 0
   vertex 0 0.162078 0
  endloop
 endfacet
 facet normal 0 0 -1
  outer loop
   vertex 0 0.162078 0
   vertex 0.123931 0.145762 0
   vertex 0.123101 0.140372 0
  endloop
 endfacet
 facet normal -0.999762 0.0218146 0
  outer loop
   vertex -0.125 0.162078 0
   vertex -0.124881 0.16753 0.5
   vertex -0.124881 0.16753 0
  endloop
 endfacet
 facet normal -0.997859 0.0654029 0
  outer loop
   vertex -0.124881 0.16753 0.5
   vertex -0.124524 0.172972 0.5
   vertex -0.124881 0.16753 0
  endloop
 endfacet
 facet normal -0.997859 0.0654029 0
  outer loop
   vertex -0.124881 0.16753 0
   vertex -0.124524 0.172972 0.5
   vertex -0.124524 0.172972 0
  endloop
 endfacet
 facet normal -0.994056 0.108867 0
  outer loop
   vertex -0.124524 0.172972 0.5
   vertex -0.123931 0.178394 0.5
   vertex -0.124524 0.172972 0
  endloop
 endfacet
 facet normal -0.994056 0.108867 0
  outer loop
   vertex -0.124524 0.172972 0
   vertex -0.123931 0.178394 0.5
   vertex -0.123931 0.178394 0
  endloop
 endfacet
 facet normal -0.988361 0.152124 0
  outer loop
   vertex -0.123931 0.178394 0.5
   vertex -0.123101 0.183784 0.5
   vertex -0.123931 0.178394 0
  endloop
 endfacet
 facet normal -0.988361 0.152124 0
  outer loop
   vertex -0.123931 0.178394 0
   vertex -0.123101 0.183784 0.5
   vertex -0.123101 0.183784 0
  endloop
 endfacet
 facet normal -0.980785 0.19509 0
  outer loop
   vertex -0.123101 0.183784 0.5
   vertex -0.122037 0.189133 0.5
   vertex -0.123101 0.183784 0
  endloop
 endfacet
 facet normal -0.980785 0.19509 0
  outer loop
   vertex -0.123101 0.183784 0
   vertex -0.122037 0.189133 0.5
   vertex -0.122037 0.189133 0
  endloop
 endfacet
 facet normal -0.971342 0.237686 0
  outer loop
   vertex -0.122037 0.189133 0.5
   vertex -0.120741 0.19443 0.5
   vertex -0.122037 0.189133 0
  endloop
 endfacet
 facet normal -0.971342 0.237686 0
  outer loop
   vertex -0.122037 0.189133 0
   vertex -0.120741 0.19443 0.5
   vertex -0.120741 0.19443 0
  endloop
 endfacet
 facet normal -0.96005 0.279829 0
  outer loop
   vertex -0.120741 0.19443 0.5
   vertex -0.119215 0.199666 0.5
   vertex -0.120741 0.19443 0
  endloop
 endfacet
 facet normal -0.96005 0.279829 0
  outer loop
   vertex -0.120741 0.19443 0
   vertex -0.119215 0.199666 0.5
   vertex -0.119215 0.199666 0
  endloop
 endfacet
 facet normal -0.94693 0.321439 0
  outer loop
   vertex -0.119215 0.199666 0.5
   vertex -0.117462 0.204831 0.5
   vertex -0.119215 0.199666 0
  endloop
 endfacet
 facet normal -0.94693 0.321439 0
  outer loop
   vertex -0.119215 0.199666 0
   vertex -0.117462 0.204831 0.5
   vertex -0.117462 0.204831 0
  endloop
 endfacet
 facet normal -0.932008 0.362439 0
  outer loop
   vertex -0.117462 0.204831 0.5
   vertex -0.115485 0.209913 0.5
   vertex -0.117462 0.204831 0
  endloop
 endfacet
 facet normal -0.932008 0.362439 0
  outer loop
   vertex -0.117462 0.204831 0
   vertex -0.115485 0.209913 0.5
   vertex -0.115485 0.209913 0
  endloop
 endfacet
 facet normal -0.915312 0.402745 0
  outer loop
   vertex -0.115485 0.209913 0.5
   vertex -0.113288 0.214905 0.5
   vertex -0.115485 0.209913 0
  endloop
 endfacet
 facet normal -0.915312 0.402745 0
  outer loop
   vertex -0.115485 0.209913 0
   vertex -0.113288 0.214905 0.5
   vertex -0.113288 0.214905 0
  endloop
 endfacet
 facet normal -0.896872 0.44229 0
  outer loop
   vertex -0.113288 0.214905 0.5
   vertex -0.110876 0.219797 0.5
   vertex -0.113288 0.214905 0
  endloop
 endfacet
 facet normal -0.896872 0.44229 0
  outer loop
   vertex -0.113288 0.214905 0
   vertex -0.110876 0.219797 0.5
   vertex -0.110876 0.219797 0
  endloop
 endfacet
 facet normal -0.876727 0.480989 0
  outer loop
   vertex -0.110876 0.219797 0.5
   vertex -0.108253 0.224578 0.5
   vertex -0.110876 0.219797 0
  endloop
 endfacet
 facet normal -0.876727 0.480989 0
  outer loop
   vertex -0.110876 0.219797 0
   vertex -0.108253 0.224578 0.5
   vertex -0.108253 0.224578 0
  endloop
 endfacet
 facet normal -0.854912 0.518773 0
  outer loop
   vertex -0.108253 0.224578 0.5
   vertex -0.105424 0.22924 0.5
   vertex -0.108253 0.224578 0
  endloop
 endfacet
 facet normal -0.854912 0.518773 0
  outer loop
   vertex -0.108253 0.224578 0
   vertex -0.105424 0.22924 0.5
   vertex -0.105424 0.22924 0
  endloop
 endfacet
 facet normal -0.83147 0.55557 0
  outer loop
   vertex -0.105424 0.22924 0.5
   vertex -0.102394 0.233775 0.5
   vertex -0.105424 0.22924 0
  endloop
 endfacet
 facet normal -0.83147 0.55557 0
  outer loop
   vertex -0.105424 0.22924 0
   vertex -0.102394 0.233775 0.5
   vertex -0.102394 0.233775 0
  endloop
 endfacet
 facet normal -0.806444 0.59131 0
  outer loop
   vertex -0.102394 0.233775 0.5
   vertex -0.0991692 0.238173 0.5
   vertex -0.102394 0.233775 0
  endloop
 endfacet
 facet normal -0.806444 0.59131 0
  outer loop
   vertex -0.102394 0.233775 0
   vertex -0.0991692 0.238173 0.5
   vertex -0.0991692 0.238173 0
  endloop
 endfacet
 facet normal -0.779885 0.625923 0
  outer loop
   vertex -0.0991692 0.238173 0.5
   vertex -0.0957556 0.242426 0.5
   vertex -0.0991692 0.238173 0
  endloop
 endfacet
 facet normal -0.779885 0.625923 0
  outer loop
   vertex -0.0991692 0.238173 0
   vertex -0.0957556 0.242426 0.5
   vertex -0.0957556 0.242426 0
  endloop
 endfacet
 facet normal -0.75184 0.659346 0
  outer loop
   vertex -0.0957556 0.242426 0.5
   vertex -0.0921597 0.246527 0.5
   vertex -0.0957556 0.242426 0
  endloop
 endfacet
 facet normal -0.75184 0.659346 0
  outer loop
   vertex -0.0957556 0.242426 0
   vertex -0.0921597 0.246527 0.5
   vertex -0.0921597 0.246527 0
  endloop
 endfacet
 facet normal -0.722364 0.691513 0
  outer loop
   vertex -0.0921597 0.246527 0.5
   vertex -0.0883883 0.250466 0.5
   vertex -0.0921597 0.246527 0
  endloop
 endfacet
 facet normal -0.722364 0.691513 0
  outer loop
   vertex -0.0921597 0.246527 0
   vertex -0.0883883 0.250466 0.5
   vertex -0.0883883 0.250466 0
  endloop
 endfacet
 facet normal -0.691513 0.722364 0
  outer loop
   vertex -0.0883883 0.250466 0.5
   vertex -0.0844488 0.254238 0.5
   vertex -0.0883883 0.250466 0
  endloop
 endfacet
 facet normal -0.691513 0.722364 0
  outer loop
   vertex -0.0883883 0.250466 0
   vertex -0.0844488 0.254238 0.5
   vertex -0.0844488 0.254238 0
  endloop
 endfacet
 facet normal -0.659346 0.75184 0
  outer loop
   vertex -0.0844488 0.254238 0.5
   vertex -0.0803485 0.257834 0.5
   vertex -0.0844488 0.254238 0
  endloop
 endfacet
 facet normal -0.659346 0.75184 0
  outer loop
   vertex -0.0844488 0.254238 0
   vertex -0.0803485 0.257834 0.5
   vertex -0.0803485 0.257834 0
  endloop
 endfacet
 facet normal -0.625923 0.779885 0
  outer loop
   vertex -0.0803485 0.257834 0.5
   vertex -0.0760952 0.261247 0.5
   vertex -0.0803485 0.257834 0
  endloop
 endfacet
 facet normal -0.625923 0.779885 0
  outer loop
   vertex -0.0803485 0.257834 0
   vertex -0.0760952 0.261247 0.5
   vertex -0.0760952 0.261247 0
  endloop
 endfacet
 facet normal -0.59131 0.806444 0
  outer loop
   vertex -0.0760952 0.261247 0.5
   vertex -0.0716971 0.264472 0.5
   vertex -0.0760952 0.261247 0
  endloop
 endfacet
 facet normal -0.59131 0.806444 0
  outer loop
   vertex -0.0760952 0.261247 0
   vertex -0.0716971 0.264472 0.5
   vertex -0.0716971 0.264472 0
  endloop
 endfacet
 facet normal -0.55557 0.83147 0
  outer loop
   vertex -0.0716971 0.264472 0.5
   vertex -0.0671625 0.267502 0.5
   vertex -0.0716971 0.264472 0
  endloop
 endfacet
 facet normal -0.55557 0.83147 0
  outer loop
   vertex -0.0716971 0.264472 0
   vertex -0.0671625 0.267502 0.5
   vertex -0.0671625 0.267502 0
  endloop
 endfacet
 facet normal -0.518773 0.854912 0
  outer loop
   vertex -0.0671625 0.267502 0.5
   vertex -0.0625 0.270331 0.5
   vertex -0.0671625 0.267502 0
  endloop
 endfacet
 facet normal -0.518773 0.854912 0
  outer loop
   vertex -0.0671625 0.267502 0
   vertex -0.0625 0.270331 0.5
   vertex -0.0625 0.270331 0
  endloop
 endfacet
 facet normal -0.480989 0.876727 0
  outer loop
   vertex -0.0625 0.270331 0.5
   vertex -0.0577186 0.272954 0.5
   vertex -0.0625 0.270331 0
  endloop
 endfacet
 facet normal -0.480989 0.876727 0
  outer loop
   vertex -0.0625 0.270331 0
   vertex -0.0577186 0.272954 0.5
   vertex -0.0577186 0.272954 0
  endloop
 endfacet
 facet normal -0.44229 0.896872 0
  outer loop
   vertex -0.0577186 0.272954 0.5
   vertex -0.0528273 0.275366 0.5
   vertex -0.0577186 0.272954 0
  endloop
 endfacet
 facet normal -0.44229 0.896872 0
  outer loop
   vertex -0.0577186 0.272954 0
   vertex -0.0528273 0.275366 0.5
   vertex -0.0528273 0.275366 0
  endloop
 endfacet
 facet normal -0.402745 0.915312 0
  outer loop
   vertex -0.0528273 0.275366 0.5
   vertex -0.0478354 0.277563 0.5
   vertex -0.0528273 0.275366 0
  endloop
 endfacet
 facet normal -0.402745 0.915312 0
  outer loop
   vertex -0.0528273 0.275366 0
   vertex -0.0478354 0.277563 0.5
   vertex -0.0478354 0.277563 0
  endloop
 endfacet
 facet normal -0.362439 0.932008 0
  outer loop
   vertex -0.0478354 0.277563 0.5
   vertex -0.0427525 0.27954 0.5
   vertex -0.0478354 0.277563 0
  endloop
 endfacet
 facet normal -0.362439 0.932008 0
  outer loop
   vertex -0.0478354 0.277563 0
   vertex -0.0427525 0.27954 0.5
   vertex -0.0427525 0.27954 0
  endloop
 endfacet
 facet normal -0.321439 0.94693 0
  outer loop
   vertex -0.0427525 0.27954 0.5
   vertex -0.0375882 0.281293 0.5
   vertex -0.0427525 0.27954 0
  endloop
 endfacet
 facet normal -0.321439 0.94693 0
  outer loop
   vertex -0.0427525 0.27954 0
   vertex -0.0375882 0.281293 0.5
   vertex -0.0375882 0.281293 0
  endloop
 endfacet
 facet normal -0.279829 0.96005 0
  outer loop
   vertex -0.0375882 0.281293 0.5
   vertex -0.0323524 0.282819 0.5
   vertex -0.0375882 0.281293 0
  endloop
 endfacet
 facet normal -0.279829 0.96005 0
  outer loop
   vertex -0.0375882 0.281293 0
   vertex -0.0323524 0.282819 0.5
   vertex -0.0323524 0.282819 0
  endloop
 endfacet
 facet normal -0.237686 0.971342 0
  outer loop
   vertex -0.0323524 0.282819 0.5
   vertex -0.027055 0.284115 0.5
   vertex -0.0323524 0.282819 0
  endloop
 endfacet
 facet normal -0.237686 0.971342 0
  outer loop
   vertex -0.0323524 0.282819 0
   vertex -0.027055 0.284115 0.5
   vertex -0.027055 0.284115 0
  endloop
 endfacet
 facet normal -0.19509 0.980785 0
  outer loop
   vertex -0.027055 0.284115 0.5
   vertex -0.021706 0.285179 0.5
   vertex -0.027055 0.284115 0
  endloop
 endfacet
 facet normal -0.19509 0.980785 0
  outer loop
   vertex -0.027055 0.284115 0
   vertex -0.021706 0.285179 0.5
   vertex -0.021706 0.285179 0
  endloop
 endfacet
 facet normal -0.152124 0.988361 0
  outer loop
   vertex -0.021706 0.285179 0.5
   vertex -0.0163158 0.286009 0.5
   vertex -0.021706 0.285179 0
  endloop
 endfacet
 facet normal -0.152124 0.988361 0
  outer loop
   vertex -0.021706 0.285179 0
   vertex -0.0163158 0.286009 0.5
   vertex -0.0163158 0.286009 0
  endloop
 endfacet
 facet normal -0.108867 0.994056 0
  outer loop
   vertex -0.0163158 0.286009 0.5
   vertex -0.0108945 0.286602 0.5
   vertex -0.0163158 0.286009 0
  endloop
 endfacet
 facet normal -0.108867 0.994056 0
  outer loop
   vertex -0.0163158 0.286009 0
   vertex -0.0108945 0.286602 0.5
   vertex -0.0108945 0.286602 0
  endloop
 endfacet
 facet normal -0.0654029 0.997859 0
  outer loop
   vertex -0.0108945 0.286602 0.5
   vertex -0.00545242 0.286959 0.5
   vertex -0.0108945 0.286602 0
  endloop
 endfacet
 facet normal -0.0654029 0.997859 0
  outer loop
   vertex -0.0108945 0.286602 0
   vertex -0.00545242 0.286959 0.5
   vertex -0.00545242 0.286959 0
  endloop
 endfacet
 facet normal -0.0218146 0.999762 0
  outer loop
   vertex -0.00545242 0.286959 0.5
   vertex -7.65404e-18 0.287078 0.5
   vertex -0.00545242 0.286959 0
  endloop
 endfacet
 facet normal -0.0218146 0.999762 0
  outer loop
   vertex -0.00545242 0.286959 0
   vertex -7.65404e-18 0.287078 0.5
   vertex -7.65404e-18 0.287078 0
  endloop
 endfacet
 facet normal 0.0218146 0.999762 0
  outer loop
   vertex -7.65404e-18 0.287078 0.5
   vertex 0.00545242 0.286959 0.5
   vertex -7.65404e-18 0.287078 0
  endloop
 endfacet
 facet normal 0.0218146 0.999762 0
  outer loop
   vertex -7.65404e-18 0.287078 0
   vertex 0.00545242 0.286959 0.5
   vertex 0.00545242 0.286959 0
  endloop
 endfacet
 facet normal 0.0654029 0.997859 0
  outer loop
   vertex 0.00545242 0.286959 0.5
   vertex 0.0108945 0.286602 0.5
   vertex 0.00545242 0.286959 0
  endloop
 endfacet
 facet normal 0.0654029 0.997859 0
  outer loop
   vertex 0.00545242 0.286959 0
   vertex 0.0108945 0.286602 0.5
   vertex 0.0108945 0.286602 0
  endloop
 endfacet
 facet normal 0.108867 0.994056 0
  outer loop
   vertex 0.0108945 0.286602 0.5
   vertex 0.0163158 0.286009 0.5
   vertex 0.0108945 0.286602 0
  endloop
 endfacet
 facet normal 0.108867 0.994056 0
  outer loop
   vertex 0.0108945 0.286602 0
   vertex 0.0163158 0.286009 0.5
   vertex 0.0163158 0.286009 0
  endloop
 endfacet
 facet normal 0.152124 0.988361 0
  outer loop
   vertex 0.0163158 0.286009 0.5
   vertex 0.021706 0.285179 0.5
   vertex 0.0163158 0.286009 0
  endloop
 endfacet
 facet normal 0.152124 0.988361 0
  outer loop
   vertex 0.0163158 0.286009 0
   vertex 0.021706 0.285179 0.5
   vertex 0.021706 0.285179 0
  endloop
 endfacet
 facet normal 0.19509 0.980785 0
  outer loop
   vertex 0.021706 0.285179 0.5
   vertex 0.027055 0.284115 0.5
   vertex 0.021706 0.285179 0
  endloop
 endfacet
 facet normal 0.19509 0.980785 0
  outer loop
   vertex 0.021706 0.285179 0
   vertex 0.027055 0.284115 0.5
   vertex 0.027055 0.284115 0
  endloop
 endfacet
 facet normal 0.237686 0.971342 0
  outer loop
   vertex 0.027055 0.284115 0.5
   vertex 0.0323524 0.282819 0.5
   vertex 0.027055 0.284115 0
  endloop
 endfacet
 facet normal 0.237686 0.971342 0
  outer loop
   vertex 0.027055 0.284115 0
   vertex 0.0323524 0.282819 0.5
   vertex 0.0323524 0.282819 0
  endloop
 endfacet
 facet normal 0.279829 0.96005 0
  outer loop
   vertex 0.0323524 0.282819 0.5
   vertex 0.0375882 0.281293 0.5
   vertex 0.0323524 0.282819 0
  endloop
 endfacet
 facet normal 0.279829 0.96005 0
  outer loop
   vertex 0.0323524 0.282819 0
   vertex 0.0375882 0.281293 0.5
   vertex 0.0375882 0.281293 0
  endloop
 endfacet
 facet normal 0.321439 0.94693 0
  outer loop
   vertex 0.0375882 0.281293 0.5
   vertex 0.0427525 0.27954 0.5
   vertex 0.0375882 0.281293 0
  endloop
 endfacet
 facet normal 0.321439 0.94693 0
  outer loop
   vertex 0.0375882 0.281293 0
   vertex 0.0427525 0.27954 0.5
   vertex 0.0427525 0.27954 0
  endloop
 endfacet
 facet normal 0.362439 0.932008 0
  outer loop
   vertex 0.0427525 0.27954 0.5
   vertex 0.0478354 0.277563 0.5
   vertex 0.0427525 0.27954 0
  endloop
 endfacet
 facet normal 0.362439 0.932008 0
  outer loop
   vertex 0.0427525 0.27954 0
   vertex 0.0478354 0.277563 0.5
   vertex 0.0478354 0.277563 0
  endloop
 endfacet
 facet normal 0.402745 0.915312 0
  outer loop
   vertex 0.0478354 0.277563 0.5
   vertex 0.0528273 0.275366 0.5
   vertex 0.0478354 0.277563 0
  endloop
 endfacet
 facet normal 0.402745 0.915312 0
  outer loop
   vertex 0.0478354 0.277563 0
   vertex 0.0528273 0.275366 0.5
   vertex 0.0528273 0.275366 0
  endloop
 endfacet
 facet normal 0.44229 0.896872 0
  outer loop
   vertex 0.0528273 0.275366 0.5
   vertex 0.0577186 0.272954 0.5
   vertex 0.0528273 0.275366 0
  endloop
 endfacet
 facet normal 0.44229 0.896872 0
  outer loop
   vertex 0.0528273 0.275366 0
   vertex 0.0577186 0.272954 0.5
   vertex 0.0577186 0.272954 0
  endloop
 endfacet
 facet normal 0.480989 0.876727 0
  outer loop
   vertex 0.0577186 0.272954 0.5
   vertex 0.0625 0.270331 0.5
   vertex 0.0577186 0.272954 0
  endloop
 endfacet
 facet normal 0.480989 0.876727 0
  outer loop
   vertex 0.0577186 0.272954 0
   vertex 0.0625 0.270331 0.5
   vertex 0.0625 0.270331 0
  endloop
 endfacet
 facet normal 0.518773 0.854912 0
  outer loop
   vertex 0.0625 0.270331 0.5
   vertex 0.0671625 0.267502 0.5
   vertex 0.0625 0.270331 0
  endloop
 endfacet
 facet normal 0.518773 0.854912 0
  outer loop
   vertex 0.0625 0.270331 0
   vertex 0.0671625 0.267502 0.5
   vertex 0.0671625 0.267502 0
  endloop
 endfacet
 facet normal 0.55557 0.83147 0
  outer loop
   vertex 0.0671625 0.267502 0.5
   vertex 0.0716971 0.264472 0.5
   vertex 0.0671625 0.267502 0
  endloop
 endfacet
 facet normal 0.55557 0.83147 0
  outer loop
   vertex 0.0671625 0.267502 0
   vertex 0.0716971 0.264472 0.5
   vertex 0.0716971 0.264472 0
  endloop
 endfacet
 facet normal 0.59131 0.806444 0
  outer loop
   vertex 0.0716971 0.264472 0.5
   vertex 0.0760952 0.261247 0.5
   vertex 0.0716971 0.264472 0
  endloop
 endfacet
 facet normal 0.59131 0.806444 0
  outer loop
   vertex 0.0716971 0.264472 0
   vertex 0.0760952 0.261247 0.5
   vertex 0.0760952 0.261247 0
  endloop
 endfacet
 facet normal 0.625923 0.779885 0
  outer loop
   vertex 0.0760952 0.261247 0.5
   vertex 0.0803485 0.257834 0.5
   vertex 0.0760952 0.261247 0
  endloop
 endfacet
 facet normal 0.625923 0.779885 0
  outer loop
   vertex 0.0760952 0.261247 0
   vertex 0.0803485 0.257834 0.5
   vertex 0.0803485 0.257834 0
  endloop
 endfacet
 facet normal 0.659346 0.75184 0
  outer loop
   vertex 0.0803485 0.257834 0.5
   vertex 0.0844488 0.254238 0.5
   vertex 0.0803485 0.257834 0
  endloop
 endfacet
 facet normal 0.659346 0.75184 0
  outer loop
   vertex 0.0803485 0.257834 0
   vertex 0.0844488 0.254238 0.5
   vertex 0.0844488 0.254238 0
  endloop
 endfacet
 facet normal 0.691513 0.722364 0
  outer loop
   vertex 0.0844488 0.254238 0.5
   vertex 0.0883883 0.250466 0.5
   vertex 0.0844488 0.254238 0
  endloop
 endfacet
 facet normal 0.691513 0.722364 0
  outer loop
   vertex 0.0844488 0.254238 0
   vertex 0.0883883 0.250466 0.5
   vertex 0.0883883 0.250466 0
  endloop
 endfacet
 facet normal 0.722364 0.691513 0
  outer loop
   vertex 0.0883883 0.250466 0.5
   vertex 0.0921597 0.246527 0.5
   vertex 0.0883883 0.250466 0
  endloop
 endfacet
 facet normal 0.722364 0.691513 0
  outer loop
   vertex 0.0883883 0.250466 0
   vertex 0.0921597 0.246527 0.5
   vertex 0.0921597 0.246527 0
  endloop
 endfacet
 facet normal 0.75184 0.659346 0
  outer loop
   vertex 0.0921597 0.246527 0.5
   vertex 0.0957556 0.242426 0.5
   vertex 0.0921597 0.246527 0
  endloop
 endfacet
 facet normal 0.75184 0.659346 0
  outer loop
   vertex 0.0921597 0.246527 0
   vertex 0.0957556 0.242426 0.5
   vertex 0.0957556 0.242426 0
  endloop
 endfacet
 facet normal 0.779885 0.625923 0
  outer loop
   vertex 0.0957556 0.242426 0.5
   vertex 0.0991692 0.238173 0.5
   vertex 0.0957556 0.242426 0
  endloop
 endfacet
 facet normal 0.779885 0.625923 0
  outer loop
   vertex 0.0957556 0.242426 0
   vertex 0.0991692 0.238173 0.5
   vertex 0.0991692 0.238173 0
  endloop
 endfacet
 facet normal 0.806444 0.59131 0
  outer loop
   vertex 0.0991692 0.238173 0.5
   vertex 0.102394 0.233775 0.5
   vertex 0.0991692 0.238173 0
  endloop
 endfacet
 facet normal 0.806444 0.59131 0
  outer loop
   vertex 0.0991692 0.238173 0
   vertex 0.102394 0.233775 0.5
   vertex 0.102394 0.233775 0
  endloop
 endfacet
 facet normal 0.83147 0.55557 0
  outer loop
   vertex 0.102394 0.233775 0.5
   vertex 0.105424 0.22924 0.5
   vertex 0.102394 0.233775 0
  endloop
 endfacet
 facet normal 0.83147 0.55557 0
  outer loop
   vertex 0.102394 0.233775 0
   vertex 0.105424 0.22924 0.5
   vertex 0.105424 0.22924 0
  endloop
 endfacet
 facet normal 0.854912 0.518773 0
  outer loop
   vertex 0.105424 0.22924 0.5
   vertex 0.108253 0.224578 0.5
   vertex 0.105424 0.22924 0
  endloop
 endfacet
 facet normal 0.854912 0.518773 0
  outer loop
   vertex 0.105424 0.22924 0
   vertex 0.108253 0.224578 0.5
   vertex 0.108253 0.224578 0
  endloop
 endfacet
 facet normal 0.876727 0.480989 0
  outer loop
   vertex 0.108253 0.224578 0.5
   vertex 0.110876 0.219797 0.5
   vertex 0.108253 0.224578 0
  endloop
 endfacet
 facet normal 0.876727 0.480989 0
  outer loop
   vertex 0.108253 0.224578 0
   vertex 0.110876 0.219797 0.5
   vertex 0.110876 0.219797 0
  endloop
 endfacet
 facet normal 0.896872 0.44229 0
  outer loop
   vertex 0.110876 0.219797 0.5
   vertex 0.113288 0.214905 0.5
   vertex 0.110876 0.219797 0
  endloop
 endfacet
 facet normal 0.896872 0.44229 0
  outer loop
   vertex 0.110876 0.219797 0
   vertex 0.113288 0.214905 0.5
   vertex 0.113288 0.214905 0
  endloop
 endfacet
 facet normal 0.915312 0.402745 0
  outer loop
   vertex 0.113288 0.214905 0.5
   vertex 0.115485 0.209913 0.5
   vertex 0.113288 0.214905 0
  endloop
 endfacet
 facet normal 0.915312 0.402745 0
  outer loop
   vertex 0.113288 0.214905 0
   vertex 0.115485 0.209913 0.5
   vertex 0.115485 0.209913 0
  endloop
 endfacet
 facet normal 0.932008 0.362439 0
  outer loop
   vertex 0.115485 0.209913 0.5
   vertex 0.117462 0.204831 0.5
   vertex 0.115485 0.209913 0
  endloop
 endfacet
 facet normal 0.932008 0.362439 0
  outer loop
   vertex 0.115485 0.209913 0
   vertex 0.117462 0.204831 0.5
   vertex 0.117462 0.204831 0
  endloop
 endfacet
 facet normal 0.94693 0.321439 0
  outer loop
   vertex 0.117462 0.204831 0.5
   vertex 0.119215 0.199666 0.5
   vertex 0.117462 0.204831 0
  endloop
 endfacet
 facet normal 0.94693 0.321439 0
  outer loop
   vertex 0.117462 0.204831 0
   vertex 0.119215 0.199666 0.5
   vertex 0.119215 0.199666 0
  endloop
 endfacet
 facet normal 0.96005 0.279829 0
  outer loop
   vertex 0.119215 0.199666 0.5
   vertex 0.120741 0.19443 0.5
   vertex 0.119215 0.199666 0
  endloop
 endfacet
 facet normal 0.96005 0.279829 0
  outer loop
   vertex 0.119215 0.199666 0
   vertex 0.120741 0.19443 0.5
   vertex 0.120741 0.19443 0
  endloop
 endfacet
 facet normal 0.971342 0.237686 0
  outer loop
   vertex 0.120741 0.19443 0.5
   vertex 0.122037 0.189133 0.5
   vertex 0.120741 0.19443 0
  endloop
 endfacet
 facet normal 0.971342 0.237686 0
  outer loop
   vertex 0.120741 0.19443 0
   vertex 0.122037 0.189133 0.5
   vertex 0.122037 0.189133 0
  endloop
 endfacet
 facet normal 0.980785 0.19509 0
  outer loop
   vertex 0.122037 0.189133 0.5
   vertex 0.123101 0.183784 0.5
   vertex 0.122037 0.189133 0
  endloop
 endfacet
 facet normal 0.980785 0.19509 0
  outer loop
   vertex 0.122037 0.189133 0
   vertex 0.123101 0.183784 0.5
   vertex 0.123101 0.183784 0
  endloop
 endfacet
 facet normal 0.988361 0.152124 0
  outer loop
   vertex 0.123101 0.183784 0.5
   vertex 0.123931 0.178394 0.5
   vertex 0.123101 0.183784 0
  endloop
 endfacet
 facet normal 0.988361 0.152124 0
  outer loop
   vertex 0.123101 0.183784 0
   vertex 0.123931 0.178394 0.5
   vertex 0.123931 0.178394 0
  endloop
 endfacet
 facet normal 0.994056 0.108867 0
  outer loop
   vertex 0.123931 0.178394 0.5
   vertex 0.124524 0.172972 0.5
   vertex 0.123931 0.178394 0
  endloop
 endfacet
 facet normal 0.994056 0.108867 0
  outer loop
   vertex 0.123931 0.178394 0
   vertex 0.124524 0.172972 0.5
   vertex 0.124524 0.172972 0
  endloop
 endfacet
 facet normal 0.997859 0.0654029 0
  outer loop
   vertex 0.124524 0.172972 0.5
   vertex 0.124881 0.16753 0.5
   vertex 0.124524 0.172972 0
  endloop
 endfacet
 facet normal 0.997859 0.0654029 0
  outer loop
   vertex 0.124524 0.172972 0
   vertex 0.124881 0.16753 0.5
   vertex 0.124881 0.16753 0
  endloop
 endfacet
 facet normal 0.999762 0.0218146 0
  outer loop
   vertex 0.124881 0.16753 0.5
   vertex 0.125 0.162078 0.5
   vertex 0.124881 0.16753 0
  endloop
 endfacet
 facet normal 0.999762 0.0218146 -1.20367e-18
  outer loop
   vertex 0.124881 0.16753 0
   vertex 0.125 0.162078 0.5
   vertex 0.125 0.162078 0
  endloop
 endfacet
 facet normal 0.999762 -0.0218146 1.21095e-18
  outer loop
   vertex 0.125 0.162078 0.5
   vertex 0.124881 0.156626 0.5
   vertex 0.125 0.162078 0
  endloop
 endfacet
 facet normal 0.999762 -0.0218146 0
  outer loop
   vertex 0.125 0.162078 0
   vertex 0.124881 0.156626 0.5
   vertex 0.124881 0.156626 0
  endloop
 endfacet
 facet normal 0.997859 -0.0654029 0
  outer loop
   vertex 0.124881 0.156626 0.5
   vertex 0.124524 0.151184 0.5
   vertex 0.124881 0.156626 0
  endloop
 endfacet
 facet normal 0.997859 -0.0654029 0
  outer loop
   vertex 0.124881 0.156626 0
   vertex 0.124524 0.151184 0.5
   vertex 0.124524 0.151184 0
  endloop
 endfacet
 facet normal 0.994056 -0.108867 0
  outer loop
   vertex 0.124524 0.151184 0.5
   vertex 0.123931 0.145762 0.5
   vertex 0.124524 0.151184 0
  endloop
 endfacet
 facet normal 0.994056 -0.108867 0
  outer loop
   vertex 0.124524 0.151184 0
   vertex 0.123931 0.145762 0.5
   vertex 0.123931 0.145762 0
  endloop
 endfacet
 facet normal 0.988361 -0.152124 0
  outer loop
   vertex 0.123931 0.145762 0.5
   vertex 0.123101 0.140372 0.5
   vertex 0.123931 0.145762 0
  endloop
 endfacet
 facet normal 0.988361 -0.152124 0
  outer loop
   vertex 0.123931 0.145762 0
   vertex 0.123101 0.140372 0.5
   vertex 0.123101 0.140372 0
  endloop
 endfacet
 facet normal 0.980785 -0.19509 0
  outer loop
   vertex 0.123101 0.140372 0.5
   vertex 0.122037 0.135023 0.5
   vertex 0.123101 0.140372 0
  endloop
 endfacet
 facet normal 0.980785 -0.19509 0
  outer loop
   vertex 0.123101 0.140372 0
   vertex 0.122037 0.135023 0.5
   vertex 0.122037 0.135023 0
  endloop
 endfacet
 facet normal 0.971342 -0.237686 0
  outer loop
   vertex 0.122037 0.135023 0.5
   vertex 0.120741 0.129726 0.5
   vertex 0.122037 0.135023 0
  endloop
 endfacet
 facet normal 0.971342 -0.237686 0
  outer loop
   vertex 0.122037 0.135023 0
   vertex 0.120741 0.129726 0.5
   vertex 0.120741 0.129726 0
  endloop
 endfacet
 facet normal 0.96005 -0.279829 0
  outer loop
   vertex 0.120741 0.129726 0.5
   vertex 0.119215 0.12449 0.5
   vertex 0.120741 0.129726 0
  endloop
 endfacet
 facet normal 0.96005 -0.279829 0
  outer loop
   vertex 0.120741 0.129726 0
   vertex 0.119215 0.12449 0.5
   vertex 0.119215 0.12449 0
  endloop
 endfacet
 facet normal 0.94693 -0.321439 0
  outer loop
   vertex 0.119215 0.12449 0.5
   vertex 0.117462 0.119325 0.5
   vertex 0.119215 0.12449 0
  endloop
 endfacet
 facet normal 0.94693 -0.321439 0
  outer loop
   vertex 0.119215 0.12449 0
   vertex 0.117462 0.119325 0.5
   vertex 0.117462 0.119325 0
  endloop
 endfacet
 facet normal 0.932008 -0.362439 0
  outer loop
   vertex 0.117462 0.119325 0.5
   vertex 0.115485 0.114243 0.5
   vertex 0.117462 0.119325 0
  endloop
 endfacet
 facet normal 0.932008 -0.362439 0
  outer loop
   vertex 0.117462 0.119325 0
   vertex 0.115485 0.114243 0.5
   vertex 0.115485 0.114243 0
  endloop
 endfacet
 facet normal 0.915312 -0.402745 0
  outer loop
   vertex 0.115485 0.114243 0.5
   vertex 0.113288 0.109251 0.5
   vertex 0.115485 0.114243 0
  endloop
 endfacet
 facet normal 0.915312 -0.402745 0
  outer loop
   vertex 0.115485 0.114243 0
   vertex 0.113288 0.109251 0.5
   vertex 0.113288 0.109251 0
  endloop
 endfacet
 facet normal 0.896872 -0.44229 0
  outer loop
   vertex 0.113288 0.109251 0.5
   vertex 0.110876 0.104359 0.5
   vertex 0.113288 0.109251 0
  endloop
 endfacet
 facet normal 0.896872 -0.44229 0
  outer loop
   vertex 0.113288 0.109251 0
   vertex 0.110876 0.104359 0.5
   vertex 0.110876 0.104359 0
  endloop
 endfacet
 facet normal 0.876727 -0.480989 0
  outer loop
   vertex 0.110876 0.104359 0.5
   vertex 0.108253 0.099578 0.5
   vertex 0.110876 0.104359 0
  endloop
 endfacet
 facet normal 0.876727 -0.480989 0
  outer loop
   vertex 0.110876 0.104359 0
   vertex 0.108253 0.099578 0.5
   vertex 0.108253 0.099578 0
  endloop
 endfacet
 facet normal 0.854912 -0.518773 0
  outer loop
   vertex 0.108253 0.099578 0.5
   vertex 0.105424 0.0949156 0.5
   vertex 0.108253 0.099578 0
  endloop
 endfacet
 facet normal 0.854912 -0.518773 0
  outer loop
   vertex 0.108253 0.099578 0
   vertex 0.105424 0.0949156 0.5
   vertex 0.105424 0.0949156 0
  endloop
 endfacet
 facet normal 0.83147 -0.55557 0
  outer loop
   vertex 0.105424 0.0949156 0.5
   vertex 0.102394 0.090381 0.5
   vertex 0.105424 0.0949156 0
  endloop
 endfacet
 facet normal 0.83147 -0.55557 0
  outer loop
   vertex 0.105424 0.0949156 0
   vertex 0.102394 0.090381 0.5
   vertex 0.102394 0.090381 0
  endloop
 endfacet
 facet normal 0.806444 -0.59131 0
  outer loop
   vertex 0.102394 0.090381 0.5
   vertex 0.0991692 0.0859828 0.5
   vertex 0.102394 0.090381 0
  endloop
 endfacet
 facet normal 0.806444 -0.59131 0
  outer loop
   vertex 0.102394 0.090381 0
   vertex 0.0991692 0.0859828 0.5
   vertex 0.0991692 0.0859828 0
  endloop
 endfacet
 facet normal 0.779885 -0.625923 0
  outer loop
   vertex 0.0991692 0.0859828 0.5
   vertex 0.0957556 0.0817296 0.5
   vertex 0.0991692 0.0859828 0
  endloop
 endfacet
 facet normal 0.779885 -0.625923 0
  outer loop
   vertex 0.0991692 0.0859828 0
   vertex 0.0957556 0.0817296 0.5
   vertex 0.0957556 0.0817296 0
  endloop
 endfacet
 facet normal 0.75184 -0.659346 0
  outer loop
   vertex 0.0957556 0.0817296 0.5
   vertex 0.0921597 0.0776292 0.5
   vertex 0.0957556 0.0817296 0
  endloop
 endfacet
 facet normal 0.75184 -0.659346 0
  outer loop
   vertex 0.0957556 0.0817296 0
   vertex 0.0921597 0.0776292 0.5
   vertex 0.0921597 0.0776292 0
  endloop
 endfacet
 facet normal 0.722364 -0.691513 0
  outer loop
   vertex 0.0921597 0.0776292 0.5
   vertex 0.0883883 0.0736897 0.5
   vertex 0.0921597 0.0776292 0
  endloop
 endfacet
 facet normal 0.722364 -0.691513 0
  outer loop
   vertex 0.0921597 0.0776292 0
   vertex 0.0883883 0.0736897 0.5
   vertex 0.0883883 0.0736897 0
  endloop
 endfacet
 facet normal 0.691513 -0.722364 0
  outer loop
   vertex 0.0883883 0.0736897 0.5
   vertex 0.0844488 0.0699183 0.5
   vertex 0.0883883 0.0736897 0
  endloop
 endfacet
 facet normal 0.691513 -0.722364 0
  outer loop
   vertex 0.0883883 0.0736897 0
   vertex 0.0844488 0.0699183 0.5
   vertex 0.0844488 0.0699183 0
  endloop
 endfacet
 facet normal 0.659346 -0.75184 0
  outer loop
   vertex 0.0844488 0.0699183 0.5
   vertex 0.0803485 0.0663225 0.5
   vertex 0.0844488 0.0699183 0
  endloop
 endfacet
 facet normal 0.659346 -0.75184 0
  outer loop
   vertex 0.0844488 0.0699183 0
   vertex 0.0803485 0.0663225 0.5
   vertex 0.0803485 0.0663225 0
  endloop
 endfacet
 facet normal 0.625923 -0.779885 0
  outer loop
   vertex 0.0803485 0.0663225 0.5
   vertex 0.0760952 0.0629088 0.5
   vertex 0.0803485 0.0663225 0
  endloop
 endfacet
 facet normal 0.625923 -0.779885 0
  outer loop
   vertex 0.0803485 0.0663225 0
   vertex 0.0760952 0.0629088 0.5
   vertex 0.0760952 0.0629088 0
  endloop
 endfacet
 facet normal 0.59131 -0.806444 0
  outer loop
   vertex 0.0760952 0.0629088 0.5
   vertex 0.0716971 0.059684 0.5
   vertex 0.0760952 0.0629088 0
  endloop
 endfacet
 facet normal 0.59131 -0.806444 0
  outer loop
   vertex 0.0760952 0.0629088 0
   vertex 0.0716971 0.059684 0.5
   vertex 0.0716971 0.059684 0
  endloop
 endfacet
 facet normal 0.55557 -0.83147 0
  outer loop
   vertex 0.0716971 0.059684 0.5
   vertex 0.0671625 0.0566541 0.5
   vertex 0.0716971 0.059684 0
  endloop
 endfacet
 facet normal 0.55557 -0.83147 0
  outer loop
   vertex 0.0716971 0.059684 0
   vertex 0.0671625 0.0566541 0.5
   vertex 0.0671625 0.0566541 0
  endloop
 endfacet
 facet normal 0.518773 -0.854912 0
  outer loop
   vertex 0.0671625 0.0566541 0.5
   vertex 0.0625 0.0538248 0.5
   vertex 0.0671625 0.0566541 0
  endloop
 endfacet
 facet normal 0.518773 -0.854912 0
  outer loop
   vertex 0.0671625 0.0566541 0
   vertex 0.0625 0.0538248 0.5
   vertex 0.0625 0.0538248 0
  endloop
 endfacet
 facet normal 0.480989 -0.876727 0
  outer loop
   vertex 0.0625 0.0538248 0.5
   vertex 0.0577186 0.0512017 0.5
   vertex 0.0625 0.0538248 0
  endloop
 endfacet
 facet normal 0.480989 -0.876727 0
  outer loop
   vertex 0.0625 0.0538248 0
   vertex 0.0577186 0.0512017 0.5
   vertex 0.0577186 0.0512017 0
  endloop
 endfacet
 facet normal 0.44229 -0.896872 0
  outer loop
   vertex 0.0577186 0.0512017 0.5
   vertex 0.0528273 0.0487895 0.5
   vertex 0.0577186 0.0512017 0
  endloop
 endfacet
 facet normal 0.44229 -0.896872 0
  outer loop
   vertex 0.0577186 0.0512017 0
   vertex 0.0528273 0.0487895 0.5
   vertex 0.0528273 0.0487895 0
  endloop
 endfacet
 facet normal 0.402745 -0.915312 0
  outer loop
   vertex 0.0528273 0.0487895 0.5
   vertex 0.0478354 0.0465931 0.5
   vertex 0.0528273 0.0487895 0
  endloop
 endfacet
 facet normal 0.402745 -0.915312 0
  outer loop
   vertex 0.0528273 0.0487895 0
   vertex 0.0478354 0.0465931 0.5
   vertex 0.0478354 0.0465931 0
  endloop
 endfacet
 facet normal 0.362439 -0.932008 0
  outer loop
   vertex 0.0478354 0.0465931 0.5
   vertex 0.0427525 0.0446164 0.5
   vertex 0.0478354 0.0465931 0
  endloop
 endfacet
 facet normal 0.362439 -0.932008 0
  outer loop
   vertex 0.0478354 0.0465931 0
   vertex 0.0427525 0.0446164 0.5
   vertex 0.0427525 0.0446164 0
  endloop
 endfacet
 facet normal 0.321439 -0.94693 0
  outer loop
   vertex 0.0427525 0.0446164 0.5
   vertex 0.0375882 0.0428634 0.5
   vertex 0.0427525 0.0446164 0
  endloop
 endfacet
 facet normal 0.321439 -0.94693 0
  outer loop
   vertex 0.0427525 0.0446164 0
   vertex 0.0375882 0.0428634 0.5
   vertex 0.0375882 0.0428634 0
  endloop
 endfacet
 facet normal 0.279829 -0.96005 0
  outer loop
   vertex 0.0375882 0.0428634 0.5
   vertex 0.0323524 0.0413373 0.5
   vertex 0.0375882 0.0428634 0
  endloop
 endfacet
 facet normal 0.279829 -0.96005 0
  outer loop
   vertex 0.0375882 0.0428634 0
   vertex 0.0323524 0.0413373 0.5
   vertex 0.0323524 0.0413373 0
  endloop
 endfacet
 facet normal 0.237686 -0.971342 0
  outer loop
   vertex 0.0323524 0.0413373 0.5
   vertex 0.027055 0.040041 0.5
   vertex 0.0323524 0.0413373 0
  endloop
 endfacet
 facet normal 0.237686 -0.971342 0
  outer loop
   vertex 0.0323524 0.0413373 0
   vertex 0.027055 0.040041 0.5
   vertex 0.027055 0.040041 0
  endloop
 endfacet
 facet normal 0.19509 -0.980785 0
  outer loop
   vertex 0.027055 0.040041 0.5
   vertex 0.021706 0.038977 0.5
   vertex 0.027055 0.040041 0
  endloop
 endfacet
 facet normal 0.19509 -0.980785 0
  outer loop
   vertex 0.027055 0.040041 0
   vertex 0.021706 0.038977 0.5
   vertex 0.021706 0.038977 0
  endloop
 endfacet
 facet normal 0.152124 -0.988361 0
  outer loop
   vertex 0.021706 0.038977 0.5
   vertex 0.0163158 0.0381474 0.5
   vertex 0.021706 0.038977 0
  endloop
 endfacet
 facet normal 0.152124 -0.988361 0
  outer loop
   vertex 0.021706 0.038977 0
   vertex 0.0163158 0.0381474 0.5
   vertex 0.0163158 0.0381474 0
  endloop
 endfacet
 facet normal 0.108867 -0.994056 0
  outer loop
   vertex 0.0163158 0.0381474 0.5
   vertex 0.0108945 0.0375537 0.5
   vertex 0.0163158 0.0381474 0
  endloop
 endfacet
 facet normal 0.108867 -0.994056 0
  outer loop
   vertex 0.0163158 0.0381474 0
   vertex 0.0108945 0.0375537 0.5
   vertex 0.0108945 0.0375537 0
  endloop
 endfacet
 facet normal 0.0654029 -0.997859 0
  outer loop
   vertex 0.0108945 0.0375537 0.5
   vertex 0.00545242 0.037197 0.5
   vertex 0.0108945 0.0375537 0
  endloop
 endfacet
 facet normal 0.0654029 -0.997859 0
  outer loop
   vertex 0.0108945 0.0375537 0
   vertex 0.00545242 0.037197 0.5
   vertex 0.00545242 0.037197 0
  endloop
 endfacet
 facet normal 0.0218146 -0.999762 0
  outer loop
   vertex 0.00545242 0.037197 0.5
   vertex 2.29621e-17 0.037078 0.5
   vertex 0.00545242 0.037197 0
  endloop
 endfacet
 facet normal 0.0218146 -0.999762 0
  outer loop
   vertex 0.00545242 0.037197 0
   vertex 2.29621e-17 0.037078 0.5
   vertex 2.29621e-17 0.037078 0
  endloop
 endfacet
 facet normal -0.0218146 -0.999762 -0
  outer loop
   vertex 2.29621e-17 0.037078 0.5
   vertex -0.00545242 0.037197 0.5
   vertex 2.29621e-17 0.037078 0
  endloop
 endfacet
 facet normal -0.0218146 -0.999762 0
  outer loop
   vertex 2.29621e-17 0.037078 0
   vertex -0.00545242 0.037197 0.5
   vertex -0.00545242 0.037197 0
  endloop
 endfacet
 facet normal -0.0654029 -0.997859 -0
  outer loop
   vertex -0.00545242 0.037197 0.5
   vertex -0.0108945 0.0375537 0.5
   vertex -0.00545242 0.037197 0
  endloop
 endfacet
 facet normal -0.0654029 -0.997859 0
  outer loop
   vertex -0.00545242 0.037197 0
   vertex -0.0108945 0.0375537 0.5
   vertex -0.0108945 0.0375537 0
  endloop
 endfacet
 facet normal -0.108867 -0.994056 -0
  outer loop
   vertex -0.0108945 0.0375537 0.5
   vertex -0.0163158 0.0381474 0.5
   vertex -0.0108945 0.0375537 0
  endloop
 endfacet
 facet normal -0.108867 -0.994056 0
  outer loop
   vertex -0.0108945 0.0375537 0
   vertex -0.0163158 0.0381474 0.5
   vertex -0.0163158 0.0381474 0
  endloop
 endfacet
 facet normal -0.152124 -0.988361 -0
  outer loop
   vertex -0.0163158 0.0381474 0.5
   vertex -0.021706 0.038977 0.5
   vertex -0.0163158 0.0381474 0
  endloop
 endfacet
 facet normal -0.152124 -0.988361 0
  outer loop
   vertex -0.0163158 0.0381474 0
   vertex -0.021706 0.038977 0.5
   vertex -0.021706 0.038977 0
  endloop
 endfacet
 facet normal -0.19509 -0.980785 -0
  outer loop
   vertex -0.021706 0.038977 0.5
   vertex -0.027055 0.040041 0.5
   vertex -0.021706 0.038977 0
  endloop
 endfacet
 facet normal -0.19509 -0.980785 0
  outer loop
   vertex -0.021706 0.038977 0
   vertex -0.027055 0.040041 0.5
   vertex -0.027055 0.040041 0
  endloop
 endfacet
 facet normal -0.237686 -0.971342 -0
  outer loop
   vertex -0.027055 0.040041 0.5
   vertex -0.0323524 0.0413373 0.5
   vertex -0.027055 0.040041 0
  endloop
 endfacet
 facet normal -0.237686 -0.971342 0
  outer loop
   vertex -0.027055 0.040041 0
   vertex -0.0323524 0.0413373 0.5
   vertex -0.0323524 0.0413373 0
  endloop
 endfacet
 facet normal -0.279829 -0.96005 -0
  outer loop
   vertex -0.0323524 0.0413373 0.5
   vertex -0.0375882 0.0428634 0.5
   vertex -0.0323524 0.0413373 0
  endloop
 endfacet
 facet normal -0.279829 -0.96005 0
  outer loop
   vertex -0.0323524 0.0413373 0
   vertex -0.0375882 0.0428634 0.5
   vertex -0.0375882 0.0428634 0
  endloop
 endfacet
 facet normal -0.321439 -0.94693 -0
  outer loop
   vertex -0.0375882 0.0428634 0.5
   vertex -0.0427525 0.0446164 0.5
   vertex -0.0375882 0.0428634 0
  endloop
 endfacet
 facet normal -0.321439 -0.94693 0
  outer loop
   vertex -0.0375882 0.0428634 0
   vertex -0.0427525 0.0446164 0.5
   vertex -0.0427525 0.0446164 0
  endloop
 endfacet
 facet normal -0.362439 -0.932008 -0
  outer loop
   vertex -0.0427525 0.0446164 0.5
   vertex -0.0478354 0.0465931 0.5
   vertex -0.0427525 0.0446164 0
  endloop
 endfacet
 facet normal -0.362439 -0.932008 0
  outer loop
   vertex -0.0427525 0.0446164 0
   vertex -0.0478354 0.0465931 0.5
   vertex -0.0478354 0.0465931 0
  endloop
 endfacet
 facet normal -0.402745 -0.915312 -0
  outer loop
   vertex -0.0478354 0.0465931 0.5
   vertex -0.0528273 0.0487895 0.5
   vertex -0.0478354 0.0465931 0
  endloop
 endfacet
 facet normal -0.402745 -0.915312 0
  outer loop
   vertex -0.0478354 0.0465931 0
   vertex -0.0528273 0.0487895 0.5
   vertex -0.0528273 0.0487895 0
  endloop
 endfacet
 facet normal -0.44229 -0.896872 -0
  outer loop
   vertex -0.0528273 0.0487895 0.5
   vertex -0.0577186 0.0512017 0.5
   vertex -0.0528273 0.0487895 0
  endloop
 endfacet
 facet normal -0.44229 -0.896872 0
  outer loop
   vertex -0.0528273 0.0487895 0
   vertex -0.0577186 0.0512017 0.5
   vertex -0.0577186 0.0512017 0
  endloop
 endfacet
 facet normal -0.480989 -0.876727 -0
  outer loop
   vertex -0.0577186 0.0512017 0.5
   vertex -0.0625 0.0538248 0.5
   vertex -0.0577186 0.0512017 0
  endloop
 endfacet
 facet normal -0.480989 -0.876727 0
  outer loop
   vertex -0.0577186 0.0512017 0
   vertex -0.0625 0.0538248 0.5
   vertex -0.0625 0.0538248 0
  endloop
 endfacet
 facet normal -0.518773 -0.854912 -0
  outer loop
   vertex -0.0625 0.0538248 0.5
   vertex -0.0671625 0.0566541 0.5
   vertex -0.0625 0.0538248 0
  endloop
 endfacet
 facet normal -0.518773 -0.854912 0
  outer loop
   vertex -0.0625 0.0538248 0
   vertex -0.0671625 0.0566541 0.5
   vertex -0.0671625 0.0566541 0
  endloop
 endfacet
 facet normal -0.55557 -0.83147 -0
  outer loop
   vertex -0.0671625 0.0566541 0.5
   vertex -0.0716971 0.059684 0.5
   vertex -0.0671625 0.0566541 0
  endloop
 endfacet
 facet normal -0.55557 -0.83147 0
  outer loop
   vertex -0.0671625 0.0566541 0
   vertex -0.0716971 0.059684 0.5
   vertex -0.0716971 0.059684 0
  endloop
 endfacet
 facet normal -0.59131 -0.806444 -0
  outer loop
   vertex -0.0716971 0.059684 0.5
   vertex -0.0760952 0.0629088 0.5
   vertex -0.0716971 0.059684 0
  endloop
 endfacet
 facet normal -0.59131 -0.806444 0
  outer loop
   vertex -0.0716971 0.059684 0
   vertex -0.0760952 0.0629088 0.5
   vertex -0.0760952 0.0629088 0
  endloop
 endfacet
 facet normal -0.625923 -0.779885 -0
  outer loop
   vertex -0.0760952 0.0629088 0.5
   vertex -0.0803485 0.0663225 0.5
   vertex -0.0760952 0.0629088 0
  endloop
 endfacet
 facet normal -0.625923 -0.779885 0
  outer loop
   vertex -0.0760952 0.0629088 0
   vertex -0.0803485 0.0663225 0.5
   vertex -0.0803485 0.0663225 0
  endloop
 endfacet
 facet normal -0.659346 -0.75184 -0
  outer loop
   vertex -0.0803485 0.0663225 0.5
   vertex -0.0844488 0.0699183 0.5
   vertex -0.0803485 0.0663225 0
  endloop
 endfacet
 facet normal -0.659346 -0.75184 0
  outer loop
   vertex -0.0803485 0.0663225 0
   vertex -0.0844488 0.0699183 0.5
   vertex -0.0844488 0.0699183 0
  endloop
 endfacet
 facet normal -0.691513 -0.722364 -0
  outer loop
   vertex -0.0844488 0.0699183 0.5
   vertex -0.0883883 0.0736897 0.5
   vertex -0.0844488 0.0699183 0
  endloop
 endfacet
 facet normal -0.691513 -0.722364 0
  outer loop
   vertex -0.0844488 0.0699183 0
   vertex -0.0883883 0.0736897 0.5
   vertex -0.0883883 0.0736897 0
  endloop
 endfacet
 facet normal -0.722364 -0.691513 -0
  outer loop
   vertex -0.0883883 0.0736897 0.5
   vertex -0.0921597 0.0776292 0.5
   vertex -0.0883883 0.0736897 0
  endloop
 endfacet
 facet normal -0.722364 -0.691513 0
  outer loop
   vertex -0.0883883 0.0736897 0
   vertex -0.0921597 0.0776292 0.5
   vertex -0.0921597 0.0776292 0
  endloop
 endfacet
 facet normal -0.75184 -0.659346 -0
  outer loop
   vertex -0.0921597 0.0776292 0.5
   vertex -0.0957556 0.0817296 0.5
   vertex -0.0921597 0.0776292 0
  endloop
 endfacet
 facet normal -0.75184 -0.659346 0
  outer loop
   vertex -0.0921597 0.0776292 0
   vertex -0.0957556 0.0817296 0.5
   vertex -0.0957556 0.0817296 0
  endloop
 endfacet
 facet normal -0.779885 -0.625923 -0
  outer loop
   vertex -0.0957556 0.0817296 0.5
   vertex -0.0991692 0.0859828 0.5
   vertex -0.0957556 0.0817296 0
  endloop
 endfacet
 facet normal -0.779885 -0.625923 0
  outer loop
   vertex -0.0957556 0.0817296 0
   vertex -0.0991692 0.0859828 0.5
   vertex -0.0991692 0.0859828 0
  endloop
 endfacet
 facet normal -0.806444 -0.59131 -0
  outer loop
   vertex -0.0991692 0.0859828 0.5
   vertex -0.102394 0.090381 0.5
   vertex -0.0991692 0.0859828 0
  endloop
 endfacet
 facet normal -0.806444 -0.59131 0
  outer loop
   vertex -0.0991692 0.0859828 0
   vertex -0.102394 0.090381 0.5
   vertex -0.102394 0.090381 0
  endloop
 endfacet
 facet normal -0.83147 -0.55557 -0
  outer loop
   vertex -0.102394 0.090381 0.5
   vertex -0.105424 0.0949156 0.5
   vertex -0.102394 0.090381 0
  endloop
 endfacet
 facet normal -0.83147 -0.55557 0
  outer loop
   vertex -0.102394 0.090381 0
   vertex -0.105424 0.0949156 0.5
   vertex -0.105424 0.0949156 0
  endloop
 endfacet
 facet normal -0.854912 -0.518773 -0
  outer loop
   vertex -0.105424 0.0949156 0.5
   vertex -0.108253 0.099578 0.5
   vertex -0.105424 0.0949156 0
  endloop
 endfacet
 facet normal -0.854912 -0.518773 0
  outer loop
   vertex -0.105424 0.0949156 0
   vertex -0.108253 0.099578 0.5
   vertex -0.108253 0.099578 0
  endloop
 endfacet
 facet normal -0.876727 -0.480989 -0
  outer loop
   vertex -0.108253 0.099578 0.5
   vertex -0.110876 0.104359 0.5
   vertex -0.108253 0.099578 0
  endloop
 endfacet
 facet normal -0.876727 -0.480989 0
  outer loop
   vertex -0.108253 0.099578 0
   vertex -0.110876 0.104359 0.5
   vertex -0.110876 0.104359 0
  endloop
 endfacet
 facet normal -0.896872 -0.44229 -0
  outer loop
   vertex -0.110876 0.104359 0.5
   vertex -0.113288 0.109251 0.5
   vertex -0.110876 0.104359 0
  endloop
 endfacet
 facet normal -0.896872 -0.44229 0
  outer loop
   vertex -0.110876 0.104359 0
   vertex -0.113288 0.109251 0.5
   vertex -0.113288 0.109251 0
  endloop
 endfacet
 facet normal -0.915312 -0.402745 -0
  outer loop
   vertex -0.113288 0.109251 0.5
   vertex -0.115485 0.114243 0.5
   vertex -0.113288 0.109251 0
  endloop
 endfacet
 facet normal -0.915312 -0.402745 0
  outer loop
   vertex -0.113288 0.109251 0
   vertex -0.115485 0.114243 0.5
   vertex -0.115485 0.114243 0
  endloop
 endfacet
 facet normal -0.932008 -0.362439 -0
  outer loop
   vertex -0.115485 0.114243 0.5
   vertex -0.117462 0.119325 0.5
   vertex -0.115485 0.114243 0
  endloop
 endfacet
 facet normal -0.932008 -0.362439 0
  outer loop
   vertex -0.115485 0.114243 0
   vertex -0.117462 0.119325 0.5
   vertex -0.117462 0.119325 0
  endloop
 endfacet
 facet normal -0.94693 -0.321439 -0
  outer loop
   vertex -0.117462 0.119325 0.5
   vertex -0.119215 0.12449 0.5
   vertex -0.117462 0.119325 0
  endloop
 endfacet
 facet normal -0.94693 -0.321439 0
  outer loop
   vertex -0.117462 0.119325 0
   vertex -0.119215 0.12449 0.5
   vertex -0.119215 0.12449 0
  endloop
 endfacet
 facet normal -0.96005 -0.279829 -0
  outer loop
   vertex -0.119215 0.12449 0.5
   vertex -0.120741 0.129726 0.5
   vertex -0.119215 0.12449 0
  endloop
 endfacet
 facet normal -0.96005 -0.279829 0
  outer loop
   vertex -0.119215 0.12449 0
   vertex -0.120741 0.129726 0.5
   vertex -0.120741 0.129726 0
  endloop
 endfacet
 facet normal -0.971342 -0.237686 -0
  outer loop
   vertex -0.120741 0.129726 0.5
   vertex -0.122037 0.135023 0.5
   vertex -0.120741 0.129726 0
  endloop
 endfacet
 facet normal -0.971342 -0.237686 0
  outer loop
   vertex -0.120741 0.129726 0
   vertex -0.122037 0.135023 0.5
   vertex -0.122037 0.135023 0
  endloop
 endfacet
 facet normal -0.980785 -0.19509 -0
  outer loop
   vertex -0.122037 0.135023 0.5
   vertex -0.123101 0.140372 0.5
   vertex -0.122037 0.135023 0
  endloop
 endfacet
 facet normal -0.980785 -0.19509 0
  outer loop
   vertex -0.122037 0.135023 0
   vertex -0.123101 0.140372 0.5
   vertex -0.123101 0.140372 0
  endloop
 endfacet
 facet normal -0.988361 -0.152124 -0
  outer loop
   vertex -0.123101 0.140372 0.5
   vertex -0.123931 0.145762 0.5
   vertex -0.123101 0.140372 0
  endloop
 endfacet
 facet normal -0.988361 -0.152124 0
  outer loop
   vertex -0.123101 0.140372 0
   vertex -0.123931 0.145762 0.5
   vertex -0.123931 0.145762 0
  endloop
 endfacet
 facet normal -0.994056 -0.108867 -0
  outer loop
   vertex -0.123931 0.145762 0.5
   vertex -0.124524 0.151184 0.5
   vertex -0.123931 0.145762 0
  endloop
 endfacet
 facet normal -0.994056 -0.108867 0
  outer loop
   vertex -0.123931 0.145762 0
   vertex -0.124524 0.151184 0.5
   vertex -0.124524 0.151184 0
  endloop
 endfacet
 facet normal -0.997859 -0.0654029 -0
  outer loop
   vertex -0.124524 0.151184 0.5
   vertex -0.124881 0.156626 0.5
   vertex -0.124524 0.151184 0
  endloop
 endfacet
 facet normal -0.997859 -0.0654029 0
  outer loop
   vertex -0.124524 0.151184 0
   vertex -0.124881 0.156626 0.5
   vertex -0.124881 0.156626 0
  endloop
 endfacet
 facet normal -0.999762 -0.0218146 -0
  outer loop
   vertex -0.124881 0.156626 0.5
   vertex -0.125 0.162078 0.5
   vertex -0.124881 0.156626 0
  endloop
 endfacet
 facet normal -0.999762 -0.0218146 0
  outer loop
   vertex -0.124881 0.156626 0
   vertex -0.125 0.162078 0.5
   vertex -0.125 0.162078 0
  endloop
 endfacet
 facet normal -0.999762 0.0218146 0
  outer loop
   vertex -0.125 0.162078 0.5
   vertex -0.124881 0.16753 0.5
   vertex -0.125 0.162078 0
  endloop
 endfacet
 facet normal 0 -0 1
  outer loop
   vertex 0.124524 0.151184 0.5
   vertex 0.124881 0.156626 0.5
   vertex 0 0.162078 0.5
  endloop
 endfacet
 facet normal 0 -0 1
  outer loop
   vertex 0.124881 0.156626 0.5
   vertex 0.125 0.162078 0.5
   vertex 0 0.162078 0.5
  endloop
 endfacet
 facet normal 0 0 1
  outer loop
   vertex 0 0.162078 0.5
   vertex 0.125 0.162078 0.5
   vertex 0.124881 0.16753 0.5
  endloop
 endfacet
 facet normal 0 -0 1
  outer loop
   vertex 0.122037 0.135023 0.5
   vertex 0.123101 0.140372 0.5
   vertex 0 0.162078 0.5
  endloop
 endfacet
 facet normal 0 -0 1
  outer loop
   vertex 0.123101 0.140372 0.5
   vertex 0.123931 0.145762 0.5
   vertex 0 0.162078 0.5
  endloop
 endfacet
 facet normal 0 0 1
  outer loop
   vertex 0 0.162078 0.5
   vertex 0.123931 0.145762 0.5
   vertex 0.124524 0.151184 0.5
  endloop
 endfacet
 facet normal 0 -0 1
  outer loop
   vertex 0.117462 0.119325 0.5
   vertex 0.119215 0.12449 0.5
   vertex 0 0.162078 0.5
  endloop
 endfacet
 facet normal 0 -0 1
  outer loop
   vertex 0.119215 0.12449 0.5
   vertex 0.120741 0.129726 0.5
   vertex 0 0.162078 0.5
  endloop
 endfacet
 facet normal 0 0 1
  outer loop
   vertex 0 0.162078 0.5
   vertex 0.120741 0.129726 0.5
   vertex 0.122037 0.135023 0.5
  endloop
 endfacet
 facet normal 0 -0 1
  outer loop
   vertex 0.110876 0.104359 0.5
   vertex 0.113288 0.109251 0.5
   vertex 0 0.162078 0.5
  endloop
 endfacet
 facet normal 0 -0 1
  outer loop
   vertex 0.113288 0.109251 0.5
   vertex 0.115485 0.114243 0.5
   vertex 0 0.162078 0.5
  endloop
 endfacet
 facet normal 0 0 1
  outer loop
   vertex 0 0.162078 0.5
   vertex 0.115485 0.114243 0.5
   vertex 0.117462 0.119325 0.5
  endloop
 endfacet
 facet normal 0 -0 1
  outer loop
   vertex 0.102394 0.090381 0.5
   vertex 0.105424 0.0949156 0.5
   vertex 0 0.162078 0.5
  endloop
 endfacet
 facet normal 0 -0 1
  outer loop
   vertex 0.105424 0.0949156 0.5
   vertex 0.108253 0.099578 0.5
   vertex 0 0.162078 0.5
  endloop
 endfacet
 facet normal 0 0 1
  outer loop
   vertex 0 0.162078 0.5
   vertex 0.108253 0.099578 0.5
   vertex 0.110876 0.104359 0.5
  endloop
 endfacet
 facet normal 0 -0 1
  outer loop
   vertex 0.0921597 0.0776292 0.5
   vertex 0.0957556 0.0817296 0.5
   vertex 0 0.162078 0.5
  endloop
 endfacet
 facet normal 0 -0 1
  outer loop
   vertex 0.0957556 0.0817296 0.5
   vertex 0.0991692 0.0859828 0.5
   vertex 0 0.162078 0.5
  endloop
 endfacet
 facet normal 0 0 1
  outer loop
   vertex 0 0.162078 0.5
   vertex 0.0991692 0.0859828 0.5
   vertex 0.102394 0.090381 0.5
  endloop
 endfacet
 facet normal 0 -0 1
  outer loop
   vertex 0.0803485 0.0663225 0.5
   vertex 0.0844488 0.0699183 0.5
   vertex 0 0.162078 0.5
  endloop
 endfacet
 facet normal 0 -0 1
  outer loop
   vertex 0.0844488 0.0699183 0.5
   vertex 0.0883883 0.0736897 0.5
   vertex 0 0.162078 0.5
  endloop
 endfacet
 facet normal 0 0 1
  outer loop
   vertex 0 0.162078 0.5
   vertex 0.0883883 0.0736897 0.5
   vertex 0.0921597 0.0776292 0.5
  endloop
 endfacet
 facet normal 0 -0 1
  outer loop
   vertex 0.0671625 0.0566541 0.5
   vertex 0.0716971 0.059684 0.5
   vertex 0 0.162078 0.5
  endloop
 endfacet
 facet normal 0 -0 1
  outer loop
   vertex 0.0716971 0.059684 0.5
   vertex 0.0760952 0.0629088 0.5
   vertex 0 0.162078 0.5
  endloop
 endfacet
 facet normal 0 0 1
  outer loop
   vertex 0 0.162078 0.5
   vertex 0.0760952 0.0629088 0.5
   vertex 0.0803485 0.0663225 0.5
  endloop
 endfacet
 facet normal 0 -0 1
  outer loop
   vertex 0.0528273 0.0487895 0.5
   vertex 0.0577186 0.0512017 0.5
   vertex 0 0.162078 0.5
  endloop
 endfacet
 facet normal 0 -0 1
  outer loop
   vertex 0.0577186 0.0512017 0.5
   vertex 0.0625 0.0538248 0.5
   vertex 0 0.162078 0.5
  endloop
 endfacet
 facet normal 0 0 1
  outer loop
   vertex 0 0.162078 0.5
   vertex 0.0625 0.0538248 0.5
   vertex 0.0671625 0.0566541 0.5
  endloop
 endfacet
 facet normal 0 -0 1
  outer loop
   vertex 0.0375882 0.0428634 0.5
   vertex 0.0427525 0.0446164 0.5
   vertex 0 0.162078 0.5
  endloop
 endfacet
 facet normal 0 -0 1
  outer loop
   vertex 0.0427525 0.0446164 0.5
   vertex 0.0478354 0.0465931 0.5
   vertex 0 0.162078 0.5
  endloop
 endfacet
 facet normal 0 0 1
  outer loop
   vertex 0 0.162078 0.5
   vertex 0.0478354 0.0465931 0.5
   vertex 0.0528273 0.0487895 0.5
  endloop
 endfacet
 facet normal 0 -0 1
  outer loop
   vertex 0.021706 0.038977 0.5
   vertex 0.027055 0.040041 0.5
   vertex 0 0.162078 0.5
  endloop
 endfacet
 facet normal 0 -0 1
  outer loop
   vertex 0.027055 0.040041 0.5
   vertex 0.0323524 0.0413373 0.5
   vertex 0 0.162078 0.5
  endloop
 endfacet
 facet normal 0 0 1
  outer loop
   vertex 0 0.162078 0.5
   vertex 0.0323524 0.0413373 0.5
   vertex 0.0375882 0.0428634 0.5
  endloop
 endfacet
 facet normal 0 -0 1
  outer loop
   vertex 0.00545242 0.037197 0.5
   vertex 0.0108945 0.0375537 0.5
   vertex 0 0.162078 0.5
  endloop
 endfacet
 facet normal 0 -0 1
  outer loop
   vertex 0.0108945 0.0375537 0.5
   vertex 0.0163158 0.0381474 0.5
   vertex 0 0.162078 0.5
  endloop
 endfacet
 facet normal 0 0 1
  outer loop
   vertex 0 0.162078 0.5
   vertex 0.0163158 0.0381474 0.5
   vertex 0.021706 0.038977 0.5
  endloop
 endfacet
 facet normal -0 0 1
  outer loop
   vertex -0.0108945 0.0375537 0.5
   vertex -0.00545242 0.037197 0.5
   vertex 0 0.162078 0.5
  endloop
 endfacet
 facet normal -0 0 1
  outer loop
   vertex -0.00545242 0.037197 0.5
   vertex 2.29621e-17 0.037078 0.5
   vertex 0 0.162078 0.5
  endloop
 endfacet
 facet normal 0 0 1
  outer loop
   vertex 0 0.162078 0.5
   vertex 2.29621e-17 0.037078 0.5
   vertex 0.00545242 0.037197 0.5
  endloop
 endfacet
 facet normal -0 0 1
  outer loop
   vertex -0.027055 0.040041 0.5
   vertex -0.021706 0.038977 0.5
   vertex 0 0.162078 0.5
  endloop
 endfacet
 facet normal -0 0 1
  outer loop
   vertex -0.021706 0.038977 0.5
   vertex -0.0163158 0.0381474 0.5
   vertex 0 0.162078 0.5
  endloop
 endfacet
 facet normal 0 0 1
  outer loop
   vertex 0 0.162078 0.5
   vertex -0.0163158 0.0381474 0.5
   vertex -0.0108945 0.0375537 0.5
  endloop
 endfacet
 facet normal -0 0 1
  outer loop
   vertex -0.0427525 0.0446164 0.5
   vertex -0.0375882 0.0428634 0.5
   vertex 0 0.162078 0.5
  endloop
 endfacet
 facet normal -0 0 1
  outer loop
   vertex -0.0375882 0.0428634 0.5
   vertex -0.0323524 0.0413373 0.5
   vertex 0 0.162078 0.5
  endloop
 endfacet
 facet normal 0 0 1
  outer loop
   vertex 0 0.162078 0.5
   vertex -0.0323524 0.0413373 0.5
   vertex -0.027055 0.040041 0.5
  endloop
 endfacet
 facet normal -0 0 1
  outer loop
   vertex -0.0577186 0.0512017 0.5
   vertex -0.0528273 0.0487895 0.5
   vertex 0 0.162078 0.5
  endloop
 endfacet
 facet normal -0 0 1
  outer loop
   vertex -0.0528273 0.0487895 0.5
   vertex -0.0478354 0.0465931 0.5
   vertex 0 0.162078 0.5
  endloop
 endfacet
 facet normal 0 0 1
  outer loop
   vertex 0 0.162078 0.5
   vertex -0.0478354 0.0465931 0.5
   vertex -0.0427525 0.0446164 0.5
  endloop
 endfacet
 facet normal -0 0 1
  outer loop
   vertex -0.0716971 0.059684 0.5
   vertex -0.0671625 0.0566541 0.5
   vertex 0 0.162078 0.5
  endloop
 endfacet
 facet normal -0 0 1
  outer loop
   vertex -0.0671625 0.0566541 0.5
   vertex -0.0625 0.0538248 0.5
   vertex 0 0.162078 0.5
  endloop
 endfacet
 facet normal 0 0 1
  outer loop
   vertex 0 0.162078 0.5
   vertex -0.0625 0.0538248 0.5
   vertex -0.0577186 0.0512017 0.5
  endloop
 endfacet
 facet normal -0 0 1
  outer loop
   vertex -0.0844488 0.0699183 0.5
   vertex -0.0803485 0.0663225 0.5
   vertex 0 0.162078 0.5
  endloop
 endfacet
 facet normal -0 0 1
  outer loop
   vertex -0.0803485 0.0663225 0.5
   vertex -0.0760952 0.0629088 0.5
   vertex 0 0.162078 0.5
  endloop
 endfacet
 facet normal 0 0 1
  outer loop
   vertex 0 0.162078 0.5
   vertex -0.0760952 0.0629088 0.5
   vertex -0.0716971 0.059684 0.5
  endloop
 endfacet
 facet normal -0 0 1
  outer loop
   vertex -0.0957556 0.0817296 0.5
   vertex -0.0921597 0.0776292 0.5
   vertex 0 0.162078 0.5
  endloop
 endfacet
 facet normal -0 0 1
  outer loop
   vertex -0.0921597 0.0776292 0.5
   vertex -0.0883883 0.0736897 0.5
   vertex 0 0.162078 0.5
  endloop
 endfacet
 facet normal 0 0 1
  outer loop
   vertex 0 0.162078 0.5
   vertex -0.0883883 0.0736897 0.5
   vertex -0.0844488 0.0699183 0.5
  endloop
 endfacet
 facet normal -0 0 1
  outer loop
   vertex -0.105424 0.0949156 0.5
   vertex -0.102394 0.090381 0.5
   vertex 0 0.162078 0.5
  endloop
 endfacet
 facet normal -0 0 1
  outer loop
   vertex -0.102394 0.090381 0.5
   vertex -0.0991692 0.0859828 0.5
   vertex 0 0.162078 0.5
  endloop
 endfacet
 facet normal 0 0 1
  outer loop
   vertex 0 0.162078 0.5
   vertex -0.0991692 0.0859828 0.5
   vertex -0.0957556 0.0817296 0.5
  endloop
 endfacet
 facet normal -0 0 1
  outer loop
   vertex -0.113288 0.109251 0.5
   vertex -0.110876 0.104359 0.5
   vertex 0 0.162078 0.5
  endloop
 endfacet
 facet normal -0 0 1
  outer loop
   vertex -0.110876 0.104359 0.5
   vertex -0.108253 0.099578 0.5
   vertex 0 0.162078 0.5
  endloop
 endfacet
 facet normal 0 0 1
  outer loop
   vertex 0 0.162078 0.5
   vertex -0.108253 0.099578 0.5
   vertex -0.105424 0.0949156 0.5
  endloop
 endfacet
 facet normal -0 0 1
  outer loop
   vertex -0.119215 0.12449 0.5
   vertex -0.117462 0.119325 0.5
   vertex 0 0.162078 0.5
  endloop
 endfacet
 facet normal -0 0 1
  outer loop
   vertex -0.117462 0.119325 0.5
   vertex -0.115485 0.114243 0.5
   vertex 0 0.162078 0.5
  endloop
 endfacet
 facet normal 0 0 1
  outer loop
   vertex 0 0.162078 0.5
   vertex -0.115485 0.114243 0.5
   vertex -0.113288 0.109251 0.5
  endloop
 endfacet
 facet normal -0 0 1
  outer loop
   vertex -0.123101 0.140372 0.5
   vertex -0.122037 0.135023 0.5
   vertex 0 0.162078 0.5
  endloop
 endfacet
 facet normal -0 0 1
  outer loop
   vertex -0.122037 0.135023 0.5
   vertex -0.120741 0.129726 0.5
   vertex 0 0.162078 0.5
  endloop
 endfacet
 facet normal 0 0 1
  outer loop
   vertex 0 0.162078 0.5
   vertex -0.120741 0.129726 0.5
   vertex -0.119215 0.12449 0.5
  endloop
 endfacet
 facet normal -0 0 1
  outer loop
   vertex -0.124881 0.156626 0.5
   vertex -0.124524 0.151184 0.5
   vertex 0 0.162078 0.5
  endloop
 endfacet
 facet normal -0 0 1
  outer loop
   vertex -0.124524 0.151184 0.5
   vertex -0.123931 0.145762 0.5
   vertex 0 0.162078 0.5
  endloop
 endfacet
 facet normal 0 0 1
  outer loop
   vertex 0 0.162078 0.5
   vertex -0.123931 0.145762 0.5
   vertex -0.123101 0.140372 0.5
  endloop
 endfacet
 facet normal 0 0 1
  outer loop
   vertex -0.124524 0.172972 0.5
   vertex -0.124881 0.16753 0.5
   vertex 0 0.162078 0.5
  endloop
 endfacet
 facet normal 0 0 1
  outer loop
   vertex -0.124881 0.16753 0.5
   vertex -0.125 0.162078 0.5
   vertex 0 0.162078 0.5
  endloop
 endfacet
 facet normal 0 0 1
  outer loop
   vertex 0 0.162078 0.5
   vertex -0.125 0.162078 0.5
   vertex -0.124881 0.156626 0.5
  endloop
 endfacet
 facet normal 0 0 1
  outer loop
   vertex -0.122037 0.189133 0.5
   vertex -0.123101 0.183784 0.5
   vertex 0 0.162078 0.5
  endloop
 endfacet
 facet normal 0 0 1
  outer loop
   vertex -0.123101 0.183784 0.5
   vertex -0.123931 0.178394 0.5
   vertex 0 0.162078 0.5
  endloop
 endfacet
 facet normal 0 0 1
  outer loop
   vertex 0 0.162078 0.5
   vertex -0.123931 0.178394 0.5
   vertex -0.124524 0.172972 0.5
  endloop
 endfacet
 facet normal 0 0 1
  outer loop
   vertex -0.117462 0.204831 0.5
   vertex -0.119215 0.199666 0.5
   vertex 0 0.162078 0.5
  endloop
 endfacet
 facet normal 0 0 1
  outer loop
   vertex -0.119215 0.199666 0.5
   vertex -0.120741 0.19443 0.5
   vertex 0 0.162078 0.5
  endloop
 endfacet
 facet normal 0 0 1
  outer loop
   vertex 0 0.162078 0.5
   vertex -0.120741 0.19443 0.5
   vertex -0.122037 0.189133 0.5
  endloop
 endfacet
 facet normal 0 0 1
  outer loop
   vertex -0.110876 0.219797 0.5
   vertex -0.113288 0.214905 0.5
   vertex 0 0.162078 0.5
  endloop
 endfacet
 facet normal 0 0 1
  outer loop
   vertex -0.113288 0.214905 0.5
   vertex -0.115485 0.209913 0.5
   vertex 0 0.162078 0.5
  endloop
 endfacet
 facet normal 0 0 1
  outer loop
   vertex 0 0.162078 0.5
   vertex -0.115485 0.209913 0.5
   vertex -0.117462 0.204831 0.5
  endloop
 endfacet
 facet normal 0 0 1
  outer loop
   vertex -0.102394 0.233775 0.5
   vertex -0.105424 0.22924 0.5
   vertex 0 0.162078 0.5
  endloop
 endfacet
 facet normal 0 0 1
  outer loop
   vertex -0.105424 0.22924 0.5
   vertex -0.108253 0.224578 0.5
   vertex 0 0.162078 0.5
  endloop
 endfacet
 facet normal 0 0 1
  outer loop
   vertex 0 0.162078 0.5
   vertex -0.108253 0.224578 0.5
   vertex -0.110876 0.219797 0.5
  endloop
 endfacet
 facet normal 0 0 1
  outer loop
   vertex -0.0921597 0.246527 0.5
   vertex -0.0957556 0.242426 0.5
   vertex 0 0.162078 0.5
  endloop
 endfacet
 facet normal 0 0 1
  outer loop
   vertex -0.0957556 0.242426 0.5
   vertex -0.0991692 0.238173 0.5
   vertex 0 0.162078 0.5
  endloop
 endfacet
 facet normal 0 0 1
  outer loop
   vertex 0 0.162078 0.5
   vertex -0.0991692 0.238173 0.5
   vertex -0.102394 0.233775 0.5
  endloop
 endfacet
 facet normal 0 0 1
  outer loop
   vertex -0.0803485 0.257834 0.5
   vertex -0.0844488 0.254238 0.5
   vertex 0 0.162078 0.5
  endloop
 endfacet
 facet normal 0 0 1
  outer loop
   vertex -0.0844488 0.254238 0.5
   vertex -0.0883883 0.250466 0.5
   vertex 0 0.162078 0.5
  endloop
 endfacet
 facet normal 0 0 1
  outer loop
   vertex 0 0.162078 0.5
   vertex -0.0883883 0.250466 0.5
   vertex -0.0921597 0.246527 0.5
  endloop
 endfacet
 facet normal 0 0 1
  outer loop
   vertex -0.0671625 0.267502 0.5
   vertex -0.0716971 0.264472 0.5
   vertex 0 0.162078 0.5
  endloop
 endfacet
 facet normal 0 0 1
  outer loop
   vertex -0.0716971 0.264472 0.5
   vertex -0.0760952 0.261247 0.5
   vertex 0 0.162078 0.5
  endloop
 endfacet
 facet normal 0 0 1
  outer loop
   vertex 0 0.162078 0.5
   vertex -0.0760952 0.261247 0.5
   vertex -0.0803485 0.257834 0.5
  endloop
 endfacet
 facet normal 0 0 1
  outer loop
   vertex -0.0528273 0.275366 0.5
   vertex -0.0577186 0.272954 0.5
   vertex 0 0.162078 0.5
  endloop
 endfacet
 facet normal 0 0 1
  outer loop
   vertex -0.0577186 0.272954 0.5
   vertex -0.0625 0.270331 0.5
   vertex 0 0.162078 0.5
  endloop
 endfacet
 facet normal 0 0 1
  outer loop
   vertex 0 0.162078 0.5
   vertex -0.0625 0.270331 0.5
   vertex -0.0671625 0.267502 0.5
  endloop
 endfacet
 facet normal 0 0 1
  outer loop
   vertex -0.0375882 0.281293 0.5
   vertex -0.0427525 0.27954 0.5
   vertex 0 0.162078 0.5
  endloop
 endfacet
 facet normal 0 0 1
  outer loop
   vertex -0.0427525 0.27954 0.5
   vertex -0.0478354 0.277563 0.5
   vertex 0 0.162078 0.5
  endloop
 endfacet
 facet normal 0 0 1
  outer loop
   vertex 0 0.162078 0.5
   vertex -0.0478354 0.277563 0.5
   vertex -0.0528273 0.275366 0.5
  endloop
 endfacet
 facet normal 0 0 1
  outer loop
   vertex -0.021706 0.285179 0.5
   vertex -0.027055 0.284115 0.5
   vertex 0 0.162078 0.5
  endloop
 endfacet
 facet normal 0 0 1
  outer loop
   vertex -0.027055 0.284115 0.5
   vertex -0.0323524 0.282819 0.5
   vertex 0 0.162078 0.5
  endloop
 endfacet
 facet normal 0 0 1
  outer loop
   vertex 0 0.162078 0.5
   vertex -0.0323524 0.282819 0.5
   vertex -0.0375882 0.281293 0.5
  endloop
 endfacet
 facet normal 0 0 1
  outer loop
   vertex -0.00545242 0.286959 0.5
   vertex -0.0108945 0.286602 0.5
   vertex 0 0.162078 0.5
  endloop
 endfacet
 facet normal 0 0 1
  outer loop
   vertex -0.0108945 0.286602 0.5
   vertex -0.0163158 0.286009 0.5
   vertex 0 0.162078 0.5
  endloop
 endfacet
 facet normal 0 0 1
  outer loop
   vertex 0 0.162078 0.5
   vertex -0.0163158 0.286009 0.5
   vertex -0.021706 0.285179 0.5
  endloop
 endfacet
 facet normal 0 0 1
  outer loop
   vertex 0.0108945 0.286602 0.5
   vertex 0.00545242 0.286959 0.5
   vertex 0 0.162078 0.5
  endloop
 endfacet
 facet normal 0 0 1
  outer loop
   vertex 0.00545242 0.286959 0.5
   vertex -7.65404e-18 0.287078 0.5
   vertex 0 0.162078 0.5
  endloop
 endfacet
 facet normal 0 0 1
  outer loop
   vertex 0 0.162078 0.5
   vertex -7.65404e-18 0.287078 0.5
   vertex -0.00545242 0.286959 0.5
  endloop
 endfacet
 facet normal 0 0 1
  outer loop
   vertex 0.027055 0.284115 0.5
   vertex 0.021706 0.285179 0.5
   vertex 0 0.162078 0.5
  endloop
 endfacet
 facet normal 0 0 1
  outer loop
   vertex 0.021706 0.285179 0.5
   vertex 0.0163158 0.286009 0.5
   vertex 0 0.162078 0.5
  endloop
 endfacet
 facet normal 0 0 1
  outer loop
   vertex 0 0.162078 0.5
   vertex 0.0163158 0.286009 0.5
   vertex 0.0108945 0.286602 0.5
  endloop
 endfacet
 facet normal 0 0 1
  outer loop
   vertex 0.0427525 0.27954 0.5
   vertex 0.0375882 0.281293 0.5
   vertex 0 0.162078 0.5
  endloop
 endfacet
 facet normal 0 0 1
  outer loop
   vertex 0.0375882 0.281293 0.5
   vertex 0.0323524 0.282819 0.5
   vertex 0 0.162078 0.5
  endloop
 endfacet
 facet normal 0 0 1
  outer loop
   vertex 0 0.162078 0.5
   vertex 0.0323524 0.282819 0.5
   vertex 0.027055 0.284115 0.5
  endloop
 endfacet
 facet normal 0 0 1
  outer loop
   vertex 0.0577186 0.272954 0.5
   vertex 0.0528273 0.275366 0.5
   vertex 0 0.162078 0.5
  endloop
 endfacet
 facet normal 0 0 1
  outer loop
   vertex 0.0528273 0.275366 0.5
   vertex 0.0478354 0.277563 0.5
   vertex 0 0.162078 0.5
  endloop
 endfacet
 facet normal 0 0 1
  outer loop
   vertex 0 0.162078 0.5
   vertex 0.0478354 0.277563 0.5
   vertex 0.0427525 0.27954 0.5
  endloop
 endfacet
 facet normal 0 0 1
  outer loop
   vertex 0.0716971 0.264472 0.5
   vertex 0.0671625 0.267502 0.5
   vertex 0 0.162078 0.5
  endloop
 endfacet
 facet normal 0 0 1
  outer loop
   vertex 0.0671625 0.267502 0.5
   vertex 0.0625 0.270331 0.5
   vertex 0 0.162078 0.5
  endloop
 endfacet
 facet normal 0 0 1
  outer loop
   vertex 0 0.162078 0.5
   vertex 0.0625 0.270331 0.5
   vertex 0.0577186 0.272954 0.5
  endloop
 endfacet
 facet normal 0 0 1
  outer loop
   vertex 0.0844488 0.254238 0.5
   vertex 0.0803485 0.257834 0.5
   vertex 0 0.162078 0.5
  endloop
 endfacet
 facet normal 0 0 1
  outer loop
   vertex 0.0803485 0.257834 0.5
   vertex 0.0760952 0.261247 0.5
   vertex 0 0.162078 0.5
  endloop
 endfacet
 facet normal 0 0 1
  outer loop
   vertex 0 0.162078 0.5
   vertex 0.0760952 0.261247 0.5
   vertex 0.0716971 0.264472 0.5
  endloop
 endfacet
 facet normal 0 0 1
  outer loop
   vertex 0.0957556 0.242426 0.5
   vertex 0.0921597 0.246527 0.5
   vertex 0 0.162078 0.5
  endloop
 endfacet
 facet normal 0 0 1
  outer loop
   vertex 0.0921597 0.246527 0.5
   vertex 0.0883883 0.250466 0.5
   vertex 0 0.162078 0.5
  endloop
 endfacet
 facet normal 0 0 1
  outer loop
   vertex 0 0.162078 0.5
   vertex 0.0883883 0.250466 0.5
   vertex 0.0844488 0.254238 0.5
  endloop
 endfacet
 facet normal 0 0 1
  outer loop
   vertex 0.105424 0.22924 0.5
   vertex 0.102394 0.233775 0.5
   vertex 0 0.162078 0.5
  endloop
 endfacet
 facet normal 0 0 1
  outer loop
   vertex 0.102394 0.233775 0.5
   vertex 0.0991692 0.238173 0.5
   vertex 0 0.162078 0.5
  endloop
 endfacet
 facet normal 0 0 1
  outer loop
   vertex 0 0.162078 0.5
   vertex 0.0991692 0.238173 0.5
   vertex 0.0957556 0.242426 0.5
  endloop
 endfacet
 facet normal 0 0 1
  outer loop
   vertex 0.113288 0.214905 0.5
   vertex 0.110876 0.219797 0.5
   vertex 0 0.162078 0.5
  endloop
 endfacet
 facet normal 0 0 1
  outer loop
   vertex 0.110876 0.219797 0.5
   vertex 0.108253 0.224578 0.5
   vertex 0 0.162078 0.5
  endloop
 endfacet
 facet normal 0 0 1
  outer loop
   vertex 0 0.162078 0.5
   vertex 0.108253 0.224578 0.5
   vertex 0.105424 0.22924 0.5
  endloop
 endfacet
 facet normal 0 0 1
  outer loop
   vertex 0.119215 0.199666 0.5
   vertex 0.117462 0.204831 0.5
   vertex 0 0.162078 0.5
  endloop
 endfacet
 facet normal 0 0 1
  outer loop
   vertex 0.117462 0.204831 0.5
   vertex 0.115485 0.209913 0.5
   vertex 0 0.162078 0.5
  endloop
 endfacet
 facet normal 0 0 1
  outer loop
   vertex 0 0.162078 0.5
   vertex 0.115485 0.209913 0.5
   vertex 0.113288 0.214905 0.5
  endloop
 endfacet
 facet normal 0 0 1
  outer loop
   vertex 0.123101 0.183784 0.5
   vertex 0.122037 0.189133 0.5
   vertex 0 0.162078 0.5
  endloop
 endfacet
 facet normal 0 0 1
  outer loop
   vertex 0.122037 0.189133 0.5
   vertex 0.120741 0.19443 0.5
   vertex 0 0.162078 0.5
  endloop
 endfacet
 facet normal 0 0 1
  outer loop
   vertex 0 0.162078 0.5
   vertex 0.120741 0.19443 0.5
   vertex 0.119215 0.199666 0.5
  endloop
 endfacet
 facet normal 0 0 1
  outer loop
   vertex 0.124881 0.16753 0.5
   vertex 0.124524 0.172972 0.5
   vertex 0 0.162078 0.5
  endloop
 endfacet
 facet normal 0 0 1
  outer loop
   vertex 0.124524 0.172972 0.5
   vertex 0.123931 0.178394 0.5
   vertex 0 0.162078 0.5
  endloop
 endfacet
 facet normal 0 0 1
  outer loop
   vertex 0 0.162078 0.5
   vertex 0.123931 0.178394 0.5
   vertex 0.123101 0.183784 0.5
  endloop
 endfacet
endsolid zone0
