solid zone0
 facet normal 0 -0 -1
  outer loop
   vertex 0.124524 0.145894 0
   vertex 0.124881 0.140452 0
   vertex 0 0.135 0
  endloop
 endfacet
 facet normal 0 -0 -1
  outer loop
   vertex 0.124881 0.140452 0
   vertex 0.125 0.135 0
   vertex 0 0.135 0
  endloop
 endfacet
 facet normal 0 0 -1
  outer loop
   vertex 0 0.135 0
   vertex 0.125 0.135 0
   vertex 0.124881 0.129548 0
  endloop
 endfacet
 facet normal 0 -0 -1
  outer loop
   vertex 0.122037 0.162055 0
   vertex 0.123101 0.156706 0
   vertex 0 0.135 0
  endloop
 endfacet
 facet normal 0 -0 -1
  outer loop
   vertex 0.123101 0.156706 0
   vertex 0.123931 0.151316 0
   vertex 0 0.135 0
  endloop
 endfacet
 facet normal 0 0 -1
  outer loop
   vertex 0 0.135 0
   vertex 0.123931 0.151316 0
   vertex 0.124524 0.145894 0
  endloop
 endfacet
 facet normal 0 -0 -1
  outer loop
   vertex 0.117462 0.177753 0
   vertex 0.119215 0.172588 0
   vertex 0 0.135 0
  endloop
 endfacet
 facet normal 0 -0 -1
  outer loop
   vertex 0.119215 0.172588 0
   vertex 0.120741 0.167352 0
   vertex 0 0.135 0
  endloop
 endfacet
 facet normal 0 0 -1
  outer loop
   vertex 0 0.135 0
   vertex 0.120741 0.167352 0
   vertex 0.122037 0.162055 0
  endloop
 endfacet
 facet normal 0 -0 -1
  outer loop
   vertex 0.110876 0.192719 0
   vertex 0.113288 0.187827 0
   vertex 0 0.135 0
  endloop
 endfacet
 facet normal 0 -0 -1
  outer loop
   vertex 0.113288 0.187827 0
   vertex 0.115485 0.182835 0
   vertex 0 0.135 0
  endloop
 endfacet
 facet normal 0 0 -1
  outer loop
   vertex 0 0.135 0
   vertex 0.115485 0.182835 0
   vertex 0.117462 0.177753 0
  endloop
 endfacet
 facet normal 0 -0 -1
  outer loop
   vertex 0.102394 0.206697 0
   vertex 0.105424 0.202162 0
   vertex 0 0.135 0
  endloop
 endfacet
 facet normal 0 -0 -1
  outer loop
   vertex 0.105424 0.202162 0
   vertex 0.108253 0.1975 0
   vertex 0 0.135 0
  endloop
 endfacet
 facet normal 0 0 -1
  outer loop
   vertex 0 0.135 0
   vertex 0.108253 0.1975 0
   vertex 0.110876 0.192719 0
  endloop
 endfacet
 facet normal 0 -0 -1
  outer loop
   vertex 0.0921597 0.219449 0
   vertex 0.0957556 0.215348 0
   vertex 0 0.135 0
  endloop
 endfacet
 facet normal 0 -0 -1
  outer loop
   vertex 0.0957556 0.215348 0
   vertex 0.0991692 0.211095 0
   vertex 0 0.135 0
  endloop
 endfacet
 facet normal 0 0 -1
  outer loop
   vertex 0 0.135 0
   vertex 0.0991692 0.211095 0
   vertex 0.102394 0.206697 0
  endloop
 endfacet
 facet normal 0 -0 -1
  outer loop
   vertex 0.0803485 0.230756 0
   vertex 0.0844488 0.22716 0
   vertex 0 0.135 0
  endloop
 endfacet
 facet normal 0 -0 -1
  outer loop
   vertex 0.0844488 0.22716 0
   vertex 0.0883883 0.223388 0
   vertex 0 0.135 0
  endloop
 endfacet
 facet normal 0 0 -1
  outer loop
   vertex 0 0.135 0
   vertex 0.0883883 0.223388 0
   vertex 0.0921597 0.219449 0
  endloop
 endfacet
 facet normal 0 -0 -1
  outer loop
   vertex 0.0671625 0.240424 0
   vertex 0.0716971 0.237394 0
   vertex 0 0.135 0
  endloop
 endfacet
 facet normal 0 -0 -1
  outer loop
   vertex 0.0716971 0.237394 0
   vertex 0.0760952 0.234169 0
   vertex 0 0.135 0
  endloop
 endfacet
 facet normal 0 0 -1
  outer loop
   vertex 0 0.135 0
   vertex 0.0760952 0.234169 0
   vertex 0.0803485 0.230756 0
  endloop
 endfacet
 facet normal 0 -0 -1
  outer loop
   vertex 0.0528273 0.248288 0
   vertex 0.0577186 0.245876 0
   vertex 0 0.135 0
  endloop
 endfacet
 facet normal 0 -0 -1
  outer loop
   vertex 0.0577186 0.245876 0
   vertex 0.0625 0.243253 0
   vertex 0 0.135 0
  endloop
 endfacet
 facet normal 0 0 -1
  outer loop
   vertex 0 0.135 0
   vertex 0.0625 0.243253 0
   vertex 0.0671625 0.240424 0
  endloop
 endfacet
 facet normal 0 -0 -1
  outer loop
   vertex 0.0375882 0.254215 0
   vertex 0.0427525 0.252462 0
   vertex 0 0.135 0
  endloop
 endfacet
 facet normal 0 -0 -1
  outer loop
   vertex 0.0427525 0.252462 0
   vertex 0.0478354 0.250485 0
   vertex 0 0.135 0
  endloop
 endfacet
 facet normal 0 0 -1
  outer loop
   vertex 0 0.135 0
   vertex 0.0478354 0.250485 0
   vertex 0.0528273 0.248288 0
  endloop
 endfacet
 facet normal 0 -0 -1
  outer loop
   vertex 0.021706 0.258101 0
   vertex 0.027055 0.257037 0
   vertex 0 0.135 0
  endloop
 endfacet
 facet normal 0 -0 -1
  outer loop
   vertex 0.027055 0.257037 0
   vertex 0.0323524 0.255741 0
   vertex 0 0.135 0
  endloop
 endfacet
 facet normal 0 0 -1
  outer loop
   vertex 0 0.135 0
   vertex 0.0323524 0.255741 0
   vertex 0.0375882 0.254215 0
  endloop
 endfacet
 facet normal 0 -0 -1
  outer loop
   vertex 0.00545242 0.259881 0
   vertex 0.0108945 0.259524 0
   vertex 0 0.135 0
  endloop
 endfacet
 facet normal 0 -0 -1
  outer loop
   vertex 0.0108945 0.259524 0
   vertex 0.0163158 0.258931 0
   vertex 0 0.135 0
  endloop
 endfacet
 facet normal 0 0 -1
  outer loop
   vertex 0 0.135 0
   vertex 0.0163158 0.258931 0
   vertex 0.021706 0.258101 0
  endloop
 endfacet
 facet normal 0 0 -1
  outer loop
   vertex -0.0108945 0.259524 0
   vertex -0.00545242 0.259881 0
   vertex 0 0.135 0
  endloop
 endfacet
 facet normal 0 0 -1
  outer loop
   vertex -0.00545242 0.259881 0
   vertex -7.65404e-18 0.26 0
   vertex 0 0.135 0
  endloop
 endfacet
 facet normal 0 0 -1
  outer loop
   vertex 0 0.135 0
   vertex -7.65404e-18 0.26 0
   vertex 0.00545242 0.259881 0
  endloop
 endfacet
 facet normal 0 0 -1
  outer loop
   vertex -0.027055 0.257037 0
   vertex -0.021706 0.258101 0
   vertex 0 0.135 0
  endloop
 endfacet
 facet normal 0 0 -1
  outer loop
   vertex -0.021706 0.258101 0
   vertex -0.0163158 0.258931 0
   vertex 0 0.135 0
  endloop
 endfacet
 facet normal 0 0 -1
  outer loop
   vertex 0 0.135 0
   vertex -0.0163158 0.258931 0
   vertex -0.0108945 0.259524 0
  endloop
 endfacet
 facet normal 0 0 -1
  outer loop
   vertex -0.0427525 0.252462 0
   vertex -0.0375882 0.254215 0
   vertex 0 0.135 0
  endloop
 endfacet
 facet normal 0 0 -1
  outer loop
   vertex -0.0375882 0.254215 0
   vertex -0.0323524 0.255741 0
   vertex 0 0.135 0
  endloop
 endfacet
 facet normal 0 0 -1
  outer loop
   vertex 0 0.135 0
   vertex -0.0323524 0.255741 0
   vertex -0.027055 0.257037 0
  endloop
 endfacet
 facet normal 0 0 -1
  outer loop
   vertex -0.0577186 0.245876 0
   vertex -0.0528273 0.248288 0
   vertex 0 0.135 0
  endloop
 endfacet
 facet normal 0 0 -1
  outer loop
   vertex -0.0528273 0.248288 0
   vertex -0.0478354 0.250485 0
   vertex 0 0.135 0
  endloop
 endfacet
 facet normal 0 0 -1
  outer loop
   vertex 0 0.135 0
   vertex -0.0478354 0.250485 0
   vertex -0.0427525 0.252462 0
  endloop
 endfacet
 facet normal 0 0 -1
  outer loop
   vertex -0.0716971 0.237394 0
   vertex -0.0671625 0.240424 0
   vertex 0 0.135 0
  endloop
 endfacet
 facet normal 0 0 -1
  outer loop
   vertex -0.0671625 0.240424 0
   vertex -0.0625 0.243253 0
   vertex 0 0.135 0
  endloop
 endfacet
 facet normal 0 0 -1
  outer loop
   vertex 0 0.135 0
   vertex -0.0625 0.243253 0
   vertex -0.0577186 0.245876 0
  endloop
 endfacet
 facet normal 0 0 -1
  outer loop
   vertex -0.0844488 0.22716 0
   vertex -0.0803485 0.230756 0
   vertex 0 0.135 0
  endloop
 endfacet
 facet normal 0 0 -1
  outer loop
   vertex -0.0803485 0.230756 0
   vertex -0.0760952 0.234169 0
   vertex 0 0.135 0
  endloop
 endfacet
 facet normal 0 0 -1
  outer loop
   vertex 0 0.135 0
   vertex -0.0760952 0.234169 0
   vertex -0.0716971 0.237394 0
  endloop
 endfacet
 facet normal 0 0 -1
  outer loop
   vertex -0.0957556 0.215348 0
   vertex -0.0921597 0.219449 0
   vertex 0 0.135 0
  endloop
 endfacet
 facet normal 0 0 -1
  outer loop
   vertex -0.0921597 0.219449 0
   vertex -0.0883883 0.223388 0
   vertex 0 0.135 0
  endloop
 endfacet
 facet normal 0 0 -1
  outer loop
   vertex 0 0.135 0
   vertex -0.0883883 0.223388 0
   vertex -0.0844488 0.22716 0
  endloop
 endfacet
 facet normal 0 0 -1
  outer loop
   vertex -0.105424 0.202162 0
   vertex -0.102394 0.206697 0
   vertex 0 0.135 0
  endloop
 endfacet
 facet normal 0 0 -1
  outer loop
   vertex -0.102394 0.206697 0
   vertex -0.0991692 0.211095 0
   vertex 0 0.135 0
  endloop
 endfacet
 facet normal 0 0 -1
  outer loop
   vertex 0 0.135 0
   vertex -0.0991692 0.211095 0
   vertex -0.0957556 0.215348 0
  endloop
 endfacet
 facet normal 0 0 -1
  outer loop
   vertex -0.113288 0.187827 0
   vertex -0.110876 0.192719 0
   vertex 0 0.135 0
  endloop
 endfacet
 facet normal 0 0 -1
  outer loop
   vertex -0.110876 0.192719 0
   vertex -0.108253 0.1975 0
   vertex 0 0.135 0
  endloop
 endfacet
 facet normal 0 0 -1
  outer loop
   vertex 0 0.135 0
   vertex -0.108253 0.1975 0
   vertex -0.105424 0.202162 0
  endloop
 endfacet
 facet normal 0 0 -1
  outer loop
   vertex -0.119215 0.172588 0
   vertex -0.117462 0.177753 0
   vertex 0 0.135 0
  endloop
 endfacet
 facet normal 0 0 -1
  outer loop
   vertex -0.117462 0.177753 0
   vertex -0.115485 0.182835 0
   vertex 0 0.135 0
  endloop
 endfacet
 facet normal 0 0 -1
  outer loop
   vertex 0 0.135 0
   vertex -0.115485 0.182835 0
   vertex -0.113288 0.187827 0
  endloop
 endfacet
 facet normal 0 0 -1
  outer loop
   vertex -0.123101 0.156706 0
   vertex -0.122037 0.162055 0
   vertex 0 0.135 0
  endloop
 endfacet
 facet normal 0 0 -1
  outer loop
   vertex -0.122037 0.162055 0
   vertex -0.120741 0.167352 0
   vertex 0 0.135 0
  endloop
 endfacet
 facet normal 0 0 -1
  outer loop
   vertex 0 0.135 0
   vertex -0.120741 0.167352 0
   vertex -0.119215 0.172588 0
  endloop
 endfacet
 facet normal 0 0 -1
  outer loop
   vertex -0.124881 0.140452 0
   vertex -0.124524 0.145894 0
   vertex 0 0.135 0
  endloop
 endfacet
 facet normal 0 0 -1
  outer loop
   vertex -0.124524 0.145894 0
   vertex -0.123931 0.151316 0
   vertex 0 0.135 0
  endloop
 endfacet
 facet normal 0 0 -1
  outer loop
   vertex 0 0.135 0
   vertex -0.123931 0.151316 0
   vertex -0.123101 0.156706 0
  endloop
 endfacet
 facet normal 0 0 -1
  outer loop
   vertex -0.124524 0.124106 0
   vertex -0.124881 0.129548 0
   vertex 0 0.135 0
  endloop
 endfacet
 facet normal 0 0 -1
  outer loop
   vertex -0.124881 0.129548 0
   vertex -0.125 0.135 0
   vertex 0 0.135 0
  endloop
 endfacet
 facet normal 0 0 -1
  outer loop
   vertex 0 0.135 0
   vertex -0.125 0.135 0
   vertex -0.124881 0.140452 0
  endloop
 endfacet
 facet normal 0 0 -1
  outer loop
   vertex -0.122037 0.107945 0
   vertex -0.123101 0.113294 0
   vertex 0 0.135 0
  endloop
 endfacet
 facet normal 0 0 -1
  outer loop
   vertex -0.123101 0.113294 0
   vertex -0.123931 0.118684 0
   vertex 0 0.135 0
  endloop
 endfacet
 facet normal 0 0 -1
  outer loop
   vertex 0 0.135 0
   vertex -0.123931 0.118684 0
   vertex -0.124524 0.124106 0
  endloop
 endfacet
 facet normal 0 0 -1
  outer loop
   vertex -0.117462 0.0922475 0
   vertex -0.119215 0.0974118 0
   vertex 0 0.135 0
  endloop
 endfacet
 facet normal 0 0 -1
  outer loop
   vertex -0.119215 0.0974118 0
   vertex -0.120741 0.102648 0
   vertex 0 0.135 0
  endloop
 endfacet
 facet normal 0 0 -1
  outer loop
   vertex 0 0.135 0
   vertex -0.120741 0.102648 0
   vertex -0.122037 0.107945 0
  endloop
 endfacet
 facet normal 0 0 -1
  outer loop
   vertex -0.110876 0.0772814 0
   vertex -0.113288 0.0821727 0
   vertex 0 0.135 0
  endloop
 endfacet
 facet normal 0 0 -1
  outer loop
   vertex -0.113288 0.0821727 0
   vertex -0.115485 0.0871646 0
   vertex 0 0.135 0
  endloop
 endfacet
 facet normal 0 0 -1
  outer loop
   vertex 0 0.135 0
   vertex -0.115485 0.0871646 0
   vertex -0.117462 0.0922475 0
  endloop
 endfacet
 facet normal 0 0 -1
  outer loop
   vertex -0.102394 0.0633029 0
   vertex -0.105424 0.0678375 0
   vertex 0 0.135 0
  endloop
 endfacet
 facet normal 0 0 -1
  outer loop
   vertex -0.105424 0.0678375 0
   vertex -0.108253 0.0725 0
   vertex 0 0.135 0
  endloop
 endfacet
 facet normal 0 0 -1
  outer loop
   vertex 0 0.135 0
   vertex -0.108253 0.0725 0
   vertex -0.110876 0.0772814 0
  endloop
 endfacet
 facet normal 0 0 -1
  outer loop
   vertex -0.0921597 0.0505512 0
   vertex -0.0957556 0.0546515 0
   vertex 0 0.135 0
  endloop
 endfacet
 facet normal 0 0 -1
  outer loop
   vertex -0.0957556 0.0546515 0
   vertex -0.0991692 0.0589048 0
   vertex 0 0.135 0
  endloop
 endfacet
 facet normal 0 0 -1
  outer loop
   vertex 0 0.135 0
   vertex -0.0991692 0.0589048 0
   vertex -0.102394 0.0633029 0
  endloop
 endfacet
 facet normal 0 0 -1
  outer loop
   vertex -0.0803485 0.0392444 0
   vertex -0.0844488 0.0428403 0
   vertex 0 0.135 0
  endloop
 endfacet
 facet normal 0 0 -1
  outer loop
   vertex -0.0844488 0.0428403 0
   vertex -0.0883883 0.0466117 0
   vertex 0 0.135 0
  endloop
 endfacet
 facet normal 0 0 -1
  outer loop
   vertex 0 0.135 0
   vertex -0.0883883 0.0466117 0
   vertex -0.0921597 0.0505512 0
  endloop
 endfacet
 facet normal 0 0 -1
  outer loop
   vertex -0.0671625 0.0295761 0
   vertex -0.0716971 0.032606 0
   vertex 0 0.135 0
  endloop
 endfacet
 facet normal 0 0 -1
  outer loop
   vertex -0.0716971 0.032606 0
   vertex -0.0760952 0.0358308 0
   vertex 0 0.135 0
  endloop
 endfacet
 facet normal 0 0 -1
  outer loop
   vertex 0 0.135 0
   vertex -0.0760952 0.0358308 0
   vertex -0.0803485 0.0392444 0
  endloop
 endfacet
 facet normal 0 0 -1
  outer loop
   vertex -0.0528273 0.0217115 0
   vertex -0.0577186 0.0241236 0
   vertex 0 0.135 0
  endloop
 endfacet
 facet normal 0 0 -1
  outer loop
   vertex -0.0577186 0.0241236 0
   vertex -0.0625 0.0267468 0
   vertex 0 0.135 0
  endloop
 endfacet
 facet normal 0 0 -1
  outer loop
   vertex 0 0.135 0
   vertex -0.0625 0.0267468 0
   vertex -0.0671625 0.0295761 0
  endloop
 endfacet
 facet normal 0 0 -1
  outer loop
   vertex -0.0375882 0.0157854 0
   vertex -0.0427525 0.0175384 0
   vertex 0 0.135 0
  endloop
 endfacet
 facet normal 0 0 -1
  outer loop
   vertex -0.0427525 0.0175384 0
   vertex -0.0478354 0.0195151 0
   vertex 0 0.135 0
  endloop
 endfacet
 facet normal 0 0 -1
  outer loop
   vertex 0 0.135 0
   vertex -0.0478354 0.0195151 0
   vertex -0.0528273 0.0217115 0
  endloop
 endfacet
 facet normal 0 0 -1
  outer loop
   vertex -0.021706 0.011899 0
   vertex -0.027055 0.012963 0
   vertex 0 0.135 0
  endloop
 endfacet
 facet normal 0 0 -1
  outer loop
   vertex -0.027055 0.012963 0
   vertex -0.0323524 0.0142593 0
   vertex 0 0.135 0
  endloop
 endfacet
 facet normal 0 0 -1
  outer loop
   vertex 0 0.135 0
   vertex -0.0323524 0.0142593 0
   vertex -0.0375882 0.0157854 0
  endloop
 endfacet
 facet normal 0 0 -1
  outer loop
   vertex -0.00545242 0.010119 0
   vertex -0.0108945 0.0104757 0
   vertex 0 0.135 0
  endloop
 endfacet
 facet normal 0 0 -1
  outer loop
   vertex -0.0108945 0.0104757 0
   vertex -0.0163158 0.0110694 0
   vertex 0 0.135 0
  endloop
 endfacet
 facet normal 0 0 -1
  outer loop
   vertex 0 0.135 0
   vertex -0.0163158 0.0110694 0
   vertex -0.021706 0.011899 0
  endloop
 endfacet
 facet normal -0 0 -1
  outer loop
   vertex 0.0108945 0.0104757 0
   vertex 0.00545242 0.010119 0
   vertex 0 0.135 0
  endloop
 endfacet
 facet normal -0 0 -1
  outer loop
   vertex 0.00545242 0.010119 0
   vertex 2.29621e-17 0.01 0
   vertex 0 0.135 0
  endloop
 endfacet
 facet normal 0 -0 -1
  outer loop
   vertex 0 0.135 0
   vertex 2.29621e-17 0.01 0
   vertex -0.00545242 0.010119 0
  endloop
 endfacet
 facet normal -0 0 -1
  outer loop
   vertex 0.027055 0.012963 0
   vertex 0.021706 0.011899 0
   vertex 0 0.135 0
  endloop
 endfacet
 facet normal -0 0 -1
  outer loop
   vertex 0.021706 0.011899 0
   vertex 0.0163158 0.0110694 0
   vertex 0 0.135 0
  endloop
 endfacet
 facet normal 0 0 -1
  outer loop
   vertex 0 0.135 0
   vertex 0.0163158 0.0110694 0
   vertex 0.0108945 0.0104757 0
  endloop
 endfacet
 facet normal -0 0 -1
  outer loop
   vertex 0.0427525 0.0175384 0
   vertex 0.0375882 0.0157854 0
   vertex 0 0.135 0
  endloop
 endfacet
 facet normal -0 0 -1
  outer loop
   vertex 0.0375882 0.0157854 0
   vertex 0.0323524 0.0142593 0
   vertex 0 0.135 0
  endloop
 endfacet
 facet normal 0 0 -1
  outer loop
   vertex 0 0.135 0
   vertex 0.0323524 0.0142593 0
   vertex 0.027055 0.012963 0
  endloop
 endfacet
 facet normal -0 0 -1
  outer loop
   vertex 0.0577186 0.0241236 0
   vertex 0.0528273 0.0217115 0
   vertex 0 0.135 0
  endloop
 endfacet
 facet normal -0 0 -1
  outer loop
   vertex 0.0528273 0.0217115 0
   vertex 0.0478354 0.0195151 0
   vertex 0 0.135 0
  endloop
 endfacet
 facet normal 0 0 -1
  outer loop
   vertex 0 0.135 0
   vertex 0.0478354 0.0195151 0
   vertex 0.0427525 0.0175384 0
  endloop
 endfacet
 facet normal -0 0 -1
  outer loop
   vertex 0.0716971 0.032606 0
   vertex 0.0671625 0.0295761 0
   vertex 0 0.135 0
  endloop
 endfacet
 facet normal -0 0 -1
  outer loop
   vertex 0.0671625 0.0295761 0
   vertex 0.0625 0.0267468 0
   vertex 0 0.135 0
  endloop
 endfacet
 facet normal 0 0 -1
  outer loop
   vertex 0 0.135 0
   vertex 0.0625 0.0267468 0
   vertex 0.0577186 0.0241236 0
  endloop
 endfacet
 facet normal -0 0 -1
  outer loop
   vertex 0.0844488 0.0428403 0
   vertex 0.0803485 0.0392444 0
   vertex 0 0.135 0
  endloop
 endfacet
 facet normal -0 0 -1
  outer loop
   vertex 0.0803485 0.0392444 0
   vertex 0.0760952 0.0358308 0
   vertex 0 0.135 0
  endloop
 endfacet
 facet normal 0 0 -1
  outer loop
   vertex 0 0.135 0
   vertex 0.0760952 0.0358308 0
   vertex 0.0716971 0.032606 0
  endloop
 endfacet
 facet normal -0 0 -1
  outer loop
   vertex 0.0957556 0.0546515 0
   vertex 0.0921597 0.0505512 0
   vertex 0 0.135 0
  endloop
 endfacet
 facet normal -0 0 -1
  outer loop
   vertex 0.0921597 0.0505512 0
   vertex 0.0883883 0.0466117 0
   vertex 0 0.135 0
  endloop
 endfacet
 facet normal 0 0 -1
  outer loop
   vertex 0 0.135 0
   vertex 0.0883883 0.0466117 0
   vertex 0.0844488 0.0428403 0
  endloop
 endfacet
 facet normal -0 0 -1
  outer loop
   vertex 0.105424 0.0678375 0
   vertex 0.102394 0.0633029 0
   vertex 0 0.135 0
  endloop
 endfacet
 facet normal -0 0 -1
  outer loop
   vertex 0.102394 0.0633029 0
   vertex 0.0991692 0.0589048 0
   vertex 0 0.135 0
  endloop
 endfacet
 facet normal 0 0 -1
  outer loop
   vertex 0 0.135 0
   vertex 0.0991692 0.0589048 0
   vertex 0.0957556 0.0546515 0
  endloop
 endfacet
 facet normal -0 0 -1
  outer loop
   vertex 0.113288 0.0821727 0
   vertex 0.110876 0.0772814 0
   vertex 0 0.135 0
  endloop
 endfacet
 facet normal -0 0 -1
  outer loop
   vertex 0.110876 0.0772814 0
   vertex 0.108253 0.0725 0
   vertex 0 0.135 0
  endloop
 endfacet
 facet normal 0 0 -1
  outer loop
   vertex 0 0.135 0
   vertex 0.108253 0.0725 0
   vertex 0.105424 0.0678375 0
  endloop
 endfacet
 facet normal -0 0 -1
  outer loop
   vertex 0.119215 0.0974118 0
   vertex 0.117462 0.0922475 0
   vertex 0 0.135 0
  endloop
 endfacet
 facet normal -0 0 -1
  outer loop
   vertex 0.117462 0.0922475 0
   vertex 0.115485 0.0871646 0
   vertex 0 0.135 0
  endloop
 endfacet
 facet normal 0 0 -1
  outer loop
   vertex 0 0.135 0
   vertex 0.115485 0.0871646 0
   vertex 0.113288 0.0821727 0
  endloop
 endfacet
 facet normal -0 0 -1
  outer loop
   vertex 0.123101 0.113294 0
   vertex 0.122037 0.107945 0
   vertex 0 0.135 0
  endloop
 endfacet
 facet normal -0 0 -1
  outer loop
   vertex 0.122037 0.107945 0
   vertex 0.120741 0.102648 0
   vertex 0 0.135 0
  endloop
 endfacet
 facet normal 0 0 -1
  outer loop
   vertex 0 0.135 0
   vertex 0.120741 0.102648 0
   vertex 0.119215 0.0974118 0
  endloop
 endfacet
 facet normal -0 0 -1
  outer loop
   vertex 0.124881 0.129548 0
   vertex 0.124524 0.124106 0
   vertex 0 0.135 0
  endloop
 endfacet
 facet normal -0 0 -1
  outer loop
   vertex 0.124524 0.124106 0
   vertex 0.123931 0.118684 0
   vertex 0 0.135 0
  endloop
 endfacet
 facet normal 0 0 -1
  outer loop
   vertex 0 0.135 0
   vertex 0.123931 0.118684 0
   vertex 0.123101 0.113294 0
  endloop
 endfacet
 facet normal -0.999762 0.0218146 0
  outer loop
   vertex -0.125 0.135 0
   vertex -0.124881 0.140452 0.5
   vertex -0.124881 0.140452 0
  endloop
 endfacet
 facet normal -0.997859 0.0654029 0
  outer loop
   vertex -0.124881 0.140452 0.5
   vertex -0.124524 0.145894 0.5
   vertex -0.124881 0.140452 0
  endloop
 endfacet
 facet normal -0.997859 0.0654029 0
  outer loop
   vertex -0.124881 0.140452 0
   vertex -0.124524 0.145894 0.5
   vertex -0.124524 0.145894 0
  endloop
 endfacet
 facet normal -0.994056 0.108867 0
  outer loop
   vertex -0.124524 0.145894 0.5
   vertex -0.123931 0.151316 0.5
   vertex -0.124524 0.145894 0
  endloop
 endfacet
 facet normal -0.994056 0.108867 0
  outer loop
   vertex -0.124524 0.145894 0
   vertex -0.123931 0.151316 0.5
   vertex -0.123931 0.151316 0
  endloop
 endfacet
 facet normal -0.988361 0.152124 0
  outer loop
   vertex -0.123931 0.151316 0.5
   vertex -0.123101 0.156706 0.5
   vertex -0.123931 0.151316 0
  endloop
 endfacet
 facet normal -0.988361 0.152124 0
  outer loop
   vertex -0.123931 0.151316 0
   vertex -0.123101 0.156706 0.5
   vertex -0.123101 0.156706 0
  endloop
 endfacet
 facet normal -0.980785 0.19509 0
  outer loop
   vertex -0.123101 0.156706 0.5
   vertex -0.122037 0.162055 0.5
   vertex -0.123101 0.156706 0
  endloop
 endfacet
 facet normal -0.980785 0.19509 0
  outer loop
   vertex -0.123101 0.156706 0
   vertex -0.122037 0.162055 0.5
   vertex -0.122037 0.162055 0
  endloop
 endfacet
 facet normal -0.971342 0.237686 0
  outer loop
   vertex -0.122037 0.162055 0.5
   vertex -0.120741 0.167352 0.5
   vertex -0.122037 0.162055 0
  endloop
 endfacet
 facet normal -0.971342 0.237686 0
  outer loop
   vertex -0.122037 0.162055 0
   vertex -0.120741 0.167352 0.5
   vertex -0.120741 0.167352 0
  endloop
 endfacet
 facet normal -0.96005 0.279829 0
  outer loop
   vertex -0.120741 0.167352 0.5
   vertex -0.119215 0.172588 0.5
   vertex -0.120741 0.167352 0
  endloop
 endfacet
 facet normal -0.96005 0.279829 0
  outer loop
   vertex -0.120741 0.167352 0
   vertex -0.119215 0.172588 0.5
   vertex -0.119215 0.172588 0
  endloop
 endfacet
 facet normal -0.94693 0.321439 0
  outer loop
   vertex -0.119215 0.172588 0.5
   vertex -0.117462 0.177753 0.5
   vertex -0.119215 0.172588 0
  endloop
 endfacet
 facet normal -0.94693 0.321439 0
  outer loop
   vertex -0.119215 0.172588 0
   vertex -0.117462 0.177753 0.5
   vertex -0.117462 0.177753 0
  endloop
 endfacet
 facet normal -0.932008 0.362439 0
  outer loop
   vertex -0.117462 0.177753 0.5
   vertex -0.115485 0.182835 0.5
   vertex -0.117462 0.177753 0
  endloop
 endfacet
 facet normal -0.932008 0.362439 0
  outer loop
   vertex -0.117462 0.177753 0
   vertex -0.115485 0.182835 0.5
   vertex -0.115485 0.182835 0
  endloop
 endfacet
 facet normal -0.915312 0.402745 0
  outer loop
   vertex -0.115485 0.182835 0.5
   vertex -0.113288 0.187827 0.5
   vertex -0.115485 0.182835 0
  endloop
 endfacet
 facet normal -0.915312 0.402745 0
  outer loop
   vertex -0.115485 0.182835 0
   vertex -0.113288 0.187827 0.5
   vertex -0.113288 0.187827 0
  endloop
 endfacet
 facet normal -0.896872 0.44229 0
  outer loop
   vertex -0.113288 0.187827 0.5
   vertex -0.110876 0.192719 0.5
   vertex -0.113288 0.187827 0
  endloop
 endfacet
 facet normal -0.896872 0.44229 0
  outer loop
   vertex -0.113288 0.187827 0
   vertex -0.110876 0.192719 0.5
   vertex -0.110876 0.192719 0
  endloop
 endfacet
 facet normal -0.876727 0.480989 0
  outer loop
   vertex -0.110876 0.192719 0.5
   vertex -0.108253 0.1975 0.5
   vertex -0.110876 0.192719 0
  endloop
 endfacet
 facet normal -0.876727 0.480989 0
  outer loop
   vertex -0.110876 0.192719 0
   vertex -0.108253 0.1975 0.5
   vertex -0.108253 0.1975 0
  endloop
 endfacet
 facet normal -0.854912 0.518773 0
  outer loop
   vertex -0.108253 0.1975 0.5
   vertex -0.105424 0.202162 0.5
   vertex -0.108253 0.1975 0
  endloop
 endfacet
 facet normal -0.854912 0.518773 0
  outer loop
   vertex -0.108253 0.1975 0
   vertex -0.105424 0.202162 0.5
   vertex -0.105424 0.202162 0
  endloop
 endfacet
 facet normal -0.83147 0.55557 0
  outer loop
   vertex -0.105424 0.202162 0.5
   vertex -0.102394 0.206697 0.5
   vertex -0.105424 0.202162 0
  endloop
 endfacet
 facet normal -0.83147 0.55557 0
  outer loop
   vertex -0.105424 0.202162 0
   vertex -0.102394 0.206697 0.5
   vertex -0.102394 0.206697 0
  endloop
 endfacet
 facet normal -0.806444 0.59131 0
  outer loop
   vertex -0.102394 0.206697 0.5
   vertex -0.0991692 0.211095 0.5
   vertex -0.102394 0.206697 0
  endloop
 endfacet
 facet normal -0.806444 0.59131 0
  outer loop
   vertex -0.102394 0.206697 0
   vertex -0.0991692 0.211095 0.5
   vertex -0.0991692 0.211095 0
  endloop
 endfacet
 facet normal -0.779885 0.625923 0
  outer loop
   vertex -0.0991692 0.211095 0.5
   vertex -0.0957556 0.215348 0.5
   vertex -0.0991692 0.211095 0
  endloop
 endfacet
 facet normal -0.779885 0.625923 0
  outer loop
   vertex -0.0991692 0.211095 0
   vertex -0.0957556 0.215348 0.5
   vertex -0.0957556 0.215348 0
  endloop
 endfacet
 facet normal -0.75184 0.659346 0
  outer loop
   vertex -0.0957556 0.215348 0.5
   vertex -0.0921597 0.219449 0.5
   vertex -0.0957556 0.215348 0
  endloop
 endfacet
 facet normal -0.75184 0.659346 0
  outer loop
   vertex -0.0957556 0.215348 0
   vertex -0.0921597 0.219449 0.5
   vertex -0.0921597 0.219449 0
  endloop
 endfacet
 facet normal -0.722364 0.691513 0
  outer loop
   vertex -0.0921597 0.219449 0.5
   vertex -0.0883883 0.223388 0.5
   vertex -0.0921597 0.219449 0
  endloop
 endfacet
 facet normal -0.722364 0.691513 0
  outer loop
   vertex -0.0921597 0.219449 0
   vertex -0.0883883 0.223388 0.5
   vertex -0.0883883 0.223388 0
  endloop
 endfacet
 facet normal -0.691513 0.722364 0
  outer loop
   vertex -0.0883883 0.223388 0.5
   vertex -0.0844488 0.22716 0.5
   vertex -0.0883883 0.223388 0
  endloop
 endfacet
 facet normal -0.691513 0.722364 0
  outer loop
   vertex -0.0883883 0.223388 0
   vertex -0.0844488 0.22716 0.5
   vertex -0.0844488 0.22716 0
  endloop
 endfacet
 facet normal -0.659346 0.75184 0
  outer loop
   vertex -0.0844488 0.22716 0.5
   vertex -0.0803485 0.230756 0.5
   vertex -0.0844488 0.22716 0
  endloop
 endfacet
 facet normal -0.659346 0.75184 0
  outer loop
   vertex -0.0844488 0.22716 0
   vertex -0.0803485 0.230756 0.5
   vertex -0.0803485 0.230756 0
  endloop
 endfacet
 facet normal -0.625923 0.779885 0
  outer loop
   vertex -0.0803485 0.230756 0.5
   vertex -0.0760952 0.234169 0.5
   vertex -0.0803485 0.230756 0
  endloop
 endfacet
 facet normal -0.625923 0.779885 0
  outer loop
   vertex -0.0803485 0.230756 0
   vertex -0.0760952 0.234169 0.5
   vertex -0.0760952 0.234169 0
  endloop
 endfacet
 facet normal -0.59131 0.806444 0
  outer loop
   vertex -0.0760952 0.234169 0.5
   vertex -0.0716971 0.237394 0.5
   vertex -0.0760952 0.234169 0
  endloop
 endfacet
 facet normal -0.59131 0.806444 0
  outer loop
   vertex -0.0760952 0.234169 0
   vertex -0.0716971 0.237394 0.5
   vertex -0.0716971 0.237394 0
  endloop
 endfacet
 facet normal -0.55557 0.83147 0
  outer loop
   vertex -0.0716971 0.237394 0.5
   vertex -0.0671625 0.240424 0.5
   vertex -0.0716971 0.237394 0
  endloop
 endfacet
 facet normal -0.55557 0.83147 0
  outer loop
   vertex -0.0716971 0.237394 0
   vertex -0.0671625 0.240424 0.5
   vertex -0.0671625 0.240424 0
  endloop
 endfacet
 facet normal -0.518773 0.854912 0
  outer loop
   vertex -0.0671625 0.240424 0.5
   vertex -0.0625 0.243253 0.5
   vertex -0.0671625 0.240424 0
  endloop
 endfacet
 facet normal -0.518773 0.854912 0
  outer loop
   vertex -0.0671625 0.240424 0
   vertex -0.0625 0.243253 0.5
   vertex -0.0625 0.243253 0
  endloop
 endfacet
 facet normal -0.480989 0.876727 0
  outer loop
   vertex -0.0625 0.243253 0.5
   vertex -0.0577186 0.245876 0.5
   vertex -0.0625 0.243253 0
  endloop
 endfacet
 facet normal -0.480989 0.876727 0
  outer loop
   vertex -0.0625 0.243253 0
   vertex -0.0577186 0.245876 0.5
   vertex -0.0577186 0.245876 0
  endloop
 endfacet
 facet normal -0.44229 0.896872 0
  outer loop
   vertex -0.0577186 0.245876 0.5
   vertex -0.0528273 0.248288 0.5
   vertex -0.0577186 0.245876 0
  endloop
 endfacet
 facet normal -0.44229 0.896872 0
  outer loop
   vertex -0.0577186 0.245876 0
   vertex -0.0528273 0.248288 0.5
   vertex -0.0528273 0.248288 0
  endloop
 endfacet
 facet normal -0.402745 0.915312 0
  outer loop
   vertex -0.0528273 0.248288 0.5
   vertex -0.0478354 0.250485 0.5
   vertex -0.0528273 0.248288 0
  endloop
 endfacet
 facet normal -0.402745 0.915312 0
  outer loop
   vertex -0.0528273 0.248288 0
   vertex -0.0478354 0.250485 0.5
   vertex -0.0478354 0.250485 0
  endloop
 endfacet
 facet normal -0.362439 0.932008 0
  outer loop
   vertex -0.0478354 0.250485 0.5
   vertex -0.0427525 0.252462 0.5
   vertex -0.0478354 0.250485 0
  endloop
 endfacet
 facet normal -0.362439 0.932008 0
  outer loop
   vertex -0.0478354 0.250485 0
   vertex -0.0427525 0.252462 0.5
   vertex -0.0427525 0.252462 0
  endloop
 endfacet
 facet normal -0.321439 0.94693 0
  outer loop
   vertex -0.0427525 0.252462 0.5
   vertex -0.0375882 0.254215 0.5
   vertex -0.0427525 0.252462 0
  endloop
 endfacet
 facet normal -0.321439 0.94693 0
  outer loop
   vertex -0.0427525 0.252462 0
   vertex -0.0375882 0.254215 0.5
   vertex -0.0375882 0.254215 0
  endloop
 endfacet
 facet normal -0.279829 0.96005 0
  outer loop
   vertex -0.0375882 0.254215 0.5
   vertex -0.0323524 0.255741 0.5
   vertex -0.0375882 0.254215 0
  endloop
 endfacet
 facet normal -0.279829 0.96005 0
  outer loop
   vertex -0.0375882 0.254215 0
   vertex -0.0323524 0.255741 0.5
   vertex -0.0323524 0.255741 0
  endloop
 endfacet
 facet normal -0.237686 0.971342 0
  outer loop
   vertex -0.0323524 0.255741 0.5
   vertex -0.027055 0.257037 0.5
   vertex -0.0323524 0.255741 0
  endloop
 endfacet
 facet normal -0.237686 0.971342 0
  outer loop
   vertex -0.0323524 0.255741 0
   vertex -0.027055 0.257037 0.5
   vertex -0.027055 0.257037 0
  endloop
 endfacet
 facet normal -0.19509 0.980785 0
  outer loop
   vertex -0.027055 0.257037 0.5
   vertex -0.021706 0.258101 0.5
   vertex -0.027055 0.257037 0
  endloop
 endfacet
 facet normal -0.19509 0.980785 0
  outer loop
   vertex -0.027055 0.257037 0
   vertex -0.021706 0.258101 0.5
   vertex -0.021706 0.258101 0
  endloop
 endfacet
 facet normal -0.152124 0.988361 0
  outer loop
   vertex -0.021706 0.258101 0.5
   vertex -0.0163158 0.258931 0.5
   vertex -0.021706 0.258101 0
  endloop
 endfacet
 facet normal -0.152124 0.988361 0
  outer loop
   vertex -0.021706 0.258101 0
   vertex -0.0163158 0.258931 0.5
   vertex -0.0163158 0.258931 0
  endloop
 endfacet
 facet normal -0.108867 0.994056 0
  outer loop
   vertex -0.0163158 0.258931 0.5
   vertex -0.0108945 0.259524 0.5
   vertex -0.0163158 0.258931 0
  endloop
 endfacet
 facet normal -0.108867 0.994056 0
  outer loop
   vertex -0.0163158 0.258931 0
   vertex -0.0108945 0.259524 0.5
   vertex -0.0108945 0.259524 0
  endloop
 endfacet
 facet normal -0.0654029 0.997859 0
  outer loop
   vertex -0.0108945 0.259524 0.5
   vertex -0.00545242 0.259881 0.5
   vertex -0.0108945 0.259524 0
  endloop
 endfacet
 facet normal -0.0654029 0.997859 0
  outer loop
   vertex -0.0108945 0.259524 0
   vertex -0.00545242 0.259881 0.5
   vertex -0.00545242 0.259881 0
  endloop
 endfacet
 facet normal -0.0218146 0.999762 0
  outer loop
   vertex -0.00545242 0.259881 0.5
   vertex -7.65404e-18 0.26 0.5
   vertex -0.00545242 0.259881 0
  endloop
 endfacet
 facet normal -0.0218146 0.999762 0
  outer loop
   vertex -0.00545242 0.259881 0
   vertex -7.65404e-18 0.26 0.5
   vertex -7.65404e-18 0.26 0
  endloop
 endfacet
 facet normal 0.0218146 0.999762 0
  outer loop
   vertex -7.65404e-18 0.26 0.5
   vertex 0.00545242 0.259881 0.5
   vertex -7.65404e-18 0.26 0
  endloop
 endfacet
 facet normal 0.0218146 0.999762 0
  outer loop
   vertex -7.65404e-18 0.26 0
   vertex 0.00545242 0.259881 0.5
   vertex 0.00545242 0.259881 0
  endloop
 endfacet
 facet normal 0.0654029 0.997859 0
  outer loop
   vertex 0.00545242 0.259881 0.5
   vertex 0.0108945 0.259524 0.5
   vertex 0.00545242 0.259881 0
  endloop
 endfacet
 facet normal 0.0654029 0.997859 0
  outer loop
   vertex 0.00545242 0.259881 0
   vertex 0.0108945 0.259524 0.5
   vertex 0.0108945 0.259524 0
  endloop
 endfacet
 facet normal 0.108867 0.994056 0
  outer loop
   vertex 0.0108945 0.259524 0.5
   vertex 0.0163158 0.258931 0.5
   vertex 0.0108945 0.259524 0
  endloop
 endfacet
 facet normal 0.108867 0.994056 0
  outer loop
   vertex 0.0108945 0.259524 0
   vertex 0.0163158 0.258931 0.5
   vertex 0.0163158 0.258931 0
  endloop
 endfacet
 facet normal 0.152124 0.988361 0
  outer loop
   vertex 0.0163158 0.258931 0.5
   vertex 0.021706 0.258101 0.5
   vertex 0.0163158 0.258931 0
  endloop
 endfacet
 facet normal 0.152124 0.988361 0
  outer loop
   vertex 0.0163158 0.258931 0
   vertex 0.021706 0.258101 0.5
   vertex 0.021706 0.258101 0
  endloop
 endfacet
 facet normal 0.19509 0.980785 0
  outer loop
   vertex 0.021706 0.258101 0.5
   vertex 0.027055 0.257037 0.5
   vertex 0.021706 0.258101 0
  endloop
 endfacet
 facet normal 0.19509 0.980785 0
  outer loop
   vertex 0.021706 0.258101 0
   vertex 0.027055 0.257037 0.5
   vertex 0.027055 0.257037 0
  endloop
 endfacet
 facet normal 0.237686 0.971342 0
  outer loop
   vertex 0.027055 0.257037 0.5
   vertex 0.0323524 0.255741 0.5
   vertex 0.027055 0.257037 0
  endloop
 endfacet
 facet normal 0.237686 0.971342 0
  outer loop
   vertex 0.027055 0.257037 0
   vertex 0.0323524 0.255741 0.5
   vertex 0.0323524 0.255741 0
  endloop
 endfacet
 facet normal 0.279829 0.96005 0
  outer loop
   vertex 0.0323524 0.255741 0.5
   vertex 0.0375882 0.254215 0.5
   vertex 0.0323524 0.255741 0
  endloop
 endfacet
 facet normal 0.279829 0.96005 0
  outer loop
   vertex 0.0323524 0.255741 0
   vertex 0.0375882 0.254215 0.5
   vertex 0.0375882 0.254215 0
  endloop
 endfacet
 facet normal 0.321439 0.94693 0
  outer loop
   vertex 0.0375882 0.254215 0.5
   vertex 0.0427525 0.252462 0.5
   vertex 0.0375882 0.254215 0
  endloop
 endfacet
 facet normal 0.321439 0.94693 0
  outer loop
   vertex 0.0375882 0.254215 0
   vertex 0.0427525 0.252462 0.5
   vertex 0.0427525 0.252462 0
  endloop
 endfacet
 facet normal 0.362439 0.932008 0
  outer loop
   vertex 0.0427525 0.252462 0.5
   vertex 0.0478354 0.250485 0.5
   vertex 0.0427525 0.252462 0
  endloop
 endfacet
 facet normal 0.362439 0.932008 0
  outer loop
   vertex 0.0427525 0.252462 0
   vertex 0.0478354 0.250485 0.5
   vertex 0.0478354 0.250485 0
  endloop
 endfacet
 facet normal 0.402745 0.915312 0
  outer loop
   vertex 0.0478354 0.250485 0.5
   vertex 0.0528273 0.248288 0.5
   vertex 0.0478354 0.250485 0
  endloop
 endfacet
 facet normal 0.402745 0.915312 0
  outer loop
   vertex 0.0478354 0.250485 0
   vertex 0.0528273 0.248288 0.5
   vertex 0.0528273 0.248288 0
  endloop
 endfacet
 facet normal 0.44229 0.896872 0
  outer loop
   vertex 0.0528273 0.248288 0.5
   vertex 0.0577186 0.245876 0.5
   vertex 0.0528273 0.248288 0
  endloop
 endfacet
 facet normal 0.44229 0.896872 0
  outer loop
   vertex 0.0528273 0.248288 0
   vertex 0.0577186 0.245876 0.5
   vertex 0.0577186 0.245876 0
  endloop
 endfacet
 facet normal 0.480989 0.876727 0
  outer loop
   vertex 0.0577186 0.245876 0.5
   vertex 0.0625 0.243253 0.5
   vertex 0.0577186 0.245876 0
  endloop
 endfacet
 facet normal 0.480989 0.876727 0
  outer loop
   vertex 0.0577186 0.245876 0
   vertex 0.0625 0.243253 0.5
   vertex 0.0625 0.243253 0
  endloop
 endfacet
 facet normal 0.518773 0.854912 0
  outer loop
   vertex 0.0625 0.243253 0.5
   vertex 0.0671625 0.240424 0.5
   vertex 0.0625 0.243253 0
  endloop
 endfacet
 facet normal 0.518773 0.854912 0
  outer loop
   vertex 0.0625 0.243253 0
   vertex 0.0671625 0.240424 0.5
   vertex 0.0671625 0.240424 0
  endloop
 endfacet
 facet normal 0.55557 0.83147 0
  outer loop
   vertex 0.0671625 0.240424 0.5
   vertex 0.0716971 0.237394 0.5
   vertex 0.0671625 0.240424 0
  endloop
 endfacet
 facet normal 0.55557 0.83147 0
  outer loop
   vertex 0.0671625 0.240424 0
   vertex 0.0716971 0.237394 0.5
   vertex 0.0716971 0.237394 0
  endloop
 endfacet
 facet normal 0.59131 0.806444 0
  outer loop
   vertex 0.0716971 0.237394 0.5
   vertex 0.0760952 0.234169 0.5
   vertex 0.0716971 0.237394 0
  endloop
 endfacet
 facet normal 0.59131 0.806444 0
  outer loop
   vertex 0.0716971 0.237394 0
   vertex 0.0760952 0.234169 0.5
   vertex 0.0760952 0.234169 0
  endloop
 endfacet
 facet normal 0.625923 0.779885 0
  outer loop
   vertex 0.0760952 0.234169 0.5
   vertex 0.0803485 0.230756 0.5
   vertex 0.0760952 0.234169 0
  endloop
 endfacet
 facet normal 0.625923 0.779885 0
  outer loop
   vertex 0.0760952 0.234169 0
   vertex 0.0803485 0.230756 0.5
   vertex 0.0803485 0.230756 0
  endloop
 endfacet
 facet normal 0.659346 0.75184 0
  outer loop
   vertex 0.0803485 0.230756 0.5
   vertex 0.0844488 0.22716 0.5
   vertex 0.0803485 0.230756 0
  endloop
 endfacet
 facet normal 0.659346 0.75184 0
  outer loop
   vertex 0.0803485 0.230756 0
   vertex 0.0844488 0.22716 0.5
   vertex 0.0844488 0.22716 0
  endloop
 endfacet
 facet normal 0.691513 0.722364 0
  outer loop
   vertex 0.0844488 0.22716 0.5
   vertex 0.0883883 0.223388 0.5
   vertex 0.0844488 0.22716 0
  endloop
 endfacet
 facet normal 0.691513 0.722364 0
  outer loop
   vertex 0.0844488 0.22716 0
   vertex 0.0883883 0.223388 0.5
   vertex 0.0883883 0.223388 0
  endloop
 endfacet
 facet normal 0.722364 0.691513 0
  outer loop
   vertex 0.0883883 0.223388 0.5
   vertex 0.0921597 0.219449 0.5
   vertex 0.0883883 0.223388 0
  endloop
 endfacet
 facet normal 0.722364 0.691513 0
  outer loop
   vertex 0.0883883 0.223388 0
   vertex 0.0921597 0.219449 0.5
   vertex 0.0921597 0.219449 0
  endloop
 endfacet
 facet normal 0.75184 0.659346 0
  outer loop
   vertex 0.0921597 0.219449 0.5
   vertex 0.0957556 0.215348 0.5
   vertex 0.0921597 0.219449 0
  endloop
 endfacet
 facet normal 0.75184 0.659346 0
  outer loop
   vertex 0.0921597 0.219449 0
   vertex 0.0957556 0.215348 0.5
   vertex 0.0957556 0.215348 0
  endloop
 endfacet
 facet normal 0.779885 0.625923 0
  outer loop
   vertex 0.0957556 0.215348 0.5
   vertex 0.0991692 0.211095 0.5
   vertex 0.0957556 0.215348 0
  endloop
 endfacet
 facet normal 0.779885 0.625923 0
  outer loop
   vertex 0.0957556 0.215348 0
   vertex 0.0991692 0.211095 0.5
   vertex 0.0991692 0.211095 0
  endloop
 endfacet
 facet normal 0.806444 0.59131 0
  outer loop
   vertex 0.0991692 0.211095 0.5
   vertex 0.102394 0.206697 0.5
   vertex 0.0991692 0.211095 0
  endloop
 endfacet
 facet normal 0.806444 0.59131 0
  outer loop
   vertex 0.0991692 0.211095 0
   vertex 0.102394 0.206697 0.5
   vertex 0.102394 0.206697 0
  endloop
 endfacet
 facet normal 0.83147 0.55557 0
  outer loop
   vertex 0.102394 0.206697 0.5
   vertex 0.105424 0.202162 0.5
   vertex 0.102394 0.206697 0
  endloop
 endfacet
 facet normal 0.83147 0.55557 0
  outer loop
   vertex 0.102394 0.206697 0
   vertex 0.105424 0.202162 0.5
   vertex 0.105424 0.202162 0
  endloop
 endfacet
 facet normal 0.854912 0.518773 0
  outer loop
   vertex 0.105424 0.202162 0.5
   vertex 0.108253 0.1975 0.5
   vertex 0.105424 0.202162 0
  endloop
 endfacet
 facet normal 0.854912 0.518773 0
  outer loop
   vertex 0.105424 0.202162 0
   vertex 0.108253 0.1975 0.5
   vertex 0.108253 0.1975 0
  endloop
 endfacet
 facet normal 0.876727 0.480989 0
  outer loop
   vertex 0.108253 0.1975 0.5
   vertex 0.110876 0.192719 0.5
   vertex 0.108253 0.1975 0
  endloop
 endfacet
 facet normal 0.876727 0.480989 0
  outer loop
   vertex 0.108253 0.1975 0
   vertex 0.110876 0.192719 0.5
   vertex 0.110876 0.192719 0
  endloop
 endfacet
 facet normal 0.896872 0.44229 0
  outer loop
   vertex 0.110876 0.192719 0.5
   vertex 0.113288 0.187827 0.5
   vertex 0.110876 0.192719 0
  endloop
 endfacet
 facet normal 0.896872 0.44229 0
  outer loop
   vertex 0.110876 0.192719 0
   vertex 0.113288 0.187827 0.5
   vertex 0.113288 0.187827 0
  endloop
 endfacet
 facet normal 0.915312 0.402745 0
  outer loop
   vertex 0.113288 0.187827 0.5
   vertex 0.115485 0.182835 0.5
   vertex 0.113288 0.187827 0
  endloop
 endfacet
 facet normal 0.915312 0.402745 0
  outer loop
   vertex 0.113288 0.187827 0
   vertex 0.115485 0.182835 0.5
   vertex 0.115485 0.182835 0
  endloop
 endfacet
 facet normal 0.932008 0.362439 0
  outer loop
   vertex 0.115485 0.182835 0.5
   vertex 0.117462 0.177753 0.5
   vertex 0.115485 0.182835 0
  endloop
 endfacet
 facet normal 0.932008 0.362439 0
  outer loop
   vertex 0.115485 0.182835 0
   vertex 0.117462 0.177753 0.5
   vertex 0.117462 0.177753 0
  endloop
 endfacet
 facet normal 0.94693 0.321439 0
  outer loop
   vertex 0.117462 0.177753 0.5
   vertex 0.119215 0.172588 0.5
   vertex 0.117462 0.177753 0
  endloop
 endfacet
 facet normal 0.94693 0.321439 0
  outer loop
   vertex 0.117462 0.177753 0
   vertex 0.119215 0.172588 0.5
   vertex 0.119215 0.172588 0
  endloop
 endfacet
 facet normal 0.96005 0.279829 0
  outer loop
   vertex 0.119215 0.172588 0.5
   vertex 0.120741 0.167352 0.5
   vertex 0.119215 0.172588 0
  endloop
 endfacet
 facet normal 0.96005 0.279829 0
  outer loop
   vertex 0.119215 0.172588 0
   vertex 0.120741 0.167352 0.5
   vertex 0.120741 0.167352 0
  endloop
 endfacet
 facet normal 0.971342 0.237686 0
  outer loop
   vertex 0.120741 0.167352 0.5
   vertex 0.122037 0.162055 0.5
   vertex 0.120741 0.167352 0
  endloop
 endfacet
 facet normal 0.971342 0.237686 0
  outer loop
   vertex 0.120741 0.167352 0
   vertex 0.122037 0.162055 0.5
   vertex 0.122037 0.162055 0
  endloop
 endfacet
 facet normal 0.980785 0.19509 0
  outer loop
   vertex 0.122037 0.162055 0.5
   vertex 0.123101 0.156706 0.5
   vertex 0.122037 0.162055 0
  endloop
 endfacet
 facet normal 0.980785 0.19509 0
  outer loop
   vertex 0.122037 0.162055 0
   vertex 0.123101 0.156706 0.5
   vertex 0.123101 0.156706 0
  endloop
 endfacet
 facet normal 0.988361 0.152124 0
  outer loop
   vertex 0.123101 0.156706 0.5
   vertex 0.123931 0.151316 0.5
   vertex 0.123101 0.156706 0
  endloop
 endfacet
 facet normal 0.988361 0.152124 0
  outer loop
   vertex 0.123101 0.156706 0
   vertex 0.123931 0.151316 0.5
   vertex 0.123931 0.151316 0
  endloop
 endfacet
 facet normal 0.994056 0.108867 0
  outer loop
   vertex 0.123931 0.151316 0.5
   vertex 0.124524 0.145894 0.5
   vertex 0.123931 0.151316 0
  endloop
 endfacet
 facet normal 0.994056 0.108867 0
  outer loop
   vertex 0.123931 0.151316 0
   vertex 0.124524 0.145894 0.5
   vertex 0.124524 0.145894 0
  endloop
 endfacet
 facet normal 0.997859 0.0654029 0
  outer loop
   vertex 0.124524 0.145894 0.5
   vertex 0.124881 0.140452 0.5
   vertex 0.124524 0.145894 0
  endloop
 endfacet
 facet normal 0.997859 0.0654029 0
  outer loop
   vertex 0.124524 0.145894 0
   vertex 0.124881 0.140452 0.5
   vertex 0.124881 0.140452 0
  endloop
 endfacet
 facet normal 0.999762 0.0218146 0
  outer loop
   vertex 0.124881 0.140452 0.5
   vertex 0.125 0.135 0.5
   vertex 0.124881 0.140452 0
  endloop
 endfacet
 facet normal 0.999762 0.0218146 -1.20367e-18
  outer loop
   vertex 0.124881 0.140452 0
   vertex 0.125 0.135 0.5
   vertex 0.125 0.135 0
  endloop
 endfacet
 facet normal 0.999762 -0.0218146 1.21095e-18
  outer loop
   vertex 0.125 0.135 0.5
   vertex 0.124881 0.129548 0.5
   vertex 0.125 0.135 0
  endloop
 endfacet
 facet normal 0.999762 -0.0218146 0
  outer loop
   vertex 0.125 0.135 0
   vertex 0.124881 0.129548 0.5
   vertex 0.124881 0.129548 0
  endloop
 endfacet
 facet normal 0.997859 -0.0654029 0
  outer loop
   vertex 0.124881 0.129548 0.5
   vertex 0.124524 0.124106 0.5
   vertex 0.124881 0.129548 0
  endloop
 endfacet
 facet normal 0.997859 -0.0654029 0
  outer loop
   vertex 0.124881 0.129548 0
   vertex 0.124524 0.124106 0.5
   vertex 0.124524 0.124106 0
  endloop
 endfacet
 facet normal 0.994056 -0.108867 0
  outer loop
   vertex 0.124524 0.124106 0.5
   vertex 0.123931 0.118684 0.5
   vertex 0.124524 0.124106 0
  endloop
 endfacet
 facet normal 0.994056 -0.108867 0
  outer loop
   vertex 0.124524 0.124106 0
   vertex 0.123931 0.118684 0.5
   vertex 0.123931 0.118684 0
  endloop
 endfacet
 facet normal 0.988361 -0.152124 0
  outer loop
   vertex 0.123931 0.118684 0.5
   vertex 0.123101 0.113294 0.5
   vertex 0.123931 0.118684 0
  endloop
 endfacet
 facet normal 0.988361 -0.152124 0
  outer loop
   vertex 0.123931 0.118684 0
   vertex 0.123101 0.113294 0.5
   vertex 0.123101 0.113294 0
  endloop
 endfacet
 facet normal 0.980785 -0.19509 0
  outer loop
   vertex 0.123101 0.113294 0.5
   vertex 0.122037 0.107945 0.5
   vertex 0.123101 0.113294 0
  endloop
 endfacet
 facet normal 0.980785 -0.19509 0
  outer loop
   vertex 0.123101 0.113294 0
   vertex 0.122037 0.107945 0.5
   vertex 0.122037 0.107945 0
  endloop
 endfacet
 facet normal 0.971342 -0.237686 0
  outer loop
   vertex 0.122037 0.107945 0.5
   vertex 0.120741 0.102648 0.5
   vertex 0.122037 0.107945 0
  endloop
 endfacet
 facet normal 0.971342 -0.237686 0
  outer loop
   vertex 0.122037 0.107945 0
   vertex 0.120741 0.102648 0.5
   vertex 0.120741 0.102648 0
  endloop
 endfacet
 facet normal 0.96005 -0.279829 0
  outer loop
   vertex 0.120741 0.102648 0.5
   vertex 0.119215 0.0974118 0.5
   vertex 0.120741 0.102648 0
  endloop
 endfacet
 facet normal 0.96005 -0.279829 0
  outer loop
   vertex 0.120741 0.102648 0
   vertex 0.119215 0.0974118 0.5
   vertex 0.119215 0.0974118 0
  endloop
 endfacet
 facet normal 0.94693 -0.321439 0
  outer loop
   vertex 0.119215 0.0974118 0.5
   vertex 0.117462 0.0922475 0.5
   vertex 0.119215 0.0974118 0
  endloop
 endfacet
 facet normal 0.94693 -0.321439 0
  outer loop
   vertex 0.119215 0.0974118 0
   vertex 0.117462 0.0922475 0.5
   vertex 0.117462 0.0922475 0
  endloop
 endfacet
 facet normal 0.932008 -0.362439 0
  outer loop
   vertex 0.117462 0.0922475 0.5
   vertex 0.115485 0.0871646 0.5
   vertex 0.117462 0.0922475 0
  endloop
 endfacet
 facet normal 0.932008 -0.362439 0
  outer loop
   vertex 0.117462 0.0922475 0
   vertex 0.115485 0.0871646 0.5
   vertex 0.115485 0.0871646 0
  endloop
 endfacet
 facet normal 0.915312 -0.402745 0
  outer loop
   vertex 0.115485 0.0871646 0.5
   vertex 0.113288 0.0821727 0.5
   vertex 0.115485 0.0871646 0
  endloop
 endfacet
 facet normal 0.915312 -0.402745 0
  outer loop
   vertex 0.115485 0.0871646 0
   vertex 0.113288 0.0821727 0.5
   vertex 0.113288 0.0821727 0
  endloop
 endfacet
 facet normal 0.896872 -0.44229 0
  outer loop
   vertex 0.113288 0.0821727 0.5
   vertex 0.110876 0.0772814 0.5
   vertex 0.113288 0.0821727 0
  endloop
 endfacet
 facet normal 0.896872 -0.44229 0
  outer loop
   vertex 0.113288 0.0821727 0
   vertex 0.110876 0.0772814 0.5
   vertex 0.110876 0.0772814 0
  endloop
 endfacet
 facet normal 0.876727 -0.480989 0
  outer loop
   vertex 0.110876 0.0772814 0.5
   vertex 0.108253 0.0725 0.5
   vertex 0.110876 0.0772814 0
  endloop
 endfacet
 facet normal 0.876727 -0.480989 0
  outer loop
   vertex 0.110876 0.0772814 0
   vertex 0.108253 0.0725 0.5
   vertex 0.108253 0.0725 0
  endloop
 endfacet
 facet normal 0.854912 -0.518773 0
  outer loop
   vertex 0.108253 0.0725 0.5
   vertex 0.105424 0.0678375 0.5
   vertex 0.108253 0.0725 0
  endloop
 endfacet
 facet normal 0.854912 -0.518773 0
  outer loop
   vertex 0.108253 0.0725 0
   vertex 0.105424 0.0678375 0.5
   vertex 0.105424 0.0678375 0
  endloop
 endfacet
 facet normal 0.83147 -0.55557 0
  outer loop
   vertex 0.105424 0.0678375 0.5
   vertex 0.102394 0.0633029 0.5
   vertex 0.105424 0.0678375 0
  endloop
 endfacet
 facet normal 0.83147 -0.55557 0
  outer loop
   vertex 0.105424 0.0678375 0
   vertex 0.102394 0.0633029 0.5
   vertex 0.102394 0.0633029 0
  endloop
 endfacet
 facet normal 0.806444 -0.59131 0
  outer loop
   vertex 0.102394 0.0633029 0.5
   vertex 0.0991692 0.0589048 0.5
   vertex 0.102394 0.0633029 0
  endloop
 endfacet
 facet normal 0.806444 -0.59131 0
  outer loop
   vertex 0.102394 0.0633029 0
   vertex 0.0991692 0.0589048 0.5
   vertex 0.0991692 0.0589048 0
  endloop
 endfacet
 facet normal 0.779885 -0.625923 0
  outer loop
   vertex 0.0991692 0.0589048 0.5
   vertex 0.0957556 0.0546515 0.5
   vertex 0.0991692 0.0589048 0
  endloop
 endfacet
 facet normal 0.779885 -0.625923 0
  outer loop
   vertex 0.0991692 0.0589048 0
   vertex 0.0957556 0.0546515 0.5
   vertex 0.0957556 0.0546515 0
  endloop
 endfacet
 facet normal 0.75184 -0.659346 0
  outer loop
   vertex 0.0957556 0.0546515 0.5
   vertex 0.0921597 0.0505512 0.5
   vertex 0.0957556 0.0546515 0
  endloop
 endfacet
 facet normal 0.75184 -0.659346 0
  outer loop
   vertex 0.0957556 0.0546515 0
   vertex 0.0921597 0.0505512 0.5
   vertex 0.0921597 0.0505512 0
  endloop
 endfacet
 facet normal 0.722364 -0.691513 0
  outer loop
   vertex 0.0921597 0.0505512 0.5
   vertex 0.0883883 0.0466117 0.5
   vertex 0.0921597 0.0505512 0
  endloop
 endfacet
 facet normal 0.722364 -0.691513 0
  outer loop
   vertex 0.0921597 0.0505512 0
   vertex 0.0883883 0.0466117 0.5
   vertex 0.0883883 0.0466117 0
  endloop
 endfacet
 facet normal 0.691513 -0.722364 0
  outer loop
   vertex 0.0883883 0.0466117 0.5
   vertex 0.0844488 0.0428403 0.5
   vertex 0.0883883 0.0466117 0
  endloop
 endfacet
 facet normal 0.691513 -0.722364 0
  outer loop
   vertex 0.0883883 0.0466117 0
   vertex 0.0844488 0.0428403 0.5
   vertex 0.0844488 0.0428403 0
  endloop
 endfacet
 facet normal 0.659346 -0.75184 0
  outer loop
   vertex 0.0844488 0.0428403 0.5
   vertex 0.0803485 0.0392444 0.5
   vertex 0.0844488 0.0428403 0
  endloop
 endfacet
 facet normal 0.659346 -0.75184 0
  outer loop
   vertex 0.0844488 0.0428403 0
   vertex 0.0803485 0.0392444 0.5
   vertex 0.0803485 0.0392444 0
  endloop
 endfacet
 facet normal 0.625923 -0.779885 0
  outer loop
   vertex 0.0803485 0.0392444 0.5
   vertex 0.0760952 0.0358308 0.5
   vertex 0.0803485 0.0392444 0
  endloop
 endfacet
 facet normal 0.625923 -0.779885 0
  outer loop
   vertex 0.0803485 0.0392444 0
   vertex 0.0760952 0.0358308 0.5
   vertex 0.0760952 0.0358308 0
  endloop
 endfacet
 facet normal 0.59131 -0.806444 0
  outer loop
   vertex 0.0760952 0.0358308 0.5
   vertex 0.0716971 0.032606 0.5
   vertex 0.0760952 0.0358308 0
  endloop
 endfacet
 facet normal 0.59131 -0.806444 0
  outer loop
   vertex 0.0760952 0.0358308 0
   vertex 0.0716971 0.032606 0.5
   vertex 0.0716971 0.032606 0
  endloop
 endfacet
 facet normal 0.55557 -0.83147 0
  outer loop
   vertex 0.0716971 0.032606 0.5
   vertex 0.0671625 0.0295761 0.5
   vertex 0.0716971 0.032606 0
  endloop
 endfacet
 facet normal 0.55557 -0.83147 0
  outer loop
   vertex 0.0716971 0.032606 0
   vertex 0.0671625 0.0295761 0.5
   vertex 0.0671625 0.0295761 0
  endloop
 endfacet
 facet normal 0.518773 -0.854912 0
  outer loop
   vertex 0.0671625 0.0295761 0.5
   vertex 0.0625 0.0267468 0.5
   vertex 0.0671625 0.0295761 0
  endloop
 endfacet
 facet normal 0.518773 -0.854912 0
  outer loop
   vertex 0.0671625 0.0295761 0
   vertex 0.0625 0.0267468 0.5
   vertex 0.0625 0.0267468 0
  endloop
 endfacet
 facet normal 0.480989 -0.876727 0
  outer loop
   vertex 0.0625 0.0267468 0.5
   vertex 0.0577186 0.0241236 0.5
   vertex 0.0625 0.0267468 0
  endloop
 endfacet
 facet normal 0.480989 -0.876727 0
  outer loop
   vertex 0.0625 0.0267468 0
   vertex 0.0577186 0.0241236 0.5
   vertex 0.0577186 0.0241236 0
  endloop
 endfacet
 facet normal 0.44229 -0.896872 0
  outer loop
   vertex 0.0577186 0.0241236 0.5
   vertex 0.0528273 0.0217115 0.5
   vertex 0.0577186 0.0241236 0
  endloop
 endfacet
 facet normal 0.44229 -0.896872 0
  outer loop
   vertex 0.0577186 0.0241236 0
   vertex 0.0528273 0.0217115 0.5
   vertex 0.0528273 0.0217115 0
  endloop
 endfacet
 facet normal 0.402745 -0.915312 0
  outer loop
   vertex 0.0528273 0.0217115 0.5
   vertex 0.0478354 0.0195151 0.5
   vertex 0.0528273 0.0217115 0
  endloop
 endfacet
 facet normal 0.402745 -0.915312 0
  outer loop
   vertex 0.0528273 0.0217115 0
   vertex 0.0478354 0.0195151 0.5
   vertex 0.0478354 0.0195151 0
  endloop
 endfacet
 facet normal 0.362439 -0.932008 0
  outer loop
   vertex 0.0478354 0.0195151 0.5
   vertex 0.0427525 0.0175384 0.5
   vertex 0.0478354 0.0195151 0
  endloop
 endfacet
 facet normal 0.362439 -0.932008 0
  outer loop
   vertex 0.0478354 0.0195151 0
   vertex 0.0427525 0.0175384 0.5
   vertex 0.0427525 0.0175384 0
  endloop
 endfacet
 facet normal 0.321439 -0.94693 0
  outer loop
   vertex 0.0427525 0.0175384 0.5
   vertex 0.0375882 0.0157854 0.5
   vertex 0.0427525 0.0175384 0
  endloop
 endfacet
 facet normal 0.321439 -0.94693 0
  outer loop
   vertex 0.0427525 0.0175384 0
   vertex 0.0375882 0.0157854 0.5
   vertex 0.0375882 0.0157854 0
  endloop
 endfacet
 facet normal 0.279829 -0.96005 0
  outer loop
   vertex 0.0375882 0.0157854 0.5
   vertex 0.0323524 0.0142593 0.5
   vertex 0.0375882 0.0157854 0
  endloop
 endfacet
 facet normal 0.279829 -0.96005 0
  outer loop
   vertex 0.0375882 0.0157854 0
   vertex 0.0323524 0.0142593 0.5
   vertex 0.0323524 0.0142593 0
  endloop
 endfacet
 facet normal 0.237686 -0.971342 0
  outer loop
   vertex 0.0323524 0.0142593 0.5
   vertex 0.027055 0.012963 0.5
   vertex 0.0323524 0.0142593 0
  endloop
 endfacet
 facet normal 0.237686 -0.971342 0
  outer loop
   vertex 0.0323524 0.0142593 0
   vertex 0.027055 0.012963 0.5
   vertex 0.027055 0.012963 0
  endloop
 endfacet
 facet normal 0.19509 -0.980785 0
  outer loop
   vertex 0.027055 0.012963 0.5
   vertex 0.021706 0.011899 0.5
   vertex 0.027055 0.012963 0
  endloop
 endfacet
 facet normal 0.19509 -0.980785 0
  outer loop
   vertex 0.027055 0.012963 0
   vertex 0.021706 0.011899 0.5
   vertex 0.021706 0.011899 0
  endloop
 endfacet
 facet normal 0.152124 -0.988361 0
  outer loop
   vertex 0.021706 0.011899 0.5
   vertex 0.0163158 0.0110694 0.5
   vertex 0.021706 0.011899 0
  endloop
 endfacet
 facet normal 0.152124 -0.988361 0
  outer loop
   vertex 0.021706 0.011899 0
   vertex 0.0163158 0.0110694 0.5
   vertex 0.0163158 0.0110694 0
  endloop
 endfacet
 facet normal 0.108867 -0.994056 0
  outer loop
   vertex 0.0163158 0.0110694 0.5
   vertex 0.0108945 0.0104757 0.5
   vertex 0.0163158 0.0110694 0
  endloop
 endfacet
 facet normal 0.108867 -0.994056 0
  outer loop
   vertex 0.0163158 0.0110694 0
   vertex 0.0108945 0.0104757 0.5
   vertex 0.0108945 0.0104757 0
  endloop
 endfacet
 facet normal 0.0654029 -0.997859 0
  outer loop
   vertex 0.0108945 0.0104757 0.5
   vertex 0.00545242 0.010119 0.5
   vertex 0.0108945 0.0104757 0
  endloop
 endfacet
 facet normal 0.0654029 -0.997859 0
  outer loop
   vertex 0.0108945 0.0104757 0
   vertex 0.00545242 0.010119 0.5
   vertex 0.00545242 0.010119 0
  endloop
 endfacet
 facet normal 0.0218146 -0.999762 0
  outer loop
   vertex 0.00545242 0.010119 0.5
   vertex 2.29621e-17 0.01 0.5
   vertex 0.00545242 0.010119 0
  endloop
 endfacet
 facet normal 0.0218146 -0.999762 0
  outer loop
   vertex 0.00545242 0.010119 0
   vertex 2.29621e-17 0.01 0.5
   vertex 2.29621e-17 0.01 0
  endloop
 endfacet
 facet normal -0.0218146 -0.999762 -0
  outer loop
   vertex 2.29621e-17 0.01 0.5
   vertex -0.00545242 0.010119 0.5
   vertex 2.29621e-17 0.01 0
  endloop
 endfacet
 facet normal -0.0218146 -0.999762 0
  outer loop
   vertex 2.29621e-17 0.01 0
   vertex -0.00545242 0.010119 0.5
   vertex -0.00545242 0.010119 0
  endloop
 endfacet
 facet normal -0.0654029 -0.997859 -0
  outer loop
   vertex -0.00545242 0.010119 0.5
   vertex -0.0108945 0.0104757 0.5
   vertex -0.00545242 0.010119 0
  endloop
 endfacet
 facet normal -0.0654029 -0.997859 0
  outer loop
   vertex -0.00545242 0.010119 0
   vertex -0.0108945 0.0104757 0.5
   vertex -0.0108945 0.0104757 0
  endloop
 endfacet
 facet normal -0.108867 -0.994056 -0
  outer loop
   vertex -0.0108945 0.0104757 0.5
   vertex -0.0163158 0.0110694 0.5
   vertex -0.0108945 0.0104757 0
  endloop
 endfacet
 facet normal -0.108867 -0.994056 0
  outer loop
   vertex -0.0108945 0.0104757 0
   vertex -0.0163158 0.0110694 0.5
   vertex -0.0163158 0.0110694 0
  endloop
 endfacet
 facet normal -0.152124 -0.988361 -0
  outer loop
   vertex -0.0163158 0.0110694 0.5
   vertex -0.021706 0.011899 0.5
   vertex -0.0163158 0.0110694 0
  endloop
 endfacet
 facet normal -0.152124 -0.988361 0
  outer loop
   vertex -0.0163158 0.0110694 0
   vertex -0.021706 0.011899 0.5
   vertex -0.021706 0.011899 0
  endloop
 endfacet
 facet normal -0.19509 -0.980785 -0
  outer loop
   vertex -0.021706 0.011899 0.5
   vertex -0.027055 0.012963 0.5
   vertex -0.021706 0.011899 0
  endloop
 endfacet
 facet normal -0.19509 -0.980785 0
  outer loop
   vertex -0.021706 0.011899 0
   vertex -0.027055 0.012963 0.5
   vertex -0.027055 0.012963 0
  endloop
 endfacet
 facet normal -0.237686 -0.971342 -0
  outer loop
   vertex -0.027055 0.012963 0.5
   vertex -0.0323524 0.0142593 0.5
   vertex -0.027055 0.012963 0
  endloop
 endfacet
 facet normal -0.237686 -0.971342 0
  outer loop
   vertex -0.027055 0.012963 0
   vertex -0.0323524 0.0142593 0.5
   vertex -0.0323524 0.0142593 0
  endloop
 endfacet
 facet normal -0.279829 -0.96005 -0
  outer loop
   vertex -0.0323524 0.0142593 0.5
   vertex -0.0375882 0.0157854 0.5
   vertex -0.0323524 0.0142593 0
  endloop
 endfacet
 facet normal -0.279829 -0.96005 0
  outer loop
   vertex -0.0323524 0.0142593 0
   vertex -0.0375882 0.0157854 0.5
   vertex -0.0375882 0.0157854 0
  endloop
 endfacet
 facet normal -0.321439 -0.94693 -0
  outer loop
   vertex -0.0375882 0.0157854 0.5
   vertex -0.0427525 0.0175384 0.5
   vertex -0.0375882 0.0157854 0
  endloop
 endfacet
 facet normal -0.321439 -0.94693 0
  outer loop
   vertex -0.0375882 0.0157854 0
   vertex -0.0427525 0.0175384 0.5
   vertex -0.0427525 0.0175384 0
  endloop
 endfacet
 facet normal -0.362439 -0.932008 -0
  outer loop
   vertex -0.0427525 0.0175384 0.5
   vertex -0.0478354 0.0195151 0.5
   vertex -0.0427525 0.0175384 0
  endloop
 endfacet
 facet normal -0.362439 -0.932008 0
  outer loop
   vertex -0.0427525 0.0175384 0
   vertex -0.0478354 0.0195151 0.5
   vertex -0.0478354 0.0195151 0
  endloop
 endfacet
 facet normal -0.402745 -0.915312 -0
  outer loop
   vertex -0.0478354 0.0195151 0.5
   vertex -0.0528273 0.0217115 0.5
   vertex -0.0478354 0.0195151 0
  endloop
 endfacet
 facet normal -0.402745 -0.915312 0
  outer loop
   vertex -0.0478354 0.0195151 0
   vertex -0.0528273 0.0217115 0.5
   vertex -0.0528273 0.0217115 0
  endloop
 endfacet
 facet normal -0.44229 -0.896872 -0
  outer loop
   vertex -0.0528273 0.0217115 0.5
   vertex -0.0577186 0.0241236 0.5
   vertex -0.0528273 0.0217115 0
  endloop
 endfacet
 facet normal -0.44229 -0.896872 0
  outer loop
   vertex -0.0528273 0.0217115 0
   vertex -0.0577186 0.0241236 0.5
   vertex -0.0577186 0.0241236 0
  endloop
 endfacet
 facet normal -0.480989 -0.876727 -0
  outer loop
   vertex -0.0577186 0.0241236 0.5
   vertex -0.0625 0.0267468 0.5
   vertex -0.0577186 0.0241236 0
  endloop
 endfacet
 facet normal -0.480989 -0.876727 0
  outer loop
   vertex -0.0577186 0.0241236 0
   vertex -0.0625 0.0267468 0.5
   vertex -0.0625 0.0267468 0
  endloop
 endfacet
 facet normal -0.518773 -0.854912 -0
  outer loop
   vertex -0.0625 0.0267468 0.5
   vertex -0.0671625 0.0295761 0.5
   vertex -0.0625 0.0267468 0
  endloop
 endfacet
 facet normal -0.518773 -0.854912 0
  outer loop
   vertex -0.0625 0.0267468 0
   vertex -0.0671625 0.0295761 0.5
   vertex -0.0671625 0.0295761 0
  endloop
 endfacet
 facet normal -0.55557 -0.83147 -0
  outer loop
   vertex -0.0671625 0.0295761 0.5
   vertex -0.0716971 0.032606 0.5
   vertex -0.0671625 0.0295761 0
  endloop
 endfacet
 facet normal -0.55557 -0.83147 0
  outer loop
   vertex -0.0671625 0.0295761 0
   vertex -0.0716971 0.032606 0.5
   vertex -0.0716971 0.032606 0
  endloop
 endfacet
 facet normal -0.59131 -0.806444 -0
  outer loop
   vertex -0.0716971 0.032606 0.5
   vertex -0.0760952 0.0358308 0.5
   vertex -0.0716971 0.032606 0
  endloop
 endfacet
 facet normal -0.59131 -0.806444 0
  outer loop
   vertex -0.0716971 0.032606 0
   vertex -0.0760952 0.0358308 0.5
   vertex -0.0760952 0.0358308 0
  endloop
 endfacet
 facet normal -0.625923 -0.779885 -0
  outer loop
   vertex -0.0760952 0.0358308 0.5
   vertex -0.0803485 0.0392444 0.5
   vertex -0.0760952 0.0358308 0
  endloop
 endfacet
 facet normal -0.625923 -0.779885 0
  outer loop
   vertex -0.0760952 0.0358308 0
   vertex -0.0803485 0.0392444 0.5
   vertex -0.0803485 0.0392444 0
  endloop
 endfacet
 facet normal -0.659346 -0.75184 -0
  outer loop
   vertex -0.0803485 0.0392444 0.5
   vertex -0.0844488 0.0428403 0.5
   vertex -0.0803485 0.0392444 0
  endloop
 endfacet
 facet normal -0.659346 -0.75184 0
  outer loop
   vertex -0.0803485 0.0392444 0
   vertex -0.0844488 0.0428403 0.5
   vertex -0.0844488 0.0428403 0
  endloop
 endfacet
 facet normal -0.691513 -0.722364 -0
  outer loop
   vertex -0.0844488 0.0428403 0.5
   vertex -0.0883883 0.0466117 0.5
   vertex -0.0844488 0.0428403 0
  endloop
 endfacet
 facet normal -0.691513 -0.722364 0
  outer loop
   vertex -0.0844488 0.0428403 0
   vertex -0.0883883 0.0466117 0.5
   vertex -0.0883883 0.0466117 0
  endloop
 endfacet
 facet normal -0.722364 -0.691513 -0
  outer loop
   vertex -0.0883883 0.0466117 0.5
   vertex -0.0921597 0.0505512 0.5
   vertex -0.0883883 0.0466117 0
  endloop
 endfacet
 facet normal -0.722364 -0.691513 0
  outer loop
   vertex -0.0883883 0.0466117 0
   vertex -0.0921597 0.0505512 0.5
   vertex -0.0921597 0.0505512 0
  endloop
 endfacet
 facet normal -0.75184 -0.659346 -0
  outer loop
   vertex -0.0921597 0.0505512 0.5
   vertex -0.0957556 0.0546515 0.5
   vertex -0.0921597 0.0505512 0
  endloop
 endfacet
 facet normal -0.75184 -0.659346 0
  outer loop
   vertex -0.0921597 0.0505512 0
   vertex -0.0957556 0.0546515 0.5
   vertex -0.0957556 0.0546515 0
  endloop
 endfacet
 facet normal -0.779885 -0.625923 -0
  outer loop
   vertex -0.0957556 0.0546515 0.5
   vertex -0.0991692 0.0589048 0.5
   vertex -0.0957556 0.0546515 0
  endloop
 endfacet
 facet normal -0.779885 -0.625923 0
  outer loop
   vertex -0.0957556 0.0546515 0
   vertex -0.0991692 0.0589048 0.5
   vertex -0.0991692 0.0589048 0
  endloop
 endfacet
 facet normal -0.806444 -0.59131 -0
  outer loop
   vertex -0.0991692 0.0589048 0.5
   vertex -0.102394 0.0633029 0.5
   vertex -0.0991692 0.0589048 0
  endloop
 endfacet
 facet normal -0.806444 -0.59131 0
  outer loop
   vertex -0.0991692 0.0589048 0
   vertex -0.102394 0.0633029 0.5
   vertex -0.102394 0.0633029 0
  endloop
 endfacet
 facet normal -0.83147 -0.55557 -0
  outer loop
   vertex -0.102394 0.0633029 0.5
   vertex -0.105424 0.0678375 0.5
   vertex -0.102394 0.0633029 0
  endloop
 endfacet
 facet normal -0.83147 -0.55557 0
  outer loop
   vertex -0.102394 0.0633029 0
   vertex -0.105424 0.0678375 0.5
   vertex -0.105424 0.0678375 0
  endloop
 endfacet
 facet normal -0.854912 -0.518773 -0
  outer loop
   vertex -0.105424 0.0678375 0.5
   vertex -0.108253 0.0725 0.5
   vertex -0.105424 0.0678375 0
  endloop
 endfacet
 facet normal -0.854912 -0.518773 0
  outer loop
   vertex -0.105424 0.0678375 0
   vertex -0.108253 0.0725 0.5
   vertex -0.108253 0.0725 0
  endloop
 endfacet
 facet normal -0.876727 -0.480989 -0
  outer loop
   vertex -0.108253 0.0725 0.5
   vertex -0.110876 0.0772814 0.5
   vertex -0.108253 0.0725 0
  endloop
 endfacet
 facet normal -0.876727 -0.480989 0
  outer loop
   vertex -0.108253 0.0725 0
   vertex -0.110876 0.0772814 0.5
   vertex -0.110876 0.0772814 0
  endloop
 endfacet
 facet normal -0.896872 -0.44229 -0
  outer loop
   vertex -0.110876 0.0772814 0.5
   vertex -0.113288 0.0821727 0.5
   vertex -0.110876 0.0772814 0
  endloop
 endfacet
 facet normal -0.896872 -0.44229 0
  outer loop
   vertex -0.110876 0.0772814 0
   vertex -0.113288 0.0821727 0.5
   vertex -0.113288 0.0821727 0
  endloop
 endfacet
 facet normal -0.915312 -0.402745 -0
  outer loop
   vertex -0.113288 0.0821727 0.5
   vertex -0.115485 0.0871646 0.5
   vertex -0.113288 0.0821727 0
  endloop
 endfacet
 facet normal -0.915312 -0.402745 0
  outer loop
   vertex -0.113288 0.0821727 0
   vertex -0.115485 0.0871646 0.5
   vertex -0.115485 0.0871646 0
  endloop
 endfacet
 facet normal -0.932008 -0.362439 -0
  outer loop
   vertex -0.115485 0.0871646 0.5
   vertex -0.117462 0.0922475 0.5
   vertex -0.115485 0.0871646 0
  endloop
 endfacet
 facet normal -0.932008 -0.362439 0
  outer loop
   vertex -0.115485 0.0871646 0
   vertex -0.117462 0.0922475 0.5
   vertex -0.117462 0.0922475 0
  endloop
 endfacet
 facet normal -0.94693 -0.321439 -0
  outer loop
   vertex -0.117462 0.0922475 0.5
   vertex -0.119215 0.0974118 0.5
   vertex -0.117462 0.0922475 0
  endloop
 endfacet
 facet normal -0.94693 -0.321439 0
  outer loop
   vertex -0.117462 0.0922475 0
   vertex -0.119215 0.0974118 0.5
   vertex -0.119215 0.0974118 0
  endloop
 endfacet
 facet normal -0.96005 -0.279829 -0
  outer loop
   vertex -0.119215 0.0974118 0.5
   vertex -0.120741 0.102648 0.5
   vertex -0.119215 0.0974118 0
  endloop
 endfacet
 facet normal -0.96005 -0.279829 0
  outer loop
   vertex -0.119215 0.0974118 0
   vertex -0.120741 0.102648 0.5
   vertex -0.120741 0.102648 0
  endloop
 endfacet
 facet normal -0.971342 -0.237686 -0
  outer loop
   vertex -0.120741 0.102648 0.5
   vertex -0.122037 0.107945 0.5
   vertex -0.120741 0.102648 0
  endloop
 endfacet
 facet normal -0.971342 -0.237686 0
  outer loop
   vertex -0.120741 0.102648 0
   vertex -0.122037 0.107945 0.5
   vertex -0.122037 0.107945 0
  endloop
 endfacet
 facet normal -0.980785 -0.19509 -0
  outer loop
   vertex -0.122037 0.107945 0.5
   vertex -0.123101 0.113294 0.5
   vertex -0.122037 0.107945 0
  endloop
 endfacet
 facet normal -0.980785 -0.19509 0
  outer loop
   vertex -0.122037 0.107945 0
   vertex -0.123101 0.113294 0.5
   vertex -0.123101 0.113294 0
  endloop
 endfacet
 facet normal -0.988361 -0.152124 -0
  outer loop
   vertex -0.123101 0.113294 0.5
   vertex -0.123931 0.118684 0.5
   vertex -0.123101 0.113294 0
  endloop
 endfacet
 facet normal -0.988361 -0.152124 0
  outer loop
   vertex -0.123101 0.113294 0
   vertex -0.123931 0.118684 0.5
   vertex -0.123931 0.118684 0
  endloop
 endfacet
 facet normal -0.994056 -0.108867 -0
  outer loop
   vertex -0.123931 0.118684 0.5
   vertex -0.124524 0.124106 0.5
   vertex -0.123931 0.118684 0
  endloop
 endfacet
 facet normal -0.994056 -0.108867 0
  outer loop
   vertex -0.123931 0.118684 0
   vertex -0.124524 0.124106 0.5
   vertex -0.124524 0.124106 0
  endloop
 endfacet
 facet normal -0.997859 -0.0654029 -0
  outer loop
   vertex -0.124524 0.124106 0.5
   vertex -0.124881 0.129548 0.5
   vertex -0.124524 0.124106 0
  endloop
 endfacet
 facet normal -0.997859 -0.0654029 0
  outer loop
   vertex -0.124524 0.124106 0
   vertex -0.124881 0.129548 0.5
   vertex -0.124881 0.129548 0
  endloop
 endfacet
 facet normal -0.999762 -0.0218146 -0
  outer loop
   vertex -0.124881 0.129548 0.5
   vertex -0.125 0.135 0.5
   vertex -0.124881 0.129548 0
  endloop
 endfacet
 facet normal -0.999762 -0.0218146 0
  outer loop
   vertex -0.124881 0.129548 0
   vertex -0.125 0.135 0.5
   vertex -0.125 0.135 0
  endloop
 endfacet
 facet normal -0.999762 0.0218146 0
  outer loop
   vertex -0.125 0.135 0.5
   vertex -0.124881 0.140452 0.5
   vertex -0.125 0.135 0
  endloop
 endfacet
 facet normal 0 -0 1
  outer loop
   vertex 0.124524 0.124106 0.5
   vertex 0.124881 0.129548 0.5
   vertex 0 0.135 0.5
  endloop
 endfacet
 facet normal 0 -0 1
  outer loop
   vertex 0.124881 0.129548 0.5
   vertex 0.125 0.135 0.5
   vertex 0 0.135 0.5
  endloop
 endfacet
 facet normal 0 0 1
  outer loop
   vertex 0 0.135 0.5
   vertex 0.125 0.135 0.5
   vertex 0.124881 0.140452 0.5
  endloop
 endfacet
 facet normal 0 -0 1
  outer loop
   vertex 0.122037 0.107945 0.5
   vertex 0.123101 0.113294 0.5
   vertex 0 0.135 0.5
  endloop
 endfacet
 facet normal 0 -0 1
  outer loop
   vertex 0.123101 0.113294 0.5
   vertex 0.123931 0.118684 0.5
   vertex 0 0.135 0.5
  endloop
 endfacet
 facet normal 0 0 1
  outer loop
   vertex 0 0.135 0.5
   vertex 0.123931 0.118684 0.5
   vertex 0.124524 0.124106 0.5
  endloop
 endfacet
 facet normal 0 -0 1
  outer loop
   vertex 0.117462 0.0922475 0.5
   vertex 0.119215 0.0974118 0.5
   vertex 0 0.135 0.5
  endloop
 endfacet
 facet normal 0 -0 1
  outer loop
   vertex 0.119215 0.0974118 0.5
   vertex 0.120741 0.102648 0.5
   vertex 0 0.135 0.5
  endloop
 endfacet
 facet normal 0 0 1
  outer loop
   vertex 0 0.135 0.5
   vertex 0.120741 0.102648 0.5
   vertex 0.122037 0.107945 0.5
  endloop
 endfacet
 facet normal 0 -0 1
  outer loop
   vertex 0.110876 0.0772814 0.5
   vertex 0.113288 0.0821727 0.5
   vertex 0 0.135 0.5
  endloop
 endfacet
 facet normal 0 -0 1
  outer loop
   vertex 0.113288 0.0821727 0.5
   vertex 0.115485 0.0871646 0.5
   vertex 0 0.135 0.5
  endloop
 endfacet
 facet normal 0 0 1
  outer loop
   vertex 0 0.135 0.5
   vertex 0.115485 0.0871646 0.5
   vertex 0.117462 0.0922475 0.5
  endloop
 endfacet
 facet normal 0 -0 1
  outer loop
   vertex 0.102394 0.0633029 0.5
   vertex 0.105424 0.0678375 0.5
   vertex 0 0.135 0.5
  endloop
 endfacet
 facet normal 0 -0 1
  outer loop
   vertex 0.105424 0.0678375 0.5
   vertex 0.108253 0.0725 0.5
   vertex 0 0.135 0.5
  endloop
 endfacet
 facet normal 0 0 1
  outer loop
   vertex 0 0.135 0.5
   vertex 0.108253 0.0725 0.5
   vertex 0.110876 0.0772814 0.5
  endloop
 endfacet
 facet normal 0 -0 1
  outer loop
   vertex 0.0921597 0.0505512 0.5
   vertex 0.0957556 0.0546515 0.5
   vertex 0 0.135 0.5
  endloop
 endfacet
 facet normal 0 -0 1
  outer loop
   vertex 0.0957556 0.0546515 0.5
   vertex 0.0991692 0.0589048 0.5
   vertex 0 0.135 0.5
  endloop
 endfacet
 facet normal 0 0 1
  outer loop
   vertex 0 0.135 0.5
   vertex 0.0991692 0.0589048 0.5
   vertex 0.102394 0.0633029 0.5
  endloop
 endfacet
 facet normal 0 -0 1
  outer loop
   vertex 0.0803485 0.0392444 0.5
   vertex 0.0844488 0.0428403 0.5
   vertex 0 0.135 0.5
  endloop
 endfacet
 facet normal 0 -0 1
  outer loop
   vertex 0.0844488 0.0428403 0.5
   vertex 0.0883883 0.0466117 0.5
   vertex 0 0.135 0.5
  endloop
 endfacet
 facet normal 0 0 1
  outer loop
   vertex 0 0.135 0.5
   vertex 0.0883883 0.0466117 0.5
   vertex 0.0921597 0.0505512 0.5
  endloop
 endfacet
 facet normal 0 -0 1
  outer loop
   vertex 0.0671625 0.0295761 0.5
   vertex 0.0716971 0.032606 0.5
   vertex 0 0.135 0.5
  endloop
 endfacet
 facet normal 0 -0 1
  outer loop
   vertex 0.0716971 0.032606 0.5
   vertex 0.0760952 0.0358308 0.5
   vertex 0 0.135 0.5
  endloop
 endfacet
 facet normal 0 0 1
  outer loop
   vertex 0 0.135 0.5
   vertex 0.0760952 0.0358308 0.5
   vertex 0.0803485 0.0392444 0.5
  endloop
 endfacet
 facet normal 0 -0 1
  outer loop
   vertex 0.0528273 0.0217115 0.5
   vertex 0.0577186 0.0241236 0.5
   vertex 0 0.135 0.5
  endloop
 endfacet
 facet normal 0 -0 1
  outer loop
   vertex 0.0577186 0.0241236 0.5
   vertex 0.0625 0.0267468 0.5
   vertex 0 0.135 0.5
  endloop
 endfacet
 facet normal 0 0 1
  outer loop
   vertex 0 0.135 0.5
   vertex 0.0625 0.0267468 0.5
   vertex 0.0671625 0.0295761 0.5
  endloop
 endfacet
 facet normal 0 -0 1
  outer loop
   vertex 0.0375882 0.0157854 0.5
   vertex 0.0427525 0.0175384 0.5
   vertex 0 0.135 0.5
  endloop
 endfacet
 facet normal 0 -0 1
  outer loop
   vertex 0.0427525 0.0175384 0.5
   vertex 0.0478354 0.0195151 0.5
   vertex 0 0.135 0.5
  endloop
 endfacet
 facet normal 0 0 1
  outer loop
   vertex 0 0.135 0.5
   vertex 0.0478354 0.0195151 0.5
   vertex 0.0528273 0.0217115 0.5
  endloop
 endfacet
 facet normal 0 -0 1
  outer loop
   vertex 0.021706 0.011899 0.5
   vertex 0.027055 0.012963 0.5
   vertex 0 0.135 0.5
  endloop
 endfacet
 facet normal 0 -0 1
  outer loop
   vertex 0.027055 0.012963 0.5
   vertex 0.0323524 0.0142593 0.5
   vertex 0 0.135 0.5
  endloop
 endfacet
 facet normal 0 0 1
  outer loop
   vertex 0 0.135 0.5
   vertex 0.0323524 0.0142593 0.5
   vertex 0.0375882 0.0157854 0.5
  endloop
 endfacet
 facet normal 0 -0 1
  outer loop
   vertex 0.00545242 0.010119 0.5
   vertex 0.0108945 0.0104757 0.5
   vertex 0 0.135 0.5
  endloop
 endfacet
 facet normal 0 -0 1
  outer loop
   vertex 0.0108945 0.0104757 0.5
   vertex 0.0163158 0.0110694 0.5
   vertex 0 0.135 0.5
  endloop
 endfacet
 facet normal 0 0 1
  outer loop
   vertex 0 0.135 0.5
   vertex 0.0163158 0.0110694 0.5
   vertex 0.021706 0.011899 0.5
  endloop
 endfacet
 facet normal -0 0 1
  outer loop
   vertex -0.0108945 0.0104757 0.5
   vertex -0.00545242 0.010119 0.5
   vertex 0 0.135 0.5
  endloop
 endfacet
 facet normal -0 0 1
  outer loop
   vertex -0.00545242 0.010119 0.5
   vertex 2.29621e-17 0.01 0.5
   vertex 0 0.135 0.5
  endloop
 endfacet
 facet normal 0 0 1
  outer loop
   vertex 0 0.135 0.5
   vertex 2.29621e-17 0.01 0.5
   vertex 0.00545242 0.010119 0.5
  endloop
 endfacet
 facet normal -0 0 1
  outer loop
   vertex -0.027055 0.012963 0.5
   vertex -0.021706 0.011899 0.5
   vertex 0 0.135 0.5
  endloop
 endfacet
 facet normal -0 0 1
  outer loop
   vertex -0.021706 0.011899 0.5
   vertex -0.0163158 0.0110694 0.5
   vertex 0 0.135 0.5
  endloop
 endfacet
 facet normal 0 0 1
  outer loop
   vertex 0 0.135 0.5
   vertex -0.0163158 0.0110694 0.5
   vertex -0.0108945 0.0104757 0.5
  endloop
 endfacet
 facet normal -0 0 1
  outer loop
   vertex -0.0427525 0.0175384 0.5
   vertex -0.0375882 0.0157854 0.5
   vertex 0 0.135 0.5
  endloop
 endfacet
 facet normal -0 0 1
  outer loop
   vertex -0.0375882 0.0157854 0.5
   vertex -0.0323524 0.0142593 0.5
   vertex 0 0.135 0.5
  endloop
 endfacet
 facet normal 0 0 1
  outer loop
   vertex 0 0.135 0.5
   vertex -0.0323524 0.0142593 0.5
   vertex -0.027055 0.012963 0.5
  endloop
 endfacet
 facet normal -0 0 1
  outer loop
   vertex -0.0577186 0.0241236 0.5
   vertex -0.0528273 0.0217115 0.5
   vertex 0 0.135 0.5
  endloop
 endfacet
 facet normal -0 0 1
  outer loop
   vertex -0.0528273 0.0217115 0.5
   vertex -0.0478354 0.0195151 0.5
   vertex 0 0.135 0.5
  endloop
 endfacet
 facet normal 0 0 1
  outer loop
   vertex 0 0.135 0.5
   vertex -0.0478354 0.0195151 0.5
   vertex -0.0427525 0.0175384 0.5
  endloop
 endfacet
 facet normal -0 0 1
  outer loop
   vertex -0.0716971 0.032606 0.5
   vertex -0.0671625 0.0295761 0.5
   vertex 0 0.135 0.5
  endloop
 endfacet
 facet normal -0 0 1
  outer loop
   vertex -0.0671625 0.0295761 0.5
   vertex -0.0625 0.0267468 0.5
   vertex 0 0.135 0.5
  endloop
 endfacet
 facet normal 0 0 1
  outer loop
   vertex 0 0.135 0.5
   vertex -0.0625 0.0267468 0.5
   vertex -0.0577186 0.0241236 0.5
  endloop
 endfacet
 facet normal -0 0 1
  outer loop
   vertex -0.0844488 0.0428403 0.5
   vertex -0.0803485 0.0392444 0.5
   vertex 0 0.135 0.5
  endloop
 endfacet
 facet normal -0 0 1
  outer loop
   vertex -0.0803485 0.0392444 0.5
   vertex -0.0760952 0.0358308 0.5
   vertex 0 0.135 0.5
  endloop
 endfacet
 facet normal 0 0 1
  outer loop
   vertex 0 0.135 0.5
   vertex -0.0760952 0.0358308 0.5
   vertex -0.0716971 0.032606 0.5
  endloop
 endfacet
 facet normal -0 0 1
  outer loop
   vertex -0.0957556 0.0546515 0.5
   vertex -0.0921597 0.0505512 0.5
   vertex 0 0.135 0.5
  endloop
 endfacet
 facet normal -0 0 1
  outer loop
   vertex -0.0921597 0.0505512 0.5
   vertex -0.0883883 0.0466117 0.5
   vertex 0 0.135 0.5
  endloop
 endfacet
 facet normal 0 0 1
  outer loop
   vertex 0 0.135 0.5
   vertex -0.0883883 0.0466117 0.5
   vertex -0.0844488 0.0428403 0.5
  endloop
 endfacet
 facet normal -0 0 1
  outer loop
   vertex -0.105424 0.0678375 0.5
   vertex -0.102394 0.0633029 0.5
   vertex 0 0.135 0.5
  endloop
 endfacet
 facet normal -0 0 1
  outer loop
   vertex -0.102394 0.0633029 0.5
   vertex -0.0991692 0.0589048 0.5
   vertex 0 0.135 0.5
  endloop
 endfacet
 facet normal 0 0 1
  outer loop
   vertex 0 0.135 0.5
   vertex -0.0991692 0.0589048 0.5
   vertex -0.0957556 0.0546515 0.5
  endloop
 endfacet
 facet normal -0 0 1
  outer loop
   vertex -0.113288 0.0821727 0.5
   vertex -0.110876 0.0772814 0.5
   vertex 0 0.135 0.5
  endloop
 endfacet
 facet normal -0 0 1
  outer loop
   vertex -0.110876 0.0772814 0.5
   vertex -0.108253 0.0725 0.5
   vertex 0 0.135 0.5
  endloop
 endfacet
 facet normal 0 0 1
  outer loop
   vertex 0 0.135 0.5
   vertex -0.108253 0.0725 0.5
   vertex -0.105424 0.0678375 0.5
  endloop
 endfacet
 facet normal -0 0 1
  outer loop
   vertex -0.119215 0.0974118 0.5
   vertex -0.117462 0.0922475 0.5
   vertex 0 0.135 0.5
  endloop
 endfacet
 facet normal -0 0 1
  outer loop
   vertex -0.117462 0.0922475 0.5
   vertex -0.115485 0.0871646 0.5
   vertex 0 0.135 0.5
  endloop
 endfacet
 facet normal 0 0 1
  outer loop
   vertex 0 0.135 0.5
   vertex -0.115485 0.0871646 0.5
   vertex -0.113288 0.0821727 0.5
  endloop
 endfacet
 facet normal -0 0 1
  outer loop
   vertex -0.123101 0.113294 0.5
   vertex -0.122037 0.107945 0.5
   vertex 0 0.135 0.5
  endloop
 endfacet
 facet normal -0 0 1
  outer loop
   vertex -0.122037 0.107945 0.5
   vertex -0.120741 0.102648 0.5
   vertex 0 0.135 0.5
  endloop
 endfacet
 facet normal 0 0 1
  outer loop
   vertex 0 0.135 0.5
   vertex -0.120741 0.102648 0.5
   vertex -0.119215 0.0974118 0.5
  endloop
 endfacet
 facet normal -0 0 1
  outer loop
   vertex -0.124881 0.129548 0.5
   vertex -0.124524 0.124106 0.5
   vertex 0 0.135 0.5
  endloop
 endfacet
 facet normal -0 0 1
  outer loop
   vertex -0.124524 0.124106 0.5
   vertex -0.123931 0.118684 0.5
   vertex 0 0.135 0.5
  endloop
 endfacet
 facet normal 0 0 1
  outer loop
   vertex 0 0.135 0.5
   vertex -0.123931 0.118684 0.5
   vertex -0.123101 0.113294 0.5
  endloop
 endfacet
 facet normal 0 0 1
  outer loop
   vertex -0.124524 0.145894 0.5
   vertex -0.124881 0.140452 0.5
   vertex 0 0.135 0.5
  endloop
 endfacet
 facet normal 0 0 1
  outer loop
   vertex -0.124881 0.140452 0.5
   vertex -0.125 0.135 0.5
   vertex 0 0.135 0.5
  endloop
 endfacet
 facet normal 0 0 1
  outer loop
   vertex 0 0.135 0.5
   vertex -0.125 0.135 0.5
   vertex -0.124881 0.129548 0.5
  endloop
 endfacet
 facet normal 0 0 1
  outer loop
   vertex -0.122037 0.162055 0.5
   vertex -0.123101 0.156706 0.5
   vertex 0 0.135 0.5
  endloop
 endfacet
 facet normal 0 0 1
  outer loop
   vertex -0.123101 0.156706 0.5
   vertex -0.123931 0.151316 0.5
   vertex 0 0.135 0.5
  endloop
 endfacet
 facet normal 0 0 1
  outer loop
   vertex 0 0.135 0.5
   vertex -0.123931 0.151316 0.5
   vertex -0.124524 0.145894 0.5
  endloop
 endfacet
 facet normal 0 0 1
  outer loop
   vertex -0.117462 0.177753 0.5
   vertex -0.119215 0.172588 0.5
   vertex 0 0.135 0.5
  endloop
 endfacet
 facet normal 0 0 1
  outer loop
   vertex -0.119215 0.172588 0.5
   vertex -0.120741 0.167352 0.5
   vertex 0 0.135 0.5
  endloop
 endfacet
 facet normal 0 0 1
  outer loop
   vertex 0 0.135 0.5
   vertex -0.120741 0.167352 0.5
   vertex -0.122037 0.162055 0.5
  endloop
 endfacet
 facet normal 0 0 1
  outer loop
   vertex -0.110876 0.192719 0.5
   vertex -0.113288 0.187827 0.5
   vertex 0 0.135 0.5
  endloop
 endfacet
 facet normal 0 0 1
  outer loop
   vertex -0.113288 0.187827 0.5
   vertex -0.115485 0.182835 0.5
   vertex 0 0.135 0.5
  endloop
 endfacet
 facet normal 0 0 1
  outer loop
   vertex 0 0.135 0.5
   vertex -0.115485 0.182835 0.5
   vertex -0.117462 0.177753 0.5
  endloop
 endfacet
 facet normal 0 0 1
  outer loop
   vertex -0.102394 0.206697 0.5
   vertex -0.105424 0.202162 0.5
   vertex 0 0.135 0.5
  endloop
 endfacet
 facet normal 0 0 1
  outer loop
   vertex -0.105424 0.202162 0.5
   vertex -0.108253 0.1975 0.5
   vertex 0 0.135 0.5
  endloop
 endfacet
 facet normal 0 0 1
  outer loop
   vertex 0 0.135 0.5
   vertex -0.108253 0.1975 0.5
   vertex -0.110876 0.192719 0.5
  endloop
 endfacet
 facet normal 0 0 1
  outer loop
   vertex -0.0921597 0.219449 0.5
   vertex -0.0957556 0.215348 0.5
   vertex 0 0.135 0.5
  endloop
 endfacet
 facet normal 0 0 1
  outer loop
   vertex -0.0957556 0.215348 0.5
   vertex -0.0991692 0.211095 0.5
   vertex 0 0.135 0.5
  endloop
 endfacet
 facet normal 0 0 1
  outer loop
   vertex 0 0.135 0.5
   vertex -0.0991692 0.211095 0.5
   vertex -0.102394 0.206697 0.5
  endloop
 endfacet
 facet normal 0 0 1
  outer loop
   vertex -0.0803485 0.230756 0.5
   vertex -0.0844488 0.22716 0.5
   vertex 0 0.135 0.5
  endloop
 endfacet
 facet normal 0 0 1
  outer loop
   vertex -0.0844488 0.22716 0.5
   vertex -0.0883883 0.223388 0.5
   vertex 0 0.135 0.5
  endloop
 endfacet
 facet normal 0 0 1
  outer loop
   vertex 0 0.135 0.5
   vertex -0.0883883 0.223388 0.5
   vertex -0.0921597 0.219449 0.5
  endloop
 endfacet
 facet normal 0 0 1
  outer loop
   vertex -0.0671625 0.240424 0.5
   vertex -0.0716971 0.237394 0.5
   vertex 0 0.135 0.5
  endloop
 endfacet
 facet normal 0 0 1
  outer loop
   vertex -0.0716971 0.237394 0.5
   vertex -0.0760952 0.234169 0.5
   vertex 0 0.135 0.5
  endloop
 endfacet
 facet normal 0 0 1
  outer loop
   vertex 0 0.135 0.5
   vertex -0.0760952 0.234169 0.5
   vertex -0.0803485 0.230756 0.5
  endloop
 endfacet
 facet normal 0 0 1
  outer loop
   vertex -0.0528273 0.248288 0.5
   vertex -0.0577186 0.245876 0.5
   vertex 0 0.135 0.5
  endloop
 endfacet
 facet normal 0 0 1
  outer loop
   vertex -0.0577186 0.245876 0.5
   vertex -0.0625 0.243253 0.5
   vertex 0 0.135 0.5
  endloop
 endfacet
 facet normal 0 0 1
  outer loop
   vertex 0 0.135 0.5
   vertex -0.0625 0.243253 0.5
   vertex -0.0671625 0.240424 0.5
  endloop
 endfacet
 facet normal 0 0 1
  outer loop
   vertex -0.0375882 0.254215 0.5
   vertex -0.0427525 0.252462 0.5
   vertex 0 0.135 0.5
  endloop
 endfacet
 facet normal 0 0 1
  outer loop
   vertex -0.0427525 0.252462 0.5
   vertex -0.0478354 0.250485 0.5
   vertex 0 0.135 0.5
  endloop
 endfacet
 facet normal 0 0 1
  outer loop
   vertex 0 0.135 0.5
   vertex -0.0478354 0.250485 0.5
   vertex -0.0528273 0.248288 0.5
  endloop
 endfacet
 facet normal 0 0 1
  outer loop
   vertex -0.021706 0.258101 0.5
   vertex -0.027055 0.257037 0.5
   vertex 0 0.135 0.5
  endloop
 endfacet
 facet normal 0 0 1
  outer loop
   vertex -0.027055 0.257037 0.5
   vertex -0.0323524 0.255741 0.5
   vertex 0 0.135 0.5
  endloop
 endfacet
 facet normal 0 0 1
  outer loop
   vertex 0 0.135 0.5
   vertex -0.0323524 0.255741 0.5
   vertex -0.0375882 0.254215 0.5
  endloop
 endfacet
 facet normal 0 0 1
  outer loop
   vertex -0.00545242 0.259881 0.5
   vertex -0.0108945 0.259524 0.5
   vertex 0 0.135 0.5
  endloop
 endfacet
 facet normal 0 0 1
  outer loop
   vertex -0.0108945 0.259524 0.5
   vertex -0.0163158 0.258931 0.5
   vertex 0 0.135 0.5
  endloop
 endfacet
 facet normal 0 0 1
  outer loop
   vertex 0 0.135 0.5
   vertex -0.0163158 0.258931 0.5
   vertex -0.021706 0.258101 0.5
  endloop
 endfacet
 facet normal 0 0 1
  outer loop
   vertex 0.0108945 0.259524 0.5
   vertex 0.00545242 0.259881 0.5
   vertex 0 0.135 0.5
  endloop
 endfacet
 facet normal 0 0 1
  outer loop
   vertex 0.00545242 0.259881 0.5
   vertex -7.65404e-18 0.26 0.5
   vertex 0 0.135 0.5
  endloop
 endfacet
 facet normal 0 0 1
  outer loop
   vertex 0 0.135 0.5
   vertex -7.65404e-18 0.26 0.5
   vertex -0.00545242 0.259881 0.5
  endloop
 endfacet
 facet normal 0 0 1
  outer loop
   vertex 0.027055 0.257037 0.5
   vertex 0.021706 0.258101 0.5
   vertex 0 0.135 0.5
  endloop
 endfacet
 facet normal 0 0 1
  outer loop
   vertex 0.021706 0.258101 0.5
   vertex 0.0163158 0.258931 0.5
   vertex 0 0.135 0.5
  endloop
 endfacet
 facet normal 0 0 1
  outer loop
   vertex 0 0.135 0.5
   vertex 0.0163158 0.258931 0.5
   vertex 0.0108945 0.259524 0.5
  endloop
 endfacet
 facet normal 0 0 1
  outer loop
   vertex 0.0427525 0.252462 0.5
   vertex 0.0375882 0.254215 0.5
   vertex 0 0.135 0.5
  endloop
 endfacet
 facet normal 0 0 1
  outer loop
   vertex 0.0375882 0.254215 0.5
   vertex 0.0323524 0.255741 0.5
   vertex 0 0.135 0.5
  endloop
 endfacet
 facet normal 0 0 1
  outer loop
   vertex 0 0.135 0.5
   vertex 0.0323524 0.255741 0.5
   vertex 0.027055 0.257037 0.5
  endloop
 endfacet
 facet normal 0 0 1
  outer loop
   vertex 0.0577186 0.245876 0.5
   vertex 0.0528273 0.248288 0.5
   vertex 0 0.135 0.5
  endloop
 endfacet
 facet normal 0 0 1
  outer loop
   vertex 0.0528273 0.248288 0.5
   vertex 0.0478354 0.250485 0.5
   vertex 0 0.135 0.5
  endloop
 endfacet
 facet normal 0 0 1
  outer loop
   vertex 0 0.135 0.5
   vertex 0.0478354 0.250485 0.5
   vertex 0.0427525 0.252462 0.5
  endloop
 endfacet
 facet normal 0 0 1
  outer loop
   vertex 0.0716971 0.237394 0.5
   vertex 0.0671625 0.240424 0.5
   vertex 0 0.135 0.5
  endloop
 endfacet
 facet normal 0 0 1
  outer loop
   vertex 0.0671625 0.240424 0.5
   vertex 0.0625 0.243253 0.5
   vertex 0 0.135 0.5
  endloop
 endfacet
 facet normal 0 0 1
  outer loop
   vertex 0 0.135 0.5
   vertex 0.0625 0.243253 0.5
   vertex 0.0577186 0.245876 0.5
  endloop
 endfacet
 facet normal 0 0 1
  outer loop
   vertex 0.0844488 0.22716 0.5
   vertex 0.0803485 0.230756 0.5
   vertex 0 0.135 0.5
  endloop
 endfacet
 facet normal 0 0 1
  outer loop
   vertex 0.0803485 0.230756 0.5
   vertex 0.0760952 0.234169 0.5
   vertex 0 0.135 0.5
  endloop
 endfacet
 facet normal 0 0 1
  outer loop
   vertex 0 0.135 0.5
   vertex 0.0760952 0.234169 0.5
   vertex 0.0716971 0.237394 0.5
  endloop
 endfacet
 facet normal 0 0 1
  outer loop
   vertex 0.0957556 0.215348 0.5
   vertex 0.0921597 0.219449 0.5
   vertex 0 0.135 0.5
  endloop
 endfacet
 facet normal 0 0 1
  outer loop
   vertex 0.0921597 0.219449 0.5
   vertex 0.0883883 0.223388 0.5
   vertex 0 0.135 0.5
  endloop
 endfacet
 facet normal 0 0 1
  outer loop
   vertex 0 0.135 0.5
   vertex 0.0883883 0.223388 0.5
   vertex 0.0844488 0.22716 0.5
  endloop
 endfacet
 facet normal 0 0 1
  outer loop
   vertex 0.105424 0.202162 0.5
   vertex 0.102394 0.206697 0.5
   vertex 0 0.135 0.5
  endloop
 endfacet
 facet normal 0 0 1
  outer loop
   vertex 0.102394 0.206697 0.5
   vertex 0.0991692 0.211095 0.5
   vertex 0 0.135 0.5
  endloop
 endfacet
 facet normal 0 0 1
  outer loop
   vertex 0 0.135 0.5
   vertex 0.0991692 0.211095 0.5
   vertex 0.0957556 0.215348 0.5
  endloop
 endfacet
 facet normal 0 0 1
  outer loop
   vertex 0.113288 0.187827 0.5
   vertex 0.110876 0.192719 0.5
   vertex 0 0.135 0.5
  endloop
 endfacet
 facet normal 0 0 1
  outer loop
   vertex 0.110876 0.192719 0.5
   vertex 0.108253 0.1975 0.5
   vertex 0 0.135 0.5
  endloop
 endfacet
 facet normal 0 0 1
  outer loop
   vertex 0 0.135 0.5
   vertex 0.108253 0.1975 0.5
   vertex 0.105424 0.202162 0.5
  endloop
 endfacet
 facet normal 0 0 1
  outer loop
   vertex 0.119215 0.172588 0.5
   vertex 0.117462 0.177753 0.5
   vertex 0 0.135 0.5
  endloop
 endfacet
 facet normal 0 0 1
  outer loop
   vertex 0.117462 0.177753 0.5
   vertex 0.115485 0.182835 0.5
   vertex 0 0.135 0.5
  endloop
 endfacet
 facet normal 0 0 1
  outer loop
   vertex 0 0.135 0.5
   vertex 0.115485 0.182835 0.5
   vertex 0.113288 0.187827 0.5
  endloop
 endfacet
 facet normal 0 0 1
  outer loop
   vertex 0.123101 0.156706 0.5
   vertex 0.122037 0.162055 0.5
   vertex 0 0.135 0.5
  endloop
 endfacet
 facet normal 0 0 1
  outer loop
   vertex 0.122037 0.162055 0.5
   vertex 0.120741 0.167352 0.5
   vertex 0 0.135 0.5
  endloop
 endfacet
 facet normal 0 0 1
  outer loop
   vertex 0 0.135 0.5
   vertex 0.120741 0.167352 0.5
   vertex 0.119215 0.172588 0.5
  endloop
 endfacet
 facet normal 0 0 1
  outer loop
   vertex 0.124881 0.140452 0.5
   vertex 0.124524 0.145894 0.5
   vertex 0 0.135 0.5
  endloop
 endfacet
 facet normal 0 0 1
  outer loop
   vertex 0.124524 0.145894 0.5
   vertex 0.123931 0.151316 0.5
   vertex 0 0.135 0.5
  endloop
 endfacet
 facet normal 0 0 1
  outer loop
   vertex 0 0.135 0.5
   vertex 0.123931 0.151316 0.5
   vertex 0.123101 0.156706 0.5
  endloop
 endfacet
endsolid zone0
