solid zone0
 facet normal 0 -0 -1
  outer loop
   vertex 0.124524 0.172077 0
   vertex 0.124881 0.166635 0
   vertex 0 0.161183 0
  endloop
 endfacet
 facet normal 0 -0 -1
  outer loop
   vertex 0.124881 0.166635 0
   vertex 0.125 0.161183 0
   vertex 0 0.161183 0
  endloop
 endfacet
 facet normal 0 0 -1
  outer loop
   vertex 0 0.161183 0
   vertex 0.125 0.161183 0
   vertex 0.124881 0.15573 0
  endloop
 endfacet
 facet normal 0 -0 -1
  outer loop
   vertex 0.122037 0.188238 0
   vertex 0.123101 0.182889 0
   vertex 0 0.161183 0
  endloop
 endfacet
 facet normal 0 -0 -1
  outer loop
   vertex 0.123101 0.182889 0
   vertex 0.123931 0.177498 0
   vertex 0 0.161183 0
  endloop
 endfacet
 facet normal 0 0 -1
  outer loop
   vertex 0 0.161183 0
   vertex 0.123931 0.177498 0
   vertex 0.124524 0.172077 0
  endloop
 endfacet
 facet normal 0 -0 -1
  outer loop
   vertex 0.117462 0.203935 0
   vertex 0.119215 0.198771 0
   vertex 0 0.161183 0
  endloop
 endfacet
 facet normal 0 -0 -1
  outer loop
   vertex 0.119215 0.198771 0
   vertex 0.120741 0.193535 0
   vertex 0 0.161183 0
  endloop
 endfacet
 facet normal 0 0 -1
  outer loop
   vertex 0 0.161183 0
   vertex 0.120741 0.193535 0
   vertex 0.122037 0.188238 0
  endloop
 endfacet
 facet normal 0 -0 -1
  outer loop
   vertex 0.110876 0.218901 0
   vertex 0.113288 0.21401 0
   vertex 0 0.161183 0
  endloop
 endfacet
 facet normal 0 -0 -1
  outer loop
   vertex 0.113288 0.21401 0
   vertex 0.115485 0.209018 0
   vertex 0 0.161183 0
  endloop
 endfacet
 facet normal 0 0 -1
  outer loop
   vertex 0 0.161183 0
   vertex 0.115485 0.209018 0
   vertex 0.117462 0.203935 0
  endloop
 endfacet
 facet normal 0 -0 -1
  outer loop
   vertex 0.102394 0.23288 0
   vertex 0.105424 0.228345 0
   vertex 0 0.161183 0
  endloop
 endfacet
 facet normal 0 -0 -1
  outer loop
   vertex 0.105424 0.228345 0
   vertex 0.108253 0.223683 0
   vertex 0 0.161183 0
  endloop
 endfacet
 facet normal 0 0 -1
  outer loop
   vertex 0 0.161183 0
   vertex 0.108253 0.223683 0
   vertex 0.110876 0.218901 0
  endloop
 endfacet
 facet normal 0 -0 -1
  outer loop
   vertex 0.0921597 0.245631 0
   vertex 0.0957556 0.241531 0
   vertex 0 0.161183 0
  endloop
 endfacet
 facet normal 0 -0 -1
  outer loop
   vertex 0.0957556 0.241531 0
   vertex 0.0991692 0.237278 0
   vertex 0 0.161183 0
  endloop
 endfacet
 facet normal 0 0 -1
  outer loop
   vertex 0 0.161183 0
   vertex 0.0991692 0.237278 0
   vertex 0.102394 0.23288 0
  endloop
 endfacet
 facet normal 0 -0 -1
  outer loop
   vertex 0.0803485 0.256938 0
   vertex 0.0844488 0.253342 0
   vertex 0 0.161183 0
  endloop
 endfacet
 facet normal 0 -0 -1
  outer loop
   vertex 0.0844488 0.253342 0
   vertex 0.0883883 0.249571 0
   vertex 0 0.161183 0
  endloop
 endfacet
 facet normal 0 0 -1
  outer loop
   vertex 0 0.161183 0
   vertex 0.0883883 0.249571 0
   vertex 0.0921597 0.245631 0
  endloop
 endfacet
 facet normal 0 -0 -1
  outer loop
   vertex 0.0671625 0.266607 0
   vertex 0.0716971 0.263577 0
   vertex 0 0.161183 0
  endloop
 endfacet
 facet normal 0 -0 -1
  outer loop
   vertex 0.0716971 0.263577 0
   vertex 0.0760952 0.260352 0
   vertex 0 0.161183 0
  endloop
 endfacet
 facet normal 0 0 -1
  outer loop
   vertex 0 0.161183 0
   vertex 0.0760952 0.260352 0
   vertex 0.0803485 0.256938 0
  endloop
 endfacet
 facet normal 0 -0 -1
  outer loop
   vertex 0.0528273 0.274471 0
   vertex 0.0577186 0.272059 0
   vertex 0 0.161183 0
  endloop
 endfacet
 facet normal 0 -0 -1
  outer loop
   vertex 0.0577186 0.272059 0
   vertex 0.0625 0.269436 0
   vertex 0 0.161183 0
  endloop
 endfacet
 facet normal 0 0 -1
  outer loop
   vertex 0 0.161183 0
   vertex 0.0625 0.269436 0
   vertex 0.0671625 0.266607 0
  endloop
 endfacet
 facet normal 0 -0 -1
  outer loop
   vertex 0.0375882 0.280397 0
   vertex 0.0427525 0.278644 0
   vertex 0 0.161183 0
  endloop
 endfacet
 facet normal 0 -0 -1
  outer loop
   vertex 0.0427525 0.278644 0
   vertex 0.0478354 0.276668 0
   vertex 0 0.161183 0
  endloop
 endfacet
 facet normal 0 0 -1
  outer loop
   vertex 0 0.161183 0
   vertex 0.0478354 0.276668 0
   vertex 0.0528273 0.274471 0
  endloop
 endfacet
 facet normal 0 -0 -1
  outer loop
   vertex 0.021706 0.284284 0
   vertex 0.027055 0.28322 0
   vertex 0 0.161183 0
  endloop
 endfacet
 facet normal 0 -0 -1
  outer loop
   vertex 0.027055 0.28322 0
   vertex 0.0323524 0.281923 0
   vertex 0 0.161183 0
  endloop
 endfacet
 facet normal 0 0 -1
  outer loop
   vertex 0 0.161183 0
   vertex 0.0323524 0.281923 0
   vertex 0.0375882 0.280397 0
  endloop
 endfacet
 facet normal 0 -0 -1
  outer loop
   vertex 0.00545242 0.286064 0
   vertex 0.0108945 0.285707 0
   vertex 0 0.161183 0
  endloop
 endfacet
 facet normal 0 -0 -1
  outer loop
   vertex 0.0108945 0.285707 0
   vertex 0.0163158 0.285113 0
   vertex 0 0.161183 0
  endloop
 endfacet
 facet normal 0 0 -1
  outer loop
   vertex 0 0.161183 0
   vertex 0.0163158 0.285113 0
   vertex 0.021706 0.284284 0
  endloop
 endfacet
 facet normal 0 0 -1
  outer loop
   vertex -0.0108945 0.285707 0
   vertex -0.00545242 0.286064 0
   vertex 0 0.161183 0
  endloop
 endfacet
 facet normal 0 0 -1
  outer loop
   vertex -0.00545242 0.286064 0
   vertex -7.65404e-18 0.286183 0
   vertex 0 0.161183 0
  endloop
 endfacet
 facet normal 0 0 -1
  outer loop
   vertex 0 0.161183 0
   vertex -7.65404e-18 0.286183 0
   vertex 0.00545242 0.286064 0
  endloop
 endfacet
 facet normal 0 0 -1
  outer loop
   vertex -0.027055 0.28322 0
   vertex -0.021706 0.284284 0
   vertex 0 0.161183 0
  endloop
 endfacet
 facet normal 0 0 -1
  outer loop
   vertex -0.021706 0.284284 0
   vertex -0.0163158 0.285113 0
   vertex 0 0.161183 0
  endloop
 endfacet
 facet normal 0 0 -1
  outer loop
   vertex 0 0.161183 0
   vertex -0.0163158 0.285113 0
   vertex -0.0108945 0.285707 0
  endloop
 endfacet
 facet normal 0 0 -1
  outer loop
   vertex -0.0427525 0.278644 0
   vertex -0.0375882 0.280397 0
   vertex 0 0.161183 0
  endloop
 endfacet
 facet normal 0 0 -1
  outer loop
   vertex -0.0375882 0.280397 0
   vertex -0.0323524 0.281923 0
   vertex 0 0.161183 0
  endloop
 endfacet
 facet normal 0 0 -1
  outer loop
   vertex 0 0.161183 0
   vertex -0.0323524 0.281923 0
   vertex -0.027055 0.28322 0
  endloop
 endfacet
 facet normal 0 0 -1
  outer loop
   vertex -0.0577186 0.272059 0
   vertex -0.0528273 0.274471 0
   vertex 0 0.161183 0
  endloop
 endfacet
 facet normal 0 0 -1
  outer loop
   vertex -0.0528273 0.274471 0
   vertex -0.0478354 0.276668 0
   vertex 0 0.161183 0
  endloop
 endfacet
 facet normal 0 0 -1
  outer loop
   vertex 0 0.161183 0
   vertex -0.0478354 0.276668 0
   vertex -0.0427525 0.278644 0
  endloop
 endfacet
 facet normal 0 0 -1
  outer loop
   vertex -0.0716971 0.263577 0
   vertex -0.0671625 0.266607 0
   vertex 0 0.161183 0
  endloop
 endfacet
 facet normal 0 0 -1
  outer loop
   vertex -0.0671625 0.266607 0
   vertex -0.0625 0.269436 0
   vertex 0 0.161183 0
  endloop
 endfacet
 facet normal 0 0 -1
  outer loop
   vertex 0 0.161183 0
   vertex -0.0625 0.269436 0
   vertex -0.0577186 0.272059 0
  endloop
 endfacet
 facet normal 0 0 -1
  outer loop
   vertex -0.0844488 0.253342 0
   vertex -0.0803485 0.256938 0
   vertex 0 0.161183 0
  endloop
 endfacet
 facet normal 0 0 -1
  outer loop
   vertex -0.0803485 0.256938 0
   vertex -0.0760952 0.260352 0
   vertex 0 0.161183 0
  endloop
 endfacet
 facet normal 0 0 -1
  outer loop
   vertex 0 0.161183 0
   vertex -0.0760952 0.260352 0
   vertex -0.0716971 0.263577 0
  endloop
 endfacet
 facet normal 0 0 -1
  outer loop
   vertex -0.0957556 0.241531 0
   vertex -0.0921597 0.245631 0
   vertex 0 0.161183 0
  endloop
 endfacet
 facet normal 0 0 -1
  outer loop
   vertex -0.0921597 0.245631 0
   vertex -0.0883883 0.249571 0
   vertex 0 0.161183 0
  endloop
 endfacet
 facet normal 0 0 -1
  outer loop
   vertex 0 0.161183 0
   vertex -0.0883883 0.249571 0
   vertex -0.0844488 0.253342 0
  endloop
 endfacet
 facet normal 0 0 -1
  outer loop
   vertex -0.105424 0.228345 0
   vertex -0.102394 0.23288 0
   vertex 0 0.161183 0
  endloop
 endfacet
 facet normal 0 0 -1
  outer loop
   vertex -0.102394 0.23288 0
   vertex -0.0991692 0.237278 0
   vertex 0 0.161183 0
  endloop
 endfacet
 facet normal 0 0 -1
  outer loop
   vertex 0 0.161183 0
   vertex -0.0991692 0.237278 0
   vertex -0.0957556 0.241531 0
  endloop
 endfacet
 facet normal 0 0 -1
  outer loop
   vertex -0.113288 0.21401 0
   vertex -0.110876 0.218901 0
   vertex 0 0.161183 0
  endloop
 endfacet
 facet normal 0 0 -1
  outer loop
   vertex -0.110876 0.218901 0
   vertex -0.108253 0.223683 0
   vertex 0 0.161183 0
  endloop
 endfacet
 facet normal 0 0 -1
  outer loop
   vertex 0 0.161183 0
   vertex -0.108253 0.223683 0
   vertex -0.105424 0.228345 0
  endloop
 endfacet
 facet normal 0 0 -1
  outer loop
   vertex -0.119215 0.198771 0
   vertex -0.117462 0.203935 0
   vertex 0 0.161183 0
  endloop
 endfacet
 facet normal 0 0 -1
  outer loop
   vertex -0.117462 0.203935 0
   vertex -0.115485 0.209018 0
   vertex 0 0.161183 0
  endloop
 endfacet
 facet normal 0 0 -1
  outer loop
   vertex 0 0.161183 0
   vertex -0.115485 0.209018 0
   vertex -0.113288 0.21401 0
  endloop
 endfacet
 facet normal 0 0 -1
  outer loop
   vertex -0.123101 0.182889 0
   vertex -0.122037 0.188238 0
   vertex 0 0.161183 0
  endloop
 endfacet
 facet normal 0 0 -1
  outer loop
   vertex -0.122037 0.188238 0
   vertex -0.120741 0.193535 0
   vertex 0 0.161183 0
  endloop
 endfacet
 facet normal 0 0 -1
  outer loop
   vertex 0 0.161183 0
   vertex -0.120741 0.193535 0
   vertex -0.119215 0.198771 0
  endloop
 endfacet
 facet normal 0 0 -1
  outer loop
   vertex -0.124881 0.166635 0
   vertex -0.124524 0.172077 0
   vertex 0 0.161183 0
  endloop
 endfacet
 facet normal 0 0 -1
  outer loop
   vertex -0.124524 0.172077 0
   vertex -0.123931 0.177498 0
   vertex 0 0.161183 0
  endloop
 endfacet
 facet normal 0 0 -1
  outer loop
   vertex 0 0.161183 0
   vertex -0.123931 0.177498 0
   vertex -0.123101 0.182889 0
  endloop
 endfacet
 facet normal 0 0 -1
  outer loop
   vertex -0.124524 0.150288 0
   vertex -0.124881 0.15573 0
   vertex 0 0.161183 0
  endloop
 endfacet
 facet normal 0 0 -1
  outer loop
   vertex -0.124881 0.15573 0
   vertex -0.125 0.161183 0
   vertex 0 0.161183 0
  endloop
 endfacet
 facet normal 0 0 -1
  outer loop
   vertex 0 0.161183 0
   vertex -0.125 0.161183 0
   vertex -0.124881 0.166635 0
  endloop
 endfacet
 facet normal 0 0 -1
  outer loop
   vertex -0.122037 0.134128 0
   vertex -0.123101 0.139477 0
   vertex 0 0.161183 0
  endloop
 endfacet
 facet normal 0 0 -1
  outer loop
   vertex -0.123101 0.139477 0
   vertex -0.123931 0.144867 0
   vertex 0 0.161183 0
  endloop
 endfacet
 facet normal 0 0 -1
  outer loop
   vertex 0 0.161183 0
   vertex -0.123931 0.144867 0
   vertex -0.124524 0.150288 0
  endloop
 endfacet
 facet normal 0 0 -1
  outer loop
   vertex -0.117462 0.11843 0
   vertex -0.119215 0.123594 0
   vertex 0 0.161183 0
  endloop
 endfacet
 facet normal 0 0 -1
  outer loop
   vertex -0.119215 0.123594 0
   vertex -0.120741 0.12883 0
   vertex 0 0.161183 0
  endloop
 endfacet
 facet normal 0 0 -1
  outer loop
   vertex 0 0.161183 0
   vertex -0.120741 0.12883 0
   vertex -0.122037 0.134128 0
  endloop
 endfacet
 facet normal 0 0 -1
  outer loop
   vertex -0.110876 0.103464 0
   vertex -0.113288 0.108355 0
   vertex 0 0.161183 0
  endloop
 endfacet
 facet normal 0 0 -1
  outer loop
   vertex -0.113288 0.108355 0
   vertex -0.115485 0.113347 0
   vertex 0 0.161183 0
  endloop
 endfacet
 facet normal 0 0 -1
  outer loop
   vertex 0 0.161183 0
   vertex -0.115485 0.113347 0
   vertex -0.117462 0.11843 0
  endloop
 endfacet
 facet normal 0 0 -1
  outer loop
   vertex -0.102394 0.0894856 0
   vertex -0.105424 0.0940202 0
   vertex 0 0.161183 0
  endloop
 endfacet
 facet normal 0 0 -1
  outer loop
   vertex -0.105424 0.0940202 0
   vertex -0.108253 0.0986827 0
   vertex 0 0.161183 0
  endloop
 endfacet
 facet normal 0 0 -1
  outer loop
   vertex 0 0.161183 0
   vertex -0.108253 0.0986827 0
   vertex -0.110876 0.103464 0
  endloop
 endfacet
 facet normal 0 0 -1
  outer loop
   vertex -0.0921597 0.0767339 0
   vertex -0.0957556 0.0808342 0
   vertex 0 0.161183 0
  endloop
 endfacet
 facet normal 0 0 -1
  outer loop
   vertex -0.0957556 0.0808342 0
   vertex -0.0991692 0.0850875 0
   vertex 0 0.161183 0
  endloop
 endfacet
 facet normal 0 0 -1
  outer loop
   vertex 0 0.161183 0
   vertex -0.0991692 0.0850875 0
   vertex -0.102394 0.0894856 0
  endloop
 endfacet
 facet normal 0 0 -1
  outer loop
   vertex -0.0803485 0.0654271 0
   vertex -0.0844488 0.069023 0
   vertex 0 0.161183 0
  endloop
 endfacet
 facet normal 0 0 -1
  outer loop
   vertex -0.0844488 0.069023 0
   vertex -0.0883883 0.0727943 0
   vertex 0 0.161183 0
  endloop
 endfacet
 facet normal 0 0 -1
  outer loop
   vertex 0 0.161183 0
   vertex -0.0883883 0.0727943 0
   vertex -0.0921597 0.0767339 0
  endloop
 endfacet
 facet normal 0 0 -1
  outer loop
   vertex -0.0671625 0.0557587 0
   vertex -0.0716971 0.0587887 0
   vertex 0 0.161183 0
  endloop
 endfacet
 facet normal 0 0 -1
  outer loop
   vertex -0.0716971 0.0587887 0
   vertex -0.0760952 0.0620135 0
   vertex 0 0.161183 0
  endloop
 endfacet
 facet normal 0 0 -1
  outer loop
   vertex 0 0.161183 0
   vertex -0.0760952 0.0620135 0
   vertex -0.0803485 0.0654271 0
  endloop
 endfacet
 facet normal 0 0 -1
  outer loop
   vertex -0.0528273 0.0478942 0
   vertex -0.0577186 0.0503063 0
   vertex 0 0.161183 0
  endloop
 endfacet
 facet normal 0 0 -1
  outer loop
   vertex -0.0577186 0.0503063 0
   vertex -0.0625 0.0529295 0
   vertex 0 0.161183 0
  endloop
 endfacet
 facet normal 0 0 -1
  outer loop
   vertex 0 0.161183 0
   vertex -0.0625 0.0529295 0
   vertex -0.0671625 0.0557587 0
  endloop
 endfacet
 facet normal 0 0 -1
  outer loop
   vertex -0.0375882 0.041968 0
   vertex -0.0427525 0.0437211 0
   vertex 0 0.161183 0
  endloop
 endfacet
 facet normal 0 0 -1
  outer loop
   vertex -0.0427525 0.0437211 0
   vertex -0.0478354 0.0456977 0
   vertex 0 0.161183 0
  endloop
 endfacet
 facet normal 0 0 -1
  outer loop
   vertex 0 0.161183 0
   vertex -0.0478354 0.0456977 0
   vertex -0.0528273 0.0478942 0
  endloop
 endfacet
 facet normal 0 0 -1
  outer loop
   vertex -0.021706 0.0380817 0
   vertex -0.027055 0.0391457 0
   vertex 0 0.161183 0
  endloop
 endfacet
 facet normal 0 0 -1
  outer loop
   vertex -0.027055 0.0391457 0
   vertex -0.0323524 0.0404419 0
   vertex 0 0.161183 0
  endloop
 endfacet
 facet normal 0 0 -1
  outer loop
   vertex 0 0.161183 0
   vertex -0.0323524 0.0404419 0
   vertex -0.0375882 0.041968 0
  endloop
 endfacet
 facet normal 0 0 -1
  outer loop
   vertex -0.00545242 0.0363016 0
   vertex -0.0108945 0.0366583 0
   vertex 0 0.161183 0
  endloop
 endfacet
 facet normal 0 0 -1
  outer loop
   vertex -0.0108945 0.0366583 0
   vertex -0.0163158 0.037252 0
   vertex 0 0.161183 0
  endloop
 endfacet
 facet normal 0 0 -1
  outer loop
   vertex 0 0.161183 0
   vertex -0.0163158 0.037252 0
   vertex -0.021706 0.0380817 0
  endloop
 endfacet
 facet normal -0 0 -1
  outer loop
   vertex 0.0108945 0.0366583 0
   vertex 0.00545242 0.0363016 0
   vertex 0 0.161183 0
  endloop
 endfacet
 facet normal -0 0 -1
  outer loop
   vertex 0.00545242 0.0363016 0
   vertex 2.29621e-17 0.0361827 0
   vertex 0 0.161183 0
  endloop
 endfacet
 facet normal 0 -0 -1
  outer loop
   vertex 0 0.161183 0
   vertex 2.29621e-17 0.0361827 0
   vertex -0.00545242 0.0363016 0
  endloop
 endfacet
 facet normal -0 0 -1
  outer loop
   vertex 0.027055 0.0391457 0
   vertex 0.021706 0.0380817 0
   vertex 0 0.161183 0
  endloop
 endfacet
 facet normal -0 0 -1
  outer loop
   vertex 0.021706 0.0380817 0
   vertex 0.0163158 0.037252 0
   vertex 0 0.161183 0
  endloop
 endfacet
 facet normal 0 0 -1
  outer loop
   vertex 0 0.161183 0
   vertex 0.0163158 0.037252 0
   vertex 0.0108945 0.0366583 0
  endloop
 endfacet
 facet normal -0 0 -1
  outer loop
   vertex 0.0427525 0.0437211 0
   vertex 0.0375882 0.041968 0
   vertex 0 0.161183 0
  endloop
 endfacet
 facet normal -0 0 -1
  outer loop
   vertex 0.0375882 0.041968 0
   vertex 0.0323524 0.0404419 0
   vertex 0 0.161183 0
  endloop
 endfacet
 facet normal 0 0 -1
  outer loop
   vertex 0 0.161183 0
   vertex 0.0323524 0.0404419 0
   vertex 0.027055 0.0391457 0
  endloop
 endfacet
 facet normal -0 0 -1
  outer loop
   vertex 0.0577186 0.0503063 0
   vertex 0.0528273 0.0478942 0
   vertex 0 0.161183 0
  endloop
 endfacet
 facet normal -0 0 -1
  outer loop
   vertex 0.0528273 0.0478942 0
   vertex 0.0478354 0.0456977 0
   vertex 0 0.161183 0
  endloop
 endfacet
 facet normal 0 0 -1
  outer loop
   vertex 0 0.161183 0
   vertex 0.0478354 0.0456977 0
   vertex 0.0427525 0.0437211 0
  endloop
 endfacet
 facet normal -0 0 -1
  outer loop
   vertex 0.0716971 0.0587887 0
   vertex 0.0671625 0.0557587 0
   vertex 0 0.161183 0
  endloop
 endfacet
 facet normal -0 0 -1
  outer loop
   vertex 0.0671625 0.0557587 0
   vertex 0.0625 0.0529295 0
   vertex 0 0.161183 0
  endloop
 endfacet
 facet normal 0 0 -1
  outer loop
   vertex 0 0.161183 0
   vertex 0.0625 0.0529295 0
   vertex 0.0577186 0.0503063 0
  endloop
 endfacet
 facet normal -0 0 -1
  outer loop
   vertex 0.0844488 0.069023 0
   vertex 0.0803485 0.0654271 0
   vertex 0 0.161183 0
  endloop
 endfacet
 facet normal -0 0 -1
  outer loop
   vertex 0.0803485 0.0654271 0
   vertex 0.0760952 0.0620135 0
   vertex 0 0.161183 0
  endloop
 endfacet
 facet normal 0 0 -1
  outer loop
   vertex 0 0.161183 0
   vertex 0.0760952 0.0620135 0
   vertex 0.0716971 0.0587887 0
  endloop
 endfacet
 facet normal -0 0 -1
  outer loop
   vertex 0.0957556 0.0808342 0
   vertex 0.0921597 0.0767339 0
   vertex 0 0.161183 0
  endloop
 endfacet
 facet normal -0 0 -1
  outer loop
   vertex 0.0921597 0.0767339 0
   vertex 0.0883883 0.0727943 0
   vertex 0 0.161183 0
  endloop
 endfacet
 facet normal 0 0 -1
  outer loop
   vertex 0 0.161183 0
   vertex 0.0883883 0.0727943 0
   vertex 0.0844488 0.069023 0
  endloop
 endfacet
 facet normal -0 0 -1
  outer loop
   vertex 0.105424 0.0940202 0
   vertex 0.102394 0.0894856 0
   vertex 0 0.161183 0
  endloop
 endfacet
 facet normal -0 0 -1
  outer loop
   vertex 0.102394 0.0894856 0
   vertex 0.0991692 0.0850875 0
   vertex 0 0.161183 0
  endloop
 endfacet
 facet normal 0 0 -1
  outer loop
   vertex 0 0.161183 0
   vertex 0.0991692 0.0850875 0
   vertex 0.0957556 0.0808342 0
  endloop
 endfacet
 facet normal -0 0 -1
  outer loop
   vertex 0.113288 0.108355 0
   vertex 0.110876 0.103464 0
   vertex 0 0.161183 0
  endloop
 endfacet
 facet normal -0 0 -1
  outer loop
   vertex 0.110876 0.103464 0
   vertex 0.108253 0.0986827 0
   vertex 0 0.161183 0
  endloop
 endfacet
 facet normal 0 0 -1
  outer loop
   vertex 0 0.161183 0
   vertex 0.108253 0.0986827 0
   vertex 0.105424 0.0940202 0
  endloop
 endfacet
 facet normal -0 0 -1
  outer loop
   vertex 0.119215 0.123594 0
   vertex 0.117462 0.11843 0
   vertex 0 0.161183 0
  endloop
 endfacet
 facet normal -0 0 -1
  outer loop
   vertex 0.117462 0.11843 0
   vertex 0.115485 0.113347 0
   vertex 0 0.161183 0
  endloop
 endfacet
 facet normal 0 0 -1
  outer loop
   vertex 0 0.161183 0
   vertex 0.115485 0.113347 0
   vertex 0.113288 0.108355 0
  endloop
 endfacet
 facet normal -0 0 -1
  outer loop
   vertex 0.123101 0.139477 0
   vertex 0.122037 0.134128 0
   vertex 0 0.161183 0
  endloop
 endfacet
 facet normal -0 0 -1
  outer loop
   vertex 0.122037 0.134128 0
   vertex 0.120741 0.12883 0
   vertex 0 0.161183 0
  endloop
 endfacet
 facet normal 0 0 -1
  outer loop
   vertex 0 0.161183 0
   vertex 0.120741 0.12883 0
   vertex 0.119215 0.123594 0
  endloop
 endfacet
 facet normal -0 0 -1
  outer loop
   vertex 0.124881 0.15573 0
   vertex 0.124524 0.150288 0
   vertex 0 0.161183 0
  endloop
 endfacet
 facet normal -0 0 -1
  outer loop
   vertex 0.124524 0.150288 0
   vertex 0.123931 0.144867 0
   vertex 0 0.161183 0
  endloop
 endfacet
 facet normal 0 0 -1
  outer loop
   vertex 0 0.161183 0
   vertex 0.123931 0.144867 0
   vertex 0.123101 0.139477 0
  endloop
 endfacet
 facet normal -0.999762 0.0218146 0
  outer loop
   vertex -0.125 0.161183 0
   vertex -0.124881 0.166635 0.5
   vertex -0.124881 0.166635 0
  endloop
 endfacet
 facet normal -0.997859 0.0654029 0
  outer loop
   vertex -0.124881 0.166635 0.5
   vertex -0.124524 0.172077 0.5
   vertex -0.124881 0.166635 0
  endloop
 endfacet
 facet normal -0.997859 0.0654029 0
  outer loop
   vertex -0.124881 0.166635 0
   vertex -0.124524 0.172077 0.5
   vertex -0.124524 0.172077 0
  endloop
 endfacet
 facet normal -0.994056 0.108867 0
  outer loop
   vertex -0.124524 0.172077 0.5
   vertex -0.123931 0.177498 0.5
   vertex -0.124524 0.172077 0
  endloop
 endfacet
 facet normal -0.994056 0.108867 0
  outer loop
   vertex -0.124524 0.172077 0
   vertex -0.123931 0.177498 0.5
   vertex -0.123931 0.177498 0
  endloop
 endfacet
 facet normal -0.988361 0.152124 0
  outer loop
   vertex -0.123931 0.177498 0.5
   vertex -0.123101 0.182889 0.5
   vertex -0.123931 0.177498 0
  endloop
 endfacet
 facet normal -0.988361 0.152124 0
  outer loop
   vertex -0.123931 0.177498 0
   vertex -0.123101 0.182889 0.5
   vertex -0.123101 0.182889 0
  endloop
 endfacet
 facet normal -0.980785 0.19509 0
  outer loop
   vertex -0.123101 0.182889 0.5
   vertex -0.122037 0.188238 0.5
   vertex -0.123101 0.182889 0
  endloop
 endfacet
 facet normal -0.980785 0.19509 0
  outer loop
   vertex -0.123101 0.182889 0
   vertex -0.122037 0.188238 0.5
   vertex -0.122037 0.188238 0
  endloop
 endfacet
 facet normal -0.971342 0.237686 0
  outer loop
   vertex -0.122037 0.188238 0.5
   vertex -0.120741 0.193535 0.5
   vertex -0.122037 0.188238 0
  endloop
 endfacet
 facet normal -0.971342 0.237686 0
  outer loop
   vertex -0.122037 0.188238 0
   vertex -0.120741 0.193535 0.5
   vertex -0.120741 0.193535 0
  endloop
 endfacet
 facet normal -0.96005 0.279829 0
  outer loop
   vertex -0.120741 0.193535 0.5
   vertex -0.119215 0.198771 0.5
   vertex -0.120741 0.193535 0
  endloop
 endfacet
 facet normal -0.96005 0.279829 0
  outer loop
   vertex -0.120741 0.193535 0
   vertex -0.119215 0.198771 0.5
   vertex -0.119215 0.198771 0
  endloop
 endfacet
 facet normal -0.94693 0.321439 0
  outer loop
   vertex -0.119215 0.198771 0.5
   vertex -0.117462 0.203935 0.5
   vertex -0.119215 0.198771 0
  endloop
 endfacet
 facet normal -0.94693 0.321439 0
  outer loop
   vertex -0.119215 0.198771 0
   vertex -0.117462 0.203935 0.5
   vertex -0.117462 0.203935 0
  endloop
 endfacet
 facet normal -0.932008 0.362439 0
  outer loop
   vertex -0.117462 0.203935 0.5
   vertex -0.115485 0.209018 0.5
   vertex -0.117462 0.203935 0
  endloop
 endfacet
 facet normal -0.932008 0.362439 0
  outer loop
   vertex -0.117462 0.203935 0
   vertex -0.115485 0.209018 0.5
   vertex -0.115485 0.209018 0
  endloop
 endfacet
 facet normal -0.915312 0.402745 0
  outer loop
   vertex -0.115485 0.209018 0.5
   vertex -0.113288 0.21401 0.5
   vertex -0.115485 0.209018 0
  endloop
 endfacet
 facet normal -0.915312 0.402745 0
  outer loop
   vertex -0.115485 0.209018 0
   vertex -0.113288 0.21401 0.5
   vertex -0.113288 0.21401 0
  endloop
 endfacet
 facet normal -0.896872 0.44229 0
  outer loop
   vertex -0.113288 0.21401 0.5
   vertex -0.110876 0.218901 0.5
   vertex -0.113288 0.21401 0
  endloop
 endfacet
 facet normal -0.896872 0.44229 0
  outer loop
   vertex -0.113288 0.21401 0
   vertex -0.110876 0.218901 0.5
   vertex -0.110876 0.218901 0
  endloop
 endfacet
 facet normal -0.876727 0.480989 0
  outer loop
   vertex -0.110876 0.218901 0.5
   vertex -0.108253 0.223683 0.5
   vertex -0.110876 0.218901 0
  endloop
 endfacet
 facet normal -0.876727 0.480989 0
  outer loop
   vertex -0.110876 0.218901 0
   vertex -0.108253 0.223683 0.5
   vertex -0.108253 0.223683 0
  endloop
 endfacet
 facet normal -0.854912 0.518773 0
  outer loop
   vertex -0.108253 0.223683 0.5
   vertex -0.105424 0.228345 0.5
   vertex -0.108253 0.223683 0
  endloop
 endfacet
 facet normal -0.854912 0.518773 0
  outer loop
   vertex -0.108253 0.223683 0
   vertex -0.105424 0.228345 0.5
   vertex -0.105424 0.228345 0
  endloop
 endfacet
 facet normal -0.83147 0.55557 0
  outer loop
   vertex -0.105424 0.228345 0.5
   vertex -0.102394 0.23288 0.5
   vertex -0.105424 0.228345 0
  endloop
 endfacet
 facet normal -0.83147 0.55557 0
  outer loop
   vertex -0.105424 0.228345 0
   vertex -0.102394 0.23288 0.5
   vertex -0.102394 0.23288 0
  endloop
 endfacet
 facet normal -0.806444 0.59131 0
  outer loop
   vertex -0.102394 0.23288 0.5
   vertex -0.0991692 0.237278 0.5
   vertex -0.102394 0.23288 0
  endloop
 endfacet
 facet normal -0.806444 0.59131 0
  outer loop
   vertex -0.102394 0.23288 0
   vertex -0.0991692 0.237278 0.5
   vertex -0.0991692 0.237278 0
  endloop
 endfacet
 facet normal -0.779885 0.625923 0
  outer loop
   vertex -0.0991692 0.237278 0.5
   vertex -0.0957556 0.241531 0.5
   vertex -0.0991692 0.237278 0
  endloop
 endfacet
 facet normal -0.779885 0.625923 0
  outer loop
   vertex -0.0991692 0.237278 0
   vertex -0.0957556 0.241531 0.5
   vertex -0.0957556 0.241531 0
  endloop
 endfacet
 facet normal -0.75184 0.659346 0
  outer loop
   vertex -0.0957556 0.241531 0.5
   vertex -0.0921597 0.245631 0.5
   vertex -0.0957556 0.241531 0
  endloop
 endfacet
 facet normal -0.75184 0.659346 0
  outer loop
   vertex -0.0957556 0.241531 0
   vertex -0.0921597 0.245631 0.5
   vertex -0.0921597 0.245631 0
  endloop
 endfacet
 facet normal -0.722364 0.691513 0
  outer loop
   vertex -0.0921597 0.245631 0.5
   vertex -0.0883883 0.249571 0.5
   vertex -0.0921597 0.245631 0
  endloop
 endfacet
 facet normal -0.722364 0.691513 0
  outer loop
   vertex -0.0921597 0.245631 0
   vertex -0.0883883 0.249571 0.5
   vertex -0.0883883 0.249571 0
  endloop
 endfacet
 facet normal -0.691513 0.722364 0
  outer loop
   vertex -0.0883883 0.249571 0.5
   vertex -0.0844488 0.253342 0.5
   vertex -0.0883883 0.249571 0
  endloop
 endfacet
 facet normal -0.691513 0.722364 0
  outer loop
   vertex -0.0883883 0.249571 0
   vertex -0.0844488 0.253342 0.5
   vertex -0.0844488 0.253342 0
  endloop
 endfacet
 facet normal -0.659346 0.75184 0
  outer loop
   vertex -0.0844488 0.253342 0.5
   vertex -0.0803485 0.256938 0.5
   vertex -0.0844488 0.253342 0
  endloop
 endfacet
 facet normal -0.659346 0.75184 0
  outer loop
   vertex -0.0844488 0.253342 0
   vertex -0.0803485 0.256938 0.5
   vertex -0.0803485 0.256938 0
  endloop
 endfacet
 facet normal -0.625923 0.779885 0
  outer loop
   vertex -0.0803485 0.256938 0.5
   vertex -0.0760952 0.260352 0.5
   vertex -0.0803485 0.256938 0
  endloop
 endfacet
 facet normal -0.625923 0.779885 0
  outer loop
   vertex -0.0803485 0.256938 0
   vertex -0.0760952 0.260352 0.5
   vertex -0.0760952 0.260352 0
  endloop
 endfacet
 facet normal -0.59131 0.806444 0
  outer loop
   vertex -0.0760952 0.260352 0.5
   vertex -0.0716971 0.263577 0.5
   vertex -0.0760952 0.260352 0
  endloop
 endfacet
 facet normal -0.59131 0.806444 0
  outer loop
   vertex -0.0760952 0.260352 0
   vertex -0.0716971 0.263577 0.5
   vertex -0.0716971 0.263577 0
  endloop
 endfacet
 facet normal -0.55557 0.83147 0
  outer loop
   vertex -0.0716971 0.263577 0.5
   vertex -0.0671625 0.266607 0.5
   vertex -0.0716971 0.263577 0
  endloop
 endfacet
 facet normal -0.55557 0.83147 0
  outer loop
   vertex -0.0716971 0.263577 0
   vertex -0.0671625 0.266607 0.5
   vertex -0.0671625 0.266607 0
  endloop
 endfacet
 facet normal -0.518773 0.854912 0
  outer loop
   vertex -0.0671625 0.266607 0.5
   vertex -0.0625 0.269436 0.5
   vertex -0.0671625 0.266607 0
  endloop
 endfacet
 facet normal -0.518773 0.854912 0
  outer loop
   vertex -0.0671625 0.266607 0
   vertex -0.0625 0.269436 0.5
   vertex -0.0625 0.269436 0
  endloop
 endfacet
 facet normal -0.480989 0.876727 0
  outer loop
   vertex -0.0625 0.269436 0.5
   vertex -0.0577186 0.272059 0.5
   vertex -0.0625 0.269436 0
  endloop
 endfacet
 facet normal -0.480989 0.876727 0
  outer loop
   vertex -0.0625 0.269436 0
   vertex -0.0577186 0.272059 0.5
   vertex -0.0577186 0.272059 0
  endloop
 endfacet
 facet normal -0.44229 0.896872 0
  outer loop
   vertex -0.0577186 0.272059 0.5
   vertex -0.0528273 0.274471 0.5
   vertex -0.0577186 0.272059 0
  endloop
 endfacet
 facet normal -0.44229 0.896872 0
  outer loop
   vertex -0.0577186 0.272059 0
   vertex -0.0528273 0.274471 0.5
   vertex -0.0528273 0.274471 0
  endloop
 endfacet
 facet normal -0.402745 0.915312 0
  outer loop
   vertex -0.0528273 0.274471 0.5
   vertex -0.0478354 0.276668 0.5
   vertex -0.0528273 0.274471 0
  endloop
 endfacet
 facet normal -0.402745 0.915312 0
  outer loop
   vertex -0.0528273 0.274471 0
   vertex -0.0478354 0.276668 0.5
   vertex -0.0478354 0.276668 0
  endloop
 endfacet
 facet normal -0.362439 0.932008 0
  outer loop
   vertex -0.0478354 0.276668 0.5
   vertex -0.0427525 0.278644 0.5
   vertex -0.0478354 0.276668 0
  endloop
 endfacet
 facet normal -0.362439 0.932008 0
  outer loop
   vertex -0.0478354 0.276668 0
   vertex -0.0427525 0.278644 0.5
   vertex -0.0427525 0.278644 0
  endloop
 endfacet
 facet normal -0.321439 0.94693 0
  outer loop
   vertex -0.0427525 0.278644 0.5
   vertex -0.0375882 0.280397 0.5
   vertex -0.0427525 0.278644 0
  endloop
 endfacet
 facet normal -0.321439 0.94693 0
  outer loop
   vertex -0.0427525 0.278644 0
   vertex -0.0375882 0.280397 0.5
   vertex -0.0375882 0.280397 0
  endloop
 endfacet
 facet normal -0.279829 0.96005 0
  outer loop
   vertex -0.0375882 0.280397 0.5
   vertex -0.0323524 0.281923 0.5
   vertex -0.0375882 0.280397 0
  endloop
 endfacet
 facet normal -0.279829 0.96005 0
  outer loop
   vertex -0.0375882 0.280397 0
   vertex -0.0323524 0.281923 0.5
   vertex -0.0323524 0.281923 0
  endloop
 endfacet
 facet normal -0.237686 0.971342 0
  outer loop
   vertex -0.0323524 0.281923 0.5
   vertex -0.027055 0.28322 0.5
   vertex -0.0323524 0.281923 0
  endloop
 endfacet
 facet normal -0.237686 0.971342 0
  outer loop
   vertex -0.0323524 0.281923 0
   vertex -0.027055 0.28322 0.5
   vertex -0.027055 0.28322 0
  endloop
 endfacet
 facet normal -0.19509 0.980785 0
  outer loop
   vertex -0.027055 0.28322 0.5
   vertex -0.021706 0.284284 0.5
   vertex -0.027055 0.28322 0
  endloop
 endfacet
 facet normal -0.19509 0.980785 0
  outer loop
   vertex -0.027055 0.28322 0
   vertex -0.021706 0.284284 0.5
   vertex -0.021706 0.284284 0
  endloop
 endfacet
 facet normal -0.152124 0.988361 0
  outer loop
   vertex -0.021706 0.284284 0.5
   vertex -0.0163158 0.285113 0.5
   vertex -0.021706 0.284284 0
  endloop
 endfacet
 facet normal -0.152124 0.988361 0
  outer loop
   vertex -0.021706 0.284284 0
   vertex -0.0163158 0.285113 0.5
   vertex -0.0163158 0.285113 0
  endloop
 endfacet
 facet normal -0.108867 0.994056 0
  outer loop
   vertex -0.0163158 0.285113 0.5
   vertex -0.0108945 0.285707 0.5
   vertex -0.0163158 0.285113 0
  endloop
 endfacet
 facet normal -0.108867 0.994056 0
  outer loop
   vertex -0.0163158 0.285113 0
   vertex -0.0108945 0.285707 0.5
   vertex -0.0108945 0.285707 0
  endloop
 endfacet
 facet normal -0.0654029 0.997859 0
  outer loop
   vertex -0.0108945 0.285707 0.5
   vertex -0.00545242 0.286064 0.5
   vertex -0.0108945 0.285707 0
  endloop
 endfacet
 facet normal -0.0654029 0.997859 0
  outer loop
   vertex -0.0108945 0.285707 0
   vertex -0.00545242 0.286064 0.5
   vertex -0.00545242 0.286064 0
  endloop
 endfacet
 facet normal -0.0218146 0.999762 0
  outer loop
   vertex -0.00545242 0.286064 0.5
   vertex -7.65404e-18 0.286183 0.5
   vertex -0.00545242 0.286064 0
  endloop
 endfacet
 facet normal -0.0218146 0.999762 0
  outer loop
   vertex -0.00545242 0.286064 0
   vertex -7.65404e-18 0.286183 0.5
   vertex -7.65404e-18 0.286183 0
  endloop
 endfacet
 facet normal 0.0218146 0.999762 0
  outer loop
   vertex -7.65404e-18 0.286183 0.5
   vertex 0.00545242 0.286064 0.5
   vertex -7.65404e-18 0.286183 0
  endloop
 endfacet
 facet normal 0.0218146 0.999762 0
  outer loop
   vertex -7.65404e-18 0.286183 0
   vertex 0.00545242 0.286064 0.5
   vertex 0.00545242 0.286064 0
  endloop
 endfacet
 facet normal 0.0654029 0.997859 0
  outer loop
   vertex 0.00545242 0.286064 0.5
   vertex 0.0108945 0.285707 0.5
   vertex 0.00545242 0.286064 0
  endloop
 endfacet
 facet normal 0.0654029 0.997859 0
  outer loop
   vertex 0.00545242 0.286064 0
   vertex 0.0108945 0.285707 0.5
   vertex 0.0108945 0.285707 0
  endloop
 endfacet
 facet normal 0.108867 0.994056 0
  outer loop
   vertex 0.0108945 0.285707 0.5
   vertex 0.0163158 0.285113 0.5
   vertex 0.0108945 0.285707 0
  endloop
 endfacet
 facet normal 0.108867 0.994056 0
  outer loop
   vertex 0.0108945 0.285707 0
   vertex 0.0163158 0.285113 0.5
   vertex 0.0163158 0.285113 0
  endloop
 endfacet
 facet normal 0.152124 0.988361 0
  outer loop
   vertex 0.0163158 0.285113 0.5
   vertex 0.021706 0.284284 0.5
   vertex 0.0163158 0.285113 0
  endloop
 endfacet
 facet normal 0.152124 0.988361 0
  outer loop
   vertex 0.0163158 0.285113 0
   vertex 0.021706 0.284284 0.5
   vertex 0.021706 0.284284 0
  endloop
 endfacet
 facet normal 0.19509 0.980785 0
  outer loop
   vertex 0.021706 0.284284 0.5
   vertex 0.027055 0.28322 0.5
   vertex 0.021706 0.284284 0
  endloop
 endfacet
 facet normal 0.19509 0.980785 0
  outer loop
   vertex 0.021706 0.284284 0
   vertex 0.027055 0.28322 0.5
   vertex 0.027055 0.28322 0
  endloop
 endfacet
 facet normal 0.237686 0.971342 0
  outer loop
   vertex 0.027055 0.28322 0.5
   vertex 0.0323524 0.281923 0.5
   vertex 0.027055 0.28322 0
  endloop
 endfacet
 facet normal 0.237686 0.971342 0
  outer loop
   vertex 0.027055 0.28322 0
   vertex 0.0323524 0.281923 0.5
   vertex 0.0323524 0.281923 0
  endloop
 endfacet
 facet normal 0.279829 0.96005 0
  outer loop
   vertex 0.0323524 0.281923 0.5
   vertex 0.0375882 0.280397 0.5
   vertex 0.0323524 0.281923 0
  endloop
 endfacet
 facet normal 0.279829 0.96005 0
  outer loop
   vertex 0.0323524 0.281923 0
   vertex 0.0375882 0.280397 0.5
   vertex 0.0375882 0.280397 0
  endloop
 endfacet
 facet normal 0.321439 0.94693 0
  outer loop
   vertex 0.0375882 0.280397 0.5
   vertex 0.0427525 0.278644 0.5
   vertex 0.0375882 0.280397 0
  endloop
 endfacet
 facet normal 0.321439 0.94693 0
  outer loop
   vertex 0.0375882 0.280397 0
   vertex 0.0427525 0.278644 0.5
   vertex 0.0427525 0.278644 0
  endloop
 endfacet
 facet normal 0.362439 0.932008 0
  outer loop
   vertex 0.0427525 0.278644 0.5
   vertex 0.0478354 0.276668 0.5
   vertex 0.0427525 0.278644 0
  endloop
 endfacet
 facet normal 0.362439 0.932008 0
  outer loop
   vertex 0.0427525 0.278644 0
   vertex 0.0478354 0.276668 0.5
   vertex 0.0478354 0.276668 0
  endloop
 endfacet
 facet normal 0.402745 0.915312 0
  outer loop
   vertex 0.0478354 0.276668 0.5
   vertex 0.0528273 0.274471 0.5
   vertex 0.0478354 0.276668 0
  endloop
 endfacet
 facet normal 0.402745 0.915312 0
  outer loop
   vertex 0.0478354 0.276668 0
   vertex 0.0528273 0.274471 0.5
   vertex 0.0528273 0.274471 0
  endloop
 endfacet
 facet normal 0.44229 0.896872 0
  outer loop
   vertex 0.0528273 0.274471 0.5
   vertex 0.0577186 0.272059 0.5
   vertex 0.0528273 0.274471 0
  endloop
 endfacet
 facet normal 0.44229 0.896872 0
  outer loop
   vertex 0.0528273 0.274471 0
   vertex 0.0577186 0.272059 0.5
   vertex 0.0577186 0.272059 0
  endloop
 endfacet
 facet normal 0.480989 0.876727 0
  outer loop
   vertex 0.0577186 0.272059 0.5
   vertex 0.0625 0.269436 0.5
   vertex 0.0577186 0.272059 0
  endloop
 endfacet
 facet normal 0.480989 0.876727 0
  outer loop
   vertex 0.0577186 0.272059 0
   vertex 0.0625 0.269436 0.5
   vertex 0.0625 0.269436 0
  endloop
 endfacet
 facet normal 0.518773 0.854912 0
  outer loop
   vertex 0.0625 0.269436 0.5
   vertex 0.0671625 0.266607 0.5
   vertex 0.0625 0.269436 0
  endloop
 endfacet
 facet normal 0.518773 0.854912 0
  outer loop
   vertex 0.0625 0.269436 0
   vertex 0.0671625 0.266607 0.5
   vertex 0.0671625 0.266607 0
  endloop
 endfacet
 facet normal 0.55557 0.83147 0
  outer loop
   vertex 0.0671625 0.266607 0.5
   vertex 0.0716971 0.263577 0.5
   vertex 0.0671625 0.266607 0
  endloop
 endfacet
 facet normal 0.55557 0.83147 0
  outer loop
   vertex 0.0671625 0.266607 0
   vertex 0.0716971 0.263577 0.5
   vertex 0.0716971 0.263577 0
  endloop
 endfacet
 facet normal 0.59131 0.806444 0
  outer loop
   vertex 0.0716971 0.263577 0.5
   vertex 0.0760952 0.260352 0.5
   vertex 0.0716971 0.263577 0
  endloop
 endfacet
 facet normal 0.59131 0.806444 0
  outer loop
   vertex 0.0716971 0.263577 0
   vertex 0.0760952 0.260352 0.5
   vertex 0.0760952 0.260352 0
  endloop
 endfacet
 facet normal 0.625923 0.779885 0
  outer loop
   vertex 0.0760952 0.260352 0.5
   vertex 0.0803485 0.256938 0.5
   vertex 0.0760952 0.260352 0
  endloop
 endfacet
 facet normal 0.625923 0.779885 0
  outer loop
   vertex 0.0760952 0.260352 0
   vertex 0.0803485 0.256938 0.5
   vertex 0.0803485 0.256938 0
  endloop
 endfacet
 facet normal 0.659346 0.75184 0
  outer loop
   vertex 0.0803485 0.256938 0.5
   vertex 0.0844488 0.253342 0.5
   vertex 0.0803485 0.256938 0
  endloop
 endfacet
 facet normal 0.659346 0.75184 0
  outer loop
   vertex 0.0803485 0.256938 0
   vertex 0.0844488 0.253342 0.5
   vertex 0.0844488 0.253342 0
  endloop
 endfacet
 facet normal 0.691513 0.722364 0
  outer loop
   vertex 0.0844488 0.253342 0.5
   vertex 0.0883883 0.249571 0.5
   vertex 0.0844488 0.253342 0
  endloop
 endfacet
 facet normal 0.691513 0.722364 0
  outer loop
   vertex 0.0844488 0.253342 0
   vertex 0.0883883 0.249571 0.5
   vertex 0.0883883 0.249571 0
  endloop
 endfacet
 facet normal 0.722364 0.691513 0
  outer loop
   vertex 0.0883883 0.249571 0.5
   vertex 0.0921597 0.245631 0.5
   vertex 0.0883883 0.249571 0
  endloop
 endfacet
 facet normal 0.722364 0.691513 0
  outer loop
   vertex 0.0883883 0.249571 0
   vertex 0.0921597 0.245631 0.5
   vertex 0.0921597 0.245631 0
  endloop
 endfacet
 facet normal 0.75184 0.659346 0
  outer loop
   vertex 0.0921597 0.245631 0.5
   vertex 0.0957556 0.241531 0.5
   vertex 0.0921597 0.245631 0
  endloop
 endfacet
 facet normal 0.75184 0.659346 0
  outer loop
   vertex 0.0921597 0.245631 0
   vertex 0.0957556 0.241531 0.5
   vertex 0.0957556 0.241531 0
  endloop
 endfacet
 facet normal 0.779885 0.625923 0
  outer loop
   vertex 0.0957556 0.241531 0.5
   vertex 0.0991692 0.237278 0.5
   vertex 0.0957556 0.241531 0
  endloop
 endfacet
 facet normal 0.779885 0.625923 0
  outer loop
   vertex 0.0957556 0.241531 0
   vertex 0.0991692 0.237278 0.5
   vertex 0.0991692 0.237278 0
  endloop
 endfacet
 facet normal 0.806444 0.59131 0
  outer loop
   vertex 0.0991692 0.237278 0.5
   vertex 0.102394 0.23288 0.5
   vertex 0.0991692 0.237278 0
  endloop
 endfacet
 facet normal 0.806444 0.59131 0
  outer loop
   vertex 0.0991692 0.237278 0
   vertex 0.102394 0.23288 0.5
   vertex 0.102394 0.23288 0
  endloop
 endfacet
 facet normal 0.83147 0.55557 0
  outer loop
   vertex 0.102394 0.23288 0.5
   vertex 0.105424 0.228345 0.5
   vertex 0.102394 0.23288 0
  endloop
 endfacet
 facet normal 0.83147 0.55557 0
  outer loop
   vertex 0.102394 0.23288 0
   vertex 0.105424 0.228345 0.5
   vertex 0.105424 0.228345 0
  endloop
 endfacet
 facet normal 0.854912 0.518773 0
  outer loop
   vertex 0.105424 0.228345 0.5
   vertex 0.108253 0.223683 0.5
   vertex 0.105424 0.228345 0
  endloop
 endfacet
 facet normal 0.854912 0.518773 0
  outer loop
   vertex 0.105424 0.228345 0
   vertex 0.108253 0.223683 0.5
   vertex 0.108253 0.223683 0
  endloop
 endfacet
 facet normal 0.876727 0.480989 0
  outer loop
   vertex 0.108253 0.223683 0.5
   vertex 0.110876 0.218901 0.5
   vertex 0.108253 0.223683 0
  endloop
 endfacet
 facet normal 0.876727 0.480989 0
  outer loop
   vertex 0.108253 0.223683 0
   vertex 0.110876 0.218901 0.5
   vertex 0.110876 0.218901 0
  endloop
 endfacet
 facet normal 0.896872 0.44229 0
  outer loop
   vertex 0.110876 0.218901 0.5
   vertex 0.113288 0.21401 0.5
   vertex 0.110876 0.218901 0
  endloop
 endfacet
 facet normal 0.896872 0.44229 0
  outer loop
   vertex 0.110876 0.218901 0
   vertex 0.113288 0.21401 0.5
   vertex 0.113288 0.21401 0
  endloop
 endfacet
 facet normal 0.915312 0.402745 0
  outer loop
   vertex 0.113288 0.21401 0.5
   vertex 0.115485 0.209018 0.5
   vertex 0.113288 0.21401 0
  endloop
 endfacet
 facet normal 0.915312 0.402745 0
  outer loop
   vertex 0.113288 0.21401 0
   vertex 0.115485 0.209018 0.5
   vertex 0.115485 0.209018 0
  endloop
 endfacet
 facet normal 0.932008 0.362439 0
  outer loop
   vertex 0.115485 0.209018 0.5
   vertex 0.117462 0.203935 0.5
   vertex 0.115485 0.209018 0
  endloop
 endfacet
 facet normal 0.932008 0.362439 0
  outer loop
   vertex 0.115485 0.209018 0
   vertex 0.117462 0.203935 0.5
   vertex 0.117462 0.203935 0
  endloop
 endfacet
 facet normal 0.94693 0.321439 0
  outer loop
   vertex 0.117462 0.203935 0.5
   vertex 0.119215 0.198771 0.5
   vertex 0.117462 0.203935 0
  endloop
 endfacet
 facet normal 0.94693 0.321439 0
  outer loop
   vertex 0.117462 0.203935 0
   vertex 0.119215 0.198771 0.5
   vertex 0.119215 0.198771 0
  endloop
 endfacet
 facet normal 0.96005 0.279829 0
  outer loop
   vertex 0.119215 0.198771 0.5
   vertex 0.120741 0.193535 0.5
   vertex 0.119215 0.198771 0
  endloop
 endfacet
 facet normal 0.96005 0.279829 0
  outer loop
   vertex 0.119215 0.198771 0
   vertex 0.120741 0.193535 0.5
   vertex 0.120741 0.193535 0
  endloop
 endfacet
 facet normal 0.971342 0.237686 0
  outer loop
   vertex 0.120741 0.193535 0.5
   vertex 0.122037 0.188238 0.5
   vertex 0.120741 0.193535 0
  endloop
 endfacet
 facet normal 0.971342 0.237686 0
  outer loop
   vertex 0.120741 0.193535 0
   vertex 0.122037 0.188238 0.5
   vertex 0.122037 0.188238 0
  endloop
 endfacet
 facet normal 0.980785 0.19509 0
  outer loop
   vertex 0.122037 0.188238 0.5
   vertex 0.123101 0.182889 0.5
   vertex 0.122037 0.188238 0
  endloop
 endfacet
 facet normal 0.980785 0.19509 0
  outer loop
   vertex 0.122037 0.188238 0
   vertex 0.123101 0.182889 0.5
   vertex 0.123101 0.182889 0
  endloop
 endfacet
 facet normal 0.988361 0.152124 0
  outer loop
   vertex 0.123101 0.182889 0.5
   vertex 0.123931 0.177498 0.5
   vertex 0.123101 0.182889 0
  endloop
 endfacet
 facet normal 0.988361 0.152124 0
  outer loop
   vertex 0.123101 0.182889 0
   vertex 0.123931 0.177498 0.5
   vertex 0.123931 0.177498 0
  endloop
 endfacet
 facet normal 0.994056 0.108867 0
  outer loop
   vertex 0.123931 0.177498 0.5
   vertex 0.124524 0.172077 0.5
   vertex 0.123931 0.177498 0
  endloop
 endfacet
 facet normal 0.994056 0.108867 0
  outer loop
   vertex 0.123931 0.177498 0
   vertex 0.124524 0.172077 0.5
   vertex 0.124524 0.172077 0
  endloop
 endfacet
 facet normal 0.997859 0.0654029 0
  outer loop
   vertex 0.124524 0.172077 0.5
   vertex 0.124881 0.166635 0.5
   vertex 0.124524 0.172077 0
  endloop
 endfacet
 facet normal 0.997859 0.0654029 0
  outer loop
   vertex 0.124524 0.172077 0
   vertex 0.124881 0.166635 0.5
   vertex 0.124881 0.166635 0
  endloop
 endfacet
 facet normal 0.999762 0.0218146 0
  outer loop
   vertex 0.124881 0.166635 0.5
   vertex 0.125 0.161183 0.5
   vertex 0.124881 0.166635 0
  endloop
 endfacet
 facet normal 0.999762 0.0218146 -1.20367e-18
  outer loop
   vertex 0.124881 0.166635 0
   vertex 0.125 0.161183 0.5
   vertex 0.125 0.161183 0
  endloop
 endfacet
 facet normal 0.999762 -0.0218146 1.21095e-18
  outer loop
   vertex 0.125 0.161183 0.5
   vertex 0.124881 0.15573 0.5
   vertex 0.125 0.161183 0
  endloop
 endfacet
 facet normal 0.999762 -0.0218146 0
  outer loop
   vertex 0.125 0.161183 0
   vertex 0.124881 0.15573 0.5
   vertex 0.124881 0.15573 0
  endloop
 endfacet
 facet normal 0.997859 -0.0654029 0
  outer loop
   vertex 0.124881 0.15573 0.5
   vertex 0.124524 0.150288 0.5
   vertex 0.124881 0.15573 0
  endloop
 endfacet
 facet normal 0.997859 -0.0654029 0
  outer loop
   vertex 0.124881 0.15573 0
   vertex 0.124524 0.150288 0.5
   vertex 0.124524 0.150288 0
  endloop
 endfacet
 facet normal 0.994056 -0.108867 0
  outer loop
   vertex 0.124524 0.150288 0.5
   vertex 0.123931 0.144867 0.5
   vertex 0.124524 0.150288 0
  endloop
 endfacet
 facet normal 0.994056 -0.108867 0
  outer loop
   vertex 0.124524 0.150288 0
   vertex 0.123931 0.144867 0.5
   vertex 0.123931 0.144867 0
  endloop
 endfacet
 facet normal 0.988361 -0.152124 0
  outer loop
   vertex 0.123931 0.144867 0.5
   vertex 0.123101 0.139477 0.5
   vertex 0.123931 0.144867 0
  endloop
 endfacet
 facet normal 0.988361 -0.152124 0
  outer loop
   vertex 0.123931 0.144867 0
   vertex 0.123101 0.139477 0.5
   vertex 0.123101 0.139477 0
  endloop
 endfacet
 facet normal 0.980785 -0.19509 0
  outer loop
   vertex 0.123101 0.139477 0.5
   vertex 0.122037 0.134128 0.5
   vertex 0.123101 0.139477 0
  endloop
 endfacet
 facet normal 0.980785 -0.19509 0
  outer loop
   vertex 0.123101 0.139477 0
   vertex 0.122037 0.134128 0.5
   vertex 0.122037 0.134128 0
  endloop
 endfacet
 facet normal 0.971342 -0.237686 0
  outer loop
   vertex 0.122037 0.134128 0.5
   vertex 0.120741 0.12883 0.5
   vertex 0.122037 0.134128 0
  endloop
 endfacet
 facet normal 0.971342 -0.237686 0
  outer loop
   vertex 0.122037 0.134128 0
   vertex 0.120741 0.12883 0.5
   vertex 0.120741 0.12883 0
  endloop
 endfacet
 facet normal 0.96005 -0.279829 0
  outer loop
   vertex 0.120741 0.12883 0.5
   vertex 0.119215 0.123594 0.5
   vertex 0.120741 0.12883 0
  endloop
 endfacet
 facet normal 0.96005 -0.279829 0
  outer loop
   vertex 0.120741 0.12883 0
   vertex 0.119215 0.123594 0.5
   vertex 0.119215 0.123594 0
  endloop
 endfacet
 facet normal 0.94693 -0.321439 0
  outer loop
   vertex 0.119215 0.123594 0.5
   vertex 0.117462 0.11843 0.5
   vertex 0.119215 0.123594 0
  endloop
 endfacet
 facet normal 0.94693 -0.321439 0
  outer loop
   vertex 0.119215 0.123594 0
   vertex 0.117462 0.11843 0.5
   vertex 0.117462 0.11843 0
  endloop
 endfacet
 facet normal 0.932008 -0.362439 0
  outer loop
   vertex 0.117462 0.11843 0.5
   vertex 0.115485 0.113347 0.5
   vertex 0.117462 0.11843 0
  endloop
 endfacet
 facet normal 0.932008 -0.362439 0
  outer loop
   vertex 0.117462 0.11843 0
   vertex 0.115485 0.113347 0.5
   vertex 0.115485 0.113347 0
  endloop
 endfacet
 facet normal 0.915312 -0.402745 0
  outer loop
   vertex 0.115485 0.113347 0.5
   vertex 0.113288 0.108355 0.5
   vertex 0.115485 0.113347 0
  endloop
 endfacet
 facet normal 0.915312 -0.402745 0
  outer loop
   vertex 0.115485 0.113347 0
   vertex 0.113288 0.108355 0.5
   vertex 0.113288 0.108355 0
  endloop
 endfacet
 facet normal 0.896872 -0.44229 0
  outer loop
   vertex 0.113288 0.108355 0.5
   vertex 0.110876 0.103464 0.5
   vertex 0.113288 0.108355 0
  endloop
 endfacet
 facet normal 0.896872 -0.44229 0
  outer loop
   vertex 0.113288 0.108355 0
   vertex 0.110876 0.103464 0.5
   vertex 0.110876 0.103464 0
  endloop
 endfacet
 facet normal 0.876727 -0.480989 0
  outer loop
   vertex 0.110876 0.103464 0.5
   vertex 0.108253 0.0986827 0.5
   vertex 0.110876 0.103464 0
  endloop
 endfacet
 facet normal 0.876727 -0.480989 0
  outer loop
   vertex 0.110876 0.103464 0
   vertex 0.108253 0.0986827 0.5
   vertex 0.108253 0.0986827 0
  endloop
 endfacet
 facet normal 0.854912 -0.518773 0
  outer loop
   vertex 0.108253 0.0986827 0.5
   vertex 0.105424 0.0940202 0.5
   vertex 0.108253 0.0986827 0
  endloop
 endfacet
 facet normal 0.854912 -0.518773 0
  outer loop
   vertex 0.108253 0.0986827 0
   vertex 0.105424 0.0940202 0.5
   vertex 0.105424 0.0940202 0
  endloop
 endfacet
 facet normal 0.83147 -0.55557 0
  outer loop
   vertex 0.105424 0.0940202 0.5
   vertex 0.102394 0.0894856 0.5
   vertex 0.105424 0.0940202 0
  endloop
 endfacet
 facet normal 0.83147 -0.55557 0
  outer loop
   vertex 0.105424 0.0940202 0
   vertex 0.102394 0.0894856 0.5
   vertex 0.102394 0.0894856 0
  endloop
 endfacet
 facet normal 0.806444 -0.59131 0
  outer loop
   vertex 0.102394 0.0894856 0.5
   vertex 0.0991692 0.0850875 0.5
   vertex 0.102394 0.0894856 0
  endloop
 endfacet
 facet normal 0.806444 -0.59131 0
  outer loop
   vertex 0.102394 0.0894856 0
   vertex 0.0991692 0.0850875 0.5
   vertex 0.0991692 0.0850875 0
  endloop
 endfacet
 facet normal 0.779885 -0.625923 0
  outer loop
   vertex 0.0991692 0.0850875 0.5
   vertex 0.0957556 0.0808342 0.5
   vertex 0.0991692 0.0850875 0
  endloop
 endfacet
 facet normal 0.779885 -0.625923 0
  outer loop
   vertex 0.0991692 0.0850875 0
   vertex 0.0957556 0.0808342 0.5
   vertex 0.0957556 0.0808342 0
  endloop
 endfacet
 facet normal 0.75184 -0.659346 0
  outer loop
   vertex 0.0957556 0.0808342 0.5
   vertex 0.0921597 0.0767339 0.5
   vertex 0.0957556 0.0808342 0
  endloop
 endfacet
 facet normal 0.75184 -0.659346 0
  outer loop
   vertex 0.0957556 0.0808342 0
   vertex 0.0921597 0.0767339 0.5
   vertex 0.0921597 0.0767339 0
  endloop
 endfacet
 facet normal 0.722364 -0.691513 0
  outer loop
   vertex 0.0921597 0.0767339 0.5
   vertex 0.0883883 0.0727943 0.5
   vertex 0.0921597 0.0767339 0
  endloop
 endfacet
 facet normal 0.722364 -0.691513 0
  outer loop
   vertex 0.0921597 0.0767339 0
   vertex 0.0883883 0.0727943 0.5
   vertex 0.0883883 0.0727943 0
  endloop
 endfacet
 facet normal 0.691513 -0.722364 0
  outer loop
   vertex 0.0883883 0.0727943 0.5
   vertex 0.0844488 0.069023 0.5
   vertex 0.0883883 0.0727943 0
  endloop
 endfacet
 facet normal 0.691513 -0.722364 0
  outer loop
   vertex 0.0883883 0.0727943 0
   vertex 0.0844488 0.069023 0.5
   vertex 0.0844488 0.069023 0
  endloop
 endfacet
 facet normal 0.659346 -0.75184 0
  outer loop
   vertex 0.0844488 0.069023 0.5
   vertex 0.0803485 0.0654271 0.5
   vertex 0.0844488 0.069023 0
  endloop
 endfacet
 facet normal 0.659346 -0.75184 0
  outer loop
   vertex 0.0844488 0.069023 0
   vertex 0.0803485 0.0654271 0.5
   vertex 0.0803485 0.0654271 0
  endloop
 endfacet
 facet normal 0.625923 -0.779885 0
  outer loop
   vertex 0.0803485 0.0654271 0.5
   vertex 0.0760952 0.0620135 0.5
   vertex 0.0803485 0.0654271 0
  endloop
 endfacet
 facet normal 0.625923 -0.779885 0
  outer loop
   vertex 0.0803485 0.0654271 0
   vertex 0.0760952 0.0620135 0.5
   vertex 0.0760952 0.0620135 0
  endloop
 endfacet
 facet normal 0.59131 -0.806444 0
  outer loop
   vertex 0.0760952 0.0620135 0.5
   vertex 0.0716971 0.0587887 0.5
   vertex 0.0760952 0.0620135 0
  endloop
 endfacet
 facet normal 0.59131 -0.806444 0
  outer loop
   vertex 0.0760952 0.0620135 0
   vertex 0.0716971 0.0587887 0.5
   vertex 0.0716971 0.0587887 0
  endloop
 endfacet
 facet normal 0.55557 -0.83147 0
  outer loop
   vertex 0.0716971 0.0587887 0.5
   vertex 0.0671625 0.0557587 0.5
   vertex 0.0716971 0.0587887 0
  endloop
 endfacet
 facet normal 0.55557 -0.83147 0
  outer loop
   vertex 0.0716971 0.0587887 0
   vertex 0.0671625 0.0557587 0.5
   vertex 0.0671625 0.0557587 0
  endloop
 endfacet
 facet normal 0.518773 -0.854912 0
  outer loop
   vertex 0.0671625 0.0557587 0.5
   vertex 0.0625 0.0529295 0.5
   vertex 0.0671625 0.0557587 0
  endloop
 endfacet
 facet normal 0.518773 -0.854912 0
  outer loop
   vertex 0.0671625 0.0557587 0
   vertex 0.0625 0.0529295 0.5
   vertex 0.0625 0.0529295 0
  endloop
 endfacet
 facet normal 0.480989 -0.876727 0
  outer loop
   vertex 0.0625 0.0529295 0.5
   vertex 0.0577186 0.0503063 0.5
   vertex 0.0625 0.0529295 0
  endloop
 endfacet
 facet normal 0.480989 -0.876727 0
  outer loop
   vertex 0.0625 0.0529295 0
   vertex 0.0577186 0.0503063 0.5
   vertex 0.0577186 0.0503063 0
  endloop
 endfacet
 facet normal 0.44229 -0.896872 0
  outer loop
   vertex 0.0577186 0.0503063 0.5
   vertex 0.0528273 0.0478942 0.5
   vertex 0.0577186 0.0503063 0
  endloop
 endfacet
 facet normal 0.44229 -0.896872 0
  outer loop
   vertex 0.0577186 0.0503063 0
   vertex 0.0528273 0.0478942 0.5
   vertex 0.0528273 0.0478942 0
  endloop
 endfacet
 facet normal 0.402745 -0.915312 0
  outer loop
   vertex 0.0528273 0.0478942 0.5
   vertex 0.0478354 0.0456977 0.5
   vertex 0.0528273 0.0478942 0
  endloop
 endfacet
 facet normal 0.402745 -0.915312 0
  outer loop
   vertex 0.0528273 0.0478942 0
   vertex 0.0478354 0.0456977 0.5
   vertex 0.0478354 0.0456977 0
  endloop
 endfacet
 facet normal 0.362439 -0.932008 0
  outer loop
   vertex 0.0478354 0.0456977 0.5
   vertex 0.0427525 0.0437211 0.5
   vertex 0.0478354 0.0456977 0
  endloop
 endfacet
 facet normal 0.362439 -0.932008 0
  outer loop
   vertex 0.0478354 0.0456977 0
   vertex 0.0427525 0.0437211 0.5
   vertex 0.0427525 0.0437211 0
  endloop
 endfacet
 facet normal 0.321439 -0.94693 0
  outer loop
   vertex 0.0427525 0.0437211 0.5
   vertex 0.0375882 0.041968 0.5
   vertex 0.0427525 0.0437211 0
  endloop
 endfacet
 facet normal 0.321439 -0.94693 0
  outer loop
   vertex 0.0427525 0.0437211 0
   vertex 0.0375882 0.041968 0.5
   vertex 0.0375882 0.041968 0
  endloop
 endfacet
 facet normal 0.279829 -0.96005 0
  outer loop
   vertex 0.0375882 0.041968 0.5
   vertex 0.0323524 0.0404419 0.5
   vertex 0.0375882 0.041968 0
  endloop
 endfacet
 facet normal 0.279829 -0.96005 0
  outer loop
   vertex 0.0375882 0.041968 0
   vertex 0.0323524 0.0404419 0.5
   vertex 0.0323524 0.0404419 0
  endloop
 endfacet
 facet normal 0.237686 -0.971342 0
  outer loop
   vertex 0.0323524 0.0404419 0.5
   vertex 0.027055 0.0391457 0.5
   vertex 0.0323524 0.0404419 0
  endloop
 endfacet
 facet normal 0.237686 -0.971342 0
  outer loop
   vertex 0.0323524 0.0404419 0
   vertex 0.027055 0.0391457 0.5
   vertex 0.027055 0.0391457 0
  endloop
 endfacet
 facet normal 0.19509 -0.980785 0
  outer loop
   vertex 0.027055 0.0391457 0.5
   vertex 0.021706 0.0380817 0.5
   vertex 0.027055 0.0391457 0
  endloop
 endfacet
 facet normal 0.19509 -0.980785 0
  outer loop
   vertex 0.027055 0.0391457 0
   vertex 0.021706 0.0380817 0.5
   vertex 0.021706 0.0380817 0
  endloop
 endfacet
 facet normal 0.152124 -0.988361 0
  outer loop
   vertex 0.021706 0.0380817 0.5
   vertex 0.0163158 0.037252 0.5
   vertex 0.021706 0.0380817 0
  endloop
 endfacet
 facet normal 0.152124 -0.988361 0
  outer loop
   vertex 0.021706 0.0380817 0
   vertex 0.0163158 0.037252 0.5
   vertex 0.0163158 0.037252 0
  endloop
 endfacet
 facet normal 0.108867 -0.994056 0
  outer loop
   vertex 0.0163158 0.037252 0.5
   vertex 0.0108945 0.0366583 0.5
   vertex 0.0163158 0.037252 0
  endloop
 endfacet
 facet normal 0.108867 -0.994056 0
  outer loop
   vertex 0.0163158 0.037252 0
   vertex 0.0108945 0.0366583 0.5
   vertex 0.0108945 0.0366583 0
  endloop
 endfacet
 facet normal 0.0654029 -0.997859 0
  outer loop
   vertex 0.0108945 0.0366583 0.5
   vertex 0.00545242 0.0363016 0.5
   vertex 0.0108945 0.0366583 0
  endloop
 endfacet
 facet normal 0.0654029 -0.997859 0
  outer loop
   vertex 0.0108945 0.0366583 0
   vertex 0.00545242 0.0363016 0.5
   vertex 0.00545242 0.0363016 0
  endloop
 endfacet
 facet normal 0.0218146 -0.999762 0
  outer loop
   vertex 0.00545242 0.0363016 0.5
   vertex 2.29621e-17 0.0361827 0.5
   vertex 0.00545242 0.0363016 0
  endloop
 endfacet
 facet normal 0.0218146 -0.999762 0
  outer loop
   vertex 0.00545242 0.0363016 0
   vertex 2.29621e-17 0.0361827 0.5
   vertex 2.29621e-17 0.0361827 0
  endloop
 endfacet
 facet normal -0.0218146 -0.999762 -0
  outer loop
   vertex 2.29621e-17 0.0361827 0.5
   vertex -0.00545242 0.0363016 0.5
   vertex 2.29621e-17 0.0361827 0
  endloop
 endfacet
 facet normal -0.0218146 -0.999762 0
  outer loop
   vertex 2.29621e-17 0.0361827 0
   vertex -0.00545242 0.0363016 0.5
   vertex -0.00545242 0.0363016 0
  endloop
 endfacet
 facet normal -0.0654029 -0.997859 -0
  outer loop
   vertex -0.00545242 0.0363016 0.5
   vertex -0.0108945 0.0366583 0.5
   vertex -0.00545242 0.0363016 0
  endloop
 endfacet
 facet normal -0.0654029 -0.997859 0
  outer loop
   vertex -0.00545242 0.0363016 0
   vertex -0.0108945 0.0366583 0.5
   vertex -0.0108945 0.0366583 0
  endloop
 endfacet
 facet normal -0.108867 -0.994056 -0
  outer loop
   vertex -0.0108945 0.0366583 0.5
   vertex -0.0163158 0.037252 0.5
   vertex -0.0108945 0.0366583 0
  endloop
 endfacet
 facet normal -0.108867 -0.994056 0
  outer loop
   vertex -0.0108945 0.0366583 0
   vertex -0.0163158 0.037252 0.5
   vertex -0.0163158 0.037252 0
  endloop
 endfacet
 facet normal -0.152124 -0.988361 -0
  outer loop
   vertex -0.0163158 0.037252 0.5
   vertex -0.021706 0.0380817 0.5
   vertex -0.0163158 0.037252 0
  endloop
 endfacet
 facet normal -0.152124 -0.988361 0
  outer loop
   vertex -0.0163158 0.037252 0
   vertex -0.021706 0.0380817 0.5
   vertex -0.021706 0.0380817 0
  endloop
 endfacet
 facet normal -0.19509 -0.980785 -0
  outer loop
   vertex -0.021706 0.0380817 0.5
   vertex -0.027055 0.0391457 0.5
   vertex -0.021706 0.0380817 0
  endloop
 endfacet
 facet normal -0.19509 -0.980785 0
  outer loop
   vertex -0.021706 0.0380817 0
   vertex -0.027055 0.0391457 0.5
   vertex -0.027055 0.0391457 0
  endloop
 endfacet
 facet normal -0.237686 -0.971342 -0
  outer loop
   vertex -0.027055 0.0391457 0.5
   vertex -0.0323524 0.0404419 0.5
   vertex -0.027055 0.0391457 0
  endloop
 endfacet
 facet normal -0.237686 -0.971342 0
  outer loop
   vertex -0.027055 0.0391457 0
   vertex -0.0323524 0.0404419 0.5
   vertex -0.0323524 0.0404419 0
  endloop
 endfacet
 facet normal -0.279829 -0.96005 -0
  outer loop
   vertex -0.0323524 0.0404419 0.5
   vertex -0.0375882 0.041968 0.5
   vertex -0.0323524 0.0404419 0
  endloop
 endfacet
 facet normal -0.279829 -0.96005 0
  outer loop
   vertex -0.0323524 0.0404419 0
   vertex -0.0375882 0.041968 0.5
   vertex -0.0375882 0.041968 0
  endloop
 endfacet
 facet normal -0.321439 -0.94693 -0
  outer loop
   vertex -0.0375882 0.041968 0.5
   vertex -0.0427525 0.0437211 0.5
   vertex -0.0375882 0.041968 0
  endloop
 endfacet
 facet normal -0.321439 -0.94693 0
  outer loop
   vertex -0.0375882 0.041968 0
   vertex -0.0427525 0.0437211 0.5
   vertex -0.0427525 0.0437211 0
  endloop
 endfacet
 facet normal -0.362439 -0.932008 -0
  outer loop
   vertex -0.0427525 0.0437211 0.5
   vertex -0.0478354 0.0456977 0.5
   vertex -0.0427525 0.0437211 0
  endloop
 endfacet
 facet normal -0.362439 -0.932008 0
  outer loop
   vertex -0.0427525 0.0437211 0
   vertex -0.0478354 0.0456977 0.5
   vertex -0.0478354 0.0456977 0
  endloop
 endfacet
 facet normal -0.402745 -0.915312 -0
  outer loop
   vertex -0.0478354 0.0456977 0.5
   vertex -0.0528273 0.0478942 0.5
   vertex -0.0478354 0.0456977 0
  endloop
 endfacet
 facet normal -0.402745 -0.915312 0
  outer loop
   vertex -0.0478354 0.0456977 0
   vertex -0.0528273 0.0478942 0.5
   vertex -0.0528273 0.0478942 0
  endloop
 endfacet
 facet normal -0.44229 -0.896872 -0
  outer loop
   vertex -0.0528273 0.0478942 0.5
   vertex -0.0577186 0.0503063 0.5
   vertex -0.0528273 0.0478942 0
  endloop
 endfacet
 facet normal -0.44229 -0.896872 0
  outer loop
   vertex -0.0528273 0.0478942 0
   vertex -0.0577186 0.0503063 0.5
   vertex -0.0577186 0.0503063 0
  endloop
 endfacet
 facet normal -0.480989 -0.876727 -0
  outer loop
   vertex -0.0577186 0.0503063 0.5
   vertex -0.0625 0.0529295 0.5
   vertex -0.0577186 0.0503063 0
  endloop
 endfacet
 facet normal -0.480989 -0.876727 0
  outer loop
   vertex -0.0577186 0.0503063 0
   vertex -0.0625 0.0529295 0.5
   vertex -0.0625 0.0529295 0
  endloop
 endfacet
 facet normal -0.518773 -0.854912 -0
  outer loop
   vertex -0.0625 0.0529295 0.5
   vertex -0.0671625 0.0557587 0.5
   vertex -0.0625 0.0529295 0
  endloop
 endfacet
 facet normal -0.518773 -0.854912 0
  outer loop
   vertex -0.0625 0.0529295 0
   vertex -0.0671625 0.0557587 0.5
   vertex -0.0671625 0.0557587 0
  endloop
 endfacet
 facet normal -0.55557 -0.83147 -0
  outer loop
   vertex -0.0671625 0.0557587 0.5
   vertex -0.0716971 0.0587887 0.5
   vertex -0.0671625 0.0557587 0
  endloop
 endfacet
 facet normal -0.55557 -0.83147 0
  outer loop
   vertex -0.0671625 0.0557587 0
   vertex -0.0716971 0.0587887 0.5
   vertex -0.0716971 0.0587887 0
  endloop
 endfacet
 facet normal -0.59131 -0.806444 -0
  outer loop
   vertex -0.0716971 0.0587887 0.5
   vertex -0.0760952 0.0620135 0.5
   vertex -0.0716971 0.0587887 0
  endloop
 endfacet
 facet normal -0.59131 -0.806444 0
  outer loop
   vertex -0.0716971 0.0587887 0
   vertex -0.0760952 0.0620135 0.5
   vertex -0.0760952 0.0620135 0
  endloop
 endfacet
 facet normal -0.625923 -0.779885 -0
  outer loop
   vertex -0.0760952 0.0620135 0.5
   vertex -0.0803485 0.0654271 0.5
   vertex -0.0760952 0.0620135 0
  endloop
 endfacet
 facet normal -0.625923 -0.779885 0
  outer loop
   vertex -0.0760952 0.0620135 0
   vertex -0.0803485 0.0654271 0.5
   vertex -0.0803485 0.0654271 0
  endloop
 endfacet
 facet normal -0.659346 -0.75184 -0
  outer loop
   vertex -0.0803485 0.0654271 0.5
   vertex -0.0844488 0.069023 0.5
   vertex -0.0803485 0.0654271 0
  endloop
 endfacet
 facet normal -0.659346 -0.75184 0
  outer loop
   vertex -0.0803485 0.0654271 0
   vertex -0.0844488 0.069023 0.5
   vertex -0.0844488 0.069023 0
  endloop
 endfacet
 facet normal -0.691513 -0.722364 -0
  outer loop
   vertex -0.0844488 0.069023 0.5
   vertex -0.0883883 0.0727943 0.5
   vertex -0.0844488 0.069023 0
  endloop
 endfacet
 facet normal -0.691513 -0.722364 0
  outer loop
   vertex -0.0844488 0.069023 0
   vertex -0.0883883 0.0727943 0.5
   vertex -0.0883883 0.0727943 0
  endloop
 endfacet
 facet normal -0.722364 -0.691513 -0
  outer loop
   vertex -0.0883883 0.0727943 0.5
   vertex -0.0921597 0.0767339 0.5
   vertex -0.0883883 0.0727943 0
  endloop
 endfacet
 facet normal -0.722364 -0.691513 0
  outer loop
   vertex -0.0883883 0.0727943 0
   vertex -0.0921597 0.0767339 0.5
   vertex -0.0921597 0.0767339 0
  endloop
 endfacet
 facet normal -0.75184 -0.659346 -0
  outer loop
   vertex -0.0921597 0.0767339 0.5
   vertex -0.0957556 0.0808342 0.5
   vertex -0.0921597 0.0767339 0
  endloop
 endfacet
 facet normal -0.75184 -0.659346 0
  outer loop
   vertex -0.0921597 0.0767339 0
   vertex -0.0957556 0.0808342 0.5
   vertex -0.0957556 0.0808342 0
  endloop
 endfacet
 facet normal -0.779885 -0.625923 -0
  outer loop
   vertex -0.0957556 0.0808342 0.5
   vertex -0.0991692 0.0850875 0.5
   vertex -0.0957556 0.0808342 0
  endloop
 endfacet
 facet normal -0.779885 -0.625923 0
  outer loop
   vertex -0.0957556 0.0808342 0
   vertex -0.0991692 0.0850875 0.5
   vertex -0.0991692 0.0850875 0
  endloop
 endfacet
 facet normal -0.806444 -0.59131 -0
  outer loop
   vertex -0.0991692 0.0850875 0.5
   vertex -0.102394 0.0894856 0.5
   vertex -0.0991692 0.0850875 0
  endloop
 endfacet
 facet normal -0.806444 -0.59131 0
  outer loop
   vertex -0.0991692 0.0850875 0
   vertex -0.102394 0.0894856 0.5
   vertex -0.102394 0.0894856 0
  endloop
 endfacet
 facet normal -0.83147 -0.55557 -0
  outer loop
   vertex -0.102394 0.0894856 0.5
   vertex -0.105424 0.0940202 0.5
   vertex -0.102394 0.0894856 0
  endloop
 endfacet
 facet normal -0.83147 -0.55557 0
  outer loop
   vertex -0.102394 0.0894856 0
   vertex -0.105424 0.0940202 0.5
   vertex -0.105424 0.0940202 0
  endloop
 endfacet
 facet normal -0.854912 -0.518773 -0
  outer loop
   vertex -0.105424 0.0940202 0.5
   vertex -0.108253 0.0986827 0.5
   vertex -0.105424 0.0940202 0
  endloop
 endfacet
 facet normal -0.854912 -0.518773 0
  outer loop
   vertex -0.105424 0.0940202 0
   vertex -0.108253 0.0986827 0.5
   vertex -0.108253 0.0986827 0
  endloop
 endfacet
 facet normal -0.876727 -0.480989 -0
  outer loop
   vertex -0.108253 0.0986827 0.5
   vertex -0.110876 0.103464 0.5
   vertex -0.108253 0.0986827 0
  endloop
 endfacet
 facet normal -0.876727 -0.480989 0
  outer loop
   vertex -0.108253 0.0986827 0
   vertex -0.110876 0.103464 0.5
   vertex -0.110876 0.103464 0
  endloop
 endfacet
 facet normal -0.896872 -0.44229 -0
  outer loop
   vertex -0.110876 0.103464 0.5
   vertex -0.113288 0.108355 0.5
   vertex -0.110876 0.103464 0
  endloop
 endfacet
 facet normal -0.896872 -0.44229 0
  outer loop
   vertex -0.110876 0.103464 0
   vertex -0.113288 0.108355 0.5
   vertex -0.113288 0.108355 0
  endloop
 endfacet
 facet normal -0.915312 -0.402745 -0
  outer loop
   vertex -0.113288 0.108355 0.5
   vertex -0.115485 0.113347 0.5
   vertex -0.113288 0.108355 0
  endloop
 endfacet
 facet normal -0.915312 -0.402745 0
  outer loop
   vertex -0.113288 0.108355 0
   vertex -0.115485 0.113347 0.5
   vertex -0.115485 0.113347 0
  endloop
 endfacet
 facet normal -0.932008 -0.362439 -0
  outer loop
   vertex -0.115485 0.113347 0.5
   vertex -0.117462 0.11843 0.5
   vertex -0.115485 0.113347 0
  endloop
 endfacet
 facet normal -0.932008 -0.362439 0
  outer loop
   vertex -0.115485 0.113347 0
   vertex -0.117462 0.11843 0.5
   vertex -0.117462 0.11843 0
  endloop
 endfacet
 facet normal -0.94693 -0.321439 -0
  outer loop
   vertex -0.117462 0.11843 0.5
   vertex -0.119215 0.123594 0.5
   vertex -0.117462 0.11843 0
  endloop
 endfacet
 facet normal -0.94693 -0.321439 0
  outer loop
   vertex -0.117462 0.11843 0
   vertex -0.119215 0.123594 0.5
   vertex -0.119215 0.123594 0
  endloop
 endfacet
 facet normal -0.96005 -0.279829 -0
  outer loop
   vertex -0.119215 0.123594 0.5
   vertex -0.120741 0.12883 0.5
   vertex -0.119215 0.123594 0
  endloop
 endfacet
 facet normal -0.96005 -0.279829 0
  outer loop
   vertex -0.119215 0.123594 0
   vertex -0.120741 0.12883 0.5
   vertex -0.120741 0.12883 0
  endloop
 endfacet
 facet normal -0.971342 -0.237686 -0
  outer loop
   vertex -0.120741 0.12883 0.5
   vertex -0.122037 0.134128 0.5
   vertex -0.120741 0.12883 0
  endloop
 endfacet
 facet normal -0.971342 -0.237686 0
  outer loop
   vertex -0.120741 0.12883 0
   vertex -0.122037 0.134128 0.5
   vertex -0.122037 0.134128 0
  endloop
 endfacet
 facet normal -0.980785 -0.19509 -0
  outer loop
   vertex -0.122037 0.134128 0.5
   vertex -0.123101 0.139477 0.5
   vertex -0.122037 0.134128 0
  endloop
 endfacet
 facet normal -0.980785 -0.19509 0
  outer loop
   vertex -0.122037 0.134128 0
   vertex -0.123101 0.139477 0.5
   vertex -0.123101 0.139477 0
  endloop
 endfacet
 facet normal -0.988361 -0.152124 -0
  outer loop
   vertex -0.123101 0.139477 0.5
   vertex -0.123931 0.144867 0.5
   vertex -0.123101 0.139477 0
  endloop
 endfacet
 facet normal -0.988361 -0.152124 0
  outer loop
   vertex -0.123101 0.139477 0
   vertex -0.123931 0.144867 0.5
   vertex -0.123931 0.144867 0
  endloop
 endfacet
 facet normal -0.994056 -0.108867 -0
  outer loop
   vertex -0.123931 0.144867 0.5
   vertex -0.124524 0.150288 0.5
   vertex -0.123931 0.144867 0
  endloop
 endfacet
 facet normal -0.994056 -0.108867 0
  outer loop
   vertex -0.123931 0.144867 0
   vertex -0.124524 0.150288 0.5
   vertex -0.124524 0.150288 0
  endloop
 endfacet
 facet normal -0.997859 -0.0654029 -0
  outer loop
   vertex -0.124524 0.150288 0.5
   vertex -0.124881 0.15573 0.5
   vertex -0.124524 0.150288 0
  endloop
 endfacet
 facet normal -0.997859 -0.0654029 0
  outer loop
   vertex -0.124524 0.150288 0
   vertex -0.124881 0.15573 0.5
   vertex -0.124881 0.15573 0
  endloop
 endfacet
 facet normal -0.999762 -0.0218146 -0
  outer loop
   vertex -0.124881 0.15573 0.5
   vertex -0.125 0.161183 0.5
   vertex -0.124881 0.15573 0
  endloop
 endfacet
 facet normal -0.999762 -0.0218146 0
  outer loop
   vertex -0.124881 0.15573 0
   vertex -0.125 0.161183 0.5
   vertex -0.125 0.161183 0
  endloop
 endfacet
 facet normal -0.999762 0.0218146 0
  outer loop
   vertex -0.125 0.161183 0.5
   vertex -0.124881 0.166635 0.5
   vertex -0.125 0.161183 0
  endloop
 endfacet
 facet normal 0 -0 1
  outer loop
   vertex 0.124524 0.150288 0.5
   vertex 0.124881 0.15573 0.5
   vertex 0 0.161183 0.5
  endloop
 endfacet
 facet normal 0 -0 1
  outer loop
   vertex 0.124881 0.15573 0.5
   vertex 0.125 0.161183 0.5
   vertex 0 0.161183 0.5
  endloop
 endfacet
 facet normal 0 0 1
  outer loop
   vertex 0 0.161183 0.5
   vertex 0.125 0.161183 0.5
   vertex 0.124881 0.166635 0.5
  endloop
 endfacet
 facet normal 0 -0 1
  outer loop
   vertex 0.122037 0.134128 0.5
   vertex 0.123101 0.139477 0.5
   vertex 0 0.161183 0.5
  endloop
 endfacet
 facet normal 0 -0 1
  outer loop
   vertex 0.123101 0.139477 0.5
   vertex 0.123931 0.144867 0.5
   vertex 0 0.161183 0.5
  endloop
 endfacet
 facet normal 0 0 1
  outer loop
   vertex 0 0.161183 0.5
   vertex 0.123931 0.144867 0.5
   vertex 0.124524 0.150288 0.5
  endloop
 endfacet
 facet normal 0 -0 1
  outer loop
   vertex 0.117462 0.11843 0.5
   vertex 0.119215 0.123594 0.5
   vertex 0 0.161183 0.5
  endloop
 endfacet
 facet normal 0 -0 1
  outer loop
   vertex 0.119215 0.123594 0.5
   vertex 0.120741 0.12883 0.5
   vertex 0 0.161183 0.5
  endloop
 endfacet
 facet normal 0 0 1
  outer loop
   vertex 0 0.161183 0.5
   vertex 0.120741 0.12883 0.5
   vertex 0.122037 0.134128 0.5
  endloop
 endfacet
 facet normal 0 -0 1
  outer loop
   vertex 0.110876 0.103464 0.5
   vertex 0.113288 0.108355 0.5
   vertex 0 0.161183 0.5
  endloop
 endfacet
 facet normal 0 -0 1
  outer loop
   vertex 0.113288 0.108355 0.5
   vertex 0.115485 0.113347 0.5
   vertex 0 0.161183 0.5
  endloop
 endfacet
 facet normal 0 0 1
  outer loop
   vertex 0 0.161183 0.5
   vertex 0.115485 0.113347 0.5
   vertex 0.117462 0.11843 0.5
  endloop
 endfacet
 facet normal 0 -0 1
  outer loop
   vertex 0.102394 0.0894856 0.5
   vertex 0.105424 0.0940202 0.5
   vertex 0 0.161183 0.5
  endloop
 endfacet
 facet normal 0 -0 1
  outer loop
   vertex 0.105424 0.0940202 0.5
   vertex 0.108253 0.0986827 0.5
   vertex 0 0.161183 0.5
  endloop
 endfacet
 facet normal 0 0 1
  outer loop
   vertex 0 0.161183 0.5
   vertex 0.108253 0.0986827 0.5
   vertex 0.110876 0.103464 0.5
  endloop
 endfacet
 facet normal 0 -0 1
  outer loop
   vertex 0.0921597 0.0767339 0.5
   vertex 0.0957556 0.0808342 0.5
   vertex 0 0.161183 0.5
  endloop
 endfacet
 facet normal 0 -0 1
  outer loop
   vertex 0.0957556 0.0808342 0.5
   vertex 0.0991692 0.0850875 0.5
   vertex 0 0.161183 0.5
  endloop
 endfacet
 facet normal 0 0 1
  outer loop
   vertex 0 0.161183 0.5
   vertex 0.0991692 0.0850875 0.5
   vertex 0.102394 0.0894856 0.5
  endloop
 endfacet
 facet normal 0 -0 1
  outer loop
   vertex 0.0803485 0.0654271 0.5
   vertex 0.0844488 0.069023 0.5
   vertex 0 0.161183 0.5
  endloop
 endfacet
 facet normal 0 -0 1
  outer loop
   vertex 0.0844488 0.069023 0.5
   vertex 0.0883883 0.0727943 0.5
   vertex 0 0.161183 0.5
  endloop
 endfacet
 facet normal 0 0 1
  outer loop
   vertex 0 0.161183 0.5
   vertex 0.0883883 0.0727943 0.5
   vertex 0.0921597 0.0767339 0.5
  endloop
 endfacet
 facet normal 0 -0 1
  outer loop
   vertex 0.0671625 0.0557587 0.5
   vertex 0.0716971 0.0587887 0.5
   vertex 0 0.161183 0.5
  endloop
 endfacet
 facet normal 0 -0 1
  outer loop
   vertex 0.0716971 0.0587887 0.5
   vertex 0.0760952 0.0620135 0.5
   vertex 0 0.161183 0.5
  endloop
 endfacet
 facet normal 0 0 1
  outer loop
   vertex 0 0.161183 0.5
   vertex 0.0760952 0.0620135 0.5
   vertex 0.0803485 0.0654271 0.5
  endloop
 endfacet
 facet normal 0 -0 1
  outer loop
   vertex 0.0528273 0.0478942 0.5
   vertex 0.0577186 0.0503063 0.5
   vertex 0 0.161183 0.5
  endloop
 endfacet
 facet normal 0 -0 1
  outer loop
   vertex 0.0577186 0.0503063 0.5
   vertex 0.0625 0.0529295 0.5
   vertex 0 0.161183 0.5
  endloop
 endfacet
 facet normal 0 0 1
  outer loop
   vertex 0 0.161183 0.5
   vertex 0.0625 0.0529295 0.5
   vertex 0.0671625 0.0557587 0.5
  endloop
 endfacet
 facet normal 0 -0 1
  outer loop
   vertex 0.0375882 0.041968 0.5
   vertex 0.0427525 0.0437211 0.5
   vertex 0 0.161183 0.5
  endloop
 endfacet
 facet normal 0 -0 1
  outer loop
   vertex 0.0427525 0.0437211 0.5
   vertex 0.0478354 0.0456977 0.5
   vertex 0 0.161183 0.5
  endloop
 endfacet
 facet normal 0 0 1
  outer loop
   vertex 0 0.161183 0.5
   vertex 0.0478354 0.0456977 0.5
   vertex 0.0528273 0.0478942 0.5
  endloop
 endfacet
 facet normal 0 -0 1
  outer loop
   vertex 0.021706 0.0380817 0.5
   vertex 0.027055 0.0391457 0.5
   vertex 0 0.161183 0.5
  endloop
 endfacet
 facet normal 0 -0 1
  outer loop
   vertex 0.027055 0.0391457 0.5
   vertex 0.0323524 0.0404419 0.5
   vertex 0 0.161183 0.5
  endloop
 endfacet
 facet normal 0 0 1
  outer loop
   vertex 0 0.161183 0.5
   vertex 0.0323524 0.0404419 0.5
   vertex 0.0375882 0.041968 0.5
  endloop
 endfacet
 facet normal 0 -0 1
  outer loop
   vertex 0.00545242 0.0363016 0.5
   vertex 0.0108945 0.0366583 0.5
   vertex 0 0.161183 0.5
  endloop
 endfacet
 facet normal 0 -0 1
  outer loop
   vertex 0.0108945 0.0366583 0.5
   vertex 0.0163158 0.037252 0.5
   vertex 0 0.161183 0.5
  endloop
 endfacet
 facet normal 0 0 1
  outer loop
   vertex 0 0.161183 0.5
   vertex 0.0163158 0.037252 0.5
   vertex 0.021706 0.0380817 0.5
  endloop
 endfacet
 facet normal -0 0 1
  outer loop
   vertex -0.0108945 0.0366583 0.5
   vertex -0.00545242 0.0363016 0.5
   vertex 0 0.161183 0.5
  endloop
 endfacet
 facet normal -0 0 1
  outer loop
   vertex -0.00545242 0.0363016 0.5
   vertex 2.29621e-17 0.0361827 0.5
   vertex 0 0.161183 0.5
  endloop
 endfacet
 facet normal 0 0 1
  outer loop
   vertex 0 0.161183 0.5
   vertex 2.29621e-17 0.0361827 0.5
   vertex 0.00545242 0.0363016 0.5
  endloop
 endfacet
 facet normal -0 0 1
  outer loop
   vertex -0.027055 0.0391457 0.5
   vertex -0.021706 0.0380817 0.5
   vertex 0 0.161183 0.5
  endloop
 endfacet
 facet normal -0 0 1
  outer loop
   vertex -0.021706 0.0380817 0.5
   vertex -0.0163158 0.037252 0.5
   vertex 0 0.161183 0.5
  endloop
 endfacet
 facet normal 0 0 1
  outer loop
   vertex 0 0.161183 0.5
   vertex -0.0163158 0.037252 0.5
   vertex -0.0108945 0.0366583 0.5
  endloop
 endfacet
 facet normal -0 0 1
  outer loop
   vertex -0.0427525 0.0437211 0.5
   vertex -0.0375882 0.041968 0.5
   vertex 0 0.161183 0.5
  endloop
 endfacet
 facet normal -0 0 1
  outer loop
   vertex -0.0375882 0.041968 0.5
   vertex -0.0323524 0.0404419 0.5
   vertex 0 0.161183 0.5
  endloop
 endfacet
 facet normal 0 0 1
  outer loop
   vertex 0 0.161183 0.5
   vertex -0.0323524 0.0404419 0.5
   vertex -0.027055 0.0391457 0.5
  endloop
 endfacet
 facet normal -0 0 1
  outer loop
   vertex -0.0577186 0.0503063 0.5
   vertex -0.0528273 0.0478942 0.5
   vertex 0 0.161183 0.5
  endloop
 endfacet
 facet normal -0 0 1
  outer loop
   vertex -0.0528273 0.0478942 0.5
   vertex -0.0478354 0.0456977 0.5
   vertex 0 0.161183 0.5
  endloop
 endfacet
 facet normal 0 0 1
  outer loop
   vertex 0 0.161183 0.5
   vertex -0.0478354 0.0456977 0.5
   vertex -0.0427525 0.0437211 0.5
  endloop
 endfacet
 facet normal -0 0 1
  outer loop
   vertex -0.0716971 0.0587887 0.5
   vertex -0.0671625 0.0557587 0.5
   vertex 0 0.161183 0.5
  endloop
 endfacet
 facet normal -0 0 1
  outer loop
   vertex -0.0671625 0.0557587 0.5
   vertex -0.0625 0.0529295 0.5
   vertex 0 0.161183 0.5
  endloop
 endfacet
 facet normal 0 0 1
  outer loop
   vertex 0 0.161183 0.5
   vertex -0.0625 0.0529295 0.5
   vertex -0.0577186 0.0503063 0.5
  endloop
 endfacet
 facet normal -0 0 1
  outer loop
   vertex -0.0844488 0.069023 0.5
   vertex -0.0803485 0.0654271 0.5
   vertex 0 0.161183 0.5
  endloop
 endfacet
 facet normal -0 0 1
  outer loop
   vertex -0.0803485 0.0654271 0.5
   vertex -0.0760952 0.0620135 0.5
   vertex 0 0.161183 0.5
  endloop
 endfacet
 facet normal 0 0 1
  outer loop
   vertex 0 0.161183 0.5
   vertex -0.0760952 0.0620135 0.5
   vertex -0.0716971 0.0587887 0.5
  endloop
 endfacet
 facet normal -0 0 1
  outer loop
   vertex -0.0957556 0.0808342 0.5
   vertex -0.0921597 0.0767339 0.5
   vertex 0 0.161183 0.5
  endloop
 endfacet
 facet normal -0 0 1
  outer loop
   vertex -0.0921597 0.0767339 0.5
   vertex -0.0883883 0.0727943 0.5
   vertex 0 0.161183 0.5
  endloop
 endfacet
 facet normal 0 0 1
  outer loop
   vertex 0 0.161183 0.5
   vertex -0.0883883 0.0727943 0.5
   vertex -0.0844488 0.069023 0.5
  endloop
 endfacet
 facet normal -0 0 1
  outer loop
   vertex -0.105424 0.0940202 0.5
   vertex -0.102394 0.0894856 0.5
   vertex 0 0.161183 0.5
  endloop
 endfacet
 facet normal -0 0 1
  outer loop
   vertex -0.102394 0.0894856 0.5
   vertex -0.0991692 0.0850875 0.5
   vertex 0 0.161183 0.5
  endloop
 endfacet
 facet normal 0 0 1
  outer loop
   vertex 0 0.161183 0.5
   vertex -0.0991692 0.0850875 0.5
   vertex -0.0957556 0.0808342 0.5
  endloop
 endfacet
 facet normal -0 0 1
  outer loop
   vertex -0.113288 0.108355 0.5
   vertex -0.110876 0.103464 0.5
   vertex 0 0.161183 0.5
  endloop
 endfacet
 facet normal -0 0 1
  outer loop
   vertex -0.110876 0.103464 0.5
   vertex -0.108253 0.0986827 0.5
   vertex 0 0.161183 0.5
  endloop
 endfacet
 facet normal 0 0 1
  outer loop
   vertex 0 0.161183 0.5
   vertex -0.108253 0.0986827 0.5
   vertex -0.105424 0.0940202 0.5
  endloop
 endfacet
 facet normal -0 0 1
  outer loop
   vertex -0.119215 0.123594 0.5
   vertex -0.117462 0.11843 0.5
   vertex 0 0.161183 0.5
  endloop
 endfacet
 facet normal -0 0 1
  outer loop
   vertex -0.117462 0.11843 0.5
   vertex -0.115485 0.113347 0.5
   vertex 0 0.161183 0.5
  endloop
 endfacet
 facet normal 0 0 1
  outer loop
   vertex 0 0.161183 0.5
   vertex -0.115485 0.113347 0.5
   vertex -0.113288 0.108355 0.5
  endloop
 endfacet
 facet normal -0 0 1
  outer loop
   vertex -0.123101 0.139477 0.5
   vertex -0.122037 0.134128 0.5
   vertex 0 0.161183 0.5
  endloop
 endfacet
 facet normal -0 0 1
  outer loop
   vertex -0.122037 0.134128 0.5
   vertex -0.120741 0.12883 0.5
   vertex 0 0.161183 0.5
  endloop
 endfacet
 facet normal 0 0 1
  outer loop
   vertex 0 0.161183 0.5
   vertex -0.120741 0.12883 0.5
   vertex -0.119215 0.123594 0.5
  endloop
 endfacet
 facet normal -0 0 1
  outer loop
   vertex -0.124881 0.15573 0.5
   vertex -0.124524 0.150288 0.5
   vertex 0 0.161183 0.5
  endloop
 endfacet
 facet normal -0 0 1
  outer loop
   vertex -0.124524 0.150288 0.5
   vertex -0.123931 0.144867 0.5
   vertex 0 0.161183 0.5
  endloop
 endfacet
 facet normal 0 0 1
  outer loop
   vertex 0 0.161183 0.5
   vertex -0.123931 0.144867 0.5
   vertex -0.123101 0.139477 0.5
  endloop
 endfacet
 facet normal 0 0 1
  outer loop
   vertex -0.124524 0.172077 0.5
   vertex -0.124881 0.166635 0.5
   vertex 0 0.161183 0.5
  endloop
 endfacet
 facet normal 0 0 1
  outer loop
   vertex -0.124881 0.166635 0.5
   vertex -0.125 0.161183 0.5
   vertex 0 0.161183 0.5
  endloop
 endfacet
 facet normal 0 0 1
  outer loop
   vertex 0 0.161183 0.5
   vertex -0.125 0.161183 0.5
   vertex -0.124881 0.15573 0.5
  endloop
 endfacet
 facet normal 0 0 1
  outer loop
   vertex -0.122037 0.188238 0.5
   vertex -0.123101 0.182889 0.5
   vertex 0 0.161183 0.5
  endloop
 endfacet
 facet normal 0 0 1
  outer loop
   vertex -0.123101 0.182889 0.5
   vertex -0.123931 0.177498 0.5
   vertex 0 0.161183 0.5
  endloop
 endfacet
 facet normal 0 0 1
  outer loop
   vertex 0 0.161183 0.5
   vertex -0.123931 0.177498 0.5
   vertex -0.124524 0.172077 0.5
  endloop
 endfacet
 facet normal 0 0 1
  outer loop
   vertex -0.117462 0.203935 0.5
   vertex -0.119215 0.198771 0.5
   vertex 0 0.161183 0.5
  endloop
 endfacet
 facet normal 0 0 1
  outer loop
   vertex -0.119215 0.198771 0.5
   vertex -0.120741 0.193535 0.5
   vertex 0 0.161183 0.5
  endloop
 endfacet
 facet normal 0 0 1
  outer loop
   vertex 0 0.161183 0.5
   vertex -0.120741 0.193535 0.5
   vertex -0.122037 0.188238 0.5
  endloop
 endfacet
 facet normal 0 0 1
  outer loop
   vertex -0.110876 0.218901 0.5
   vertex -0.113288 0.21401 0.5
   vertex 0 0.161183 0.5
  endloop
 endfacet
 facet normal 0 0 1
  outer loop
   vertex -0.113288 0.21401 0.5
   vertex -0.115485 0.209018 0.5
   vertex 0 0.161183 0.5
  endloop
 endfacet
 facet normal 0 0 1
  outer loop
   vertex 0 0.161183 0.5
   vertex -0.115485 0.209018 0.5
   vertex -0.117462 0.203935 0.5
  endloop
 endfacet
 facet normal 0 0 1
  outer loop
   vertex -0.102394 0.23288 0.5
   vertex -0.105424 0.228345 0.5
   vertex 0 0.161183 0.5
  endloop
 endfacet
 facet normal 0 0 1
  outer loop
   vertex -0.105424 0.228345 0.5
   vertex -0.108253 0.223683 0.5
   vertex 0 0.161183 0.5
  endloop
 endfacet
 facet normal 0 0 1
  outer loop
   vertex 0 0.161183 0.5
   vertex -0.108253 0.223683 0.5
   vertex -0.110876 0.218901 0.5
  endloop
 endfacet
 facet normal 0 0 1
  outer loop
   vertex -0.0921597 0.245631 0.5
   vertex -0.0957556 0.241531 0.5
   vertex 0 0.161183 0.5
  endloop
 endfacet
 facet normal 0 0 1
  outer loop
   vertex -0.0957556 0.241531 0.5
   vertex -0.0991692 0.237278 0.5
   vertex 0 0.161183 0.5
  endloop
 endfacet
 facet normal 0 0 1
  outer loop
   vertex 0 0.161183 0.5
   vertex -0.0991692 0.237278 0.5
   vertex -0.102394 0.23288 0.5
  endloop
 endfacet
 facet normal 0 0 1
  outer loop
   vertex -0.0803485 0.256938 0.5
   vertex -0.0844488 0.253342 0.5
   vertex 0 0.161183 0.5
  endloop
 endfacet
 facet normal 0 0 1
  outer loop
   vertex -0.0844488 0.253342 0.5
   vertex -0.0883883 0.249571 0.5
   vertex 0 0.161183 0.5
  endloop
 endfacet
 facet normal 0 0 1
  outer loop
   vertex 0 0.161183 0.5
   vertex -0.0883883 0.249571 0.5
   vertex -0.0921597 0.245631 0.5
  endloop
 endfacet
 facet normal 0 0 1
  outer loop
   vertex -0.0671625 0.266607 0.5
   vertex -0.0716971 0.263577 0.5
   vertex 0 0.161183 0.5
  endloop
 endfacet
 facet normal 0 0 1
  outer loop
   vertex -0.0716971 0.263577 0.5
   vertex -0.0760952 0.260352 0.5
   vertex 0 0.161183 0.5
  endloop
 endfacet
 facet normal 0 0 1
  outer loop
   vertex 0 0.161183 0.5
   vertex -0.0760952 0.260352 0.5
   vertex -0.0803485 0.256938 0.5
  endloop
 endfacet
 facet normal 0 0 1
  outer loop
   vertex -0.0528273 0.274471 0.5
   vertex -0.0577186 0.272059 0.5
   vertex 0 0.161183 0.5
  endloop
 endfacet
 facet normal 0 0 1
  outer loop
   vertex -0.0577186 0.272059 0.5
   vertex -0.0625 0.269436 0.5
   vertex 0 0.161183 0.5
  endloop
 endfacet
 facet normal 0 0 1
  outer loop
   vertex 0 0.161183 0.5
   vertex -0.0625 0.269436 0.5
   vertex -0.0671625 0.266607 0.5
  endloop
 endfacet
 facet normal 0 0 1
  outer loop
   vertex -0.0375882 0.280397 0.5
   vertex -0.0427525 0.278644 0.5
   vertex 0 0.161183 0.5
  endloop
 endfacet
 facet normal 0 0 1
  outer loop
   vertex -0.0427525 0.278644 0.5
   vertex -0.0478354 0.276668 0.5
   vertex 0 0.161183 0.5
  endloop
 endfacet
 facet normal 0 0 1
  outer loop
   vertex 0 0.161183 0.5
   vertex -0.0478354 0.276668 0.5
   vertex -0.0528273 0.274471 0.5
  endloop
 endfacet
 facet normal 0 0 1
  outer loop
   vertex -0.021706 0.284284 0.5
   vertex -0.027055 0.28322 0.5
   vertex 0 0.161183 0.5
  endloop
 endfacet
 facet normal 0 0 1
  outer loop
   vertex -0.027055 0.28322 0.5
   vertex -0.0323524 0.281923 0.5
   vertex 0 0.161183 0.5
  endloop
 endfacet
 facet normal 0 0 1
  outer loop
   vertex 0 0.161183 0.5
   vertex -0.0323524 0.281923 0.5
   vertex -0.0375882 0.280397 0.5
  endloop
 endfacet
 facet normal 0 0 1
  outer loop
   vertex -0.00545242 0.286064 0.5
   vertex -0.0108945 0.285707 0.5
   vertex 0 0.161183 0.5
  endloop
 endfacet
 facet normal 0 0 1
  outer loop
   vertex -0.0108945 0.285707 0.5
   vertex -0.0163158 0.285113 0.5
   vertex 0 0.161183 0.5
  endloop
 endfacet
 facet normal 0 0 1
  outer loop
   vertex 0 0.161183 0.5
   vertex -0.0163158 0.285113 0.5
   vertex -0.021706 0.284284 0.5
  endloop
 endfacet
 facet normal 0 0 1
  outer loop
   vertex 0.0108945 0.285707 0.5
   vertex 0.00545242 0.286064 0.5
   vertex 0 0.161183 0.5
  endloop
 endfacet
 facet normal 0 0 1
  outer loop
   vertex 0.00545242 0.286064 0.5
   vertex -7.65404e-18 0.286183 0.5
   vertex 0 0.161183 0.5
  endloop
 endfacet
 facet normal 0 0 1
  outer loop
   vertex 0 0.161183 0.5
   vertex -7.65404e-18 0.286183 0.5
   vertex -0.00545242 0.286064 0.5
  endloop
 endfacet
 facet normal 0 0 1
  outer loop
   vertex 0.027055 0.28322 0.5
   vertex 0.021706 0.284284 0.5
   vertex 0 0.161183 0.5
  endloop
 endfacet
 facet normal 0 0 1
  outer loop
   vertex 0.021706 0.284284 0.5
   vertex 0.0163158 0.285113 0.5
   vertex 0 0.161183 0.5
  endloop
 endfacet
 facet normal 0 0 1
  outer loop
   vertex 0 0.161183 0.5
   vertex 0.0163158 0.285113 0.5
   vertex 0.0108945 0.285707 0.5
  endloop
 endfacet
 facet normal 0 0 1
  outer loop
   vertex 0.0427525 0.278644 0.5
   vertex 0.0375882 0.280397 0.5
   vertex 0 0.161183 0.5
  endloop
 endfacet
 facet normal 0 0 1
  outer loop
   vertex 0.0375882 0.280397 0.5
   vertex 0.0323524 0.281923 0.5
   vertex 0 0.161183 0.5
  endloop
 endfacet
 facet normal 0 0 1
  outer loop
   vertex 0 0.161183 0.5
   vertex 0.0323524 0.281923 0.5
   vertex 0.027055 0.28322 0.5
  endloop
 endfacet
 facet normal 0 0 1
  outer loop
   vertex 0.0577186 0.272059 0.5
   vertex 0.0528273 0.274471 0.5
   vertex 0 0.161183 0.5
  endloop
 endfacet
 facet normal 0 0 1
  outer loop
   vertex 0.0528273 0.274471 0.5
   vertex 0.0478354 0.276668 0.5
   vertex 0 0.161183 0.5
  endloop
 endfacet
 facet normal 0 0 1
  outer loop
   vertex 0 0.161183 0.5
   vertex 0.0478354 0.276668 0.5
   vertex 0.0427525 0.278644 0.5
  endloop
 endfacet
 facet normal 0 0 1
  outer loop
   vertex 0.0716971 0.263577 0.5
   vertex 0.0671625 0.266607 0.5
   vertex 0 0.161183 0.5
  endloop
 endfacet
 facet normal 0 0 1
  outer loop
   vertex 0.0671625 0.266607 0.5
   vertex 0.0625 0.269436 0.5
   vertex 0 0.161183 0.5
  endloop
 endfacet
 facet normal 0 0 1
  outer loop
   vertex 0 0.161183 0.5
   vertex 0.0625 0.269436 0.5
   vertex 0.0577186 0.272059 0.5
  endloop
 endfacet
 facet normal 0 0 1
  outer loop
   vertex 0.0844488 0.253342 0.5
   vertex 0.0803485 0.256938 0.5
   vertex 0 0.161183 0.5
  endloop
 endfacet
 facet normal 0 0 1
  outer loop
   vertex 0.0803485 0.256938 0.5
   vertex 0.0760952 0.260352 0.5
   vertex 0 0.161183 0.5
  endloop
 endfacet
 facet normal 0 0 1
  outer loop
   vertex 0 0.161183 0.5
   vertex 0.0760952 0.260352 0.5
   vertex 0.0716971 0.263577 0.5
  endloop
 endfacet
 facet normal 0 0 1
  outer loop
   vertex 0.0957556 0.241531 0.5
   vertex 0.0921597 0.245631 0.5
   vertex 0 0.161183 0.5
  endloop
 endfacet
 facet normal 0 0 1
  outer loop
   vertex 0.0921597 0.245631 0.5
   vertex 0.0883883 0.249571 0.5
   vertex 0 0.161183 0.5
  endloop
 endfacet
 facet normal 0 0 1
  outer loop
   vertex 0 0.161183 0.5
   vertex 0.0883883 0.249571 0.5
   vertex 0.0844488 0.253342 0.5
  endloop
 endfacet
 facet normal 0 0 1
  outer loop
   vertex 0.105424 0.228345 0.5
   vertex 0.102394 0.23288 0.5
   vertex 0 0.161183 0.5
  endloop
 endfacet
 facet normal 0 0 1
  outer loop
   vertex 0.102394 0.23288 0.5
   vertex 0.0991692 0.237278 0.5
   vertex 0 0.161183 0.5
  endloop
 endfacet
 facet normal 0 0 1
  outer loop
   vertex 0 0.161183 0.5
   vertex 0.0991692 0.237278 0.5
   vertex 0.0957556 0.241531 0.5
  endloop
 endfacet
 facet normal 0 0 1
  outer loop
   vertex 0.113288 0.21401 0.5
   vertex 0.110876 0.218901 0.5
   vertex 0 0.161183 0.5
  endloop
 endfacet
 facet normal 0 0 1
  outer loop
   vertex 0.110876 0.218901 0.5
   vertex 0.108253 0.223683 0.5
   vertex 0 0.161183 0.5
  endloop
 endfacet
 facet normal 0 0 1
  outer loop
   vertex 0 0.161183 0.5
   vertex 0.108253 0.223683 0.5
   vertex 0.105424 0.228345 0.5
  endloop
 endfacet
 facet normal 0 0 1
  outer loop
   vertex 0.119215 0.198771 0.5
   vertex 0.117462 0.203935 0.5
   vertex 0 0.161183 0.5
  endloop
 endfacet
 facet normal 0 0 1
  outer loop
   vertex 0.117462 0.203935 0.5
   vertex 0.115485 0.209018 0.5
   vertex 0 0.161183 0.5
  endloop
 endfacet
 facet normal 0 0 1
  outer loop
   vertex 0 0.161183 0.5
   vertex 0.115485 0.209018 0.5
   vertex 0.113288 0.21401 0.5
  endloop
 endfacet
 facet normal 0 0 1
  outer loop
   vertex 0.123101 0.182889 0.5
   vertex 0.122037 0.188238 0.5
   vertex 0 0.161183 0.5
  endloop
 endfacet
 facet normal 0 0 1
  outer loop
   vertex 0.122037 0.188238 0.5
   vertex 0.120741 0.193535 0.5
   vertex 0 0.161183 0.5
  endloop
 endfacet
 facet normal 0 0 1
  outer loop
   vertex 0 0.161183 0.5
   vertex 0.120741 0.193535 0.5
   vertex 0.119215 0.198771 0.5
  endloop
 endfacet
 facet normal 0 0 1
  outer loop
   vertex 0.124881 0.166635 0.5
   vertex 0.124524 0.172077 0.5
   vertex 0 0.161183 0.5
  endloop
 endfacet
 facet normal 0 0 1
  outer loop
   vertex 0.124524 0.172077 0.5
   vertex 0.123931 0.177498 0.5
   vertex 0 0.161183 0.5
  endloop
 endfacet
 facet normal 0 0 1
  outer loop
   vertex 0 0.161183 0.5
   vertex 0.123931 0.177498 0.5
   vertex 0.123101 0.182889 0.5
  endloop
 endfacet
endsolid zone0
