solid zone0
 facet normal 0 -0 -1
  outer loop
   vertex 0.124524 0.180635 0
   vertex 0.124881 0.175193 0
   vertex 0 0.16974 0
  endloop
 endfacet
 facet normal 0 -0 -1
  outer loop
   vertex 0.124881 0.175193 0
   vertex 0.125 0.16974 0
   vertex 0 0.16974 0
  endloop
 endfacet
 facet normal 0 0 -1
  outer loop
   vertex 0 0.16974 0
   vertex 0.125 0.16974 0
   vertex 0.124881 0.164288 0
  endloop
 endfacet
 facet normal 0 -0 -1
  outer loop
   vertex 0.122037 0.196795 0
   vertex 0.123101 0.191446 0
   vertex 0 0.16974 0
  endloop
 endfacet
 facet normal 0 -0 -1
  outer loop
   vertex 0.123101 0.191446 0
   vertex 0.123931 0.186056 0
   vertex 0 0.16974 0
  endloop
 endfacet
 facet normal 0 0 -1
  outer loop
   vertex 0 0.16974 0
   vertex 0.123931 0.186056 0
   vertex 0.124524 0.180635 0
  endloop
 endfacet
 facet normal 0 -0 -1
  outer loop
   vertex 0.117462 0.212493 0
   vertex 0.119215 0.207329 0
   vertex 0 0.16974 0
  endloop
 endfacet
 facet normal 0 -0 -1
  outer loop
   vertex 0.119215 0.207329 0
   vertex 0.120741 0.202093 0
   vertex 0 0.16974 0
  endloop
 endfacet
 facet normal 0 0 -1
  outer loop
   vertex 0 0.16974 0
   vertex 0.120741 0.202093 0
   vertex 0.122037 0.196795 0
  endloop
 endfacet
 facet normal 0 -0 -1
  outer loop
   vertex 0.110876 0.227459 0
   vertex 0.113288 0.222568 0
   vertex 0 0.16974 0
  endloop
 endfacet
 facet normal 0 -0 -1
  outer loop
   vertex 0.113288 0.222568 0
   vertex 0.115485 0.217576 0
   vertex 0 0.16974 0
  endloop
 endfacet
 facet normal 0 0 -1
  outer loop
   vertex 0 0.16974 0
   vertex 0.115485 0.217576 0
   vertex 0.117462 0.212493 0
  endloop
 endfacet
 facet normal 0 -0 -1
  outer loop
   vertex 0.102394 0.241437 0
   vertex 0.105424 0.236903 0
   vertex 0 0.16974 0
  endloop
 endfacet
 facet normal 0 -0 -1
  outer loop
   vertex 0.105424 0.236903 0
   vertex 0.108253 0.23224 0
   vertex 0 0.16974 0
  endloop
 endfacet
 facet normal 0 0 -1
  outer loop
   vertex 0 0.16974 0
   vertex 0.108253 0.23224 0
   vertex 0.110876 0.227459 0
  endloop
 endfacet
 facet normal 0 -0 -1
  outer loop
   vertex 0.0921597 0.254189 0
   vertex 0.0957556 0.250089 0
   vertex 0 0.16974 0
  endloop
 endfacet
 facet normal 0 -0 -1
  outer loop
   vertex 0.0957556 0.250089 0
   vertex 0.0991692 0.245836 0
   vertex 0 0.16974 0
  endloop
 endfacet
 facet normal 0 0 -1
  outer loop
   vertex 0 0.16974 0
   vertex 0.0991692 0.245836 0
   vertex 0.102394 0.241437 0
  endloop
 endfacet
 facet normal 0 -0 -1
  outer loop
   vertex 0.0803485 0.265496 0
   vertex 0.0844488 0.2619 0
   vertex 0 0.16974 0
  endloop
 endfacet
 facet normal 0 -0 -1
  outer loop
   vertex 0.0844488 0.2619 0
   vertex 0.0883883 0.258129 0
   vertex 0 0.16974 0
  endloop
 endfacet
 facet normal 0 0 -1
  outer loop
   vertex 0 0.16974 0
   vertex 0.0883883 0.258129 0
   vertex 0.0921597 0.254189 0
  endloop
 endfacet
 facet normal 0 -0 -1
  outer loop
   vertex 0.0671625 0.275164 0
   vertex 0.0716971 0.272134 0
   vertex 0 0.16974 0
  endloop
 endfacet
 facet normal 0 -0 -1
  outer loop
   vertex 0.0716971 0.272134 0
   vertex 0.0760952 0.26891 0
   vertex 0 0.16974 0
  endloop
 endfacet
 facet normal 0 0 -1
  outer loop
   vertex 0 0.16974 0
   vertex 0.0760952 0.26891 0
   vertex 0.0803485 0.265496 0
  endloop
 endfacet
 facet normal 0 -0 -1
  outer loop
   vertex 0.0528273 0.283029 0
   vertex 0.0577186 0.280617 0
   vertex 0 0.16974 0
  endloop
 endfacet
 facet normal 0 -0 -1
  outer loop
   vertex 0.0577186 0.280617 0
   vertex 0.0625 0.277994 0
   vertex 0 0.16974 0
  endloop
 endfacet
 facet normal 0 0 -1
  outer loop
   vertex 0 0.16974 0
   vertex 0.0625 0.277994 0
   vertex 0.0671625 0.275164 0
  endloop
 endfacet
 facet normal 0 -0 -1
  outer loop
   vertex 0.0375882 0.288955 0
   vertex 0.0427525 0.287202 0
   vertex 0 0.16974 0
  endloop
 endfacet
 facet normal 0 -0 -1
  outer loop
   vertex 0.0427525 0.287202 0
   vertex 0.0478354 0.285225 0
   vertex 0 0.16974 0
  endloop
 endfacet
 facet normal 0 0 -1
  outer loop
   vertex 0 0.16974 0
   vertex 0.0478354 0.285225 0
   vertex 0.0528273 0.283029 0
  endloop
 endfacet
 facet normal 0 -0 -1
  outer loop
   vertex 0.021706 0.292841 0
   vertex 0.027055 0.291777 0
   vertex 0 0.16974 0
  endloop
 endfacet
 facet normal 0 -0 -1
  outer loop
   vertex 0.027055 0.291777 0
   vertex 0.0323524 0.290481 0
   vertex 0 0.16974 0
  endloop
 endfacet
 facet normal 0 0 -1
  outer loop
   vertex 0 0.16974 0
   vertex 0.0323524 0.290481 0
   vertex 0.0375882 0.288955 0
  endloop
 endfacet
 facet normal 0 -0 -1
  outer loop
   vertex 0.00545242 0.294621 0
   vertex 0.0108945 0.294265 0
   vertex 0 0.16974 0
  endloop
 endfacet
 facet normal 0 -0 -1
  outer loop
   vertex 0.0108945 0.294265 0
   vertex 0.0163158 0.293671 0
   vertex 0 0.16974 0
  endloop
 endfacet
 facet normal 0 0 -1
  outer loop
   vertex 0 0.16974 0
   vertex 0.0163158 0.293671 0
   vertex 0.021706 0.292841 0
  endloop
 endfacet
 facet normal 0 0 -1
  outer loop
   vertex -0.0108945 0.294265 0
   vertex -0.00545242 0.294621 0
   vertex 0 0.16974 0
  endloop
 endfacet
 facet normal 0 0 -1
  outer loop
   vertex -0.00545242 0.294621 0
   vertex -7.65404e-18 0.29474 0
   vertex 0 0.16974 0
  endloop
 endfacet
 facet normal 0 0 -1
  outer loop
   vertex 0 0.16974 0
   vertex -7.65404e-18 0.29474 0
   vertex 0.00545242 0.294621 0
  endloop
 endfacet
 facet normal 0 0 -1
  outer loop
   vertex -0.027055 0.291777 0
   vertex -0.021706 0.292841 0
   vertex 0 0.16974 0
  endloop
 endfacet
 facet normal 0 0 -1
  outer loop
   vertex -0.021706 0.292841 0
   vertex -0.0163158 0.293671 0
   vertex 0 0.16974 0
  endloop
 endfacet
 facet normal 0 0 -1
  outer loop
   vertex 0 0.16974 0
   vertex -0.0163158 0.293671 0
   vertex -0.0108945 0.294265 0
  endloop
 endfacet
 facet normal 0 0 -1
  outer loop
   vertex -0.0427525 0.287202 0
   vertex -0.0375882 0.288955 0
   vertex 0 0.16974 0
  endloop
 endfacet
 facet normal 0 0 -1
  outer loop
   vertex -0.0375882 0.288955 0
   vertex -0.0323524 0.290481 0
   vertex 0 0.16974 0
  endloop
 endfacet
 facet normal 0 0 -1
  outer loop
   vertex 0 0.16974 0
   vertex -0.0323524 0.290481 0
   vertex -0.027055 0.291777 0
  endloop
 endfacet
 facet normal 0 0 -1
  outer loop
   vertex -0.0577186 0.280617 0
   vertex -0.0528273 0.283029 0
   vertex 0 0.16974 0
  endloop
 endfacet
 facet normal 0 0 -1
  outer loop
   vertex -0.0528273 0.283029 0
   vertex -0.0478354 0.285225 0
   vertex 0 0.16974 0
  endloop
 endfacet
 facet normal 0 0 -1
  outer loop
   vertex 0 0.16974 0
   vertex -0.0478354 0.285225 0
   vertex -0.0427525 0.287202 0
  endloop
 endfacet
 facet normal 0 0 -1
  outer loop
   vertex -0.0716971 0.272134 0
   vertex -0.0671625 0.275164 0
   vertex 0 0.16974 0
  endloop
 endfacet
 facet normal 0 0 -1
  outer loop
   vertex -0.0671625 0.275164 0
   vertex -0.0625 0.277994 0
   vertex 0 0.16974 0
  endloop
 endfacet
 facet normal 0 0 -1
  outer loop
   vertex 0 0.16974 0
   vertex -0.0625 0.277994 0
   vertex -0.0577186 0.280617 0
  endloop
 endfacet
 facet normal 0 0 -1
  outer loop
   vertex -0.0844488 0.2619 0
   vertex -0.0803485 0.265496 0
   vertex 0 0.16974 0
  endloop
 endfacet
 facet normal 0 0 -1
  outer loop
   vertex -0.0803485 0.265496 0
   vertex -0.0760952 0.26891 0
   vertex 0 0.16974 0
  endloop
 endfacet
 facet normal 0 0 -1
  outer loop
   vertex 0 0.16974 0
   vertex -0.0760952 0.26891 0
   vertex -0.0716971 0.272134 0
  endloop
 endfacet
 facet normal 0 0 -1
  outer loop
   vertex -0.0957556 0.250089 0
   vertex -0.0921597 0.254189 0
   vertex 0 0.16974 0
  endloop
 endfacet
 facet normal 0 0 -1
  outer loop
   vertex -0.0921597 0.254189 0
   vertex -0.0883883 0.258129 0
   vertex 0 0.16974 0
  endloop
 endfacet
 facet normal 0 0 -1
  outer loop
   vertex 0 0.16974 0
   vertex -0.0883883 0.258129 0
   vertex -0.0844488 0.2619 0
  endloop
 endfacet
 facet normal 0 0 -1
  outer loop
   vertex -0.105424 0.236903 0
   vertex -0.102394 0.241437 0
   vertex 0 0.16974 0
  endloop
 endfacet
 facet normal 0 0 -1
  outer loop
   vertex -0.102394 0.241437 0
   vertex -0.0991692 0.245836 0
   vertex 0 0.16974 0
  endloop
 endfacet
 facet normal 0 0 -1
  outer loop
   vertex 0 0.16974 0
   vertex -0.0991692 0.245836 0
   vertex -0.0957556 0.250089 0
  endloop
 endfacet
 facet normal 0 0 -1
  outer loop
   vertex -0.113288 0.222568 0
   vertex -0.110876 0.227459 0
   vertex 0 0.16974 0
  endloop
 endfacet
 facet normal 0 0 -1
  outer loop
   vertex -0.110876 0.227459 0
   vertex -0.108253 0.23224 0
   vertex 0 0.16974 0
  endloop
 endfacet
 facet normal 0 0 -1
  outer loop
   vertex 0 0.16974 0
   vertex -0.108253 0.23224 0
   vertex -0.105424 0.236903 0
  endloop
 endfacet
 facet normal 0 0 -1
  outer loop
   vertex -0.119215 0.207329 0
   vertex -0.117462 0.212493 0
   vertex 0 0.16974 0
  endloop
 endfacet
 facet normal 0 0 -1
  outer loop
   vertex -0.117462 0.212493 0
   vertex -0.115485 0.217576 0
   vertex 0 0.16974 0
  endloop
 endfacet
 facet normal 0 0 -1
  outer loop
   vertex 0 0.16974 0
   vertex -0.115485 0.217576 0
   vertex -0.113288 0.222568 0
  endloop
 endfacet
 facet normal 0 0 -1
  outer loop
   vertex -0.123101 0.191446 0
   vertex -0.122037 0.196795 0
   vertex 0 0.16974 0
  endloop
 endfacet
 facet normal 0 0 -1
  outer loop
   vertex -0.122037 0.196795 0
   vertex -0.120741 0.202093 0
   vertex 0 0.16974 0
  endloop
 endfacet
 facet normal 0 0 -1
  outer loop
   vertex 0 0.16974 0
   vertex -0.120741 0.202093 0
   vertex -0.119215 0.207329 0
  endloop
 endfacet
 facet normal 0 0 -1
  outer loop
   vertex -0.124881 0.175193 0
   vertex -0.124524 0.180635 0
   vertex 0 0.16974 0
  endloop
 endfacet
 facet normal 0 0 -1
  outer loop
   vertex -0.124524 0.180635 0
   vertex -0.123931 0.186056 0
   vertex 0 0.16974 0
  endloop
 endfacet
 facet normal 0 0 -1
  outer loop
   vertex 0 0.16974 0
   vertex -0.123931 0.186056 0
   vertex -0.123101 0.191446 0
  endloop
 endfacet
 facet normal 0 0 -1
  outer loop
   vertex -0.124524 0.158846 0
   vertex -0.124881 0.164288 0
   vertex 0 0.16974 0
  endloop
 endfacet
 facet normal 0 0 -1
  outer loop
   vertex -0.124881 0.164288 0
   vertex -0.125 0.16974 0
   vertex 0 0.16974 0
  endloop
 endfacet
 facet normal 0 0 -1
  outer loop
   vertex 0 0.16974 0
   vertex -0.125 0.16974 0
   vertex -0.124881 0.175193 0
  endloop
 endfacet
 facet normal 0 0 -1
  outer loop
   vertex -0.122037 0.142685 0
   vertex -0.123101 0.148034 0
   vertex 0 0.16974 0
  endloop
 endfacet
 facet normal 0 0 -1
  outer loop
   vertex -0.123101 0.148034 0
   vertex -0.123931 0.153425 0
   vertex 0 0.16974 0
  endloop
 endfacet
 facet normal 0 0 -1
  outer loop
   vertex 0 0.16974 0
   vertex -0.123931 0.153425 0
   vertex -0.124524 0.158846 0
  endloop
 endfacet
 facet normal 0 0 -1
  outer loop
   vertex -0.117462 0.126988 0
   vertex -0.119215 0.132152 0
   vertex 0 0.16974 0
  endloop
 endfacet
 facet normal 0 0 -1
  outer loop
   vertex -0.119215 0.132152 0
   vertex -0.120741 0.137388 0
   vertex 0 0.16974 0
  endloop
 endfacet
 facet normal 0 0 -1
  outer loop
   vertex 0 0.16974 0
   vertex -0.120741 0.137388 0
   vertex -0.122037 0.142685 0
  endloop
 endfacet
 facet normal 0 0 -1
  outer loop
   vertex -0.110876 0.112022 0
   vertex -0.113288 0.116913 0
   vertex 0 0.16974 0
  endloop
 endfacet
 facet normal 0 0 -1
  outer loop
   vertex -0.113288 0.116913 0
   vertex -0.115485 0.121905 0
   vertex 0 0.16974 0
  endloop
 endfacet
 facet normal 0 0 -1
  outer loop
   vertex 0 0.16974 0
   vertex -0.115485 0.121905 0
   vertex -0.117462 0.126988 0
  endloop
 endfacet
 facet normal 0 0 -1
  outer loop
   vertex -0.102394 0.0980433 0
   vertex -0.105424 0.102578 0
   vertex 0 0.16974 0
  endloop
 endfacet
 facet normal 0 0 -1
  outer loop
   vertex -0.105424 0.102578 0
   vertex -0.108253 0.10724 0
   vertex 0 0.16974 0
  endloop
 endfacet
 facet normal 0 0 -1
  outer loop
   vertex 0 0.16974 0
   vertex -0.108253 0.10724 0
   vertex -0.110876 0.112022 0
  endloop
 endfacet
 facet normal 0 0 -1
  outer loop
   vertex -0.0921597 0.0852916 0
   vertex -0.0957556 0.0893919 0
   vertex 0 0.16974 0
  endloop
 endfacet
 facet normal 0 0 -1
  outer loop
   vertex -0.0957556 0.0893919 0
   vertex -0.0991692 0.0936452 0
   vertex 0 0.16974 0
  endloop
 endfacet
 facet normal 0 0 -1
  outer loop
   vertex 0 0.16974 0
   vertex -0.0991692 0.0936452 0
   vertex -0.102394 0.0980433 0
  endloop
 endfacet
 facet normal 0 0 -1
  outer loop
   vertex -0.0803485 0.0739848 0
   vertex -0.0844488 0.0775807 0
   vertex 0 0.16974 0
  endloop
 endfacet
 facet normal 0 0 -1
  outer loop
   vertex -0.0844488 0.0775807 0
   vertex -0.0883883 0.0813521 0
   vertex 0 0.16974 0
  endloop
 endfacet
 facet normal 0 0 -1
  outer loop
   vertex 0 0.16974 0
   vertex -0.0883883 0.0813521 0
   vertex -0.0921597 0.0852916 0
  endloop
 endfacet
 facet normal 0 0 -1
  outer loop
   vertex -0.0671625 0.0643165 0
   vertex -0.0716971 0.0673464 0
   vertex 0 0.16974 0
  endloop
 endfacet
 facet normal 0 0 -1
  outer loop
   vertex -0.0716971 0.0673464 0
   vertex -0.0760952 0.0705712 0
   vertex 0 0.16974 0
  endloop
 endfacet
 facet normal 0 0 -1
  outer loop
   vertex 0 0.16974 0
   vertex -0.0760952 0.0705712 0
   vertex -0.0803485 0.0739848 0
  endloop
 endfacet
 facet normal 0 0 -1
  outer loop
   vertex -0.0528273 0.0564519 0
   vertex -0.0577186 0.058864 0
   vertex 0 0.16974 0
  endloop
 endfacet
 facet normal 0 0 -1
  outer loop
   vertex -0.0577186 0.058864 0
   vertex -0.0625 0.0614872 0
   vertex 0 0.16974 0
  endloop
 endfacet
 facet normal 0 0 -1
  outer loop
   vertex 0 0.16974 0
   vertex -0.0625 0.0614872 0
   vertex -0.0671625 0.0643165 0
  endloop
 endfacet
 facet normal 0 0 -1
  outer loop
   vertex -0.0375882 0.0505258 0
   vertex -0.0427525 0.0522788 0
   vertex 0 0.16974 0
  endloop
 endfacet
 facet normal 0 0 -1
  outer loop
   vertex -0.0427525 0.0522788 0
   vertex -0.0478354 0.0542555 0
   vertex 0 0.16974 0
  endloop
 endfacet
 facet normal 0 0 -1
  outer loop
   vertex 0 0.16974 0
   vertex -0.0478354 0.0542555 0
   vertex -0.0528273 0.0564519 0
  endloop
 endfacet
 facet normal 0 0 -1
  outer loop
   vertex -0.021706 0.0466394 0
   vertex -0.027055 0.0477034 0
   vertex 0 0.16974 0
  endloop
 endfacet
 facet normal 0 0 -1
  outer loop
   vertex -0.027055 0.0477034 0
   vertex -0.0323524 0.0489997 0
   vertex 0 0.16974 0
  endloop
 endfacet
 facet normal 0 0 -1
  outer loop
   vertex 0 0.16974 0
   vertex -0.0323524 0.0489997 0
   vertex -0.0375882 0.0505258 0
  endloop
 endfacet
 facet normal 0 0 -1
  outer loop
   vertex -0.00545242 0.0448594 0
   vertex -0.0108945 0.0452161 0
   vertex 0 0.16974 0
  endloop
 endfacet
 facet normal 0 0 -1
  outer loop
   vertex -0.0108945 0.0452161 0
   vertex -0.0163158 0.0458098 0
   vertex 0 0.16974 0
  endloop
 endfacet
 facet normal 0 0 -1
  outer loop
   vertex 0 0.16974 0
   vertex -0.0163158 0.0458098 0
   vertex -0.021706 0.0466394 0
  endloop
 endfacet
 facet normal -0 0 -1
  outer loop
   vertex 0.0108945 0.0452161 0
   vertex 0.00545242 0.0448594 0
   vertex 0 0.16974 0
  endloop
 endfacet
 facet normal -0 0 -1
  outer loop
   vertex 0.00545242 0.0448594 0
   vertex 2.29621e-17 0.0447404 0
   vertex 0 0.16974 0
  endloop
 endfacet
 facet normal 0 -0 -1
  outer loop
   vertex 0 0.16974 0
   vertex 2.29621e-17 0.0447404 0
   vertex -0.00545242 0.0448594 0
  endloop
 endfacet
 facet normal -0 0 -1
  outer loop
   vertex 0.027055 0.0477034 0
   vertex 0.021706 0.0466394 0
   vertex 0 0.16974 0
  endloop
 endfacet
 facet normal -0 0 -1
  outer loop
   vertex 0.021706 0.0466394 0
   vertex 0.0163158 0.0458098 0
   vertex 0 0.16974 0
  endloop
 endfacet
 facet normal 0 0 -1
  outer loop
   vertex 0 0.16974 0
   vertex 0.0163158 0.0458098 0
   vertex 0.0108945 0.0452161 0
  endloop
 endfacet
 facet normal -0 0 -1
  outer loop
   vertex 0.0427525 0.0522788 0
   vertex 0.0375882 0.0505258 0
   vertex 0 0.16974 0
  endloop
 endfacet
 facet normal -0 0 -1
  outer loop
   vertex 0.0375882 0.0505258 0
   vertex 0.0323524 0.0489997 0
   vertex 0 0.16974 0
  endloop
 endfacet
 facet normal 0 0 -1
  outer loop
   vertex 0 0.16974 0
   vertex 0.0323524 0.0489997 0
   vertex 0.027055 0.0477034 0
  endloop
 endfacet
 facet normal -0 0 -1
  outer loop
   vertex 0.0577186 0.058864 0
   vertex 0.0528273 0.0564519 0
   vertex 0 0.16974 0
  endloop
 endfacet
 facet normal -0 0 -1
  outer loop
   vertex 0.0528273 0.0564519 0
   vertex 0.0478354 0.0542555 0
   vertex 0 0.16974 0
  endloop
 endfacet
 facet normal 0 0 -1
  outer loop
   vertex 0 0.16974 0
   vertex 0.0478354 0.0542555 0
   vertex 0.0427525 0.0522788 0
  endloop
 endfacet
 facet normal -0 0 -1
  outer loop
   vertex 0.0716971 0.0673464 0
   vertex 0.0671625 0.0643165 0
   vertex 0 0.16974 0
  endloop
 endfacet
 facet normal -0 0 -1
  outer loop
   vertex 0.0671625 0.0643165 0
   vertex 0.0625 0.0614872 0
   vertex 0 0.16974 0
  endloop
 endfacet
 facet normal 0 0 -1
  outer loop
   vertex 0 0.16974 0
   vertex 0.0625 0.0614872 0
   vertex 0.0577186 0.058864 0
  endloop
 endfacet
 facet normal -0 0 -1
  outer loop
   vertex 0.0844488 0.0775807 0
   vertex 0.0803485 0.0739848 0
   vertex 0 0.16974 0
  endloop
 endfacet
 facet normal -0 0 -1
  outer loop
   vertex 0.0803485 0.0739848 0
   vertex 0.0760952 0.0705712 0
   vertex 0 0.16974 0
  endloop
 endfacet
 facet normal 0 0 -1
  outer loop
   vertex 0 0.16974 0
   vertex 0.0760952 0.0705712 0
   vertex 0.0716971 0.0673464 0
  endloop
 endfacet
 facet normal -0 0 -1
  outer loop
   vertex 0.0957556 0.0893919 0
   vertex 0.0921597 0.0852916 0
   vertex 0 0.16974 0
  endloop
 endfacet
 facet normal -0 0 -1
  outer loop
   vertex 0.0921597 0.0852916 0
   vertex 0.0883883 0.0813521 0
   vertex 0 0.16974 0
  endloop
 endfacet
 facet normal 0 0 -1
  outer loop
   vertex 0 0.16974 0
   vertex 0.0883883 0.0813521 0
   vertex 0.0844488 0.0775807 0
  endloop
 endfacet
 facet normal -0 0 -1
  outer loop
   vertex 0.105424 0.102578 0
   vertex 0.102394 0.0980433 0
   vertex 0 0.16974 0
  endloop
 endfacet
 facet normal -0 0 -1
  outer loop
   vertex 0.102394 0.0980433 0
   vertex 0.0991692 0.0936452 0
   vertex 0 0.16974 0
  endloop
 endfacet
 facet normal 0 0 -1
  outer loop
   vertex 0 0.16974 0
   vertex 0.0991692 0.0936452 0
   vertex 0.0957556 0.0893919 0
  endloop
 endfacet
 facet normal -0 0 -1
  outer loop
   vertex 0.113288 0.116913 0
   vertex 0.110876 0.112022 0
   vertex 0 0.16974 0
  endloop
 endfacet
 facet normal -0 0 -1
  outer loop
   vertex 0.110876 0.112022 0
   vertex 0.108253 0.10724 0
   vertex 0 0.16974 0
  endloop
 endfacet
 facet normal 0 0 -1
  outer loop
   vertex 0 0.16974 0
   vertex 0.108253 0.10724 0
   vertex 0.105424 0.102578 0
  endloop
 endfacet
 facet normal -0 0 -1
  outer loop
   vertex 0.119215 0.132152 0
   vertex 0.117462 0.126988 0
   vertex 0 0.16974 0
  endloop
 endfacet
 facet normal -0 0 -1
  outer loop
   vertex 0.117462 0.126988 0
   vertex 0.115485 0.121905 0
   vertex 0 0.16974 0
  endloop
 endfacet
 facet normal 0 0 -1
  outer loop
   vertex 0 0.16974 0
   vertex 0.115485 0.121905 0
   vertex 0.113288 0.116913 0
  endloop
 endfacet
 facet normal -0 0 -1
  outer loop
   vertex 0.123101 0.148034 0
   vertex 0.122037 0.142685 0
   vertex 0 0.16974 0
  endloop
 endfacet
 facet normal -0 0 -1
  outer loop
   vertex 0.122037 0.142685 0
   vertex 0.120741 0.137388 0
   vertex 0 0.16974 0
  endloop
 endfacet
 facet normal 0 0 -1
  outer loop
   vertex 0 0.16974 0
   vertex 0.120741 0.137388 0
   vertex 0.119215 0.132152 0
  endloop
 endfacet
 facet normal -0 0 -1
  outer loop
   vertex 0.124881 0.164288 0
   vertex 0.124524 0.158846 0
   vertex 0 0.16974 0
  endloop
 endfacet
 facet normal -0 0 -1
  outer loop
   vertex 0.124524 0.158846 0
   vertex 0.123931 0.153425 0
   vertex 0 0.16974 0
  endloop
 endfacet
 facet normal 0 0 -1
  outer loop
   vertex 0 0.16974 0
   vertex 0.123931 0.153425 0
   vertex 0.123101 0.148034 0
  endloop
 endfacet
 facet normal -0.999762 0.0218146 0
  outer loop
   vertex -0.125 0.16974 0
   vertex -0.124881 0.175193 0.5
   vertex -0.124881 0.175193 0
  endloop
 endfacet
 facet normal -0.997859 0.0654029 0
  outer loop
   vertex -0.124881 0.175193 0.5
   vertex -0.124524 0.180635 0.5
   vertex -0.124881 0.175193 0
  endloop
 endfacet
 facet normal -0.997859 0.0654029 0
  outer loop
   vertex -0.124881 0.175193 0
   vertex -0.124524 0.180635 0.5
   vertex -0.124524 0.180635 0
  endloop
 endfacet
 facet normal -0.994056 0.108867 0
  outer loop
   vertex -0.124524 0.180635 0.5
   vertex -0.123931 0.186056 0.5
   vertex -0.124524 0.180635 0
  endloop
 endfacet
 facet normal -0.994056 0.108867 0
  outer loop
   vertex -0.124524 0.180635 0
   vertex -0.123931 0.186056 0.5
   vertex -0.123931 0.186056 0
  endloop
 endfacet
 facet normal -0.988361 0.152124 0
  outer loop
   vertex -0.123931 0.186056 0.5
   vertex -0.123101 0.191446 0.5
   vertex -0.123931 0.186056 0
  endloop
 endfacet
 facet normal -0.988361 0.152124 0
  outer loop
   vertex -0.123931 0.186056 0
   vertex -0.123101 0.191446 0.5
   vertex -0.123101 0.191446 0
  endloop
 endfacet
 facet normal -0.980785 0.19509 0
  outer loop
   vertex -0.123101 0.191446 0.5
   vertex -0.122037 0.196795 0.5
   vertex -0.123101 0.191446 0
  endloop
 endfacet
 facet normal -0.980785 0.19509 0
  outer loop
   vertex -0.123101 0.191446 0
   vertex -0.122037 0.196795 0.5
   vertex -0.122037 0.196795 0
  endloop
 endfacet
 facet normal -0.971342 0.237686 0
  outer loop
   vertex -0.122037 0.196795 0.5
   vertex -0.120741 0.202093 0.5
   vertex -0.122037 0.196795 0
  endloop
 endfacet
 facet normal -0.971342 0.237686 0
  outer loop
   vertex -0.122037 0.196795 0
   vertex -0.120741 0.202093 0.5
   vertex -0.120741 0.202093 0
  endloop
 endfacet
 facet normal -0.96005 0.279829 0
  outer loop
   vertex -0.120741 0.202093 0.5
   vertex -0.119215 0.207329 0.5
   vertex -0.120741 0.202093 0
  endloop
 endfacet
 facet normal -0.96005 0.279829 0
  outer loop
   vertex -0.120741 0.202093 0
   vertex -0.119215 0.207329 0.5
   vertex -0.119215 0.207329 0
  endloop
 endfacet
 facet normal -0.94693 0.321439 0
  outer loop
   vertex -0.119215 0.207329 0.5
   vertex -0.117462 0.212493 0.5
   vertex -0.119215 0.207329 0
  endloop
 endfacet
 facet normal -0.94693 0.321439 0
  outer loop
   vertex -0.119215 0.207329 0
   vertex -0.117462 0.212493 0.5
   vertex -0.117462 0.212493 0
  endloop
 endfacet
 facet normal -0.932008 0.362439 0
  outer loop
   vertex -0.117462 0.212493 0.5
   vertex -0.115485 0.217576 0.5
   vertex -0.117462 0.212493 0
  endloop
 endfacet
 facet normal -0.932008 0.362439 0
  outer loop
   vertex -0.117462 0.212493 0
   vertex -0.115485 0.217576 0.5
   vertex -0.115485 0.217576 0
  endloop
 endfacet
 facet normal -0.915312 0.402745 0
  outer loop
   vertex -0.115485 0.217576 0.5
   vertex -0.113288 0.222568 0.5
   vertex -0.115485 0.217576 0
  endloop
 endfacet
 facet normal -0.915312 0.402745 0
  outer loop
   vertex -0.115485 0.217576 0
   vertex -0.113288 0.222568 0.5
   vertex -0.113288 0.222568 0
  endloop
 endfacet
 facet normal -0.896872 0.44229 0
  outer loop
   vertex -0.113288 0.222568 0.5
   vertex -0.110876 0.227459 0.5
   vertex -0.113288 0.222568 0
  endloop
 endfacet
 facet normal -0.896872 0.44229 0
  outer loop
   vertex -0.113288 0.222568 0
   vertex -0.110876 0.227459 0.5
   vertex -0.110876 0.227459 0
  endloop
 endfacet
 facet normal -0.876727 0.480989 0
  outer loop
   vertex -0.110876 0.227459 0.5
   vertex -0.108253 0.23224 0.5
   vertex -0.110876 0.227459 0
  endloop
 endfacet
 facet normal -0.876727 0.480989 0
  outer loop
   vertex -0.110876 0.227459 0
   vertex -0.108253 0.23224 0.5
   vertex -0.108253 0.23224 0
  endloop
 endfacet
 facet normal -0.854912 0.518773 0
  outer loop
   vertex -0.108253 0.23224 0.5
   vertex -0.105424 0.236903 0.5
   vertex -0.108253 0.23224 0
  endloop
 endfacet
 facet normal -0.854912 0.518773 0
  outer loop
   vertex -0.108253 0.23224 0
   vertex -0.105424 0.236903 0.5
   vertex -0.105424 0.236903 0
  endloop
 endfacet
 facet normal -0.83147 0.55557 0
  outer loop
   vertex -0.105424 0.236903 0.5
   vertex -0.102394 0.241437 0.5
   vertex -0.105424 0.236903 0
  endloop
 endfacet
 facet normal -0.83147 0.55557 0
  outer loop
   vertex -0.105424 0.236903 0
   vertex -0.102394 0.241437 0.5
   vertex -0.102394 0.241437 0
  endloop
 endfacet
 facet normal -0.806444 0.59131 0
  outer loop
   vertex -0.102394 0.241437 0.5
   vertex -0.0991692 0.245836 0.5
   vertex -0.102394 0.241437 0
  endloop
 endfacet
 facet normal -0.806444 0.59131 0
  outer loop
   vertex -0.102394 0.241437 0
   vertex -0.0991692 0.245836 0.5
   vertex -0.0991692 0.245836 0
  endloop
 endfacet
 facet normal -0.779885 0.625923 0
  outer loop
   vertex -0.0991692 0.245836 0.5
   vertex -0.0957556 0.250089 0.5
   vertex -0.0991692 0.245836 0
  endloop
 endfacet
 facet normal -0.779885 0.625923 0
  outer loop
   vertex -0.0991692 0.245836 0
   vertex -0.0957556 0.250089 0.5
   vertex -0.0957556 0.250089 0
  endloop
 endfacet
 facet normal -0.75184 0.659346 0
  outer loop
   vertex -0.0957556 0.250089 0.5
   vertex -0.0921597 0.254189 0.5
   vertex -0.0957556 0.250089 0
  endloop
 endfacet
 facet normal -0.75184 0.659346 0
  outer loop
   vertex -0.0957556 0.250089 0
   vertex -0.0921597 0.254189 0.5
   vertex -0.0921597 0.254189 0
  endloop
 endfacet
 facet normal -0.722364 0.691513 0
  outer loop
   vertex -0.0921597 0.254189 0.5
   vertex -0.0883883 0.258129 0.5
   vertex -0.0921597 0.254189 0
  endloop
 endfacet
 facet normal -0.722364 0.691513 0
  outer loop
   vertex -0.0921597 0.254189 0
   vertex -0.0883883 0.258129 0.5
   vertex -0.0883883 0.258129 0
  endloop
 endfacet
 facet normal -0.691513 0.722364 0
  outer loop
   vertex -0.0883883 0.258129 0.5
   vertex -0.0844488 0.2619 0.5
   vertex -0.0883883 0.258129 0
  endloop
 endfacet
 facet normal -0.691513 0.722364 0
  outer loop
   vertex -0.0883883 0.258129 0
   vertex -0.0844488 0.2619 0.5
   vertex -0.0844488 0.2619 0
  endloop
 endfacet
 facet normal -0.659346 0.75184 0
  outer loop
   vertex -0.0844488 0.2619 0.5
   vertex -0.0803485 0.265496 0.5
   vertex -0.0844488 0.2619 0
  endloop
 endfacet
 facet normal -0.659346 0.75184 0
  outer loop
   vertex -0.0844488 0.2619 0
   vertex -0.0803485 0.265496 0.5
   vertex -0.0803485 0.265496 0
  endloop
 endfacet
 facet normal -0.625923 0.779885 0
  outer loop
   vertex -0.0803485 0.265496 0.5
   vertex -0.0760952 0.26891 0.5
   vertex -0.0803485 0.265496 0
  endloop
 endfacet
 facet normal -0.625923 0.779885 0
  outer loop
   vertex -0.0803485 0.265496 0
   vertex -0.0760952 0.26891 0.5
   vertex -0.0760952 0.26891 0
  endloop
 endfacet
 facet normal -0.59131 0.806444 0
  outer loop
   vertex -0.0760952 0.26891 0.5
   vertex -0.0716971 0.272134 0.5
   vertex -0.0760952 0.26891 0
  endloop
 endfacet
 facet normal -0.59131 0.806444 0
  outer loop
   vertex -0.0760952 0.26891 0
   vertex -0.0716971 0.272134 0.5
   vertex -0.0716971 0.272134 0
  endloop
 endfacet
 facet normal -0.55557 0.83147 0
  outer loop
   vertex -0.0716971 0.272134 0.5
   vertex -0.0671625 0.275164 0.5
   vertex -0.0716971 0.272134 0
  endloop
 endfacet
 facet normal -0.55557 0.83147 0
  outer loop
   vertex -0.0716971 0.272134 0
   vertex -0.0671625 0.275164 0.5
   vertex -0.0671625 0.275164 0
  endloop
 endfacet
 facet normal -0.518773 0.854912 0
  outer loop
   vertex -0.0671625 0.275164 0.5
   vertex -0.0625 0.277994 0.5
   vertex -0.0671625 0.275164 0
  endloop
 endfacet
 facet normal -0.518773 0.854912 0
  outer loop
   vertex -0.0671625 0.275164 0
   vertex -0.0625 0.277994 0.5
   vertex -0.0625 0.277994 0
  endloop
 endfacet
 facet normal -0.480989 0.876727 0
  outer loop
   vertex -0.0625 0.277994 0.5
   vertex -0.0577186 0.280617 0.5
   vertex -0.0625 0.277994 0
  endloop
 endfacet
 facet normal -0.480989 0.876727 0
  outer loop
   vertex -0.0625 0.277994 0
   vertex -0.0577186 0.280617 0.5
   vertex -0.0577186 0.280617 0
  endloop
 endfacet
 facet normal -0.44229 0.896872 0
  outer loop
   vertex -0.0577186 0.280617 0.5
   vertex -0.0528273 0.283029 0.5
   vertex -0.0577186 0.280617 0
  endloop
 endfacet
 facet normal -0.44229 0.896872 0
  outer loop
   vertex -0.0577186 0.280617 0
   vertex -0.0528273 0.283029 0.5
   vertex -0.0528273 0.283029 0
  endloop
 endfacet
 facet normal -0.402745 0.915312 0
  outer loop
   vertex -0.0528273 0.283029 0.5
   vertex -0.0478354 0.285225 0.5
   vertex -0.0528273 0.283029 0
  endloop
 endfacet
 facet normal -0.402745 0.915312 0
  outer loop
   vertex -0.0528273 0.283029 0
   vertex -0.0478354 0.285225 0.5
   vertex -0.0478354 0.285225 0
  endloop
 endfacet
 facet normal -0.362439 0.932008 0
  outer loop
   vertex -0.0478354 0.285225 0.5
   vertex -0.0427525 0.287202 0.5
   vertex -0.0478354 0.285225 0
  endloop
 endfacet
 facet normal -0.362439 0.932008 0
  outer loop
   vertex -0.0478354 0.285225 0
   vertex -0.0427525 0.287202 0.5
   vertex -0.0427525 0.287202 0
  endloop
 endfacet
 facet normal -0.321439 0.94693 0
  outer loop
   vertex -0.0427525 0.287202 0.5
   vertex -0.0375882 0.288955 0.5
   vertex -0.0427525 0.287202 0
  endloop
 endfacet
 facet normal -0.321439 0.94693 0
  outer loop
   vertex -0.0427525 0.287202 0
   vertex -0.0375882 0.288955 0.5
   vertex -0.0375882 0.288955 0
  endloop
 endfacet
 facet normal -0.279829 0.96005 0
  outer loop
   vertex -0.0375882 0.288955 0.5
   vertex -0.0323524 0.290481 0.5
   vertex -0.0375882 0.288955 0
  endloop
 endfacet
 facet normal -0.279829 0.96005 0
  outer loop
   vertex -0.0375882 0.288955 0
   vertex -0.0323524 0.290481 0.5
   vertex -0.0323524 0.290481 0
  endloop
 endfacet
 facet normal -0.237686 0.971342 0
  outer loop
   vertex -0.0323524 0.290481 0.5
   vertex -0.027055 0.291777 0.5
   vertex -0.0323524 0.290481 0
  endloop
 endfacet
 facet normal -0.237686 0.971342 0
  outer loop
   vertex -0.0323524 0.290481 0
   vertex -0.027055 0.291777 0.5
   vertex -0.027055 0.291777 0
  endloop
 endfacet
 facet normal -0.19509 0.980785 0
  outer loop
   vertex -0.027055 0.291777 0.5
   vertex -0.021706 0.292841 0.5
   vertex -0.027055 0.291777 0
  endloop
 endfacet
 facet normal -0.19509 0.980785 0
  outer loop
   vertex -0.027055 0.291777 0
   vertex -0.021706 0.292841 0.5
   vertex -0.021706 0.292841 0
  endloop
 endfacet
 facet normal -0.152124 0.988361 0
  outer loop
   vertex -0.021706 0.292841 0.5
   vertex -0.0163158 0.293671 0.5
   vertex -0.021706 0.292841 0
  endloop
 endfacet
 facet normal -0.152124 0.988361 0
  outer loop
   vertex -0.021706 0.292841 0
   vertex -0.0163158 0.293671 0.5
   vertex -0.0163158 0.293671 0
  endloop
 endfacet
 facet normal -0.108867 0.994056 0
  outer loop
   vertex -0.0163158 0.293671 0.5
   vertex -0.0108945 0.294265 0.5
   vertex -0.0163158 0.293671 0
  endloop
 endfacet
 facet normal -0.108867 0.994056 0
  outer loop
   vertex -0.0163158 0.293671 0
   vertex -0.0108945 0.294265 0.5
   vertex -0.0108945 0.294265 0
  endloop
 endfacet
 facet normal -0.0654029 0.997859 0
  outer loop
   vertex -0.0108945 0.294265 0.5
   vertex -0.00545242 0.294621 0.5
   vertex -0.0108945 0.294265 0
  endloop
 endfacet
 facet normal -0.0654029 0.997859 0
  outer loop
   vertex -0.0108945 0.294265 0
   vertex -0.00545242 0.294621 0.5
   vertex -0.00545242 0.294621 0
  endloop
 endfacet
 facet normal -0.0218146 0.999762 0
  outer loop
   vertex -0.00545242 0.294621 0.5
   vertex -7.65404e-18 0.29474 0.5
   vertex -0.00545242 0.294621 0
  endloop
 endfacet
 facet normal -0.0218146 0.999762 0
  outer loop
   vertex -0.00545242 0.294621 0
   vertex -7.65404e-18 0.29474 0.5
   vertex -7.65404e-18 0.29474 0
  endloop
 endfacet
 facet normal 0.0218146 0.999762 0
  outer loop
   vertex -7.65404e-18 0.29474 0.5
   vertex 0.00545242 0.294621 0.5
   vertex -7.65404e-18 0.29474 0
  endloop
 endfacet
 facet normal 0.0218146 0.999762 0
  outer loop
   vertex -7.65404e-18 0.29474 0
   vertex 0.00545242 0.294621 0.5
   vertex 0.00545242 0.294621 0
  endloop
 endfacet
 facet normal 0.0654029 0.997859 0
  outer loop
   vertex 0.00545242 0.294621 0.5
   vertex 0.0108945 0.294265 0.5
   vertex 0.00545242 0.294621 0
  endloop
 endfacet
 facet normal 0.0654029 0.997859 0
  outer loop
   vertex 0.00545242 0.294621 0
   vertex 0.0108945 0.294265 0.5
   vertex 0.0108945 0.294265 0
  endloop
 endfacet
 facet normal 0.108867 0.994056 0
  outer loop
   vertex 0.0108945 0.294265 0.5
   vertex 0.0163158 0.293671 0.5
   vertex 0.0108945 0.294265 0
  endloop
 endfacet
 facet normal 0.108867 0.994056 0
  outer loop
   vertex 0.0108945 0.294265 0
   vertex 0.0163158 0.293671 0.5
   vertex 0.0163158 0.293671 0
  endloop
 endfacet
 facet normal 0.152124 0.988361 0
  outer loop
   vertex 0.0163158 0.293671 0.5
   vertex 0.021706 0.292841 0.5
   vertex 0.0163158 0.293671 0
  endloop
 endfacet
 facet normal 0.152124 0.988361 0
  outer loop
   vertex 0.0163158 0.293671 0
   vertex 0.021706 0.292841 0.5
   vertex 0.021706 0.292841 0
  endloop
 endfacet
 facet normal 0.19509 0.980785 0
  outer loop
   vertex 0.021706 0.292841 0.5
   vertex 0.027055 0.291777 0.5
   vertex 0.021706 0.292841 0
  endloop
 endfacet
 facet normal 0.19509 0.980785 0
  outer loop
   vertex 0.021706 0.292841 0
   vertex 0.027055 0.291777 0.5
   vertex 0.027055 0.291777 0
  endloop
 endfacet
 facet normal 0.237686 0.971342 0
  outer loop
   vertex 0.027055 0.291777 0.5
   vertex 0.0323524 0.290481 0.5
   vertex 0.027055 0.291777 0
  endloop
 endfacet
 facet normal 0.237686 0.971342 0
  outer loop
   vertex 0.027055 0.291777 0
   vertex 0.0323524 0.290481 0.5
   vertex 0.0323524 0.290481 0
  endloop
 endfacet
 facet normal 0.279829 0.96005 0
  outer loop
   vertex 0.0323524 0.290481 0.5
   vertex 0.0375882 0.288955 0.5
   vertex 0.0323524 0.290481 0
  endloop
 endfacet
 facet normal 0.279829 0.96005 0
  outer loop
   vertex 0.0323524 0.290481 0
   vertex 0.0375882 0.288955 0.5
   vertex 0.0375882 0.288955 0
  endloop
 endfacet
 facet normal 0.321439 0.94693 0
  outer loop
   vertex 0.0375882 0.288955 0.5
   vertex 0.0427525 0.287202 0.5
   vertex 0.0375882 0.288955 0
  endloop
 endfacet
 facet normal 0.321439 0.94693 0
  outer loop
   vertex 0.0375882 0.288955 0
   vertex 0.0427525 0.287202 0.5
   vertex 0.0427525 0.287202 0
  endloop
 endfacet
 facet normal 0.362439 0.932008 0
  outer loop
   vertex 0.0427525 0.287202 0.5
   vertex 0.0478354 0.285225 0.5
   vertex 0.0427525 0.287202 0
  endloop
 endfacet
 facet normal 0.362439 0.932008 0
  outer loop
   vertex 0.0427525 0.287202 0
   vertex 0.0478354 0.285225 0.5
   vertex 0.0478354 0.285225 0
  endloop
 endfacet
 facet normal 0.402745 0.915312 0
  outer loop
   vertex 0.0478354 0.285225 0.5
   vertex 0.0528273 0.283029 0.5
   vertex 0.0478354 0.285225 0
  endloop
 endfacet
 facet normal 0.402745 0.915312 0
  outer loop
   vertex 0.0478354 0.285225 0
   vertex 0.0528273 0.283029 0.5
   vertex 0.0528273 0.283029 0
  endloop
 endfacet
 facet normal 0.44229 0.896872 0
  outer loop
   vertex 0.0528273 0.283029 0.5
   vertex 0.0577186 0.280617 0.5
   vertex 0.0528273 0.283029 0
  endloop
 endfacet
 facet normal 0.44229 0.896872 0
  outer loop
   vertex 0.0528273 0.283029 0
   vertex 0.0577186 0.280617 0.5
   vertex 0.0577186 0.280617 0
  endloop
 endfacet
 facet normal 0.480989 0.876727 0
  outer loop
   vertex 0.0577186 0.280617 0.5
   vertex 0.0625 0.277994 0.5
   vertex 0.0577186 0.280617 0
  endloop
 endfacet
 facet normal 0.480989 0.876727 0
  outer loop
   vertex 0.0577186 0.280617 0
   vertex 0.0625 0.277994 0.5
   vertex 0.0625 0.277994 0
  endloop
 endfacet
 facet normal 0.518773 0.854912 0
  outer loop
   vertex 0.0625 0.277994 0.5
   vertex 0.0671625 0.275164 0.5
   vertex 0.0625 0.277994 0
  endloop
 endfacet
 facet normal 0.518773 0.854912 0
  outer loop
   vertex 0.0625 0.277994 0
   vertex 0.0671625 0.275164 0.5
   vertex 0.0671625 0.275164 0
  endloop
 endfacet
 facet normal 0.55557 0.83147 0
  outer loop
   vertex 0.0671625 0.275164 0.5
   vertex 0.0716971 0.272134 0.5
   vertex 0.0671625 0.275164 0
  endloop
 endfacet
 facet normal 0.55557 0.83147 0
  outer loop
   vertex 0.0671625 0.275164 0
   vertex 0.0716971 0.272134 0.5
   vertex 0.0716971 0.272134 0
  endloop
 endfacet
 facet normal 0.59131 0.806444 0
  outer loop
   vertex 0.0716971 0.272134 0.5
   vertex 0.0760952 0.26891 0.5
   vertex 0.0716971 0.272134 0
  endloop
 endfacet
 facet normal 0.59131 0.806444 0
  outer loop
   vertex 0.0716971 0.272134 0
   vertex 0.0760952 0.26891 0.5
   vertex 0.0760952 0.26891 0
  endloop
 endfacet
 facet normal 0.625923 0.779885 0
  outer loop
   vertex 0.0760952 0.26891 0.5
   vertex 0.0803485 0.265496 0.5
   vertex 0.0760952 0.26891 0
  endloop
 endfacet
 facet normal 0.625923 0.779885 0
  outer loop
   vertex 0.0760952 0.26891 0
   vertex 0.0803485 0.265496 0.5
   vertex 0.0803485 0.265496 0
  endloop
 endfacet
 facet normal 0.659346 0.75184 0
  outer loop
   vertex 0.0803485 0.265496 0.5
   vertex 0.0844488 0.2619 0.5
   vertex 0.0803485 0.265496 0
  endloop
 endfacet
 facet normal 0.659346 0.75184 0
  outer loop
   vertex 0.0803485 0.265496 0
   vertex 0.0844488 0.2619 0.5
   vertex 0.0844488 0.2619 0
  endloop
 endfacet
 facet normal 0.691513 0.722364 0
  outer loop
   vertex 0.0844488 0.2619 0.5
   vertex 0.0883883 0.258129 0.5
   vertex 0.0844488 0.2619 0
  endloop
 endfacet
 facet normal 0.691513 0.722364 0
  outer loop
   vertex 0.0844488 0.2619 0
   vertex 0.0883883 0.258129 0.5
   vertex 0.0883883 0.258129 0
  endloop
 endfacet
 facet normal 0.722364 0.691513 0
  outer loop
   vertex 0.0883883 0.258129 0.5
   vertex 0.0921597 0.254189 0.5
   vertex 0.0883883 0.258129 0
  endloop
 endfacet
 facet normal 0.722364 0.691513 0
  outer loop
   vertex 0.0883883 0.258129 0
   vertex 0.0921597 0.254189 0.5
   vertex 0.0921597 0.254189 0
  endloop
 endfacet
 facet normal 0.75184 0.659346 0
  outer loop
   vertex 0.0921597 0.254189 0.5
   vertex 0.0957556 0.250089 0.5
   vertex 0.0921597 0.254189 0
  endloop
 endfacet
 facet normal 0.75184 0.659346 0
  outer loop
   vertex 0.0921597 0.254189 0
   vertex 0.0957556 0.250089 0.5
   vertex 0.0957556 0.250089 0
  endloop
 endfacet
 facet normal 0.779885 0.625923 0
  outer loop
   vertex 0.0957556 0.250089 0.5
   vertex 0.0991692 0.245836 0.5
   vertex 0.0957556 0.250089 0
  endloop
 endfacet
 facet normal 0.779885 0.625923 0
  outer loop
   vertex 0.0957556 0.250089 0
   vertex 0.0991692 0.245836 0.5
   vertex 0.0991692 0.245836 0
  endloop
 endfacet
 facet normal 0.806444 0.59131 0
  outer loop
   vertex 0.0991692 0.245836 0.5
   vertex 0.102394 0.241437 0.5
   vertex 0.0991692 0.245836 0
  endloop
 endfacet
 facet normal 0.806444 0.59131 0
  outer loop
   vertex 0.0991692 0.245836 0
   vertex 0.102394 0.241437 0.5
   vertex 0.102394 0.241437 0
  endloop
 endfacet
 facet normal 0.83147 0.55557 0
  outer loop
   vertex 0.102394 0.241437 0.5
   vertex 0.105424 0.236903 0.5
   vertex 0.102394 0.241437 0
  endloop
 endfacet
 facet normal 0.83147 0.55557 0
  outer loop
   vertex 0.102394 0.241437 0
   vertex 0.105424 0.236903 0.5
   vertex 0.105424 0.236903 0
  endloop
 endfacet
 facet normal 0.854912 0.518773 0
  outer loop
   vertex 0.105424 0.236903 0.5
   vertex 0.108253 0.23224 0.5
   vertex 0.105424 0.236903 0
  endloop
 endfacet
 facet normal 0.854912 0.518773 0
  outer loop
   vertex 0.105424 0.236903 0
   vertex 0.108253 0.23224 0.5
   vertex 0.108253 0.23224 0
  endloop
 endfacet
 facet normal 0.876727 0.480989 0
  outer loop
   vertex 0.108253 0.23224 0.5
   vertex 0.110876 0.227459 0.5
   vertex 0.108253 0.23224 0
  endloop
 endfacet
 facet normal 0.876727 0.480989 0
  outer loop
   vertex 0.108253 0.23224 0
   vertex 0.110876 0.227459 0.5
   vertex 0.110876 0.227459 0
  endloop
 endfacet
 facet normal 0.896872 0.44229 0
  outer loop
   vertex 0.110876 0.227459 0.5
   vertex 0.113288 0.222568 0.5
   vertex 0.110876 0.227459 0
  endloop
 endfacet
 facet normal 0.896872 0.44229 0
  outer loop
   vertex 0.110876 0.227459 0
   vertex 0.113288 0.222568 0.5
   vertex 0.113288 0.222568 0
  endloop
 endfacet
 facet normal 0.915312 0.402745 0
  outer loop
   vertex 0.113288 0.222568 0.5
   vertex 0.115485 0.217576 0.5
   vertex 0.113288 0.222568 0
  endloop
 endfacet
 facet normal 0.915312 0.402745 0
  outer loop
   vertex 0.113288 0.222568 0
   vertex 0.115485 0.217576 0.5
   vertex 0.115485 0.217576 0
  endloop
 endfacet
 facet normal 0.932008 0.362439 0
  outer loop
   vertex 0.115485 0.217576 0.5
   vertex 0.117462 0.212493 0.5
   vertex 0.115485 0.217576 0
  endloop
 endfacet
 facet normal 0.932008 0.362439 0
  outer loop
   vertex 0.115485 0.217576 0
   vertex 0.117462 0.212493 0.5
   vertex 0.117462 0.212493 0
  endloop
 endfacet
 facet normal 0.94693 0.321439 0
  outer loop
   vertex 0.117462 0.212493 0.5
   vertex 0.119215 0.207329 0.5
   vertex 0.117462 0.212493 0
  endloop
 endfacet
 facet normal 0.94693 0.321439 0
  outer loop
   vertex 0.117462 0.212493 0
   vertex 0.119215 0.207329 0.5
   vertex 0.119215 0.207329 0
  endloop
 endfacet
 facet normal 0.96005 0.279829 0
  outer loop
   vertex 0.119215 0.207329 0.5
   vertex 0.120741 0.202093 0.5
   vertex 0.119215 0.207329 0
  endloop
 endfacet
 facet normal 0.96005 0.279829 0
  outer loop
   vertex 0.119215 0.207329 0
   vertex 0.120741 0.202093 0.5
   vertex 0.120741 0.202093 0
  endloop
 endfacet
 facet normal 0.971342 0.237686 0
  outer loop
   vertex 0.120741 0.202093 0.5
   vertex 0.122037 0.196795 0.5
   vertex 0.120741 0.202093 0
  endloop
 endfacet
 facet normal 0.971342 0.237686 0
  outer loop
   vertex 0.120741 0.202093 0
   vertex 0.122037 0.196795 0.5
   vertex 0.122037 0.196795 0
  endloop
 endfacet
 facet normal 0.980785 0.19509 0
  outer loop
   vertex 0.122037 0.196795 0.5
   vertex 0.123101 0.191446 0.5
   vertex 0.122037 0.196795 0
  endloop
 endfacet
 facet normal 0.980785 0.19509 0
  outer loop
   vertex 0.122037 0.196795 0
   vertex 0.123101 0.191446 0.5
   vertex 0.123101 0.191446 0
  endloop
 endfacet
 facet normal 0.988361 0.152124 0
  outer loop
   vertex 0.123101 0.191446 0.5
   vertex 0.123931 0.186056 0.5
   vertex 0.123101 0.191446 0
  endloop
 endfacet
 facet normal 0.988361 0.152124 0
  outer loop
   vertex 0.123101 0.191446 0
   vertex 0.123931 0.186056 0.5
   vertex 0.123931 0.186056 0
  endloop
 endfacet
 facet normal 0.994056 0.108867 0
  outer loop
   vertex 0.123931 0.186056 0.5
   vertex 0.124524 0.180635 0.5
   vertex 0.123931 0.186056 0
  endloop
 endfacet
 facet normal 0.994056 0.108867 0
  outer loop
   vertex 0.123931 0.186056 0
   vertex 0.124524 0.180635 0.5
   vertex 0.124524 0.180635 0
  endloop
 endfacet
 facet normal 0.997859 0.0654029 0
  outer loop
   vertex 0.124524 0.180635 0.5
   vertex 0.124881 0.175193 0.5
   vertex 0.124524 0.180635 0
  endloop
 endfacet
 facet normal 0.997859 0.0654029 0
  outer loop
   vertex 0.124524 0.180635 0
   vertex 0.124881 0.175193 0.5
   vertex 0.124881 0.175193 0
  endloop
 endfacet
 facet normal 0.999762 0.0218146 0
  outer loop
   vertex 0.124881 0.175193 0.5
   vertex 0.125 0.16974 0.5
   vertex 0.124881 0.175193 0
  endloop
 endfacet
 facet normal 0.999762 0.0218146 -1.20367e-18
  outer loop
   vertex 0.124881 0.175193 0
   vertex 0.125 0.16974 0.5
   vertex 0.125 0.16974 0
  endloop
 endfacet
 facet normal 0.999762 -0.0218146 1.21095e-18
  outer loop
   vertex 0.125 0.16974 0.5
   vertex 0.124881 0.164288 0.5
   vertex 0.125 0.16974 0
  endloop
 endfacet
 facet normal 0.999762 -0.0218146 0
  outer loop
   vertex 0.125 0.16974 0
   vertex 0.124881 0.164288 0.5
   vertex 0.124881 0.164288 0
  endloop
 endfacet
 facet normal 0.997859 -0.0654029 0
  outer loop
   vertex 0.124881 0.164288 0.5
   vertex 0.124524 0.158846 0.5
   vertex 0.124881 0.164288 0
  endloop
 endfacet
 facet normal 0.997859 -0.0654029 0
  outer loop
   vertex 0.124881 0.164288 0
   vertex 0.124524 0.158846 0.5
   vertex 0.124524 0.158846 0
  endloop
 endfacet
 facet normal 0.994056 -0.108867 0
  outer loop
   vertex 0.124524 0.158846 0.5
   vertex 0.123931 0.153425 0.5
   vertex 0.124524 0.158846 0
  endloop
 endfacet
 facet normal 0.994056 -0.108867 0
  outer loop
   vertex 0.124524 0.158846 0
   vertex 0.123931 0.153425 0.5
   vertex 0.123931 0.153425 0
  endloop
 endfacet
 facet normal 0.988361 -0.152124 0
  outer loop
   vertex 0.123931 0.153425 0.5
   vertex 0.123101 0.148034 0.5
   vertex 0.123931 0.153425 0
  endloop
 endfacet
 facet normal 0.988361 -0.152124 0
  outer loop
   vertex 0.123931 0.153425 0
   vertex 0.123101 0.148034 0.5
   vertex 0.123101 0.148034 0
  endloop
 endfacet
 facet normal 0.980785 -0.19509 0
  outer loop
   vertex 0.123101 0.148034 0.5
   vertex 0.122037 0.142685 0.5
   vertex 0.123101 0.148034 0
  endloop
 endfacet
 facet normal 0.980785 -0.19509 0
  outer loop
   vertex 0.123101 0.148034 0
   vertex 0.122037 0.142685 0.5
   vertex 0.122037 0.142685 0
  endloop
 endfacet
 facet normal 0.971342 -0.237686 0
  outer loop
   vertex 0.122037 0.142685 0.5
   vertex 0.120741 0.137388 0.5
   vertex 0.122037 0.142685 0
  endloop
 endfacet
 facet normal 0.971342 -0.237686 0
  outer loop
   vertex 0.122037 0.142685 0
   vertex 0.120741 0.137388 0.5
   vertex 0.120741 0.137388 0
  endloop
 endfacet
 facet normal 0.96005 -0.279829 0
  outer loop
   vertex 0.120741 0.137388 0.5
   vertex 0.119215 0.132152 0.5
   vertex 0.120741 0.137388 0
  endloop
 endfacet
 facet normal 0.96005 -0.279829 0
  outer loop
   vertex 0.120741 0.137388 0
   vertex 0.119215 0.132152 0.5
   vertex 0.119215 0.132152 0
  endloop
 endfacet
 facet normal 0.94693 -0.321439 0
  outer loop
   vertex 0.119215 0.132152 0.5
   vertex 0.117462 0.126988 0.5
   vertex 0.119215 0.132152 0
  endloop
 endfacet
 facet normal 0.94693 -0.321439 0
  outer loop
   vertex 0.119215 0.132152 0
   vertex 0.117462 0.126988 0.5
   vertex 0.117462 0.126988 0
  endloop
 endfacet
 facet normal 0.932008 -0.362439 0
  outer loop
   vertex 0.117462 0.126988 0.5
   vertex 0.115485 0.121905 0.5
   vertex 0.117462 0.126988 0
  endloop
 endfacet
 facet normal 0.932008 -0.362439 0
  outer loop
   vertex 0.117462 0.126988 0
   vertex 0.115485 0.121905 0.5
   vertex 0.115485 0.121905 0
  endloop
 endfacet
 facet normal 0.915312 -0.402745 0
  outer loop
   vertex 0.115485 0.121905 0.5
   vertex 0.113288 0.116913 0.5
   vertex 0.115485 0.121905 0
  endloop
 endfacet
 facet normal 0.915312 -0.402745 0
  outer loop
   vertex 0.115485 0.121905 0
   vertex 0.113288 0.116913 0.5
   vertex 0.113288 0.116913 0
  endloop
 endfacet
 facet normal 0.896872 -0.44229 0
  outer loop
   vertex 0.113288 0.116913 0.5
   vertex 0.110876 0.112022 0.5
   vertex 0.113288 0.116913 0
  endloop
 endfacet
 facet normal 0.896872 -0.44229 0
  outer loop
   vertex 0.113288 0.116913 0
   vertex 0.110876 0.112022 0.5
   vertex 0.110876 0.112022 0
  endloop
 endfacet
 facet normal 0.876727 -0.480989 0
  outer loop
   vertex 0.110876 0.112022 0.5
   vertex 0.108253 0.10724 0.5
   vertex 0.110876 0.112022 0
  endloop
 endfacet
 facet normal 0.876727 -0.480989 0
  outer loop
   vertex 0.110876 0.112022 0
   vertex 0.108253 0.10724 0.5
   vertex 0.108253 0.10724 0
  endloop
 endfacet
 facet normal 0.854912 -0.518773 0
  outer loop
   vertex 0.108253 0.10724 0.5
   vertex 0.105424 0.102578 0.5
   vertex 0.108253 0.10724 0
  endloop
 endfacet
 facet normal 0.854912 -0.518773 0
  outer loop
   vertex 0.108253 0.10724 0
   vertex 0.105424 0.102578 0.5
   vertex 0.105424 0.102578 0
  endloop
 endfacet
 facet normal 0.83147 -0.55557 0
  outer loop
   vertex 0.105424 0.102578 0.5
   vertex 0.102394 0.0980433 0.5
   vertex 0.105424 0.102578 0
  endloop
 endfacet
 facet normal 0.83147 -0.55557 0
  outer loop
   vertex 0.105424 0.102578 0
   vertex 0.102394 0.0980433 0.5
   vertex 0.102394 0.0980433 0
  endloop
 endfacet
 facet normal 0.806444 -0.59131 0
  outer loop
   vertex 0.102394 0.0980433 0.5
   vertex 0.0991692 0.0936452 0.5
   vertex 0.102394 0.0980433 0
  endloop
 endfacet
 facet normal 0.806444 -0.59131 0
  outer loop
   vertex 0.102394 0.0980433 0
   vertex 0.0991692 0.0936452 0.5
   vertex 0.0991692 0.0936452 0
  endloop
 endfacet
 facet normal 0.779885 -0.625923 0
  outer loop
   vertex 0.0991692 0.0936452 0.5
   vertex 0.0957556 0.0893919 0.5
   vertex 0.0991692 0.0936452 0
  endloop
 endfacet
 facet normal 0.779885 -0.625923 0
  outer loop
   vertex 0.0991692 0.0936452 0
   vertex 0.0957556 0.0893919 0.5
   vertex 0.0957556 0.0893919 0
  endloop
 endfacet
 facet normal 0.75184 -0.659346 0
  outer loop
   vertex 0.0957556 0.0893919 0.5
   vertex 0.0921597 0.0852916 0.5
   vertex 0.0957556 0.0893919 0
  endloop
 endfacet
 facet normal 0.75184 -0.659346 0
  outer loop
   vertex 0.0957556 0.0893919 0
   vertex 0.0921597 0.0852916 0.5
   vertex 0.0921597 0.0852916 0
  endloop
 endfacet
 facet normal 0.722364 -0.691513 0
  outer loop
   vertex 0.0921597 0.0852916 0.5
   vertex 0.0883883 0.0813521 0.5
   vertex 0.0921597 0.0852916 0
  endloop
 endfacet
 facet normal 0.722364 -0.691513 0
  outer loop
   vertex 0.0921597 0.0852916 0
   vertex 0.0883883 0.0813521 0.5
   vertex 0.0883883 0.0813521 0
  endloop
 endfacet
 facet normal 0.691513 -0.722364 0
  outer loop
   vertex 0.0883883 0.0813521 0.5
   vertex 0.0844488 0.0775807 0.5
   vertex 0.0883883 0.0813521 0
  endloop
 endfacet
 facet normal 0.691513 -0.722364 0
  outer loop
   vertex 0.0883883 0.0813521 0
   vertex 0.0844488 0.0775807 0.5
   vertex 0.0844488 0.0775807 0
  endloop
 endfacet
 facet normal 0.659346 -0.75184 0
  outer loop
   vertex 0.0844488 0.0775807 0.5
   vertex 0.0803485 0.0739848 0.5
   vertex 0.0844488 0.0775807 0
  endloop
 endfacet
 facet normal 0.659346 -0.75184 0
  outer loop
   vertex 0.0844488 0.0775807 0
   vertex 0.0803485 0.0739848 0.5
   vertex 0.0803485 0.0739848 0
  endloop
 endfacet
 facet normal 0.625923 -0.779885 0
  outer loop
   vertex 0.0803485 0.0739848 0.5
   vertex 0.0760952 0.0705712 0.5
   vertex 0.0803485 0.0739848 0
  endloop
 endfacet
 facet normal 0.625923 -0.779885 0
  outer loop
   vertex 0.0803485 0.0739848 0
   vertex 0.0760952 0.0705712 0.5
   vertex 0.0760952 0.0705712 0
  endloop
 endfacet
 facet normal 0.59131 -0.806444 0
  outer loop
   vertex 0.0760952 0.0705712 0.5
   vertex 0.0716971 0.0673464 0.5
   vertex 0.0760952 0.0705712 0
  endloop
 endfacet
 facet normal 0.59131 -0.806444 0
  outer loop
   vertex 0.0760952 0.0705712 0
   vertex 0.0716971 0.0673464 0.5
   vertex 0.0716971 0.0673464 0
  endloop
 endfacet
 facet normal 0.55557 -0.83147 0
  outer loop
   vertex 0.0716971 0.0673464 0.5
   vertex 0.0671625 0.0643165 0.5
   vertex 0.0716971 0.0673464 0
  endloop
 endfacet
 facet normal 0.55557 -0.83147 0
  outer loop
   vertex 0.0716971 0.0673464 0
   vertex 0.0671625 0.0643165 0.5
   vertex 0.0671625 0.0643165 0
  endloop
 endfacet
 facet normal 0.518773 -0.854912 0
  outer loop
   vertex 0.0671625 0.0643165 0.5
   vertex 0.0625 0.0614872 0.5
   vertex 0.0671625 0.0643165 0
  endloop
 endfacet
 facet normal 0.518773 -0.854912 0
  outer loop
   vertex 0.0671625 0.0643165 0
   vertex 0.0625 0.0614872 0.5
   vertex 0.0625 0.0614872 0
  endloop
 endfacet
 facet normal 0.480989 -0.876727 0
  outer loop
   vertex 0.0625 0.0614872 0.5
   vertex 0.0577186 0.058864 0.5
   vertex 0.0625 0.0614872 0
  endloop
 endfacet
 facet normal 0.480989 -0.876727 0
  outer loop
   vertex 0.0625 0.0614872 0
   vertex 0.0577186 0.058864 0.5
   vertex 0.0577186 0.058864 0
  endloop
 endfacet
 facet normal 0.44229 -0.896872 0
  outer loop
   vertex 0.0577186 0.058864 0.5
   vertex 0.0528273 0.0564519 0.5
   vertex 0.0577186 0.058864 0
  endloop
 endfacet
 facet normal 0.44229 -0.896872 0
  outer loop
   vertex 0.0577186 0.058864 0
   vertex 0.0528273 0.0564519 0.5
   vertex 0.0528273 0.0564519 0
  endloop
 endfacet
 facet normal 0.402745 -0.915312 0
  outer loop
   vertex 0.0528273 0.0564519 0.5
   vertex 0.0478354 0.0542555 0.5
   vertex 0.0528273 0.0564519 0
  endloop
 endfacet
 facet normal 0.402745 -0.915312 0
  outer loop
   vertex 0.0528273 0.0564519 0
   vertex 0.0478354 0.0542555 0.5
   vertex 0.0478354 0.0542555 0
  endloop
 endfacet
 facet normal 0.362439 -0.932008 0
  outer loop
   vertex 0.0478354 0.0542555 0.5
   vertex 0.0427525 0.0522788 0.5
   vertex 0.0478354 0.0542555 0
  endloop
 endfacet
 facet normal 0.362439 -0.932008 0
  outer loop
   vertex 0.0478354 0.0542555 0
   vertex 0.0427525 0.0522788 0.5
   vertex 0.0427525 0.0522788 0
  endloop
 endfacet
 facet normal 0.321439 -0.94693 0
  outer loop
   vertex 0.0427525 0.0522788 0.5
   vertex 0.0375882 0.0505258 0.5
   vertex 0.0427525 0.0522788 0
  endloop
 endfacet
 facet normal 0.321439 -0.94693 0
  outer loop
   vertex 0.0427525 0.0522788 0
   vertex 0.0375882 0.0505258 0.5
   vertex 0.0375882 0.0505258 0
  endloop
 endfacet
 facet normal 0.279829 -0.96005 0
  outer loop
   vertex 0.0375882 0.0505258 0.5
   vertex 0.0323524 0.0489997 0.5
   vertex 0.0375882 0.0505258 0
  endloop
 endfacet
 facet normal 0.279829 -0.96005 0
  outer loop
   vertex 0.0375882 0.0505258 0
   vertex 0.0323524 0.0489997 0.5
   vertex 0.0323524 0.0489997 0
  endloop
 endfacet
 facet normal 0.237686 -0.971342 0
  outer loop
   vertex 0.0323524 0.0489997 0.5
   vertex 0.027055 0.0477034 0.5
   vertex 0.0323524 0.0489997 0
  endloop
 endfacet
 facet normal 0.237686 -0.971342 0
  outer loop
   vertex 0.0323524 0.0489997 0
   vertex 0.027055 0.0477034 0.5
   vertex 0.027055 0.0477034 0
  endloop
 endfacet
 facet normal 0.19509 -0.980785 0
  outer loop
   vertex 0.027055 0.0477034 0.5
   vertex 0.021706 0.0466394 0.5
   vertex 0.027055 0.0477034 0
  endloop
 endfacet
 facet normal 0.19509 -0.980785 0
  outer loop
   vertex 0.027055 0.0477034 0
   vertex 0.021706 0.0466394 0.5
   vertex 0.021706 0.0466394 0
  endloop
 endfacet
 facet normal 0.152124 -0.988361 0
  outer loop
   vertex 0.021706 0.0466394 0.5
   vertex 0.0163158 0.0458098 0.5
   vertex 0.021706 0.0466394 0
  endloop
 endfacet
 facet normal 0.152124 -0.988361 0
  outer loop
   vertex 0.021706 0.0466394 0
   vertex 0.0163158 0.0458098 0.5
   vertex 0.0163158 0.0458098 0
  endloop
 endfacet
 facet normal 0.108867 -0.994056 0
  outer loop
   vertex 0.0163158 0.0458098 0.5
   vertex 0.0108945 0.0452161 0.5
   vertex 0.0163158 0.0458098 0
  endloop
 endfacet
 facet normal 0.108867 -0.994056 0
  outer loop
   vertex 0.0163158 0.0458098 0
   vertex 0.0108945 0.0452161 0.5
   vertex 0.0108945 0.0452161 0
  endloop
 endfacet
 facet normal 0.0654029 -0.997859 0
  outer loop
   vertex 0.0108945 0.0452161 0.5
   vertex 0.00545242 0.0448594 0.5
   vertex 0.0108945 0.0452161 0
  endloop
 endfacet
 facet normal 0.0654029 -0.997859 0
  outer loop
   vertex 0.0108945 0.0452161 0
   vertex 0.00545242 0.0448594 0.5
   vertex 0.00545242 0.0448594 0
  endloop
 endfacet
 facet normal 0.0218146 -0.999762 0
  outer loop
   vertex 0.00545242 0.0448594 0.5
   vertex 2.29621e-17 0.0447404 0.5
   vertex 0.00545242 0.0448594 0
  endloop
 endfacet
 facet normal 0.0218146 -0.999762 0
  outer loop
   vertex 0.00545242 0.0448594 0
   vertex 2.29621e-17 0.0447404 0.5
   vertex 2.29621e-17 0.0447404 0
  endloop
 endfacet
 facet normal -0.0218146 -0.999762 -0
  outer loop
   vertex 2.29621e-17 0.0447404 0.5
   vertex -0.00545242 0.0448594 0.5
   vertex 2.29621e-17 0.0447404 0
  endloop
 endfacet
 facet normal -0.0218146 -0.999762 0
  outer loop
   vertex 2.29621e-17 0.0447404 0
   vertex -0.00545242 0.0448594 0.5
   vertex -0.00545242 0.0448594 0
  endloop
 endfacet
 facet normal -0.0654029 -0.997859 -0
  outer loop
   vertex -0.00545242 0.0448594 0.5
   vertex -0.0108945 0.0452161 0.5
   vertex -0.00545242 0.0448594 0
  endloop
 endfacet
 facet normal -0.0654029 -0.997859 0
  outer loop
   vertex -0.00545242 0.0448594 0
   vertex -0.0108945 0.0452161 0.5
   vertex -0.0108945 0.0452161 0
  endloop
 endfacet
 facet normal -0.108867 -0.994056 -0
  outer loop
   vertex -0.0108945 0.0452161 0.5
   vertex -0.0163158 0.0458098 0.5
   vertex -0.0108945 0.0452161 0
  endloop
 endfacet
 facet normal -0.108867 -0.994056 0
  outer loop
   vertex -0.0108945 0.0452161 0
   vertex -0.0163158 0.0458098 0.5
   vertex -0.0163158 0.0458098 0
  endloop
 endfacet
 facet normal -0.152124 -0.988361 -0
  outer loop
   vertex -0.0163158 0.0458098 0.5
   vertex -0.021706 0.0466394 0.5
   vertex -0.0163158 0.0458098 0
  endloop
 endfacet
 facet normal -0.152124 -0.988361 0
  outer loop
   vertex -0.0163158 0.0458098 0
   vertex -0.021706 0.0466394 0.5
   vertex -0.021706 0.0466394 0
  endloop
 endfacet
 facet normal -0.19509 -0.980785 -0
  outer loop
   vertex -0.021706 0.0466394 0.5
   vertex -0.027055 0.0477034 0.5
   vertex -0.021706 0.0466394 0
  endloop
 endfacet
 facet normal -0.19509 -0.980785 0
  outer loop
   vertex -0.021706 0.0466394 0
   vertex -0.027055 0.0477034 0.5
   vertex -0.027055 0.0477034 0
  endloop
 endfacet
 facet normal -0.237686 -0.971342 -0
  outer loop
   vertex -0.027055 0.0477034 0.5
   vertex -0.0323524 0.0489997 0.5
   vertex -0.027055 0.0477034 0
  endloop
 endfacet
 facet normal -0.237686 -0.971342 0
  outer loop
   vertex -0.027055 0.0477034 0
   vertex -0.0323524 0.0489997 0.5
   vertex -0.0323524 0.0489997 0
  endloop
 endfacet
 facet normal -0.279829 -0.96005 -0
  outer loop
   vertex -0.0323524 0.0489997 0.5
   vertex -0.0375882 0.0505258 0.5
   vertex -0.0323524 0.0489997 0
  endloop
 endfacet
 facet normal -0.279829 -0.96005 0
  outer loop
   vertex -0.0323524 0.0489997 0
   vertex -0.0375882 0.0505258 0.5
   vertex -0.0375882 0.0505258 0
  endloop
 endfacet
 facet normal -0.321439 -0.94693 -0
  outer loop
   vertex -0.0375882 0.0505258 0.5
   vertex -0.0427525 0.0522788 0.5
   vertex -0.0375882 0.0505258 0
  endloop
 endfacet
 facet normal -0.321439 -0.94693 0
  outer loop
   vertex -0.0375882 0.0505258 0
   vertex -0.0427525 0.0522788 0.5
   vertex -0.0427525 0.0522788 0
  endloop
 endfacet
 facet normal -0.362439 -0.932008 -0
  outer loop
   vertex -0.0427525 0.0522788 0.5
   vertex -0.0478354 0.0542555 0.5
   vertex -0.0427525 0.0522788 0
  endloop
 endfacet
 facet normal -0.362439 -0.932008 0
  outer loop
   vertex -0.0427525 0.0522788 0
   vertex -0.0478354 0.0542555 0.5
   vertex -0.0478354 0.0542555 0
  endloop
 endfacet
 facet normal -0.402745 -0.915312 -0
  outer loop
   vertex -0.0478354 0.0542555 0.5
   vertex -0.0528273 0.0564519 0.5
   vertex -0.0478354 0.0542555 0
  endloop
 endfacet
 facet normal -0.402745 -0.915312 0
  outer loop
   vertex -0.0478354 0.0542555 0
   vertex -0.0528273 0.0564519 0.5
   vertex -0.0528273 0.0564519 0
  endloop
 endfacet
 facet normal -0.44229 -0.896872 -0
  outer loop
   vertex -0.0528273 0.0564519 0.5
   vertex -0.0577186 0.058864 0.5
   vertex -0.0528273 0.0564519 0
  endloop
 endfacet
 facet normal -0.44229 -0.896872 0
  outer loop
   vertex -0.0528273 0.0564519 0
   vertex -0.0577186 0.058864 0.5
   vertex -0.0577186 0.058864 0
  endloop
 endfacet
 facet normal -0.480989 -0.876727 -0
  outer loop
   vertex -0.0577186 0.058864 0.5
   vertex -0.0625 0.0614872 0.5
   vertex -0.0577186 0.058864 0
  endloop
 endfacet
 facet normal -0.480989 -0.876727 0
  outer loop
   vertex -0.0577186 0.058864 0
   vertex -0.0625 0.0614872 0.5
   vertex -0.0625 0.0614872 0
  endloop
 endfacet
 facet normal -0.518773 -0.854912 -0
  outer loop
   vertex -0.0625 0.0614872 0.5
   vertex -0.0671625 0.0643165 0.5
   vertex -0.0625 0.0614872 0
  endloop
 endfacet
 facet normal -0.518773 -0.854912 0
  outer loop
   vertex -0.0625 0.0614872 0
   vertex -0.0671625 0.0643165 0.5
   vertex -0.0671625 0.0643165 0
  endloop
 endfacet
 facet normal -0.55557 -0.83147 -0
  outer loop
   vertex -0.0671625 0.0643165 0.5
   vertex -0.0716971 0.0673464 0.5
   vertex -0.0671625 0.0643165 0
  endloop
 endfacet
 facet normal -0.55557 -0.83147 0
  outer loop
   vertex -0.0671625 0.0643165 0
   vertex -0.0716971 0.0673464 0.5
   vertex -0.0716971 0.0673464 0
  endloop
 endfacet
 facet normal -0.59131 -0.806444 -0
  outer loop
   vertex -0.0716971 0.0673464 0.5
   vertex -0.0760952 0.0705712 0.5
   vertex -0.0716971 0.0673464 0
  endloop
 endfacet
 facet normal -0.59131 -0.806444 0
  outer loop
   vertex -0.0716971 0.0673464 0
   vertex -0.0760952 0.0705712 0.5
   vertex -0.0760952 0.0705712 0
  endloop
 endfacet
 facet normal -0.625923 -0.779885 -0
  outer loop
   vertex -0.0760952 0.0705712 0.5
   vertex -0.0803485 0.0739848 0.5
   vertex -0.0760952 0.0705712 0
  endloop
 endfacet
 facet normal -0.625923 -0.779885 0
  outer loop
   vertex -0.0760952 0.0705712 0
   vertex -0.0803485 0.0739848 0.5
   vertex -0.0803485 0.0739848 0
  endloop
 endfacet
 facet normal -0.659346 -0.75184 -0
  outer loop
   vertex -0.0803485 0.0739848 0.5
   vertex -0.0844488 0.0775807 0.5
   vertex -0.0803485 0.0739848 0
  endloop
 endfacet
 facet normal -0.659346 -0.75184 0
  outer loop
   vertex -0.0803485 0.0739848 0
   vertex -0.0844488 0.0775807 0.5
   vertex -0.0844488 0.0775807 0
  endloop
 endfacet
 facet normal -0.691513 -0.722364 -0
  outer loop
   vertex -0.0844488 0.0775807 0.5
   vertex -0.0883883 0.0813521 0.5
   vertex -0.0844488 0.0775807 0
  endloop
 endfacet
 facet normal -0.691513 -0.722364 0
  outer loop
   vertex -0.0844488 0.0775807 0
   vertex -0.0883883 0.0813521 0.5
   vertex -0.0883883 0.0813521 0
  endloop
 endfacet
 facet normal -0.722364 -0.691513 -0
  outer loop
   vertex -0.0883883 0.0813521 0.5
   vertex -0.0921597 0.0852916 0.5
   vertex -0.0883883 0.0813521 0
  endloop
 endfacet
 facet normal -0.722364 -0.691513 0
  outer loop
   vertex -0.0883883 0.0813521 0
   vertex -0.0921597 0.0852916 0.5
   vertex -0.0921597 0.0852916 0
  endloop
 endfacet
 facet normal -0.75184 -0.659346 -0
  outer loop
   vertex -0.0921597 0.0852916 0.5
   vertex -0.0957556 0.0893919 0.5
   vertex -0.0921597 0.0852916 0
  endloop
 endfacet
 facet normal -0.75184 -0.659346 0
  outer loop
   vertex -0.0921597 0.0852916 0
   vertex -0.0957556 0.0893919 0.5
   vertex -0.0957556 0.0893919 0
  endloop
 endfacet
 facet normal -0.779885 -0.625923 -0
  outer loop
   vertex -0.0957556 0.0893919 0.5
   vertex -0.0991692 0.0936452 0.5
   vertex -0.0957556 0.0893919 0
  endloop
 endfacet
 facet normal -0.779885 -0.625923 0
  outer loop
   vertex -0.0957556 0.0893919 0
   vertex -0.0991692 0.0936452 0.5
   vertex -0.0991692 0.0936452 0
  endloop
 endfacet
 facet normal -0.806444 -0.59131 -0
  outer loop
   vertex -0.0991692 0.0936452 0.5
   vertex -0.102394 0.0980433 0.5
   vertex -0.0991692 0.0936452 0
  endloop
 endfacet
 facet normal -0.806444 -0.59131 0
  outer loop
   vertex -0.0991692 0.0936452 0
   vertex -0.102394 0.0980433 0.5
   vertex -0.102394 0.0980433 0
  endloop
 endfacet
 facet normal -0.83147 -0.55557 -0
  outer loop
   vertex -0.102394 0.0980433 0.5
   vertex -0.105424 0.102578 0.5
   vertex -0.102394 0.0980433 0
  endloop
 endfacet
 facet normal -0.83147 -0.55557 0
  outer loop
   vertex -0.102394 0.0980433 0
   vertex -0.105424 0.102578 0.5
   vertex -0.105424 0.102578 0
  endloop
 endfacet
 facet normal -0.854912 -0.518773 -0
  outer loop
   vertex -0.105424 0.102578 0.5
   vertex -0.108253 0.10724 0.5
   vertex -0.105424 0.102578 0
  endloop
 endfacet
 facet normal -0.854912 -0.518773 0
  outer loop
   vertex -0.105424 0.102578 0
   vertex -0.108253 0.10724 0.5
   vertex -0.108253 0.10724 0
  endloop
 endfacet
 facet normal -0.876727 -0.480989 -0
  outer loop
   vertex -0.108253 0.10724 0.5
   vertex -0.110876 0.112022 0.5
   vertex -0.108253 0.10724 0
  endloop
 endfacet
 facet normal -0.876727 -0.480989 0
  outer loop
   vertex -0.108253 0.10724 0
   vertex -0.110876 0.112022 0.5
   vertex -0.110876 0.112022 0
  endloop
 endfacet
 facet normal -0.896872 -0.44229 -0
  outer loop
   vertex -0.110876 0.112022 0.5
   vertex -0.113288 0.116913 0.5
   vertex -0.110876 0.112022 0
  endloop
 endfacet
 facet normal -0.896872 -0.44229 0
  outer loop
   vertex -0.110876 0.112022 0
   vertex -0.113288 0.116913 0.5
   vertex -0.113288 0.116913 0
  endloop
 endfacet
 facet normal -0.915312 -0.402745 -0
  outer loop
   vertex -0.113288 0.116913 0.5
   vertex -0.115485 0.121905 0.5
   vertex -0.113288 0.116913 0
  endloop
 endfacet
 facet normal -0.915312 -0.402745 0
  outer loop
   vertex -0.113288 0.116913 0
   vertex -0.115485 0.121905 0.5
   vertex -0.115485 0.121905 0
  endloop
 endfacet
 facet normal -0.932008 -0.362439 -0
  outer loop
   vertex -0.115485 0.121905 0.5
   vertex -0.117462 0.126988 0.5
   vertex -0.115485 0.121905 0
  endloop
 endfacet
 facet normal -0.932008 -0.362439 0
  outer loop
   vertex -0.115485 0.121905 0
   vertex -0.117462 0.126988 0.5
   vertex -0.117462 0.126988 0
  endloop
 endfacet
 facet normal -0.94693 -0.321439 -0
  outer loop
   vertex -0.117462 0.126988 0.5
   vertex -0.119215 0.132152 0.5
   vertex -0.117462 0.126988 0
  endloop
 endfacet
 facet normal -0.94693 -0.321439 0
  outer loop
   vertex -0.117462 0.126988 0
   vertex -0.119215 0.132152 0.5
   vertex -0.119215 0.132152 0
  endloop
 endfacet
 facet normal -0.96005 -0.279829 -0
  outer loop
   vertex -0.119215 0.132152 0.5
   vertex -0.120741 0.137388 0.5
   vertex -0.119215 0.132152 0
  endloop
 endfacet
 facet normal -0.96005 -0.279829 0
  outer loop
   vertex -0.119215 0.132152 0
   vertex -0.120741 0.137388 0.5
   vertex -0.120741 0.137388 0
  endloop
 endfacet
 facet normal -0.971342 -0.237686 -0
  outer loop
   vertex -0.120741 0.137388 0.5
   vertex -0.122037 0.142685 0.5
   vertex -0.120741 0.137388 0
  endloop
 endfacet
 facet normal -0.971342 -0.237686 0
  outer loop
   vertex -0.120741 0.137388 0
   vertex -0.122037 0.142685 0.5
   vertex -0.122037 0.142685 0
  endloop
 endfacet
 facet normal -0.980785 -0.19509 -0
  outer loop
   vertex -0.122037 0.142685 0.5
   vertex -0.123101 0.148034 0.5
   vertex -0.122037 0.142685 0
  endloop
 endfacet
 facet normal -0.980785 -0.19509 0
  outer loop
   vertex -0.122037 0.142685 0
   vertex -0.123101 0.148034 0.5
   vertex -0.123101 0.148034 0
  endloop
 endfacet
 facet normal -0.988361 -0.152124 -0
  outer loop
   vertex -0.123101 0.148034 0.5
   vertex -0.123931 0.153425 0.5
   vertex -0.123101 0.148034 0
  endloop
 endfacet
 facet normal -0.988361 -0.152124 0
  outer loop
   vertex -0.123101 0.148034 0
   vertex -0.123931 0.153425 0.5
   vertex -0.123931 0.153425 0
  endloop
 endfacet
 facet normal -0.994056 -0.108867 -0
  outer loop
   vertex -0.123931 0.153425 0.5
   vertex -0.124524 0.158846 0.5
   vertex -0.123931 0.153425 0
  endloop
 endfacet
 facet normal -0.994056 -0.108867 0
  outer loop
   vertex -0.123931 0.153425 0
   vertex -0.124524 0.158846 0.5
   vertex -0.124524 0.158846 0
  endloop
 endfacet
 facet normal -0.997859 -0.0654029 -0
  outer loop
   vertex -0.124524 0.158846 0.5
   vertex -0.124881 0.164288 0.5
   vertex -0.124524 0.158846 0
  endloop
 endfacet
 facet normal -0.997859 -0.0654029 0
  outer loop
   vertex -0.124524 0.158846 0
   vertex -0.124881 0.164288 0.5
   vertex -0.124881 0.164288 0
  endloop
 endfacet
 facet normal -0.999762 -0.0218146 -0
  outer loop
   vertex -0.124881 0.164288 0.5
   vertex -0.125 0.16974 0.5
   vertex -0.124881 0.164288 0
  endloop
 endfacet
 facet normal -0.999762 -0.0218146 0
  outer loop
   vertex -0.124881 0.164288 0
   vertex -0.125 0.16974 0.5
   vertex -0.125 0.16974 0
  endloop
 endfacet
 facet normal -0.999762 0.0218146 0
  outer loop
   vertex -0.125 0.16974 0.5
   vertex -0.124881 0.175193 0.5
   vertex -0.125 0.16974 0
  endloop
 endfacet
 facet normal 0 -0 1
  outer loop
   vertex 0.124524 0.158846 0.5
   vertex 0.124881 0.164288 0.5
   vertex 0 0.16974 0.5
  endloop
 endfacet
 facet normal 0 -0 1
  outer loop
   vertex 0.124881 0.164288 0.5
   vertex 0.125 0.16974 0.5
   vertex 0 0.16974 0.5
  endloop
 endfacet
 facet normal 0 0 1
  outer loop
   vertex 0 0.16974 0.5
   vertex 0.125 0.16974 0.5
   vertex 0.124881 0.175193 0.5
  endloop
 endfacet
 facet normal 0 -0 1
  outer loop
   vertex 0.122037 0.142685 0.5
   vertex 0.123101 0.148034 0.5
   vertex 0 0.16974 0.5
  endloop
 endfacet
 facet normal 0 -0 1
  outer loop
   vertex 0.123101 0.148034 0.5
   vertex 0.123931 0.153425 0.5
   vertex 0 0.16974 0.5
  endloop
 endfacet
 facet normal 0 0 1
  outer loop
   vertex 0 0.16974 0.5
   vertex 0.123931 0.153425 0.5
   vertex 0.124524 0.158846 0.5
  endloop
 endfacet
 facet normal 0 -0 1
  outer loop
   vertex 0.117462 0.126988 0.5
   vertex 0.119215 0.132152 0.5
   vertex 0 0.16974 0.5
  endloop
 endfacet
 facet normal 0 -0 1
  outer loop
   vertex 0.119215 0.132152 0.5
   vertex 0.120741 0.137388 0.5
   vertex 0 0.16974 0.5
  endloop
 endfacet
 facet normal 0 0 1
  outer loop
   vertex 0 0.16974 0.5
   vertex 0.120741 0.137388 0.5
   vertex 0.122037 0.142685 0.5
  endloop
 endfacet
 facet normal 0 -0 1
  outer loop
   vertex 0.110876 0.112022 0.5
   vertex 0.113288 0.116913 0.5
   vertex 0 0.16974 0.5
  endloop
 endfacet
 facet normal 0 -0 1
  outer loop
   vertex 0.113288 0.116913 0.5
   vertex 0.115485 0.121905 0.5
   vertex 0 0.16974 0.5
  endloop
 endfacet
 facet normal 0 0 1
  outer loop
   vertex 0 0.16974 0.5
   vertex 0.115485 0.121905 0.5
   vertex 0.117462 0.126988 0.5
  endloop
 endfacet
 facet normal 0 -0 1
  outer loop
   vertex 0.102394 0.0980433 0.5
   vertex 0.105424 0.102578 0.5
   vertex 0 0.16974 0.5
  endloop
 endfacet
 facet normal 0 -0 1
  outer loop
   vertex 0.105424 0.102578 0.5
   vertex 0.108253 0.10724 0.5
   vertex 0 0.16974 0.5
  endloop
 endfacet
 facet normal 0 0 1
  outer loop
   vertex 0 0.16974 0.5
   vertex 0.108253 0.10724 0.5
   vertex 0.110876 0.112022 0.5
  endloop
 endfacet
 facet normal 0 -0 1
  outer loop
   vertex 0.0921597 0.0852916 0.5
   vertex 0.0957556 0.0893919 0.5
   vertex 0 0.16974 0.5
  endloop
 endfacet
 facet normal 0 -0 1
  outer loop
   vertex 0.0957556 0.0893919 0.5
   vertex 0.0991692 0.0936452 0.5
   vertex 0 0.16974 0.5
  endloop
 endfacet
 facet normal 0 0 1
  outer loop
   vertex 0 0.16974 0.5
   vertex 0.0991692 0.0936452 0.5
   vertex 0.102394 0.0980433 0.5
  endloop
 endfacet
 facet normal 0 -0 1
  outer loop
   vertex 0.0803485 0.0739848 0.5
   vertex 0.0844488 0.0775807 0.5
   vertex 0 0.16974 0.5
  endloop
 endfacet
 facet normal 0 -0 1
  outer loop
   vertex 0.0844488 0.0775807 0.5
   vertex 0.0883883 0.0813521 0.5
   vertex 0 0.16974 0.5
  endloop
 endfacet
 facet normal 0 0 1
  outer loop
   vertex 0 0.16974 0.5
   vertex 0.0883883 0.0813521 0.5
   vertex 0.0921597 0.0852916 0.5
  endloop
 endfacet
 facet normal 0 -0 1
  outer loop
   vertex 0.0671625 0.0643165 0.5
   vertex 0.0716971 0.0673464 0.5
   vertex 0 0.16974 0.5
  endloop
 endfacet
 facet normal 0 -0 1
  outer loop
   vertex 0.0716971 0.0673464 0.5
   vertex 0.0760952 0.0705712 0.5
   vertex 0 0.16974 0.5
  endloop
 endfacet
 facet normal 0 0 1
  outer loop
   vertex 0 0.16974 0.5
   vertex 0.0760952 0.0705712 0.5
   vertex 0.0803485 0.0739848 0.5
  endloop
 endfacet
 facet normal 0 -0 1
  outer loop
   vertex 0.0528273 0.0564519 0.5
   vertex 0.0577186 0.058864 0.5
   vertex 0 0.16974 0.5
  endloop
 endfacet
 facet normal 0 -0 1
  outer loop
   vertex 0.0577186 0.058864 0.5
   vertex 0.0625 0.0614872 0.5
   vertex 0 0.16974 0.5
  endloop
 endfacet
 facet normal 0 0 1
  outer loop
   vertex 0 0.16974 0.5
   vertex 0.0625 0.0614872 0.5
   vertex 0.0671625 0.0643165 0.5
  endloop
 endfacet
 facet normal 0 -0 1
  outer loop
   vertex 0.0375882 0.0505258 0.5
   vertex 0.0427525 0.0522788 0.5
   vertex 0 0.16974 0.5
  endloop
 endfacet
 facet normal 0 -0 1
  outer loop
   vertex 0.0427525 0.0522788 0.5
   vertex 0.0478354 0.0542555 0.5
   vertex 0 0.16974 0.5
  endloop
 endfacet
 facet normal 0 0 1
  outer loop
   vertex 0 0.16974 0.5
   vertex 0.0478354 0.0542555 0.5
   vertex 0.0528273 0.0564519 0.5
  endloop
 endfacet
 facet normal 0 -0 1
  outer loop
   vertex 0.021706 0.0466394 0.5
   vertex 0.027055 0.0477034 0.5
   vertex 0 0.16974 0.5
  endloop
 endfacet
 facet normal 0 -0 1
  outer loop
   vertex 0.027055 0.0477034 0.5
   vertex 0.0323524 0.0489997 0.5
   vertex 0 0.16974 0.5
  endloop
 endfacet
 facet normal 0 0 1
  outer loop
   vertex 0 0.16974 0.5
   vertex 0.0323524 0.0489997 0.5
   vertex 0.0375882 0.0505258 0.5
  endloop
 endfacet
 facet normal 0 -0 1
  outer loop
   vertex 0.00545242 0.0448594 0.5
   vertex 0.0108945 0.0452161 0.5
   vertex 0 0.16974 0.5
  endloop
 endfacet
 facet normal 0 -0 1
  outer loop
   vertex 0.0108945 0.0452161 0.5
   vertex 0.0163158 0.0458098 0.5
   vertex 0 0.16974 0.5
  endloop
 endfacet
 facet normal 0 0 1
  outer loop
   vertex 0 0.16974 0.5
   vertex 0.0163158 0.0458098 0.5
   vertex 0.021706 0.0466394 0.5
  endloop
 endfacet
 facet normal -0 0 1
  outer loop
   vertex -0.0108945 0.0452161 0.5
   vertex -0.00545242 0.0448594 0.5
   vertex 0 0.16974 0.5
  endloop
 endfacet
 facet normal -0 0 1
  outer loop
   vertex -0.00545242 0.0448594 0.5
   vertex 2.29621e-17 0.0447404 0.5
   vertex 0 0.16974 0.5
  endloop
 endfacet
 facet normal 0 0 1
  outer loop
   vertex 0 0.16974 0.5
   vertex 2.29621e-17 0.0447404 0.5
   vertex 0.00545242 0.0448594 0.5
  endloop
 endfacet
 facet normal -0 0 1
  outer loop
   vertex -0.027055 0.0477034 0.5
   vertex -0.021706 0.0466394 0.5
   vertex 0 0.16974 0.5
  endloop
 endfacet
 facet normal -0 0 1
  outer loop
   vertex -0.021706 0.0466394 0.5
   vertex -0.0163158 0.0458098 0.5
   vertex 0 0.16974 0.5
  endloop
 endfacet
 facet normal 0 0 1
  outer loop
   vertex 0 0.16974 0.5
   vertex -0.0163158 0.0458098 0.5
   vertex -0.0108945 0.0452161 0.5
  endloop
 endfacet
 facet normal -0 0 1
  outer loop
   vertex -0.0427525 0.0522788 0.5
   vertex -0.0375882 0.0505258 0.5
   vertex 0 0.16974 0.5
  endloop
 endfacet
 facet normal -0 0 1
  outer loop
   vertex -0.0375882 0.0505258 0.5
   vertex -0.0323524 0.0489997 0.5
   vertex 0 0.16974 0.5
  endloop
 endfacet
 facet normal 0 0 1
  outer loop
   vertex 0 0.16974 0.5
   vertex -0.0323524 0.0489997 0.5
   vertex -0.027055 0.0477034 0.5
  endloop
 endfacet
 facet normal -0 0 1
  outer loop
   vertex -0.0577186 0.058864 0.5
   vertex -0.0528273 0.0564519 0.5
   vertex 0 0.16974 0.5
  endloop
 endfacet
 facet normal -0 0 1
  outer loop
   vertex -0.0528273 0.0564519 0.5
   vertex -0.0478354 0.0542555 0.5
   vertex 0 0.16974 0.5
  endloop
 endfacet
 facet normal 0 0 1
  outer loop
   vertex 0 0.16974 0.5
   vertex -0.0478354 0.0542555 0.5
   vertex -0.0427525 0.0522788 0.5
  endloop
 endfacet
 facet normal -0 0 1
  outer loop
   vertex -0.0716971 0.0673464 0.5
   vertex -0.0671625 0.0643165 0.5
   vertex 0 0.16974 0.5
  endloop
 endfacet
 facet normal -0 0 1
  outer loop
   vertex -0.0671625 0.0643165 0.5
   vertex -0.0625 0.0614872 0.5
   vertex 0 0.16974 0.5
  endloop
 endfacet
 facet normal 0 0 1
  outer loop
   vertex 0 0.16974 0.5
   vertex -0.0625 0.0614872 0.5
   vertex -0.0577186 0.058864 0.5
  endloop
 endfacet
 facet normal -0 0 1
  outer loop
   vertex -0.0844488 0.0775807 0.5
   vertex -0.0803485 0.0739848 0.5
   vertex 0 0.16974 0.5
  endloop
 endfacet
 facet normal -0 0 1
  outer loop
   vertex -0.0803485 0.0739848 0.5
   vertex -0.0760952 0.0705712 0.5
   vertex 0 0.16974 0.5
  endloop
 endfacet
 facet normal 0 0 1
  outer loop
   vertex 0 0.16974 0.5
   vertex -0.0760952 0.0705712 0.5
   vertex -0.0716971 0.0673464 0.5
  endloop
 endfacet
 facet normal -0 0 1
  outer loop
   vertex -0.0957556 0.0893919 0.5
   vertex -0.0921597 0.0852916 0.5
   vertex 0 0.16974 0.5
  endloop
 endfacet
 facet normal -0 0 1
  outer loop
   vertex -0.0921597 0.0852916 0.5
   vertex -0.0883883 0.0813521 0.5
   vertex 0 0.16974 0.5
  endloop
 endfacet
 facet normal 0 0 1
  outer loop
   vertex 0 0.16974 0.5
   vertex -0.0883883 0.0813521 0.5
   vertex -0.0844488 0.0775807 0.5
  endloop
 endfacet
 facet normal -0 0 1
  outer loop
   vertex -0.105424 0.102578 0.5
   vertex -0.102394 0.0980433 0.5
   vertex 0 0.16974 0.5
  endloop
 endfacet
 facet normal -0 0 1
  outer loop
   vertex -0.102394 0.0980433 0.5
   vertex -0.0991692 0.0936452 0.5
   vertex 0 0.16974 0.5
  endloop
 endfacet
 facet normal 0 0 1
  outer loop
   vertex 0 0.16974 0.5
   vertex -0.0991692 0.0936452 0.5
   vertex -0.0957556 0.0893919 0.5
  endloop
 endfacet
 facet normal -0 0 1
  outer loop
   vertex -0.113288 0.116913 0.5
   vertex -0.110876 0.112022 0.5
   vertex 0 0.16974 0.5
  endloop
 endfacet
 facet normal -0 0 1
  outer loop
   vertex -0.110876 0.112022 0.5
   vertex -0.108253 0.10724 0.5
   vertex 0 0.16974 0.5
  endloop
 endfacet
 facet normal 0 0 1
  outer loop
   vertex 0 0.16974 0.5
   vertex -0.108253 0.10724 0.5
   vertex -0.105424 0.102578 0.5
  endloop
 endfacet
 facet normal -0 0 1
  outer loop
   vertex -0.119215 0.132152 0.5
   vertex -0.117462 0.126988 0.5
   vertex 0 0.16974 0.5
  endloop
 endfacet
 facet normal -0 0 1
  outer loop
   vertex -0.117462 0.126988 0.5
   vertex -0.115485 0.121905 0.5
   vertex 0 0.16974 0.5
  endloop
 endfacet
 facet normal 0 0 1
  outer loop
   vertex 0 0.16974 0.5
   vertex -0.115485 0.121905 0.5
   vertex -0.113288 0.116913 0.5
  endloop
 endfacet
 facet normal -0 0 1
  outer loop
   vertex -0.123101 0.148034 0.5
   vertex -0.122037 0.142685 0.5
   vertex 0 0.16974 0.5
  endloop
 endfacet
 facet normal -0 0 1
  outer loop
   vertex -0.122037 0.142685 0.5
   vertex -0.120741 0.137388 0.5
   vertex 0 0.16974 0.5
  endloop
 endfacet
 facet normal 0 0 1
  outer loop
   vertex 0 0.16974 0.5
   vertex -0.120741 0.137388 0.5
   vertex -0.119215 0.132152 0.5
  endloop
 endfacet
 facet normal -0 0 1
  outer loop
   vertex -0.124881 0.164288 0.5
   vertex -0.124524 0.158846 0.5
   vertex 0 0.16974 0.5
  endloop
 endfacet
 facet normal -0 0 1
  outer loop
   vertex -0.124524 0.158846 0.5
   vertex -0.123931 0.153425 0.5
   vertex 0 0.16974 0.5
  endloop
 endfacet
 facet normal 0 0 1
  outer loop
   vertex 0 0.16974 0.5
   vertex -0.123931 0.153425 0.5
   vertex -0.123101 0.148034 0.5
  endloop
 endfacet
 facet normal 0 0 1
  outer loop
   vertex -0.124524 0.180635 0.5
   vertex -0.124881 0.175193 0.5
   vertex 0 0.16974 0.5
  endloop
 endfacet
 facet normal 0 0 1
  outer loop
   vertex -0.124881 0.175193 0.5
   vertex -0.125 0.16974 0.5
   vertex 0 0.16974 0.5
  endloop
 endfacet
 facet normal 0 0 1
  outer loop
   vertex 0 0.16974 0.5
   vertex -0.125 0.16974 0.5
   vertex -0.124881 0.164288 0.5
  endloop
 endfacet
 facet normal 0 0 1
  outer loop
   vertex -0.122037 0.196795 0.5
   vertex -0.123101 0.191446 0.5
   vertex 0 0.16974 0.5
  endloop
 endfacet
 facet normal 0 0 1
  outer loop
   vertex -0.123101 0.191446 0.5
   vertex -0.123931 0.186056 0.5
   vertex 0 0.16974 0.5
  endloop
 endfacet
 facet normal 0 0 1
  outer loop
   vertex 0 0.16974 0.5
   vertex -0.123931 0.186056 0.5
   vertex -0.124524 0.180635 0.5
  endloop
 endfacet
 facet normal 0 0 1
  outer loop
   vertex -0.117462 0.212493 0.5
   vertex -0.119215 0.207329 0.5
   vertex 0 0.16974 0.5
  endloop
 endfacet
 facet normal 0 0 1
  outer loop
   vertex -0.119215 0.207329 0.5
   vertex -0.120741 0.202093 0.5
   vertex 0 0.16974 0.5
  endloop
 endfacet
 facet normal 0 0 1
  outer loop
   vertex 0 0.16974 0.5
   vertex -0.120741 0.202093 0.5
   vertex -0.122037 0.196795 0.5
  endloop
 endfacet
 facet normal 0 0 1
  outer loop
   vertex -0.110876 0.227459 0.5
   vertex -0.113288 0.222568 0.5
   vertex 0 0.16974 0.5
  endloop
 endfacet
 facet normal 0 0 1
  outer loop
   vertex -0.113288 0.222568 0.5
   vertex -0.115485 0.217576 0.5
   vertex 0 0.16974 0.5
  endloop
 endfacet
 facet normal 0 0 1
  outer loop
   vertex 0 0.16974 0.5
   vertex -0.115485 0.217576 0.5
   vertex -0.117462 0.212493 0.5
  endloop
 endfacet
 facet normal 0 0 1
  outer loop
   vertex -0.102394 0.241437 0.5
   vertex -0.105424 0.236903 0.5
   vertex 0 0.16974 0.5
  endloop
 endfacet
 facet normal 0 0 1
  outer loop
   vertex -0.105424 0.236903 0.5
   vertex -0.108253 0.23224 0.5
   vertex 0 0.16974 0.5
  endloop
 endfacet
 facet normal 0 0 1
  outer loop
   vertex 0 0.16974 0.5
   vertex -0.108253 0.23224 0.5
   vertex -0.110876 0.227459 0.5
  endloop
 endfacet
 facet normal 0 0 1
  outer loop
   vertex -0.0921597 0.254189 0.5
   vertex -0.0957556 0.250089 0.5
   vertex 0 0.16974 0.5
  endloop
 endfacet
 facet normal 0 0 1
  outer loop
   vertex -0.0957556 0.250089 0.5
   vertex -0.0991692 0.245836 0.5
   vertex 0 0.16974 0.5
  endloop
 endfacet
 facet normal 0 0 1
  outer loop
   vertex 0 0.16974 0.5
   vertex -0.0991692 0.245836 0.5
   vertex -0.102394 0.241437 0.5
  endloop
 endfacet
 facet normal 0 0 1
  outer loop
   vertex -0.0803485 0.265496 0.5
   vertex -0.0844488 0.2619 0.5
   vertex 0 0.16974 0.5
  endloop
 endfacet
 facet normal 0 0 1
  outer loop
   vertex -0.0844488 0.2619 0.5
   vertex -0.0883883 0.258129 0.5
   vertex 0 0.16974 0.5
  endloop
 endfacet
 facet normal 0 0 1
  outer loop
   vertex 0 0.16974 0.5
   vertex -0.0883883 0.258129 0.5
   vertex -0.0921597 0.254189 0.5
  endloop
 endfacet
 facet normal 0 0 1
  outer loop
   vertex -0.0671625 0.275164 0.5
   vertex -0.0716971 0.272134 0.5
   vertex 0 0.16974 0.5
  endloop
 endfacet
 facet normal 0 0 1
  outer loop
   vertex -0.0716971 0.272134 0.5
   vertex -0.0760952 0.26891 0.5
   vertex 0 0.16974 0.5
  endloop
 endfacet
 facet normal 0 0 1
  outer loop
   vertex 0 0.16974 0.5
   vertex -0.0760952 0.26891 0.5
   vertex -0.0803485 0.265496 0.5
  endloop
 endfacet
 facet normal 0 0 1
  outer loop
   vertex -0.0528273 0.283029 0.5
   vertex -0.0577186 0.280617 0.5
   vertex 0 0.16974 0.5
  endloop
 endfacet
 facet normal 0 0 1
  outer loop
   vertex -0.0577186 0.280617 0.5
   vertex -0.0625 0.277994 0.5
   vertex 0 0.16974 0.5
  endloop
 endfacet
 facet normal 0 0 1
  outer loop
   vertex 0 0.16974 0.5
   vertex -0.0625 0.277994 0.5
   vertex -0.0671625 0.275164 0.5
  endloop
 endfacet
 facet normal 0 0 1
  outer loop
   vertex -0.0375882 0.288955 0.5
   vertex -0.0427525 0.287202 0.5
   vertex 0 0.16974 0.5
  endloop
 endfacet
 facet normal 0 0 1
  outer loop
   vertex -0.0427525 0.287202 0.5
   vertex -0.0478354 0.285225 0.5
   vertex 0 0.16974 0.5
  endloop
 endfacet
 facet normal 0 0 1
  outer loop
   vertex 0 0.16974 0.5
   vertex -0.0478354 0.285225 0.5
   vertex -0.0528273 0.283029 0.5
  endloop
 endfacet
 facet normal 0 0 1
  outer loop
   vertex -0.021706 0.292841 0.5
   vertex -0.027055 0.291777 0.5
   vertex 0 0.16974 0.5
  endloop
 endfacet
 facet normal 0 0 1
  outer loop
   vertex -0.027055 0.291777 0.5
   vertex -0.0323524 0.290481 0.5
   vertex 0 0.16974 0.5
  endloop
 endfacet
 facet normal 0 0 1
  outer loop
   vertex 0 0.16974 0.5
   vertex -0.0323524 0.290481 0.5
   vertex -0.0375882 0.288955 0.5
  endloop
 endfacet
 facet normal 0 0 1
  outer loop
   vertex -0.00545242 0.294621 0.5
   vertex -0.0108945 0.294265 0.5
   vertex 0 0.16974 0.5
  endloop
 endfacet
 facet normal 0 0 1
  outer loop
   vertex -0.0108945 0.294265 0.5
   vertex -0.0163158 0.293671 0.5
   vertex 0 0.16974 0.5
  endloop
 endfacet
 facet normal 0 0 1
  outer loop
   vertex 0 0.16974 0.5
   vertex -0.0163158 0.293671 0.5
   vertex -0.021706 0.292841 0.5
  endloop
 endfacet
 facet normal 0 0 1
  outer loop
   vertex 0.0108945 0.294265 0.5
   vertex 0.00545242 0.294621 0.5
   vertex 0 0.16974 0.5
  endloop
 endfacet
 facet normal 0 0 1
  outer loop
   vertex 0.00545242 0.294621 0.5
   vertex -7.65404e-18 0.29474 0.5
   vertex 0 0.16974 0.5
  endloop
 endfacet
 facet normal 0 0 1
  outer loop
   vertex 0 0.16974 0.5
   vertex -7.65404e-18 0.29474 0.5
   vertex -0.00545242 0.294621 0.5
  endloop
 endfacet
 facet normal 0 0 1
  outer loop
   vertex 0.027055 0.291777 0.5
   vertex 0.021706 0.292841 0.5
   vertex 0 0.16974 0.5
  endloop
 endfacet
 facet normal 0 0 1
  outer loop
   vertex 0.021706 0.292841 0.5
   vertex 0.0163158 0.293671 0.5
   vertex 0 0.16974 0.5
  endloop
 endfacet
 facet normal 0 0 1
  outer loop
   vertex 0 0.16974 0.5
   vertex 0.0163158 0.293671 0.5
   vertex 0.0108945 0.294265 0.5
  endloop
 endfacet
 facet normal 0 0 1
  outer loop
   vertex 0.0427525 0.287202 0.5
   vertex 0.0375882 0.288955 0.5
   vertex 0 0.16974 0.5
  endloop
 endfacet
 facet normal 0 0 1
  outer loop
   vertex 0.0375882 0.288955 0.5
   vertex 0.0323524 0.290481 0.5
   vertex 0 0.16974 0.5
  endloop
 endfacet
 facet normal 0 0 1
  outer loop
   vertex 0 0.16974 0.5
   vertex 0.0323524 0.290481 0.5
   vertex 0.027055 0.291777 0.5
  endloop
 endfacet
 facet normal 0 0 1
  outer loop
   vertex 0.0577186 0.280617 0.5
   vertex 0.0528273 0.283029 0.5
   vertex 0 0.16974 0.5
  endloop
 endfacet
 facet normal 0 0 1
  outer loop
   vertex 0.0528273 0.283029 0.5
   vertex 0.0478354 0.285225 0.5
   vertex 0 0.16974 0.5
  endloop
 endfacet
 facet normal 0 0 1
  outer loop
   vertex 0 0.16974 0.5
   vertex 0.0478354 0.285225 0.5
   vertex 0.0427525 0.287202 0.5
  endloop
 endfacet
 facet normal 0 0 1
  outer loop
   vertex 0.0716971 0.272134 0.5
   vertex 0.0671625 0.275164 0.5
   vertex 0 0.16974 0.5
  endloop
 endfacet
 facet normal 0 0 1
  outer loop
   vertex 0.0671625 0.275164 0.5
   vertex 0.0625 0.277994 0.5
   vertex 0 0.16974 0.5
  endloop
 endfacet
 facet normal 0 0 1
  outer loop
   vertex 0 0.16974 0.5
   vertex 0.0625 0.277994 0.5
   vertex 0.0577186 0.280617 0.5
  endloop
 endfacet
 facet normal 0 0 1
  outer loop
   vertex 0.0844488 0.2619 0.5
   vertex 0.0803485 0.265496 0.5
   vertex 0 0.16974 0.5
  endloop
 endfacet
 facet normal 0 0 1
  outer loop
   vertex 0.0803485 0.265496 0.5
   vertex 0.0760952 0.26891 0.5
   vertex 0 0.16974 0.5
  endloop
 endfacet
 facet normal 0 0 1
  outer loop
   vertex 0 0.16974 0.5
   vertex 0.0760952 0.26891 0.5
   vertex 0.0716971 0.272134 0.5
  endloop
 endfacet
 facet normal 0 0 1
  outer loop
   vertex 0.0957556 0.250089 0.5
   vertex 0.0921597 0.254189 0.5
   vertex 0 0.16974 0.5
  endloop
 endfacet
 facet normal 0 0 1
  outer loop
   vertex 0.0921597 0.254189 0.5
   vertex 0.0883883 0.258129 0.5
   vertex 0 0.16974 0.5
  endloop
 endfacet
 facet normal 0 0 1
  outer loop
   vertex 0 0.16974 0.5
   vertex 0.0883883 0.258129 0.5
   vertex 0.0844488 0.2619 0.5
  endloop
 endfacet
 facet normal 0 0 1
  outer loop
   vertex 0.105424 0.236903 0.5
   vertex 0.102394 0.241437 0.5
   vertex 0 0.16974 0.5
  endloop
 endfacet
 facet normal 0 0 1
  outer loop
   vertex 0.102394 0.241437 0.5
   vertex 0.0991692 0.245836 0.5
   vertex 0 0.16974 0.5
  endloop
 endfacet
 facet normal 0 0 1
  outer loop
   vertex 0 0.16974 0.5
   vertex 0.0991692 0.245836 0.5
   vertex 0.0957556 0.250089 0.5
  endloop
 endfacet
 facet normal 0 0 1
  outer loop
   vertex 0.113288 0.222568 0.5
   vertex 0.110876 0.227459 0.5
   vertex 0 0.16974 0.5
  endloop
 endfacet
 facet normal 0 0 1
  outer loop
   vertex 0.110876 0.227459 0.5
   vertex 0.108253 0.23224 0.5
   vertex 0 0.16974 0.5
  endloop
 endfacet
 facet normal 0 0 1
  outer loop
   vertex 0 0.16974 0.5
   vertex 0.108253 0.23224 0.5
   vertex 0.105424 0.236903 0.5
  endloop
 endfacet
 facet normal 0 0 1
  outer loop
   vertex 0.119215 0.207329 0.5
   vertex 0.117462 0.212493 0.5
   vertex 0 0.16974 0.5
  endloop
 endfacet
 facet normal 0 0 1
  outer loop
   vertex 0.117462 0.212493 0.5
   vertex 0.115485 0.217576 0.5
   vertex 0 0.16974 0.5
  endloop
 endfacet
 facet normal 0 0 1
  outer loop
   vertex 0 0.16974 0.5
   vertex 0.115485 0.217576 0.5
   vertex 0.113288 0.222568 0.5
  endloop
 endfacet
 facet normal 0 0 1
  outer loop
   vertex 0.123101 0.191446 0.5
   vertex 0.122037 0.196795 0.5
   vertex 0 0.16974 0.5
  endloop
 endfacet
 facet normal 0 0 1
  outer loop
   vertex 0.122037 0.196795 0.5
   vertex 0.120741 0.202093 0.5
   vertex 0 0.16974 0.5
  endloop
 endfacet
 facet normal 0 0 1
  outer loop
   vertex 0 0.16974 0.5
   vertex 0.120741 0.202093 0.5
   vertex 0.119215 0.207329 0.5
  endloop
 endfacet
 facet normal 0 0 1
  outer loop
   vertex 0.124881 0.175193 0.5
   vertex 0.124524 0.180635 0.5
   vertex 0 0.16974 0.5
  endloop
 endfacet
 facet normal 0 0 1
  outer loop
   vertex 0.124524 0.180635 0.5
   vertex 0.123931 0.186056 0.5
   vertex 0 0.16974 0.5
  endloop
 endfacet
 facet normal 0 0 1
  outer loop
   vertex 0 0.16974 0.5
   vertex 0.123931 0.186056 0.5
   vertex 0.123101 0.191446 0.5
  endloop
 endfacet
endsolid zone0
