solid zone0
 facet normal 0 -0 -1
  outer loop
   vertex 0.124524 0.172271 0
   vertex 0.124881 0.166829 0
   vertex 0 0.161377 0
  endloop
 endfacet
 facet normal 0 -0 -1
  outer loop
   vertex 0.124881 0.166829 0
   vertex 0.125 0.161377 0
   vertex 0 0.161377 0
  endloop
 endfacet
 facet normal 0 0 -1
  outer loop
   vertex 0 0.161377 0
   vertex 0.125 0.161377 0
   vertex 0.124881 0.155925 0
  endloop
 endfacet
 facet normal 0 -0 -1
  outer loop
   vertex 0.122037 0.188432 0
   vertex 0.123101 0.183083 0
   vertex 0 0.161377 0
  endloop
 endfacet
 facet normal 0 -0 -1
  outer loop
   vertex 0.123101 0.183083 0
   vertex 0.123931 0.177693 0
   vertex 0 0.161377 0
  endloop
 endfacet
 facet normal 0 0 -1
  outer loop
   vertex 0 0.161377 0
   vertex 0.123931 0.177693 0
   vertex 0.124524 0.172271 0
  endloop
 endfacet
 facet normal 0 -0 -1
  outer loop
   vertex 0.117462 0.204129 0
   vertex 0.119215 0.198965 0
   vertex 0 0.161377 0
  endloop
 endfacet
 facet normal 0 -0 -1
  outer loop
   vertex 0.119215 0.198965 0
   vertex 0.120741 0.193729 0
   vertex 0 0.161377 0
  endloop
 endfacet
 facet normal 0 0 -1
  outer loop
   vertex 0 0.161377 0
   vertex 0.120741 0.193729 0
   vertex 0.122037 0.188432 0
  endloop
 endfacet
 facet normal 0 -0 -1
  outer loop
   vertex 0.110876 0.219096 0
   vertex 0.113288 0.214204 0
   vertex 0 0.161377 0
  endloop
 endfacet
 facet normal 0 -0 -1
  outer loop
   vertex 0.113288 0.214204 0
   vertex 0.115485 0.209212 0
   vertex 0 0.161377 0
  endloop
 endfacet
 facet normal 0 0 -1
  outer loop
   vertex 0 0.161377 0
   vertex 0.115485 0.209212 0
   vertex 0.117462 0.204129 0
  endloop
 endfacet
 facet normal 0 -0 -1
  outer loop
   vertex 0.102394 0.233074 0
   vertex 0.105424 0.228539 0
   vertex 0 0.161377 0
  endloop
 endfacet
 facet normal 0 -0 -1
  outer loop
   vertex 0.105424 0.228539 0
   vertex 0.108253 0.223877 0
   vertex 0 0.161377 0
  endloop
 endfacet
 facet normal 0 0 -1
  outer loop
   vertex 0 0.161377 0
   vertex 0.108253 0.223877 0
   vertex 0.110876 0.219096 0
  endloop
 endfacet
 facet normal 0 -0 -1
  outer loop
   vertex 0.0921597 0.245826 0
   vertex 0.0957556 0.241725 0
   vertex 0 0.161377 0
  endloop
 endfacet
 facet normal 0 -0 -1
  outer loop
   vertex 0.0957556 0.241725 0
   vertex 0.0991692 0.237472 0
   vertex 0 0.161377 0
  endloop
 endfacet
 facet normal 0 0 -1
  outer loop
   vertex 0 0.161377 0
   vertex 0.0991692 0.237472 0
   vertex 0.102394 0.233074 0
  endloop
 endfacet
 facet normal 0 -0 -1
  outer loop
   vertex 0.0803485 0.257133 0
   vertex 0.0844488 0.253537 0
   vertex 0 0.161377 0
  endloop
 endfacet
 facet normal 0 -0 -1
  outer loop
   vertex 0.0844488 0.253537 0
   vertex 0.0883883 0.249765 0
   vertex 0 0.161377 0
  endloop
 endfacet
 facet normal 0 0 -1
  outer loop
   vertex 0 0.161377 0
   vertex 0.0883883 0.249765 0
   vertex 0.0921597 0.245826 0
  endloop
 endfacet
 facet normal 0 -0 -1
  outer loop
   vertex 0.0671625 0.266801 0
   vertex 0.0716971 0.263771 0
   vertex 0 0.161377 0
  endloop
 endfacet
 facet normal 0 -0 -1
  outer loop
   vertex 0.0716971 0.263771 0
   vertex 0.0760952 0.260546 0
   vertex 0 0.161377 0
  endloop
 endfacet
 facet normal 0 0 -1
  outer loop
   vertex 0 0.161377 0
   vertex 0.0760952 0.260546 0
   vertex 0.0803485 0.257133 0
  endloop
 endfacet
 facet normal 0 -0 -1
  outer loop
   vertex 0.0528273 0.274665 0
   vertex 0.0577186 0.272253 0
   vertex 0 0.161377 0
  endloop
 endfacet
 facet normal 0 -0 -1
  outer loop
   vertex 0.0577186 0.272253 0
   vertex 0.0625 0.26963 0
   vertex 0 0.161377 0
  endloop
 endfacet
 facet normal 0 0 -1
  outer loop
   vertex 0 0.161377 0
   vertex 0.0625 0.26963 0
   vertex 0.0671625 0.266801 0
  endloop
 endfacet
 facet normal 0 -0 -1
  outer loop
   vertex 0.0375882 0.280592 0
   vertex 0.0427525 0.278839 0
   vertex 0 0.161377 0
  endloop
 endfacet
 facet normal 0 -0 -1
  outer loop
   vertex 0.0427525 0.278839 0
   vertex 0.0478354 0.276862 0
   vertex 0 0.161377 0
  endloop
 endfacet
 facet normal 0 0 -1
  outer loop
   vertex 0 0.161377 0
   vertex 0.0478354 0.276862 0
   vertex 0.0528273 0.274665 0
  endloop
 endfacet
 facet normal 0 -0 -1
  outer loop
   vertex 0.021706 0.284478 0
   vertex 0.027055 0.283414 0
   vertex 0 0.161377 0
  endloop
 endfacet
 facet normal 0 -0 -1
  outer loop
   vertex 0.027055 0.283414 0
   vertex 0.0323524 0.282118 0
   vertex 0 0.161377 0
  endloop
 endfacet
 facet normal 0 0 -1
  outer loop
   vertex 0 0.161377 0
   vertex 0.0323524 0.282118 0
   vertex 0.0375882 0.280592 0
  endloop
 endfacet
 facet normal 0 -0 -1
  outer loop
   vertex 0.00545242 0.286258 0
   vertex 0.0108945 0.285901 0
   vertex 0 0.161377 0
  endloop
 endfacet
 facet normal 0 -0 -1
  outer loop
   vertex 0.0108945 0.285901 0
   vertex 0.0163158 0.285308 0
   vertex 0 0.161377 0
  endloop
 endfacet
 facet normal 0 0 -1
  outer loop
   vertex 0 0.161377 0
   vertex 0.0163158 0.285308 0
   vertex 0.021706 0.284478 0
  endloop
 endfacet
 facet normal 0 0 -1
  outer loop
   vertex -0.0108945 0.285901 0
   vertex -0.00545242 0.286258 0
   vertex 0 0.161377 0
  endloop
 endfacet
 facet normal 0 0 -1
  outer loop
   vertex -0.00545242 0.286258 0
   vertex -7.65404e-18 0.286377 0
   vertex 0 0.161377 0
  endloop
 endfacet
 facet normal 0 0 -1
  outer loop
   vertex 0 0.161377 0
   vertex -7.65404e-18 0.286377 0
   vertex 0.00545242 0.286258 0
  endloop
 endfacet
 facet normal 0 0 -1
  outer loop
   vertex -0.027055 0.283414 0
   vertex -0.021706 0.284478 0
   vertex 0 0.161377 0
  endloop
 endfacet
 facet normal 0 0 -1
  outer loop
   vertex -0.021706 0.284478 0
   vertex -0.0163158 0.285308 0
   vertex 0 0.161377 0
  endloop
 endfacet
 facet normal 0 0 -1
  outer loop
   vertex 0 0.161377 0
   vertex -0.0163158 0.285308 0
   vertex -0.0108945 0.285901 0
  endloop
 endfacet
 facet normal 0 0 -1
  outer loop
   vertex -0.0427525 0.278839 0
   vertex -0.0375882 0.280592 0
   vertex 0 0.161377 0
  endloop
 endfacet
 facet normal 0 0 -1
  outer loop
   vertex -0.0375882 0.280592 0
   vertex -0.0323524 0.282118 0
   vertex 0 0.161377 0
  endloop
 endfacet
 facet normal 0 0 -1
  outer loop
   vertex 0 0.161377 0
   vertex -0.0323524 0.282118 0
   vertex -0.027055 0.283414 0
  endloop
 endfacet
 facet normal 0 0 -1
  outer loop
   vertex -0.0577186 0.272253 0
   vertex -0.0528273 0.274665 0
   vertex 0 0.161377 0
  endloop
 endfacet
 facet normal 0 0 -1
  outer loop
   vertex -0.0528273 0.274665 0
   vertex -0.0478354 0.276862 0
   vertex 0 0.161377 0
  endloop
 endfacet
 facet normal 0 0 -1
  outer loop
   vertex 0 0.161377 0
   vertex -0.0478354 0.276862 0
   vertex -0.0427525 0.278839 0
  endloop
 endfacet
 facet normal 0 0 -1
  outer loop
   vertex -0.0716971 0.263771 0
   vertex -0.0671625 0.266801 0
   vertex 0 0.161377 0
  endloop
 endfacet
 facet normal 0 0 -1
  outer loop
   vertex -0.0671625 0.266801 0
   vertex -0.0625 0.26963 0
   vertex 0 0.161377 0
  endloop
 endfacet
 facet normal 0 0 -1
  outer loop
   vertex 0 0.161377 0
   vertex -0.0625 0.26963 0
   vertex -0.0577186 0.272253 0
  endloop
 endfacet
 facet normal 0 0 -1
  outer loop
   vertex -0.0844488 0.253537 0
   vertex -0.0803485 0.257133 0
   vertex 0 0.161377 0
  endloop
 endfacet
 facet normal 0 0 -1
  outer loop
   vertex -0.0803485 0.257133 0
   vertex -0.0760952 0.260546 0
   vertex 0 0.161377 0
  endloop
 endfacet
 facet normal 0 0 -1
  outer loop
   vertex 0 0.161377 0
   vertex -0.0760952 0.260546 0
   vertex -0.0716971 0.263771 0
  endloop
 endfacet
 facet normal 0 0 -1
  outer loop
   vertex -0.0957556 0.241725 0
   vertex -0.0921597 0.245826 0
   vertex 0 0.161377 0
  endloop
 endfacet
 facet normal 0 0 -1
  outer loop
   vertex -0.0921597 0.245826 0
   vertex -0.0883883 0.249765 0
   vertex 0 0.161377 0
  endloop
 endfacet
 facet normal 0 0 -1
  outer loop
   vertex 0 0.161377 0
   vertex -0.0883883 0.249765 0
   vertex -0.0844488 0.253537 0
  endloop
 endfacet
 facet normal 0 0 -1
  outer loop
   vertex -0.105424 0.228539 0
   vertex -0.102394 0.233074 0
   vertex 0 0.161377 0
  endloop
 endfacet
 facet normal 0 0 -1
  outer loop
   vertex -0.102394 0.233074 0
   vertex -0.0991692 0.237472 0
   vertex 0 0.161377 0
  endloop
 endfacet
 facet normal 0 0 -1
  outer loop
   vertex 0 0.161377 0
   vertex -0.0991692 0.237472 0
   vertex -0.0957556 0.241725 0
  endloop
 endfacet
 facet normal 0 0 -1
  outer loop
   vertex -0.113288 0.214204 0
   vertex -0.110876 0.219096 0
   vertex 0 0.161377 0
  endloop
 endfacet
 facet normal 0 0 -1
  outer loop
   vertex -0.110876 0.219096 0
   vertex -0.108253 0.223877 0
   vertex 0 0.161377 0
  endloop
 endfacet
 facet normal 0 0 -1
  outer loop
   vertex 0 0.161377 0
   vertex -0.108253 0.223877 0
   vertex -0.105424 0.228539 0
  endloop
 endfacet
 facet normal 0 0 -1
  outer loop
   vertex -0.119215 0.198965 0
   vertex -0.117462 0.204129 0
   vertex 0 0.161377 0
  endloop
 endfacet
 facet normal 0 0 -1
  outer loop
   vertex -0.117462 0.204129 0
   vertex -0.115485 0.209212 0
   vertex 0 0.161377 0
  endloop
 endfacet
 facet normal 0 0 -1
  outer loop
   vertex 0 0.161377 0
   vertex -0.115485 0.209212 0
   vertex -0.113288 0.214204 0
  endloop
 endfacet
 facet normal 0 0 -1
  outer loop
   vertex -0.123101 0.183083 0
   vertex -0.122037 0.188432 0
   vertex 0 0.161377 0
  endloop
 endfacet
 facet normal 0 0 -1
  outer loop
   vertex -0.122037 0.188432 0
   vertex -0.120741 0.193729 0
   vertex 0 0.161377 0
  endloop
 endfacet
 facet normal 0 0 -1
  outer loop
   vertex 0 0.161377 0
   vertex -0.120741 0.193729 0
   vertex -0.119215 0.198965 0
  endloop
 endfacet
 facet normal 0 0 -1
  outer loop
   vertex -0.124881 0.166829 0
   vertex -0.124524 0.172271 0
   vertex 0 0.161377 0
  endloop
 endfacet
 facet normal 0 0 -1
  outer loop
   vertex -0.124524 0.172271 0
   vertex -0.123931 0.177693 0
   vertex 0 0.161377 0
  endloop
 endfacet
 facet normal 0 0 -1
  outer loop
   vertex 0 0.161377 0
   vertex -0.123931 0.177693 0
   vertex -0.123101 0.183083 0
  endloop
 endfacet
 facet normal 0 0 -1
  outer loop
   vertex -0.124524 0.150483 0
   vertex -0.124881 0.155925 0
   vertex 0 0.161377 0
  endloop
 endfacet
 facet normal 0 0 -1
  outer loop
   vertex -0.124881 0.155925 0
   vertex -0.125 0.161377 0
   vertex 0 0.161377 0
  endloop
 endfacet
 facet normal 0 0 -1
  outer loop
   vertex 0 0.161377 0
   vertex -0.125 0.161377 0
   vertex -0.124881 0.166829 0
  endloop
 endfacet
 facet normal 0 0 -1
  outer loop
   vertex -0.122037 0.134322 0
   vertex -0.123101 0.139671 0
   vertex 0 0.161377 0
  endloop
 endfacet
 facet normal 0 0 -1
  outer loop
   vertex -0.123101 0.139671 0
   vertex -0.123931 0.145061 0
   vertex 0 0.161377 0
  endloop
 endfacet
 facet normal 0 0 -1
  outer loop
   vertex 0 0.161377 0
   vertex -0.123931 0.145061 0
   vertex -0.124524 0.150483 0
  endloop
 endfacet
 facet normal 0 0 -1
  outer loop
   vertex -0.117462 0.118624 0
   vertex -0.119215 0.123789 0
   vertex 0 0.161377 0
  endloop
 endfacet
 facet normal 0 0 -1
  outer loop
   vertex -0.119215 0.123789 0
   vertex -0.120741 0.129025 0
   vertex 0 0.161377 0
  endloop
 endfacet
 facet normal 0 0 -1
  outer loop
   vertex 0 0.161377 0
   vertex -0.120741 0.129025 0
   vertex -0.122037 0.134322 0
  endloop
 endfacet
 facet normal 0 0 -1
  outer loop
   vertex -0.110876 0.103658 0
   vertex -0.113288 0.10855 0
   vertex 0 0.161377 0
  endloop
 endfacet
 facet normal 0 0 -1
  outer loop
   vertex -0.113288 0.10855 0
   vertex -0.115485 0.113542 0
   vertex 0 0.161377 0
  endloop
 endfacet
 facet normal 0 0 -1
  outer loop
   vertex 0 0.161377 0
   vertex -0.115485 0.113542 0
   vertex -0.117462 0.118624 0
  endloop
 endfacet
 facet normal 0 0 -1
  outer loop
   vertex -0.102394 0.0896799 0
   vertex -0.105424 0.0942145 0
   vertex 0 0.161377 0
  endloop
 endfacet
 facet normal 0 0 -1
  outer loop
   vertex -0.105424 0.0942145 0
   vertex -0.108253 0.098877 0
   vertex 0 0.161377 0
  endloop
 endfacet
 facet normal 0 0 -1
  outer loop
   vertex 0 0.161377 0
   vertex -0.108253 0.098877 0
   vertex -0.110876 0.103658 0
  endloop
 endfacet
 facet normal 0 0 -1
  outer loop
   vertex -0.0921597 0.0769282 0
   vertex -0.0957556 0.0810285 0
   vertex 0 0.161377 0
  endloop
 endfacet
 facet normal 0 0 -1
  outer loop
   vertex -0.0957556 0.0810285 0
   vertex -0.0991692 0.0852818 0
   vertex 0 0.161377 0
  endloop
 endfacet
 facet normal 0 0 -1
  outer loop
   vertex 0 0.161377 0
   vertex -0.0991692 0.0852818 0
   vertex -0.102394 0.0896799 0
  endloop
 endfacet
 facet normal 0 0 -1
  outer loop
   vertex -0.0803485 0.0656214 0
   vertex -0.0844488 0.0692173 0
   vertex 0 0.161377 0
  endloop
 endfacet
 facet normal 0 0 -1
  outer loop
   vertex -0.0844488 0.0692173 0
   vertex -0.0883883 0.0729886 0
   vertex 0 0.161377 0
  endloop
 endfacet
 facet normal 0 0 -1
  outer loop
   vertex 0 0.161377 0
   vertex -0.0883883 0.0729886 0
   vertex -0.0921597 0.0769282 0
  endloop
 endfacet
 facet normal 0 0 -1
  outer loop
   vertex -0.0671625 0.055953 0
   vertex -0.0716971 0.058983 0
   vertex 0 0.161377 0
  endloop
 endfacet
 facet normal 0 0 -1
  outer loop
   vertex -0.0716971 0.058983 0
   vertex -0.0760952 0.0622078 0
   vertex 0 0.161377 0
  endloop
 endfacet
 facet normal 0 0 -1
  outer loop
   vertex 0 0.161377 0
   vertex -0.0760952 0.0622078 0
   vertex -0.0803485 0.0656214 0
  endloop
 endfacet
 facet normal 0 0 -1
  outer loop
   vertex -0.0528273 0.0480885 0
   vertex -0.0577186 0.0505006 0
   vertex 0 0.161377 0
  endloop
 endfacet
 facet normal 0 0 -1
  outer loop
   vertex -0.0577186 0.0505006 0
   vertex -0.0625 0.0531238 0
   vertex 0 0.161377 0
  endloop
 endfacet
 facet normal 0 0 -1
  outer loop
   vertex 0 0.161377 0
   vertex -0.0625 0.0531238 0
   vertex -0.0671625 0.055953 0
  endloop
 endfacet
 facet normal 0 0 -1
  outer loop
   vertex -0.0375882 0.0421624 0
   vertex -0.0427525 0.0439154 0
   vertex 0 0.161377 0
  endloop
 endfacet
 facet normal 0 0 -1
  outer loop
   vertex -0.0427525 0.0439154 0
   vertex -0.0478354 0.045892 0
   vertex 0 0.161377 0
  endloop
 endfacet
 facet normal 0 0 -1
  outer loop
   vertex 0 0.161377 0
   vertex -0.0478354 0.045892 0
   vertex -0.0528273 0.0480885 0
  endloop
 endfacet
 facet normal 0 0 -1
  outer loop
   vertex -0.021706 0.038276 0
   vertex -0.027055 0.03934 0
   vertex 0 0.161377 0
  endloop
 endfacet
 facet normal 0 0 -1
  outer loop
   vertex -0.027055 0.03934 0
   vertex -0.0323524 0.0406362 0
   vertex 0 0.161377 0
  endloop
 endfacet
 facet normal 0 0 -1
  outer loop
   vertex 0 0.161377 0
   vertex -0.0323524 0.0406362 0
   vertex -0.0375882 0.0421624 0
  endloop
 endfacet
 facet normal 0 0 -1
  outer loop
   vertex -0.00545242 0.0364959 0
   vertex -0.0108945 0.0368526 0
   vertex 0 0.161377 0
  endloop
 endfacet
 facet normal 0 0 -1
  outer loop
   vertex -0.0108945 0.0368526 0
   vertex -0.0163158 0.0374464 0
   vertex 0 0.161377 0
  endloop
 endfacet
 facet normal 0 0 -1
  outer loop
   vertex 0 0.161377 0
   vertex -0.0163158 0.0374464 0
   vertex -0.021706 0.038276 0
  endloop
 endfacet
 facet normal -0 0 -1
  outer loop
   vertex 0.0108945 0.0368526 0
   vertex 0.00545242 0.0364959 0
   vertex 0 0.161377 0
  endloop
 endfacet
 facet normal -0 0 -1
  outer loop
   vertex 0.00545242 0.0364959 0
   vertex 2.29621e-17 0.036377 0
   vertex 0 0.161377 0
  endloop
 endfacet
 facet normal 0 -0 -1
  outer loop
   vertex 0 0.161377 0
   vertex 2.29621e-17 0.036377 0
   vertex -0.00545242 0.0364959 0
  endloop
 endfacet
 facet normal -0 0 -1
  outer loop
   vertex 0.027055 0.03934 0
   vertex 0.021706 0.038276 0
   vertex 0 0.161377 0
  endloop
 endfacet
 facet normal -0 0 -1
  outer loop
   vertex 0.021706 0.038276 0
   vertex 0.0163158 0.0374464 0
   vertex 0 0.161377 0
  endloop
 endfacet
 facet normal 0 0 -1
  outer loop
   vertex 0 0.161377 0
   vertex 0.0163158 0.0374464 0
   vertex 0.0108945 0.0368526 0
  endloop
 endfacet
 facet normal -0 0 -1
  outer loop
   vertex 0.0427525 0.0439154 0
   vertex 0.0375882 0.0421624 0
   vertex 0 0.161377 0
  endloop
 endfacet
 facet normal -0 0 -1
  outer loop
   vertex 0.0375882 0.0421624 0
   vertex 0.0323524 0.0406362 0
   vertex 0 0.161377 0
  endloop
 endfacet
 facet normal 0 0 -1
  outer loop
   vertex 0 0.161377 0
   vertex 0.0323524 0.0406362 0
   vertex 0.027055 0.03934 0
  endloop
 endfacet
 facet normal -0 0 -1
  outer loop
   vertex 0.0577186 0.0505006 0
   vertex 0.0528273 0.0480885 0
   vertex 0 0.161377 0
  endloop
 endfacet
 facet normal -0 0 -1
  outer loop
   vertex 0.0528273 0.0480885 0
   vertex 0.0478354 0.045892 0
   vertex 0 0.161377 0
  endloop
 endfacet
 facet normal 0 0 -1
  outer loop
   vertex 0 0.161377 0
   vertex 0.0478354 0.045892 0
   vertex 0.0427525 0.0439154 0
  endloop
 endfacet
 facet normal -0 0 -1
  outer loop
   vertex 0.0716971 0.058983 0
   vertex 0.0671625 0.055953 0
   vertex 0 0.161377 0
  endloop
 endfacet
 facet normal -0 0 -1
  outer loop
   vertex 0.0671625 0.055953 0
   vertex 0.0625 0.0531238 0
   vertex 0 0.161377 0
  endloop
 endfacet
 facet normal 0 0 -1
  outer loop
   vertex 0 0.161377 0
   vertex 0.0625 0.0531238 0
   vertex 0.0577186 0.0505006 0
  endloop
 endfacet
 facet normal -0 0 -1
  outer loop
   vertex 0.0844488 0.0692173 0
   vertex 0.0803485 0.0656214 0
   vertex 0 0.161377 0
  endloop
 endfacet
 facet normal -0 0 -1
  outer loop
   vertex 0.0803485 0.0656214 0
   vertex 0.0760952 0.0622078 0
   vertex 0 0.161377 0
  endloop
 endfacet
 facet normal 0 0 -1
  outer loop
   vertex 0 0.161377 0
   vertex 0.0760952 0.0622078 0
   vertex 0.0716971 0.058983 0
  endloop
 endfacet
 facet normal -0 0 -1
  outer loop
   vertex 0.0957556 0.0810285 0
   vertex 0.0921597 0.0769282 0
   vertex 0 0.161377 0
  endloop
 endfacet
 facet normal -0 0 -1
  outer loop
   vertex 0.0921597 0.0769282 0
   vertex 0.0883883 0.0729886 0
   vertex 0 0.161377 0
  endloop
 endfacet
 facet normal 0 0 -1
  outer loop
   vertex 0 0.161377 0
   vertex 0.0883883 0.0729886 0
   vertex 0.0844488 0.0692173 0
  endloop
 endfacet
 facet normal -0 0 -1
  outer loop
   vertex 0.105424 0.0942145 0
   vertex 0.102394 0.0896799 0
   vertex 0 0.161377 0
  endloop
 endfacet
 facet normal -0 0 -1
  outer loop
   vertex 0.102394 0.0896799 0
   vertex 0.0991692 0.0852818 0
   vertex 0 0.161377 0
  endloop
 endfacet
 facet normal 0 0 -1
  outer loop
   vertex 0 0.161377 0
   vertex 0.0991692 0.0852818 0
   vertex 0.0957556 0.0810285 0
  endloop
 endfacet
 facet normal -0 0 -1
  outer loop
   vertex 0.113288 0.10855 0
   vertex 0.110876 0.103658 0
   vertex 0 0.161377 0
  endloop
 endfacet
 facet normal -0 0 -1
  outer loop
   vertex 0.110876 0.103658 0
   vertex 0.108253 0.098877 0
   vertex 0 0.161377 0
  endloop
 endfacet
 facet normal 0 0 -1
  outer loop
   vertex 0 0.161377 0
   vertex 0.108253 0.098877 0
   vertex 0.105424 0.0942145 0
  endloop
 endfacet
 facet normal -0 0 -1
  outer loop
   vertex 0.119215 0.123789 0
   vertex 0.117462 0.118624 0
   vertex 0 0.161377 0
  endloop
 endfacet
 facet normal -0 0 -1
  outer loop
   vertex 0.117462 0.118624 0
   vertex 0.115485 0.113542 0
   vertex 0 0.161377 0
  endloop
 endfacet
 facet normal 0 0 -1
  outer loop
   vertex 0 0.161377 0
   vertex 0.115485 0.113542 0
   vertex 0.113288 0.10855 0
  endloop
 endfacet
 facet normal -0 0 -1
  outer loop
   vertex 0.123101 0.139671 0
   vertex 0.122037 0.134322 0
   vertex 0 0.161377 0
  endloop
 endfacet
 facet normal -0 0 -1
  outer loop
   vertex 0.122037 0.134322 0
   vertex 0.120741 0.129025 0
   vertex 0 0.161377 0
  endloop
 endfacet
 facet normal 0 0 -1
  outer loop
   vertex 0 0.161377 0
   vertex 0.120741 0.129025 0
   vertex 0.119215 0.123789 0
  endloop
 endfacet
 facet normal -0 0 -1
  outer loop
   vertex 0.124881 0.155925 0
   vertex 0.124524 0.150483 0
   vertex 0 0.161377 0
  endloop
 endfacet
 facet normal -0 0 -1
  outer loop
   vertex 0.124524 0.150483 0
   vertex 0.123931 0.145061 0
   vertex 0 0.161377 0
  endloop
 endfacet
 facet normal 0 0 -1
  outer loop
   vertex 0 0.161377 0
   vertex 0.123931 0.145061 0
   vertex 0.123101 0.139671 0
  endloop
 endfacet
 facet normal -0.999762 0.0218146 0
  outer loop
   vertex -0.125 0.161377 0
   vertex -0.124881 0.166829 0.5
   vertex -0.124881 0.166829 0
  endloop
 endfacet
 facet normal -0.997859 0.0654029 0
  outer loop
   vertex -0.124881 0.166829 0.5
   vertex -0.124524 0.172271 0.5
   vertex -0.124881 0.166829 0
  endloop
 endfacet
 facet normal -0.997859 0.0654029 0
  outer loop
   vertex -0.124881 0.166829 0
   vertex -0.124524 0.172271 0.5
   vertex -0.124524 0.172271 0
  endloop
 endfacet
 facet normal -0.994056 0.108867 0
  outer loop
   vertex -0.124524 0.172271 0.5
   vertex -0.123931 0.177693 0.5
   vertex -0.124524 0.172271 0
  endloop
 endfacet
 facet normal -0.994056 0.108867 0
  outer loop
   vertex -0.124524 0.172271 0
   vertex -0.123931 0.177693 0.5
   vertex -0.123931 0.177693 0
  endloop
 endfacet
 facet normal -0.988361 0.152124 0
  outer loop
   vertex -0.123931 0.177693 0.5
   vertex -0.123101 0.183083 0.5
   vertex -0.123931 0.177693 0
  endloop
 endfacet
 facet normal -0.988361 0.152124 0
  outer loop
   vertex -0.123931 0.177693 0
   vertex -0.123101 0.183083 0.5
   vertex -0.123101 0.183083 0
  endloop
 endfacet
 facet normal -0.980785 0.19509 0
  outer loop
   vertex -0.123101 0.183083 0.5
   vertex -0.122037 0.188432 0.5
   vertex -0.123101 0.183083 0
  endloop
 endfacet
 facet normal -0.980785 0.19509 0
  outer loop
   vertex -0.123101 0.183083 0
   vertex -0.122037 0.188432 0.5
   vertex -0.122037 0.188432 0
  endloop
 endfacet
 facet normal -0.971342 0.237686 0
  outer loop
   vertex -0.122037 0.188432 0.5
   vertex -0.120741 0.193729 0.5
   vertex -0.122037 0.188432 0
  endloop
 endfacet
 facet normal -0.971342 0.237686 0
  outer loop
   vertex -0.122037 0.188432 0
   vertex -0.120741 0.193729 0.5
   vertex -0.120741 0.193729 0
  endloop
 endfacet
 facet normal -0.96005 0.279829 0
  outer loop
   vertex -0.120741 0.193729 0.5
   vertex -0.119215 0.198965 0.5
   vertex -0.120741 0.193729 0
  endloop
 endfacet
 facet normal -0.96005 0.279829 0
  outer loop
   vertex -0.120741 0.193729 0
   vertex -0.119215 0.198965 0.5
   vertex -0.119215 0.198965 0
  endloop
 endfacet
 facet normal -0.94693 0.321439 0
  outer loop
   vertex -0.119215 0.198965 0.5
   vertex -0.117462 0.204129 0.5
   vertex -0.119215 0.198965 0
  endloop
 endfacet
 facet normal -0.94693 0.321439 0
  outer loop
   vertex -0.119215 0.198965 0
   vertex -0.117462 0.204129 0.5
   vertex -0.117462 0.204129 0
  endloop
 endfacet
 facet normal -0.932008 0.362439 0
  outer loop
   vertex -0.117462 0.204129 0.5
   vertex -0.115485 0.209212 0.5
   vertex -0.117462 0.204129 0
  endloop
 endfacet
 facet normal -0.932008 0.362439 0
  outer loop
   vertex -0.117462 0.204129 0
   vertex -0.115485 0.209212 0.5
   vertex -0.115485 0.209212 0
  endloop
 endfacet
 facet normal -0.915312 0.402745 0
  outer loop
   vertex -0.115485 0.209212 0.5
   vertex -0.113288 0.214204 0.5
   vertex -0.115485 0.209212 0
  endloop
 endfacet
 facet normal -0.915312 0.402745 0
  outer loop
   vertex -0.115485 0.209212 0
   vertex -0.113288 0.214204 0.5
   vertex -0.113288 0.214204 0
  endloop
 endfacet
 facet normal -0.896872 0.44229 0
  outer loop
   vertex -0.113288 0.214204 0.5
   vertex -0.110876 0.219096 0.5
   vertex -0.113288 0.214204 0
  endloop
 endfacet
 facet normal -0.896872 0.44229 0
  outer loop
   vertex -0.113288 0.214204 0
   vertex -0.110876 0.219096 0.5
   vertex -0.110876 0.219096 0
  endloop
 endfacet
 facet normal -0.876727 0.480989 0
  outer loop
   vertex -0.110876 0.219096 0.5
   vertex -0.108253 0.223877 0.5
   vertex -0.110876 0.219096 0
  endloop
 endfacet
 facet normal -0.876727 0.480989 0
  outer loop
   vertex -0.110876 0.219096 0
   vertex -0.108253 0.223877 0.5
   vertex -0.108253 0.223877 0
  endloop
 endfacet
 facet normal -0.854912 0.518773 0
  outer loop
   vertex -0.108253 0.223877 0.5
   vertex -0.105424 0.228539 0.5
   vertex -0.108253 0.223877 0
  endloop
 endfacet
 facet normal -0.854912 0.518773 0
  outer loop
   vertex -0.108253 0.223877 0
   vertex -0.105424 0.228539 0.5
   vertex -0.105424 0.228539 0
  endloop
 endfacet
 facet normal -0.83147 0.55557 0
  outer loop
   vertex -0.105424 0.228539 0.5
   vertex -0.102394 0.233074 0.5
   vertex -0.105424 0.228539 0
  endloop
 endfacet
 facet normal -0.83147 0.55557 0
  outer loop
   vertex -0.105424 0.228539 0
   vertex -0.102394 0.233074 0.5
   vertex -0.102394 0.233074 0
  endloop
 endfacet
 facet normal -0.806444 0.59131 0
  outer loop
   vertex -0.102394 0.233074 0.5
   vertex -0.0991692 0.237472 0.5
   vertex -0.102394 0.233074 0
  endloop
 endfacet
 facet normal -0.806444 0.59131 0
  outer loop
   vertex -0.102394 0.233074 0
   vertex -0.0991692 0.237472 0.5
   vertex -0.0991692 0.237472 0
  endloop
 endfacet
 facet normal -0.779885 0.625923 0
  outer loop
   vertex -0.0991692 0.237472 0.5
   vertex -0.0957556 0.241725 0.5
   vertex -0.0991692 0.237472 0
  endloop
 endfacet
 facet normal -0.779885 0.625923 0
  outer loop
   vertex -0.0991692 0.237472 0
   vertex -0.0957556 0.241725 0.5
   vertex -0.0957556 0.241725 0
  endloop
 endfacet
 facet normal -0.75184 0.659346 0
  outer loop
   vertex -0.0957556 0.241725 0.5
   vertex -0.0921597 0.245826 0.5
   vertex -0.0957556 0.241725 0
  endloop
 endfacet
 facet normal -0.75184 0.659346 0
  outer loop
   vertex -0.0957556 0.241725 0
   vertex -0.0921597 0.245826 0.5
   vertex -0.0921597 0.245826 0
  endloop
 endfacet
 facet normal -0.722364 0.691513 0
  outer loop
   vertex -0.0921597 0.245826 0.5
   vertex -0.0883883 0.249765 0.5
   vertex -0.0921597 0.245826 0
  endloop
 endfacet
 facet normal -0.722364 0.691513 0
  outer loop
   vertex -0.0921597 0.245826 0
   vertex -0.0883883 0.249765 0.5
   vertex -0.0883883 0.249765 0
  endloop
 endfacet
 facet normal -0.691513 0.722364 0
  outer loop
   vertex -0.0883883 0.249765 0.5
   vertex -0.0844488 0.253537 0.5
   vertex -0.0883883 0.249765 0
  endloop
 endfacet
 facet normal -0.691513 0.722364 0
  outer loop
   vertex -0.0883883 0.249765 0
   vertex -0.0844488 0.253537 0.5
   vertex -0.0844488 0.253537 0
  endloop
 endfacet
 facet normal -0.659346 0.75184 0
  outer loop
   vertex -0.0844488 0.253537 0.5
   vertex -0.0803485 0.257133 0.5
   vertex -0.0844488 0.253537 0
  endloop
 endfacet
 facet normal -0.659346 0.75184 0
  outer loop
   vertex -0.0844488 0.253537 0
   vertex -0.0803485 0.257133 0.5
   vertex -0.0803485 0.257133 0
  endloop
 endfacet
 facet normal -0.625923 0.779885 0
  outer loop
   vertex -0.0803485 0.257133 0.5
   vertex -0.0760952 0.260546 0.5
   vertex -0.0803485 0.257133 0
  endloop
 endfacet
 facet normal -0.625923 0.779885 0
  outer loop
   vertex -0.0803485 0.257133 0
   vertex -0.0760952 0.260546 0.5
   vertex -0.0760952 0.260546 0
  endloop
 endfacet
 facet normal -0.59131 0.806444 0
  outer loop
   vertex -0.0760952 0.260546 0.5
   vertex -0.0716971 0.263771 0.5
   vertex -0.0760952 0.260546 0
  endloop
 endfacet
 facet normal -0.59131 0.806444 0
  outer loop
   vertex -0.0760952 0.260546 0
   vertex -0.0716971 0.263771 0.5
   vertex -0.0716971 0.263771 0
  endloop
 endfacet
 facet normal -0.55557 0.83147 0
  outer loop
   vertex -0.0716971 0.263771 0.5
   vertex -0.0671625 0.266801 0.5
   vertex -0.0716971 0.263771 0
  endloop
 endfacet
 facet normal -0.55557 0.83147 0
  outer loop
   vertex -0.0716971 0.263771 0
   vertex -0.0671625 0.266801 0.5
   vertex -0.0671625 0.266801 0
  endloop
 endfacet
 facet normal -0.518773 0.854912 0
  outer loop
   vertex -0.0671625 0.266801 0.5
   vertex -0.0625 0.26963 0.5
   vertex -0.0671625 0.266801 0
  endloop
 endfacet
 facet normal -0.518773 0.854912 0
  outer loop
   vertex -0.0671625 0.266801 0
   vertex -0.0625 0.26963 0.5
   vertex -0.0625 0.26963 0
  endloop
 endfacet
 facet normal -0.480989 0.876727 0
  outer loop
   vertex -0.0625 0.26963 0.5
   vertex -0.0577186 0.272253 0.5
   vertex -0.0625 0.26963 0
  endloop
 endfacet
 facet normal -0.480989 0.876727 0
  outer loop
   vertex -0.0625 0.26963 0
   vertex -0.0577186 0.272253 0.5
   vertex -0.0577186 0.272253 0
  endloop
 endfacet
 facet normal -0.44229 0.896872 0
  outer loop
   vertex -0.0577186 0.272253 0.5
   vertex -0.0528273 0.274665 0.5
   vertex -0.0577186 0.272253 0
  endloop
 endfacet
 facet normal -0.44229 0.896872 0
  outer loop
   vertex -0.0577186 0.272253 0
   vertex -0.0528273 0.274665 0.5
   vertex -0.0528273 0.274665 0
  endloop
 endfacet
 facet normal -0.402745 0.915312 0
  outer loop
   vertex -0.0528273 0.274665 0.5
   vertex -0.0478354 0.276862 0.5
   vertex -0.0528273 0.274665 0
  endloop
 endfacet
 facet normal -0.402745 0.915312 0
  outer loop
   vertex -0.0528273 0.274665 0
   vertex -0.0478354 0.276862 0.5
   vertex -0.0478354 0.276862 0
  endloop
 endfacet
 facet normal -0.362439 0.932008 0
  outer loop
   vertex -0.0478354 0.276862 0.5
   vertex -0.0427525 0.278839 0.5
   vertex -0.0478354 0.276862 0
  endloop
 endfacet
 facet normal -0.362439 0.932008 0
  outer loop
   vertex -0.0478354 0.276862 0
   vertex -0.0427525 0.278839 0.5
   vertex -0.0427525 0.278839 0
  endloop
 endfacet
 facet normal -0.321439 0.94693 0
  outer loop
   vertex -0.0427525 0.278839 0.5
   vertex -0.0375882 0.280592 0.5
   vertex -0.0427525 0.278839 0
  endloop
 endfacet
 facet normal -0.321439 0.94693 0
  outer loop
   vertex -0.0427525 0.278839 0
   vertex -0.0375882 0.280592 0.5
   vertex -0.0375882 0.280592 0
  endloop
 endfacet
 facet normal -0.279829 0.96005 0
  outer loop
   vertex -0.0375882 0.280592 0.5
   vertex -0.0323524 0.282118 0.5
   vertex -0.0375882 0.280592 0
  endloop
 endfacet
 facet normal -0.279829 0.96005 0
  outer loop
   vertex -0.0375882 0.280592 0
   vertex -0.0323524 0.282118 0.5
   vertex -0.0323524 0.282118 0
  endloop
 endfacet
 facet normal -0.237686 0.971342 0
  outer loop
   vertex -0.0323524 0.282118 0.5
   vertex -0.027055 0.283414 0.5
   vertex -0.0323524 0.282118 0
  endloop
 endfacet
 facet normal -0.237686 0.971342 0
  outer loop
   vertex -0.0323524 0.282118 0
   vertex -0.027055 0.283414 0.5
   vertex -0.027055 0.283414 0
  endloop
 endfacet
 facet normal -0.19509 0.980785 0
  outer loop
   vertex -0.027055 0.283414 0.5
   vertex -0.021706 0.284478 0.5
   vertex -0.027055 0.283414 0
  endloop
 endfacet
 facet normal -0.19509 0.980785 0
  outer loop
   vertex -0.027055 0.283414 0
   vertex -0.021706 0.284478 0.5
   vertex -0.021706 0.284478 0
  endloop
 endfacet
 facet normal -0.152124 0.988361 0
  outer loop
   vertex -0.021706 0.284478 0.5
   vertex -0.0163158 0.285308 0.5
   vertex -0.021706 0.284478 0
  endloop
 endfacet
 facet normal -0.152124 0.988361 0
  outer loop
   vertex -0.021706 0.284478 0
   vertex -0.0163158 0.285308 0.5
   vertex -0.0163158 0.285308 0
  endloop
 endfacet
 facet normal -0.108867 0.994056 0
  outer loop
   vertex -0.0163158 0.285308 0.5
   vertex -0.0108945 0.285901 0.5
   vertex -0.0163158 0.285308 0
  endloop
 endfacet
 facet normal -0.108867 0.994056 0
  outer loop
   vertex -0.0163158 0.285308 0
   vertex -0.0108945 0.285901 0.5
   vertex -0.0108945 0.285901 0
  endloop
 endfacet
 facet normal -0.0654029 0.997859 0
  outer loop
   vertex -0.0108945 0.285901 0.5
   vertex -0.00545242 0.286258 0.5
   vertex -0.0108945 0.285901 0
  endloop
 endfacet
 facet normal -0.0654029 0.997859 0
  outer loop
   vertex -0.0108945 0.285901 0
   vertex -0.00545242 0.286258 0.5
   vertex -0.00545242 0.286258 0
  endloop
 endfacet
 facet normal -0.0218146 0.999762 0
  outer loop
   vertex -0.00545242 0.286258 0.5
   vertex -7.65404e-18 0.286377 0.5
   vertex -0.00545242 0.286258 0
  endloop
 endfacet
 facet normal -0.0218146 0.999762 0
  outer loop
   vertex -0.00545242 0.286258 0
   vertex -7.65404e-18 0.286377 0.5
   vertex -7.65404e-18 0.286377 0
  endloop
 endfacet
 facet normal 0.0218146 0.999762 0
  outer loop
   vertex -7.65404e-18 0.286377 0.5
   vertex 0.00545242 0.286258 0.5
   vertex -7.65404e-18 0.286377 0
  endloop
 endfacet
 facet normal 0.0218146 0.999762 0
  outer loop
   vertex -7.65404e-18 0.286377 0
   vertex 0.00545242 0.286258 0.5
   vertex 0.00545242 0.286258 0
  endloop
 endfacet
 facet normal 0.0654029 0.997859 0
  outer loop
   vertex 0.00545242 0.286258 0.5
   vertex 0.0108945 0.285901 0.5
   vertex 0.00545242 0.286258 0
  endloop
 endfacet
 facet normal 0.0654029 0.997859 0
  outer loop
   vertex 0.00545242 0.286258 0
   vertex 0.0108945 0.285901 0.5
   vertex 0.0108945 0.285901 0
  endloop
 endfacet
 facet normal 0.108867 0.994056 0
  outer loop
   vertex 0.0108945 0.285901 0.5
   vertex 0.0163158 0.285308 0.5
   vertex 0.0108945 0.285901 0
  endloop
 endfacet
 facet normal 0.108867 0.994056 0
  outer loop
   vertex 0.0108945 0.285901 0
   vertex 0.0163158 0.285308 0.5
   vertex 0.0163158 0.285308 0
  endloop
 endfacet
 facet normal 0.152124 0.988361 0
  outer loop
   vertex 0.0163158 0.285308 0.5
   vertex 0.021706 0.284478 0.5
   vertex 0.0163158 0.285308 0
  endloop
 endfacet
 facet normal 0.152124 0.988361 0
  outer loop
   vertex 0.0163158 0.285308 0
   vertex 0.021706 0.284478 0.5
   vertex 0.021706 0.284478 0
  endloop
 endfacet
 facet normal 0.19509 0.980785 0
  outer loop
   vertex 0.021706 0.284478 0.5
   vertex 0.027055 0.283414 0.5
   vertex 0.021706 0.284478 0
  endloop
 endfacet
 facet normal 0.19509 0.980785 0
  outer loop
   vertex 0.021706 0.284478 0
   vertex 0.027055 0.283414 0.5
   vertex 0.027055 0.283414 0
  endloop
 endfacet
 facet normal 0.237686 0.971342 0
  outer loop
   vertex 0.027055 0.283414 0.5
   vertex 0.0323524 0.282118 0.5
   vertex 0.027055 0.283414 0
  endloop
 endfacet
 facet normal 0.237686 0.971342 0
  outer loop
   vertex 0.027055 0.283414 0
   vertex 0.0323524 0.282118 0.5
   vertex 0.0323524 0.282118 0
  endloop
 endfacet
 facet normal 0.279829 0.96005 0
  outer loop
   vertex 0.0323524 0.282118 0.5
   vertex 0.0375882 0.280592 0.5
   vertex 0.0323524 0.282118 0
  endloop
 endfacet
 facet normal 0.279829 0.96005 0
  outer loop
   vertex 0.0323524 0.282118 0
   vertex 0.0375882 0.280592 0.5
   vertex 0.0375882 0.280592 0
  endloop
 endfacet
 facet normal 0.321439 0.94693 0
  outer loop
   vertex 0.0375882 0.280592 0.5
   vertex 0.0427525 0.278839 0.5
   vertex 0.0375882 0.280592 0
  endloop
 endfacet
 facet normal 0.321439 0.94693 0
  outer loop
   vertex 0.0375882 0.280592 0
   vertex 0.0427525 0.278839 0.5
   vertex 0.0427525 0.278839 0
  endloop
 endfacet
 facet normal 0.362439 0.932008 0
  outer loop
   vertex 0.0427525 0.278839 0.5
   vertex 0.0478354 0.276862 0.5
   vertex 0.0427525 0.278839 0
  endloop
 endfacet
 facet normal 0.362439 0.932008 0
  outer loop
   vertex 0.0427525 0.278839 0
   vertex 0.0478354 0.276862 0.5
   vertex 0.0478354 0.276862 0
  endloop
 endfacet
 facet normal 0.402745 0.915312 0
  outer loop
   vertex 0.0478354 0.276862 0.5
   vertex 0.0528273 0.274665 0.5
   vertex 0.0478354 0.276862 0
  endloop
 endfacet
 facet normal 0.402745 0.915312 0
  outer loop
   vertex 0.0478354 0.276862 0
   vertex 0.0528273 0.274665 0.5
   vertex 0.0528273 0.274665 0
  endloop
 endfacet
 facet normal 0.44229 0.896872 0
  outer loop
   vertex 0.0528273 0.274665 0.5
   vertex 0.0577186 0.272253 0.5
   vertex 0.0528273 0.274665 0
  endloop
 endfacet
 facet normal 0.44229 0.896872 0
  outer loop
   vertex 0.0528273 0.274665 0
   vertex 0.0577186 0.272253 0.5
   vertex 0.0577186 0.272253 0
  endloop
 endfacet
 facet normal 0.480989 0.876727 0
  outer loop
   vertex 0.0577186 0.272253 0.5
   vertex 0.0625 0.26963 0.5
   vertex 0.0577186 0.272253 0
  endloop
 endfacet
 facet normal 0.480989 0.876727 0
  outer loop
   vertex 0.0577186 0.272253 0
   vertex 0.0625 0.26963 0.5
   vertex 0.0625 0.26963 0
  endloop
 endfacet
 facet normal 0.518773 0.854912 0
  outer loop
   vertex 0.0625 0.26963 0.5
   vertex 0.0671625 0.266801 0.5
   vertex 0.0625 0.26963 0
  endloop
 endfacet
 facet normal 0.518773 0.854912 0
  outer loop
   vertex 0.0625 0.26963 0
   vertex 0.0671625 0.266801 0.5
   vertex 0.0671625 0.266801 0
  endloop
 endfacet
 facet normal 0.55557 0.83147 0
  outer loop
   vertex 0.0671625 0.266801 0.5
   vertex 0.0716971 0.263771 0.5
   vertex 0.0671625 0.266801 0
  endloop
 endfacet
 facet normal 0.55557 0.83147 0
  outer loop
   vertex 0.0671625 0.266801 0
   vertex 0.0716971 0.263771 0.5
   vertex 0.0716971 0.263771 0
  endloop
 endfacet
 facet normal 0.59131 0.806444 0
  outer loop
   vertex 0.0716971 0.263771 0.5
   vertex 0.0760952 0.260546 0.5
   vertex 0.0716971 0.263771 0
  endloop
 endfacet
 facet normal 0.59131 0.806444 0
  outer loop
   vertex 0.0716971 0.263771 0
   vertex 0.0760952 0.260546 0.5
   vertex 0.0760952 0.260546 0
  endloop
 endfacet
 facet normal 0.625923 0.779885 0
  outer loop
   vertex 0.0760952 0.260546 0.5
   vertex 0.0803485 0.257133 0.5
   vertex 0.0760952 0.260546 0
  endloop
 endfacet
 facet normal 0.625923 0.779885 0
  outer loop
   vertex 0.0760952 0.260546 0
   vertex 0.0803485 0.257133 0.5
   vertex 0.0803485 0.257133 0
  endloop
 endfacet
 facet normal 0.659346 0.75184 0
  outer loop
   vertex 0.0803485 0.257133 0.5
   vertex 0.0844488 0.253537 0.5
   vertex 0.0803485 0.257133 0
  endloop
 endfacet
 facet normal 0.659346 0.75184 0
  outer loop
   vertex 0.0803485 0.257133 0
   vertex 0.0844488 0.253537 0.5
   vertex 0.0844488 0.253537 0
  endloop
 endfacet
 facet normal 0.691513 0.722364 0
  outer loop
   vertex 0.0844488 0.253537 0.5
   vertex 0.0883883 0.249765 0.5
   vertex 0.0844488 0.253537 0
  endloop
 endfacet
 facet normal 0.691513 0.722364 0
  outer loop
   vertex 0.0844488 0.253537 0
   vertex 0.0883883 0.249765 0.5
   vertex 0.0883883 0.249765 0
  endloop
 endfacet
 facet normal 0.722364 0.691513 0
  outer loop
   vertex 0.0883883 0.249765 0.5
   vertex 0.0921597 0.245826 0.5
   vertex 0.0883883 0.249765 0
  endloop
 endfacet
 facet normal 0.722364 0.691513 0
  outer loop
   vertex 0.0883883 0.249765 0
   vertex 0.0921597 0.245826 0.5
   vertex 0.0921597 0.245826 0
  endloop
 endfacet
 facet normal 0.75184 0.659346 0
  outer loop
   vertex 0.0921597 0.245826 0.5
   vertex 0.0957556 0.241725 0.5
   vertex 0.0921597 0.245826 0
  endloop
 endfacet
 facet normal 0.75184 0.659346 0
  outer loop
   vertex 0.0921597 0.245826 0
   vertex 0.0957556 0.241725 0.5
   vertex 0.0957556 0.241725 0
  endloop
 endfacet
 facet normal 0.779885 0.625923 0
  outer loop
   vertex 0.0957556 0.241725 0.5
   vertex 0.0991692 0.237472 0.5
   vertex 0.0957556 0.241725 0
  endloop
 endfacet
 facet normal 0.779885 0.625923 0
  outer loop
   vertex 0.0957556 0.241725 0
   vertex 0.0991692 0.237472 0.5
   vertex 0.0991692 0.237472 0
  endloop
 endfacet
 facet normal 0.806444 0.59131 0
  outer loop
   vertex 0.0991692 0.237472 0.5
   vertex 0.102394 0.233074 0.5
   vertex 0.0991692 0.237472 0
  endloop
 endfacet
 facet normal 0.806444 0.59131 0
  outer loop
   vertex 0.0991692 0.237472 0
   vertex 0.102394 0.233074 0.5
   vertex 0.102394 0.233074 0
  endloop
 endfacet
 facet normal 0.83147 0.55557 0
  outer loop
   vertex 0.102394 0.233074 0.5
   vertex 0.105424 0.228539 0.5
   vertex 0.102394 0.233074 0
  endloop
 endfacet
 facet normal 0.83147 0.55557 0
  outer loop
   vertex 0.102394 0.233074 0
   vertex 0.105424 0.228539 0.5
   vertex 0.105424 0.228539 0
  endloop
 endfacet
 facet normal 0.854912 0.518773 0
  outer loop
   vertex 0.105424 0.228539 0.5
   vertex 0.108253 0.223877 0.5
   vertex 0.105424 0.228539 0
  endloop
 endfacet
 facet normal 0.854912 0.518773 0
  outer loop
   vertex 0.105424 0.228539 0
   vertex 0.108253 0.223877 0.5
   vertex 0.108253 0.223877 0
  endloop
 endfacet
 facet normal 0.876727 0.480989 0
  outer loop
   vertex 0.108253 0.223877 0.5
   vertex 0.110876 0.219096 0.5
   vertex 0.108253 0.223877 0
  endloop
 endfacet
 facet normal 0.876727 0.480989 0
  outer loop
   vertex 0.108253 0.223877 0
   vertex 0.110876 0.219096 0.5
   vertex 0.110876 0.219096 0
  endloop
 endfacet
 facet normal 0.896872 0.44229 0
  outer loop
   vertex 0.110876 0.219096 0.5
   vertex 0.113288 0.214204 0.5
   vertex 0.110876 0.219096 0
  endloop
 endfacet
 facet normal 0.896872 0.44229 0
  outer loop
   vertex 0.110876 0.219096 0
   vertex 0.113288 0.214204 0.5
   vertex 0.113288 0.214204 0
  endloop
 endfacet
 facet normal 0.915312 0.402745 0
  outer loop
   vertex 0.113288 0.214204 0.5
   vertex 0.115485 0.209212 0.5
   vertex 0.113288 0.214204 0
  endloop
 endfacet
 facet normal 0.915312 0.402745 0
  outer loop
   vertex 0.113288 0.214204 0
   vertex 0.115485 0.209212 0.5
   vertex 0.115485 0.209212 0
  endloop
 endfacet
 facet normal 0.932008 0.362439 0
  outer loop
   vertex 0.115485 0.209212 0.5
   vertex 0.117462 0.204129 0.5
   vertex 0.115485 0.209212 0
  endloop
 endfacet
 facet normal 0.932008 0.362439 0
  outer loop
   vertex 0.115485 0.209212 0
   vertex 0.117462 0.204129 0.5
   vertex 0.117462 0.204129 0
  endloop
 endfacet
 facet normal 0.94693 0.321439 0
  outer loop
   vertex 0.117462 0.204129 0.5
   vertex 0.119215 0.198965 0.5
   vertex 0.117462 0.204129 0
  endloop
 endfacet
 facet normal 0.94693 0.321439 0
  outer loop
   vertex 0.117462 0.204129 0
   vertex 0.119215 0.198965 0.5
   vertex 0.119215 0.198965 0
  endloop
 endfacet
 facet normal 0.96005 0.279829 0
  outer loop
   vertex 0.119215 0.198965 0.5
   vertex 0.120741 0.193729 0.5
   vertex 0.119215 0.198965 0
  endloop
 endfacet
 facet normal 0.96005 0.279829 0
  outer loop
   vertex 0.119215 0.198965 0
   vertex 0.120741 0.193729 0.5
   vertex 0.120741 0.193729 0
  endloop
 endfacet
 facet normal 0.971342 0.237686 0
  outer loop
   vertex 0.120741 0.193729 0.5
   vertex 0.122037 0.188432 0.5
   vertex 0.120741 0.193729 0
  endloop
 endfacet
 facet normal 0.971342 0.237686 0
  outer loop
   vertex 0.120741 0.193729 0
   vertex 0.122037 0.188432 0.5
   vertex 0.122037 0.188432 0
  endloop
 endfacet
 facet normal 0.980785 0.19509 0
  outer loop
   vertex 0.122037 0.188432 0.5
   vertex 0.123101 0.183083 0.5
   vertex 0.122037 0.188432 0
  endloop
 endfacet
 facet normal 0.980785 0.19509 0
  outer loop
   vertex 0.122037 0.188432 0
   vertex 0.123101 0.183083 0.5
   vertex 0.123101 0.183083 0
  endloop
 endfacet
 facet normal 0.988361 0.152124 0
  outer loop
   vertex 0.123101 0.183083 0.5
   vertex 0.123931 0.177693 0.5
   vertex 0.123101 0.183083 0
  endloop
 endfacet
 facet normal 0.988361 0.152124 0
  outer loop
   vertex 0.123101 0.183083 0
   vertex 0.123931 0.177693 0.5
   vertex 0.123931 0.177693 0
  endloop
 endfacet
 facet normal 0.994056 0.108867 0
  outer loop
   vertex 0.123931 0.177693 0.5
   vertex 0.124524 0.172271 0.5
   vertex 0.123931 0.177693 0
  endloop
 endfacet
 facet normal 0.994056 0.108867 0
  outer loop
   vertex 0.123931 0.177693 0
   vertex 0.124524 0.172271 0.5
   vertex 0.124524 0.172271 0
  endloop
 endfacet
 facet normal 0.997859 0.0654029 0
  outer loop
   vertex 0.124524 0.172271 0.5
   vertex 0.124881 0.166829 0.5
   vertex 0.124524 0.172271 0
  endloop
 endfacet
 facet normal 0.997859 0.0654029 0
  outer loop
   vertex 0.124524 0.172271 0
   vertex 0.124881 0.166829 0.5
   vertex 0.124881 0.166829 0
  endloop
 endfacet
 facet normal 0.999762 0.0218146 0
  outer loop
   vertex 0.124881 0.166829 0.5
   vertex 0.125 0.161377 0.5
   vertex 0.124881 0.166829 0
  endloop
 endfacet
 facet normal 0.999762 0.0218146 -1.20367e-18
  outer loop
   vertex 0.124881 0.166829 0
   vertex 0.125 0.161377 0.5
   vertex 0.125 0.161377 0
  endloop
 endfacet
 facet normal 0.999762 -0.0218146 1.21095e-18
  outer loop
   vertex 0.125 0.161377 0.5
   vertex 0.124881 0.155925 0.5
   vertex 0.125 0.161377 0
  endloop
 endfacet
 facet normal 0.999762 -0.0218146 0
  outer loop
   vertex 0.125 0.161377 0
   vertex 0.124881 0.155925 0.5
   vertex 0.124881 0.155925 0
  endloop
 endfacet
 facet normal 0.997859 -0.0654029 0
  outer loop
   vertex 0.124881 0.155925 0.5
   vertex 0.124524 0.150483 0.5
   vertex 0.124881 0.155925 0
  endloop
 endfacet
 facet normal 0.997859 -0.0654029 0
  outer loop
   vertex 0.124881 0.155925 0
   vertex 0.124524 0.150483 0.5
   vertex 0.124524 0.150483 0
  endloop
 endfacet
 facet normal 0.994056 -0.108867 0
  outer loop
   vertex 0.124524 0.150483 0.5
   vertex 0.123931 0.145061 0.5
   vertex 0.124524 0.150483 0
  endloop
 endfacet
 facet normal 0.994056 -0.108867 0
  outer loop
   vertex 0.124524 0.150483 0
   vertex 0.123931 0.145061 0.5
   vertex 0.123931 0.145061 0
  endloop
 endfacet
 facet normal 0.988361 -0.152124 0
  outer loop
   vertex 0.123931 0.145061 0.5
   vertex 0.123101 0.139671 0.5
   vertex 0.123931 0.145061 0
  endloop
 endfacet
 facet normal 0.988361 -0.152124 0
  outer loop
   vertex 0.123931 0.145061 0
   vertex 0.123101 0.139671 0.5
   vertex 0.123101 0.139671 0
  endloop
 endfacet
 facet normal 0.980785 -0.19509 0
  outer loop
   vertex 0.123101 0.139671 0.5
   vertex 0.122037 0.134322 0.5
   vertex 0.123101 0.139671 0
  endloop
 endfacet
 facet normal 0.980785 -0.19509 0
  outer loop
   vertex 0.123101 0.139671 0
   vertex 0.122037 0.134322 0.5
   vertex 0.122037 0.134322 0
  endloop
 endfacet
 facet normal 0.971342 -0.237686 0
  outer loop
   vertex 0.122037 0.134322 0.5
   vertex 0.120741 0.129025 0.5
   vertex 0.122037 0.134322 0
  endloop
 endfacet
 facet normal 0.971342 -0.237686 0
  outer loop
   vertex 0.122037 0.134322 0
   vertex 0.120741 0.129025 0.5
   vertex 0.120741 0.129025 0
  endloop
 endfacet
 facet normal 0.96005 -0.279829 0
  outer loop
   vertex 0.120741 0.129025 0.5
   vertex 0.119215 0.123789 0.5
   vertex 0.120741 0.129025 0
  endloop
 endfacet
 facet normal 0.96005 -0.279829 0
  outer loop
   vertex 0.120741 0.129025 0
   vertex 0.119215 0.123789 0.5
   vertex 0.119215 0.123789 0
  endloop
 endfacet
 facet normal 0.94693 -0.321439 0
  outer loop
   vertex 0.119215 0.123789 0.5
   vertex 0.117462 0.118624 0.5
   vertex 0.119215 0.123789 0
  endloop
 endfacet
 facet normal 0.94693 -0.321439 0
  outer loop
   vertex 0.119215 0.123789 0
   vertex 0.117462 0.118624 0.5
   vertex 0.117462 0.118624 0
  endloop
 endfacet
 facet normal 0.932008 -0.362439 0
  outer loop
   vertex 0.117462 0.118624 0.5
   vertex 0.115485 0.113542 0.5
   vertex 0.117462 0.118624 0
  endloop
 endfacet
 facet normal 0.932008 -0.362439 0
  outer loop
   vertex 0.117462 0.118624 0
   vertex 0.115485 0.113542 0.5
   vertex 0.115485 0.113542 0
  endloop
 endfacet
 facet normal 0.915312 -0.402745 0
  outer loop
   vertex 0.115485 0.113542 0.5
   vertex 0.113288 0.10855 0.5
   vertex 0.115485 0.113542 0
  endloop
 endfacet
 facet normal 0.915312 -0.402745 0
  outer loop
   vertex 0.115485 0.113542 0
   vertex 0.113288 0.10855 0.5
   vertex 0.113288 0.10855 0
  endloop
 endfacet
 facet normal 0.896872 -0.44229 0
  outer loop
   vertex 0.113288 0.10855 0.5
   vertex 0.110876 0.103658 0.5
   vertex 0.113288 0.10855 0
  endloop
 endfacet
 facet normal 0.896872 -0.44229 0
  outer loop
   vertex 0.113288 0.10855 0
   vertex 0.110876 0.103658 0.5
   vertex 0.110876 0.103658 0
  endloop
 endfacet
 facet normal 0.876727 -0.480989 0
  outer loop
   vertex 0.110876 0.103658 0.5
   vertex 0.108253 0.098877 0.5
   vertex 0.110876 0.103658 0
  endloop
 endfacet
 facet normal 0.876727 -0.480989 0
  outer loop
   vertex 0.110876 0.103658 0
   vertex 0.108253 0.098877 0.5
   vertex 0.108253 0.098877 0
  endloop
 endfacet
 facet normal 0.854912 -0.518773 0
  outer loop
   vertex 0.108253 0.098877 0.5
   vertex 0.105424 0.0942145 0.5
   vertex 0.108253 0.098877 0
  endloop
 endfacet
 facet normal 0.854912 -0.518773 0
  outer loop
   vertex 0.108253 0.098877 0
   vertex 0.105424 0.0942145 0.5
   vertex 0.105424 0.0942145 0
  endloop
 endfacet
 facet normal 0.83147 -0.55557 0
  outer loop
   vertex 0.105424 0.0942145 0.5
   vertex 0.102394 0.0896799 0.5
   vertex 0.105424 0.0942145 0
  endloop
 endfacet
 facet normal 0.83147 -0.55557 0
  outer loop
   vertex 0.105424 0.0942145 0
   vertex 0.102394 0.0896799 0.5
   vertex 0.102394 0.0896799 0
  endloop
 endfacet
 facet normal 0.806444 -0.59131 0
  outer loop
   vertex 0.102394 0.0896799 0.5
   vertex 0.0991692 0.0852818 0.5
   vertex 0.102394 0.0896799 0
  endloop
 endfacet
 facet normal 0.806444 -0.59131 0
  outer loop
   vertex 0.102394 0.0896799 0
   vertex 0.0991692 0.0852818 0.5
   vertex 0.0991692 0.0852818 0
  endloop
 endfacet
 facet normal 0.779885 -0.625923 0
  outer loop
   vertex 0.0991692 0.0852818 0.5
   vertex 0.0957556 0.0810285 0.5
   vertex 0.0991692 0.0852818 0
  endloop
 endfacet
 facet normal 0.779885 -0.625923 0
  outer loop
   vertex 0.0991692 0.0852818 0
   vertex 0.0957556 0.0810285 0.5
   vertex 0.0957556 0.0810285 0
  endloop
 endfacet
 facet normal 0.75184 -0.659346 0
  outer loop
   vertex 0.0957556 0.0810285 0.5
   vertex 0.0921597 0.0769282 0.5
   vertex 0.0957556 0.0810285 0
  endloop
 endfacet
 facet normal 0.75184 -0.659346 0
  outer loop
   vertex 0.0957556 0.0810285 0
   vertex 0.0921597 0.0769282 0.5
   vertex 0.0921597 0.0769282 0
  endloop
 endfacet
 facet normal 0.722364 -0.691513 0
  outer loop
   vertex 0.0921597 0.0769282 0.5
   vertex 0.0883883 0.0729886 0.5
   vertex 0.0921597 0.0769282 0
  endloop
 endfacet
 facet normal 0.722364 -0.691513 0
  outer loop
   vertex 0.0921597 0.0769282 0
   vertex 0.0883883 0.0729886 0.5
   vertex 0.0883883 0.0729886 0
  endloop
 endfacet
 facet normal 0.691513 -0.722364 0
  outer loop
   vertex 0.0883883 0.0729886 0.5
   vertex 0.0844488 0.0692173 0.5
   vertex 0.0883883 0.0729886 0
  endloop
 endfacet
 facet normal 0.691513 -0.722364 0
  outer loop
   vertex 0.0883883 0.0729886 0
   vertex 0.0844488 0.0692173 0.5
   vertex 0.0844488 0.0692173 0
  endloop
 endfacet
 facet normal 0.659346 -0.75184 0
  outer loop
   vertex 0.0844488 0.0692173 0.5
   vertex 0.0803485 0.0656214 0.5
   vertex 0.0844488 0.0692173 0
  endloop
 endfacet
 facet normal 0.659346 -0.75184 0
  outer loop
   vertex 0.0844488 0.0692173 0
   vertex 0.0803485 0.0656214 0.5
   vertex 0.0803485 0.0656214 0
  endloop
 endfacet
 facet normal 0.625923 -0.779885 0
  outer loop
   vertex 0.0803485 0.0656214 0.5
   vertex 0.0760952 0.0622078 0.5
   vertex 0.0803485 0.0656214 0
  endloop
 endfacet
 facet normal 0.625923 -0.779885 0
  outer loop
   vertex 0.0803485 0.0656214 0
   vertex 0.0760952 0.0622078 0.5
   vertex 0.0760952 0.0622078 0
  endloop
 endfacet
 facet normal 0.59131 -0.806444 0
  outer loop
   vertex 0.0760952 0.0622078 0.5
   vertex 0.0716971 0.058983 0.5
   vertex 0.0760952 0.0622078 0
  endloop
 endfacet
 facet normal 0.59131 -0.806444 0
  outer loop
   vertex 0.0760952 0.0622078 0
   vertex 0.0716971 0.058983 0.5
   vertex 0.0716971 0.058983 0
  endloop
 endfacet
 facet normal 0.55557 -0.83147 0
  outer loop
   vertex 0.0716971 0.058983 0.5
   vertex 0.0671625 0.055953 0.5
   vertex 0.0716971 0.058983 0
  endloop
 endfacet
 facet normal 0.55557 -0.83147 0
  outer loop
   vertex 0.0716971 0.058983 0
   vertex 0.0671625 0.055953 0.5
   vertex 0.0671625 0.055953 0
  endloop
 endfacet
 facet normal 0.518773 -0.854912 0
  outer loop
   vertex 0.0671625 0.055953 0.5
   vertex 0.0625 0.0531238 0.5
   vertex 0.0671625 0.055953 0
  endloop
 endfacet
 facet normal 0.518773 -0.854912 0
  outer loop
   vertex 0.0671625 0.055953 0
   vertex 0.0625 0.0531238 0.5
   vertex 0.0625 0.0531238 0
  endloop
 endfacet
 facet normal 0.480989 -0.876727 0
  outer loop
   vertex 0.0625 0.0531238 0.5
   vertex 0.0577186 0.0505006 0.5
   vertex 0.0625 0.0531238 0
  endloop
 endfacet
 facet normal 0.480989 -0.876727 0
  outer loop
   vertex 0.0625 0.0531238 0
   vertex 0.0577186 0.0505006 0.5
   vertex 0.0577186 0.0505006 0
  endloop
 endfacet
 facet normal 0.44229 -0.896872 0
  outer loop
   vertex 0.0577186 0.0505006 0.5
   vertex 0.0528273 0.0480885 0.5
   vertex 0.0577186 0.0505006 0
  endloop
 endfacet
 facet normal 0.44229 -0.896872 0
  outer loop
   vertex 0.0577186 0.0505006 0
   vertex 0.0528273 0.0480885 0.5
   vertex 0.0528273 0.0480885 0
  endloop
 endfacet
 facet normal 0.402745 -0.915312 0
  outer loop
   vertex 0.0528273 0.0480885 0.5
   vertex 0.0478354 0.045892 0.5
   vertex 0.0528273 0.0480885 0
  endloop
 endfacet
 facet normal 0.402745 -0.915312 0
  outer loop
   vertex 0.0528273 0.0480885 0
   vertex 0.0478354 0.045892 0.5
   vertex 0.0478354 0.045892 0
  endloop
 endfacet
 facet normal 0.362439 -0.932008 0
  outer loop
   vertex 0.0478354 0.045892 0.5
   vertex 0.0427525 0.0439154 0.5
   vertex 0.0478354 0.045892 0
  endloop
 endfacet
 facet normal 0.362439 -0.932008 0
  outer loop
   vertex 0.0478354 0.045892 0
   vertex 0.0427525 0.0439154 0.5
   vertex 0.0427525 0.0439154 0
  endloop
 endfacet
 facet normal 0.321439 -0.94693 0
  outer loop
   vertex 0.0427525 0.0439154 0.5
   vertex 0.0375882 0.0421624 0.5
   vertex 0.0427525 0.0439154 0
  endloop
 endfacet
 facet normal 0.321439 -0.94693 0
  outer loop
   vertex 0.0427525 0.0439154 0
   vertex 0.0375882 0.0421624 0.5
   vertex 0.0375882 0.0421624 0
  endloop
 endfacet
 facet normal 0.279829 -0.96005 0
  outer loop
   vertex 0.0375882 0.0421624 0.5
   vertex 0.0323524 0.0406362 0.5
   vertex 0.0375882 0.0421624 0
  endloop
 endfacet
 facet normal 0.279829 -0.96005 0
  outer loop
   vertex 0.0375882 0.0421624 0
   vertex 0.0323524 0.0406362 0.5
   vertex 0.0323524 0.0406362 0
  endloop
 endfacet
 facet normal 0.237686 -0.971342 0
  outer loop
   vertex 0.0323524 0.0406362 0.5
   vertex 0.027055 0.03934 0.5
   vertex 0.0323524 0.0406362 0
  endloop
 endfacet
 facet normal 0.237686 -0.971342 0
  outer loop
   vertex 0.0323524 0.0406362 0
   vertex 0.027055 0.03934 0.5
   vertex 0.027055 0.03934 0
  endloop
 endfacet
 facet normal 0.19509 -0.980785 0
  outer loop
   vertex 0.027055 0.03934 0.5
   vertex 0.021706 0.038276 0.5
   vertex 0.027055 0.03934 0
  endloop
 endfacet
 facet normal 0.19509 -0.980785 0
  outer loop
   vertex 0.027055 0.03934 0
   vertex 0.021706 0.038276 0.5
   vertex 0.021706 0.038276 0
  endloop
 endfacet
 facet normal 0.152124 -0.988361 0
  outer loop
   vertex 0.021706 0.038276 0.5
   vertex 0.0163158 0.0374464 0.5
   vertex 0.021706 0.038276 0
  endloop
 endfacet
 facet normal 0.152124 -0.988361 0
  outer loop
   vertex 0.021706 0.038276 0
   vertex 0.0163158 0.0374464 0.5
   vertex 0.0163158 0.0374464 0
  endloop
 endfacet
 facet normal 0.108867 -0.994056 0
  outer loop
   vertex 0.0163158 0.0374464 0.5
   vertex 0.0108945 0.0368526 0.5
   vertex 0.0163158 0.0374464 0
  endloop
 endfacet
 facet normal 0.108867 -0.994056 0
  outer loop
   vertex 0.0163158 0.0374464 0
   vertex 0.0108945 0.0368526 0.5
   vertex 0.0108945 0.0368526 0
  endloop
 endfacet
 facet normal 0.0654029 -0.997859 0
  outer loop
   vertex 0.0108945 0.0368526 0.5
   vertex 0.00545242 0.0364959 0.5
   vertex 0.0108945 0.0368526 0
  endloop
 endfacet
 facet normal 0.0654029 -0.997859 0
  outer loop
   vertex 0.0108945 0.0368526 0
   vertex 0.00545242 0.0364959 0.5
   vertex 0.00545242 0.0364959 0
  endloop
 endfacet
 facet normal 0.0218146 -0.999762 0
  outer loop
   vertex 0.00545242 0.0364959 0.5
   vertex 2.29621e-17 0.036377 0.5
   vertex 0.00545242 0.0364959 0
  endloop
 endfacet
 facet normal 0.0218146 -0.999762 0
  outer loop
   vertex 0.00545242 0.0364959 0
   vertex 2.29621e-17 0.036377 0.5
   vertex 2.29621e-17 0.036377 0
  endloop
 endfacet
 facet normal -0.0218146 -0.999762 -0
  outer loop
   vertex 2.29621e-17 0.036377 0.5
   vertex -0.00545242 0.0364959 0.5
   vertex 2.29621e-17 0.036377 0
  endloop
 endfacet
 facet normal -0.0218146 -0.999762 0
  outer loop
   vertex 2.29621e-17 0.036377 0
   vertex -0.00545242 0.0364959 0.5
   vertex -0.00545242 0.0364959 0
  endloop
 endfacet
 facet normal -0.0654029 -0.997859 -0
  outer loop
   vertex -0.00545242 0.0364959 0.5
   vertex -0.0108945 0.0368526 0.5
   vertex -0.00545242 0.0364959 0
  endloop
 endfacet
 facet normal -0.0654029 -0.997859 0
  outer loop
   vertex -0.00545242 0.0364959 0
   vertex -0.0108945 0.0368526 0.5
   vertex -0.0108945 0.0368526 0
  endloop
 endfacet
 facet normal -0.108867 -0.994056 -0
  outer loop
   vertex -0.0108945 0.0368526 0.5
   vertex -0.0163158 0.0374464 0.5
   vertex -0.0108945 0.0368526 0
  endloop
 endfacet
 facet normal -0.108867 -0.994056 0
  outer loop
   vertex -0.0108945 0.0368526 0
   vertex -0.0163158 0.0374464 0.5
   vertex -0.0163158 0.0374464 0
  endloop
 endfacet
 facet normal -0.152124 -0.988361 -0
  outer loop
   vertex -0.0163158 0.0374464 0.5
   vertex -0.021706 0.038276 0.5
   vertex -0.0163158 0.0374464 0
  endloop
 endfacet
 facet normal -0.152124 -0.988361 0
  outer loop
   vertex -0.0163158 0.0374464 0
   vertex -0.021706 0.038276 0.5
   vertex -0.021706 0.038276 0
  endloop
 endfacet
 facet normal -0.19509 -0.980785 -0
  outer loop
   vertex -0.021706 0.038276 0.5
   vertex -0.027055 0.03934 0.5
   vertex -0.021706 0.038276 0
  endloop
 endfacet
 facet normal -0.19509 -0.980785 0
  outer loop
   vertex -0.021706 0.038276 0
   vertex -0.027055 0.03934 0.5
   vertex -0.027055 0.03934 0
  endloop
 endfacet
 facet normal -0.237686 -0.971342 -0
  outer loop
   vertex -0.027055 0.03934 0.5
   vertex -0.0323524 0.0406362 0.5
   vertex -0.027055 0.03934 0
  endloop
 endfacet
 facet normal -0.237686 -0.971342 0
  outer loop
   vertex -0.027055 0.03934 0
   vertex -0.0323524 0.0406362 0.5
   vertex -0.0323524 0.0406362 0
  endloop
 endfacet
 facet normal -0.279829 -0.96005 -0
  outer loop
   vertex -0.0323524 0.0406362 0.5
   vertex -0.0375882 0.0421624 0.5
   vertex -0.0323524 0.0406362 0
  endloop
 endfacet
 facet normal -0.279829 -0.96005 0
  outer loop
   vertex -0.0323524 0.0406362 0
   vertex -0.0375882 0.0421624 0.5
   vertex -0.0375882 0.0421624 0
  endloop
 endfacet
 facet normal -0.321439 -0.94693 -0
  outer loop
   vertex -0.0375882 0.0421624 0.5
   vertex -0.0427525 0.0439154 0.5
   vertex -0.0375882 0.0421624 0
  endloop
 endfacet
 facet normal -0.321439 -0.94693 0
  outer loop
   vertex -0.0375882 0.0421624 0
   vertex -0.0427525 0.0439154 0.5
   vertex -0.0427525 0.0439154 0
  endloop
 endfacet
 facet normal -0.362439 -0.932008 -0
  outer loop
   vertex -0.0427525 0.0439154 0.5
   vertex -0.0478354 0.045892 0.5
   vertex -0.0427525 0.0439154 0
  endloop
 endfacet
 facet normal -0.362439 -0.932008 0
  outer loop
   vertex -0.0427525 0.0439154 0
   vertex -0.0478354 0.045892 0.5
   vertex -0.0478354 0.045892 0
  endloop
 endfacet
 facet normal -0.402745 -0.915312 -0
  outer loop
   vertex -0.0478354 0.045892 0.5
   vertex -0.0528273 0.0480885 0.5
   vertex -0.0478354 0.045892 0
  endloop
 endfacet
 facet normal -0.402745 -0.915312 0
  outer loop
   vertex -0.0478354 0.045892 0
   vertex -0.0528273 0.0480885 0.5
   vertex -0.0528273 0.0480885 0
  endloop
 endfacet
 facet normal -0.44229 -0.896872 -0
  outer loop
   vertex -0.0528273 0.0480885 0.5
   vertex -0.0577186 0.0505006 0.5
   vertex -0.0528273 0.0480885 0
  endloop
 endfacet
 facet normal -0.44229 -0.896872 0
  outer loop
   vertex -0.0528273 0.0480885 0
   vertex -0.0577186 0.0505006 0.5
   vertex -0.0577186 0.0505006 0
  endloop
 endfacet
 facet normal -0.480989 -0.876727 -0
  outer loop
   vertex -0.0577186 0.0505006 0.5
   vertex -0.0625 0.0531238 0.5
   vertex -0.0577186 0.0505006 0
  endloop
 endfacet
 facet normal -0.480989 -0.876727 0
  outer loop
   vertex -0.0577186 0.0505006 0
   vertex -0.0625 0.0531238 0.5
   vertex -0.0625 0.0531238 0
  endloop
 endfacet
 facet normal -0.518773 -0.854912 -0
  outer loop
   vertex -0.0625 0.0531238 0.5
   vertex -0.0671625 0.055953 0.5
   vertex -0.0625 0.0531238 0
  endloop
 endfacet
 facet normal -0.518773 -0.854912 0
  outer loop
   vertex -0.0625 0.0531238 0
   vertex -0.0671625 0.055953 0.5
   vertex -0.0671625 0.055953 0
  endloop
 endfacet
 facet normal -0.55557 -0.83147 -0
  outer loop
   vertex -0.0671625 0.055953 0.5
   vertex -0.0716971 0.058983 0.5
   vertex -0.0671625 0.055953 0
  endloop
 endfacet
 facet normal -0.55557 -0.83147 0
  outer loop
   vertex -0.0671625 0.055953 0
   vertex -0.0716971 0.058983 0.5
   vertex -0.0716971 0.058983 0
  endloop
 endfacet
 facet normal -0.59131 -0.806444 -0
  outer loop
   vertex -0.0716971 0.058983 0.5
   vertex -0.0760952 0.0622078 0.5
   vertex -0.0716971 0.058983 0
  endloop
 endfacet
 facet normal -0.59131 -0.806444 0
  outer loop
   vertex -0.0716971 0.058983 0
   vertex -0.0760952 0.0622078 0.5
   vertex -0.0760952 0.0622078 0
  endloop
 endfacet
 facet normal -0.625923 -0.779885 -0
  outer loop
   vertex -0.0760952 0.0622078 0.5
   vertex -0.0803485 0.0656214 0.5
   vertex -0.0760952 0.0622078 0
  endloop
 endfacet
 facet normal -0.625923 -0.779885 0
  outer loop
   vertex -0.0760952 0.0622078 0
   vertex -0.0803485 0.0656214 0.5
   vertex -0.0803485 0.0656214 0
  endloop
 endfacet
 facet normal -0.659346 -0.75184 -0
  outer loop
   vertex -0.0803485 0.0656214 0.5
   vertex -0.0844488 0.0692173 0.5
   vertex -0.0803485 0.0656214 0
  endloop
 endfacet
 facet normal -0.659346 -0.75184 0
  outer loop
   vertex -0.0803485 0.0656214 0
   vertex -0.0844488 0.0692173 0.5
   vertex -0.0844488 0.0692173 0
  endloop
 endfacet
 facet normal -0.691513 -0.722364 -0
  outer loop
   vertex -0.0844488 0.0692173 0.5
   vertex -0.0883883 0.0729886 0.5
   vertex -0.0844488 0.0692173 0
  endloop
 endfacet
 facet normal -0.691513 -0.722364 0
  outer loop
   vertex -0.0844488 0.0692173 0
   vertex -0.0883883 0.0729886 0.5
   vertex -0.0883883 0.0729886 0
  endloop
 endfacet
 facet normal -0.722364 -0.691513 -0
  outer loop
   vertex -0.0883883 0.0729886 0.5
   vertex -0.0921597 0.0769282 0.5
   vertex -0.0883883 0.0729886 0
  endloop
 endfacet
 facet normal -0.722364 -0.691513 0
  outer loop
   vertex -0.0883883 0.0729886 0
   vertex -0.0921597 0.0769282 0.5
   vertex -0.0921597 0.0769282 0
  endloop
 endfacet
 facet normal -0.75184 -0.659346 -0
  outer loop
   vertex -0.0921597 0.0769282 0.5
   vertex -0.0957556 0.0810285 0.5
   vertex -0.0921597 0.0769282 0
  endloop
 endfacet
 facet normal -0.75184 -0.659346 0
  outer loop
   vertex -0.0921597 0.0769282 0
   vertex -0.0957556 0.0810285 0.5
   vertex -0.0957556 0.0810285 0
  endloop
 endfacet
 facet normal -0.779885 -0.625923 -0
  outer loop
   vertex -0.0957556 0.0810285 0.5
   vertex -0.0991692 0.0852818 0.5
   vertex -0.0957556 0.0810285 0
  endloop
 endfacet
 facet normal -0.779885 -0.625923 0
  outer loop
   vertex -0.0957556 0.0810285 0
   vertex -0.0991692 0.0852818 0.5
   vertex -0.0991692 0.0852818 0
  endloop
 endfacet
 facet normal -0.806444 -0.59131 -0
  outer loop
   vertex -0.0991692 0.0852818 0.5
   vertex -0.102394 0.0896799 0.5
   vertex -0.0991692 0.0852818 0
  endloop
 endfacet
 facet normal -0.806444 -0.59131 0
  outer loop
   vertex -0.0991692 0.0852818 0
   vertex -0.102394 0.0896799 0.5
   vertex -0.102394 0.0896799 0
  endloop
 endfacet
 facet normal -0.83147 -0.55557 -0
  outer loop
   vertex -0.102394 0.0896799 0.5
   vertex -0.105424 0.0942145 0.5
   vertex -0.102394 0.0896799 0
  endloop
 endfacet
 facet normal -0.83147 -0.55557 0
  outer loop
   vertex -0.102394 0.0896799 0
   vertex -0.105424 0.0942145 0.5
   vertex -0.105424 0.0942145 0
  endloop
 endfacet
 facet normal -0.854912 -0.518773 -0
  outer loop
   vertex -0.105424 0.0942145 0.5
   vertex -0.108253 0.098877 0.5
   vertex -0.105424 0.0942145 0
  endloop
 endfacet
 facet normal -0.854912 -0.518773 0
  outer loop
   vertex -0.105424 0.0942145 0
   vertex -0.108253 0.098877 0.5
   vertex -0.108253 0.098877 0
  endloop
 endfacet
 facet normal -0.876727 -0.480989 -0
  outer loop
   vertex -0.108253 0.098877 0.5
   vertex -0.110876 0.103658 0.5
   vertex -0.108253 0.098877 0
  endloop
 endfacet
 facet normal -0.876727 -0.480989 0
  outer loop
   vertex -0.108253 0.098877 0
   vertex -0.110876 0.103658 0.5
   vertex -0.110876 0.103658 0
  endloop
 endfacet
 facet normal -0.896872 -0.44229 -0
  outer loop
   vertex -0.110876 0.103658 0.5
   vertex -0.113288 0.10855 0.5
   vertex -0.110876 0.103658 0
  endloop
 endfacet
 facet normal -0.896872 -0.44229 0
  outer loop
   vertex -0.110876 0.103658 0
   vertex -0.113288 0.10855 0.5
   vertex -0.113288 0.10855 0
  endloop
 endfacet
 facet normal -0.915312 -0.402745 -0
  outer loop
   vertex -0.113288 0.10855 0.5
   vertex -0.115485 0.113542 0.5
   vertex -0.113288 0.10855 0
  endloop
 endfacet
 facet normal -0.915312 -0.402745 0
  outer loop
   vertex -0.113288 0.10855 0
   vertex -0.115485 0.113542 0.5
   vertex -0.115485 0.113542 0
  endloop
 endfacet
 facet normal -0.932008 -0.362439 -0
  outer loop
   vertex -0.115485 0.113542 0.5
   vertex -0.117462 0.118624 0.5
   vertex -0.115485 0.113542 0
  endloop
 endfacet
 facet normal -0.932008 -0.362439 0
  outer loop
   vertex -0.115485 0.113542 0
   vertex -0.117462 0.118624 0.5
   vertex -0.117462 0.118624 0
  endloop
 endfacet
 facet normal -0.94693 -0.321439 -0
  outer loop
   vertex -0.117462 0.118624 0.5
   vertex -0.119215 0.123789 0.5
   vertex -0.117462 0.118624 0
  endloop
 endfacet
 facet normal -0.94693 -0.321439 0
  outer loop
   vertex -0.117462 0.118624 0
   vertex -0.119215 0.123789 0.5
   vertex -0.119215 0.123789 0
  endloop
 endfacet
 facet normal -0.96005 -0.279829 -0
  outer loop
   vertex -0.119215 0.123789 0.5
   vertex -0.120741 0.129025 0.5
   vertex -0.119215 0.123789 0
  endloop
 endfacet
 facet normal -0.96005 -0.279829 0
  outer loop
   vertex -0.119215 0.123789 0
   vertex -0.120741 0.129025 0.5
   vertex -0.120741 0.129025 0
  endloop
 endfacet
 facet normal -0.971342 -0.237686 -0
  outer loop
   vertex -0.120741 0.129025 0.5
   vertex -0.122037 0.134322 0.5
   vertex -0.120741 0.129025 0
  endloop
 endfacet
 facet normal -0.971342 -0.237686 0
  outer loop
   vertex -0.120741 0.129025 0
   vertex -0.122037 0.134322 0.5
   vertex -0.122037 0.134322 0
  endloop
 endfacet
 facet normal -0.980785 -0.19509 -0
  outer loop
   vertex -0.122037 0.134322 0.5
   vertex -0.123101 0.139671 0.5
   vertex -0.122037 0.134322 0
  endloop
 endfacet
 facet normal -0.980785 -0.19509 0
  outer loop
   vertex -0.122037 0.134322 0
   vertex -0.123101 0.139671 0.5
   vertex -0.123101 0.139671 0
  endloop
 endfacet
 facet normal -0.988361 -0.152124 -0
  outer loop
   vertex -0.123101 0.139671 0.5
   vertex -0.123931 0.145061 0.5
   vertex -0.123101 0.139671 0
  endloop
 endfacet
 facet normal -0.988361 -0.152124 0
  outer loop
   vertex -0.123101 0.139671 0
   vertex -0.123931 0.145061 0.5
   vertex -0.123931 0.145061 0
  endloop
 endfacet
 facet normal -0.994056 -0.108867 -0
  outer loop
   vertex -0.123931 0.145061 0.5
   vertex -0.124524 0.150483 0.5
   vertex -0.123931 0.145061 0
  endloop
 endfacet
 facet normal -0.994056 -0.108867 0
  outer loop
   vertex -0.123931 0.145061 0
   vertex -0.124524 0.150483 0.5
   vertex -0.124524 0.150483 0
  endloop
 endfacet
 facet normal -0.997859 -0.0654029 -0
  outer loop
   vertex -0.124524 0.150483 0.5
   vertex -0.124881 0.155925 0.5
   vertex -0.124524 0.150483 0
  endloop
 endfacet
 facet normal -0.997859 -0.0654029 0
  outer loop
   vertex -0.124524 0.150483 0
   vertex -0.124881 0.155925 0.5
   vertex -0.124881 0.155925 0
  endloop
 endfacet
 facet normal -0.999762 -0.0218146 -0
  outer loop
   vertex -0.124881 0.155925 0.5
   vertex -0.125 0.161377 0.5
   vertex -0.124881 0.155925 0
  endloop
 endfacet
 facet normal -0.999762 -0.0218146 0
  outer loop
   vertex -0.124881 0.155925 0
   vertex -0.125 0.161377 0.5
   vertex -0.125 0.161377 0
  endloop
 endfacet
 facet normal -0.999762 0.0218146 0
  outer loop
   vertex -0.125 0.161377 0.5
   vertex -0.124881 0.166829 0.5
   vertex -0.125 0.161377 0
  endloop
 endfacet
 facet normal 0 -0 1
  outer loop
   vertex 0.124524 0.150483 0.5
   vertex 0.124881 0.155925 0.5
   vertex 0 0.161377 0.5
  endloop
 endfacet
 facet normal 0 -0 1
  outer loop
   vertex 0.124881 0.155925 0.5
   vertex 0.125 0.161377 0.5
   vertex 0 0.161377 0.5
  endloop
 endfacet
 facet normal 0 0 1
  outer loop
   vertex 0 0.161377 0.5
   vertex 0.125 0.161377 0.5
   vertex 0.124881 0.166829 0.5
  endloop
 endfacet
 facet normal 0 -0 1
  outer loop
   vertex 0.122037 0.134322 0.5
   vertex 0.123101 0.139671 0.5
   vertex 0 0.161377 0.5
  endloop
 endfacet
 facet normal 0 -0 1
  outer loop
   vertex 0.123101 0.139671 0.5
   vertex 0.123931 0.145061 0.5
   vertex 0 0.161377 0.5
  endloop
 endfacet
 facet normal 0 0 1
  outer loop
   vertex 0 0.161377 0.5
   vertex 0.123931 0.145061 0.5
   vertex 0.124524 0.150483 0.5
  endloop
 endfacet
 facet normal 0 -0 1
  outer loop
   vertex 0.117462 0.118624 0.5
   vertex 0.119215 0.123789 0.5
   vertex 0 0.161377 0.5
  endloop
 endfacet
 facet normal 0 -0 1
  outer loop
   vertex 0.119215 0.123789 0.5
   vertex 0.120741 0.129025 0.5
   vertex 0 0.161377 0.5
  endloop
 endfacet
 facet normal 0 0 1
  outer loop
   vertex 0 0.161377 0.5
   vertex 0.120741 0.129025 0.5
   vertex 0.122037 0.134322 0.5
  endloop
 endfacet
 facet normal 0 -0 1
  outer loop
   vertex 0.110876 0.103658 0.5
   vertex 0.113288 0.10855 0.5
   vertex 0 0.161377 0.5
  endloop
 endfacet
 facet normal 0 -0 1
  outer loop
   vertex 0.113288 0.10855 0.5
   vertex 0.115485 0.113542 0.5
   vertex 0 0.161377 0.5
  endloop
 endfacet
 facet normal 0 0 1
  outer loop
   vertex 0 0.161377 0.5
   vertex 0.115485 0.113542 0.5
   vertex 0.117462 0.118624 0.5
  endloop
 endfacet
 facet normal 0 -0 1
  outer loop
   vertex 0.102394 0.0896799 0.5
   vertex 0.105424 0.0942145 0.5
   vertex 0 0.161377 0.5
  endloop
 endfacet
 facet normal 0 -0 1
  outer loop
   vertex 0.105424 0.0942145 0.5
   vertex 0.108253 0.098877 0.5
   vertex 0 0.161377 0.5
  endloop
 endfacet
 facet normal 0 0 1
  outer loop
   vertex 0 0.161377 0.5
   vertex 0.108253 0.098877 0.5
   vertex 0.110876 0.103658 0.5
  endloop
 endfacet
 facet normal 0 -0 1
  outer loop
   vertex 0.0921597 0.0769282 0.5
   vertex 0.0957556 0.0810285 0.5
   vertex 0 0.161377 0.5
  endloop
 endfacet
 facet normal 0 -0 1
  outer loop
   vertex 0.0957556 0.0810285 0.5
   vertex 0.0991692 0.0852818 0.5
   vertex 0 0.161377 0.5
  endloop
 endfacet
 facet normal 0 0 1
  outer loop
   vertex 0 0.161377 0.5
   vertex 0.0991692 0.0852818 0.5
   vertex 0.102394 0.0896799 0.5
  endloop
 endfacet
 facet normal 0 -0 1
  outer loop
   vertex 0.0803485 0.0656214 0.5
   vertex 0.0844488 0.0692173 0.5
   vertex 0 0.161377 0.5
  endloop
 endfacet
 facet normal 0 -0 1
  outer loop
   vertex 0.0844488 0.0692173 0.5
   vertex 0.0883883 0.0729886 0.5
   vertex 0 0.161377 0.5
  endloop
 endfacet
 facet normal 0 0 1
  outer loop
   vertex 0 0.161377 0.5
   vertex 0.0883883 0.0729886 0.5
   vertex 0.0921597 0.0769282 0.5
  endloop
 endfacet
 facet normal 0 -0 1
  outer loop
   vertex 0.0671625 0.055953 0.5
   vertex 0.0716971 0.058983 0.5
   vertex 0 0.161377 0.5
  endloop
 endfacet
 facet normal 0 -0 1
  outer loop
   vertex 0.0716971 0.058983 0.5
   vertex 0.0760952 0.0622078 0.5
   vertex 0 0.161377 0.5
  endloop
 endfacet
 facet normal 0 0 1
  outer loop
   vertex 0 0.161377 0.5
   vertex 0.0760952 0.0622078 0.5
   vertex 0.0803485 0.0656214 0.5
  endloop
 endfacet
 facet normal 0 -0 1
  outer loop
   vertex 0.0528273 0.0480885 0.5
   vertex 0.0577186 0.0505006 0.5
   vertex 0 0.161377 0.5
  endloop
 endfacet
 facet normal 0 -0 1
  outer loop
   vertex 0.0577186 0.0505006 0.5
   vertex 0.0625 0.0531238 0.5
   vertex 0 0.161377 0.5
  endloop
 endfacet
 facet normal 0 0 1
  outer loop
   vertex 0 0.161377 0.5
   vertex 0.0625 0.0531238 0.5
   vertex 0.0671625 0.055953 0.5
  endloop
 endfacet
 facet normal 0 -0 1
  outer loop
   vertex 0.0375882 0.0421624 0.5
   vertex 0.0427525 0.0439154 0.5
   vertex 0 0.161377 0.5
  endloop
 endfacet
 facet normal 0 -0 1
  outer loop
   vertex 0.0427525 0.0439154 0.5
   vertex 0.0478354 0.045892 0.5
   vertex 0 0.161377 0.5
  endloop
 endfacet
 facet normal 0 0 1
  outer loop
   vertex 0 0.161377 0.5
   vertex 0.0478354 0.045892 0.5
   vertex 0.0528273 0.0480885 0.5
  endloop
 endfacet
 facet normal 0 -0 1
  outer loop
   vertex 0.021706 0.038276 0.5
   vertex 0.027055 0.03934 0.5
   vertex 0 0.161377 0.5
  endloop
 endfacet
 facet normal 0 -0 1
  outer loop
   vertex 0.027055 0.03934 0.5
   vertex 0.0323524 0.0406362 0.5
   vertex 0 0.161377 0.5
  endloop
 endfacet
 facet normal 0 0 1
  outer loop
   vertex 0 0.161377 0.5
   vertex 0.0323524 0.0406362 0.5
   vertex 0.0375882 0.0421624 0.5
  endloop
 endfacet
 facet normal 0 -0 1
  outer loop
   vertex 0.00545242 0.0364959 0.5
   vertex 0.0108945 0.0368526 0.5
   vertex 0 0.161377 0.5
  endloop
 endfacet
 facet normal 0 -0 1
  outer loop
   vertex 0.0108945 0.0368526 0.5
   vertex 0.0163158 0.0374464 0.5
   vertex 0 0.161377 0.5
  endloop
 endfacet
 facet normal 0 0 1
  outer loop
   vertex 0 0.161377 0.5
   vertex 0.0163158 0.0374464 0.5
   vertex 0.021706 0.038276 0.5
  endloop
 endfacet
 facet normal -0 0 1
  outer loop
   vertex -0.0108945 0.0368526 0.5
   vertex -0.00545242 0.0364959 0.5
   vertex 0 0.161377 0.5
  endloop
 endfacet
 facet normal -0 0 1
  outer loop
   vertex -0.00545242 0.0364959 0.5
   vertex 2.29621e-17 0.036377 0.5
   vertex 0 0.161377 0.5
  endloop
 endfacet
 facet normal 0 0 1
  outer loop
   vertex 0 0.161377 0.5
   vertex 2.29621e-17 0.036377 0.5
   vertex 0.00545242 0.0364959 0.5
  endloop
 endfacet
 facet normal -0 0 1
  outer loop
   vertex -0.027055 0.03934 0.5
   vertex -0.021706 0.038276 0.5
   vertex 0 0.161377 0.5
  endloop
 endfacet
 facet normal -0 0 1
  outer loop
   vertex -0.021706 0.038276 0.5
   vertex -0.0163158 0.0374464 0.5
   vertex 0 0.161377 0.5
  endloop
 endfacet
 facet normal 0 0 1
  outer loop
   vertex 0 0.161377 0.5
   vertex -0.0163158 0.0374464 0.5
   vertex -0.0108945 0.0368526 0.5
  endloop
 endfacet
 facet normal -0 0 1
  outer loop
   vertex -0.0427525 0.0439154 0.5
   vertex -0.0375882 0.0421624 0.5
   vertex 0 0.161377 0.5
  endloop
 endfacet
 facet normal -0 0 1
  outer loop
   vertex -0.0375882 0.0421624 0.5
   vertex -0.0323524 0.0406362 0.5
   vertex 0 0.161377 0.5
  endloop
 endfacet
 facet normal 0 0 1
  outer loop
   vertex 0 0.161377 0.5
   vertex -0.0323524 0.0406362 0.5
   vertex -0.027055 0.03934 0.5
  endloop
 endfacet
 facet normal -0 0 1
  outer loop
   vertex -0.0577186 0.0505006 0.5
   vertex -0.0528273 0.0480885 0.5
   vertex 0 0.161377 0.5
  endloop
 endfacet
 facet normal -0 0 1
  outer loop
   vertex -0.0528273 0.0480885 0.5
   vertex -0.0478354 0.045892 0.5
   vertex 0 0.161377 0.5
  endloop
 endfacet
 facet normal 0 0 1
  outer loop
   vertex 0 0.161377 0.5
   vertex -0.0478354 0.045892 0.5
   vertex -0.0427525 0.0439154 0.5
  endloop
 endfacet
 facet normal -0 0 1
  outer loop
   vertex -0.0716971 0.058983 0.5
   vertex -0.0671625 0.055953 0.5
   vertex 0 0.161377 0.5
  endloop
 endfacet
 facet normal -0 0 1
  outer loop
   vertex -0.0671625 0.055953 0.5
   vertex -0.0625 0.0531238 0.5
   vertex 0 0.161377 0.5
  endloop
 endfacet
 facet normal 0 0 1
  outer loop
   vertex 0 0.161377 0.5
   vertex -0.0625 0.0531238 0.5
   vertex -0.0577186 0.0505006 0.5
  endloop
 endfacet
 facet normal -0 0 1
  outer loop
   vertex -0.0844488 0.0692173 0.5
   vertex -0.0803485 0.0656214 0.5
   vertex 0 0.161377 0.5
  endloop
 endfacet
 facet normal -0 0 1
  outer loop
   vertex -0.0803485 0.0656214 0.5
   vertex -0.0760952 0.0622078 0.5
   vertex 0 0.161377 0.5
  endloop
 endfacet
 facet normal 0 0 1
  outer loop
   vertex 0 0.161377 0.5
   vertex -0.0760952 0.0622078 0.5
   vertex -0.0716971 0.058983 0.5
  endloop
 endfacet
 facet normal -0 0 1
  outer loop
   vertex -0.0957556 0.0810285 0.5
   vertex -0.0921597 0.0769282 0.5
   vertex 0 0.161377 0.5
  endloop
 endfacet
 facet normal -0 0 1
  outer loop
   vertex -0.0921597 0.0769282 0.5
   vertex -0.0883883 0.0729886 0.5
   vertex 0 0.161377 0.5
  endloop
 endfacet
 facet normal 0 0 1
  outer loop
   vertex 0 0.161377 0.5
   vertex -0.0883883 0.0729886 0.5
   vertex -0.0844488 0.0692173 0.5
  endloop
 endfacet
 facet normal -0 0 1
  outer loop
   vertex -0.105424 0.0942145 0.5
   vertex -0.102394 0.0896799 0.5
   vertex 0 0.161377 0.5
  endloop
 endfacet
 facet normal -0 0 1
  outer loop
   vertex -0.102394 0.0896799 0.5
   vertex -0.0991692 0.0852818 0.5
   vertex 0 0.161377 0.5
  endloop
 endfacet
 facet normal 0 0 1
  outer loop
   vertex 0 0.161377 0.5
   vertex -0.0991692 0.0852818 0.5
   vertex -0.0957556 0.0810285 0.5
  endloop
 endfacet
 facet normal -0 0 1
  outer loop
   vertex -0.113288 0.10855 0.5
   vertex -0.110876 0.103658 0.5
   vertex 0 0.161377 0.5
  endloop
 endfacet
 facet normal -0 0 1
  outer loop
   vertex -0.110876 0.103658 0.5
   vertex -0.108253 0.098877 0.5
   vertex 0 0.161377 0.5
  endloop
 endfacet
 facet normal 0 0 1
  outer loop
   vertex 0 0.161377 0.5
   vertex -0.108253 0.098877 0.5
   vertex -0.105424 0.0942145 0.5
  endloop
 endfacet
 facet normal -0 0 1
  outer loop
   vertex -0.119215 0.123789 0.5
   vertex -0.117462 0.118624 0.5
   vertex 0 0.161377 0.5
  endloop
 endfacet
 facet normal -0 0 1
  outer loop
   vertex -0.117462 0.118624 0.5
   vertex -0.115485 0.113542 0.5
   vertex 0 0.161377 0.5
  endloop
 endfacet
 facet normal 0 0 1
  outer loop
   vertex 0 0.161377 0.5
   vertex -0.115485 0.113542 0.5
   vertex -0.113288 0.10855 0.5
  endloop
 endfacet
 facet normal -0 0 1
  outer loop
   vertex -0.123101 0.139671 0.5
   vertex -0.122037 0.134322 0.5
   vertex 0 0.161377 0.5
  endloop
 endfacet
 facet normal -0 0 1
  outer loop
   vertex -0.122037 0.134322 0.5
   vertex -0.120741 0.129025 0.5
   vertex 0 0.161377 0.5
  endloop
 endfacet
 facet normal 0 0 1
  outer loop
   vertex 0 0.161377 0.5
   vertex -0.120741 0.129025 0.5
   vertex -0.119215 0.123789 0.5
  endloop
 endfacet
 facet normal -0 0 1
  outer loop
   vertex -0.124881 0.155925 0.5
   vertex -0.124524 0.150483 0.5
   vertex 0 0.161377 0.5
  endloop
 endfacet
 facet normal -0 0 1
  outer loop
   vertex -0.124524 0.150483 0.5
   vertex -0.123931 0.145061 0.5
   vertex 0 0.161377 0.5
  endloop
 endfacet
 facet normal 0 0 1
  outer loop
   vertex 0 0.161377 0.5
   vertex -0.123931 0.145061 0.5
   vertex -0.123101 0.139671 0.5
  endloop
 endfacet
 facet normal 0 0 1
  outer loop
   vertex -0.124524 0.172271 0.5
   vertex -0.124881 0.166829 0.5
   vertex 0 0.161377 0.5
  endloop
 endfacet
 facet normal 0 0 1
  outer loop
   vertex -0.124881 0.166829 0.5
   vertex -0.125 0.161377 0.5
   vertex 0 0.161377 0.5
  endloop
 endfacet
 facet normal 0 0 1
  outer loop
   vertex 0 0.161377 0.5
   vertex -0.125 0.161377 0.5
   vertex -0.124881 0.155925 0.5
  endloop
 endfacet
 facet normal 0 0 1
  outer loop
   vertex -0.122037 0.188432 0.5
   vertex -0.123101 0.183083 0.5
   vertex 0 0.161377 0.5
  endloop
 endfacet
 facet normal 0 0 1
  outer loop
   vertex -0.123101 0.183083 0.5
   vertex -0.123931 0.177693 0.5
   vertex 0 0.161377 0.5
  endloop
 endfacet
 facet normal 0 0 1
  outer loop
   vertex 0 0.161377 0.5
   vertex -0.123931 0.177693 0.5
   vertex -0.124524 0.172271 0.5
  endloop
 endfacet
 facet normal 0 0 1
  outer loop
   vertex -0.117462 0.204129 0.5
   vertex -0.119215 0.198965 0.5
   vertex 0 0.161377 0.5
  endloop
 endfacet
 facet normal 0 0 1
  outer loop
   vertex -0.119215 0.198965 0.5
   vertex -0.120741 0.193729 0.5
   vertex 0 0.161377 0.5
  endloop
 endfacet
 facet normal 0 0 1
  outer loop
   vertex 0 0.161377 0.5
   vertex -0.120741 0.193729 0.5
   vertex -0.122037 0.188432 0.5
  endloop
 endfacet
 facet normal 0 0 1
  outer loop
   vertex -0.110876 0.219096 0.5
   vertex -0.113288 0.214204 0.5
   vertex 0 0.161377 0.5
  endloop
 endfacet
 facet normal 0 0 1
  outer loop
   vertex -0.113288 0.214204 0.5
   vertex -0.115485 0.209212 0.5
   vertex 0 0.161377 0.5
  endloop
 endfacet
 facet normal 0 0 1
  outer loop
   vertex 0 0.161377 0.5
   vertex -0.115485 0.209212 0.5
   vertex -0.117462 0.204129 0.5
  endloop
 endfacet
 facet normal 0 0 1
  outer loop
   vertex -0.102394 0.233074 0.5
   vertex -0.105424 0.228539 0.5
   vertex 0 0.161377 0.5
  endloop
 endfacet
 facet normal 0 0 1
  outer loop
   vertex -0.105424 0.228539 0.5
   vertex -0.108253 0.223877 0.5
   vertex 0 0.161377 0.5
  endloop
 endfacet
 facet normal 0 0 1
  outer loop
   vertex 0 0.161377 0.5
   vertex -0.108253 0.223877 0.5
   vertex -0.110876 0.219096 0.5
  endloop
 endfacet
 facet normal 0 0 1
  outer loop
   vertex -0.0921597 0.245826 0.5
   vertex -0.0957556 0.241725 0.5
   vertex 0 0.161377 0.5
  endloop
 endfacet
 facet normal 0 0 1
  outer loop
   vertex -0.0957556 0.241725 0.5
   vertex -0.0991692 0.237472 0.5
   vertex 0 0.161377 0.5
  endloop
 endfacet
 facet normal 0 0 1
  outer loop
   vertex 0 0.161377 0.5
   vertex -0.0991692 0.237472 0.5
   vertex -0.102394 0.233074 0.5
  endloop
 endfacet
 facet normal 0 0 1
  outer loop
   vertex -0.0803485 0.257133 0.5
   vertex -0.0844488 0.253537 0.5
   vertex 0 0.161377 0.5
  endloop
 endfacet
 facet normal 0 0 1
  outer loop
   vertex -0.0844488 0.253537 0.5
   vertex -0.0883883 0.249765 0.5
   vertex 0 0.161377 0.5
  endloop
 endfacet
 facet normal 0 0 1
  outer loop
   vertex 0 0.161377 0.5
   vertex -0.0883883 0.249765 0.5
   vertex -0.0921597 0.245826 0.5
  endloop
 endfacet
 facet normal 0 0 1
  outer loop
   vertex -0.0671625 0.266801 0.5
   vertex -0.0716971 0.263771 0.5
   vertex 0 0.161377 0.5
  endloop
 endfacet
 facet normal 0 0 1
  outer loop
   vertex -0.0716971 0.263771 0.5
   vertex -0.0760952 0.260546 0.5
   vertex 0 0.161377 0.5
  endloop
 endfacet
 facet normal 0 0 1
  outer loop
   vertex 0 0.161377 0.5
   vertex -0.0760952 0.260546 0.5
   vertex -0.0803485 0.257133 0.5
  endloop
 endfacet
 facet normal 0 0 1
  outer loop
   vertex -0.0528273 0.274665 0.5
   vertex -0.0577186 0.272253 0.5
   vertex 0 0.161377 0.5
  endloop
 endfacet
 facet normal 0 0 1
  outer loop
   vertex -0.0577186 0.272253 0.5
   vertex -0.0625 0.26963 0.5
   vertex 0 0.161377 0.5
  endloop
 endfacet
 facet normal 0 0 1
  outer loop
   vertex 0 0.161377 0.5
   vertex -0.0625 0.26963 0.5
   vertex -0.0671625 0.266801 0.5
  endloop
 endfacet
 facet normal 0 0 1
  outer loop
   vertex -0.0375882 0.280592 0.5
   vertex -0.0427525 0.278839 0.5
   vertex 0 0.161377 0.5
  endloop
 endfacet
 facet normal 0 0 1
  outer loop
   vertex -0.0427525 0.278839 0.5
   vertex -0.0478354 0.276862 0.5
   vertex 0 0.161377 0.5
  endloop
 endfacet
 facet normal 0 0 1
  outer loop
   vertex 0 0.161377 0.5
   vertex -0.0478354 0.276862 0.5
   vertex -0.0528273 0.274665 0.5
  endloop
 endfacet
 facet normal 0 0 1
  outer loop
   vertex -0.021706 0.284478 0.5
   vertex -0.027055 0.283414 0.5
   vertex 0 0.161377 0.5
  endloop
 endfacet
 facet normal 0 0 1
  outer loop
   vertex -0.027055 0.283414 0.5
   vertex -0.0323524 0.282118 0.5
   vertex 0 0.161377 0.5
  endloop
 endfacet
 facet normal 0 0 1
  outer loop
   vertex 0 0.161377 0.5
   vertex -0.0323524 0.282118 0.5
   vertex -0.0375882 0.280592 0.5
  endloop
 endfacet
 facet normal 0 0 1
  outer loop
   vertex -0.00545242 0.286258 0.5
   vertex -0.0108945 0.285901 0.5
   vertex 0 0.161377 0.5
  endloop
 endfacet
 facet normal 0 0 1
  outer loop
   vertex -0.0108945 0.285901 0.5
   vertex -0.0163158 0.285308 0.5
   vertex 0 0.161377 0.5
  endloop
 endfacet
 facet normal 0 0 1
  outer loop
   vertex 0 0.161377 0.5
   vertex -0.0163158 0.285308 0.5
   vertex -0.021706 0.284478 0.5
  endloop
 endfacet
 facet normal 0 0 1
  outer loop
   vertex 0.0108945 0.285901 0.5
   vertex 0.00545242 0.286258 0.5
   vertex 0 0.161377 0.5
  endloop
 endfacet
 facet normal 0 0 1
  outer loop
   vertex 0.00545242 0.286258 0.5
   vertex -7.65404e-18 0.286377 0.5
   vertex 0 0.161377 0.5
  endloop
 endfacet
 facet normal 0 0 1
  outer loop
   vertex 0 0.161377 0.5
   vertex -7.65404e-18 0.286377 0.5
   vertex -0.00545242 0.286258 0.5
  endloop
 endfacet
 facet normal 0 0 1
  outer loop
   vertex 0.027055 0.283414 0.5
   vertex 0.021706 0.284478 0.5
   vertex 0 0.161377 0.5
  endloop
 endfacet
 facet normal 0 0 1
  outer loop
   vertex 0.021706 0.284478 0.5
   vertex 0.0163158 0.285308 0.5
   vertex 0 0.161377 0.5
  endloop
 endfacet
 facet normal 0 0 1
  outer loop
   vertex 0 0.161377 0.5
   vertex 0.0163158 0.285308 0.5
   vertex 0.0108945 0.285901 0.5
  endloop
 endfacet
 facet normal 0 0 1
  outer loop
   vertex 0.0427525 0.278839 0.5
   vertex 0.0375882 0.280592 0.5
   vertex 0 0.161377 0.5
  endloop
 endfacet
 facet normal 0 0 1
  outer loop
   vertex 0.0375882 0.280592 0.5
   vertex 0.0323524 0.282118 0.5
   vertex 0 0.161377 0.5
  endloop
 endfacet
 facet normal 0 0 1
  outer loop
   vertex 0 0.161377 0.5
   vertex 0.0323524 0.282118 0.5
   vertex 0.027055 0.283414 0.5
  endloop
 endfacet
 facet normal 0 0 1
  outer loop
   vertex 0.0577186 0.272253 0.5
   vertex 0.0528273 0.274665 0.5
   vertex 0 0.161377 0.5
  endloop
 endfacet
 facet normal 0 0 1
  outer loop
   vertex 0.0528273 0.274665 0.5
   vertex 0.0478354 0.276862 0.5
   vertex 0 0.161377 0.5
  endloop
 endfacet
 facet normal 0 0 1
  outer loop
   vertex 0 0.161377 0.5
   vertex 0.0478354 0.276862 0.5
   vertex 0.0427525 0.278839 0.5
  endloop
 endfacet
 facet normal 0 0 1
  outer loop
   vertex 0.0716971 0.263771 0.5
   vertex 0.0671625 0.266801 0.5
   vertex 0 0.161377 0.5
  endloop
 endfacet
 facet normal 0 0 1
  outer loop
   vertex 0.0671625 0.266801 0.5
   vertex 0.0625 0.26963 0.5
   vertex 0 0.161377 0.5
  endloop
 endfacet
 facet normal 0 0 1
  outer loop
   vertex 0 0.161377 0.5
   vertex 0.0625 0.26963 0.5
   vertex 0.0577186 0.272253 0.5
  endloop
 endfacet
 facet normal 0 0 1
  outer loop
   vertex 0.0844488 0.253537 0.5
   vertex 0.0803485 0.257133 0.5
   vertex 0 0.161377 0.5
  endloop
 endfacet
 facet normal 0 0 1
  outer loop
   vertex 0.0803485 0.257133 0.5
   vertex 0.0760952 0.260546 0.5
   vertex 0 0.161377 0.5
  endloop
 endfacet
 facet normal 0 0 1
  outer loop
   vertex 0 0.161377 0.5
   vertex 0.0760952 0.260546 0.5
   vertex 0.0716971 0.263771 0.5
  endloop
 endfacet
 facet normal 0 0 1
  outer loop
   vertex 0.0957556 0.241725 0.5
   vertex 0.0921597 0.245826 0.5
   vertex 0 0.161377 0.5
  endloop
 endfacet
 facet normal 0 0 1
  outer loop
   vertex 0.0921597 0.245826 0.5
   vertex 0.0883883 0.249765 0.5
   vertex 0 0.161377 0.5
  endloop
 endfacet
 facet normal 0 0 1
  outer loop
   vertex 0 0.161377 0.5
   vertex 0.0883883 0.249765 0.5
   vertex 0.0844488 0.253537 0.5
  endloop
 endfacet
 facet normal 0 0 1
  outer loop
   vertex 0.105424 0.228539 0.5
   vertex 0.102394 0.233074 0.5
   vertex 0 0.161377 0.5
  endloop
 endfacet
 facet normal 0 0 1
  outer loop
   vertex 0.102394 0.233074 0.5
   vertex 0.0991692 0.237472 0.5
   vertex 0 0.161377 0.5
  endloop
 endfacet
 facet normal 0 0 1
  outer loop
   vertex 0 0.161377 0.5
   vertex 0.0991692 0.237472 0.5
   vertex 0.0957556 0.241725 0.5
  endloop
 endfacet
 facet normal 0 0 1
  outer loop
   vertex 0.113288 0.214204 0.5
   vertex 0.110876 0.219096 0.5
   vertex 0 0.161377 0.5
  endloop
 endfacet
 facet normal 0 0 1
  outer loop
   vertex 0.110876 0.219096 0.5
   vertex 0.108253 0.223877 0.5
   vertex 0 0.161377 0.5
  endloop
 endfacet
 facet normal 0 0 1
  outer loop
   vertex 0 0.161377 0.5
   vertex 0.108253 0.223877 0.5
   vertex 0.105424 0.228539 0.5
  endloop
 endfacet
 facet normal 0 0 1
  outer loop
   vertex 0.119215 0.198965 0.5
   vertex 0.117462 0.204129 0.5
   vertex 0 0.161377 0.5
  endloop
 endfacet
 facet normal 0 0 1
  outer loop
   vertex 0.117462 0.204129 0.5
   vertex 0.115485 0.209212 0.5
   vertex 0 0.161377 0.5
  endloop
 endfacet
 facet normal 0 0 1
  outer loop
   vertex 0 0.161377 0.5
   vertex 0.115485 0.209212 0.5
   vertex 0.113288 0.214204 0.5
  endloop
 endfacet
 facet normal 0 0 1
  outer loop
   vertex 0.123101 0.183083 0.5
   vertex 0.122037 0.188432 0.5
   vertex 0 0.161377 0.5
  endloop
 endfacet
 facet normal 0 0 1
  outer loop
   vertex 0.122037 0.188432 0.5
   vertex 0.120741 0.193729 0.5
   vertex 0 0.161377 0.5
  endloop
 endfacet
 facet normal 0 0 1
  outer loop
   vertex 0 0.161377 0.5
   vertex 0.120741 0.193729 0.5
   vertex 0.119215 0.198965 0.5
  endloop
 endfacet
 facet normal 0 0 1
  outer loop
   vertex 0.124881 0.166829 0.5
   vertex 0.124524 0.172271 0.5
   vertex 0 0.161377 0.5
  endloop
 endfacet
 facet normal 0 0 1
  outer loop
   vertex 0.124524 0.172271 0.5
   vertex 0.123931 0.177693 0.5
   vertex 0 0.161377 0.5
  endloop
 endfacet
 facet normal 0 0 1
  outer loop
   vertex 0 0.161377 0.5
   vertex 0.123931 0.177693 0.5
   vertex 0.123101 0.183083 0.5
  endloop
 endfacet
endsolid zone0
