solid zone0
 facet normal 0 -0 -1
  outer loop
   vertex 0.124524 0.185894 0
   vertex 0.124881 0.180452 0
   vertex 0 0.175 0
  endloop
 endfacet
 facet normal 0 -0 -1
  outer loop
   vertex 0.124881 0.180452 0
   vertex 0.125 0.175 0
   vertex 0 0.175 0
  endloop
 endfacet
 facet normal 0 0 -1
  outer loop
   vertex 0 0.175 0
   vertex 0.125 0.175 0
   vertex 0.124881 0.169548 0
  endloop
 endfacet
 facet normal 0 -0 -1
  outer loop
   vertex 0.122037 0.202055 0
   vertex 0.123101 0.196706 0
   vertex 0 0.175 0
  endloop
 endfacet
 facet normal 0 -0 -1
  outer loop
   vertex 0.123101 0.196706 0
   vertex 0.123931 0.191316 0
   vertex 0 0.175 0
  endloop
 endfacet
 facet normal 0 0 -1
  outer loop
   vertex 0 0.175 0
   vertex 0.123931 0.191316 0
   vertex 0.124524 0.185894 0
  endloop
 endfacet
 facet normal 0 -0 -1
  outer loop
   vertex 0.117462 0.217753 0
   vertex 0.119215 0.212588 0
   vertex 0 0.175 0
  endloop
 endfacet
 facet normal 0 -0 -1
  outer loop
   vertex 0.119215 0.212588 0
   vertex 0.120741 0.207352 0
   vertex 0 0.175 0
  endloop
 endfacet
 facet normal 0 0 -1
  outer loop
   vertex 0 0.175 0
   vertex 0.120741 0.207352 0
   vertex 0.122037 0.202055 0
  endloop
 endfacet
 facet normal 0 -0 -1
  outer loop
   vertex 0.110876 0.232719 0
   vertex 0.113288 0.227827 0
   vertex 0 0.175 0
  endloop
 endfacet
 facet normal 0 -0 -1
  outer loop
   vertex 0.113288 0.227827 0
   vertex 0.115485 0.222835 0
   vertex 0 0.175 0
  endloop
 endfacet
 facet normal 0 0 -1
  outer loop
   vertex 0 0.175 0
   vertex 0.115485 0.222835 0
   vertex 0.117462 0.217753 0
  endloop
 endfacet
 facet normal 0 -0 -1
  outer loop
   vertex 0.102394 0.246697 0
   vertex 0.105424 0.242162 0
   vertex 0 0.175 0
  endloop
 endfacet
 facet normal 0 -0 -1
  outer loop
   vertex 0.105424 0.242162 0
   vertex 0.108253 0.2375 0
   vertex 0 0.175 0
  endloop
 endfacet
 facet normal 0 0 -1
  outer loop
   vertex 0 0.175 0
   vertex 0.108253 0.2375 0
   vertex 0.110876 0.232719 0
  endloop
 endfacet
 facet normal 0 -0 -1
  outer loop
   vertex 0.0921597 0.259449 0
   vertex 0.0957556 0.255348 0
   vertex 0 0.175 0
  endloop
 endfacet
 facet normal 0 -0 -1
  outer loop
   vertex 0.0957556 0.255348 0
   vertex 0.0991692 0.251095 0
   vertex 0 0.175 0
  endloop
 endfacet
 facet normal 0 0 -1
  outer loop
   vertex 0 0.175 0
   vertex 0.0991692 0.251095 0
   vertex 0.102394 0.246697 0
  endloop
 endfacet
 facet normal 0 -0 -1
  outer loop
   vertex 0.0803485 0.270756 0
   vertex 0.0844488 0.26716 0
   vertex 0 0.175 0
  endloop
 endfacet
 facet normal 0 -0 -1
  outer loop
   vertex 0.0844488 0.26716 0
   vertex 0.0883883 0.263388 0
   vertex 0 0.175 0
  endloop
 endfacet
 facet normal 0 0 -1
  outer loop
   vertex 0 0.175 0
   vertex 0.0883883 0.263388 0
   vertex 0.0921597 0.259449 0
  endloop
 endfacet
 facet normal 0 -0 -1
  outer loop
   vertex 0.0671625 0.280424 0
   vertex 0.0716971 0.277394 0
   vertex 0 0.175 0
  endloop
 endfacet
 facet normal 0 -0 -1
  outer loop
   vertex 0.0716971 0.277394 0
   vertex 0.0760952 0.274169 0
   vertex 0 0.175 0
  endloop
 endfacet
 facet normal 0 0 -1
  outer loop
   vertex 0 0.175 0
   vertex 0.0760952 0.274169 0
   vertex 0.0803485 0.270756 0
  endloop
 endfacet
 facet normal 0 -0 -1
  outer loop
   vertex 0.0528273 0.288288 0
   vertex 0.0577186 0.285876 0
   vertex 0 0.175 0
  endloop
 endfacet
 facet normal 0 -0 -1
  outer loop
   vertex 0.0577186 0.285876 0
   vertex 0.0625 0.283253 0
   vertex 0 0.175 0
  endloop
 endfacet
 facet normal 0 0 -1
  outer loop
   vertex 0 0.175 0
   vertex 0.0625 0.283253 0
   vertex 0.0671625 0.280424 0
  endloop
 endfacet
 facet normal 0 -0 -1
  outer loop
   vertex 0.0375882 0.294215 0
   vertex 0.0427525 0.292462 0
   vertex 0 0.175 0
  endloop
 endfacet
 facet normal 0 -0 -1
  outer loop
   vertex 0.0427525 0.292462 0
   vertex 0.0478354 0.290485 0
   vertex 0 0.175 0
  endloop
 endfacet
 facet normal 0 0 -1
  outer loop
   vertex 0 0.175 0
   vertex 0.0478354 0.290485 0
   vertex 0.0528273 0.288288 0
  endloop
 endfacet
 facet normal 0 -0 -1
  outer loop
   vertex 0.021706 0.298101 0
   vertex 0.027055 0.297037 0
   vertex 0 0.175 0
  endloop
 endfacet
 facet normal 0 -0 -1
  outer loop
   vertex 0.027055 0.297037 0
   vertex 0.0323524 0.295741 0
   vertex 0 0.175 0
  endloop
 endfacet
 facet normal 0 0 -1
  outer loop
   vertex 0 0.175 0
   vertex 0.0323524 0.295741 0
   vertex 0.0375882 0.294215 0
  endloop
 endfacet
 facet normal 0 -0 -1
  outer loop
   vertex 0.00545242 0.299881 0
   vertex 0.0108945 0.299524 0
   vertex 0 0.175 0
  endloop
 endfacet
 facet normal 0 -0 -1
  outer loop
   vertex 0.0108945 0.299524 0
   vertex 0.0163158 0.298931 0
   vertex 0 0.175 0
  endloop
 endfacet
 facet normal 0 0 -1
  outer loop
   vertex 0 0.175 0
   vertex 0.0163158 0.298931 0
   vertex 0.021706 0.298101 0
  endloop
 endfacet
 facet normal 0 0 -1
  outer loop
   vertex -0.0108945 0.299524 0
   vertex -0.00545242 0.299881 0
   vertex 0 0.175 0
  endloop
 endfacet
 facet normal 0 0 -1
  outer loop
   vertex -0.00545242 0.299881 0
   vertex -7.65404e-18 0.3 0
   vertex 0 0.175 0
  endloop
 endfacet
 facet normal 0 0 -1
  outer loop
   vertex 0 0.175 0
   vertex -7.65404e-18 0.3 0
   vertex 0.00545242 0.299881 0
  endloop
 endfacet
 facet normal 0 0 -1
  outer loop
   vertex -0.027055 0.297037 0
   vertex -0.021706 0.298101 0
   vertex 0 0.175 0
  endloop
 endfacet
 facet normal 0 0 -1
  outer loop
   vertex -0.021706 0.298101 0
   vertex -0.0163158 0.298931 0
   vertex 0 0.175 0
  endloop
 endfacet
 facet normal 0 0 -1
  outer loop
   vertex 0 0.175 0
   vertex -0.0163158 0.298931 0
   vertex -0.0108945 0.299524 0
  endloop
 endfacet
 facet normal 0 0 -1
  outer loop
   vertex -0.0427525 0.292462 0
   vertex -0.0375882 0.294215 0
   vertex 0 0.175 0
  endloop
 endfacet
 facet normal 0 0 -1
  outer loop
   vertex -0.0375882 0.294215 0
   vertex -0.0323524 0.295741 0
   vertex 0 0.175 0
  endloop
 endfacet
 facet normal 0 0 -1
  outer loop
   vertex 0 0.175 0
   vertex -0.0323524 0.295741 0
   vertex -0.027055 0.297037 0
  endloop
 endfacet
 facet normal 0 0 -1
  outer loop
   vertex -0.0577186 0.285876 0
   vertex -0.0528273 0.288288 0
   vertex 0 0.175 0
  endloop
 endfacet
 facet normal 0 0 -1
  outer loop
   vertex -0.0528273 0.288288 0
   vertex -0.0478354 0.290485 0
   vertex 0 0.175 0
  endloop
 endfacet
 facet normal 0 0 -1
  outer loop
   vertex 0 0.175 0
   vertex -0.0478354 0.290485 0
   vertex -0.0427525 0.292462 0
  endloop
 endfacet
 facet normal 0 0 -1
  outer loop
   vertex -0.0716971 0.277394 0
   vertex -0.0671625 0.280424 0
   vertex 0 0.175 0
  endloop
 endfacet
 facet normal 0 0 -1
  outer loop
   vertex -0.0671625 0.280424 0
   vertex -0.0625 0.283253 0
   vertex 0 0.175 0
  endloop
 endfacet
 facet normal 0 0 -1
  outer loop
   vertex 0 0.175 0
   vertex -0.0625 0.283253 0
   vertex -0.0577186 0.285876 0
  endloop
 endfacet
 facet normal 0 0 -1
  outer loop
   vertex -0.0844488 0.26716 0
   vertex -0.0803485 0.270756 0
   vertex 0 0.175 0
  endloop
 endfacet
 facet normal 0 0 -1
  outer loop
   vertex -0.0803485 0.270756 0
   vertex -0.0760952 0.274169 0
   vertex 0 0.175 0
  endloop
 endfacet
 facet normal 0 0 -1
  outer loop
   vertex 0 0.175 0
   vertex -0.0760952 0.274169 0
   vertex -0.0716971 0.277394 0
  endloop
 endfacet
 facet normal 0 0 -1
  outer loop
   vertex -0.0957556 0.255348 0
   vertex -0.0921597 0.259449 0
   vertex 0 0.175 0
  endloop
 endfacet
 facet normal 0 0 -1
  outer loop
   vertex -0.0921597 0.259449 0
   vertex -0.0883883 0.263388 0
   vertex 0 0.175 0
  endloop
 endfacet
 facet normal 0 0 -1
  outer loop
   vertex 0 0.175 0
   vertex -0.0883883 0.263388 0
   vertex -0.0844488 0.26716 0
  endloop
 endfacet
 facet normal 0 0 -1
  outer loop
   vertex -0.105424 0.242162 0
   vertex -0.102394 0.246697 0
   vertex 0 0.175 0
  endloop
 endfacet
 facet normal 0 0 -1
  outer loop
   vertex -0.102394 0.246697 0
   vertex -0.0991692 0.251095 0
   vertex 0 0.175 0
  endloop
 endfacet
 facet normal 0 0 -1
  outer loop
   vertex 0 0.175 0
   vertex -0.0991692 0.251095 0
   vertex -0.0957556 0.255348 0
  endloop
 endfacet
 facet normal 0 0 -1
  outer loop
   vertex -0.113288 0.227827 0
   vertex -0.110876 0.232719 0
   vertex 0 0.175 0
  endloop
 endfacet
 facet normal 0 0 -1
  outer loop
   vertex -0.110876 0.232719 0
   vertex -0.108253 0.2375 0
   vertex 0 0.175 0
  endloop
 endfacet
 facet normal 0 0 -1
  outer loop
   vertex 0 0.175 0
   vertex -0.108253 0.2375 0
   vertex -0.105424 0.242162 0
  endloop
 endfacet
 facet normal 0 0 -1
  outer loop
   vertex -0.119215 0.212588 0
   vertex -0.117462 0.217753 0
   vertex 0 0.175 0
  endloop
 endfacet
 facet normal 0 0 -1
  outer loop
   vertex -0.117462 0.217753 0
   vertex -0.115485 0.222835 0
   vertex 0 0.175 0
  endloop
 endfacet
 facet normal 0 0 -1
  outer loop
   vertex 0 0.175 0
   vertex -0.115485 0.222835 0
   vertex -0.113288 0.227827 0
  endloop
 endfacet
 facet normal 0 0 -1
  outer loop
   vertex -0.123101 0.196706 0
   vertex -0.122037 0.202055 0
   vertex 0 0.175 0
  endloop
 endfacet
 facet normal 0 0 -1
  outer loop
   vertex -0.122037 0.202055 0
   vertex -0.120741 0.207352 0
   vertex 0 0.175 0
  endloop
 endfacet
 facet normal 0 0 -1
  outer loop
   vertex 0 0.175 0
   vertex -0.120741 0.207352 0
   vertex -0.119215 0.212588 0
  endloop
 endfacet
 facet normal 0 0 -1
  outer loop
   vertex -0.124881 0.180452 0
   vertex -0.124524 0.185894 0
   vertex 0 0.175 0
  endloop
 endfacet
 facet normal 0 0 -1
  outer loop
   vertex -0.124524 0.185894 0
   vertex -0.123931 0.191316 0
   vertex 0 0.175 0
  endloop
 endfacet
 facet normal 0 0 -1
  outer loop
   vertex 0 0.175 0
   vertex -0.123931 0.191316 0
   vertex -0.123101 0.196706 0
  endloop
 endfacet
 facet normal 0 0 -1
  outer loop
   vertex -0.124524 0.164106 0
   vertex -0.124881 0.169548 0
   vertex 0 0.175 0
  endloop
 endfacet
 facet normal 0 0 -1
  outer loop
   vertex -0.124881 0.169548 0
   vertex -0.125 0.175 0
   vertex 0 0.175 0
  endloop
 endfacet
 facet normal 0 0 -1
  outer loop
   vertex 0 0.175 0
   vertex -0.125 0.175 0
   vertex -0.124881 0.180452 0
  endloop
 endfacet
 facet normal 0 0 -1
  outer loop
   vertex -0.122037 0.147945 0
   vertex -0.123101 0.153294 0
   vertex 0 0.175 0
  endloop
 endfacet
 facet normal 0 0 -1
  outer loop
   vertex -0.123101 0.153294 0
   vertex -0.123931 0.158684 0
   vertex 0 0.175 0
  endloop
 endfacet
 facet normal 0 0 -1
  outer loop
   vertex 0 0.175 0
   vertex -0.123931 0.158684 0
   vertex -0.124524 0.164106 0
  endloop
 endfacet
 facet normal 0 0 -1
  outer loop
   vertex -0.117462 0.132247 0
   vertex -0.119215 0.137412 0
   vertex 0 0.175 0
  endloop
 endfacet
 facet normal 0 0 -1
  outer loop
   vertex -0.119215 0.137412 0
   vertex -0.120741 0.142648 0
   vertex 0 0.175 0
  endloop
 endfacet
 facet normal 0 0 -1
  outer loop
   vertex 0 0.175 0
   vertex -0.120741 0.142648 0
   vertex -0.122037 0.147945 0
  endloop
 endfacet
 facet normal 0 0 -1
  outer loop
   vertex -0.110876 0.117281 0
   vertex -0.113288 0.122173 0
   vertex 0 0.175 0
  endloop
 endfacet
 facet normal 0 0 -1
  outer loop
   vertex -0.113288 0.122173 0
   vertex -0.115485 0.127165 0
   vertex 0 0.175 0
  endloop
 endfacet
 facet normal 0 0 -1
  outer loop
   vertex 0 0.175 0
   vertex -0.115485 0.127165 0
   vertex -0.117462 0.132247 0
  endloop
 endfacet
 facet normal 0 0 -1
  outer loop
   vertex -0.102394 0.103303 0
   vertex -0.105424 0.107838 0
   vertex 0 0.175 0
  endloop
 endfacet
 facet normal 0 0 -1
  outer loop
   vertex -0.105424 0.107838 0
   vertex -0.108253 0.1125 0
   vertex 0 0.175 0
  endloop
 endfacet
 facet normal 0 0 -1
  outer loop
   vertex 0 0.175 0
   vertex -0.108253 0.1125 0
   vertex -0.110876 0.117281 0
  endloop
 endfacet
 facet normal 0 0 -1
  outer loop
   vertex -0.0921597 0.0905512 0
   vertex -0.0957556 0.0946515 0
   vertex 0 0.175 0
  endloop
 endfacet
 facet normal 0 0 -1
  outer loop
   vertex -0.0957556 0.0946515 0
   vertex -0.0991692 0.0989048 0
   vertex 0 0.175 0
  endloop
 endfacet
 facet normal 0 0 -1
  outer loop
   vertex 0 0.175 0
   vertex -0.0991692 0.0989048 0
   vertex -0.102394 0.103303 0
  endloop
 endfacet
 facet normal 0 0 -1
  outer loop
   vertex -0.0803485 0.0792444 0
   vertex -0.0844488 0.0828403 0
   vertex 0 0.175 0
  endloop
 endfacet
 facet normal 0 0 -1
  outer loop
   vertex -0.0844488 0.0828403 0
   vertex -0.0883883 0.0866117 0
   vertex 0 0.175 0
  endloop
 endfacet
 facet normal 0 0 -1
  outer loop
   vertex 0 0.175 0
   vertex -0.0883883 0.0866117 0
   vertex -0.0921597 0.0905512 0
  endloop
 endfacet
 facet normal 0 0 -1
  outer loop
   vertex -0.0671625 0.0695761 0
   vertex -0.0716971 0.072606 0
   vertex 0 0.175 0
  endloop
 endfacet
 facet normal 0 0 -1
  outer loop
   vertex -0.0716971 0.072606 0
   vertex -0.0760952 0.0758308 0
   vertex 0 0.175 0
  endloop
 endfacet
 facet normal 0 0 -1
  outer loop
   vertex 0 0.175 0
   vertex -0.0760952 0.0758308 0
   vertex -0.0803485 0.0792444 0
  endloop
 endfacet
 facet normal 0 0 -1
  outer loop
   vertex -0.0528273 0.0617115 0
   vertex -0.0577186 0.0641236 0
   vertex 0 0.175 0
  endloop
 endfacet
 facet normal 0 0 -1
  outer loop
   vertex -0.0577186 0.0641236 0
   vertex -0.0625 0.0667468 0
   vertex 0 0.175 0
  endloop
 endfacet
 facet normal 0 0 -1
  outer loop
   vertex 0 0.175 0
   vertex -0.0625 0.0667468 0
   vertex -0.0671625 0.0695761 0
  endloop
 endfacet
 facet normal 0 0 -1
  outer loop
   vertex -0.0375882 0.0557854 0
   vertex -0.0427525 0.0575384 0
   vertex 0 0.175 0
  endloop
 endfacet
 facet normal 0 0 -1
  outer loop
   vertex -0.0427525 0.0575384 0
   vertex -0.0478354 0.0595151 0
   vertex 0 0.175 0
  endloop
 endfacet
 facet normal 0 0 -1
  outer loop
   vertex 0 0.175 0
   vertex -0.0478354 0.0595151 0
   vertex -0.0528273 0.0617115 0
  endloop
 endfacet
 facet normal 0 0 -1
  outer loop
   vertex -0.021706 0.051899 0
   vertex -0.027055 0.052963 0
   vertex 0 0.175 0
  endloop
 endfacet
 facet normal 0 0 -1
  outer loop
   vertex -0.027055 0.052963 0
   vertex -0.0323524 0.0542593 0
   vertex 0 0.175 0
  endloop
 endfacet
 facet normal 0 0 -1
  outer loop
   vertex 0 0.175 0
   vertex -0.0323524 0.0542593 0
   vertex -0.0375882 0.0557854 0
  endloop
 endfacet
 facet normal 0 0 -1
  outer loop
   vertex -0.00545242 0.050119 0
   vertex -0.0108945 0.0504757 0
   vertex 0 0.175 0
  endloop
 endfacet
 facet normal 0 0 -1
  outer loop
   vertex -0.0108945 0.0504757 0
   vertex -0.0163158 0.0510694 0
   vertex 0 0.175 0
  endloop
 endfacet
 facet normal 0 0 -1
  outer loop
   vertex 0 0.175 0
   vertex -0.0163158 0.0510694 0
   vertex -0.021706 0.051899 0
  endloop
 endfacet
 facet normal -0 0 -1
  outer loop
   vertex 0.0108945 0.0504757 0
   vertex 0.00545242 0.050119 0
   vertex 0 0.175 0
  endloop
 endfacet
 facet normal -0 0 -1
  outer loop
   vertex 0.00545242 0.050119 0
   vertex 2.29621e-17 0.05 0
   vertex 0 0.175 0
  endloop
 endfacet
 facet normal 0 -0 -1
  outer loop
   vertex 0 0.175 0
   vertex 2.29621e-17 0.05 0
   vertex -0.00545242 0.050119 0
  endloop
 endfacet
 facet normal -0 0 -1
  outer loop
   vertex 0.027055 0.052963 0
   vertex 0.021706 0.051899 0
   vertex 0 0.175 0
  endloop
 endfacet
 facet normal -0 0 -1
  outer loop
   vertex 0.021706 0.051899 0
   vertex 0.0163158 0.0510694 0
   vertex 0 0.175 0
  endloop
 endfacet
 facet normal 0 0 -1
  outer loop
   vertex 0 0.175 0
   vertex 0.0163158 0.0510694 0
   vertex 0.0108945 0.0504757 0
  endloop
 endfacet
 facet normal -0 0 -1
  outer loop
   vertex 0.0427525 0.0575384 0
   vertex 0.0375882 0.0557854 0
   vertex 0 0.175 0
  endloop
 endfacet
 facet normal -0 0 -1
  outer loop
   vertex 0.0375882 0.0557854 0
   vertex 0.0323524 0.0542593 0
   vertex 0 0.175 0
  endloop
 endfacet
 facet normal 0 0 -1
  outer loop
   vertex 0 0.175 0
   vertex 0.0323524 0.0542593 0
   vertex 0.027055 0.052963 0
  endloop
 endfacet
 facet normal -0 0 -1
  outer loop
   vertex 0.0577186 0.0641236 0
   vertex 0.0528273 0.0617115 0
   vertex 0 0.175 0
  endloop
 endfacet
 facet normal -0 0 -1
  outer loop
   vertex 0.0528273 0.0617115 0
   vertex 0.0478354 0.0595151 0
   vertex 0 0.175 0
  endloop
 endfacet
 facet normal 0 0 -1
  outer loop
   vertex 0 0.175 0
   vertex 0.0478354 0.0595151 0
   vertex 0.0427525 0.0575384 0
  endloop
 endfacet
 facet normal -0 0 -1
  outer loop
   vertex 0.0716971 0.072606 0
   vertex 0.0671625 0.0695761 0
   vertex 0 0.175 0
  endloop
 endfacet
 facet normal -0 0 -1
  outer loop
   vertex 0.0671625 0.0695761 0
   vertex 0.0625 0.0667468 0
   vertex 0 0.175 0
  endloop
 endfacet
 facet normal 0 0 -1
  outer loop
   vertex 0 0.175 0
   vertex 0.0625 0.0667468 0
   vertex 0.0577186 0.0641236 0
  endloop
 endfacet
 facet normal -0 0 -1
  outer loop
   vertex 0.0844488 0.0828403 0
   vertex 0.0803485 0.0792444 0
   vertex 0 0.175 0
  endloop
 endfacet
 facet normal -0 0 -1
  outer loop
   vertex 0.0803485 0.0792444 0
   vertex 0.0760952 0.0758308 0
   vertex 0 0.175 0
  endloop
 endfacet
 facet normal 0 0 -1
  outer loop
   vertex 0 0.175 0
   vertex 0.0760952 0.0758308 0
   vertex 0.0716971 0.072606 0
  endloop
 endfacet
 facet normal -0 0 -1
  outer loop
   vertex 0.0957556 0.0946515 0
   vertex 0.0921597 0.0905512 0
   vertex 0 0.175 0
  endloop
 endfacet
 facet normal -0 0 -1
  outer loop
   vertex 0.0921597 0.0905512 0
   vertex 0.0883883 0.0866117 0
   vertex 0 0.175 0
  endloop
 endfacet
 facet normal 0 0 -1
  outer loop
   vertex 0 0.175 0
   vertex 0.0883883 0.0866117 0
   vertex 0.0844488 0.0828403 0
  endloop
 endfacet
 facet normal -0 0 -1
  outer loop
   vertex 0.105424 0.107838 0
   vertex 0.102394 0.103303 0
   vertex 0 0.175 0
  endloop
 endfacet
 facet normal -0 0 -1
  outer loop
   vertex 0.102394 0.103303 0
   vertex 0.0991692 0.0989048 0
   vertex 0 0.175 0
  endloop
 endfacet
 facet normal 0 0 -1
  outer loop
   vertex 0 0.175 0
   vertex 0.0991692 0.0989048 0
   vertex 0.0957556 0.0946515 0
  endloop
 endfacet
 facet normal -0 0 -1
  outer loop
   vertex 0.113288 0.122173 0
   vertex 0.110876 0.117281 0
   vertex 0 0.175 0
  endloop
 endfacet
 facet normal -0 0 -1
  outer loop
   vertex 0.110876 0.117281 0
   vertex 0.108253 0.1125 0
   vertex 0 0.175 0
  endloop
 endfacet
 facet normal 0 0 -1
  outer loop
   vertex 0 0.175 0
   vertex 0.108253 0.1125 0
   vertex 0.105424 0.107838 0
  endloop
 endfacet
 facet normal -0 0 -1
  outer loop
   vertex 0.119215 0.137412 0
   vertex 0.117462 0.132247 0
   vertex 0 0.175 0
  endloop
 endfacet
 facet normal -0 0 -1
  outer loop
   vertex 0.117462 0.132247 0
   vertex 0.115485 0.127165 0
   vertex 0 0.175 0
  endloop
 endfacet
 facet normal 0 0 -1
  outer loop
   vertex 0 0.175 0
   vertex 0.115485 0.127165 0
   vertex 0.113288 0.122173 0
  endloop
 endfacet
 facet normal -0 0 -1
  outer loop
   vertex 0.123101 0.153294 0
   vertex 0.122037 0.147945 0
   vertex 0 0.175 0
  endloop
 endfacet
 facet normal -0 0 -1
  outer loop
   vertex 0.122037 0.147945 0
   vertex 0.120741 0.142648 0
   vertex 0 0.175 0
  endloop
 endfacet
 facet normal 0 0 -1
  outer loop
   vertex 0 0.175 0
   vertex 0.120741 0.142648 0
   vertex 0.119215 0.137412 0
  endloop
 endfacet
 facet normal -0 0 -1
  outer loop
   vertex 0.124881 0.169548 0
   vertex 0.124524 0.164106 0
   vertex 0 0.175 0
  endloop
 endfacet
 facet normal -0 0 -1
  outer loop
   vertex 0.124524 0.164106 0
   vertex 0.123931 0.158684 0
   vertex 0 0.175 0
  endloop
 endfacet
 facet normal 0 0 -1
  outer loop
   vertex 0 0.175 0
   vertex 0.123931 0.158684 0
   vertex 0.123101 0.153294 0
  endloop
 endfacet
 facet normal -0.999762 0.0218146 0
  outer loop
   vertex -0.125 0.175 0
   vertex -0.124881 0.180452 0.5
   vertex -0.124881 0.180452 0
  endloop
 endfacet
 facet normal -0.997859 0.0654029 0
  outer loop
   vertex -0.124881 0.180452 0.5
   vertex -0.124524 0.185894 0.5
   vertex -0.124881 0.180452 0
  endloop
 endfacet
 facet normal -0.997859 0.0654029 0
  outer loop
   vertex -0.124881 0.180452 0
   vertex -0.124524 0.185894 0.5
   vertex -0.124524 0.185894 0
  endloop
 endfacet
 facet normal -0.994056 0.108867 0
  outer loop
   vertex -0.124524 0.185894 0.5
   vertex -0.123931 0.191316 0.5
   vertex -0.124524 0.185894 0
  endloop
 endfacet
 facet normal -0.994056 0.108867 0
  outer loop
   vertex -0.124524 0.185894 0
   vertex -0.123931 0.191316 0.5
   vertex -0.123931 0.191316 0
  endloop
 endfacet
 facet normal -0.988361 0.152124 0
  outer loop
   vertex -0.123931 0.191316 0.5
   vertex -0.123101 0.196706 0.5
   vertex -0.123931 0.191316 0
  endloop
 endfacet
 facet normal -0.988361 0.152124 0
  outer loop
   vertex -0.123931 0.191316 0
   vertex -0.123101 0.196706 0.5
   vertex -0.123101 0.196706 0
  endloop
 endfacet
 facet normal -0.980785 0.19509 0
  outer loop
   vertex -0.123101 0.196706 0.5
   vertex -0.122037 0.202055 0.5
   vertex -0.123101 0.196706 0
  endloop
 endfacet
 facet normal -0.980785 0.19509 0
  outer loop
   vertex -0.123101 0.196706 0
   vertex -0.122037 0.202055 0.5
   vertex -0.122037 0.202055 0
  endloop
 endfacet
 facet normal -0.971342 0.237686 0
  outer loop
   vertex -0.122037 0.202055 0.5
   vertex -0.120741 0.207352 0.5
   vertex -0.122037 0.202055 0
  endloop
 endfacet
 facet normal -0.971342 0.237686 0
  outer loop
   vertex -0.122037 0.202055 0
   vertex -0.120741 0.207352 0.5
   vertex -0.120741 0.207352 0
  endloop
 endfacet
 facet normal -0.96005 0.279829 0
  outer loop
   vertex -0.120741 0.207352 0.5
   vertex -0.119215 0.212588 0.5
   vertex -0.120741 0.207352 0
  endloop
 endfacet
 facet normal -0.96005 0.279829 0
  outer loop
   vertex -0.120741 0.207352 0
   vertex -0.119215 0.212588 0.5
   vertex -0.119215 0.212588 0
  endloop
 endfacet
 facet normal -0.94693 0.321439 0
  outer loop
   vertex -0.119215 0.212588 0.5
   vertex -0.117462 0.217753 0.5
   vertex -0.119215 0.212588 0
  endloop
 endfacet
 facet normal -0.94693 0.321439 0
  outer loop
   vertex -0.119215 0.212588 0
   vertex -0.117462 0.217753 0.5
   vertex -0.117462 0.217753 0
  endloop
 endfacet
 facet normal -0.932008 0.362439 0
  outer loop
   vertex -0.117462 0.217753 0.5
   vertex -0.115485 0.222835 0.5
   vertex -0.117462 0.217753 0
  endloop
 endfacet
 facet normal -0.932008 0.362439 0
  outer loop
   vertex -0.117462 0.217753 0
   vertex -0.115485 0.222835 0.5
   vertex -0.115485 0.222835 0
  endloop
 endfacet
 facet normal -0.915312 0.402745 0
  outer loop
   vertex -0.115485 0.222835 0.5
   vertex -0.113288 0.227827 0.5
   vertex -0.115485 0.222835 0
  endloop
 endfacet
 facet normal -0.915312 0.402745 0
  outer loop
   vertex -0.115485 0.222835 0
   vertex -0.113288 0.227827 0.5
   vertex -0.113288 0.227827 0
  endloop
 endfacet
 facet normal -0.896872 0.44229 0
  outer loop
   vertex -0.113288 0.227827 0.5
   vertex -0.110876 0.232719 0.5
   vertex -0.113288 0.227827 0
  endloop
 endfacet
 facet normal -0.896872 0.44229 0
  outer loop
   vertex -0.113288 0.227827 0
   vertex -0.110876 0.232719 0.5
   vertex -0.110876 0.232719 0
  endloop
 endfacet
 facet normal -0.876727 0.480989 0
  outer loop
   vertex -0.110876 0.232719 0.5
   vertex -0.108253 0.2375 0.5
   vertex -0.110876 0.232719 0
  endloop
 endfacet
 facet normal -0.876727 0.480989 0
  outer loop
   vertex -0.110876 0.232719 0
   vertex -0.108253 0.2375 0.5
   vertex -0.108253 0.2375 0
  endloop
 endfacet
 facet normal -0.854912 0.518773 0
  outer loop
   vertex -0.108253 0.2375 0.5
   vertex -0.105424 0.242162 0.5
   vertex -0.108253 0.2375 0
  endloop
 endfacet
 facet normal -0.854912 0.518773 0
  outer loop
   vertex -0.108253 0.2375 0
   vertex -0.105424 0.242162 0.5
   vertex -0.105424 0.242162 0
  endloop
 endfacet
 facet normal -0.83147 0.55557 0
  outer loop
   vertex -0.105424 0.242162 0.5
   vertex -0.102394 0.246697 0.5
   vertex -0.105424 0.242162 0
  endloop
 endfacet
 facet normal -0.83147 0.55557 0
  outer loop
   vertex -0.105424 0.242162 0
   vertex -0.102394 0.246697 0.5
   vertex -0.102394 0.246697 0
  endloop
 endfacet
 facet normal -0.806444 0.59131 0
  outer loop
   vertex -0.102394 0.246697 0.5
   vertex -0.0991692 0.251095 0.5
   vertex -0.102394 0.246697 0
  endloop
 endfacet
 facet normal -0.806444 0.59131 0
  outer loop
   vertex -0.102394 0.246697 0
   vertex -0.0991692 0.251095 0.5
   vertex -0.0991692 0.251095 0
  endloop
 endfacet
 facet normal -0.779885 0.625923 0
  outer loop
   vertex -0.0991692 0.251095 0.5
   vertex -0.0957556 0.255348 0.5
   vertex -0.0991692 0.251095 0
  endloop
 endfacet
 facet normal -0.779885 0.625923 0
  outer loop
   vertex -0.0991692 0.251095 0
   vertex -0.0957556 0.255348 0.5
   vertex -0.0957556 0.255348 0
  endloop
 endfacet
 facet normal -0.75184 0.659346 0
  outer loop
   vertex -0.0957556 0.255348 0.5
   vertex -0.0921597 0.259449 0.5
   vertex -0.0957556 0.255348 0
  endloop
 endfacet
 facet normal -0.75184 0.659346 0
  outer loop
   vertex -0.0957556 0.255348 0
   vertex -0.0921597 0.259449 0.5
   vertex -0.0921597 0.259449 0
  endloop
 endfacet
 facet normal -0.722364 0.691513 0
  outer loop
   vertex -0.0921597 0.259449 0.5
   vertex -0.0883883 0.263388 0.5
   vertex -0.0921597 0.259449 0
  endloop
 endfacet
 facet normal -0.722364 0.691513 0
  outer loop
   vertex -0.0921597 0.259449 0
   vertex -0.0883883 0.263388 0.5
   vertex -0.0883883 0.263388 0
  endloop
 endfacet
 facet normal -0.691513 0.722364 0
  outer loop
   vertex -0.0883883 0.263388 0.5
   vertex -0.0844488 0.26716 0.5
   vertex -0.0883883 0.263388 0
  endloop
 endfacet
 facet normal -0.691513 0.722364 0
  outer loop
   vertex -0.0883883 0.263388 0
   vertex -0.0844488 0.26716 0.5
   vertex -0.0844488 0.26716 0
  endloop
 endfacet
 facet normal -0.659346 0.75184 0
  outer loop
   vertex -0.0844488 0.26716 0.5
   vertex -0.0803485 0.270756 0.5
   vertex -0.0844488 0.26716 0
  endloop
 endfacet
 facet normal -0.659346 0.75184 0
  outer loop
   vertex -0.0844488 0.26716 0
   vertex -0.0803485 0.270756 0.5
   vertex -0.0803485 0.270756 0
  endloop
 endfacet
 facet normal -0.625923 0.779885 0
  outer loop
   vertex -0.0803485 0.270756 0.5
   vertex -0.0760952 0.274169 0.5
   vertex -0.0803485 0.270756 0
  endloop
 endfacet
 facet normal -0.625923 0.779885 0
  outer loop
   vertex -0.0803485 0.270756 0
   vertex -0.0760952 0.274169 0.5
   vertex -0.0760952 0.274169 0
  endloop
 endfacet
 facet normal -0.59131 0.806444 0
  outer loop
   vertex -0.0760952 0.274169 0.5
   vertex -0.0716971 0.277394 0.5
   vertex -0.0760952 0.274169 0
  endloop
 endfacet
 facet normal -0.59131 0.806444 0
  outer loop
   vertex -0.0760952 0.274169 0
   vertex -0.0716971 0.277394 0.5
   vertex -0.0716971 0.277394 0
  endloop
 endfacet
 facet normal -0.55557 0.83147 0
  outer loop
   vertex -0.0716971 0.277394 0.5
   vertex -0.0671625 0.280424 0.5
   vertex -0.0716971 0.277394 0
  endloop
 endfacet
 facet normal -0.55557 0.83147 0
  outer loop
   vertex -0.0716971 0.277394 0
   vertex -0.0671625 0.280424 0.5
   vertex -0.0671625 0.280424 0
  endloop
 endfacet
 facet normal -0.518773 0.854912 0
  outer loop
   vertex -0.0671625 0.280424 0.5
   vertex -0.0625 0.283253 0.5
   vertex -0.0671625 0.280424 0
  endloop
 endfacet
 facet normal -0.518773 0.854912 0
  outer loop
   vertex -0.0671625 0.280424 0
   vertex -0.0625 0.283253 0.5
   vertex -0.0625 0.283253 0
  endloop
 endfacet
 facet normal -0.480989 0.876727 0
  outer loop
   vertex -0.0625 0.283253 0.5
   vertex -0.0577186 0.285876 0.5
   vertex -0.0625 0.283253 0
  endloop
 endfacet
 facet normal -0.480989 0.876727 0
  outer loop
   vertex -0.0625 0.283253 0
   vertex -0.0577186 0.285876 0.5
   vertex -0.0577186 0.285876 0
  endloop
 endfacet
 facet normal -0.44229 0.896872 0
  outer loop
   vertex -0.0577186 0.285876 0.5
   vertex -0.0528273 0.288288 0.5
   vertex -0.0577186 0.285876 0
  endloop
 endfacet
 facet normal -0.44229 0.896872 0
  outer loop
   vertex -0.0577186 0.285876 0
   vertex -0.0528273 0.288288 0.5
   vertex -0.0528273 0.288288 0
  endloop
 endfacet
 facet normal -0.402745 0.915312 0
  outer loop
   vertex -0.0528273 0.288288 0.5
   vertex -0.0478354 0.290485 0.5
   vertex -0.0528273 0.288288 0
  endloop
 endfacet
 facet normal -0.402745 0.915312 0
  outer loop
   vertex -0.0528273 0.288288 0
   vertex -0.0478354 0.290485 0.5
   vertex -0.0478354 0.290485 0
  endloop
 endfacet
 facet normal -0.362439 0.932008 0
  outer loop
   vertex -0.0478354 0.290485 0.5
   vertex -0.0427525 0.292462 0.5
   vertex -0.0478354 0.290485 0
  endloop
 endfacet
 facet normal -0.362439 0.932008 0
  outer loop
   vertex -0.0478354 0.290485 0
   vertex -0.0427525 0.292462 0.5
   vertex -0.0427525 0.292462 0
  endloop
 endfacet
 facet normal -0.321439 0.94693 0
  outer loop
   vertex -0.0427525 0.292462 0.5
   vertex -0.0375882 0.294215 0.5
   vertex -0.0427525 0.292462 0
  endloop
 endfacet
 facet normal -0.321439 0.94693 0
  outer loop
   vertex -0.0427525 0.292462 0
   vertex -0.0375882 0.294215 0.5
   vertex -0.0375882 0.294215 0
  endloop
 endfacet
 facet normal -0.279829 0.96005 0
  outer loop
   vertex -0.0375882 0.294215 0.5
   vertex -0.0323524 0.295741 0.5
   vertex -0.0375882 0.294215 0
  endloop
 endfacet
 facet normal -0.279829 0.96005 0
  outer loop
   vertex -0.0375882 0.294215 0
   vertex -0.0323524 0.295741 0.5
   vertex -0.0323524 0.295741 0
  endloop
 endfacet
 facet normal -0.237686 0.971342 0
  outer loop
   vertex -0.0323524 0.295741 0.5
   vertex -0.027055 0.297037 0.5
   vertex -0.0323524 0.295741 0
  endloop
 endfacet
 facet normal -0.237686 0.971342 0
  outer loop
   vertex -0.0323524 0.295741 0
   vertex -0.027055 0.297037 0.5
   vertex -0.027055 0.297037 0
  endloop
 endfacet
 facet normal -0.19509 0.980785 0
  outer loop
   vertex -0.027055 0.297037 0.5
   vertex -0.021706 0.298101 0.5
   vertex -0.027055 0.297037 0
  endloop
 endfacet
 facet normal -0.19509 0.980785 0
  outer loop
   vertex -0.027055 0.297037 0
   vertex -0.021706 0.298101 0.5
   vertex -0.021706 0.298101 0
  endloop
 endfacet
 facet normal -0.152124 0.988361 0
  outer loop
   vertex -0.021706 0.298101 0.5
   vertex -0.0163158 0.298931 0.5
   vertex -0.021706 0.298101 0
  endloop
 endfacet
 facet normal -0.152124 0.988361 0
  outer loop
   vertex -0.021706 0.298101 0
   vertex -0.0163158 0.298931 0.5
   vertex -0.0163158 0.298931 0
  endloop
 endfacet
 facet normal -0.108867 0.994056 0
  outer loop
   vertex -0.0163158 0.298931 0.5
   vertex -0.0108945 0.299524 0.5
   vertex -0.0163158 0.298931 0
  endloop
 endfacet
 facet normal -0.108867 0.994056 0
  outer loop
   vertex -0.0163158 0.298931 0
   vertex -0.0108945 0.299524 0.5
   vertex -0.0108945 0.299524 0
  endloop
 endfacet
 facet normal -0.0654029 0.997859 0
  outer loop
   vertex -0.0108945 0.299524 0.5
   vertex -0.00545242 0.299881 0.5
   vertex -0.0108945 0.299524 0
  endloop
 endfacet
 facet normal -0.0654029 0.997859 0
  outer loop
   vertex -0.0108945 0.299524 0
   vertex -0.00545242 0.299881 0.5
   vertex -0.00545242 0.299881 0
  endloop
 endfacet
 facet normal -0.0218146 0.999762 0
  outer loop
   vertex -0.00545242 0.299881 0.5
   vertex -7.65404e-18 0.3 0.5
   vertex -0.00545242 0.299881 0
  endloop
 endfacet
 facet normal -0.0218146 0.999762 0
  outer loop
   vertex -0.00545242 0.299881 0
   vertex -7.65404e-18 0.3 0.5
   vertex -7.65404e-18 0.3 0
  endloop
 endfacet
 facet normal 0.0218146 0.999762 0
  outer loop
   vertex -7.65404e-18 0.3 0.5
   vertex 0.00545242 0.299881 0.5
   vertex -7.65404e-18 0.3 0
  endloop
 endfacet
 facet normal 0.0218146 0.999762 0
  outer loop
   vertex -7.65404e-18 0.3 0
   vertex 0.00545242 0.299881 0.5
   vertex 0.00545242 0.299881 0
  endloop
 endfacet
 facet normal 0.0654029 0.997859 0
  outer loop
   vertex 0.00545242 0.299881 0.5
   vertex 0.0108945 0.299524 0.5
   vertex 0.00545242 0.299881 0
  endloop
 endfacet
 facet normal 0.0654029 0.997859 0
  outer loop
   vertex 0.00545242 0.299881 0
   vertex 0.0108945 0.299524 0.5
   vertex 0.0108945 0.299524 0
  endloop
 endfacet
 facet normal 0.108867 0.994056 0
  outer loop
   vertex 0.0108945 0.299524 0.5
   vertex 0.0163158 0.298931 0.5
   vertex 0.0108945 0.299524 0
  endloop
 endfacet
 facet normal 0.108867 0.994056 0
  outer loop
   vertex 0.0108945 0.299524 0
   vertex 0.0163158 0.298931 0.5
   vertex 0.0163158 0.298931 0
  endloop
 endfacet
 facet normal 0.152124 0.988361 0
  outer loop
   vertex 0.0163158 0.298931 0.5
   vertex 0.021706 0.298101 0.5
   vertex 0.0163158 0.298931 0
  endloop
 endfacet
 facet normal 0.152124 0.988361 0
  outer loop
   vertex 0.0163158 0.298931 0
   vertex 0.021706 0.298101 0.5
   vertex 0.021706 0.298101 0
  endloop
 endfacet
 facet normal 0.19509 0.980785 0
  outer loop
   vertex 0.021706 0.298101 0.5
   vertex 0.027055 0.297037 0.5
   vertex 0.021706 0.298101 0
  endloop
 endfacet
 facet normal 0.19509 0.980785 0
  outer loop
   vertex 0.021706 0.298101 0
   vertex 0.027055 0.297037 0.5
   vertex 0.027055 0.297037 0
  endloop
 endfacet
 facet normal 0.237686 0.971342 0
  outer loop
   vertex 0.027055 0.297037 0.5
   vertex 0.0323524 0.295741 0.5
   vertex 0.027055 0.297037 0
  endloop
 endfacet
 facet normal 0.237686 0.971342 0
  outer loop
   vertex 0.027055 0.297037 0
   vertex 0.0323524 0.295741 0.5
   vertex 0.0323524 0.295741 0
  endloop
 endfacet
 facet normal 0.279829 0.96005 0
  outer loop
   vertex 0.0323524 0.295741 0.5
   vertex 0.0375882 0.294215 0.5
   vertex 0.0323524 0.295741 0
  endloop
 endfacet
 facet normal 0.279829 0.96005 0
  outer loop
   vertex 0.0323524 0.295741 0
   vertex 0.0375882 0.294215 0.5
   vertex 0.0375882 0.294215 0
  endloop
 endfacet
 facet normal 0.321439 0.94693 0
  outer loop
   vertex 0.0375882 0.294215 0.5
   vertex 0.0427525 0.292462 0.5
   vertex 0.0375882 0.294215 0
  endloop
 endfacet
 facet normal 0.321439 0.94693 0
  outer loop
   vertex 0.0375882 0.294215 0
   vertex 0.0427525 0.292462 0.5
   vertex 0.0427525 0.292462 0
  endloop
 endfacet
 facet normal 0.362439 0.932008 0
  outer loop
   vertex 0.0427525 0.292462 0.5
   vertex 0.0478354 0.290485 0.5
   vertex 0.0427525 0.292462 0
  endloop
 endfacet
 facet normal 0.362439 0.932008 0
  outer loop
   vertex 0.0427525 0.292462 0
   vertex 0.0478354 0.290485 0.5
   vertex 0.0478354 0.290485 0
  endloop
 endfacet
 facet normal 0.402745 0.915312 0
  outer loop
   vertex 0.0478354 0.290485 0.5
   vertex 0.0528273 0.288288 0.5
   vertex 0.0478354 0.290485 0
  endloop
 endfacet
 facet normal 0.402745 0.915312 0
  outer loop
   vertex 0.0478354 0.290485 0
   vertex 0.0528273 0.288288 0.5
   vertex 0.0528273 0.288288 0
  endloop
 endfacet
 facet normal 0.44229 0.896872 0
  outer loop
   vertex 0.0528273 0.288288 0.5
   vertex 0.0577186 0.285876 0.5
   vertex 0.0528273 0.288288 0
  endloop
 endfacet
 facet normal 0.44229 0.896872 0
  outer loop
   vertex 0.0528273 0.288288 0
   vertex 0.0577186 0.285876 0.5
   vertex 0.0577186 0.285876 0
  endloop
 endfacet
 facet normal 0.480989 0.876727 0
  outer loop
   vertex 0.0577186 0.285876 0.5
   vertex 0.0625 0.283253 0.5
   vertex 0.0577186 0.285876 0
  endloop
 endfacet
 facet normal 0.480989 0.876727 0
  outer loop
   vertex 0.0577186 0.285876 0
   vertex 0.0625 0.283253 0.5
   vertex 0.0625 0.283253 0
  endloop
 endfacet
 facet normal 0.518773 0.854912 0
  outer loop
   vertex 0.0625 0.283253 0.5
   vertex 0.0671625 0.280424 0.5
   vertex 0.0625 0.283253 0
  endloop
 endfacet
 facet normal 0.518773 0.854912 0
  outer loop
   vertex 0.0625 0.283253 0
   vertex 0.0671625 0.280424 0.5
   vertex 0.0671625 0.280424 0
  endloop
 endfacet
 facet normal 0.55557 0.83147 0
  outer loop
   vertex 0.0671625 0.280424 0.5
   vertex 0.0716971 0.277394 0.5
   vertex 0.0671625 0.280424 0
  endloop
 endfacet
 facet normal 0.55557 0.83147 0
  outer loop
   vertex 0.0671625 0.280424 0
   vertex 0.0716971 0.277394 0.5
   vertex 0.0716971 0.277394 0
  endloop
 endfacet
 facet normal 0.59131 0.806444 0
  outer loop
   vertex 0.0716971 0.277394 0.5
   vertex 0.0760952 0.274169 0.5
   vertex 0.0716971 0.277394 0
  endloop
 endfacet
 facet normal 0.59131 0.806444 0
  outer loop
   vertex 0.0716971 0.277394 0
   vertex 0.0760952 0.274169 0.5
   vertex 0.0760952 0.274169 0
  endloop
 endfacet
 facet normal 0.625923 0.779885 0
  outer loop
   vertex 0.0760952 0.274169 0.5
   vertex 0.0803485 0.270756 0.5
   vertex 0.0760952 0.274169 0
  endloop
 endfacet
 facet normal 0.625923 0.779885 0
  outer loop
   vertex 0.0760952 0.274169 0
   vertex 0.0803485 0.270756 0.5
   vertex 0.0803485 0.270756 0
  endloop
 endfacet
 facet normal 0.659346 0.75184 0
  outer loop
   vertex 0.0803485 0.270756 0.5
   vertex 0.0844488 0.26716 0.5
   vertex 0.0803485 0.270756 0
  endloop
 endfacet
 facet normal 0.659346 0.75184 0
  outer loop
   vertex 0.0803485 0.270756 0
   vertex 0.0844488 0.26716 0.5
   vertex 0.0844488 0.26716 0
  endloop
 endfacet
 facet normal 0.691513 0.722364 0
  outer loop
   vertex 0.0844488 0.26716 0.5
   vertex 0.0883883 0.263388 0.5
   vertex 0.0844488 0.26716 0
  endloop
 endfacet
 facet normal 0.691513 0.722364 0
  outer loop
   vertex 0.0844488 0.26716 0
   vertex 0.0883883 0.263388 0.5
   vertex 0.0883883 0.263388 0
  endloop
 endfacet
 facet normal 0.722364 0.691513 0
  outer loop
   vertex 0.0883883 0.263388 0.5
   vertex 0.0921597 0.259449 0.5
   vertex 0.0883883 0.263388 0
  endloop
 endfacet
 facet normal 0.722364 0.691513 0
  outer loop
   vertex 0.0883883 0.263388 0
   vertex 0.0921597 0.259449 0.5
   vertex 0.0921597 0.259449 0
  endloop
 endfacet
 facet normal 0.75184 0.659346 0
  outer loop
   vertex 0.0921597 0.259449 0.5
   vertex 0.0957556 0.255348 0.5
   vertex 0.0921597 0.259449 0
  endloop
 endfacet
 facet normal 0.75184 0.659346 0
  outer loop
   vertex 0.0921597 0.259449 0
   vertex 0.0957556 0.255348 0.5
   vertex 0.0957556 0.255348 0
  endloop
 endfacet
 facet normal 0.779885 0.625923 0
  outer loop
   vertex 0.0957556 0.255348 0.5
   vertex 0.0991692 0.251095 0.5
   vertex 0.0957556 0.255348 0
  endloop
 endfacet
 facet normal 0.779885 0.625923 0
  outer loop
   vertex 0.0957556 0.255348 0
   vertex 0.0991692 0.251095 0.5
   vertex 0.0991692 0.251095 0
  endloop
 endfacet
 facet normal 0.806444 0.59131 0
  outer loop
   vertex 0.0991692 0.251095 0.5
   vertex 0.102394 0.246697 0.5
   vertex 0.0991692 0.251095 0
  endloop
 endfacet
 facet normal 0.806444 0.59131 0
  outer loop
   vertex 0.0991692 0.251095 0
   vertex 0.102394 0.246697 0.5
   vertex 0.102394 0.246697 0
  endloop
 endfacet
 facet normal 0.83147 0.55557 0
  outer loop
   vertex 0.102394 0.246697 0.5
   vertex 0.105424 0.242162 0.5
   vertex 0.102394 0.246697 0
  endloop
 endfacet
 facet normal 0.83147 0.55557 0
  outer loop
   vertex 0.102394 0.246697 0
   vertex 0.105424 0.242162 0.5
   vertex 0.105424 0.242162 0
  endloop
 endfacet
 facet normal 0.854912 0.518773 0
  outer loop
   vertex 0.105424 0.242162 0.5
   vertex 0.108253 0.2375 0.5
   vertex 0.105424 0.242162 0
  endloop
 endfacet
 facet normal 0.854912 0.518773 0
  outer loop
   vertex 0.105424 0.242162 0
   vertex 0.108253 0.2375 0.5
   vertex 0.108253 0.2375 0
  endloop
 endfacet
 facet normal 0.876727 0.480989 0
  outer loop
   vertex 0.108253 0.2375 0.5
   vertex 0.110876 0.232719 0.5
   vertex 0.108253 0.2375 0
  endloop
 endfacet
 facet normal 0.876727 0.480989 0
  outer loop
   vertex 0.108253 0.2375 0
   vertex 0.110876 0.232719 0.5
   vertex 0.110876 0.232719 0
  endloop
 endfacet
 facet normal 0.896872 0.44229 0
  outer loop
   vertex 0.110876 0.232719 0.5
   vertex 0.113288 0.227827 0.5
   vertex 0.110876 0.232719 0
  endloop
 endfacet
 facet normal 0.896872 0.44229 0
  outer loop
   vertex 0.110876 0.232719 0
   vertex 0.113288 0.227827 0.5
   vertex 0.113288 0.227827 0
  endloop
 endfacet
 facet normal 0.915312 0.402745 0
  outer loop
   vertex 0.113288 0.227827 0.5
   vertex 0.115485 0.222835 0.5
   vertex 0.113288 0.227827 0
  endloop
 endfacet
 facet normal 0.915312 0.402745 0
  outer loop
   vertex 0.113288 0.227827 0
   vertex 0.115485 0.222835 0.5
   vertex 0.115485 0.222835 0
  endloop
 endfacet
 facet normal 0.932008 0.362439 0
  outer loop
   vertex 0.115485 0.222835 0.5
   vertex 0.117462 0.217753 0.5
   vertex 0.115485 0.222835 0
  endloop
 endfacet
 facet normal 0.932008 0.362439 0
  outer loop
   vertex 0.115485 0.222835 0
   vertex 0.117462 0.217753 0.5
   vertex 0.117462 0.217753 0
  endloop
 endfacet
 facet normal 0.94693 0.321439 0
  outer loop
   vertex 0.117462 0.217753 0.5
   vertex 0.119215 0.212588 0.5
   vertex 0.117462 0.217753 0
  endloop
 endfacet
 facet normal 0.94693 0.321439 0
  outer loop
   vertex 0.117462 0.217753 0
   vertex 0.119215 0.212588 0.5
   vertex 0.119215 0.212588 0
  endloop
 endfacet
 facet normal 0.96005 0.279829 0
  outer loop
   vertex 0.119215 0.212588 0.5
   vertex 0.120741 0.207352 0.5
   vertex 0.119215 0.212588 0
  endloop
 endfacet
 facet normal 0.96005 0.279829 0
  outer loop
   vertex 0.119215 0.212588 0
   vertex 0.120741 0.207352 0.5
   vertex 0.120741 0.207352 0
  endloop
 endfacet
 facet normal 0.971342 0.237686 0
  outer loop
   vertex 0.120741 0.207352 0.5
   vertex 0.122037 0.202055 0.5
   vertex 0.120741 0.207352 0
  endloop
 endfacet
 facet normal 0.971342 0.237686 0
  outer loop
   vertex 0.120741 0.207352 0
   vertex 0.122037 0.202055 0.5
   vertex 0.122037 0.202055 0
  endloop
 endfacet
 facet normal 0.980785 0.19509 0
  outer loop
   vertex 0.122037 0.202055 0.5
   vertex 0.123101 0.196706 0.5
   vertex 0.122037 0.202055 0
  endloop
 endfacet
 facet normal 0.980785 0.19509 0
  outer loop
   vertex 0.122037 0.202055 0
   vertex 0.123101 0.196706 0.5
   vertex 0.123101 0.196706 0
  endloop
 endfacet
 facet normal 0.988361 0.152124 0
  outer loop
   vertex 0.123101 0.196706 0.5
   vertex 0.123931 0.191316 0.5
   vertex 0.123101 0.196706 0
  endloop
 endfacet
 facet normal 0.988361 0.152124 0
  outer loop
   vertex 0.123101 0.196706 0
   vertex 0.123931 0.191316 0.5
   vertex 0.123931 0.191316 0
  endloop
 endfacet
 facet normal 0.994056 0.108867 0
  outer loop
   vertex 0.123931 0.191316 0.5
   vertex 0.124524 0.185894 0.5
   vertex 0.123931 0.191316 0
  endloop
 endfacet
 facet normal 0.994056 0.108867 0
  outer loop
   vertex 0.123931 0.191316 0
   vertex 0.124524 0.185894 0.5
   vertex 0.124524 0.185894 0
  endloop
 endfacet
 facet normal 0.997859 0.0654029 0
  outer loop
   vertex 0.124524 0.185894 0.5
   vertex 0.124881 0.180452 0.5
   vertex 0.124524 0.185894 0
  endloop
 endfacet
 facet normal 0.997859 0.0654029 0
  outer loop
   vertex 0.124524 0.185894 0
   vertex 0.124881 0.180452 0.5
   vertex 0.124881 0.180452 0
  endloop
 endfacet
 facet normal 0.999762 0.0218146 0
  outer loop
   vertex 0.124881 0.180452 0.5
   vertex 0.125 0.175 0.5
   vertex 0.124881 0.180452 0
  endloop
 endfacet
 facet normal 0.999762 0.0218146 -1.20367e-18
  outer loop
   vertex 0.124881 0.180452 0
   vertex 0.125 0.175 0.5
   vertex 0.125 0.175 0
  endloop
 endfacet
 facet normal 0.999762 -0.0218146 1.21095e-18
  outer loop
   vertex 0.125 0.175 0.5
   vertex 0.124881 0.169548 0.5
   vertex 0.125 0.175 0
  endloop
 endfacet
 facet normal 0.999762 -0.0218146 0
  outer loop
   vertex 0.125 0.175 0
   vertex 0.124881 0.169548 0.5
   vertex 0.124881 0.169548 0
  endloop
 endfacet
 facet normal 0.997859 -0.0654029 0
  outer loop
   vertex 0.124881 0.169548 0.5
   vertex 0.124524 0.164106 0.5
   vertex 0.124881 0.169548 0
  endloop
 endfacet
 facet normal 0.997859 -0.0654029 0
  outer loop
   vertex 0.124881 0.169548 0
   vertex 0.124524 0.164106 0.5
   vertex 0.124524 0.164106 0
  endloop
 endfacet
 facet normal 0.994056 -0.108867 0
  outer loop
   vertex 0.124524 0.164106 0.5
   vertex 0.123931 0.158684 0.5
   vertex 0.124524 0.164106 0
  endloop
 endfacet
 facet normal 0.994056 -0.108867 0
  outer loop
   vertex 0.124524 0.164106 0
   vertex 0.123931 0.158684 0.5
   vertex 0.123931 0.158684 0
  endloop
 endfacet
 facet normal 0.988361 -0.152124 0
  outer loop
   vertex 0.123931 0.158684 0.5
   vertex 0.123101 0.153294 0.5
   vertex 0.123931 0.158684 0
  endloop
 endfacet
 facet normal 0.988361 -0.152124 0
  outer loop
   vertex 0.123931 0.158684 0
   vertex 0.123101 0.153294 0.5
   vertex 0.123101 0.153294 0
  endloop
 endfacet
 facet normal 0.980785 -0.19509 0
  outer loop
   vertex 0.123101 0.153294 0.5
   vertex 0.122037 0.147945 0.5
   vertex 0.123101 0.153294 0
  endloop
 endfacet
 facet normal 0.980785 -0.19509 0
  outer loop
   vertex 0.123101 0.153294 0
   vertex 0.122037 0.147945 0.5
   vertex 0.122037 0.147945 0
  endloop
 endfacet
 facet normal 0.971342 -0.237686 0
  outer loop
   vertex 0.122037 0.147945 0.5
   vertex 0.120741 0.142648 0.5
   vertex 0.122037 0.147945 0
  endloop
 endfacet
 facet normal 0.971342 -0.237686 0
  outer loop
   vertex 0.122037 0.147945 0
   vertex 0.120741 0.142648 0.5
   vertex 0.120741 0.142648 0
  endloop
 endfacet
 facet normal 0.96005 -0.279829 0
  outer loop
   vertex 0.120741 0.142648 0.5
   vertex 0.119215 0.137412 0.5
   vertex 0.120741 0.142648 0
  endloop
 endfacet
 facet normal 0.96005 -0.279829 0
  outer loop
   vertex 0.120741 0.142648 0
   vertex 0.119215 0.137412 0.5
   vertex 0.119215 0.137412 0
  endloop
 endfacet
 facet normal 0.94693 -0.321439 0
  outer loop
   vertex 0.119215 0.137412 0.5
   vertex 0.117462 0.132247 0.5
   vertex 0.119215 0.137412 0
  endloop
 endfacet
 facet normal 0.94693 -0.321439 0
  outer loop
   vertex 0.119215 0.137412 0
   vertex 0.117462 0.132247 0.5
   vertex 0.117462 0.132247 0
  endloop
 endfacet
 facet normal 0.932008 -0.362439 0
  outer loop
   vertex 0.117462 0.132247 0.5
   vertex 0.115485 0.127165 0.5
   vertex 0.117462 0.132247 0
  endloop
 endfacet
 facet normal 0.932008 -0.362439 0
  outer loop
   vertex 0.117462 0.132247 0
   vertex 0.115485 0.127165 0.5
   vertex 0.115485 0.127165 0
  endloop
 endfacet
 facet normal 0.915312 -0.402745 0
  outer loop
   vertex 0.115485 0.127165 0.5
   vertex 0.113288 0.122173 0.5
   vertex 0.115485 0.127165 0
  endloop
 endfacet
 facet normal 0.915312 -0.402745 0
  outer loop
   vertex 0.115485 0.127165 0
   vertex 0.113288 0.122173 0.5
   vertex 0.113288 0.122173 0
  endloop
 endfacet
 facet normal 0.896872 -0.44229 0
  outer loop
   vertex 0.113288 0.122173 0.5
   vertex 0.110876 0.117281 0.5
   vertex 0.113288 0.122173 0
  endloop
 endfacet
 facet normal 0.896872 -0.44229 0
  outer loop
   vertex 0.113288 0.122173 0
   vertex 0.110876 0.117281 0.5
   vertex 0.110876 0.117281 0
  endloop
 endfacet
 facet normal 0.876727 -0.480989 0
  outer loop
   vertex 0.110876 0.117281 0.5
   vertex 0.108253 0.1125 0.5
   vertex 0.110876 0.117281 0
  endloop
 endfacet
 facet normal 0.876727 -0.480989 0
  outer loop
   vertex 0.110876 0.117281 0
   vertex 0.108253 0.1125 0.5
   vertex 0.108253 0.1125 0
  endloop
 endfacet
 facet normal 0.854912 -0.518773 0
  outer loop
   vertex 0.108253 0.1125 0.5
   vertex 0.105424 0.107838 0.5
   vertex 0.108253 0.1125 0
  endloop
 endfacet
 facet normal 0.854912 -0.518773 0
  outer loop
   vertex 0.108253 0.1125 0
   vertex 0.105424 0.107838 0.5
   vertex 0.105424 0.107838 0
  endloop
 endfacet
 facet normal 0.83147 -0.55557 0
  outer loop
   vertex 0.105424 0.107838 0.5
   vertex 0.102394 0.103303 0.5
   vertex 0.105424 0.107838 0
  endloop
 endfacet
 facet normal 0.83147 -0.55557 0
  outer loop
   vertex 0.105424 0.107838 0
   vertex 0.102394 0.103303 0.5
   vertex 0.102394 0.103303 0
  endloop
 endfacet
 facet normal 0.806444 -0.59131 0
  outer loop
   vertex 0.102394 0.103303 0.5
   vertex 0.0991692 0.0989048 0.5
   vertex 0.102394 0.103303 0
  endloop
 endfacet
 facet normal 0.806444 -0.59131 0
  outer loop
   vertex 0.102394 0.103303 0
   vertex 0.0991692 0.0989048 0.5
   vertex 0.0991692 0.0989048 0
  endloop
 endfacet
 facet normal 0.779885 -0.625923 0
  outer loop
   vertex 0.0991692 0.0989048 0.5
   vertex 0.0957556 0.0946515 0.5
   vertex 0.0991692 0.0989048 0
  endloop
 endfacet
 facet normal 0.779885 -0.625923 0
  outer loop
   vertex 0.0991692 0.0989048 0
   vertex 0.0957556 0.0946515 0.5
   vertex 0.0957556 0.0946515 0
  endloop
 endfacet
 facet normal 0.75184 -0.659346 0
  outer loop
   vertex 0.0957556 0.0946515 0.5
   vertex 0.0921597 0.0905512 0.5
   vertex 0.0957556 0.0946515 0
  endloop
 endfacet
 facet normal 0.75184 -0.659346 0
  outer loop
   vertex 0.0957556 0.0946515 0
   vertex 0.0921597 0.0905512 0.5
   vertex 0.0921597 0.0905512 0
  endloop
 endfacet
 facet normal 0.722364 -0.691513 0
  outer loop
   vertex 0.0921597 0.0905512 0.5
   vertex 0.0883883 0.0866117 0.5
   vertex 0.0921597 0.0905512 0
  endloop
 endfacet
 facet normal 0.722364 -0.691513 0
  outer loop
   vertex 0.0921597 0.0905512 0
   vertex 0.0883883 0.0866117 0.5
   vertex 0.0883883 0.0866117 0
  endloop
 endfacet
 facet normal 0.691513 -0.722364 0
  outer loop
   vertex 0.0883883 0.0866117 0.5
   vertex 0.0844488 0.0828403 0.5
   vertex 0.0883883 0.0866117 0
  endloop
 endfacet
 facet normal 0.691513 -0.722364 0
  outer loop
   vertex 0.0883883 0.0866117 0
   vertex 0.0844488 0.0828403 0.5
   vertex 0.0844488 0.0828403 0
  endloop
 endfacet
 facet normal 0.659346 -0.75184 0
  outer loop
   vertex 0.0844488 0.0828403 0.5
   vertex 0.0803485 0.0792444 0.5
   vertex 0.0844488 0.0828403 0
  endloop
 endfacet
 facet normal 0.659346 -0.75184 0
  outer loop
   vertex 0.0844488 0.0828403 0
   vertex 0.0803485 0.0792444 0.5
   vertex 0.0803485 0.0792444 0
  endloop
 endfacet
 facet normal 0.625923 -0.779885 0
  outer loop
   vertex 0.0803485 0.0792444 0.5
   vertex 0.0760952 0.0758308 0.5
   vertex 0.0803485 0.0792444 0
  endloop
 endfacet
 facet normal 0.625923 -0.779885 0
  outer loop
   vertex 0.0803485 0.0792444 0
   vertex 0.0760952 0.0758308 0.5
   vertex 0.0760952 0.0758308 0
  endloop
 endfacet
 facet normal 0.59131 -0.806444 0
  outer loop
   vertex 0.0760952 0.0758308 0.5
   vertex 0.0716971 0.072606 0.5
   vertex 0.0760952 0.0758308 0
  endloop
 endfacet
 facet normal 0.59131 -0.806444 0
  outer loop
   vertex 0.0760952 0.0758308 0
   vertex 0.0716971 0.072606 0.5
   vertex 0.0716971 0.072606 0
  endloop
 endfacet
 facet normal 0.55557 -0.83147 0
  outer loop
   vertex 0.0716971 0.072606 0.5
   vertex 0.0671625 0.0695761 0.5
   vertex 0.0716971 0.072606 0
  endloop
 endfacet
 facet normal 0.55557 -0.83147 0
  outer loop
   vertex 0.0716971 0.072606 0
   vertex 0.0671625 0.0695761 0.5
   vertex 0.0671625 0.0695761 0
  endloop
 endfacet
 facet normal 0.518773 -0.854912 0
  outer loop
   vertex 0.0671625 0.0695761 0.5
   vertex 0.0625 0.0667468 0.5
   vertex 0.0671625 0.0695761 0
  endloop
 endfacet
 facet normal 0.518773 -0.854912 0
  outer loop
   vertex 0.0671625 0.0695761 0
   vertex 0.0625 0.0667468 0.5
   vertex 0.0625 0.0667468 0
  endloop
 endfacet
 facet normal 0.480989 -0.876727 0
  outer loop
   vertex 0.0625 0.0667468 0.5
   vertex 0.0577186 0.0641236 0.5
   vertex 0.0625 0.0667468 0
  endloop
 endfacet
 facet normal 0.480989 -0.876727 0
  outer loop
   vertex 0.0625 0.0667468 0
   vertex 0.0577186 0.0641236 0.5
   vertex 0.0577186 0.0641236 0
  endloop
 endfacet
 facet normal 0.44229 -0.896872 0
  outer loop
   vertex 0.0577186 0.0641236 0.5
   vertex 0.0528273 0.0617115 0.5
   vertex 0.0577186 0.0641236 0
  endloop
 endfacet
 facet normal 0.44229 -0.896872 0
  outer loop
   vertex 0.0577186 0.0641236 0
   vertex 0.0528273 0.0617115 0.5
   vertex 0.0528273 0.0617115 0
  endloop
 endfacet
 facet normal 0.402745 -0.915312 0
  outer loop
   vertex 0.0528273 0.0617115 0.5
   vertex 0.0478354 0.0595151 0.5
   vertex 0.0528273 0.0617115 0
  endloop
 endfacet
 facet normal 0.402745 -0.915312 0
  outer loop
   vertex 0.0528273 0.0617115 0
   vertex 0.0478354 0.0595151 0.5
   vertex 0.0478354 0.0595151 0
  endloop
 endfacet
 facet normal 0.362439 -0.932008 0
  outer loop
   vertex 0.0478354 0.0595151 0.5
   vertex 0.0427525 0.0575384 0.5
   vertex 0.0478354 0.0595151 0
  endloop
 endfacet
 facet normal 0.362439 -0.932008 0
  outer loop
   vertex 0.0478354 0.0595151 0
   vertex 0.0427525 0.0575384 0.5
   vertex 0.0427525 0.0575384 0
  endloop
 endfacet
 facet normal 0.321439 -0.94693 0
  outer loop
   vertex 0.0427525 0.0575384 0.5
   vertex 0.0375882 0.0557854 0.5
   vertex 0.0427525 0.0575384 0
  endloop
 endfacet
 facet normal 0.321439 -0.94693 0
  outer loop
   vertex 0.0427525 0.0575384 0
   vertex 0.0375882 0.0557854 0.5
   vertex 0.0375882 0.0557854 0
  endloop
 endfacet
 facet normal 0.279829 -0.96005 0
  outer loop
   vertex 0.0375882 0.0557854 0.5
   vertex 0.0323524 0.0542593 0.5
   vertex 0.0375882 0.0557854 0
  endloop
 endfacet
 facet normal 0.279829 -0.96005 0
  outer loop
   vertex 0.0375882 0.0557854 0
   vertex 0.0323524 0.0542593 0.5
   vertex 0.0323524 0.0542593 0
  endloop
 endfacet
 facet normal 0.237686 -0.971342 0
  outer loop
   vertex 0.0323524 0.0542593 0.5
   vertex 0.027055 0.052963 0.5
   vertex 0.0323524 0.0542593 0
  endloop
 endfacet
 facet normal 0.237686 -0.971342 0
  outer loop
   vertex 0.0323524 0.0542593 0
   vertex 0.027055 0.052963 0.5
   vertex 0.027055 0.052963 0
  endloop
 endfacet
 facet normal 0.19509 -0.980785 0
  outer loop
   vertex 0.027055 0.052963 0.5
   vertex 0.021706 0.051899 0.5
   vertex 0.027055 0.052963 0
  endloop
 endfacet
 facet normal 0.19509 -0.980785 0
  outer loop
   vertex 0.027055 0.052963 0
   vertex 0.021706 0.051899 0.5
   vertex 0.021706 0.051899 0
  endloop
 endfacet
 facet normal 0.152124 -0.988361 0
  outer loop
   vertex 0.021706 0.051899 0.5
   vertex 0.0163158 0.0510694 0.5
   vertex 0.021706 0.051899 0
  endloop
 endfacet
 facet normal 0.152124 -0.988361 0
  outer loop
   vertex 0.021706 0.051899 0
   vertex 0.0163158 0.0510694 0.5
   vertex 0.0163158 0.0510694 0
  endloop
 endfacet
 facet normal 0.108867 -0.994056 0
  outer loop
   vertex 0.0163158 0.0510694 0.5
   vertex 0.0108945 0.0504757 0.5
   vertex 0.0163158 0.0510694 0
  endloop
 endfacet
 facet normal 0.108867 -0.994056 0
  outer loop
   vertex 0.0163158 0.0510694 0
   vertex 0.0108945 0.0504757 0.5
   vertex 0.0108945 0.0504757 0
  endloop
 endfacet
 facet normal 0.0654029 -0.997859 0
  outer loop
   vertex 0.0108945 0.0504757 0.5
   vertex 0.00545242 0.050119 0.5
   vertex 0.0108945 0.0504757 0
  endloop
 endfacet
 facet normal 0.0654029 -0.997859 0
  outer loop
   vertex 0.0108945 0.0504757 0
   vertex 0.00545242 0.050119 0.5
   vertex 0.00545242 0.050119 0
  endloop
 endfacet
 facet normal 0.0218146 -0.999762 0
  outer loop
   vertex 0.00545242 0.050119 0.5
   vertex 2.29621e-17 0.05 0.5
   vertex 0.00545242 0.050119 0
  endloop
 endfacet
 facet normal 0.0218146 -0.999762 0
  outer loop
   vertex 0.00545242 0.050119 0
   vertex 2.29621e-17 0.05 0.5
   vertex 2.29621e-17 0.05 0
  endloop
 endfacet
 facet normal -0.0218146 -0.999762 -0
  outer loop
   vertex 2.29621e-17 0.05 0.5
   vertex -0.00545242 0.050119 0.5
   vertex 2.29621e-17 0.05 0
  endloop
 endfacet
 facet normal -0.0218146 -0.999762 0
  outer loop
   vertex 2.29621e-17 0.05 0
   vertex -0.00545242 0.050119 0.5
   vertex -0.00545242 0.050119 0
  endloop
 endfacet
 facet normal -0.0654029 -0.997859 -0
  outer loop
   vertex -0.00545242 0.050119 0.5
   vertex -0.0108945 0.0504757 0.5
   vertex -0.00545242 0.050119 0
  endloop
 endfacet
 facet normal -0.0654029 -0.997859 0
  outer loop
   vertex -0.00545242 0.050119 0
   vertex -0.0108945 0.0504757 0.5
   vertex -0.0108945 0.0504757 0
  endloop
 endfacet
 facet normal -0.108867 -0.994056 -0
  outer loop
   vertex -0.0108945 0.0504757 0.5
   vertex -0.0163158 0.0510694 0.5
   vertex -0.0108945 0.0504757 0
  endloop
 endfacet
 facet normal -0.108867 -0.994056 0
  outer loop
   vertex -0.0108945 0.0504757 0
   vertex -0.0163158 0.0510694 0.5
   vertex -0.0163158 0.0510694 0
  endloop
 endfacet
 facet normal -0.152124 -0.988361 -0
  outer loop
   vertex -0.0163158 0.0510694 0.5
   vertex -0.021706 0.051899 0.5
   vertex -0.0163158 0.0510694 0
  endloop
 endfacet
 facet normal -0.152124 -0.988361 0
  outer loop
   vertex -0.0163158 0.0510694 0
   vertex -0.021706 0.051899 0.5
   vertex -0.021706 0.051899 0
  endloop
 endfacet
 facet normal -0.19509 -0.980785 -0
  outer loop
   vertex -0.021706 0.051899 0.5
   vertex -0.027055 0.052963 0.5
   vertex -0.021706 0.051899 0
  endloop
 endfacet
 facet normal -0.19509 -0.980785 0
  outer loop
   vertex -0.021706 0.051899 0
   vertex -0.027055 0.052963 0.5
   vertex -0.027055 0.052963 0
  endloop
 endfacet
 facet normal -0.237686 -0.971342 -0
  outer loop
   vertex -0.027055 0.052963 0.5
   vertex -0.0323524 0.0542593 0.5
   vertex -0.027055 0.052963 0
  endloop
 endfacet
 facet normal -0.237686 -0.971342 0
  outer loop
   vertex -0.027055 0.052963 0
   vertex -0.0323524 0.0542593 0.5
   vertex -0.0323524 0.0542593 0
  endloop
 endfacet
 facet normal -0.279829 -0.96005 -0
  outer loop
   vertex -0.0323524 0.0542593 0.5
   vertex -0.0375882 0.0557854 0.5
   vertex -0.0323524 0.0542593 0
  endloop
 endfacet
 facet normal -0.279829 -0.96005 0
  outer loop
   vertex -0.0323524 0.0542593 0
   vertex -0.0375882 0.0557854 0.5
   vertex -0.0375882 0.0557854 0
  endloop
 endfacet
 facet normal -0.321439 -0.94693 -0
  outer loop
   vertex -0.0375882 0.0557854 0.5
   vertex -0.0427525 0.0575384 0.5
   vertex -0.0375882 0.0557854 0
  endloop
 endfacet
 facet normal -0.321439 -0.94693 0
  outer loop
   vertex -0.0375882 0.0557854 0
   vertex -0.0427525 0.0575384 0.5
   vertex -0.0427525 0.0575384 0
  endloop
 endfacet
 facet normal -0.362439 -0.932008 -0
  outer loop
   vertex -0.0427525 0.0575384 0.5
   vertex -0.0478354 0.0595151 0.5
   vertex -0.0427525 0.0575384 0
  endloop
 endfacet
 facet normal -0.362439 -0.932008 0
  outer loop
   vertex -0.0427525 0.0575384 0
   vertex -0.0478354 0.0595151 0.5
   vertex -0.0478354 0.0595151 0
  endloop
 endfacet
 facet normal -0.402745 -0.915312 -0
  outer loop
   vertex -0.0478354 0.0595151 0.5
   vertex -0.0528273 0.0617115 0.5
   vertex -0.0478354 0.0595151 0
  endloop
 endfacet
 facet normal -0.402745 -0.915312 0
  outer loop
   vertex -0.0478354 0.0595151 0
   vertex -0.0528273 0.0617115 0.5
   vertex -0.0528273 0.0617115 0
  endloop
 endfacet
 facet normal -0.44229 -0.896872 -0
  outer loop
   vertex -0.0528273 0.0617115 0.5
   vertex -0.0577186 0.0641236 0.5
   vertex -0.0528273 0.0617115 0
  endloop
 endfacet
 facet normal -0.44229 -0.896872 0
  outer loop
   vertex -0.0528273 0.0617115 0
   vertex -0.0577186 0.0641236 0.5
   vertex -0.0577186 0.0641236 0
  endloop
 endfacet
 facet normal -0.480989 -0.876727 -0
  outer loop
   vertex -0.0577186 0.0641236 0.5
   vertex -0.0625 0.0667468 0.5
   vertex -0.0577186 0.0641236 0
  endloop
 endfacet
 facet normal -0.480989 -0.876727 0
  outer loop
   vertex -0.0577186 0.0641236 0
   vertex -0.0625 0.0667468 0.5
   vertex -0.0625 0.0667468 0
  endloop
 endfacet
 facet normal -0.518773 -0.854912 -0
  outer loop
   vertex -0.0625 0.0667468 0.5
   vertex -0.0671625 0.0695761 0.5
   vertex -0.0625 0.0667468 0
  endloop
 endfacet
 facet normal -0.518773 -0.854912 0
  outer loop
   vertex -0.0625 0.0667468 0
   vertex -0.0671625 0.0695761 0.5
   vertex -0.0671625 0.0695761 0
  endloop
 endfacet
 facet normal -0.55557 -0.83147 -0
  outer loop
   vertex -0.0671625 0.0695761 0.5
   vertex -0.0716971 0.072606 0.5
   vertex -0.0671625 0.0695761 0
  endloop
 endfacet
 facet normal -0.55557 -0.83147 0
  outer loop
   vertex -0.0671625 0.0695761 0
   vertex -0.0716971 0.072606 0.5
   vertex -0.0716971 0.072606 0
  endloop
 endfacet
 facet normal -0.59131 -0.806444 -0
  outer loop
   vertex -0.0716971 0.072606 0.5
   vertex -0.0760952 0.0758308 0.5
   vertex -0.0716971 0.072606 0
  endloop
 endfacet
 facet normal -0.59131 -0.806444 0
  outer loop
   vertex -0.0716971 0.072606 0
   vertex -0.0760952 0.0758308 0.5
   vertex -0.0760952 0.0758308 0
  endloop
 endfacet
 facet normal -0.625923 -0.779885 -0
  outer loop
   vertex -0.0760952 0.0758308 0.5
   vertex -0.0803485 0.0792444 0.5
   vertex -0.0760952 0.0758308 0
  endloop
 endfacet
 facet normal -0.625923 -0.779885 0
  outer loop
   vertex -0.0760952 0.0758308 0
   vertex -0.0803485 0.0792444 0.5
   vertex -0.0803485 0.0792444 0
  endloop
 endfacet
 facet normal -0.659346 -0.75184 -0
  outer loop
   vertex -0.0803485 0.0792444 0.5
   vertex -0.0844488 0.0828403 0.5
   vertex -0.0803485 0.0792444 0
  endloop
 endfacet
 facet normal -0.659346 -0.75184 0
  outer loop
   vertex -0.0803485 0.0792444 0
   vertex -0.0844488 0.0828403 0.5
   vertex -0.0844488 0.0828403 0
  endloop
 endfacet
 facet normal -0.691513 -0.722364 -0
  outer loop
   vertex -0.0844488 0.0828403 0.5
   vertex -0.0883883 0.0866117 0.5
   vertex -0.0844488 0.0828403 0
  endloop
 endfacet
 facet normal -0.691513 -0.722364 0
  outer loop
   vertex -0.0844488 0.0828403 0
   vertex -0.0883883 0.0866117 0.5
   vertex -0.0883883 0.0866117 0
  endloop
 endfacet
 facet normal -0.722364 -0.691513 -0
  outer loop
   vertex -0.0883883 0.0866117 0.5
   vertex -0.0921597 0.0905512 0.5
   vertex -0.0883883 0.0866117 0
  endloop
 endfacet
 facet normal -0.722364 -0.691513 0
  outer loop
   vertex -0.0883883 0.0866117 0
   vertex -0.0921597 0.0905512 0.5
   vertex -0.0921597 0.0905512 0
  endloop
 endfacet
 facet normal -0.75184 -0.659346 -0
  outer loop
   vertex -0.0921597 0.0905512 0.5
   vertex -0.0957556 0.0946515 0.5
   vertex -0.0921597 0.0905512 0
  endloop
 endfacet
 facet normal -0.75184 -0.659346 0
  outer loop
   vertex -0.0921597 0.0905512 0
   vertex -0.0957556 0.0946515 0.5
   vertex -0.0957556 0.0946515 0
  endloop
 endfacet
 facet normal -0.779885 -0.625923 -0
  outer loop
   vertex -0.0957556 0.0946515 0.5
   vertex -0.0991692 0.0989048 0.5
   vertex -0.0957556 0.0946515 0
  endloop
 endfacet
 facet normal -0.779885 -0.625923 0
  outer loop
   vertex -0.0957556 0.0946515 0
   vertex -0.0991692 0.0989048 0.5
   vertex -0.0991692 0.0989048 0
  endloop
 endfacet
 facet normal -0.806444 -0.59131 -0
  outer loop
   vertex -0.0991692 0.0989048 0.5
   vertex -0.102394 0.103303 0.5
   vertex -0.0991692 0.0989048 0
  endloop
 endfacet
 facet normal -0.806444 -0.59131 0
  outer loop
   vertex -0.0991692 0.0989048 0
   vertex -0.102394 0.103303 0.5
   vertex -0.102394 0.103303 0
  endloop
 endfacet
 facet normal -0.83147 -0.55557 -0
  outer loop
   vertex -0.102394 0.103303 0.5
   vertex -0.105424 0.107838 0.5
   vertex -0.102394 0.103303 0
  endloop
 endfacet
 facet normal -0.83147 -0.55557 0
  outer loop
   vertex -0.102394 0.103303 0
   vertex -0.105424 0.107838 0.5
   vertex -0.105424 0.107838 0
  endloop
 endfacet
 facet normal -0.854912 -0.518773 -0
  outer loop
   vertex -0.105424 0.107838 0.5
   vertex -0.108253 0.1125 0.5
   vertex -0.105424 0.107838 0
  endloop
 endfacet
 facet normal -0.854912 -0.518773 0
  outer loop
   vertex -0.105424 0.107838 0
   vertex -0.108253 0.1125 0.5
   vertex -0.108253 0.1125 0
  endloop
 endfacet
 facet normal -0.876727 -0.480989 -0
  outer loop
   vertex -0.108253 0.1125 0.5
   vertex -0.110876 0.117281 0.5
   vertex -0.108253 0.1125 0
  endloop
 endfacet
 facet normal -0.876727 -0.480989 0
  outer loop
   vertex -0.108253 0.1125 0
   vertex -0.110876 0.117281 0.5
   vertex -0.110876 0.117281 0
  endloop
 endfacet
 facet normal -0.896872 -0.44229 -0
  outer loop
   vertex -0.110876 0.117281 0.5
   vertex -0.113288 0.122173 0.5
   vertex -0.110876 0.117281 0
  endloop
 endfacet
 facet normal -0.896872 -0.44229 0
  outer loop
   vertex -0.110876 0.117281 0
   vertex -0.113288 0.122173 0.5
   vertex -0.113288 0.122173 0
  endloop
 endfacet
 facet normal -0.915312 -0.402745 -0
  outer loop
   vertex -0.113288 0.122173 0.5
   vertex -0.115485 0.127165 0.5
   vertex -0.113288 0.122173 0
  endloop
 endfacet
 facet normal -0.915312 -0.402745 0
  outer loop
   vertex -0.113288 0.122173 0
   vertex -0.115485 0.127165 0.5
   vertex -0.115485 0.127165 0
  endloop
 endfacet
 facet normal -0.932008 -0.362439 -0
  outer loop
   vertex -0.115485 0.127165 0.5
   vertex -0.117462 0.132247 0.5
   vertex -0.115485 0.127165 0
  endloop
 endfacet
 facet normal -0.932008 -0.362439 0
  outer loop
   vertex -0.115485 0.127165 0
   vertex -0.117462 0.132247 0.5
   vertex -0.117462 0.132247 0
  endloop
 endfacet
 facet normal -0.94693 -0.321439 -0
  outer loop
   vertex -0.117462 0.132247 0.5
   vertex -0.119215 0.137412 0.5
   vertex -0.117462 0.132247 0
  endloop
 endfacet
 facet normal -0.94693 -0.321439 0
  outer loop
   vertex -0.117462 0.132247 0
   vertex -0.119215 0.137412 0.5
   vertex -0.119215 0.137412 0
  endloop
 endfacet
 facet normal -0.96005 -0.279829 -0
  outer loop
   vertex -0.119215 0.137412 0.5
   vertex -0.120741 0.142648 0.5
   vertex -0.119215 0.137412 0
  endloop
 endfacet
 facet normal -0.96005 -0.279829 0
  outer loop
   vertex -0.119215 0.137412 0
   vertex -0.120741 0.142648 0.5
   vertex -0.120741 0.142648 0
  endloop
 endfacet
 facet normal -0.971342 -0.237686 -0
  outer loop
   vertex -0.120741 0.142648 0.5
   vertex -0.122037 0.147945 0.5
   vertex -0.120741 0.142648 0
  endloop
 endfacet
 facet normal -0.971342 -0.237686 0
  outer loop
   vertex -0.120741 0.142648 0
   vertex -0.122037 0.147945 0.5
   vertex -0.122037 0.147945 0
  endloop
 endfacet
 facet normal -0.980785 -0.19509 -0
  outer loop
   vertex -0.122037 0.147945 0.5
   vertex -0.123101 0.153294 0.5
   vertex -0.122037 0.147945 0
  endloop
 endfacet
 facet normal -0.980785 -0.19509 0
  outer loop
   vertex -0.122037 0.147945 0
   vertex -0.123101 0.153294 0.5
   vertex -0.123101 0.153294 0
  endloop
 endfacet
 facet normal -0.988361 -0.152124 -0
  outer loop
   vertex -0.123101 0.153294 0.5
   vertex -0.123931 0.158684 0.5
   vertex -0.123101 0.153294 0
  endloop
 endfacet
 facet normal -0.988361 -0.152124 0
  outer loop
   vertex -0.123101 0.153294 0
   vertex -0.123931 0.158684 0.5
   vertex -0.123931 0.158684 0
  endloop
 endfacet
 facet normal -0.994056 -0.108867 -0
  outer loop
   vertex -0.123931 0.158684 0.5
   vertex -0.124524 0.164106 0.5
   vertex -0.123931 0.158684 0
  endloop
 endfacet
 facet normal -0.994056 -0.108867 0
  outer loop
   vertex -0.123931 0.158684 0
   vertex -0.124524 0.164106 0.5
   vertex -0.124524 0.164106 0
  endloop
 endfacet
 facet normal -0.997859 -0.0654029 -0
  outer loop
   vertex -0.124524 0.164106 0.5
   vertex -0.124881 0.169548 0.5
   vertex -0.124524 0.164106 0
  endloop
 endfacet
 facet normal -0.997859 -0.0654029 0
  outer loop
   vertex -0.124524 0.164106 0
   vertex -0.124881 0.169548 0.5
   vertex -0.124881 0.169548 0
  endloop
 endfacet
 facet normal -0.999762 -0.0218146 -0
  outer loop
   vertex -0.124881 0.169548 0.5
   vertex -0.125 0.175 0.5
   vertex -0.124881 0.169548 0
  endloop
 endfacet
 facet normal -0.999762 -0.0218146 0
  outer loop
   vertex -0.124881 0.169548 0
   vertex -0.125 0.175 0.5
   vertex -0.125 0.175 0
  endloop
 endfacet
 facet normal -0.999762 0.0218146 0
  outer loop
   vertex -0.125 0.175 0.5
   vertex -0.124881 0.180452 0.5
   vertex -0.125 0.175 0
  endloop
 endfacet
 facet normal 0 -0 1
  outer loop
   vertex 0.124524 0.164106 0.5
   vertex 0.124881 0.169548 0.5
   vertex 0 0.175 0.5
  endloop
 endfacet
 facet normal 0 -0 1
  outer loop
   vertex 0.124881 0.169548 0.5
   vertex 0.125 0.175 0.5
   vertex 0 0.175 0.5
  endloop
 endfacet
 facet normal 0 0 1
  outer loop
   vertex 0 0.175 0.5
   vertex 0.125 0.175 0.5
   vertex 0.124881 0.180452 0.5
  endloop
 endfacet
 facet normal 0 -0 1
  outer loop
   vertex 0.122037 0.147945 0.5
   vertex 0.123101 0.153294 0.5
   vertex 0 0.175 0.5
  endloop
 endfacet
 facet normal 0 -0 1
  outer loop
   vertex 0.123101 0.153294 0.5
   vertex 0.123931 0.158684 0.5
   vertex 0 0.175 0.5
  endloop
 endfacet
 facet normal 0 0 1
  outer loop
   vertex 0 0.175 0.5
   vertex 0.123931 0.158684 0.5
   vertex 0.124524 0.164106 0.5
  endloop
 endfacet
 facet normal 0 -0 1
  outer loop
   vertex 0.117462 0.132247 0.5
   vertex 0.119215 0.137412 0.5
   vertex 0 0.175 0.5
  endloop
 endfacet
 facet normal 0 -0 1
  outer loop
   vertex 0.119215 0.137412 0.5
   vertex 0.120741 0.142648 0.5
   vertex 0 0.175 0.5
  endloop
 endfacet
 facet normal 0 0 1
  outer loop
   vertex 0 0.175 0.5
   vertex 0.120741 0.142648 0.5
   vertex 0.122037 0.147945 0.5
  endloop
 endfacet
 facet normal 0 -0 1
  outer loop
   vertex 0.110876 0.117281 0.5
   vertex 0.113288 0.122173 0.5
   vertex 0 0.175 0.5
  endloop
 endfacet
 facet normal 0 -0 1
  outer loop
   vertex 0.113288 0.122173 0.5
   vertex 0.115485 0.127165 0.5
   vertex 0 0.175 0.5
  endloop
 endfacet
 facet normal 0 0 1
  outer loop
   vertex 0 0.175 0.5
   vertex 0.115485 0.127165 0.5
   vertex 0.117462 0.132247 0.5
  endloop
 endfacet
 facet normal 0 -0 1
  outer loop
   vertex 0.102394 0.103303 0.5
   vertex 0.105424 0.107838 0.5
   vertex 0 0.175 0.5
  endloop
 endfacet
 facet normal 0 -0 1
  outer loop
   vertex 0.105424 0.107838 0.5
   vertex 0.108253 0.1125 0.5
   vertex 0 0.175 0.5
  endloop
 endfacet
 facet normal 0 0 1
  outer loop
   vertex 0 0.175 0.5
   vertex 0.108253 0.1125 0.5
   vertex 0.110876 0.117281 0.5
  endloop
 endfacet
 facet normal 0 -0 1
  outer loop
   vertex 0.0921597 0.0905512 0.5
   vertex 0.0957556 0.0946515 0.5
   vertex 0 0.175 0.5
  endloop
 endfacet
 facet normal 0 -0 1
  outer loop
   vertex 0.0957556 0.0946515 0.5
   vertex 0.0991692 0.0989048 0.5
   vertex 0 0.175 0.5
  endloop
 endfacet
 facet normal 0 0 1
  outer loop
   vertex 0 0.175 0.5
   vertex 0.0991692 0.0989048 0.5
   vertex 0.102394 0.103303 0.5
  endloop
 endfacet
 facet normal 0 -0 1
  outer loop
   vertex 0.0803485 0.0792444 0.5
   vertex 0.0844488 0.0828403 0.5
   vertex 0 0.175 0.5
  endloop
 endfacet
 facet normal 0 -0 1
  outer loop
   vertex 0.0844488 0.0828403 0.5
   vertex 0.0883883 0.0866117 0.5
   vertex 0 0.175 0.5
  endloop
 endfacet
 facet normal 0 0 1
  outer loop
   vertex 0 0.175 0.5
   vertex 0.0883883 0.0866117 0.5
   vertex 0.0921597 0.0905512 0.5
  endloop
 endfacet
 facet normal 0 -0 1
  outer loop
   vertex 0.0671625 0.0695761 0.5
   vertex 0.0716971 0.072606 0.5
   vertex 0 0.175 0.5
  endloop
 endfacet
 facet normal 0 -0 1
  outer loop
   vertex 0.0716971 0.072606 0.5
   vertex 0.0760952 0.0758308 0.5
   vertex 0 0.175 0.5
  endloop
 endfacet
 facet normal 0 0 1
  outer loop
   vertex 0 0.175 0.5
   vertex 0.0760952 0.0758308 0.5
   vertex 0.0803485 0.0792444 0.5
  endloop
 endfacet
 facet normal 0 -0 1
  outer loop
   vertex 0.0528273 0.0617115 0.5
   vertex 0.0577186 0.0641236 0.5
   vertex 0 0.175 0.5
  endloop
 endfacet
 facet normal 0 -0 1
  outer loop
   vertex 0.0577186 0.0641236 0.5
   vertex 0.0625 0.0667468 0.5
   vertex 0 0.175 0.5
  endloop
 endfacet
 facet normal 0 0 1
  outer loop
   vertex 0 0.175 0.5
   vertex 0.0625 0.0667468 0.5
   vertex 0.0671625 0.0695761 0.5
  endloop
 endfacet
 facet normal 0 -0 1
  outer loop
   vertex 0.0375882 0.0557854 0.5
   vertex 0.0427525 0.0575384 0.5
   vertex 0 0.175 0.5
  endloop
 endfacet
 facet normal 0 -0 1
  outer loop
   vertex 0.0427525 0.0575384 0.5
   vertex 0.0478354 0.0595151 0.5
   vertex 0 0.175 0.5
  endloop
 endfacet
 facet normal 0 0 1
  outer loop
   vertex 0 0.175 0.5
   vertex 0.0478354 0.0595151 0.5
   vertex 0.0528273 0.0617115 0.5
  endloop
 endfacet
 facet normal 0 -0 1
  outer loop
   vertex 0.021706 0.051899 0.5
   vertex 0.027055 0.052963 0.5
   vertex 0 0.175 0.5
  endloop
 endfacet
 facet normal 0 -0 1
  outer loop
   vertex 0.027055 0.052963 0.5
   vertex 0.0323524 0.0542593 0.5
   vertex 0 0.175 0.5
  endloop
 endfacet
 facet normal 0 0 1
  outer loop
   vertex 0 0.175 0.5
   vertex 0.0323524 0.0542593 0.5
   vertex 0.0375882 0.0557854 0.5
  endloop
 endfacet
 facet normal 0 -0 1
  outer loop
   vertex 0.00545242 0.050119 0.5
   vertex 0.0108945 0.0504757 0.5
   vertex 0 0.175 0.5
  endloop
 endfacet
 facet normal 0 -0 1
  outer loop
   vertex 0.0108945 0.0504757 0.5
   vertex 0.0163158 0.0510694 0.5
   vertex 0 0.175 0.5
  endloop
 endfacet
 facet normal 0 0 1
  outer loop
   vertex 0 0.175 0.5
   vertex 0.0163158 0.0510694 0.5
   vertex 0.021706 0.051899 0.5
  endloop
 endfacet
 facet normal -0 0 1
  outer loop
   vertex -0.0108945 0.0504757 0.5
   vertex -0.00545242 0.050119 0.5
   vertex 0 0.175 0.5
  endloop
 endfacet
 facet normal -0 0 1
  outer loop
   vertex -0.00545242 0.050119 0.5
   vertex 2.29621e-17 0.05 0.5
   vertex 0 0.175 0.5
  endloop
 endfacet
 facet normal 0 0 1
  outer loop
   vertex 0 0.175 0.5
   vertex 2.29621e-17 0.05 0.5
   vertex 0.00545242 0.050119 0.5
  endloop
 endfacet
 facet normal -0 0 1
  outer loop
   vertex -0.027055 0.052963 0.5
   vertex -0.021706 0.051899 0.5
   vertex 0 0.175 0.5
  endloop
 endfacet
 facet normal -0 0 1
  outer loop
   vertex -0.021706 0.051899 0.5
   vertex -0.0163158 0.0510694 0.5
   vertex 0 0.175 0.5
  endloop
 endfacet
 facet normal 0 0 1
  outer loop
   vertex 0 0.175 0.5
   vertex -0.0163158 0.0510694 0.5
   vertex -0.0108945 0.0504757 0.5
  endloop
 endfacet
 facet normal -0 0 1
  outer loop
   vertex -0.0427525 0.0575384 0.5
   vertex -0.0375882 0.0557854 0.5
   vertex 0 0.175 0.5
  endloop
 endfacet
 facet normal -0 0 1
  outer loop
   vertex -0.0375882 0.0557854 0.5
   vertex -0.0323524 0.0542593 0.5
   vertex 0 0.175 0.5
  endloop
 endfacet
 facet normal 0 0 1
  outer loop
   vertex 0 0.175 0.5
   vertex -0.0323524 0.0542593 0.5
   vertex -0.027055 0.052963 0.5
  endloop
 endfacet
 facet normal -0 0 1
  outer loop
   vertex -0.0577186 0.0641236 0.5
   vertex -0.0528273 0.0617115 0.5
   vertex 0 0.175 0.5
  endloop
 endfacet
 facet normal -0 0 1
  outer loop
   vertex -0.0528273 0.0617115 0.5
   vertex -0.0478354 0.0595151 0.5
   vertex 0 0.175 0.5
  endloop
 endfacet
 facet normal 0 0 1
  outer loop
   vertex 0 0.175 0.5
   vertex -0.0478354 0.0595151 0.5
   vertex -0.0427525 0.0575384 0.5
  endloop
 endfacet
 facet normal -0 0 1
  outer loop
   vertex -0.0716971 0.072606 0.5
   vertex -0.0671625 0.0695761 0.5
   vertex 0 0.175 0.5
  endloop
 endfacet
 facet normal -0 0 1
  outer loop
   vertex -0.0671625 0.0695761 0.5
   vertex -0.0625 0.0667468 0.5
   vertex 0 0.175 0.5
  endloop
 endfacet
 facet normal 0 0 1
  outer loop
   vertex 0 0.175 0.5
   vertex -0.0625 0.0667468 0.5
   vertex -0.0577186 0.0641236 0.5
  endloop
 endfacet
 facet normal -0 0 1
  outer loop
   vertex -0.0844488 0.0828403 0.5
   vertex -0.0803485 0.0792444 0.5
   vertex 0 0.175 0.5
  endloop
 endfacet
 facet normal -0 0 1
  outer loop
   vertex -0.0803485 0.0792444 0.5
   vertex -0.0760952 0.0758308 0.5
   vertex 0 0.175 0.5
  endloop
 endfacet
 facet normal 0 0 1
  outer loop
   vertex 0 0.175 0.5
   vertex -0.0760952 0.0758308 0.5
   vertex -0.0716971 0.072606 0.5
  endloop
 endfacet
 facet normal -0 0 1
  outer loop
   vertex -0.0957556 0.0946515 0.5
   vertex -0.0921597 0.0905512 0.5
   vertex 0 0.175 0.5
  endloop
 endfacet
 facet normal -0 0 1
  outer loop
   vertex -0.0921597 0.0905512 0.5
   vertex -0.0883883 0.0866117 0.5
   vertex 0 0.175 0.5
  endloop
 endfacet
 facet normal 0 0 1
  outer loop
   vertex 0 0.175 0.5
   vertex -0.0883883 0.0866117 0.5
   vertex -0.0844488 0.0828403 0.5
  endloop
 endfacet
 facet normal -0 0 1
  outer loop
   vertex -0.105424 0.107838 0.5
   vertex -0.102394 0.103303 0.5
   vertex 0 0.175 0.5
  endloop
 endfacet
 facet normal -0 0 1
  outer loop
   vertex -0.102394 0.103303 0.5
   vertex -0.0991692 0.0989048 0.5
   vertex 0 0.175 0.5
  endloop
 endfacet
 facet normal 0 0 1
  outer loop
   vertex 0 0.175 0.5
   vertex -0.0991692 0.0989048 0.5
   vertex -0.0957556 0.0946515 0.5
  endloop
 endfacet
 facet normal -0 0 1
  outer loop
   vertex -0.113288 0.122173 0.5
   vertex -0.110876 0.117281 0.5
   vertex 0 0.175 0.5
  endloop
 endfacet
 facet normal -0 0 1
  outer loop
   vertex -0.110876 0.117281 0.5
   vertex -0.108253 0.1125 0.5
   vertex 0 0.175 0.5
  endloop
 endfacet
 facet normal 0 0 1
  outer loop
   vertex 0 0.175 0.5
   vertex -0.108253 0.1125 0.5
   vertex -0.105424 0.107838 0.5
  endloop
 endfacet
 facet normal -0 0 1
  outer loop
   vertex -0.119215 0.137412 0.5
   vertex -0.117462 0.132247 0.5
   vertex 0 0.175 0.5
  endloop
 endfacet
 facet normal -0 0 1
  outer loop
   vertex -0.117462 0.132247 0.5
   vertex -0.115485 0.127165 0.5
   vertex 0 0.175 0.5
  endloop
 endfacet
 facet normal 0 0 1
  outer loop
   vertex 0 0.175 0.5
   vertex -0.115485 0.127165 0.5
   vertex -0.113288 0.122173 0.5
  endloop
 endfacet
 facet normal -0 0 1
  outer loop
   vertex -0.123101 0.153294 0.5
   vertex -0.122037 0.147945 0.5
   vertex 0 0.175 0.5
  endloop
 endfacet
 facet normal -0 0 1
  outer loop
   vertex -0.122037 0.147945 0.5
   vertex -0.120741 0.142648 0.5
   vertex 0 0.175 0.5
  endloop
 endfacet
 facet normal 0 0 1
  outer loop
   vertex 0 0.175 0.5
   vertex -0.120741 0.142648 0.5
   vertex -0.119215 0.137412 0.5
  endloop
 endfacet
 facet normal -0 0 1
  outer loop
   vertex -0.124881 0.169548 0.5
   vertex -0.124524 0.164106 0.5
   vertex 0 0.175 0.5
  endloop
 endfacet
 facet normal -0 0 1
  outer loop
   vertex -0.124524 0.164106 0.5
   vertex -0.123931 0.158684 0.5
   vertex 0 0.175 0.5
  endloop
 endfacet
 facet normal 0 0 1
  outer loop
   vertex 0 0.175 0.5
   vertex -0.123931 0.158684 0.5
   vertex -0.123101 0.153294 0.5
  endloop
 endfacet
 facet normal 0 0 1
  outer loop
   vertex -0.124524 0.185894 0.5
   vertex -0.124881 0.180452 0.5
   vertex 0 0.175 0.5
  endloop
 endfacet
 facet normal 0 0 1
  outer loop
   vertex -0.124881 0.180452 0.5
   vertex -0.125 0.175 0.5
   vertex 0 0.175 0.5
  endloop
 endfacet
 facet normal 0 0 1
  outer loop
   vertex 0 0.175 0.5
   vertex -0.125 0.175 0.5
   vertex -0.124881 0.169548 0.5
  endloop
 endfacet
 facet normal 0 0 1
  outer loop
   vertex -0.122037 0.202055 0.5
   vertex -0.123101 0.196706 0.5
   vertex 0 0.175 0.5
  endloop
 endfacet
 facet normal 0 0 1
  outer loop
   vertex -0.123101 0.196706 0.5
   vertex -0.123931 0.191316 0.5
   vertex 0 0.175 0.5
  endloop
 endfacet
 facet normal 0 0 1
  outer loop
   vertex 0 0.175 0.5
   vertex -0.123931 0.191316 0.5
   vertex -0.124524 0.185894 0.5
  endloop
 endfacet
 facet normal 0 0 1
  outer loop
   vertex -0.117462 0.217753 0.5
   vertex -0.119215 0.212588 0.5
   vertex 0 0.175 0.5
  endloop
 endfacet
 facet normal 0 0 1
  outer loop
   vertex -0.119215 0.212588 0.5
   vertex -0.120741 0.207352 0.5
   vertex 0 0.175 0.5
  endloop
 endfacet
 facet normal 0 0 1
  outer loop
   vertex 0 0.175 0.5
   vertex -0.120741 0.207352 0.5
   vertex -0.122037 0.202055 0.5
  endloop
 endfacet
 facet normal 0 0 1
  outer loop
   vertex -0.110876 0.232719 0.5
   vertex -0.113288 0.227827 0.5
   vertex 0 0.175 0.5
  endloop
 endfacet
 facet normal 0 0 1
  outer loop
   vertex -0.113288 0.227827 0.5
   vertex -0.115485 0.222835 0.5
   vertex 0 0.175 0.5
  endloop
 endfacet
 facet normal 0 0 1
  outer loop
   vertex 0 0.175 0.5
   vertex -0.115485 0.222835 0.5
   vertex -0.117462 0.217753 0.5
  endloop
 endfacet
 facet normal 0 0 1
  outer loop
   vertex -0.102394 0.246697 0.5
   vertex -0.105424 0.242162 0.5
   vertex 0 0.175 0.5
  endloop
 endfacet
 facet normal 0 0 1
  outer loop
   vertex -0.105424 0.242162 0.5
   vertex -0.108253 0.2375 0.5
   vertex 0 0.175 0.5
  endloop
 endfacet
 facet normal 0 0 1
  outer loop
   vertex 0 0.175 0.5
   vertex -0.108253 0.2375 0.5
   vertex -0.110876 0.232719 0.5
  endloop
 endfacet
 facet normal 0 0 1
  outer loop
   vertex -0.0921597 0.259449 0.5
   vertex -0.0957556 0.255348 0.5
   vertex 0 0.175 0.5
  endloop
 endfacet
 facet normal 0 0 1
  outer loop
   vertex -0.0957556 0.255348 0.5
   vertex -0.0991692 0.251095 0.5
   vertex 0 0.175 0.5
  endloop
 endfacet
 facet normal 0 0 1
  outer loop
   vertex 0 0.175 0.5
   vertex -0.0991692 0.251095 0.5
   vertex -0.102394 0.246697 0.5
  endloop
 endfacet
 facet normal 0 0 1
  outer loop
   vertex -0.0803485 0.270756 0.5
   vertex -0.0844488 0.26716 0.5
   vertex 0 0.175 0.5
  endloop
 endfacet
 facet normal 0 0 1
  outer loop
   vertex -0.0844488 0.26716 0.5
   vertex -0.0883883 0.263388 0.5
   vertex 0 0.175 0.5
  endloop
 endfacet
 facet normal 0 0 1
  outer loop
   vertex 0 0.175 0.5
   vertex -0.0883883 0.263388 0.5
   vertex -0.0921597 0.259449 0.5
  endloop
 endfacet
 facet normal 0 0 1
  outer loop
   vertex -0.0671625 0.280424 0.5
   vertex -0.0716971 0.277394 0.5
   vertex 0 0.175 0.5
  endloop
 endfacet
 facet normal 0 0 1
  outer loop
   vertex -0.0716971 0.277394 0.5
   vertex -0.0760952 0.274169 0.5
   vertex 0 0.175 0.5
  endloop
 endfacet
 facet normal 0 0 1
  outer loop
   vertex 0 0.175 0.5
   vertex -0.0760952 0.274169 0.5
   vertex -0.0803485 0.270756 0.5
  endloop
 endfacet
 facet normal 0 0 1
  outer loop
   vertex -0.0528273 0.288288 0.5
   vertex -0.0577186 0.285876 0.5
   vertex 0 0.175 0.5
  endloop
 endfacet
 facet normal 0 0 1
  outer loop
   vertex -0.0577186 0.285876 0.5
   vertex -0.0625 0.283253 0.5
   vertex 0 0.175 0.5
  endloop
 endfacet
 facet normal 0 0 1
  outer loop
   vertex 0 0.175 0.5
   vertex -0.0625 0.283253 0.5
   vertex -0.0671625 0.280424 0.5
  endloop
 endfacet
 facet normal 0 0 1
  outer loop
   vertex -0.0375882 0.294215 0.5
   vertex -0.0427525 0.292462 0.5
   vertex 0 0.175 0.5
  endloop
 endfacet
 facet normal 0 0 1
  outer loop
   vertex -0.0427525 0.292462 0.5
   vertex -0.0478354 0.290485 0.5
   vertex 0 0.175 0.5
  endloop
 endfacet
 facet normal 0 0 1
  outer loop
   vertex 0 0.175 0.5
   vertex -0.0478354 0.290485 0.5
   vertex -0.0528273 0.288288 0.5
  endloop
 endfacet
 facet normal 0 0 1
  outer loop
   vertex -0.021706 0.298101 0.5
   vertex -0.027055 0.297037 0.5
   vertex 0 0.175 0.5
  endloop
 endfacet
 facet normal 0 0 1
  outer loop
   vertex -0.027055 0.297037 0.5
   vertex -0.0323524 0.295741 0.5
   vertex 0 0.175 0.5
  endloop
 endfacet
 facet normal 0 0 1
  outer loop
   vertex 0 0.175 0.5
   vertex -0.0323524 0.295741 0.5
   vertex -0.0375882 0.294215 0.5
  endloop
 endfacet
 facet normal 0 0 1
  outer loop
   vertex -0.00545242 0.299881 0.5
   vertex -0.0108945 0.299524 0.5
   vertex 0 0.175 0.5
  endloop
 endfacet
 facet normal 0 0 1
  outer loop
   vertex -0.0108945 0.299524 0.5
   vertex -0.0163158 0.298931 0.5
   vertex 0 0.175 0.5
  endloop
 endfacet
 facet normal 0 0 1
  outer loop
   vertex 0 0.175 0.5
   vertex -0.0163158 0.298931 0.5
   vertex -0.021706 0.298101 0.5
  endloop
 endfacet
 facet normal 0 0 1
  outer loop
   vertex 0.0108945 0.299524 0.5
   vertex 0.00545242 0.299881 0.5
   vertex 0 0.175 0.5
  endloop
 endfacet
 facet normal 0 0 1
  outer loop
   vertex 0.00545242 0.299881 0.5
   vertex -7.65404e-18 0.3 0.5
   vertex 0 0.175 0.5
  endloop
 endfacet
 facet normal 0 0 1
  outer loop
   vertex 0 0.175 0.5
   vertex -7.65404e-18 0.3 0.5
   vertex -0.00545242 0.299881 0.5
  endloop
 endfacet
 facet normal 0 0 1
  outer loop
   vertex 0.027055 0.297037 0.5
   vertex 0.021706 0.298101 0.5
   vertex 0 0.175 0.5
  endloop
 endfacet
 facet normal 0 0 1
  outer loop
   vertex 0.021706 0.298101 0.5
   vertex 0.0163158 0.298931 0.5
   vertex 0 0.175 0.5
  endloop
 endfacet
 facet normal 0 0 1
  outer loop
   vertex 0 0.175 0.5
   vertex 0.0163158 0.298931 0.5
   vertex 0.0108945 0.299524 0.5
  endloop
 endfacet
 facet normal 0 0 1
  outer loop
   vertex 0.0427525 0.292462 0.5
   vertex 0.0375882 0.294215 0.5
   vertex 0 0.175 0.5
  endloop
 endfacet
 facet normal 0 0 1
  outer loop
   vertex 0.0375882 0.294215 0.5
   vertex 0.0323524 0.295741 0.5
   vertex 0 0.175 0.5
  endloop
 endfacet
 facet normal 0 0 1
  outer loop
   vertex 0 0.175 0.5
   vertex 0.0323524 0.295741 0.5
   vertex 0.027055 0.297037 0.5
  endloop
 endfacet
 facet normal 0 0 1
  outer loop
   vertex 0.0577186 0.285876 0.5
   vertex 0.0528273 0.288288 0.5
   vertex 0 0.175 0.5
  endloop
 endfacet
 facet normal 0 0 1
  outer loop
   vertex 0.0528273 0.288288 0.5
   vertex 0.0478354 0.290485 0.5
   vertex 0 0.175 0.5
  endloop
 endfacet
 facet normal 0 0 1
  outer loop
   vertex 0 0.175 0.5
   vertex 0.0478354 0.290485 0.5
   vertex 0.0427525 0.292462 0.5
  endloop
 endfacet
 facet normal 0 0 1
  outer loop
   vertex 0.0716971 0.277394 0.5
   vertex 0.0671625 0.280424 0.5
   vertex 0 0.175 0.5
  endloop
 endfacet
 facet normal 0 0 1
  outer loop
   vertex 0.0671625 0.280424 0.5
   vertex 0.0625 0.283253 0.5
   vertex 0 0.175 0.5
  endloop
 endfacet
 facet normal 0 0 1
  outer loop
   vertex 0 0.175 0.5
   vertex 0.0625 0.283253 0.5
   vertex 0.0577186 0.285876 0.5
  endloop
 endfacet
 facet normal 0 0 1
  outer loop
   vertex 0.0844488 0.26716 0.5
   vertex 0.0803485 0.270756 0.5
   vertex 0 0.175 0.5
  endloop
 endfacet
 facet normal 0 0 1
  outer loop
   vertex 0.0803485 0.270756 0.5
   vertex 0.0760952 0.274169 0.5
   vertex 0 0.175 0.5
  endloop
 endfacet
 facet normal 0 0 1
  outer loop
   vertex 0 0.175 0.5
   vertex 0.0760952 0.274169 0.5
   vertex 0.0716971 0.277394 0.5
  endloop
 endfacet
 facet normal 0 0 1
  outer loop
   vertex 0.0957556 0.255348 0.5
   vertex 0.0921597 0.259449 0.5
   vertex 0 0.175 0.5
  endloop
 endfacet
 facet normal 0 0 1
  outer loop
   vertex 0.0921597 0.259449 0.5
   vertex 0.0883883 0.263388 0.5
   vertex 0 0.175 0.5
  endloop
 endfacet
 facet normal 0 0 1
  outer loop
   vertex 0 0.175 0.5
   vertex 0.0883883 0.263388 0.5
   vertex 0.0844488 0.26716 0.5
  endloop
 endfacet
 facet normal 0 0 1
  outer loop
   vertex 0.105424 0.242162 0.5
   vertex 0.102394 0.246697 0.5
   vertex 0 0.175 0.5
  endloop
 endfacet
 facet normal 0 0 1
  outer loop
   vertex 0.102394 0.246697 0.5
   vertex 0.0991692 0.251095 0.5
   vertex 0 0.175 0.5
  endloop
 endfacet
 facet normal 0 0 1
  outer loop
   vertex 0 0.175 0.5
   vertex 0.0991692 0.251095 0.5
   vertex 0.0957556 0.255348 0.5
  endloop
 endfacet
 facet normal 0 0 1
  outer loop
   vertex 0.113288 0.227827 0.5
   vertex 0.110876 0.232719 0.5
   vertex 0 0.175 0.5
  endloop
 endfacet
 facet normal 0 0 1
  outer loop
   vertex 0.110876 0.232719 0.5
   vertex 0.108253 0.2375 0.5
   vertex 0 0.175 0.5
  endloop
 endfacet
 facet normal 0 0 1
  outer loop
   vertex 0 0.175 0.5
   vertex 0.108253 0.2375 0.5
   vertex 0.105424 0.242162 0.5
  endloop
 endfacet
 facet normal 0 0 1
  outer loop
   vertex 0.119215 0.212588 0.5
   vertex 0.117462 0.217753 0.5
   vertex 0 0.175 0.5
  endloop
 endfacet
 facet normal 0 0 1
  outer loop
   vertex 0.117462 0.217753 0.5
   vertex 0.115485 0.222835 0.5
   vertex 0 0.175 0.5
  endloop
 endfacet
 facet normal 0 0 1
  outer loop
   vertex 0 0.175 0.5
   vertex 0.115485 0.222835 0.5
   vertex 0.113288 0.227827 0.5
  endloop
 endfacet
 facet normal 0 0 1
  outer loop
   vertex 0.123101 0.196706 0.5
   vertex 0.122037 0.202055 0.5
   vertex 0 0.175 0.5
  endloop
 endfacet
 facet normal 0 0 1
  outer loop
   vertex 0.122037 0.202055 0.5
   vertex 0.120741 0.207352 0.5
   vertex 0 0.175 0.5
  endloop
 endfacet
 facet normal 0 0 1
  outer loop
   vertex 0 0.175 0.5
   vertex 0.120741 0.207352 0.5
   vertex 0.119215 0.212588 0.5
  endloop
 endfacet
 facet normal 0 0 1
  outer loop
   vertex 0.124881 0.180452 0.5
   vertex 0.124524 0.185894 0.5
   vertex 0 0.175 0.5
  endloop
 endfacet
 facet normal 0 0 1
  outer loop
   vertex 0.124524 0.185894 0.5
   vertex 0.123931 0.191316 0.5
   vertex 0 0.175 0.5
  endloop
 endfacet
 facet normal 0 0 1
  outer loop
   vertex 0 0.175 0.5
   vertex 0.123931 0.191316 0.5
   vertex 0.123101 0.196706 0.5
  endloop
 endfacet
endsolid zone0
