solid zone0
 facet normal 0 -0 -1
  outer loop
   vertex 0.124524 0.173221 0
   vertex 0.124881 0.167779 0
   vertex 0 0.162327 0
  endloop
 endfacet
 facet normal 0 -0 -1
  outer loop
   vertex 0.124881 0.167779 0
   vertex 0.125 0.162327 0
   vertex 0 0.162327 0
  endloop
 endfacet
 facet normal 0 0 -1
  outer loop
   vertex 0 0.162327 0
   vertex 0.125 0.162327 0
   vertex 0.124881 0.156875 0
  endloop
 endfacet
 facet normal 0 -0 -1
  outer loop
   vertex 0.122037 0.189382 0
   vertex 0.123101 0.184033 0
   vertex 0 0.162327 0
  endloop
 endfacet
 facet normal 0 -0 -1
  outer loop
   vertex 0.123101 0.184033 0
   vertex 0.123931 0.178643 0
   vertex 0 0.162327 0
  endloop
 endfacet
 facet normal 0 0 -1
  outer loop
   vertex 0 0.162327 0
   vertex 0.123931 0.178643 0
   vertex 0.124524 0.173221 0
  endloop
 endfacet
 facet normal 0 -0 -1
  outer loop
   vertex 0.117462 0.20508 0
   vertex 0.119215 0.199915 0
   vertex 0 0.162327 0
  endloop
 endfacet
 facet normal 0 -0 -1
  outer loop
   vertex 0.119215 0.199915 0
   vertex 0.120741 0.194679 0
   vertex 0 0.162327 0
  endloop
 endfacet
 facet normal 0 0 -1
  outer loop
   vertex 0 0.162327 0
   vertex 0.120741 0.194679 0
   vertex 0.122037 0.189382 0
  endloop
 endfacet
 facet normal 0 -0 -1
  outer loop
   vertex 0.110876 0.220046 0
   vertex 0.113288 0.215154 0
   vertex 0 0.162327 0
  endloop
 endfacet
 facet normal 0 -0 -1
  outer loop
   vertex 0.113288 0.215154 0
   vertex 0.115485 0.210162 0
   vertex 0 0.162327 0
  endloop
 endfacet
 facet normal 0 0 -1
  outer loop
   vertex 0 0.162327 0
   vertex 0.115485 0.210162 0
   vertex 0.117462 0.20508 0
  endloop
 endfacet
 facet normal 0 -0 -1
  outer loop
   vertex 0.102394 0.234024 0
   vertex 0.105424 0.229489 0
   vertex 0 0.162327 0
  endloop
 endfacet
 facet normal 0 -0 -1
  outer loop
   vertex 0.105424 0.229489 0
   vertex 0.108253 0.224827 0
   vertex 0 0.162327 0
  endloop
 endfacet
 facet normal 0 0 -1
  outer loop
   vertex 0 0.162327 0
   vertex 0.108253 0.224827 0
   vertex 0.110876 0.220046 0
  endloop
 endfacet
 facet normal 0 -0 -1
  outer loop
   vertex 0.0921597 0.246776 0
   vertex 0.0957556 0.242675 0
   vertex 0 0.162327 0
  endloop
 endfacet
 facet normal 0 -0 -1
  outer loop
   vertex 0.0957556 0.242675 0
   vertex 0.0991692 0.238422 0
   vertex 0 0.162327 0
  endloop
 endfacet
 facet normal 0 0 -1
  outer loop
   vertex 0 0.162327 0
   vertex 0.0991692 0.238422 0
   vertex 0.102394 0.234024 0
  endloop
 endfacet
 facet normal 0 -0 -1
  outer loop
   vertex 0.0803485 0.258083 0
   vertex 0.0844488 0.254487 0
   vertex 0 0.162327 0
  endloop
 endfacet
 facet normal 0 -0 -1
  outer loop
   vertex 0.0844488 0.254487 0
   vertex 0.0883883 0.250715 0
   vertex 0 0.162327 0
  endloop
 endfacet
 facet normal 0 0 -1
  outer loop
   vertex 0 0.162327 0
   vertex 0.0883883 0.250715 0
   vertex 0.0921597 0.246776 0
  endloop
 endfacet
 facet normal 0 -0 -1
  outer loop
   vertex 0.0671625 0.267751 0
   vertex 0.0716971 0.264721 0
   vertex 0 0.162327 0
  endloop
 endfacet
 facet normal 0 -0 -1
  outer loop
   vertex 0.0716971 0.264721 0
   vertex 0.0760952 0.261496 0
   vertex 0 0.162327 0
  endloop
 endfacet
 facet normal 0 0 -1
  outer loop
   vertex 0 0.162327 0
   vertex 0.0760952 0.261496 0
   vertex 0.0803485 0.258083 0
  endloop
 endfacet
 facet normal 0 -0 -1
  outer loop
   vertex 0.0528273 0.275615 0
   vertex 0.0577186 0.273203 0
   vertex 0 0.162327 0
  endloop
 endfacet
 facet normal 0 -0 -1
  outer loop
   vertex 0.0577186 0.273203 0
   vertex 0.0625 0.27058 0
   vertex 0 0.162327 0
  endloop
 endfacet
 facet normal 0 0 -1
  outer loop
   vertex 0 0.162327 0
   vertex 0.0625 0.27058 0
   vertex 0.0671625 0.267751 0
  endloop
 endfacet
 facet normal 0 -0 -1
  outer loop
   vertex 0.0375882 0.281542 0
   vertex 0.0427525 0.279789 0
   vertex 0 0.162327 0
  endloop
 endfacet
 facet normal 0 -0 -1
  outer loop
   vertex 0.0427525 0.279789 0
   vertex 0.0478354 0.277812 0
   vertex 0 0.162327 0
  endloop
 endfacet
 facet normal 0 0 -1
  outer loop
   vertex 0 0.162327 0
   vertex 0.0478354 0.277812 0
   vertex 0.0528273 0.275615 0
  endloop
 endfacet
 facet normal 0 -0 -1
  outer loop
   vertex 0.021706 0.285428 0
   vertex 0.027055 0.284364 0
   vertex 0 0.162327 0
  endloop
 endfacet
 facet normal 0 -0 -1
  outer loop
   vertex 0.027055 0.284364 0
   vertex 0.0323524 0.283068 0
   vertex 0 0.162327 0
  endloop
 endfacet
 facet normal 0 0 -1
  outer loop
   vertex 0 0.162327 0
   vertex 0.0323524 0.283068 0
   vertex 0.0375882 0.281542 0
  endloop
 endfacet
 facet normal 0 -0 -1
  outer loop
   vertex 0.00545242 0.287208 0
   vertex 0.0108945 0.286851 0
   vertex 0 0.162327 0
  endloop
 endfacet
 facet normal 0 -0 -1
  outer loop
   vertex 0.0108945 0.286851 0
   vertex 0.0163158 0.286258 0
   vertex 0 0.162327 0
  endloop
 endfacet
 facet normal 0 0 -1
  outer loop
   vertex 0 0.162327 0
   vertex 0.0163158 0.286258 0
   vertex 0.021706 0.285428 0
  endloop
 endfacet
 facet normal 0 0 -1
  outer loop
   vertex -0.0108945 0.286851 0
   vertex -0.00545242 0.287208 0
   vertex 0 0.162327 0
  endloop
 endfacet
 facet normal 0 0 -1
  outer loop
   vertex -0.00545242 0.287208 0
   vertex -7.65404e-18 0.287327 0
   vertex 0 0.162327 0
  endloop
 endfacet
 facet normal 0 0 -1
  outer loop
   vertex 0 0.162327 0
   vertex -7.65404e-18 0.287327 0
   vertex 0.00545242 0.287208 0
  endloop
 endfacet
 facet normal 0 0 -1
  outer loop
   vertex -0.027055 0.284364 0
   vertex -0.021706 0.285428 0
   vertex 0 0.162327 0
  endloop
 endfacet
 facet normal 0 0 -1
  outer loop
   vertex -0.021706 0.285428 0
   vertex -0.0163158 0.286258 0
   vertex 0 0.162327 0
  endloop
 endfacet
 facet normal 0 0 -1
  outer loop
   vertex 0 0.162327 0
   vertex -0.0163158 0.286258 0
   vertex -0.0108945 0.286851 0
  endloop
 endfacet
 facet normal 0 0 -1
  outer loop
   vertex -0.0427525 0.279789 0
   vertex -0.0375882 0.281542 0
   vertex 0 0.162327 0
  endloop
 endfacet
 facet normal 0 0 -1
  outer loop
   vertex -0.0375882 0.281542 0
   vertex -0.0323524 0.283068 0
   vertex 0 0.162327 0
  endloop
 endfacet
 facet normal 0 0 -1
  outer loop
   vertex 0 0.162327 0
   vertex -0.0323524 0.283068 0
   vertex -0.027055 0.284364 0
  endloop
 endfacet
 facet normal 0 0 -1
  outer loop
   vertex -0.0577186 0.273203 0
   vertex -0.0528273 0.275615 0
   vertex 0 0.162327 0
  endloop
 endfacet
 facet normal 0 0 -1
  outer loop
   vertex -0.0528273 0.275615 0
   vertex -0.0478354 0.277812 0
   vertex 0 0.162327 0
  endloop
 endfacet
 facet normal 0 0 -1
  outer loop
   vertex 0 0.162327 0
   vertex -0.0478354 0.277812 0
   vertex -0.0427525 0.279789 0
  endloop
 endfacet
 facet normal 0 0 -1
  outer loop
   vertex -0.0716971 0.264721 0
   vertex -0.0671625 0.267751 0
   vertex 0 0.162327 0
  endloop
 endfacet
 facet normal 0 0 -1
  outer loop
   vertex -0.0671625 0.267751 0
   vertex -0.0625 0.27058 0
   vertex 0 0.162327 0
  endloop
 endfacet
 facet normal 0 0 -1
  outer loop
   vertex 0 0.162327 0
   vertex -0.0625 0.27058 0
   vertex -0.0577186 0.273203 0
  endloop
 endfacet
 facet normal 0 0 -1
  outer loop
   vertex -0.0844488 0.254487 0
   vertex -0.0803485 0.258083 0
   vertex 0 0.162327 0
  endloop
 endfacet
 facet normal 0 0 -1
  outer loop
   vertex -0.0803485 0.258083 0
   vertex -0.0760952 0.261496 0
   vertex 0 0.162327 0
  endloop
 endfacet
 facet normal 0 0 -1
  outer loop
   vertex 0 0.162327 0
   vertex -0.0760952 0.261496 0
   vertex -0.0716971 0.264721 0
  endloop
 endfacet
 facet normal 0 0 -1
  outer loop
   vertex -0.0957556 0.242675 0
   vertex -0.0921597 0.246776 0
   vertex 0 0.162327 0
  endloop
 endfacet
 facet normal 0 0 -1
  outer loop
   vertex -0.0921597 0.246776 0
   vertex -0.0883883 0.250715 0
   vertex 0 0.162327 0
  endloop
 endfacet
 facet normal 0 0 -1
  outer loop
   vertex 0 0.162327 0
   vertex -0.0883883 0.250715 0
   vertex -0.0844488 0.254487 0
  endloop
 endfacet
 facet normal 0 0 -1
  outer loop
   vertex -0.105424 0.229489 0
   vertex -0.102394 0.234024 0
   vertex 0 0.162327 0
  endloop
 endfacet
 facet normal 0 0 -1
  outer loop
   vertex -0.102394 0.234024 0
   vertex -0.0991692 0.238422 0
   vertex 0 0.162327 0
  endloop
 endfacet
 facet normal 0 0 -1
  outer loop
   vertex 0 0.162327 0
   vertex -0.0991692 0.238422 0
   vertex -0.0957556 0.242675 0
  endloop
 endfacet
 facet normal 0 0 -1
  outer loop
   vertex -0.113288 0.215154 0
   vertex -0.110876 0.220046 0
   vertex 0 0.162327 0
  endloop
 endfacet
 facet normal 0 0 -1
  outer loop
   vertex -0.110876 0.220046 0
   vertex -0.108253 0.224827 0
   vertex 0 0.162327 0
  endloop
 endfacet
 facet normal 0 0 -1
  outer loop
   vertex 0 0.162327 0
   vertex -0.108253 0.224827 0
   vertex -0.105424 0.229489 0
  endloop
 endfacet
 facet normal 0 0 -1
  outer loop
   vertex -0.119215 0.199915 0
   vertex -0.117462 0.20508 0
   vertex 0 0.162327 0
  endloop
 endfacet
 facet normal 0 0 -1
  outer loop
   vertex -0.117462 0.20508 0
   vertex -0.115485 0.210162 0
   vertex 0 0.162327 0
  endloop
 endfacet
 facet normal 0 0 -1
  outer loop
   vertex 0 0.162327 0
   vertex -0.115485 0.210162 0
   vertex -0.113288 0.215154 0
  endloop
 endfacet
 facet normal 0 0 -1
  outer loop
   vertex -0.123101 0.184033 0
   vertex -0.122037 0.189382 0
   vertex 0 0.162327 0
  endloop
 endfacet
 facet normal 0 0 -1
  outer loop
   vertex -0.122037 0.189382 0
   vertex -0.120741 0.194679 0
   vertex 0 0.162327 0
  endloop
 endfacet
 facet normal 0 0 -1
  outer loop
   vertex 0 0.162327 0
   vertex -0.120741 0.194679 0
   vertex -0.119215 0.199915 0
  endloop
 endfacet
 facet normal 0 0 -1
  outer loop
   vertex -0.124881 0.167779 0
   vertex -0.124524 0.173221 0
   vertex 0 0.162327 0
  endloop
 endfacet
 facet normal 0 0 -1
  outer loop
   vertex -0.124524 0.173221 0
   vertex -0.123931 0.178643 0
   vertex 0 0.162327 0
  endloop
 endfacet
 facet normal 0 0 -1
  outer loop
   vertex 0 0.162327 0
   vertex -0.123931 0.178643 0
   vertex -0.123101 0.184033 0
  endloop
 endfacet
 facet normal 0 0 -1
  outer loop
   vertex -0.124524 0.151433 0
   vertex -0.124881 0.156875 0
   vertex 0 0.162327 0
  endloop
 endfacet
 facet normal 0 0 -1
  outer loop
   vertex -0.124881 0.156875 0
   vertex -0.125 0.162327 0
   vertex 0 0.162327 0
  endloop
 endfacet
 facet normal 0 0 -1
  outer loop
   vertex 0 0.162327 0
   vertex -0.125 0.162327 0
   vertex -0.124881 0.167779 0
  endloop
 endfacet
 facet normal 0 0 -1
  outer loop
   vertex -0.122037 0.135272 0
   vertex -0.123101 0.140621 0
   vertex 0 0.162327 0
  endloop
 endfacet
 facet normal 0 0 -1
  outer loop
   vertex -0.123101 0.140621 0
   vertex -0.123931 0.146011 0
   vertex 0 0.162327 0
  endloop
 endfacet
 facet normal 0 0 -1
  outer loop
   vertex 0 0.162327 0
   vertex -0.123931 0.146011 0
   vertex -0.124524 0.151433 0
  endloop
 endfacet
 facet normal 0 0 -1
  outer loop
   vertex -0.117462 0.119574 0
   vertex -0.119215 0.124739 0
   vertex 0 0.162327 0
  endloop
 endfacet
 facet normal 0 0 -1
  outer loop
   vertex -0.119215 0.124739 0
   vertex -0.120741 0.129975 0
   vertex 0 0.162327 0
  endloop
 endfacet
 facet normal 0 0 -1
  outer loop
   vertex 0 0.162327 0
   vertex -0.120741 0.129975 0
   vertex -0.122037 0.135272 0
  endloop
 endfacet
 facet normal 0 0 -1
  outer loop
   vertex -0.110876 0.104608 0
   vertex -0.113288 0.1095 0
   vertex 0 0.162327 0
  endloop
 endfacet
 facet normal 0 0 -1
  outer loop
   vertex -0.113288 0.1095 0
   vertex -0.115485 0.114492 0
   vertex 0 0.162327 0
  endloop
 endfacet
 facet normal 0 0 -1
  outer loop
   vertex 0 0.162327 0
   vertex -0.115485 0.114492 0
   vertex -0.117462 0.119574 0
  endloop
 endfacet
 facet normal 0 0 -1
  outer loop
   vertex -0.102394 0.0906299 0
   vertex -0.105424 0.0951645 0
   vertex 0 0.162327 0
  endloop
 endfacet
 facet normal 0 0 -1
  outer loop
   vertex -0.105424 0.0951645 0
   vertex -0.108253 0.099827 0
   vertex 0 0.162327 0
  endloop
 endfacet
 facet normal 0 0 -1
  outer loop
   vertex 0 0.162327 0
   vertex -0.108253 0.099827 0
   vertex -0.110876 0.104608 0
  endloop
 endfacet
 facet normal 0 0 -1
  outer loop
   vertex -0.0921597 0.0778782 0
   vertex -0.0957556 0.0819785 0
   vertex 0 0.162327 0
  endloop
 endfacet
 facet normal 0 0 -1
  outer loop
   vertex -0.0957556 0.0819785 0
   vertex -0.0991692 0.0862318 0
   vertex 0 0.162327 0
  endloop
 endfacet
 facet normal 0 0 -1
  outer loop
   vertex 0 0.162327 0
   vertex -0.0991692 0.0862318 0
   vertex -0.102394 0.0906299 0
  endloop
 endfacet
 facet normal 0 0 -1
  outer loop
   vertex -0.0803485 0.0665714 0
   vertex -0.0844488 0.0701673 0
   vertex 0 0.162327 0
  endloop
 endfacet
 facet normal 0 0 -1
  outer loop
   vertex -0.0844488 0.0701673 0
   vertex -0.0883883 0.0739386 0
   vertex 0 0.162327 0
  endloop
 endfacet
 facet normal 0 0 -1
  outer loop
   vertex 0 0.162327 0
   vertex -0.0883883 0.0739386 0
   vertex -0.0921597 0.0778782 0
  endloop
 endfacet
 facet normal 0 0 -1
  outer loop
   vertex -0.0671625 0.0569031 0
   vertex -0.0716971 0.059933 0
   vertex 0 0.162327 0
  endloop
 endfacet
 facet normal 0 0 -1
  outer loop
   vertex -0.0716971 0.059933 0
   vertex -0.0760952 0.0631578 0
   vertex 0 0.162327 0
  endloop
 endfacet
 facet normal 0 0 -1
  outer loop
   vertex 0 0.162327 0
   vertex -0.0760952 0.0631578 0
   vertex -0.0803485 0.0665714 0
  endloop
 endfacet
 facet normal 0 0 -1
  outer loop
   vertex -0.0528273 0.0490385 0
   vertex -0.0577186 0.0514506 0
   vertex 0 0.162327 0
  endloop
 endfacet
 facet normal 0 0 -1
  outer loop
   vertex -0.0577186 0.0514506 0
   vertex -0.0625 0.0540738 0
   vertex 0 0.162327 0
  endloop
 endfacet
 facet normal 0 0 -1
  outer loop
   vertex 0 0.162327 0
   vertex -0.0625 0.0540738 0
   vertex -0.0671625 0.0569031 0
  endloop
 endfacet
 facet normal 0 0 -1
  outer loop
   vertex -0.0375882 0.0431124 0
   vertex -0.0427525 0.0448654 0
   vertex 0 0.162327 0
  endloop
 endfacet
 facet normal 0 0 -1
  outer loop
   vertex -0.0427525 0.0448654 0
   vertex -0.0478354 0.046842 0
   vertex 0 0.162327 0
  endloop
 endfacet
 facet normal 0 0 -1
  outer loop
   vertex 0 0.162327 0
   vertex -0.0478354 0.046842 0
   vertex -0.0528273 0.0490385 0
  endloop
 endfacet
 facet normal 0 0 -1
  outer loop
   vertex -0.021706 0.039226 0
   vertex -0.027055 0.04029 0
   vertex 0 0.162327 0
  endloop
 endfacet
 facet normal 0 0 -1
  outer loop
   vertex -0.027055 0.04029 0
   vertex -0.0323524 0.0415863 0
   vertex 0 0.162327 0
  endloop
 endfacet
 facet normal 0 0 -1
  outer loop
   vertex 0 0.162327 0
   vertex -0.0323524 0.0415863 0
   vertex -0.0375882 0.0431124 0
  endloop
 endfacet
 facet normal 0 0 -1
  outer loop
   vertex -0.00545242 0.037446 0
   vertex -0.0108945 0.0378026 0
   vertex 0 0.162327 0
  endloop
 endfacet
 facet normal 0 0 -1
  outer loop
   vertex -0.0108945 0.0378026 0
   vertex -0.0163158 0.0383964 0
   vertex 0 0.162327 0
  endloop
 endfacet
 facet normal 0 0 -1
  outer loop
   vertex 0 0.162327 0
   vertex -0.0163158 0.0383964 0
   vertex -0.021706 0.039226 0
  endloop
 endfacet
 facet normal -0 0 -1
  outer loop
   vertex 0.0108945 0.0378026 0
   vertex 0.00545242 0.037446 0
   vertex 0 0.162327 0
  endloop
 endfacet
 facet normal -0 0 -1
  outer loop
   vertex 0.00545242 0.037446 0
   vertex 2.29621e-17 0.037327 0
   vertex 0 0.162327 0
  endloop
 endfacet
 facet normal 0 -0 -1
  outer loop
   vertex 0 0.162327 0
   vertex 2.29621e-17 0.037327 0
   vertex -0.00545242 0.037446 0
  endloop
 endfacet
 facet normal -0 0 -1
  outer loop
   vertex 0.027055 0.04029 0
   vertex 0.021706 0.039226 0
   vertex 0 0.162327 0
  endloop
 endfacet
 facet normal -0 0 -1
  outer loop
   vertex 0.021706 0.039226 0
   vertex 0.0163158 0.0383964 0
   vertex 0 0.162327 0
  endloop
 endfacet
 facet normal 0 0 -1
  outer loop
   vertex 0 0.162327 0
   vertex 0.0163158 0.0383964 0
   vertex 0.0108945 0.0378026 0
  endloop
 endfacet
 facet normal -0 0 -1
  outer loop
   vertex 0.0427525 0.0448654 0
   vertex 0.0375882 0.0431124 0
   vertex 0 0.162327 0
  endloop
 endfacet
 facet normal -0 0 -1
  outer loop
   vertex 0.0375882 0.0431124 0
   vertex 0.0323524 0.0415863 0
   vertex 0 0.162327 0
  endloop
 endfacet
 facet normal 0 0 -1
  outer loop
   vertex 0 0.162327 0
   vertex 0.0323524 0.0415863 0
   vertex 0.027055 0.04029 0
  endloop
 endfacet
 facet normal -0 0 -1
  outer loop
   vertex 0.0577186 0.0514506 0
   vertex 0.0528273 0.0490385 0
   vertex 0 0.162327 0
  endloop
 endfacet
 facet normal -0 0 -1
  outer loop
   vertex 0.0528273 0.0490385 0
   vertex 0.0478354 0.046842 0
   vertex 0 0.162327 0
  endloop
 endfacet
 facet normal 0 0 -1
  outer loop
   vertex 0 0.162327 0
   vertex 0.0478354 0.046842 0
   vertex 0.0427525 0.0448654 0
  endloop
 endfacet
 facet normal -0 0 -1
  outer loop
   vertex 0.0716971 0.059933 0
   vertex 0.0671625 0.0569031 0
   vertex 0 0.162327 0
  endloop
 endfacet
 facet normal -0 0 -1
  outer loop
   vertex 0.0671625 0.0569031 0
   vertex 0.0625 0.0540738 0
   vertex 0 0.162327 0
  endloop
 endfacet
 facet normal 0 0 -1
  outer loop
   vertex 0 0.162327 0
   vertex 0.0625 0.0540738 0
   vertex 0.0577186 0.0514506 0
  endloop
 endfacet
 facet normal -0 0 -1
  outer loop
   vertex 0.0844488 0.0701673 0
   vertex 0.0803485 0.0665714 0
   vertex 0 0.162327 0
  endloop
 endfacet
 facet normal -0 0 -1
  outer loop
   vertex 0.0803485 0.0665714 0
   vertex 0.0760952 0.0631578 0
   vertex 0 0.162327 0
  endloop
 endfacet
 facet normal 0 0 -1
  outer loop
   vertex 0 0.162327 0
   vertex 0.0760952 0.0631578 0
   vertex 0.0716971 0.059933 0
  endloop
 endfacet
 facet normal -0 0 -1
  outer loop
   vertex 0.0957556 0.0819785 0
   vertex 0.0921597 0.0778782 0
   vertex 0 0.162327 0
  endloop
 endfacet
 facet normal -0 0 -1
  outer loop
   vertex 0.0921597 0.0778782 0
   vertex 0.0883883 0.0739386 0
   vertex 0 0.162327 0
  endloop
 endfacet
 facet normal 0 0 -1
  outer loop
   vertex 0 0.162327 0
   vertex 0.0883883 0.0739386 0
   vertex 0.0844488 0.0701673 0
  endloop
 endfacet
 facet normal -0 0 -1
  outer loop
   vertex 0.105424 0.0951645 0
   vertex 0.102394 0.0906299 0
   vertex 0 0.162327 0
  endloop
 endfacet
 facet normal -0 0 -1
  outer loop
   vertex 0.102394 0.0906299 0
   vertex 0.0991692 0.0862318 0
   vertex 0 0.162327 0
  endloop
 endfacet
 facet normal 0 0 -1
  outer loop
   vertex 0 0.162327 0
   vertex 0.0991692 0.0862318 0
   vertex 0.0957556 0.0819785 0
  endloop
 endfacet
 facet normal -0 0 -1
  outer loop
   vertex 0.113288 0.1095 0
   vertex 0.110876 0.104608 0
   vertex 0 0.162327 0
  endloop
 endfacet
 facet normal -0 0 -1
  outer loop
   vertex 0.110876 0.104608 0
   vertex 0.108253 0.099827 0
   vertex 0 0.162327 0
  endloop
 endfacet
 facet normal 0 0 -1
  outer loop
   vertex 0 0.162327 0
   vertex 0.108253 0.099827 0
   vertex 0.105424 0.0951645 0
  endloop
 endfacet
 facet normal -0 0 -1
  outer loop
   vertex 0.119215 0.124739 0
   vertex 0.117462 0.119574 0
   vertex 0 0.162327 0
  endloop
 endfacet
 facet normal -0 0 -1
  outer loop
   vertex 0.117462 0.119574 0
   vertex 0.115485 0.114492 0
   vertex 0 0.162327 0
  endloop
 endfacet
 facet normal 0 0 -1
  outer loop
   vertex 0 0.162327 0
   vertex 0.115485 0.114492 0
   vertex 0.113288 0.1095 0
  endloop
 endfacet
 facet normal -0 0 -1
  outer loop
   vertex 0.123101 0.140621 0
   vertex 0.122037 0.135272 0
   vertex 0 0.162327 0
  endloop
 endfacet
 facet normal -0 0 -1
  outer loop
   vertex 0.122037 0.135272 0
   vertex 0.120741 0.129975 0
   vertex 0 0.162327 0
  endloop
 endfacet
 facet normal 0 0 -1
  outer loop
   vertex 0 0.162327 0
   vertex 0.120741 0.129975 0
   vertex 0.119215 0.124739 0
  endloop
 endfacet
 facet normal -0 0 -1
  outer loop
   vertex 0.124881 0.156875 0
   vertex 0.124524 0.151433 0
   vertex 0 0.162327 0
  endloop
 endfacet
 facet normal -0 0 -1
  outer loop
   vertex 0.124524 0.151433 0
   vertex 0.123931 0.146011 0
   vertex 0 0.162327 0
  endloop
 endfacet
 facet normal 0 0 -1
  outer loop
   vertex 0 0.162327 0
   vertex 0.123931 0.146011 0
   vertex 0.123101 0.140621 0
  endloop
 endfacet
 facet normal -0.999762 0.0218146 0
  outer loop
   vertex -0.125 0.162327 0
   vertex -0.124881 0.167779 0.5
   vertex -0.124881 0.167779 0
  endloop
 endfacet
 facet normal -0.997859 0.0654029 0
  outer loop
   vertex -0.124881 0.167779 0.5
   vertex -0.124524 0.173221 0.5
   vertex -0.124881 0.167779 0
  endloop
 endfacet
 facet normal -0.997859 0.0654029 0
  outer loop
   vertex -0.124881 0.167779 0
   vertex -0.124524 0.173221 0.5
   vertex -0.124524 0.173221 0
  endloop
 endfacet
 facet normal -0.994056 0.108867 0
  outer loop
   vertex -0.124524 0.173221 0.5
   vertex -0.123931 0.178643 0.5
   vertex -0.124524 0.173221 0
  endloop
 endfacet
 facet normal -0.994056 0.108867 0
  outer loop
   vertex -0.124524 0.173221 0
   vertex -0.123931 0.178643 0.5
   vertex -0.123931 0.178643 0
  endloop
 endfacet
 facet normal -0.988361 0.152124 0
  outer loop
   vertex -0.123931 0.178643 0.5
   vertex -0.123101 0.184033 0.5
   vertex -0.123931 0.178643 0
  endloop
 endfacet
 facet normal -0.988361 0.152124 0
  outer loop
   vertex -0.123931 0.178643 0
   vertex -0.123101 0.184033 0.5
   vertex -0.123101 0.184033 0
  endloop
 endfacet
 facet normal -0.980785 0.19509 0
  outer loop
   vertex -0.123101 0.184033 0.5
   vertex -0.122037 0.189382 0.5
   vertex -0.123101 0.184033 0
  endloop
 endfacet
 facet normal -0.980785 0.19509 0
  outer loop
   vertex -0.123101 0.184033 0
   vertex -0.122037 0.189382 0.5
   vertex -0.122037 0.189382 0
  endloop
 endfacet
 facet normal -0.971342 0.237686 0
  outer loop
   vertex -0.122037 0.189382 0.5
   vertex -0.120741 0.194679 0.5
   vertex -0.122037 0.189382 0
  endloop
 endfacet
 facet normal -0.971342 0.237686 0
  outer loop
   vertex -0.122037 0.189382 0
   vertex -0.120741 0.194679 0.5
   vertex -0.120741 0.194679 0
  endloop
 endfacet
 facet normal -0.96005 0.279829 0
  outer loop
   vertex -0.120741 0.194679 0.5
   vertex -0.119215 0.199915 0.5
   vertex -0.120741 0.194679 0
  endloop
 endfacet
 facet normal -0.96005 0.279829 0
  outer loop
   vertex -0.120741 0.194679 0
   vertex -0.119215 0.199915 0.5
   vertex -0.119215 0.199915 0
  endloop
 endfacet
 facet normal -0.94693 0.321439 0
  outer loop
   vertex -0.119215 0.199915 0.5
   vertex -0.117462 0.20508 0.5
   vertex -0.119215 0.199915 0
  endloop
 endfacet
 facet normal -0.94693 0.321439 0
  outer loop
   vertex -0.119215 0.199915 0
   vertex -0.117462 0.20508 0.5
   vertex -0.117462 0.20508 0
  endloop
 endfacet
 facet normal -0.932008 0.362439 0
  outer loop
   vertex -0.117462 0.20508 0.5
   vertex -0.115485 0.210162 0.5
   vertex -0.117462 0.20508 0
  endloop
 endfacet
 facet normal -0.932008 0.362439 0
  outer loop
   vertex -0.117462 0.20508 0
   vertex -0.115485 0.210162 0.5
   vertex -0.115485 0.210162 0
  endloop
 endfacet
 facet normal -0.915312 0.402745 0
  outer loop
   vertex -0.115485 0.210162 0.5
   vertex -0.113288 0.215154 0.5
   vertex -0.115485 0.210162 0
  endloop
 endfacet
 facet normal -0.915312 0.402745 0
  outer loop
   vertex -0.115485 0.210162 0
   vertex -0.113288 0.215154 0.5
   vertex -0.113288 0.215154 0
  endloop
 endfacet
 facet normal -0.896872 0.44229 0
  outer loop
   vertex -0.113288 0.215154 0.5
   vertex -0.110876 0.220046 0.5
   vertex -0.113288 0.215154 0
  endloop
 endfacet
 facet normal -0.896872 0.44229 0
  outer loop
   vertex -0.113288 0.215154 0
   vertex -0.110876 0.220046 0.5
   vertex -0.110876 0.220046 0
  endloop
 endfacet
 facet normal -0.876727 0.480989 0
  outer loop
   vertex -0.110876 0.220046 0.5
   vertex -0.108253 0.224827 0.5
   vertex -0.110876 0.220046 0
  endloop
 endfacet
 facet normal -0.876727 0.480989 0
  outer loop
   vertex -0.110876 0.220046 0
   vertex -0.108253 0.224827 0.5
   vertex -0.108253 0.224827 0
  endloop
 endfacet
 facet normal -0.854912 0.518773 0
  outer loop
   vertex -0.108253 0.224827 0.5
   vertex -0.105424 0.229489 0.5
   vertex -0.108253 0.224827 0
  endloop
 endfacet
 facet normal -0.854912 0.518773 0
  outer loop
   vertex -0.108253 0.224827 0
   vertex -0.105424 0.229489 0.5
   vertex -0.105424 0.229489 0
  endloop
 endfacet
 facet normal -0.83147 0.55557 0
  outer loop
   vertex -0.105424 0.229489 0.5
   vertex -0.102394 0.234024 0.5
   vertex -0.105424 0.229489 0
  endloop
 endfacet
 facet normal -0.83147 0.55557 0
  outer loop
   vertex -0.105424 0.229489 0
   vertex -0.102394 0.234024 0.5
   vertex -0.102394 0.234024 0
  endloop
 endfacet
 facet normal -0.806444 0.59131 0
  outer loop
   vertex -0.102394 0.234024 0.5
   vertex -0.0991692 0.238422 0.5
   vertex -0.102394 0.234024 0
  endloop
 endfacet
 facet normal -0.806444 0.59131 0
  outer loop
   vertex -0.102394 0.234024 0
   vertex -0.0991692 0.238422 0.5
   vertex -0.0991692 0.238422 0
  endloop
 endfacet
 facet normal -0.779885 0.625923 0
  outer loop
   vertex -0.0991692 0.238422 0.5
   vertex -0.0957556 0.242675 0.5
   vertex -0.0991692 0.238422 0
  endloop
 endfacet
 facet normal -0.779885 0.625923 0
  outer loop
   vertex -0.0991692 0.238422 0
   vertex -0.0957556 0.242675 0.5
   vertex -0.0957556 0.242675 0
  endloop
 endfacet
 facet normal -0.75184 0.659346 0
  outer loop
   vertex -0.0957556 0.242675 0.5
   vertex -0.0921597 0.246776 0.5
   vertex -0.0957556 0.242675 0
  endloop
 endfacet
 facet normal -0.75184 0.659346 0
  outer loop
   vertex -0.0957556 0.242675 0
   vertex -0.0921597 0.246776 0.5
   vertex -0.0921597 0.246776 0
  endloop
 endfacet
 facet normal -0.722364 0.691513 0
  outer loop
   vertex -0.0921597 0.246776 0.5
   vertex -0.0883883 0.250715 0.5
   vertex -0.0921597 0.246776 0
  endloop
 endfacet
 facet normal -0.722364 0.691513 0
  outer loop
   vertex -0.0921597 0.246776 0
   vertex -0.0883883 0.250715 0.5
   vertex -0.0883883 0.250715 0
  endloop
 endfacet
 facet normal -0.691513 0.722364 0
  outer loop
   vertex -0.0883883 0.250715 0.5
   vertex -0.0844488 0.254487 0.5
   vertex -0.0883883 0.250715 0
  endloop
 endfacet
 facet normal -0.691513 0.722364 0
  outer loop
   vertex -0.0883883 0.250715 0
   vertex -0.0844488 0.254487 0.5
   vertex -0.0844488 0.254487 0
  endloop
 endfacet
 facet normal -0.659346 0.75184 0
  outer loop
   vertex -0.0844488 0.254487 0.5
   vertex -0.0803485 0.258083 0.5
   vertex -0.0844488 0.254487 0
  endloop
 endfacet
 facet normal -0.659346 0.75184 0
  outer loop
   vertex -0.0844488 0.254487 0
   vertex -0.0803485 0.258083 0.5
   vertex -0.0803485 0.258083 0
  endloop
 endfacet
 facet normal -0.625923 0.779885 0
  outer loop
   vertex -0.0803485 0.258083 0.5
   vertex -0.0760952 0.261496 0.5
   vertex -0.0803485 0.258083 0
  endloop
 endfacet
 facet normal -0.625923 0.779885 0
  outer loop
   vertex -0.0803485 0.258083 0
   vertex -0.0760952 0.261496 0.5
   vertex -0.0760952 0.261496 0
  endloop
 endfacet
 facet normal -0.59131 0.806444 0
  outer loop
   vertex -0.0760952 0.261496 0.5
   vertex -0.0716971 0.264721 0.5
   vertex -0.0760952 0.261496 0
  endloop
 endfacet
 facet normal -0.59131 0.806444 0
  outer loop
   vertex -0.0760952 0.261496 0
   vertex -0.0716971 0.264721 0.5
   vertex -0.0716971 0.264721 0
  endloop
 endfacet
 facet normal -0.55557 0.83147 0
  outer loop
   vertex -0.0716971 0.264721 0.5
   vertex -0.0671625 0.267751 0.5
   vertex -0.0716971 0.264721 0
  endloop
 endfacet
 facet normal -0.55557 0.83147 0
  outer loop
   vertex -0.0716971 0.264721 0
   vertex -0.0671625 0.267751 0.5
   vertex -0.0671625 0.267751 0
  endloop
 endfacet
 facet normal -0.518773 0.854912 0
  outer loop
   vertex -0.0671625 0.267751 0.5
   vertex -0.0625 0.27058 0.5
   vertex -0.0671625 0.267751 0
  endloop
 endfacet
 facet normal -0.518773 0.854912 0
  outer loop
   vertex -0.0671625 0.267751 0
   vertex -0.0625 0.27058 0.5
   vertex -0.0625 0.27058 0
  endloop
 endfacet
 facet normal -0.480989 0.876727 0
  outer loop
   vertex -0.0625 0.27058 0.5
   vertex -0.0577186 0.273203 0.5
   vertex -0.0625 0.27058 0
  endloop
 endfacet
 facet normal -0.480989 0.876727 0
  outer loop
   vertex -0.0625 0.27058 0
   vertex -0.0577186 0.273203 0.5
   vertex -0.0577186 0.273203 0
  endloop
 endfacet
 facet normal -0.44229 0.896872 0
  outer loop
   vertex -0.0577186 0.273203 0.5
   vertex -0.0528273 0.275615 0.5
   vertex -0.0577186 0.273203 0
  endloop
 endfacet
 facet normal -0.44229 0.896872 0
  outer loop
   vertex -0.0577186 0.273203 0
   vertex -0.0528273 0.275615 0.5
   vertex -0.0528273 0.275615 0
  endloop
 endfacet
 facet normal -0.402745 0.915312 0
  outer loop
   vertex -0.0528273 0.275615 0.5
   vertex -0.0478354 0.277812 0.5
   vertex -0.0528273 0.275615 0
  endloop
 endfacet
 facet normal -0.402745 0.915312 0
  outer loop
   vertex -0.0528273 0.275615 0
   vertex -0.0478354 0.277812 0.5
   vertex -0.0478354 0.277812 0
  endloop
 endfacet
 facet normal -0.362439 0.932008 0
  outer loop
   vertex -0.0478354 0.277812 0.5
   vertex -0.0427525 0.279789 0.5
   vertex -0.0478354 0.277812 0
  endloop
 endfacet
 facet normal -0.362439 0.932008 0
  outer loop
   vertex -0.0478354 0.277812 0
   vertex -0.0427525 0.279789 0.5
   vertex -0.0427525 0.279789 0
  endloop
 endfacet
 facet normal -0.321439 0.94693 0
  outer loop
   vertex -0.0427525 0.279789 0.5
   vertex -0.0375882 0.281542 0.5
   vertex -0.0427525 0.279789 0
  endloop
 endfacet
 facet normal -0.321439 0.94693 0
  outer loop
   vertex -0.0427525 0.279789 0
   vertex -0.0375882 0.281542 0.5
   vertex -0.0375882 0.281542 0
  endloop
 endfacet
 facet normal -0.279829 0.96005 0
  outer loop
   vertex -0.0375882 0.281542 0.5
   vertex -0.0323524 0.283068 0.5
   vertex -0.0375882 0.281542 0
  endloop
 endfacet
 facet normal -0.279829 0.96005 0
  outer loop
   vertex -0.0375882 0.281542 0
   vertex -0.0323524 0.283068 0.5
   vertex -0.0323524 0.283068 0
  endloop
 endfacet
 facet normal -0.237686 0.971342 0
  outer loop
   vertex -0.0323524 0.283068 0.5
   vertex -0.027055 0.284364 0.5
   vertex -0.0323524 0.283068 0
  endloop
 endfacet
 facet normal -0.237686 0.971342 0
  outer loop
   vertex -0.0323524 0.283068 0
   vertex -0.027055 0.284364 0.5
   vertex -0.027055 0.284364 0
  endloop
 endfacet
 facet normal -0.19509 0.980785 0
  outer loop
   vertex -0.027055 0.284364 0.5
   vertex -0.021706 0.285428 0.5
   vertex -0.027055 0.284364 0
  endloop
 endfacet
 facet normal -0.19509 0.980785 0
  outer loop
   vertex -0.027055 0.284364 0
   vertex -0.021706 0.285428 0.5
   vertex -0.021706 0.285428 0
  endloop
 endfacet
 facet normal -0.152124 0.988361 0
  outer loop
   vertex -0.021706 0.285428 0.5
   vertex -0.0163158 0.286258 0.5
   vertex -0.021706 0.285428 0
  endloop
 endfacet
 facet normal -0.152124 0.988361 0
  outer loop
   vertex -0.021706 0.285428 0
   vertex -0.0163158 0.286258 0.5
   vertex -0.0163158 0.286258 0
  endloop
 endfacet
 facet normal -0.108867 0.994056 0
  outer loop
   vertex -0.0163158 0.286258 0.5
   vertex -0.0108945 0.286851 0.5
   vertex -0.0163158 0.286258 0
  endloop
 endfacet
 facet normal -0.108867 0.994056 0
  outer loop
   vertex -0.0163158 0.286258 0
   vertex -0.0108945 0.286851 0.5
   vertex -0.0108945 0.286851 0
  endloop
 endfacet
 facet normal -0.0654029 0.997859 0
  outer loop
   vertex -0.0108945 0.286851 0.5
   vertex -0.00545242 0.287208 0.5
   vertex -0.0108945 0.286851 0
  endloop
 endfacet
 facet normal -0.0654029 0.997859 0
  outer loop
   vertex -0.0108945 0.286851 0
   vertex -0.00545242 0.287208 0.5
   vertex -0.00545242 0.287208 0
  endloop
 endfacet
 facet normal -0.0218146 0.999762 0
  outer loop
   vertex -0.00545242 0.287208 0.5
   vertex -7.65404e-18 0.287327 0.5
   vertex -0.00545242 0.287208 0
  endloop
 endfacet
 facet normal -0.0218146 0.999762 0
  outer loop
   vertex -0.00545242 0.287208 0
   vertex -7.65404e-18 0.287327 0.5
   vertex -7.65404e-18 0.287327 0
  endloop
 endfacet
 facet normal 0.0218146 0.999762 0
  outer loop
   vertex -7.65404e-18 0.287327 0.5
   vertex 0.00545242 0.287208 0.5
   vertex -7.65404e-18 0.287327 0
  endloop
 endfacet
 facet normal 0.0218146 0.999762 0
  outer loop
   vertex -7.65404e-18 0.287327 0
   vertex 0.00545242 0.287208 0.5
   vertex 0.00545242 0.287208 0
  endloop
 endfacet
 facet normal 0.0654029 0.997859 0
  outer loop
   vertex 0.00545242 0.287208 0.5
   vertex 0.0108945 0.286851 0.5
   vertex 0.00545242 0.287208 0
  endloop
 endfacet
 facet normal 0.0654029 0.997859 0
  outer loop
   vertex 0.00545242 0.287208 0
   vertex 0.0108945 0.286851 0.5
   vertex 0.0108945 0.286851 0
  endloop
 endfacet
 facet normal 0.108867 0.994056 0
  outer loop
   vertex 0.0108945 0.286851 0.5
   vertex 0.0163158 0.286258 0.5
   vertex 0.0108945 0.286851 0
  endloop
 endfacet
 facet normal 0.108867 0.994056 0
  outer loop
   vertex 0.0108945 0.286851 0
   vertex 0.0163158 0.286258 0.5
   vertex 0.0163158 0.286258 0
  endloop
 endfacet
 facet normal 0.152124 0.988361 0
  outer loop
   vertex 0.0163158 0.286258 0.5
   vertex 0.021706 0.285428 0.5
   vertex 0.0163158 0.286258 0
  endloop
 endfacet
 facet normal 0.152124 0.988361 0
  outer loop
   vertex 0.0163158 0.286258 0
   vertex 0.021706 0.285428 0.5
   vertex 0.021706 0.285428 0
  endloop
 endfacet
 facet normal 0.19509 0.980785 0
  outer loop
   vertex 0.021706 0.285428 0.5
   vertex 0.027055 0.284364 0.5
   vertex 0.021706 0.285428 0
  endloop
 endfacet
 facet normal 0.19509 0.980785 0
  outer loop
   vertex 0.021706 0.285428 0
   vertex 0.027055 0.284364 0.5
   vertex 0.027055 0.284364 0
  endloop
 endfacet
 facet normal 0.237686 0.971342 0
  outer loop
   vertex 0.027055 0.284364 0.5
   vertex 0.0323524 0.283068 0.5
   vertex 0.027055 0.284364 0
  endloop
 endfacet
 facet normal 0.237686 0.971342 0
  outer loop
   vertex 0.027055 0.284364 0
   vertex 0.0323524 0.283068 0.5
   vertex 0.0323524 0.283068 0
  endloop
 endfacet
 facet normal 0.279829 0.96005 0
  outer loop
   vertex 0.0323524 0.283068 0.5
   vertex 0.0375882 0.281542 0.5
   vertex 0.0323524 0.283068 0
  endloop
 endfacet
 facet normal 0.279829 0.96005 0
  outer loop
   vertex 0.0323524 0.283068 0
   vertex 0.0375882 0.281542 0.5
   vertex 0.0375882 0.281542 0
  endloop
 endfacet
 facet normal 0.321439 0.94693 0
  outer loop
   vertex 0.0375882 0.281542 0.5
   vertex 0.0427525 0.279789 0.5
   vertex 0.0375882 0.281542 0
  endloop
 endfacet
 facet normal 0.321439 0.94693 0
  outer loop
   vertex 0.0375882 0.281542 0
   vertex 0.0427525 0.279789 0.5
   vertex 0.0427525 0.279789 0
  endloop
 endfacet
 facet normal 0.362439 0.932008 0
  outer loop
   vertex 0.0427525 0.279789 0.5
   vertex 0.0478354 0.277812 0.5
   vertex 0.0427525 0.279789 0
  endloop
 endfacet
 facet normal 0.362439 0.932008 0
  outer loop
   vertex 0.0427525 0.279789 0
   vertex 0.0478354 0.277812 0.5
   vertex 0.0478354 0.277812 0
  endloop
 endfacet
 facet normal 0.402745 0.915312 0
  outer loop
   vertex 0.0478354 0.277812 0.5
   vertex 0.0528273 0.275615 0.5
   vertex 0.0478354 0.277812 0
  endloop
 endfacet
 facet normal 0.402745 0.915312 0
  outer loop
   vertex 0.0478354 0.277812 0
   vertex 0.0528273 0.275615 0.5
   vertex 0.0528273 0.275615 0
  endloop
 endfacet
 facet normal 0.44229 0.896872 0
  outer loop
   vertex 0.0528273 0.275615 0.5
   vertex 0.0577186 0.273203 0.5
   vertex 0.0528273 0.275615 0
  endloop
 endfacet
 facet normal 0.44229 0.896872 0
  outer loop
   vertex 0.0528273 0.275615 0
   vertex 0.0577186 0.273203 0.5
   vertex 0.0577186 0.273203 0
  endloop
 endfacet
 facet normal 0.480989 0.876727 0
  outer loop
   vertex 0.0577186 0.273203 0.5
   vertex 0.0625 0.27058 0.5
   vertex 0.0577186 0.273203 0
  endloop
 endfacet
 facet normal 0.480989 0.876727 0
  outer loop
   vertex 0.0577186 0.273203 0
   vertex 0.0625 0.27058 0.5
   vertex 0.0625 0.27058 0
  endloop
 endfacet
 facet normal 0.518773 0.854912 0
  outer loop
   vertex 0.0625 0.27058 0.5
   vertex 0.0671625 0.267751 0.5
   vertex 0.0625 0.27058 0
  endloop
 endfacet
 facet normal 0.518773 0.854912 0
  outer loop
   vertex 0.0625 0.27058 0
   vertex 0.0671625 0.267751 0.5
   vertex 0.0671625 0.267751 0
  endloop
 endfacet
 facet normal 0.55557 0.83147 0
  outer loop
   vertex 0.0671625 0.267751 0.5
   vertex 0.0716971 0.264721 0.5
   vertex 0.0671625 0.267751 0
  endloop
 endfacet
 facet normal 0.55557 0.83147 0
  outer loop
   vertex 0.0671625 0.267751 0
   vertex 0.0716971 0.264721 0.5
   vertex 0.0716971 0.264721 0
  endloop
 endfacet
 facet normal 0.59131 0.806444 0
  outer loop
   vertex 0.0716971 0.264721 0.5
   vertex 0.0760952 0.261496 0.5
   vertex 0.0716971 0.264721 0
  endloop
 endfacet
 facet normal 0.59131 0.806444 0
  outer loop
   vertex 0.0716971 0.264721 0
   vertex 0.0760952 0.261496 0.5
   vertex 0.0760952 0.261496 0
  endloop
 endfacet
 facet normal 0.625923 0.779885 0
  outer loop
   vertex 0.0760952 0.261496 0.5
   vertex 0.0803485 0.258083 0.5
   vertex 0.0760952 0.261496 0
  endloop
 endfacet
 facet normal 0.625923 0.779885 0
  outer loop
   vertex 0.0760952 0.261496 0
   vertex 0.0803485 0.258083 0.5
   vertex 0.0803485 0.258083 0
  endloop
 endfacet
 facet normal 0.659346 0.75184 0
  outer loop
   vertex 0.0803485 0.258083 0.5
   vertex 0.0844488 0.254487 0.5
   vertex 0.0803485 0.258083 0
  endloop
 endfacet
 facet normal 0.659346 0.75184 0
  outer loop
   vertex 0.0803485 0.258083 0
   vertex 0.0844488 0.254487 0.5
   vertex 0.0844488 0.254487 0
  endloop
 endfacet
 facet normal 0.691513 0.722364 0
  outer loop
   vertex 0.0844488 0.254487 0.5
   vertex 0.0883883 0.250715 0.5
   vertex 0.0844488 0.254487 0
  endloop
 endfacet
 facet normal 0.691513 0.722364 0
  outer loop
   vertex 0.0844488 0.254487 0
   vertex 0.0883883 0.250715 0.5
   vertex 0.0883883 0.250715 0
  endloop
 endfacet
 facet normal 0.722364 0.691513 0
  outer loop
   vertex 0.0883883 0.250715 0.5
   vertex 0.0921597 0.246776 0.5
   vertex 0.0883883 0.250715 0
  endloop
 endfacet
 facet normal 0.722364 0.691513 0
  outer loop
   vertex 0.0883883 0.250715 0
   vertex 0.0921597 0.246776 0.5
   vertex 0.0921597 0.246776 0
  endloop
 endfacet
 facet normal 0.75184 0.659346 0
  outer loop
   vertex 0.0921597 0.246776 0.5
   vertex 0.0957556 0.242675 0.5
   vertex 0.0921597 0.246776 0
  endloop
 endfacet
 facet normal 0.75184 0.659346 0
  outer loop
   vertex 0.0921597 0.246776 0
   vertex 0.0957556 0.242675 0.5
   vertex 0.0957556 0.242675 0
  endloop
 endfacet
 facet normal 0.779885 0.625923 0
  outer loop
   vertex 0.0957556 0.242675 0.5
   vertex 0.0991692 0.238422 0.5
   vertex 0.0957556 0.242675 0
  endloop
 endfacet
 facet normal 0.779885 0.625923 0
  outer loop
   vertex 0.0957556 0.242675 0
   vertex 0.0991692 0.238422 0.5
   vertex 0.0991692 0.238422 0
  endloop
 endfacet
 facet normal 0.806444 0.59131 0
  outer loop
   vertex 0.0991692 0.238422 0.5
   vertex 0.102394 0.234024 0.5
   vertex 0.0991692 0.238422 0
  endloop
 endfacet
 facet normal 0.806444 0.59131 0
  outer loop
   vertex 0.0991692 0.238422 0
   vertex 0.102394 0.234024 0.5
   vertex 0.102394 0.234024 0
  endloop
 endfacet
 facet normal 0.83147 0.55557 0
  outer loop
   vertex 0.102394 0.234024 0.5
   vertex 0.105424 0.229489 0.5
   vertex 0.102394 0.234024 0
  endloop
 endfacet
 facet normal 0.83147 0.55557 0
  outer loop
   vertex 0.102394 0.234024 0
   vertex 0.105424 0.229489 0.5
   vertex 0.105424 0.229489 0
  endloop
 endfacet
 facet normal 0.854912 0.518773 0
  outer loop
   vertex 0.105424 0.229489 0.5
   vertex 0.108253 0.224827 0.5
   vertex 0.105424 0.229489 0
  endloop
 endfacet
 facet normal 0.854912 0.518773 0
  outer loop
   vertex 0.105424 0.229489 0
   vertex 0.108253 0.224827 0.5
   vertex 0.108253 0.224827 0
  endloop
 endfacet
 facet normal 0.876727 0.480989 0
  outer loop
   vertex 0.108253 0.224827 0.5
   vertex 0.110876 0.220046 0.5
   vertex 0.108253 0.224827 0
  endloop
 endfacet
 facet normal 0.876727 0.480989 0
  outer loop
   vertex 0.108253 0.224827 0
   vertex 0.110876 0.220046 0.5
   vertex 0.110876 0.220046 0
  endloop
 endfacet
 facet normal 0.896872 0.44229 0
  outer loop
   vertex 0.110876 0.220046 0.5
   vertex 0.113288 0.215154 0.5
   vertex 0.110876 0.220046 0
  endloop
 endfacet
 facet normal 0.896872 0.44229 0
  outer loop
   vertex 0.110876 0.220046 0
   vertex 0.113288 0.215154 0.5
   vertex 0.113288 0.215154 0
  endloop
 endfacet
 facet normal 0.915312 0.402745 0
  outer loop
   vertex 0.113288 0.215154 0.5
   vertex 0.115485 0.210162 0.5
   vertex 0.113288 0.215154 0
  endloop
 endfacet
 facet normal 0.915312 0.402745 0
  outer loop
   vertex 0.113288 0.215154 0
   vertex 0.115485 0.210162 0.5
   vertex 0.115485 0.210162 0
  endloop
 endfacet
 facet normal 0.932008 0.362439 0
  outer loop
   vertex 0.115485 0.210162 0.5
   vertex 0.117462 0.20508 0.5
   vertex 0.115485 0.210162 0
  endloop
 endfacet
 facet normal 0.932008 0.362439 0
  outer loop
   vertex 0.115485 0.210162 0
   vertex 0.117462 0.20508 0.5
   vertex 0.117462 0.20508 0
  endloop
 endfacet
 facet normal 0.94693 0.321439 0
  outer loop
   vertex 0.117462 0.20508 0.5
   vertex 0.119215 0.199915 0.5
   vertex 0.117462 0.20508 0
  endloop
 endfacet
 facet normal 0.94693 0.321439 0
  outer loop
   vertex 0.117462 0.20508 0
   vertex 0.119215 0.199915 0.5
   vertex 0.119215 0.199915 0
  endloop
 endfacet
 facet normal 0.96005 0.279829 0
  outer loop
   vertex 0.119215 0.199915 0.5
   vertex 0.120741 0.194679 0.5
   vertex 0.119215 0.199915 0
  endloop
 endfacet
 facet normal 0.96005 0.279829 0
  outer loop
   vertex 0.119215 0.199915 0
   vertex 0.120741 0.194679 0.5
   vertex 0.120741 0.194679 0
  endloop
 endfacet
 facet normal 0.971342 0.237686 0
  outer loop
   vertex 0.120741 0.194679 0.5
   vertex 0.122037 0.189382 0.5
   vertex 0.120741 0.194679 0
  endloop
 endfacet
 facet normal 0.971342 0.237686 0
  outer loop
   vertex 0.120741 0.194679 0
   vertex 0.122037 0.189382 0.5
   vertex 0.122037 0.189382 0
  endloop
 endfacet
 facet normal 0.980785 0.19509 0
  outer loop
   vertex 0.122037 0.189382 0.5
   vertex 0.123101 0.184033 0.5
   vertex 0.122037 0.189382 0
  endloop
 endfacet
 facet normal 0.980785 0.19509 0
  outer loop
   vertex 0.122037 0.189382 0
   vertex 0.123101 0.184033 0.5
   vertex 0.123101 0.184033 0
  endloop
 endfacet
 facet normal 0.988361 0.152124 0
  outer loop
   vertex 0.123101 0.184033 0.5
   vertex 0.123931 0.178643 0.5
   vertex 0.123101 0.184033 0
  endloop
 endfacet
 facet normal 0.988361 0.152124 0
  outer loop
   vertex 0.123101 0.184033 0
   vertex 0.123931 0.178643 0.5
   vertex 0.123931 0.178643 0
  endloop
 endfacet
 facet normal 0.994056 0.108867 0
  outer loop
   vertex 0.123931 0.178643 0.5
   vertex 0.124524 0.173221 0.5
   vertex 0.123931 0.178643 0
  endloop
 endfacet
 facet normal 0.994056 0.108867 0
  outer loop
   vertex 0.123931 0.178643 0
   vertex 0.124524 0.173221 0.5
   vertex 0.124524 0.173221 0
  endloop
 endfacet
 facet normal 0.997859 0.0654029 0
  outer loop
   vertex 0.124524 0.173221 0.5
   vertex 0.124881 0.167779 0.5
   vertex 0.124524 0.173221 0
  endloop
 endfacet
 facet normal 0.997859 0.0654029 0
  outer loop
   vertex 0.124524 0.173221 0
   vertex 0.124881 0.167779 0.5
   vertex 0.124881 0.167779 0
  endloop
 endfacet
 facet normal 0.999762 0.0218146 0
  outer loop
   vertex 0.124881 0.167779 0.5
   vertex 0.125 0.162327 0.5
   vertex 0.124881 0.167779 0
  endloop
 endfacet
 facet normal 0.999762 0.0218146 -1.20367e-18
  outer loop
   vertex 0.124881 0.167779 0
   vertex 0.125 0.162327 0.5
   vertex 0.125 0.162327 0
  endloop
 endfacet
 facet normal 0.999762 -0.0218146 1.21095e-18
  outer loop
   vertex 0.125 0.162327 0.5
   vertex 0.124881 0.156875 0.5
   vertex 0.125 0.162327 0
  endloop
 endfacet
 facet normal 0.999762 -0.0218146 0
  outer loop
   vertex 0.125 0.162327 0
   vertex 0.124881 0.156875 0.5
   vertex 0.124881 0.156875 0
  endloop
 endfacet
 facet normal 0.997859 -0.0654029 0
  outer loop
   vertex 0.124881 0.156875 0.5
   vertex 0.124524 0.151433 0.5
   vertex 0.124881 0.156875 0
  endloop
 endfacet
 facet normal 0.997859 -0.0654029 0
  outer loop
   vertex 0.124881 0.156875 0
   vertex 0.124524 0.151433 0.5
   vertex 0.124524 0.151433 0
  endloop
 endfacet
 facet normal 0.994056 -0.108867 0
  outer loop
   vertex 0.124524 0.151433 0.5
   vertex 0.123931 0.146011 0.5
   vertex 0.124524 0.151433 0
  endloop
 endfacet
 facet normal 0.994056 -0.108867 0
  outer loop
   vertex 0.124524 0.151433 0
   vertex 0.123931 0.146011 0.5
   vertex 0.123931 0.146011 0
  endloop
 endfacet
 facet normal 0.988361 -0.152124 0
  outer loop
   vertex 0.123931 0.146011 0.5
   vertex 0.123101 0.140621 0.5
   vertex 0.123931 0.146011 0
  endloop
 endfacet
 facet normal 0.988361 -0.152124 0
  outer loop
   vertex 0.123931 0.146011 0
   vertex 0.123101 0.140621 0.5
   vertex 0.123101 0.140621 0
  endloop
 endfacet
 facet normal 0.980785 -0.19509 0
  outer loop
   vertex 0.123101 0.140621 0.5
   vertex 0.122037 0.135272 0.5
   vertex 0.123101 0.140621 0
  endloop
 endfacet
 facet normal 0.980785 -0.19509 0
  outer loop
   vertex 0.123101 0.140621 0
   vertex 0.122037 0.135272 0.5
   vertex 0.122037 0.135272 0
  endloop
 endfacet
 facet normal 0.971342 -0.237686 0
  outer loop
   vertex 0.122037 0.135272 0.5
   vertex 0.120741 0.129975 0.5
   vertex 0.122037 0.135272 0
  endloop
 endfacet
 facet normal 0.971342 -0.237686 0
  outer loop
   vertex 0.122037 0.135272 0
   vertex 0.120741 0.129975 0.5
   vertex 0.120741 0.129975 0
  endloop
 endfacet
 facet normal 0.96005 -0.279829 0
  outer loop
   vertex 0.120741 0.129975 0.5
   vertex 0.119215 0.124739 0.5
   vertex 0.120741 0.129975 0
  endloop
 endfacet
 facet normal 0.96005 -0.279829 0
  outer loop
   vertex 0.120741 0.129975 0
   vertex 0.119215 0.124739 0.5
   vertex 0.119215 0.124739 0
  endloop
 endfacet
 facet normal 0.94693 -0.321439 0
  outer loop
   vertex 0.119215 0.124739 0.5
   vertex 0.117462 0.119574 0.5
   vertex 0.119215 0.124739 0
  endloop
 endfacet
 facet normal 0.94693 -0.321439 0
  outer loop
   vertex 0.119215 0.124739 0
   vertex 0.117462 0.119574 0.5
   vertex 0.117462 0.119574 0
  endloop
 endfacet
 facet normal 0.932008 -0.362439 0
  outer loop
   vertex 0.117462 0.119574 0.5
   vertex 0.115485 0.114492 0.5
   vertex 0.117462 0.119574 0
  endloop
 endfacet
 facet normal 0.932008 -0.362439 0
  outer loop
   vertex 0.117462 0.119574 0
   vertex 0.115485 0.114492 0.5
   vertex 0.115485 0.114492 0
  endloop
 endfacet
 facet normal 0.915312 -0.402745 0
  outer loop
   vertex 0.115485 0.114492 0.5
   vertex 0.113288 0.1095 0.5
   vertex 0.115485 0.114492 0
  endloop
 endfacet
 facet normal 0.915312 -0.402745 0
  outer loop
   vertex 0.115485 0.114492 0
   vertex 0.113288 0.1095 0.5
   vertex 0.113288 0.1095 0
  endloop
 endfacet
 facet normal 0.896872 -0.44229 0
  outer loop
   vertex 0.113288 0.1095 0.5
   vertex 0.110876 0.104608 0.5
   vertex 0.113288 0.1095 0
  endloop
 endfacet
 facet normal 0.896872 -0.44229 0
  outer loop
   vertex 0.113288 0.1095 0
   vertex 0.110876 0.104608 0.5
   vertex 0.110876 0.104608 0
  endloop
 endfacet
 facet normal 0.876727 -0.480989 0
  outer loop
   vertex 0.110876 0.104608 0.5
   vertex 0.108253 0.099827 0.5
   vertex 0.110876 0.104608 0
  endloop
 endfacet
 facet normal 0.876727 -0.480989 0
  outer loop
   vertex 0.110876 0.104608 0
   vertex 0.108253 0.099827 0.5
   vertex 0.108253 0.099827 0
  endloop
 endfacet
 facet normal 0.854912 -0.518773 0
  outer loop
   vertex 0.108253 0.099827 0.5
   vertex 0.105424 0.0951645 0.5
   vertex 0.108253 0.099827 0
  endloop
 endfacet
 facet normal 0.854912 -0.518773 0
  outer loop
   vertex 0.108253 0.099827 0
   vertex 0.105424 0.0951645 0.5
   vertex 0.105424 0.0951645 0
  endloop
 endfacet
 facet normal 0.83147 -0.55557 0
  outer loop
   vertex 0.105424 0.0951645 0.5
   vertex 0.102394 0.0906299 0.5
   vertex 0.105424 0.0951645 0
  endloop
 endfacet
 facet normal 0.83147 -0.55557 0
  outer loop
   vertex 0.105424 0.0951645 0
   vertex 0.102394 0.0906299 0.5
   vertex 0.102394 0.0906299 0
  endloop
 endfacet
 facet normal 0.806444 -0.59131 0
  outer loop
   vertex 0.102394 0.0906299 0.5
   vertex 0.0991692 0.0862318 0.5
   vertex 0.102394 0.0906299 0
  endloop
 endfacet
 facet normal 0.806444 -0.59131 0
  outer loop
   vertex 0.102394 0.0906299 0
   vertex 0.0991692 0.0862318 0.5
   vertex 0.0991692 0.0862318 0
  endloop
 endfacet
 facet normal 0.779885 -0.625923 0
  outer loop
   vertex 0.0991692 0.0862318 0.5
   vertex 0.0957556 0.0819785 0.5
   vertex 0.0991692 0.0862318 0
  endloop
 endfacet
 facet normal 0.779885 -0.625923 0
  outer loop
   vertex 0.0991692 0.0862318 0
   vertex 0.0957556 0.0819785 0.5
   vertex 0.0957556 0.0819785 0
  endloop
 endfacet
 facet normal 0.75184 -0.659346 0
  outer loop
   vertex 0.0957556 0.0819785 0.5
   vertex 0.0921597 0.0778782 0.5
   vertex 0.0957556 0.0819785 0
  endloop
 endfacet
 facet normal 0.75184 -0.659346 0
  outer loop
   vertex 0.0957556 0.0819785 0
   vertex 0.0921597 0.0778782 0.5
   vertex 0.0921597 0.0778782 0
  endloop
 endfacet
 facet normal 0.722364 -0.691513 0
  outer loop
   vertex 0.0921597 0.0778782 0.5
   vertex 0.0883883 0.0739386 0.5
   vertex 0.0921597 0.0778782 0
  endloop
 endfacet
 facet normal 0.722364 -0.691513 0
  outer loop
   vertex 0.0921597 0.0778782 0
   vertex 0.0883883 0.0739386 0.5
   vertex 0.0883883 0.0739386 0
  endloop
 endfacet
 facet normal 0.691513 -0.722364 0
  outer loop
   vertex 0.0883883 0.0739386 0.5
   vertex 0.0844488 0.0701673 0.5
   vertex 0.0883883 0.0739386 0
  endloop
 endfacet
 facet normal 0.691513 -0.722364 0
  outer loop
   vertex 0.0883883 0.0739386 0
   vertex 0.0844488 0.0701673 0.5
   vertex 0.0844488 0.0701673 0
  endloop
 endfacet
 facet normal 0.659346 -0.75184 0
  outer loop
   vertex 0.0844488 0.0701673 0.5
   vertex 0.0803485 0.0665714 0.5
   vertex 0.0844488 0.0701673 0
  endloop
 endfacet
 facet normal 0.659346 -0.75184 0
  outer loop
   vertex 0.0844488 0.0701673 0
   vertex 0.0803485 0.0665714 0.5
   vertex 0.0803485 0.0665714 0
  endloop
 endfacet
 facet normal 0.625923 -0.779885 0
  outer loop
   vertex 0.0803485 0.0665714 0.5
   vertex 0.0760952 0.0631578 0.5
   vertex 0.0803485 0.0665714 0
  endloop
 endfacet
 facet normal 0.625923 -0.779885 0
  outer loop
   vertex 0.0803485 0.0665714 0
   vertex 0.0760952 0.0631578 0.5
   vertex 0.0760952 0.0631578 0
  endloop
 endfacet
 facet normal 0.59131 -0.806444 0
  outer loop
   vertex 0.0760952 0.0631578 0.5
   vertex 0.0716971 0.059933 0.5
   vertex 0.0760952 0.0631578 0
  endloop
 endfacet
 facet normal 0.59131 -0.806444 0
  outer loop
   vertex 0.0760952 0.0631578 0
   vertex 0.0716971 0.059933 0.5
   vertex 0.0716971 0.059933 0
  endloop
 endfacet
 facet normal 0.55557 -0.83147 0
  outer loop
   vertex 0.0716971 0.059933 0.5
   vertex 0.0671625 0.0569031 0.5
   vertex 0.0716971 0.059933 0
  endloop
 endfacet
 facet normal 0.55557 -0.83147 0
  outer loop
   vertex 0.0716971 0.059933 0
   vertex 0.0671625 0.0569031 0.5
   vertex 0.0671625 0.0569031 0
  endloop
 endfacet
 facet normal 0.518773 -0.854912 0
  outer loop
   vertex 0.0671625 0.0569031 0.5
   vertex 0.0625 0.0540738 0.5
   vertex 0.0671625 0.0569031 0
  endloop
 endfacet
 facet normal 0.518773 -0.854912 0
  outer loop
   vertex 0.0671625 0.0569031 0
   vertex 0.0625 0.0540738 0.5
   vertex 0.0625 0.0540738 0
  endloop
 endfacet
 facet normal 0.480989 -0.876727 0
  outer loop
   vertex 0.0625 0.0540738 0.5
   vertex 0.0577186 0.0514506 0.5
   vertex 0.0625 0.0540738 0
  endloop
 endfacet
 facet normal 0.480989 -0.876727 0
  outer loop
   vertex 0.0625 0.0540738 0
   vertex 0.0577186 0.0514506 0.5
   vertex 0.0577186 0.0514506 0
  endloop
 endfacet
 facet normal 0.44229 -0.896872 0
  outer loop
   vertex 0.0577186 0.0514506 0.5
   vertex 0.0528273 0.0490385 0.5
   vertex 0.0577186 0.0514506 0
  endloop
 endfacet
 facet normal 0.44229 -0.896872 0
  outer loop
   vertex 0.0577186 0.0514506 0
   vertex 0.0528273 0.0490385 0.5
   vertex 0.0528273 0.0490385 0
  endloop
 endfacet
 facet normal 0.402745 -0.915312 0
  outer loop
   vertex 0.0528273 0.0490385 0.5
   vertex 0.0478354 0.046842 0.5
   vertex 0.0528273 0.0490385 0
  endloop
 endfacet
 facet normal 0.402745 -0.915312 0
  outer loop
   vertex 0.0528273 0.0490385 0
   vertex 0.0478354 0.046842 0.5
   vertex 0.0478354 0.046842 0
  endloop
 endfacet
 facet normal 0.362439 -0.932008 0
  outer loop
   vertex 0.0478354 0.046842 0.5
   vertex 0.0427525 0.0448654 0.5
   vertex 0.0478354 0.046842 0
  endloop
 endfacet
 facet normal 0.362439 -0.932008 0
  outer loop
   vertex 0.0478354 0.046842 0
   vertex 0.0427525 0.0448654 0.5
   vertex 0.0427525 0.0448654 0
  endloop
 endfacet
 facet normal 0.321439 -0.94693 0
  outer loop
   vertex 0.0427525 0.0448654 0.5
   vertex 0.0375882 0.0431124 0.5
   vertex 0.0427525 0.0448654 0
  endloop
 endfacet
 facet normal 0.321439 -0.94693 0
  outer loop
   vertex 0.0427525 0.0448654 0
   vertex 0.0375882 0.0431124 0.5
   vertex 0.0375882 0.0431124 0
  endloop
 endfacet
 facet normal 0.279829 -0.96005 0
  outer loop
   vertex 0.0375882 0.0431124 0.5
   vertex 0.0323524 0.0415863 0.5
   vertex 0.0375882 0.0431124 0
  endloop
 endfacet
 facet normal 0.279829 -0.96005 0
  outer loop
   vertex 0.0375882 0.0431124 0
   vertex 0.0323524 0.0415863 0.5
   vertex 0.0323524 0.0415863 0
  endloop
 endfacet
 facet normal 0.237686 -0.971342 0
  outer loop
   vertex 0.0323524 0.0415863 0.5
   vertex 0.027055 0.04029 0.5
   vertex 0.0323524 0.0415863 0
  endloop
 endfacet
 facet normal 0.237686 -0.971342 0
  outer loop
   vertex 0.0323524 0.0415863 0
   vertex 0.027055 0.04029 0.5
   vertex 0.027055 0.04029 0
  endloop
 endfacet
 facet normal 0.19509 -0.980785 0
  outer loop
   vertex 0.027055 0.04029 0.5
   vertex 0.021706 0.039226 0.5
   vertex 0.027055 0.04029 0
  endloop
 endfacet
 facet normal 0.19509 -0.980785 0
  outer loop
   vertex 0.027055 0.04029 0
   vertex 0.021706 0.039226 0.5
   vertex 0.021706 0.039226 0
  endloop
 endfacet
 facet normal 0.152124 -0.988361 0
  outer loop
   vertex 0.021706 0.039226 0.5
   vertex 0.0163158 0.0383964 0.5
   vertex 0.021706 0.039226 0
  endloop
 endfacet
 facet normal 0.152124 -0.988361 0
  outer loop
   vertex 0.021706 0.039226 0
   vertex 0.0163158 0.0383964 0.5
   vertex 0.0163158 0.0383964 0
  endloop
 endfacet
 facet normal 0.108867 -0.994056 0
  outer loop
   vertex 0.0163158 0.0383964 0.5
   vertex 0.0108945 0.0378026 0.5
   vertex 0.0163158 0.0383964 0
  endloop
 endfacet
 facet normal 0.108867 -0.994056 0
  outer loop
   vertex 0.0163158 0.0383964 0
   vertex 0.0108945 0.0378026 0.5
   vertex 0.0108945 0.0378026 0
  endloop
 endfacet
 facet normal 0.0654029 -0.997859 0
  outer loop
   vertex 0.0108945 0.0378026 0.5
   vertex 0.00545242 0.037446 0.5
   vertex 0.0108945 0.0378026 0
  endloop
 endfacet
 facet normal 0.0654029 -0.997859 0
  outer loop
   vertex 0.0108945 0.0378026 0
   vertex 0.00545242 0.037446 0.5
   vertex 0.00545242 0.037446 0
  endloop
 endfacet
 facet normal 0.0218146 -0.999762 0
  outer loop
   vertex 0.00545242 0.037446 0.5
   vertex 2.29621e-17 0.037327 0.5
   vertex 0.00545242 0.037446 0
  endloop
 endfacet
 facet normal 0.0218146 -0.999762 0
  outer loop
   vertex 0.00545242 0.037446 0
   vertex 2.29621e-17 0.037327 0.5
   vertex 2.29621e-17 0.037327 0
  endloop
 endfacet
 facet normal -0.0218146 -0.999762 -0
  outer loop
   vertex 2.29621e-17 0.037327 0.5
   vertex -0.00545242 0.037446 0.5
   vertex 2.29621e-17 0.037327 0
  endloop
 endfacet
 facet normal -0.0218146 -0.999762 0
  outer loop
   vertex 2.29621e-17 0.037327 0
   vertex -0.00545242 0.037446 0.5
   vertex -0.00545242 0.037446 0
  endloop
 endfacet
 facet normal -0.0654029 -0.997859 -0
  outer loop
   vertex -0.00545242 0.037446 0.5
   vertex -0.0108945 0.0378026 0.5
   vertex -0.00545242 0.037446 0
  endloop
 endfacet
 facet normal -0.0654029 -0.997859 0
  outer loop
   vertex -0.00545242 0.037446 0
   vertex -0.0108945 0.0378026 0.5
   vertex -0.0108945 0.0378026 0
  endloop
 endfacet
 facet normal -0.108867 -0.994056 -0
  outer loop
   vertex -0.0108945 0.0378026 0.5
   vertex -0.0163158 0.0383964 0.5
   vertex -0.0108945 0.0378026 0
  endloop
 endfacet
 facet normal -0.108867 -0.994056 0
  outer loop
   vertex -0.0108945 0.0378026 0
   vertex -0.0163158 0.0383964 0.5
   vertex -0.0163158 0.0383964 0
  endloop
 endfacet
 facet normal -0.152124 -0.988361 -0
  outer loop
   vertex -0.0163158 0.0383964 0.5
   vertex -0.021706 0.039226 0.5
   vertex -0.0163158 0.0383964 0
  endloop
 endfacet
 facet normal -0.152124 -0.988361 0
  outer loop
   vertex -0.0163158 0.0383964 0
   vertex -0.021706 0.039226 0.5
   vertex -0.021706 0.039226 0
  endloop
 endfacet
 facet normal -0.19509 -0.980785 -0
  outer loop
   vertex -0.021706 0.039226 0.5
   vertex -0.027055 0.04029 0.5
   vertex -0.021706 0.039226 0
  endloop
 endfacet
 facet normal -0.19509 -0.980785 0
  outer loop
   vertex -0.021706 0.039226 0
   vertex -0.027055 0.04029 0.5
   vertex -0.027055 0.04029 0
  endloop
 endfacet
 facet normal -0.237686 -0.971342 -0
  outer loop
   vertex -0.027055 0.04029 0.5
   vertex -0.0323524 0.0415863 0.5
   vertex -0.027055 0.04029 0
  endloop
 endfacet
 facet normal -0.237686 -0.971342 0
  outer loop
   vertex -0.027055 0.04029 0
   vertex -0.0323524 0.0415863 0.5
   vertex -0.0323524 0.0415863 0
  endloop
 endfacet
 facet normal -0.279829 -0.96005 -0
  outer loop
   vertex -0.0323524 0.0415863 0.5
   vertex -0.0375882 0.0431124 0.5
   vertex -0.0323524 0.0415863 0
  endloop
 endfacet
 facet normal -0.279829 -0.96005 0
  outer loop
   vertex -0.0323524 0.0415863 0
   vertex -0.0375882 0.0431124 0.5
   vertex -0.0375882 0.0431124 0
  endloop
 endfacet
 facet normal -0.321439 -0.94693 -0
  outer loop
   vertex -0.0375882 0.0431124 0.5
   vertex -0.0427525 0.0448654 0.5
   vertex -0.0375882 0.0431124 0
  endloop
 endfacet
 facet normal -0.321439 -0.94693 0
  outer loop
   vertex -0.0375882 0.0431124 0
   vertex -0.0427525 0.0448654 0.5
   vertex -0.0427525 0.0448654 0
  endloop
 endfacet
 facet normal -0.362439 -0.932008 -0
  outer loop
   vertex -0.0427525 0.0448654 0.5
   vertex -0.0478354 0.046842 0.5
   vertex -0.0427525 0.0448654 0
  endloop
 endfacet
 facet normal -0.362439 -0.932008 0
  outer loop
   vertex -0.0427525 0.0448654 0
   vertex -0.0478354 0.046842 0.5
   vertex -0.0478354 0.046842 0
  endloop
 endfacet
 facet normal -0.402745 -0.915312 -0
  outer loop
   vertex -0.0478354 0.046842 0.5
   vertex -0.0528273 0.0490385 0.5
   vertex -0.0478354 0.046842 0
  endloop
 endfacet
 facet normal -0.402745 -0.915312 0
  outer loop
   vertex -0.0478354 0.046842 0
   vertex -0.0528273 0.0490385 0.5
   vertex -0.0528273 0.0490385 0
  endloop
 endfacet
 facet normal -0.44229 -0.896872 -0
  outer loop
   vertex -0.0528273 0.0490385 0.5
   vertex -0.0577186 0.0514506 0.5
   vertex -0.0528273 0.0490385 0
  endloop
 endfacet
 facet normal -0.44229 -0.896872 0
  outer loop
   vertex -0.0528273 0.0490385 0
   vertex -0.0577186 0.0514506 0.5
   vertex -0.0577186 0.0514506 0
  endloop
 endfacet
 facet normal -0.480989 -0.876727 -0
  outer loop
   vertex -0.0577186 0.0514506 0.5
   vertex -0.0625 0.0540738 0.5
   vertex -0.0577186 0.0514506 0
  endloop
 endfacet
 facet normal -0.480989 -0.876727 0
  outer loop
   vertex -0.0577186 0.0514506 0
   vertex -0.0625 0.0540738 0.5
   vertex -0.0625 0.0540738 0
  endloop
 endfacet
 facet normal -0.518773 -0.854912 -0
  outer loop
   vertex -0.0625 0.0540738 0.5
   vertex -0.0671625 0.0569031 0.5
   vertex -0.0625 0.0540738 0
  endloop
 endfacet
 facet normal -0.518773 -0.854912 0
  outer loop
   vertex -0.0625 0.0540738 0
   vertex -0.0671625 0.0569031 0.5
   vertex -0.0671625 0.0569031 0
  endloop
 endfacet
 facet normal -0.55557 -0.83147 -0
  outer loop
   vertex -0.0671625 0.0569031 0.5
   vertex -0.0716971 0.059933 0.5
   vertex -0.0671625 0.0569031 0
  endloop
 endfacet
 facet normal -0.55557 -0.83147 0
  outer loop
   vertex -0.0671625 0.0569031 0
   vertex -0.0716971 0.059933 0.5
   vertex -0.0716971 0.059933 0
  endloop
 endfacet
 facet normal -0.59131 -0.806444 -0
  outer loop
   vertex -0.0716971 0.059933 0.5
   vertex -0.0760952 0.0631578 0.5
   vertex -0.0716971 0.059933 0
  endloop
 endfacet
 facet normal -0.59131 -0.806444 0
  outer loop
   vertex -0.0716971 0.059933 0
   vertex -0.0760952 0.0631578 0.5
   vertex -0.0760952 0.0631578 0
  endloop
 endfacet
 facet normal -0.625923 -0.779885 -0
  outer loop
   vertex -0.0760952 0.0631578 0.5
   vertex -0.0803485 0.0665714 0.5
   vertex -0.0760952 0.0631578 0
  endloop
 endfacet
 facet normal -0.625923 -0.779885 0
  outer loop
   vertex -0.0760952 0.0631578 0
   vertex -0.0803485 0.0665714 0.5
   vertex -0.0803485 0.0665714 0
  endloop
 endfacet
 facet normal -0.659346 -0.75184 -0
  outer loop
   vertex -0.0803485 0.0665714 0.5
   vertex -0.0844488 0.0701673 0.5
   vertex -0.0803485 0.0665714 0
  endloop
 endfacet
 facet normal -0.659346 -0.75184 0
  outer loop
   vertex -0.0803485 0.0665714 0
   vertex -0.0844488 0.0701673 0.5
   vertex -0.0844488 0.0701673 0
  endloop
 endfacet
 facet normal -0.691513 -0.722364 -0
  outer loop
   vertex -0.0844488 0.0701673 0.5
   vertex -0.0883883 0.0739386 0.5
   vertex -0.0844488 0.0701673 0
  endloop
 endfacet
 facet normal -0.691513 -0.722364 0
  outer loop
   vertex -0.0844488 0.0701673 0
   vertex -0.0883883 0.0739386 0.5
   vertex -0.0883883 0.0739386 0
  endloop
 endfacet
 facet normal -0.722364 -0.691513 -0
  outer loop
   vertex -0.0883883 0.0739386 0.5
   vertex -0.0921597 0.0778782 0.5
   vertex -0.0883883 0.0739386 0
  endloop
 endfacet
 facet normal -0.722364 -0.691513 0
  outer loop
   vertex -0.0883883 0.0739386 0
   vertex -0.0921597 0.0778782 0.5
   vertex -0.0921597 0.0778782 0
  endloop
 endfacet
 facet normal -0.75184 -0.659346 -0
  outer loop
   vertex -0.0921597 0.0778782 0.5
   vertex -0.0957556 0.0819785 0.5
   vertex -0.0921597 0.0778782 0
  endloop
 endfacet
 facet normal -0.75184 -0.659346 0
  outer loop
   vertex -0.0921597 0.0778782 0
   vertex -0.0957556 0.0819785 0.5
   vertex -0.0957556 0.0819785 0
  endloop
 endfacet
 facet normal -0.779885 -0.625923 -0
  outer loop
   vertex -0.0957556 0.0819785 0.5
   vertex -0.0991692 0.0862318 0.5
   vertex -0.0957556 0.0819785 0
  endloop
 endfacet
 facet normal -0.779885 -0.625923 0
  outer loop
   vertex -0.0957556 0.0819785 0
   vertex -0.0991692 0.0862318 0.5
   vertex -0.0991692 0.0862318 0
  endloop
 endfacet
 facet normal -0.806444 -0.59131 -0
  outer loop
   vertex -0.0991692 0.0862318 0.5
   vertex -0.102394 0.0906299 0.5
   vertex -0.0991692 0.0862318 0
  endloop
 endfacet
 facet normal -0.806444 -0.59131 0
  outer loop
   vertex -0.0991692 0.0862318 0
   vertex -0.102394 0.0906299 0.5
   vertex -0.102394 0.0906299 0
  endloop
 endfacet
 facet normal -0.83147 -0.55557 -0
  outer loop
   vertex -0.102394 0.0906299 0.5
   vertex -0.105424 0.0951645 0.5
   vertex -0.102394 0.0906299 0
  endloop
 endfacet
 facet normal -0.83147 -0.55557 0
  outer loop
   vertex -0.102394 0.0906299 0
   vertex -0.105424 0.0951645 0.5
   vertex -0.105424 0.0951645 0
  endloop
 endfacet
 facet normal -0.854912 -0.518773 -0
  outer loop
   vertex -0.105424 0.0951645 0.5
   vertex -0.108253 0.099827 0.5
   vertex -0.105424 0.0951645 0
  endloop
 endfacet
 facet normal -0.854912 -0.518773 0
  outer loop
   vertex -0.105424 0.0951645 0
   vertex -0.108253 0.099827 0.5
   vertex -0.108253 0.099827 0
  endloop
 endfacet
 facet normal -0.876727 -0.480989 -0
  outer loop
   vertex -0.108253 0.099827 0.5
   vertex -0.110876 0.104608 0.5
   vertex -0.108253 0.099827 0
  endloop
 endfacet
 facet normal -0.876727 -0.480989 0
  outer loop
   vertex -0.108253 0.099827 0
   vertex -0.110876 0.104608 0.5
   vertex -0.110876 0.104608 0
  endloop
 endfacet
 facet normal -0.896872 -0.44229 -0
  outer loop
   vertex -0.110876 0.104608 0.5
   vertex -0.113288 0.1095 0.5
   vertex -0.110876 0.104608 0
  endloop
 endfacet
 facet normal -0.896872 -0.44229 0
  outer loop
   vertex -0.110876 0.104608 0
   vertex -0.113288 0.1095 0.5
   vertex -0.113288 0.1095 0
  endloop
 endfacet
 facet normal -0.915312 -0.402745 -0
  outer loop
   vertex -0.113288 0.1095 0.5
   vertex -0.115485 0.114492 0.5
   vertex -0.113288 0.1095 0
  endloop
 endfacet
 facet normal -0.915312 -0.402745 0
  outer loop
   vertex -0.113288 0.1095 0
   vertex -0.115485 0.114492 0.5
   vertex -0.115485 0.114492 0
  endloop
 endfacet
 facet normal -0.932008 -0.362439 -0
  outer loop
   vertex -0.115485 0.114492 0.5
   vertex -0.117462 0.119574 0.5
   vertex -0.115485 0.114492 0
  endloop
 endfacet
 facet normal -0.932008 -0.362439 0
  outer loop
   vertex -0.115485 0.114492 0
   vertex -0.117462 0.119574 0.5
   vertex -0.117462 0.119574 0
  endloop
 endfacet
 facet normal -0.94693 -0.321439 -0
  outer loop
   vertex -0.117462 0.119574 0.5
   vertex -0.119215 0.124739 0.5
   vertex -0.117462 0.119574 0
  endloop
 endfacet
 facet normal -0.94693 -0.321439 0
  outer loop
   vertex -0.117462 0.119574 0
   vertex -0.119215 0.124739 0.5
   vertex -0.119215 0.124739 0
  endloop
 endfacet
 facet normal -0.96005 -0.279829 -0
  outer loop
   vertex -0.119215 0.124739 0.5
   vertex -0.120741 0.129975 0.5
   vertex -0.119215 0.124739 0
  endloop
 endfacet
 facet normal -0.96005 -0.279829 0
  outer loop
   vertex -0.119215 0.124739 0
   vertex -0.120741 0.129975 0.5
   vertex -0.120741 0.129975 0
  endloop
 endfacet
 facet normal -0.971342 -0.237686 -0
  outer loop
   vertex -0.120741 0.129975 0.5
   vertex -0.122037 0.135272 0.5
   vertex -0.120741 0.129975 0
  endloop
 endfacet
 facet normal -0.971342 -0.237686 0
  outer loop
   vertex -0.120741 0.129975 0
   vertex -0.122037 0.135272 0.5
   vertex -0.122037 0.135272 0
  endloop
 endfacet
 facet normal -0.980785 -0.19509 -0
  outer loop
   vertex -0.122037 0.135272 0.5
   vertex -0.123101 0.140621 0.5
   vertex -0.122037 0.135272 0
  endloop
 endfacet
 facet normal -0.980785 -0.19509 0
  outer loop
   vertex -0.122037 0.135272 0
   vertex -0.123101 0.140621 0.5
   vertex -0.123101 0.140621 0
  endloop
 endfacet
 facet normal -0.988361 -0.152124 -0
  outer loop
   vertex -0.123101 0.140621 0.5
   vertex -0.123931 0.146011 0.5
   vertex -0.123101 0.140621 0
  endloop
 endfacet
 facet normal -0.988361 -0.152124 0
  outer loop
   vertex -0.123101 0.140621 0
   vertex -0.123931 0.146011 0.5
   vertex -0.123931 0.146011 0
  endloop
 endfacet
 facet normal -0.994056 -0.108867 -0
  outer loop
   vertex -0.123931 0.146011 0.5
   vertex -0.124524 0.151433 0.5
   vertex -0.123931 0.146011 0
  endloop
 endfacet
 facet normal -0.994056 -0.108867 0
  outer loop
   vertex -0.123931 0.146011 0
   vertex -0.124524 0.151433 0.5
   vertex -0.124524 0.151433 0
  endloop
 endfacet
 facet normal -0.997859 -0.0654029 -0
  outer loop
   vertex -0.124524 0.151433 0.5
   vertex -0.124881 0.156875 0.5
   vertex -0.124524 0.151433 0
  endloop
 endfacet
 facet normal -0.997859 -0.0654029 0
  outer loop
   vertex -0.124524 0.151433 0
   vertex -0.124881 0.156875 0.5
   vertex -0.124881 0.156875 0
  endloop
 endfacet
 facet normal -0.999762 -0.0218146 -0
  outer loop
   vertex -0.124881 0.156875 0.5
   vertex -0.125 0.162327 0.5
   vertex -0.124881 0.156875 0
  endloop
 endfacet
 facet normal -0.999762 -0.0218146 0
  outer loop
   vertex -0.124881 0.156875 0
   vertex -0.125 0.162327 0.5
   vertex -0.125 0.162327 0
  endloop
 endfacet
 facet normal -0.999762 0.0218146 0
  outer loop
   vertex -0.125 0.162327 0.5
   vertex -0.124881 0.167779 0.5
   vertex -0.125 0.162327 0
  endloop
 endfacet
 facet normal 0 -0 1
  outer loop
   vertex 0.124524 0.151433 0.5
   vertex 0.124881 0.156875 0.5
   vertex 0 0.162327 0.5
  endloop
 endfacet
 facet normal 0 -0 1
  outer loop
   vertex 0.124881 0.156875 0.5
   vertex 0.125 0.162327 0.5
   vertex 0 0.162327 0.5
  endloop
 endfacet
 facet normal 0 0 1
  outer loop
   vertex 0 0.162327 0.5
   vertex 0.125 0.162327 0.5
   vertex 0.124881 0.167779 0.5
  endloop
 endfacet
 facet normal 0 -0 1
  outer loop
   vertex 0.122037 0.135272 0.5
   vertex 0.123101 0.140621 0.5
   vertex 0 0.162327 0.5
  endloop
 endfacet
 facet normal 0 -0 1
  outer loop
   vertex 0.123101 0.140621 0.5
   vertex 0.123931 0.146011 0.5
   vertex 0 0.162327 0.5
  endloop
 endfacet
 facet normal 0 0 1
  outer loop
   vertex 0 0.162327 0.5
   vertex 0.123931 0.146011 0.5
   vertex 0.124524 0.151433 0.5
  endloop
 endfacet
 facet normal 0 -0 1
  outer loop
   vertex 0.117462 0.119574 0.5
   vertex 0.119215 0.124739 0.5
   vertex 0 0.162327 0.5
  endloop
 endfacet
 facet normal 0 -0 1
  outer loop
   vertex 0.119215 0.124739 0.5
   vertex 0.120741 0.129975 0.5
   vertex 0 0.162327 0.5
  endloop
 endfacet
 facet normal 0 0 1
  outer loop
   vertex 0 0.162327 0.5
   vertex 0.120741 0.129975 0.5
   vertex 0.122037 0.135272 0.5
  endloop
 endfacet
 facet normal 0 -0 1
  outer loop
   vertex 0.110876 0.104608 0.5
   vertex 0.113288 0.1095 0.5
   vertex 0 0.162327 0.5
  endloop
 endfacet
 facet normal 0 -0 1
  outer loop
   vertex 0.113288 0.1095 0.5
   vertex 0.115485 0.114492 0.5
   vertex 0 0.162327 0.5
  endloop
 endfacet
 facet normal 0 0 1
  outer loop
   vertex 0 0.162327 0.5
   vertex 0.115485 0.114492 0.5
   vertex 0.117462 0.119574 0.5
  endloop
 endfacet
 facet normal 0 -0 1
  outer loop
   vertex 0.102394 0.0906299 0.5
   vertex 0.105424 0.0951645 0.5
   vertex 0 0.162327 0.5
  endloop
 endfacet
 facet normal 0 -0 1
  outer loop
   vertex 0.105424 0.0951645 0.5
   vertex 0.108253 0.099827 0.5
   vertex 0 0.162327 0.5
  endloop
 endfacet
 facet normal 0 0 1
  outer loop
   vertex 0 0.162327 0.5
   vertex 0.108253 0.099827 0.5
   vertex 0.110876 0.104608 0.5
  endloop
 endfacet
 facet normal 0 -0 1
  outer loop
   vertex 0.0921597 0.0778782 0.5
   vertex 0.0957556 0.0819785 0.5
   vertex 0 0.162327 0.5
  endloop
 endfacet
 facet normal 0 -0 1
  outer loop
   vertex 0.0957556 0.0819785 0.5
   vertex 0.0991692 0.0862318 0.5
   vertex 0 0.162327 0.5
  endloop
 endfacet
 facet normal 0 0 1
  outer loop
   vertex 0 0.162327 0.5
   vertex 0.0991692 0.0862318 0.5
   vertex 0.102394 0.0906299 0.5
  endloop
 endfacet
 facet normal 0 -0 1
  outer loop
   vertex 0.0803485 0.0665714 0.5
   vertex 0.0844488 0.0701673 0.5
   vertex 0 0.162327 0.5
  endloop
 endfacet
 facet normal 0 -0 1
  outer loop
   vertex 0.0844488 0.0701673 0.5
   vertex 0.0883883 0.0739386 0.5
   vertex 0 0.162327 0.5
  endloop
 endfacet
 facet normal 0 0 1
  outer loop
   vertex 0 0.162327 0.5
   vertex 0.0883883 0.0739386 0.5
   vertex 0.0921597 0.0778782 0.5
  endloop
 endfacet
 facet normal 0 -0 1
  outer loop
   vertex 0.0671625 0.0569031 0.5
   vertex 0.0716971 0.059933 0.5
   vertex 0 0.162327 0.5
  endloop
 endfacet
 facet normal 0 -0 1
  outer loop
   vertex 0.0716971 0.059933 0.5
   vertex 0.0760952 0.0631578 0.5
   vertex 0 0.162327 0.5
  endloop
 endfacet
 facet normal 0 0 1
  outer loop
   vertex 0 0.162327 0.5
   vertex 0.0760952 0.0631578 0.5
   vertex 0.0803485 0.0665714 0.5
  endloop
 endfacet
 facet normal 0 -0 1
  outer loop
   vertex 0.0528273 0.0490385 0.5
   vertex 0.0577186 0.0514506 0.5
   vertex 0 0.162327 0.5
  endloop
 endfacet
 facet normal 0 -0 1
  outer loop
   vertex 0.0577186 0.0514506 0.5
   vertex 0.0625 0.0540738 0.5
   vertex 0 0.162327 0.5
  endloop
 endfacet
 facet normal 0 0 1
  outer loop
   vertex 0 0.162327 0.5
   vertex 0.0625 0.0540738 0.5
   vertex 0.0671625 0.0569031 0.5
  endloop
 endfacet
 facet normal 0 -0 1
  outer loop
   vertex 0.0375882 0.0431124 0.5
   vertex 0.0427525 0.0448654 0.5
   vertex 0 0.162327 0.5
  endloop
 endfacet
 facet normal 0 -0 1
  outer loop
   vertex 0.0427525 0.0448654 0.5
   vertex 0.0478354 0.046842 0.5
   vertex 0 0.162327 0.5
  endloop
 endfacet
 facet normal 0 0 1
  outer loop
   vertex 0 0.162327 0.5
   vertex 0.0478354 0.046842 0.5
   vertex 0.0528273 0.0490385 0.5
  endloop
 endfacet
 facet normal 0 -0 1
  outer loop
   vertex 0.021706 0.039226 0.5
   vertex 0.027055 0.04029 0.5
   vertex 0 0.162327 0.5
  endloop
 endfacet
 facet normal 0 -0 1
  outer loop
   vertex 0.027055 0.04029 0.5
   vertex 0.0323524 0.0415863 0.5
   vertex 0 0.162327 0.5
  endloop
 endfacet
 facet normal 0 0 1
  outer loop
   vertex 0 0.162327 0.5
   vertex 0.0323524 0.0415863 0.5
   vertex 0.0375882 0.0431124 0.5
  endloop
 endfacet
 facet normal 0 -0 1
  outer loop
   vertex 0.00545242 0.037446 0.5
   vertex 0.0108945 0.0378026 0.5
   vertex 0 0.162327 0.5
  endloop
 endfacet
 facet normal 0 -0 1
  outer loop
   vertex 0.0108945 0.0378026 0.5
   vertex 0.0163158 0.0383964 0.5
   vertex 0 0.162327 0.5
  endloop
 endfacet
 facet normal 0 0 1
  outer loop
   vertex 0 0.162327 0.5
   vertex 0.0163158 0.0383964 0.5
   vertex 0.021706 0.039226 0.5
  endloop
 endfacet
 facet normal -0 0 1
  outer loop
   vertex -0.0108945 0.0378026 0.5
   vertex -0.00545242 0.037446 0.5
   vertex 0 0.162327 0.5
  endloop
 endfacet
 facet normal -0 0 1
  outer loop
   vertex -0.00545242 0.037446 0.5
   vertex 2.29621e-17 0.037327 0.5
   vertex 0 0.162327 0.5
  endloop
 endfacet
 facet normal 0 0 1
  outer loop
   vertex 0 0.162327 0.5
   vertex 2.29621e-17 0.037327 0.5
   vertex 0.00545242 0.037446 0.5
  endloop
 endfacet
 facet normal -0 0 1
  outer loop
   vertex -0.027055 0.04029 0.5
   vertex -0.021706 0.039226 0.5
   vertex 0 0.162327 0.5
  endloop
 endfacet
 facet normal -0 0 1
  outer loop
   vertex -0.021706 0.039226 0.5
   vertex -0.0163158 0.0383964 0.5
   vertex 0 0.162327 0.5
  endloop
 endfacet
 facet normal 0 0 1
  outer loop
   vertex 0 0.162327 0.5
   vertex -0.0163158 0.0383964 0.5
   vertex -0.0108945 0.0378026 0.5
  endloop
 endfacet
 facet normal -0 0 1
  outer loop
   vertex -0.0427525 0.0448654 0.5
   vertex -0.0375882 0.0431124 0.5
   vertex 0 0.162327 0.5
  endloop
 endfacet
 facet normal -0 0 1
  outer loop
   vertex -0.0375882 0.0431124 0.5
   vertex -0.0323524 0.0415863 0.5
   vertex 0 0.162327 0.5
  endloop
 endfacet
 facet normal 0 0 1
  outer loop
   vertex 0 0.162327 0.5
   vertex -0.0323524 0.0415863 0.5
   vertex -0.027055 0.04029 0.5
  endloop
 endfacet
 facet normal -0 0 1
  outer loop
   vertex -0.0577186 0.0514506 0.5
   vertex -0.0528273 0.0490385 0.5
   vertex 0 0.162327 0.5
  endloop
 endfacet
 facet normal -0 0 1
  outer loop
   vertex -0.0528273 0.0490385 0.5
   vertex -0.0478354 0.046842 0.5
   vertex 0 0.162327 0.5
  endloop
 endfacet
 facet normal 0 0 1
  outer loop
   vertex 0 0.162327 0.5
   vertex -0.0478354 0.046842 0.5
   vertex -0.0427525 0.0448654 0.5
  endloop
 endfacet
 facet normal -0 0 1
  outer loop
   vertex -0.0716971 0.059933 0.5
   vertex -0.0671625 0.0569031 0.5
   vertex 0 0.162327 0.5
  endloop
 endfacet
 facet normal -0 0 1
  outer loop
   vertex -0.0671625 0.0569031 0.5
   vertex -0.0625 0.0540738 0.5
   vertex 0 0.162327 0.5
  endloop
 endfacet
 facet normal 0 0 1
  outer loop
   vertex 0 0.162327 0.5
   vertex -0.0625 0.0540738 0.5
   vertex -0.0577186 0.0514506 0.5
  endloop
 endfacet
 facet normal -0 0 1
  outer loop
   vertex -0.0844488 0.0701673 0.5
   vertex -0.0803485 0.0665714 0.5
   vertex 0 0.162327 0.5
  endloop
 endfacet
 facet normal -0 0 1
  outer loop
   vertex -0.0803485 0.0665714 0.5
   vertex -0.0760952 0.0631578 0.5
   vertex 0 0.162327 0.5
  endloop
 endfacet
 facet normal 0 0 1
  outer loop
   vertex 0 0.162327 0.5
   vertex -0.0760952 0.0631578 0.5
   vertex -0.0716971 0.059933 0.5
  endloop
 endfacet
 facet normal -0 0 1
  outer loop
   vertex -0.0957556 0.0819785 0.5
   vertex -0.0921597 0.0778782 0.5
   vertex 0 0.162327 0.5
  endloop
 endfacet
 facet normal -0 0 1
  outer loop
   vertex -0.0921597 0.0778782 0.5
   vertex -0.0883883 0.0739386 0.5
   vertex 0 0.162327 0.5
  endloop
 endfacet
 facet normal 0 0 1
  outer loop
   vertex 0 0.162327 0.5
   vertex -0.0883883 0.0739386 0.5
   vertex -0.0844488 0.0701673 0.5
  endloop
 endfacet
 facet normal -0 0 1
  outer loop
   vertex -0.105424 0.0951645 0.5
   vertex -0.102394 0.0906299 0.5
   vertex 0 0.162327 0.5
  endloop
 endfacet
 facet normal -0 0 1
  outer loop
   vertex -0.102394 0.0906299 0.5
   vertex -0.0991692 0.0862318 0.5
   vertex 0 0.162327 0.5
  endloop
 endfacet
 facet normal 0 0 1
  outer loop
   vertex 0 0.162327 0.5
   vertex -0.0991692 0.0862318 0.5
   vertex -0.0957556 0.0819785 0.5
  endloop
 endfacet
 facet normal -0 0 1
  outer loop
   vertex -0.113288 0.1095 0.5
   vertex -0.110876 0.104608 0.5
   vertex 0 0.162327 0.5
  endloop
 endfacet
 facet normal -0 0 1
  outer loop
   vertex -0.110876 0.104608 0.5
   vertex -0.108253 0.099827 0.5
   vertex 0 0.162327 0.5
  endloop
 endfacet
 facet normal 0 0 1
  outer loop
   vertex 0 0.162327 0.5
   vertex -0.108253 0.099827 0.5
   vertex -0.105424 0.0951645 0.5
  endloop
 endfacet
 facet normal -0 0 1
  outer loop
   vertex -0.119215 0.124739 0.5
   vertex -0.117462 0.119574 0.5
   vertex 0 0.162327 0.5
  endloop
 endfacet
 facet normal -0 0 1
  outer loop
   vertex -0.117462 0.119574 0.5
   vertex -0.115485 0.114492 0.5
   vertex 0 0.162327 0.5
  endloop
 endfacet
 facet normal 0 0 1
  outer loop
   vertex 0 0.162327 0.5
   vertex -0.115485 0.114492 0.5
   vertex -0.113288 0.1095 0.5
  endloop
 endfacet
 facet normal -0 0 1
  outer loop
   vertex -0.123101 0.140621 0.5
   vertex -0.122037 0.135272 0.5
   vertex 0 0.162327 0.5
  endloop
 endfacet
 facet normal -0 0 1
  outer loop
   vertex -0.122037 0.135272 0.5
   vertex -0.120741 0.129975 0.5
   vertex 0 0.162327 0.5
  endloop
 endfacet
 facet normal 0 0 1
  outer loop
   vertex 0 0.162327 0.5
   vertex -0.120741 0.129975 0.5
   vertex -0.119215 0.124739 0.5
  endloop
 endfacet
 facet normal -0 0 1
  outer loop
   vertex -0.124881 0.156875 0.5
   vertex -0.124524 0.151433 0.5
   vertex 0 0.162327 0.5
  endloop
 endfacet
 facet normal -0 0 1
  outer loop
   vertex -0.124524 0.151433 0.5
   vertex -0.123931 0.146011 0.5
   vertex 0 0.162327 0.5
  endloop
 endfacet
 facet normal 0 0 1
  outer loop
   vertex 0 0.162327 0.5
   vertex -0.123931 0.146011 0.5
   vertex -0.123101 0.140621 0.5
  endloop
 endfacet
 facet normal 0 0 1
  outer loop
   vertex -0.124524 0.173221 0.5
   vertex -0.124881 0.167779 0.5
   vertex 0 0.162327 0.5
  endloop
 endfacet
 facet normal 0 0 1
  outer loop
   vertex -0.124881 0.167779 0.5
   vertex -0.125 0.162327 0.5
   vertex 0 0.162327 0.5
  endloop
 endfacet
 facet normal 0 0 1
  outer loop
   vertex 0 0.162327 0.5
   vertex -0.125 0.162327 0.5
   vertex -0.124881 0.156875 0.5
  endloop
 endfacet
 facet normal 0 0 1
  outer loop
   vertex -0.122037 0.189382 0.5
   vertex -0.123101 0.184033 0.5
   vertex 0 0.162327 0.5
  endloop
 endfacet
 facet normal 0 0 1
  outer loop
   vertex -0.123101 0.184033 0.5
   vertex -0.123931 0.178643 0.5
   vertex 0 0.162327 0.5
  endloop
 endfacet
 facet normal 0 0 1
  outer loop
   vertex 0 0.162327 0.5
   vertex -0.123931 0.178643 0.5
   vertex -0.124524 0.173221 0.5
  endloop
 endfacet
 facet normal 0 0 1
  outer loop
   vertex -0.117462 0.20508 0.5
   vertex -0.119215 0.199915 0.5
   vertex 0 0.162327 0.5
  endloop
 endfacet
 facet normal 0 0 1
  outer loop
   vertex -0.119215 0.199915 0.5
   vertex -0.120741 0.194679 0.5
   vertex 0 0.162327 0.5
  endloop
 endfacet
 facet normal 0 0 1
  outer loop
   vertex 0 0.162327 0.5
   vertex -0.120741 0.194679 0.5
   vertex -0.122037 0.189382 0.5
  endloop
 endfacet
 facet normal 0 0 1
  outer loop
   vertex -0.110876 0.220046 0.5
   vertex -0.113288 0.215154 0.5
   vertex 0 0.162327 0.5
  endloop
 endfacet
 facet normal 0 0 1
  outer loop
   vertex -0.113288 0.215154 0.5
   vertex -0.115485 0.210162 0.5
   vertex 0 0.162327 0.5
  endloop
 endfacet
 facet normal 0 0 1
  outer loop
   vertex 0 0.162327 0.5
   vertex -0.115485 0.210162 0.5
   vertex -0.117462 0.20508 0.5
  endloop
 endfacet
 facet normal 0 0 1
  outer loop
   vertex -0.102394 0.234024 0.5
   vertex -0.105424 0.229489 0.5
   vertex 0 0.162327 0.5
  endloop
 endfacet
 facet normal 0 0 1
  outer loop
   vertex -0.105424 0.229489 0.5
   vertex -0.108253 0.224827 0.5
   vertex 0 0.162327 0.5
  endloop
 endfacet
 facet normal 0 0 1
  outer loop
   vertex 0 0.162327 0.5
   vertex -0.108253 0.224827 0.5
   vertex -0.110876 0.220046 0.5
  endloop
 endfacet
 facet normal 0 0 1
  outer loop
   vertex -0.0921597 0.246776 0.5
   vertex -0.0957556 0.242675 0.5
   vertex 0 0.162327 0.5
  endloop
 endfacet
 facet normal 0 0 1
  outer loop
   vertex -0.0957556 0.242675 0.5
   vertex -0.0991692 0.238422 0.5
   vertex 0 0.162327 0.5
  endloop
 endfacet
 facet normal 0 0 1
  outer loop
   vertex 0 0.162327 0.5
   vertex -0.0991692 0.238422 0.5
   vertex -0.102394 0.234024 0.5
  endloop
 endfacet
 facet normal 0 0 1
  outer loop
   vertex -0.0803485 0.258083 0.5
   vertex -0.0844488 0.254487 0.5
   vertex 0 0.162327 0.5
  endloop
 endfacet
 facet normal 0 0 1
  outer loop
   vertex -0.0844488 0.254487 0.5
   vertex -0.0883883 0.250715 0.5
   vertex 0 0.162327 0.5
  endloop
 endfacet
 facet normal 0 0 1
  outer loop
   vertex 0 0.162327 0.5
   vertex -0.0883883 0.250715 0.5
   vertex -0.0921597 0.246776 0.5
  endloop
 endfacet
 facet normal 0 0 1
  outer loop
   vertex -0.0671625 0.267751 0.5
   vertex -0.0716971 0.264721 0.5
   vertex 0 0.162327 0.5
  endloop
 endfacet
 facet normal 0 0 1
  outer loop
   vertex -0.0716971 0.264721 0.5
   vertex -0.0760952 0.261496 0.5
   vertex 0 0.162327 0.5
  endloop
 endfacet
 facet normal 0 0 1
  outer loop
   vertex 0 0.162327 0.5
   vertex -0.0760952 0.261496 0.5
   vertex -0.0803485 0.258083 0.5
  endloop
 endfacet
 facet normal 0 0 1
  outer loop
   vertex -0.0528273 0.275615 0.5
   vertex -0.0577186 0.273203 0.5
   vertex 0 0.162327 0.5
  endloop
 endfacet
 facet normal 0 0 1
  outer loop
   vertex -0.0577186 0.273203 0.5
   vertex -0.0625 0.27058 0.5
   vertex 0 0.162327 0.5
  endloop
 endfacet
 facet normal 0 0 1
  outer loop
   vertex 0 0.162327 0.5
   vertex -0.0625 0.27058 0.5
   vertex -0.0671625 0.267751 0.5
  endloop
 endfacet
 facet normal 0 0 1
  outer loop
   vertex -0.0375882 0.281542 0.5
   vertex -0.0427525 0.279789 0.5
   vertex 0 0.162327 0.5
  endloop
 endfacet
 facet normal 0 0 1
  outer loop
   vertex -0.0427525 0.279789 0.5
   vertex -0.0478354 0.277812 0.5
   vertex 0 0.162327 0.5
  endloop
 endfacet
 facet normal 0 0 1
  outer loop
   vertex 0 0.162327 0.5
   vertex -0.0478354 0.277812 0.5
   vertex -0.0528273 0.275615 0.5
  endloop
 endfacet
 facet normal 0 0 1
  outer loop
   vertex -0.021706 0.285428 0.5
   vertex -0.027055 0.284364 0.5
   vertex 0 0.162327 0.5
  endloop
 endfacet
 facet normal 0 0 1
  outer loop
   vertex -0.027055 0.284364 0.5
   vertex -0.0323524 0.283068 0.5
   vertex 0 0.162327 0.5
  endloop
 endfacet
 facet normal 0 0 1
  outer loop
   vertex 0 0.162327 0.5
   vertex -0.0323524 0.283068 0.5
   vertex -0.0375882 0.281542 0.5
  endloop
 endfacet
 facet normal 0 0 1
  outer loop
   vertex -0.00545242 0.287208 0.5
   vertex -0.0108945 0.286851 0.5
   vertex 0 0.162327 0.5
  endloop
 endfacet
 facet normal 0 0 1
  outer loop
   vertex -0.0108945 0.286851 0.5
   vertex -0.0163158 0.286258 0.5
   vertex 0 0.162327 0.5
  endloop
 endfacet
 facet normal 0 0 1
  outer loop
   vertex 0 0.162327 0.5
   vertex -0.0163158 0.286258 0.5
   vertex -0.021706 0.285428 0.5
  endloop
 endfacet
 facet normal 0 0 1
  outer loop
   vertex 0.0108945 0.286851 0.5
   vertex 0.00545242 0.287208 0.5
   vertex 0 0.162327 0.5
  endloop
 endfacet
 facet normal 0 0 1
  outer loop
   vertex 0.00545242 0.287208 0.5
   vertex -7.65404e-18 0.287327 0.5
   vertex 0 0.162327 0.5
  endloop
 endfacet
 facet normal 0 0 1
  outer loop
   vertex 0 0.162327 0.5
   vertex -7.65404e-18 0.287327 0.5
   vertex -0.00545242 0.287208 0.5
  endloop
 endfacet
 facet normal 0 0 1
  outer loop
   vertex 0.027055 0.284364 0.5
   vertex 0.021706 0.285428 0.5
   vertex 0 0.162327 0.5
  endloop
 endfacet
 facet normal 0 0 1
  outer loop
   vertex 0.021706 0.285428 0.5
   vertex 0.0163158 0.286258 0.5
   vertex 0 0.162327 0.5
  endloop
 endfacet
 facet normal 0 0 1
  outer loop
   vertex 0 0.162327 0.5
   vertex 0.0163158 0.286258 0.5
   vertex 0.0108945 0.286851 0.5
  endloop
 endfacet
 facet normal 0 0 1
  outer loop
   vertex 0.0427525 0.279789 0.5
   vertex 0.0375882 0.281542 0.5
   vertex 0 0.162327 0.5
  endloop
 endfacet
 facet normal 0 0 1
  outer loop
   vertex 0.0375882 0.281542 0.5
   vertex 0.0323524 0.283068 0.5
   vertex 0 0.162327 0.5
  endloop
 endfacet
 facet normal 0 0 1
  outer loop
   vertex 0 0.162327 0.5
   vertex 0.0323524 0.283068 0.5
   vertex 0.027055 0.284364 0.5
  endloop
 endfacet
 facet normal 0 0 1
  outer loop
   vertex 0.0577186 0.273203 0.5
   vertex 0.0528273 0.275615 0.5
   vertex 0 0.162327 0.5
  endloop
 endfacet
 facet normal 0 0 1
  outer loop
   vertex 0.0528273 0.275615 0.5
   vertex 0.0478354 0.277812 0.5
   vertex 0 0.162327 0.5
  endloop
 endfacet
 facet normal 0 0 1
  outer loop
   vertex 0 0.162327 0.5
   vertex 0.0478354 0.277812 0.5
   vertex 0.0427525 0.279789 0.5
  endloop
 endfacet
 facet normal 0 0 1
  outer loop
   vertex 0.0716971 0.264721 0.5
   vertex 0.0671625 0.267751 0.5
   vertex 0 0.162327 0.5
  endloop
 endfacet
 facet normal 0 0 1
  outer loop
   vertex 0.0671625 0.267751 0.5
   vertex 0.0625 0.27058 0.5
   vertex 0 0.162327 0.5
  endloop
 endfacet
 facet normal 0 0 1
  outer loop
   vertex 0 0.162327 0.5
   vertex 0.0625 0.27058 0.5
   vertex 0.0577186 0.273203 0.5
  endloop
 endfacet
 facet normal 0 0 1
  outer loop
   vertex 0.0844488 0.254487 0.5
   vertex 0.0803485 0.258083 0.5
   vertex 0 0.162327 0.5
  endloop
 endfacet
 facet normal 0 0 1
  outer loop
   vertex 0.0803485 0.258083 0.5
   vertex 0.0760952 0.261496 0.5
   vertex 0 0.162327 0.5
  endloop
 endfacet
 facet normal 0 0 1
  outer loop
   vertex 0 0.162327 0.5
   vertex 0.0760952 0.261496 0.5
   vertex 0.0716971 0.264721 0.5
  endloop
 endfacet
 facet normal 0 0 1
  outer loop
   vertex 0.0957556 0.242675 0.5
   vertex 0.0921597 0.246776 0.5
   vertex 0 0.162327 0.5
  endloop
 endfacet
 facet normal 0 0 1
  outer loop
   vertex 0.0921597 0.246776 0.5
   vertex 0.0883883 0.250715 0.5
   vertex 0 0.162327 0.5
  endloop
 endfacet
 facet normal 0 0 1
  outer loop
   vertex 0 0.162327 0.5
   vertex 0.0883883 0.250715 0.5
   vertex 0.0844488 0.254487 0.5
  endloop
 endfacet
 facet normal 0 0 1
  outer loop
   vertex 0.105424 0.229489 0.5
   vertex 0.102394 0.234024 0.5
   vertex 0 0.162327 0.5
  endloop
 endfacet
 facet normal 0 0 1
  outer loop
   vertex 0.102394 0.234024 0.5
   vertex 0.0991692 0.238422 0.5
   vertex 0 0.162327 0.5
  endloop
 endfacet
 facet normal 0 0 1
  outer loop
   vertex 0 0.162327 0.5
   vertex 0.0991692 0.238422 0.5
   vertex 0.0957556 0.242675 0.5
  endloop
 endfacet
 facet normal 0 0 1
  outer loop
   vertex 0.113288 0.215154 0.5
   vertex 0.110876 0.220046 0.5
   vertex 0 0.162327 0.5
  endloop
 endfacet
 facet normal 0 0 1
  outer loop
   vertex 0.110876 0.220046 0.5
   vertex 0.108253 0.224827 0.5
   vertex 0 0.162327 0.5
  endloop
 endfacet
 facet normal 0 0 1
  outer loop
   vertex 0 0.162327 0.5
   vertex 0.108253 0.224827 0.5
   vertex 0.105424 0.229489 0.5
  endloop
 endfacet
 facet normal 0 0 1
  outer loop
   vertex 0.119215 0.199915 0.5
   vertex 0.117462 0.20508 0.5
   vertex 0 0.162327 0.5
  endloop
 endfacet
 facet normal 0 0 1
  outer loop
   vertex 0.117462 0.20508 0.5
   vertex 0.115485 0.210162 0.5
   vertex 0 0.162327 0.5
  endloop
 endfacet
 facet normal 0 0 1
  outer loop
   vertex 0 0.162327 0.5
   vertex 0.115485 0.210162 0.5
   vertex 0.113288 0.215154 0.5
  endloop
 endfacet
 facet normal 0 0 1
  outer loop
   vertex 0.123101 0.184033 0.5
   vertex 0.122037 0.189382 0.5
   vertex 0 0.162327 0.5
  endloop
 endfacet
 facet normal 0 0 1
  outer loop
   vertex 0.122037 0.189382 0.5
   vertex 0.120741 0.194679 0.5
   vertex 0 0.162327 0.5
  endloop
 endfacet
 facet normal 0 0 1
  outer loop
   vertex 0 0.162327 0.5
   vertex 0.120741 0.194679 0.5
   vertex 0.119215 0.199915 0.5
  endloop
 endfacet
 facet normal 0 0 1
  outer loop
   vertex 0.124881 0.167779 0.5
   vertex 0.124524 0.173221 0.5
   vertex 0 0.162327 0.5
  endloop
 endfacet
 facet normal 0 0 1
  outer loop
   vertex 0.124524 0.173221 0.5
   vertex 0.123931 0.178643 0.5
   vertex 0 0.162327 0.5
  endloop
 endfacet
 facet normal 0 0 1
  outer loop
   vertex 0 0.162327 0.5
   vertex 0.123931 0.178643 0.5
   vertex 0.123101 0.184033 0.5
  endloop
 endfacet
endsolid zone0
