solid zone0
 facet normal 0 -0 -1
  outer loop
   vertex 0.124524 0.171426 0
   vertex 0.124881 0.165984 0
   vertex 0 0.160531 0
  endloop
 endfacet
 facet normal 0 -0 -1
  outer loop
   vertex 0.124881 0.165984 0
   vertex 0.125 0.160531 0
   vertex 0 0.160531 0
  endloop
 endfacet
 facet normal 0 0 -1
  outer loop
   vertex 0 0.160531 0
   vertex 0.125 0.160531 0
   vertex 0.124881 0.155079 0
  endloop
 endfacet
 facet normal 0 -0 -1
  outer loop
   vertex 0.122037 0.187586 0
   vertex 0.123101 0.182237 0
   vertex 0 0.160531 0
  endloop
 endfacet
 facet normal 0 -0 -1
  outer loop
   vertex 0.123101 0.182237 0
   vertex 0.123931 0.176847 0
   vertex 0 0.160531 0
  endloop
 endfacet
 facet normal 0 0 -1
  outer loop
   vertex 0 0.160531 0
   vertex 0.123931 0.176847 0
   vertex 0.124524 0.171426 0
  endloop
 endfacet
 facet normal 0 -0 -1
  outer loop
   vertex 0.117462 0.203284 0
   vertex 0.119215 0.19812 0
   vertex 0 0.160531 0
  endloop
 endfacet
 facet normal 0 -0 -1
  outer loop
   vertex 0.119215 0.19812 0
   vertex 0.120741 0.192884 0
   vertex 0 0.160531 0
  endloop
 endfacet
 facet normal 0 0 -1
  outer loop
   vertex 0 0.160531 0
   vertex 0.120741 0.192884 0
   vertex 0.122037 0.187586 0
  endloop
 endfacet
 facet normal 0 -0 -1
  outer loop
   vertex 0.110876 0.21825 0
   vertex 0.113288 0.213359 0
   vertex 0 0.160531 0
  endloop
 endfacet
 facet normal 0 -0 -1
  outer loop
   vertex 0.113288 0.213359 0
   vertex 0.115485 0.208367 0
   vertex 0 0.160531 0
  endloop
 endfacet
 facet normal 0 0 -1
  outer loop
   vertex 0 0.160531 0
   vertex 0.115485 0.208367 0
   vertex 0.117462 0.203284 0
  endloop
 endfacet
 facet normal 0 -0 -1
  outer loop
   vertex 0.102394 0.232228 0
   vertex 0.105424 0.227694 0
   vertex 0 0.160531 0
  endloop
 endfacet
 facet normal 0 -0 -1
  outer loop
   vertex 0.105424 0.227694 0
   vertex 0.108253 0.223031 0
   vertex 0 0.160531 0
  endloop
 endfacet
 facet normal 0 0 -1
  outer loop
   vertex 0 0.160531 0
   vertex 0.108253 0.223031 0
   vertex 0.110876 0.21825 0
  endloop
 endfacet
 facet normal 0 -0 -1
  outer loop
   vertex 0.0921597 0.24498 0
   vertex 0.0957556 0.24088 0
   vertex 0 0.160531 0
  endloop
 endfacet
 facet normal 0 -0 -1
  outer loop
   vertex 0.0957556 0.24088 0
   vertex 0.0991692 0.236627 0
   vertex 0 0.160531 0
  endloop
 endfacet
 facet normal 0 0 -1
  outer loop
   vertex 0 0.160531 0
   vertex 0.0991692 0.236627 0
   vertex 0.102394 0.232228 0
  endloop
 endfacet
 facet normal 0 -0 -1
  outer loop
   vertex 0.0803485 0.256287 0
   vertex 0.0844488 0.252691 0
   vertex 0 0.160531 0
  endloop
 endfacet
 facet normal 0 -0 -1
  outer loop
   vertex 0.0844488 0.252691 0
   vertex 0.0883883 0.24892 0
   vertex 0 0.160531 0
  endloop
 endfacet
 facet normal 0 0 -1
  outer loop
   vertex 0 0.160531 0
   vertex 0.0883883 0.24892 0
   vertex 0.0921597 0.24498 0
  endloop
 endfacet
 facet normal 0 -0 -1
  outer loop
   vertex 0.0671625 0.265955 0
   vertex 0.0716971 0.262925 0
   vertex 0 0.160531 0
  endloop
 endfacet
 facet normal 0 -0 -1
  outer loop
   vertex 0.0716971 0.262925 0
   vertex 0.0760952 0.2597 0
   vertex 0 0.160531 0
  endloop
 endfacet
 facet normal 0 0 -1
  outer loop
   vertex 0 0.160531 0
   vertex 0.0760952 0.2597 0
   vertex 0.0803485 0.256287 0
  endloop
 endfacet
 facet normal 0 -0 -1
  outer loop
   vertex 0.0528273 0.27382 0
   vertex 0.0577186 0.271408 0
   vertex 0 0.160531 0
  endloop
 endfacet
 facet normal 0 -0 -1
  outer loop
   vertex 0.0577186 0.271408 0
   vertex 0.0625 0.268784 0
   vertex 0 0.160531 0
  endloop
 endfacet
 facet normal 0 0 -1
  outer loop
   vertex 0 0.160531 0
   vertex 0.0625 0.268784 0
   vertex 0.0671625 0.265955 0
  endloop
 endfacet
 facet normal 0 -0 -1
  outer loop
   vertex 0.0375882 0.279746 0
   vertex 0.0427525 0.277993 0
   vertex 0 0.160531 0
  endloop
 endfacet
 facet normal 0 -0 -1
  outer loop
   vertex 0.0427525 0.277993 0
   vertex 0.0478354 0.276016 0
   vertex 0 0.160531 0
  endloop
 endfacet
 facet normal 0 0 -1
  outer loop
   vertex 0 0.160531 0
   vertex 0.0478354 0.276016 0
   vertex 0.0528273 0.27382 0
  endloop
 endfacet
 facet normal 0 -0 -1
  outer loop
   vertex 0.021706 0.283632 0
   vertex 0.027055 0.282568 0
   vertex 0 0.160531 0
  endloop
 endfacet
 facet normal 0 -0 -1
  outer loop
   vertex 0.027055 0.282568 0
   vertex 0.0323524 0.281272 0
   vertex 0 0.160531 0
  endloop
 endfacet
 facet normal 0 0 -1
  outer loop
   vertex 0 0.160531 0
   vertex 0.0323524 0.281272 0
   vertex 0.0375882 0.279746 0
  endloop
 endfacet
 facet normal 0 -0 -1
  outer loop
   vertex 0.00545242 0.285412 0
   vertex 0.0108945 0.285056 0
   vertex 0 0.160531 0
  endloop
 endfacet
 facet normal 0 -0 -1
  outer loop
   vertex 0.0108945 0.285056 0
   vertex 0.0163158 0.284462 0
   vertex 0 0.160531 0
  endloop
 endfacet
 facet normal 0 0 -1
  outer loop
   vertex 0 0.160531 0
   vertex 0.0163158 0.284462 0
   vertex 0.021706 0.283632 0
  endloop
 endfacet
 facet normal 0 0 -1
  outer loop
   vertex -0.0108945 0.285056 0
   vertex -0.00545242 0.285412 0
   vertex 0 0.160531 0
  endloop
 endfacet
 facet normal 0 0 -1
  outer loop
   vertex -0.00545242 0.285412 0
   vertex -7.65404e-18 0.285531 0
   vertex 0 0.160531 0
  endloop
 endfacet
 facet normal 0 0 -1
  outer loop
   vertex 0 0.160531 0
   vertex -7.65404e-18 0.285531 0
   vertex 0.00545242 0.285412 0
  endloop
 endfacet
 facet normal 0 0 -1
  outer loop
   vertex -0.027055 0.282568 0
   vertex -0.021706 0.283632 0
   vertex 0 0.160531 0
  endloop
 endfacet
 facet normal 0 0 -1
  outer loop
   vertex -0.021706 0.283632 0
   vertex -0.0163158 0.284462 0
   vertex 0 0.160531 0
  endloop
 endfacet
 facet normal 0 0 -1
  outer loop
   vertex 0 0.160531 0
   vertex -0.0163158 0.284462 0
   vertex -0.0108945 0.285056 0
  endloop
 endfacet
 facet normal 0 0 -1
  outer loop
   vertex -0.0427525 0.277993 0
   vertex -0.0375882 0.279746 0
   vertex 0 0.160531 0
  endloop
 endfacet
 facet normal 0 0 -1
  outer loop
   vertex -0.0375882 0.279746 0
   vertex -0.0323524 0.281272 0
   vertex 0 0.160531 0
  endloop
 endfacet
 facet normal 0 0 -1
  outer loop
   vertex 0 0.160531 0
   vertex -0.0323524 0.281272 0
   vertex -0.027055 0.282568 0
  endloop
 endfacet
 facet normal 0 0 -1
  outer loop
   vertex -0.0577186 0.271408 0
   vertex -0.0528273 0.27382 0
   vertex 0 0.160531 0
  endloop
 endfacet
 facet normal 0 0 -1
  outer loop
   vertex -0.0528273 0.27382 0
   vertex -0.0478354 0.276016 0
   vertex 0 0.160531 0
  endloop
 endfacet
 facet normal 0 0 -1
  outer loop
   vertex 0 0.160531 0
   vertex -0.0478354 0.276016 0
   vertex -0.0427525 0.277993 0
  endloop
 endfacet
 facet normal 0 0 -1
  outer loop
   vertex -0.0716971 0.262925 0
   vertex -0.0671625 0.265955 0
   vertex 0 0.160531 0
  endloop
 endfacet
 facet normal 0 0 -1
  outer loop
   vertex -0.0671625 0.265955 0
   vertex -0.0625 0.268784 0
   vertex 0 0.160531 0
  endloop
 endfacet
 facet normal 0 0 -1
  outer loop
   vertex 0 0.160531 0
   vertex -0.0625 0.268784 0
   vertex -0.0577186 0.271408 0
  endloop
 endfacet
 facet normal 0 0 -1
  outer loop
   vertex -0.0844488 0.252691 0
   vertex -0.0803485 0.256287 0
   vertex 0 0.160531 0
  endloop
 endfacet
 facet normal 0 0 -1
  outer loop
   vertex -0.0803485 0.256287 0
   vertex -0.0760952 0.2597 0
   vertex 0 0.160531 0
  endloop
 endfacet
 facet normal 0 0 -1
  outer loop
   vertex 0 0.160531 0
   vertex -0.0760952 0.2597 0
   vertex -0.0716971 0.262925 0
  endloop
 endfacet
 facet normal 0 0 -1
  outer loop
   vertex -0.0957556 0.24088 0
   vertex -0.0921597 0.24498 0
   vertex 0 0.160531 0
  endloop
 endfacet
 facet normal 0 0 -1
  outer loop
   vertex -0.0921597 0.24498 0
   vertex -0.0883883 0.24892 0
   vertex 0 0.160531 0
  endloop
 endfacet
 facet normal 0 0 -1
  outer loop
   vertex 0 0.160531 0
   vertex -0.0883883 0.24892 0
   vertex -0.0844488 0.252691 0
  endloop
 endfacet
 facet normal 0 0 -1
  outer loop
   vertex -0.105424 0.227694 0
   vertex -0.102394 0.232228 0
   vertex 0 0.160531 0
  endloop
 endfacet
 facet normal 0 0 -1
  outer loop
   vertex -0.102394 0.232228 0
   vertex -0.0991692 0.236627 0
   vertex 0 0.160531 0
  endloop
 endfacet
 facet normal 0 0 -1
  outer loop
   vertex 0 0.160531 0
   vertex -0.0991692 0.236627 0
   vertex -0.0957556 0.24088 0
  endloop
 endfacet
 facet normal 0 0 -1
  outer loop
   vertex -0.113288 0.213359 0
   vertex -0.110876 0.21825 0
   vertex 0 0.160531 0
  endloop
 endfacet
 facet normal 0 0 -1
  outer loop
   vertex -0.110876 0.21825 0
   vertex -0.108253 0.223031 0
   vertex 0 0.160531 0
  endloop
 endfacet
 facet normal 0 0 -1
  outer loop
   vertex 0 0.160531 0
   vertex -0.108253 0.223031 0
   vertex -0.105424 0.227694 0
  endloop
 endfacet
 facet normal 0 0 -1
  outer loop
   vertex -0.119215 0.19812 0
   vertex -0.117462 0.203284 0
   vertex 0 0.160531 0
  endloop
 endfacet
 facet normal 0 0 -1
  outer loop
   vertex -0.117462 0.203284 0
   vertex -0.115485 0.208367 0
   vertex 0 0.160531 0
  endloop
 endfacet
 facet normal 0 0 -1
  outer loop
   vertex 0 0.160531 0
   vertex -0.115485 0.208367 0
   vertex -0.113288 0.213359 0
  endloop
 endfacet
 facet normal 0 0 -1
  outer loop
   vertex -0.123101 0.182237 0
   vertex -0.122037 0.187586 0
   vertex 0 0.160531 0
  endloop
 endfacet
 facet normal 0 0 -1
  outer loop
   vertex -0.122037 0.187586 0
   vertex -0.120741 0.192884 0
   vertex 0 0.160531 0
  endloop
 endfacet
 facet normal 0 0 -1
  outer loop
   vertex 0 0.160531 0
   vertex -0.120741 0.192884 0
   vertex -0.119215 0.19812 0
  endloop
 endfacet
 facet normal 0 0 -1
  outer loop
   vertex -0.124881 0.165984 0
   vertex -0.124524 0.171426 0
   vertex 0 0.160531 0
  endloop
 endfacet
 facet normal 0 0 -1
  outer loop
   vertex -0.124524 0.171426 0
   vertex -0.123931 0.176847 0
   vertex 0 0.160531 0
  endloop
 endfacet
 facet normal 0 0 -1
  outer loop
   vertex 0 0.160531 0
   vertex -0.123931 0.176847 0
   vertex -0.123101 0.182237 0
  endloop
 endfacet
 facet normal 0 0 -1
  outer loop
   vertex -0.124524 0.149637 0
   vertex -0.124881 0.155079 0
   vertex 0 0.160531 0
  endloop
 endfacet
 facet normal 0 0 -1
  outer loop
   vertex -0.124881 0.155079 0
   vertex -0.125 0.160531 0
   vertex 0 0.160531 0
  endloop
 endfacet
 facet normal 0 0 -1
  outer loop
   vertex 0 0.160531 0
   vertex -0.125 0.160531 0
   vertex -0.124881 0.165984 0
  endloop
 endfacet
 facet normal 0 0 -1
  outer loop
   vertex -0.122037 0.133476 0
   vertex -0.123101 0.138825 0
   vertex 0 0.160531 0
  endloop
 endfacet
 facet normal 0 0 -1
  outer loop
   vertex -0.123101 0.138825 0
   vertex -0.123931 0.144216 0
   vertex 0 0.160531 0
  endloop
 endfacet
 facet normal 0 0 -1
  outer loop
   vertex 0 0.160531 0
   vertex -0.123931 0.144216 0
   vertex -0.124524 0.149637 0
  endloop
 endfacet
 facet normal 0 0 -1
  outer loop
   vertex -0.117462 0.117779 0
   vertex -0.119215 0.122943 0
   vertex 0 0.160531 0
  endloop
 endfacet
 facet normal 0 0 -1
  outer loop
   vertex -0.119215 0.122943 0
   vertex -0.120741 0.128179 0
   vertex 0 0.160531 0
  endloop
 endfacet
 facet normal 0 0 -1
  outer loop
   vertex 0 0.160531 0
   vertex -0.120741 0.128179 0
   vertex -0.122037 0.133476 0
  endloop
 endfacet
 facet normal 0 0 -1
  outer loop
   vertex -0.110876 0.102813 0
   vertex -0.113288 0.107704 0
   vertex 0 0.160531 0
  endloop
 endfacet
 facet normal 0 0 -1
  outer loop
   vertex -0.113288 0.107704 0
   vertex -0.115485 0.112696 0
   vertex 0 0.160531 0
  endloop
 endfacet
 facet normal 0 0 -1
  outer loop
   vertex 0 0.160531 0
   vertex -0.115485 0.112696 0
   vertex -0.117462 0.117779 0
  endloop
 endfacet
 facet normal 0 0 -1
  outer loop
   vertex -0.102394 0.0888343 0
   vertex -0.105424 0.0933689 0
   vertex 0 0.160531 0
  endloop
 endfacet
 facet normal 0 0 -1
  outer loop
   vertex -0.105424 0.0933689 0
   vertex -0.108253 0.0980313 0
   vertex 0 0.160531 0
  endloop
 endfacet
 facet normal 0 0 -1
  outer loop
   vertex 0 0.160531 0
   vertex -0.108253 0.0980313 0
   vertex -0.110876 0.102813 0
  endloop
 endfacet
 facet normal 0 0 -1
  outer loop
   vertex -0.0921597 0.0760825 0
   vertex -0.0957556 0.0801829 0
   vertex 0 0.160531 0
  endloop
 endfacet
 facet normal 0 0 -1
  outer loop
   vertex -0.0957556 0.0801829 0
   vertex -0.0991692 0.0844361 0
   vertex 0 0.160531 0
  endloop
 endfacet
 facet normal 0 0 -1
  outer loop
   vertex 0 0.160531 0
   vertex -0.0991692 0.0844361 0
   vertex -0.102394 0.0888343 0
  endloop
 endfacet
 facet normal 0 0 -1
  outer loop
   vertex -0.0803485 0.0647758 0
   vertex -0.0844488 0.0683717 0
   vertex 0 0.160531 0
  endloop
 endfacet
 facet normal 0 0 -1
  outer loop
   vertex -0.0844488 0.0683717 0
   vertex -0.0883883 0.072143 0
   vertex 0 0.160531 0
  endloop
 endfacet
 facet normal 0 0 -1
  outer loop
   vertex 0 0.160531 0
   vertex -0.0883883 0.072143 0
   vertex -0.0921597 0.0760825 0
  endloop
 endfacet
 facet normal 0 0 -1
  outer loop
   vertex -0.0671625 0.0551074 0
   vertex -0.0716971 0.0581373 0
   vertex 0 0.160531 0
  endloop
 endfacet
 facet normal 0 0 -1
  outer loop
   vertex -0.0716971 0.0581373 0
   vertex -0.0760952 0.0613622 0
   vertex 0 0.160531 0
  endloop
 endfacet
 facet normal 0 0 -1
  outer loop
   vertex 0 0.160531 0
   vertex -0.0760952 0.0613622 0
   vertex -0.0803485 0.0647758 0
  endloop
 endfacet
 facet normal 0 0 -1
  outer loop
   vertex -0.0528273 0.0472428 0
   vertex -0.0577186 0.049655 0
   vertex 0 0.160531 0
  endloop
 endfacet
 facet normal 0 0 -1
  outer loop
   vertex -0.0577186 0.049655 0
   vertex -0.0625 0.0522782 0
   vertex 0 0.160531 0
  endloop
 endfacet
 facet normal 0 0 -1
  outer loop
   vertex 0 0.160531 0
   vertex -0.0625 0.0522782 0
   vertex -0.0671625 0.0551074 0
  endloop
 endfacet
 facet normal 0 0 -1
  outer loop
   vertex -0.0375882 0.0413167 0
   vertex -0.0427525 0.0430697 0
   vertex 0 0.160531 0
  endloop
 endfacet
 facet normal 0 0 -1
  outer loop
   vertex -0.0427525 0.0430697 0
   vertex -0.0478354 0.0450464 0
   vertex 0 0.160531 0
  endloop
 endfacet
 facet normal 0 0 -1
  outer loop
   vertex 0 0.160531 0
   vertex -0.0478354 0.0450464 0
   vertex -0.0528273 0.0472428 0
  endloop
 endfacet
 facet normal 0 0 -1
  outer loop
   vertex -0.021706 0.0374304 0
   vertex -0.027055 0.0384943 0
   vertex 0 0.160531 0
  endloop
 endfacet
 facet normal 0 0 -1
  outer loop
   vertex -0.027055 0.0384943 0
   vertex -0.0323524 0.0397906 0
   vertex 0 0.160531 0
  endloop
 endfacet
 facet normal 0 0 -1
  outer loop
   vertex 0 0.160531 0
   vertex -0.0323524 0.0397906 0
   vertex -0.0375882 0.0413167 0
  endloop
 endfacet
 facet normal 0 0 -1
  outer loop
   vertex -0.00545242 0.0356503 0
   vertex -0.0108945 0.036007 0
   vertex 0 0.160531 0
  endloop
 endfacet
 facet normal 0 0 -1
  outer loop
   vertex -0.0108945 0.036007 0
   vertex -0.0163158 0.0366007 0
   vertex 0 0.160531 0
  endloop
 endfacet
 facet normal 0 0 -1
  outer loop
   vertex 0 0.160531 0
   vertex -0.0163158 0.0366007 0
   vertex -0.021706 0.0374304 0
  endloop
 endfacet
 facet normal -0 0 -1
  outer loop
   vertex 0.0108945 0.036007 0
   vertex 0.00545242 0.0356503 0
   vertex 0 0.160531 0
  endloop
 endfacet
 facet normal -0 0 -1
  outer loop
   vertex 0.00545242 0.0356503 0
   vertex 2.29621e-17 0.0355313 0
   vertex 0 0.160531 0
  endloop
 endfacet
 facet normal 0 -0 -1
  outer loop
   vertex 0 0.160531 0
   vertex 2.29621e-17 0.0355313 0
   vertex -0.00545242 0.0356503 0
  endloop
 endfacet
 facet normal -0 0 -1
  outer loop
   vertex 0.027055 0.0384943 0
   vertex 0.021706 0.0374304 0
   vertex 0 0.160531 0
  endloop
 endfacet
 facet normal -0 0 -1
  outer loop
   vertex 0.021706 0.0374304 0
   vertex 0.0163158 0.0366007 0
   vertex 0 0.160531 0
  endloop
 endfacet
 facet normal 0 0 -1
  outer loop
   vertex 0 0.160531 0
   vertex 0.0163158 0.0366007 0
   vertex 0.0108945 0.036007 0
  endloop
 endfacet
 facet normal -0 0 -1
  outer loop
   vertex 0.0427525 0.0430697 0
   vertex 0.0375882 0.0413167 0
   vertex 0 0.160531 0
  endloop
 endfacet
 facet normal -0 0 -1
  outer loop
   vertex 0.0375882 0.0413167 0
   vertex 0.0323524 0.0397906 0
   vertex 0 0.160531 0
  endloop
 endfacet
 facet normal 0 0 -1
  outer loop
   vertex 0 0.160531 0
   vertex 0.0323524 0.0397906 0
   vertex 0.027055 0.0384943 0
  endloop
 endfacet
 facet normal -0 0 -1
  outer loop
   vertex 0.0577186 0.049655 0
   vertex 0.0528273 0.0472428 0
   vertex 0 0.160531 0
  endloop
 endfacet
 facet normal -0 0 -1
  outer loop
   vertex 0.0528273 0.0472428 0
   vertex 0.0478354 0.0450464 0
   vertex 0 0.160531 0
  endloop
 endfacet
 facet normal 0 0 -1
  outer loop
   vertex 0 0.160531 0
   vertex 0.0478354 0.0450464 0
   vertex 0.0427525 0.0430697 0
  endloop
 endfacet
 facet normal -0 0 -1
  outer loop
   vertex 0.0716971 0.0581373 0
   vertex 0.0671625 0.0551074 0
   vertex 0 0.160531 0
  endloop
 endfacet
 facet normal -0 0 -1
  outer loop
   vertex 0.0671625 0.0551074 0
   vertex 0.0625 0.0522782 0
   vertex 0 0.160531 0
  endloop
 endfacet
 facet normal 0 0 -1
  outer loop
   vertex 0 0.160531 0
   vertex 0.0625 0.0522782 0
   vertex 0.0577186 0.049655 0
  endloop
 endfacet
 facet normal -0 0 -1
  outer loop
   vertex 0.0844488 0.0683717 0
   vertex 0.0803485 0.0647758 0
   vertex 0 0.160531 0
  endloop
 endfacet
 facet normal -0 0 -1
  outer loop
   vertex 0.0803485 0.0647758 0
   vertex 0.0760952 0.0613622 0
   vertex 0 0.160531 0
  endloop
 endfacet
 facet normal 0 0 -1
  outer loop
   vertex 0 0.160531 0
   vertex 0.0760952 0.0613622 0
   vertex 0.0716971 0.0581373 0
  endloop
 endfacet
 facet normal -0 0 -1
  outer loop
   vertex 0.0957556 0.0801829 0
   vertex 0.0921597 0.0760825 0
   vertex 0 0.160531 0
  endloop
 endfacet
 facet normal -0 0 -1
  outer loop
   vertex 0.0921597 0.0760825 0
   vertex 0.0883883 0.072143 0
   vertex 0 0.160531 0
  endloop
 endfacet
 facet normal 0 0 -1
  outer loop
   vertex 0 0.160531 0
   vertex 0.0883883 0.072143 0
   vertex 0.0844488 0.0683717 0
  endloop
 endfacet
 facet normal -0 0 -1
  outer loop
   vertex 0.105424 0.0933689 0
   vertex 0.102394 0.0888343 0
   vertex 0 0.160531 0
  endloop
 endfacet
 facet normal -0 0 -1
  outer loop
   vertex 0.102394 0.0888343 0
   vertex 0.0991692 0.0844361 0
   vertex 0 0.160531 0
  endloop
 endfacet
 facet normal 0 0 -1
  outer loop
   vertex 0 0.160531 0
   vertex 0.0991692 0.0844361 0
   vertex 0.0957556 0.0801829 0
  endloop
 endfacet
 facet normal -0 0 -1
  outer loop
   vertex 0.113288 0.107704 0
   vertex 0.110876 0.102813 0
   vertex 0 0.160531 0
  endloop
 endfacet
 facet normal -0 0 -1
  outer loop
   vertex 0.110876 0.102813 0
   vertex 0.108253 0.0980313 0
   vertex 0 0.160531 0
  endloop
 endfacet
 facet normal 0 0 -1
  outer loop
   vertex 0 0.160531 0
   vertex 0.108253 0.0980313 0
   vertex 0.105424 0.0933689 0
  endloop
 endfacet
 facet normal -0 0 -1
  outer loop
   vertex 0.119215 0.122943 0
   vertex 0.117462 0.117779 0
   vertex 0 0.160531 0
  endloop
 endfacet
 facet normal -0 0 -1
  outer loop
   vertex 0.117462 0.117779 0
   vertex 0.115485 0.112696 0
   vertex 0 0.160531 0
  endloop
 endfacet
 facet normal 0 0 -1
  outer loop
   vertex 0 0.160531 0
   vertex 0.115485 0.112696 0
   vertex 0.113288 0.107704 0
  endloop
 endfacet
 facet normal -0 0 -1
  outer loop
   vertex 0.123101 0.138825 0
   vertex 0.122037 0.133476 0
   vertex 0 0.160531 0
  endloop
 endfacet
 facet normal -0 0 -1
  outer loop
   vertex 0.122037 0.133476 0
   vertex 0.120741 0.128179 0
   vertex 0 0.160531 0
  endloop
 endfacet
 facet normal 0 0 -1
  outer loop
   vertex 0 0.160531 0
   vertex 0.120741 0.128179 0
   vertex 0.119215 0.122943 0
  endloop
 endfacet
 facet normal -0 0 -1
  outer loop
   vertex 0.124881 0.155079 0
   vertex 0.124524 0.149637 0
   vertex 0 0.160531 0
  endloop
 endfacet
 facet normal -0 0 -1
  outer loop
   vertex 0.124524 0.149637 0
   vertex 0.123931 0.144216 0
   vertex 0 0.160531 0
  endloop
 endfacet
 facet normal 0 0 -1
  outer loop
   vertex 0 0.160531 0
   vertex 0.123931 0.144216 0
   vertex 0.123101 0.138825 0
  endloop
 endfacet
 facet normal -0.999762 0.0218146 0
  outer loop
   vertex -0.125 0.160531 0
   vertex -0.124881 0.165984 0.5
   vertex -0.124881 0.165984 0
  endloop
 endfacet
 facet normal -0.997859 0.0654029 0
  outer loop
   vertex -0.124881 0.165984 0.5
   vertex -0.124524 0.171426 0.5
   vertex -0.124881 0.165984 0
  endloop
 endfacet
 facet normal -0.997859 0.0654029 0
  outer loop
   vertex -0.124881 0.165984 0
   vertex -0.124524 0.171426 0.5
   vertex -0.124524 0.171426 0
  endloop
 endfacet
 facet normal -0.994056 0.108867 0
  outer loop
   vertex -0.124524 0.171426 0.5
   vertex -0.123931 0.176847 0.5
   vertex -0.124524 0.171426 0
  endloop
 endfacet
 facet normal -0.994056 0.108867 0
  outer loop
   vertex -0.124524 0.171426 0
   vertex -0.123931 0.176847 0.5
   vertex -0.123931 0.176847 0
  endloop
 endfacet
 facet normal -0.988361 0.152124 0
  outer loop
   vertex -0.123931 0.176847 0.5
   vertex -0.123101 0.182237 0.5
   vertex -0.123931 0.176847 0
  endloop
 endfacet
 facet normal -0.988361 0.152124 0
  outer loop
   vertex -0.123931 0.176847 0
   vertex -0.123101 0.182237 0.5
   vertex -0.123101 0.182237 0
  endloop
 endfacet
 facet normal -0.980785 0.19509 0
  outer loop
   vertex -0.123101 0.182237 0.5
   vertex -0.122037 0.187586 0.5
   vertex -0.123101 0.182237 0
  endloop
 endfacet
 facet normal -0.980785 0.19509 0
  outer loop
   vertex -0.123101 0.182237 0
   vertex -0.122037 0.187586 0.5
   vertex -0.122037 0.187586 0
  endloop
 endfacet
 facet normal -0.971342 0.237686 0
  outer loop
   vertex -0.122037 0.187586 0.5
   vertex -0.120741 0.192884 0.5
   vertex -0.122037 0.187586 0
  endloop
 endfacet
 facet normal -0.971342 0.237686 0
  outer loop
   vertex -0.122037 0.187586 0
   vertex -0.120741 0.192884 0.5
   vertex -0.120741 0.192884 0
  endloop
 endfacet
 facet normal -0.96005 0.279829 0
  outer loop
   vertex -0.120741 0.192884 0.5
   vertex -0.119215 0.19812 0.5
   vertex -0.120741 0.192884 0
  endloop
 endfacet
 facet normal -0.96005 0.279829 0
  outer loop
   vertex -0.120741 0.192884 0
   vertex -0.119215 0.19812 0.5
   vertex -0.119215 0.19812 0
  endloop
 endfacet
 facet normal -0.94693 0.321439 0
  outer loop
   vertex -0.119215 0.19812 0.5
   vertex -0.117462 0.203284 0.5
   vertex -0.119215 0.19812 0
  endloop
 endfacet
 facet normal -0.94693 0.321439 0
  outer loop
   vertex -0.119215 0.19812 0
   vertex -0.117462 0.203284 0.5
   vertex -0.117462 0.203284 0
  endloop
 endfacet
 facet normal -0.932008 0.362439 0
  outer loop
   vertex -0.117462 0.203284 0.5
   vertex -0.115485 0.208367 0.5
   vertex -0.117462 0.203284 0
  endloop
 endfacet
 facet normal -0.932008 0.362439 0
  outer loop
   vertex -0.117462 0.203284 0
   vertex -0.115485 0.208367 0.5
   vertex -0.115485 0.208367 0
  endloop
 endfacet
 facet normal -0.915312 0.402745 0
  outer loop
   vertex -0.115485 0.208367 0.5
   vertex -0.113288 0.213359 0.5
   vertex -0.115485 0.208367 0
  endloop
 endfacet
 facet normal -0.915312 0.402745 0
  outer loop
   vertex -0.115485 0.208367 0
   vertex -0.113288 0.213359 0.5
   vertex -0.113288 0.213359 0
  endloop
 endfacet
 facet normal -0.896872 0.44229 0
  outer loop
   vertex -0.113288 0.213359 0.5
   vertex -0.110876 0.21825 0.5
   vertex -0.113288 0.213359 0
  endloop
 endfacet
 facet normal -0.896872 0.44229 0
  outer loop
   vertex -0.113288 0.213359 0
   vertex -0.110876 0.21825 0.5
   vertex -0.110876 0.21825 0
  endloop
 endfacet
 facet normal -0.876727 0.480989 0
  outer loop
   vertex -0.110876 0.21825 0.5
   vertex -0.108253 0.223031 0.5
   vertex -0.110876 0.21825 0
  endloop
 endfacet
 facet normal -0.876727 0.480989 0
  outer loop
   vertex -0.110876 0.21825 0
   vertex -0.108253 0.223031 0.5
   vertex -0.108253 0.223031 0
  endloop
 endfacet
 facet normal -0.854912 0.518773 0
  outer loop
   vertex -0.108253 0.223031 0.5
   vertex -0.105424 0.227694 0.5
   vertex -0.108253 0.223031 0
  endloop
 endfacet
 facet normal -0.854912 0.518773 0
  outer loop
   vertex -0.108253 0.223031 0
   vertex -0.105424 0.227694 0.5
   vertex -0.105424 0.227694 0
  endloop
 endfacet
 facet normal -0.83147 0.55557 0
  outer loop
   vertex -0.105424 0.227694 0.5
   vertex -0.102394 0.232228 0.5
   vertex -0.105424 0.227694 0
  endloop
 endfacet
 facet normal -0.83147 0.55557 0
  outer loop
   vertex -0.105424 0.227694 0
   vertex -0.102394 0.232228 0.5
   vertex -0.102394 0.232228 0
  endloop
 endfacet
 facet normal -0.806444 0.59131 0
  outer loop
   vertex -0.102394 0.232228 0.5
   vertex -0.0991692 0.236627 0.5
   vertex -0.102394 0.232228 0
  endloop
 endfacet
 facet normal -0.806444 0.59131 0
  outer loop
   vertex -0.102394 0.232228 0
   vertex -0.0991692 0.236627 0.5
   vertex -0.0991692 0.236627 0
  endloop
 endfacet
 facet normal -0.779885 0.625923 0
  outer loop
   vertex -0.0991692 0.236627 0.5
   vertex -0.0957556 0.24088 0.5
   vertex -0.0991692 0.236627 0
  endloop
 endfacet
 facet normal -0.779885 0.625923 0
  outer loop
   vertex -0.0991692 0.236627 0
   vertex -0.0957556 0.24088 0.5
   vertex -0.0957556 0.24088 0
  endloop
 endfacet
 facet normal -0.75184 0.659346 0
  outer loop
   vertex -0.0957556 0.24088 0.5
   vertex -0.0921597 0.24498 0.5
   vertex -0.0957556 0.24088 0
  endloop
 endfacet
 facet normal -0.75184 0.659346 0
  outer loop
   vertex -0.0957556 0.24088 0
   vertex -0.0921597 0.24498 0.5
   vertex -0.0921597 0.24498 0
  endloop
 endfacet
 facet normal -0.722364 0.691513 0
  outer loop
   vertex -0.0921597 0.24498 0.5
   vertex -0.0883883 0.24892 0.5
   vertex -0.0921597 0.24498 0
  endloop
 endfacet
 facet normal -0.722364 0.691513 0
  outer loop
   vertex -0.0921597 0.24498 0
   vertex -0.0883883 0.24892 0.5
   vertex -0.0883883 0.24892 0
  endloop
 endfacet
 facet normal -0.691513 0.722364 0
  outer loop
   vertex -0.0883883 0.24892 0.5
   vertex -0.0844488 0.252691 0.5
   vertex -0.0883883 0.24892 0
  endloop
 endfacet
 facet normal -0.691513 0.722364 0
  outer loop
   vertex -0.0883883 0.24892 0
   vertex -0.0844488 0.252691 0.5
   vertex -0.0844488 0.252691 0
  endloop
 endfacet
 facet normal -0.659346 0.75184 0
  outer loop
   vertex -0.0844488 0.252691 0.5
   vertex -0.0803485 0.256287 0.5
   vertex -0.0844488 0.252691 0
  endloop
 endfacet
 facet normal -0.659346 0.75184 0
  outer loop
   vertex -0.0844488 0.252691 0
   vertex -0.0803485 0.256287 0.5
   vertex -0.0803485 0.256287 0
  endloop
 endfacet
 facet normal -0.625923 0.779885 0
  outer loop
   vertex -0.0803485 0.256287 0.5
   vertex -0.0760952 0.2597 0.5
   vertex -0.0803485 0.256287 0
  endloop
 endfacet
 facet normal -0.625923 0.779885 0
  outer loop
   vertex -0.0803485 0.256287 0
   vertex -0.0760952 0.2597 0.5
   vertex -0.0760952 0.2597 0
  endloop
 endfacet
 facet normal -0.59131 0.806444 0
  outer loop
   vertex -0.0760952 0.2597 0.5
   vertex -0.0716971 0.262925 0.5
   vertex -0.0760952 0.2597 0
  endloop
 endfacet
 facet normal -0.59131 0.806444 0
  outer loop
   vertex -0.0760952 0.2597 0
   vertex -0.0716971 0.262925 0.5
   vertex -0.0716971 0.262925 0
  endloop
 endfacet
 facet normal -0.55557 0.83147 0
  outer loop
   vertex -0.0716971 0.262925 0.5
   vertex -0.0671625 0.265955 0.5
   vertex -0.0716971 0.262925 0
  endloop
 endfacet
 facet normal -0.55557 0.83147 0
  outer loop
   vertex -0.0716971 0.262925 0
   vertex -0.0671625 0.265955 0.5
   vertex -0.0671625 0.265955 0
  endloop
 endfacet
 facet normal -0.518773 0.854912 0
  outer loop
   vertex -0.0671625 0.265955 0.5
   vertex -0.0625 0.268784 0.5
   vertex -0.0671625 0.265955 0
  endloop
 endfacet
 facet normal -0.518773 0.854912 0
  outer loop
   vertex -0.0671625 0.265955 0
   vertex -0.0625 0.268784 0.5
   vertex -0.0625 0.268784 0
  endloop
 endfacet
 facet normal -0.480989 0.876727 0
  outer loop
   vertex -0.0625 0.268784 0.5
   vertex -0.0577186 0.271408 0.5
   vertex -0.0625 0.268784 0
  endloop
 endfacet
 facet normal -0.480989 0.876727 0
  outer loop
   vertex -0.0625 0.268784 0
   vertex -0.0577186 0.271408 0.5
   vertex -0.0577186 0.271408 0
  endloop
 endfacet
 facet normal -0.44229 0.896872 0
  outer loop
   vertex -0.0577186 0.271408 0.5
   vertex -0.0528273 0.27382 0.5
   vertex -0.0577186 0.271408 0
  endloop
 endfacet
 facet normal -0.44229 0.896872 0
  outer loop
   vertex -0.0577186 0.271408 0
   vertex -0.0528273 0.27382 0.5
   vertex -0.0528273 0.27382 0
  endloop
 endfacet
 facet normal -0.402745 0.915312 0
  outer loop
   vertex -0.0528273 0.27382 0.5
   vertex -0.0478354 0.276016 0.5
   vertex -0.0528273 0.27382 0
  endloop
 endfacet
 facet normal -0.402745 0.915312 0
  outer loop
   vertex -0.0528273 0.27382 0
   vertex -0.0478354 0.276016 0.5
   vertex -0.0478354 0.276016 0
  endloop
 endfacet
 facet normal -0.362439 0.932008 0
  outer loop
   vertex -0.0478354 0.276016 0.5
   vertex -0.0427525 0.277993 0.5
   vertex -0.0478354 0.276016 0
  endloop
 endfacet
 facet normal -0.362439 0.932008 0
  outer loop
   vertex -0.0478354 0.276016 0
   vertex -0.0427525 0.277993 0.5
   vertex -0.0427525 0.277993 0
  endloop
 endfacet
 facet normal -0.321439 0.94693 0
  outer loop
   vertex -0.0427525 0.277993 0.5
   vertex -0.0375882 0.279746 0.5
   vertex -0.0427525 0.277993 0
  endloop
 endfacet
 facet normal -0.321439 0.94693 0
  outer loop
   vertex -0.0427525 0.277993 0
   vertex -0.0375882 0.279746 0.5
   vertex -0.0375882 0.279746 0
  endloop
 endfacet
 facet normal -0.279829 0.96005 0
  outer loop
   vertex -0.0375882 0.279746 0.5
   vertex -0.0323524 0.281272 0.5
   vertex -0.0375882 0.279746 0
  endloop
 endfacet
 facet normal -0.279829 0.96005 0
  outer loop
   vertex -0.0375882 0.279746 0
   vertex -0.0323524 0.281272 0.5
   vertex -0.0323524 0.281272 0
  endloop
 endfacet
 facet normal -0.237686 0.971342 0
  outer loop
   vertex -0.0323524 0.281272 0.5
   vertex -0.027055 0.282568 0.5
   vertex -0.0323524 0.281272 0
  endloop
 endfacet
 facet normal -0.237686 0.971342 0
  outer loop
   vertex -0.0323524 0.281272 0
   vertex -0.027055 0.282568 0.5
   vertex -0.027055 0.282568 0
  endloop
 endfacet
 facet normal -0.19509 0.980785 0
  outer loop
   vertex -0.027055 0.282568 0.5
   vertex -0.021706 0.283632 0.5
   vertex -0.027055 0.282568 0
  endloop
 endfacet
 facet normal -0.19509 0.980785 0
  outer loop
   vertex -0.027055 0.282568 0
   vertex -0.021706 0.283632 0.5
   vertex -0.021706 0.283632 0
  endloop
 endfacet
 facet normal -0.152124 0.988361 0
  outer loop
   vertex -0.021706 0.283632 0.5
   vertex -0.0163158 0.284462 0.5
   vertex -0.021706 0.283632 0
  endloop
 endfacet
 facet normal -0.152124 0.988361 0
  outer loop
   vertex -0.021706 0.283632 0
   vertex -0.0163158 0.284462 0.5
   vertex -0.0163158 0.284462 0
  endloop
 endfacet
 facet normal -0.108867 0.994056 0
  outer loop
   vertex -0.0163158 0.284462 0.5
   vertex -0.0108945 0.285056 0.5
   vertex -0.0163158 0.284462 0
  endloop
 endfacet
 facet normal -0.108867 0.994056 0
  outer loop
   vertex -0.0163158 0.284462 0
   vertex -0.0108945 0.285056 0.5
   vertex -0.0108945 0.285056 0
  endloop
 endfacet
 facet normal -0.0654029 0.997859 0
  outer loop
   vertex -0.0108945 0.285056 0.5
   vertex -0.00545242 0.285412 0.5
   vertex -0.0108945 0.285056 0
  endloop
 endfacet
 facet normal -0.0654029 0.997859 0
  outer loop
   vertex -0.0108945 0.285056 0
   vertex -0.00545242 0.285412 0.5
   vertex -0.00545242 0.285412 0
  endloop
 endfacet
 facet normal -0.0218146 0.999762 0
  outer loop
   vertex -0.00545242 0.285412 0.5
   vertex -7.65404e-18 0.285531 0.5
   vertex -0.00545242 0.285412 0
  endloop
 endfacet
 facet normal -0.0218146 0.999762 0
  outer loop
   vertex -0.00545242 0.285412 0
   vertex -7.65404e-18 0.285531 0.5
   vertex -7.65404e-18 0.285531 0
  endloop
 endfacet
 facet normal 0.0218146 0.999762 0
  outer loop
   vertex -7.65404e-18 0.285531 0.5
   vertex 0.00545242 0.285412 0.5
   vertex -7.65404e-18 0.285531 0
  endloop
 endfacet
 facet normal 0.0218146 0.999762 0
  outer loop
   vertex -7.65404e-18 0.285531 0
   vertex 0.00545242 0.285412 0.5
   vertex 0.00545242 0.285412 0
  endloop
 endfacet
 facet normal 0.0654029 0.997859 0
  outer loop
   vertex 0.00545242 0.285412 0.5
   vertex 0.0108945 0.285056 0.5
   vertex 0.00545242 0.285412 0
  endloop
 endfacet
 facet normal 0.0654029 0.997859 0
  outer loop
   vertex 0.00545242 0.285412 0
   vertex 0.0108945 0.285056 0.5
   vertex 0.0108945 0.285056 0
  endloop
 endfacet
 facet normal 0.108867 0.994056 0
  outer loop
   vertex 0.0108945 0.285056 0.5
   vertex 0.0163158 0.284462 0.5
   vertex 0.0108945 0.285056 0
  endloop
 endfacet
 facet normal 0.108867 0.994056 0
  outer loop
   vertex 0.0108945 0.285056 0
   vertex 0.0163158 0.284462 0.5
   vertex 0.0163158 0.284462 0
  endloop
 endfacet
 facet normal 0.152124 0.988361 0
  outer loop
   vertex 0.0163158 0.284462 0.5
   vertex 0.021706 0.283632 0.5
   vertex 0.0163158 0.284462 0
  endloop
 endfacet
 facet normal 0.152124 0.988361 0
  outer loop
   vertex 0.0163158 0.284462 0
   vertex 0.021706 0.283632 0.5
   vertex 0.021706 0.283632 0
  endloop
 endfacet
 facet normal 0.19509 0.980785 0
  outer loop
   vertex 0.021706 0.283632 0.5
   vertex 0.027055 0.282568 0.5
   vertex 0.021706 0.283632 0
  endloop
 endfacet
 facet normal 0.19509 0.980785 0
  outer loop
   vertex 0.021706 0.283632 0
   vertex 0.027055 0.282568 0.5
   vertex 0.027055 0.282568 0
  endloop
 endfacet
 facet normal 0.237686 0.971342 0
  outer loop
   vertex 0.027055 0.282568 0.5
   vertex 0.0323524 0.281272 0.5
   vertex 0.027055 0.282568 0
  endloop
 endfacet
 facet normal 0.237686 0.971342 0
  outer loop
   vertex 0.027055 0.282568 0
   vertex 0.0323524 0.281272 0.5
   vertex 0.0323524 0.281272 0
  endloop
 endfacet
 facet normal 0.279829 0.96005 0
  outer loop
   vertex 0.0323524 0.281272 0.5
   vertex 0.0375882 0.279746 0.5
   vertex 0.0323524 0.281272 0
  endloop
 endfacet
 facet normal 0.279829 0.96005 0
  outer loop
   vertex 0.0323524 0.281272 0
   vertex 0.0375882 0.279746 0.5
   vertex 0.0375882 0.279746 0
  endloop
 endfacet
 facet normal 0.321439 0.94693 0
  outer loop
   vertex 0.0375882 0.279746 0.5
   vertex 0.0427525 0.277993 0.5
   vertex 0.0375882 0.279746 0
  endloop
 endfacet
 facet normal 0.321439 0.94693 0
  outer loop
   vertex 0.0375882 0.279746 0
   vertex 0.0427525 0.277993 0.5
   vertex 0.0427525 0.277993 0
  endloop
 endfacet
 facet normal 0.362439 0.932008 0
  outer loop
   vertex 0.0427525 0.277993 0.5
   vertex 0.0478354 0.276016 0.5
   vertex 0.0427525 0.277993 0
  endloop
 endfacet
 facet normal 0.362439 0.932008 0
  outer loop
   vertex 0.0427525 0.277993 0
   vertex 0.0478354 0.276016 0.5
   vertex 0.0478354 0.276016 0
  endloop
 endfacet
 facet normal 0.402745 0.915312 0
  outer loop
   vertex 0.0478354 0.276016 0.5
   vertex 0.0528273 0.27382 0.5
   vertex 0.0478354 0.276016 0
  endloop
 endfacet
 facet normal 0.402745 0.915312 0
  outer loop
   vertex 0.0478354 0.276016 0
   vertex 0.0528273 0.27382 0.5
   vertex 0.0528273 0.27382 0
  endloop
 endfacet
 facet normal 0.44229 0.896872 0
  outer loop
   vertex 0.0528273 0.27382 0.5
   vertex 0.0577186 0.271408 0.5
   vertex 0.0528273 0.27382 0
  endloop
 endfacet
 facet normal 0.44229 0.896872 0
  outer loop
   vertex 0.0528273 0.27382 0
   vertex 0.0577186 0.271408 0.5
   vertex 0.0577186 0.271408 0
  endloop
 endfacet
 facet normal 0.480989 0.876727 0
  outer loop
   vertex 0.0577186 0.271408 0.5
   vertex 0.0625 0.268784 0.5
   vertex 0.0577186 0.271408 0
  endloop
 endfacet
 facet normal 0.480989 0.876727 0
  outer loop
   vertex 0.0577186 0.271408 0
   vertex 0.0625 0.268784 0.5
   vertex 0.0625 0.268784 0
  endloop
 endfacet
 facet normal 0.518773 0.854912 0
  outer loop
   vertex 0.0625 0.268784 0.5
   vertex 0.0671625 0.265955 0.5
   vertex 0.0625 0.268784 0
  endloop
 endfacet
 facet normal 0.518773 0.854912 0
  outer loop
   vertex 0.0625 0.268784 0
   vertex 0.0671625 0.265955 0.5
   vertex 0.0671625 0.265955 0
  endloop
 endfacet
 facet normal 0.55557 0.83147 0
  outer loop
   vertex 0.0671625 0.265955 0.5
   vertex 0.0716971 0.262925 0.5
   vertex 0.0671625 0.265955 0
  endloop
 endfacet
 facet normal 0.55557 0.83147 0
  outer loop
   vertex 0.0671625 0.265955 0
   vertex 0.0716971 0.262925 0.5
   vertex 0.0716971 0.262925 0
  endloop
 endfacet
 facet normal 0.59131 0.806444 0
  outer loop
   vertex 0.0716971 0.262925 0.5
   vertex 0.0760952 0.2597 0.5
   vertex 0.0716971 0.262925 0
  endloop
 endfacet
 facet normal 0.59131 0.806444 0
  outer loop
   vertex 0.0716971 0.262925 0
   vertex 0.0760952 0.2597 0.5
   vertex 0.0760952 0.2597 0
  endloop
 endfacet
 facet normal 0.625923 0.779885 0
  outer loop
   vertex 0.0760952 0.2597 0.5
   vertex 0.0803485 0.256287 0.5
   vertex 0.0760952 0.2597 0
  endloop
 endfacet
 facet normal 0.625923 0.779885 0
  outer loop
   vertex 0.0760952 0.2597 0
   vertex 0.0803485 0.256287 0.5
   vertex 0.0803485 0.256287 0
  endloop
 endfacet
 facet normal 0.659346 0.75184 0
  outer loop
   vertex 0.0803485 0.256287 0.5
   vertex 0.0844488 0.252691 0.5
   vertex 0.0803485 0.256287 0
  endloop
 endfacet
 facet normal 0.659346 0.75184 0
  outer loop
   vertex 0.0803485 0.256287 0
   vertex 0.0844488 0.252691 0.5
   vertex 0.0844488 0.252691 0
  endloop
 endfacet
 facet normal 0.691513 0.722364 0
  outer loop
   vertex 0.0844488 0.252691 0.5
   vertex 0.0883883 0.24892 0.5
   vertex 0.0844488 0.252691 0
  endloop
 endfacet
 facet normal 0.691513 0.722364 0
  outer loop
   vertex 0.0844488 0.252691 0
   vertex 0.0883883 0.24892 0.5
   vertex 0.0883883 0.24892 0
  endloop
 endfacet
 facet normal 0.722364 0.691513 0
  outer loop
   vertex 0.0883883 0.24892 0.5
   vertex 0.0921597 0.24498 0.5
   vertex 0.0883883 0.24892 0
  endloop
 endfacet
 facet normal 0.722364 0.691513 0
  outer loop
   vertex 0.0883883 0.24892 0
   vertex 0.0921597 0.24498 0.5
   vertex 0.0921597 0.24498 0
  endloop
 endfacet
 facet normal 0.75184 0.659346 0
  outer loop
   vertex 0.0921597 0.24498 0.5
   vertex 0.0957556 0.24088 0.5
   vertex 0.0921597 0.24498 0
  endloop
 endfacet
 facet normal 0.75184 0.659346 0
  outer loop
   vertex 0.0921597 0.24498 0
   vertex 0.0957556 0.24088 0.5
   vertex 0.0957556 0.24088 0
  endloop
 endfacet
 facet normal 0.779885 0.625923 0
  outer loop
   vertex 0.0957556 0.24088 0.5
   vertex 0.0991692 0.236627 0.5
   vertex 0.0957556 0.24088 0
  endloop
 endfacet
 facet normal 0.779885 0.625923 0
  outer loop
   vertex 0.0957556 0.24088 0
   vertex 0.0991692 0.236627 0.5
   vertex 0.0991692 0.236627 0
  endloop
 endfacet
 facet normal 0.806444 0.59131 0
  outer loop
   vertex 0.0991692 0.236627 0.5
   vertex 0.102394 0.232228 0.5
   vertex 0.0991692 0.236627 0
  endloop
 endfacet
 facet normal 0.806444 0.59131 0
  outer loop
   vertex 0.0991692 0.236627 0
   vertex 0.102394 0.232228 0.5
   vertex 0.102394 0.232228 0
  endloop
 endfacet
 facet normal 0.83147 0.55557 0
  outer loop
   vertex 0.102394 0.232228 0.5
   vertex 0.105424 0.227694 0.5
   vertex 0.102394 0.232228 0
  endloop
 endfacet
 facet normal 0.83147 0.55557 0
  outer loop
   vertex 0.102394 0.232228 0
   vertex 0.105424 0.227694 0.5
   vertex 0.105424 0.227694 0
  endloop
 endfacet
 facet normal 0.854912 0.518773 0
  outer loop
   vertex 0.105424 0.227694 0.5
   vertex 0.108253 0.223031 0.5
   vertex 0.105424 0.227694 0
  endloop
 endfacet
 facet normal 0.854912 0.518773 0
  outer loop
   vertex 0.105424 0.227694 0
   vertex 0.108253 0.223031 0.5
   vertex 0.108253 0.223031 0
  endloop
 endfacet
 facet normal 0.876727 0.480989 0
  outer loop
   vertex 0.108253 0.223031 0.5
   vertex 0.110876 0.21825 0.5
   vertex 0.108253 0.223031 0
  endloop
 endfacet
 facet normal 0.876727 0.480989 0
  outer loop
   vertex 0.108253 0.223031 0
   vertex 0.110876 0.21825 0.5
   vertex 0.110876 0.21825 0
  endloop
 endfacet
 facet normal 0.896872 0.44229 0
  outer loop
   vertex 0.110876 0.21825 0.5
   vertex 0.113288 0.213359 0.5
   vertex 0.110876 0.21825 0
  endloop
 endfacet
 facet normal 0.896872 0.44229 0
  outer loop
   vertex 0.110876 0.21825 0
   vertex 0.113288 0.213359 0.5
   vertex 0.113288 0.213359 0
  endloop
 endfacet
 facet normal 0.915312 0.402745 0
  outer loop
   vertex 0.113288 0.213359 0.5
   vertex 0.115485 0.208367 0.5
   vertex 0.113288 0.213359 0
  endloop
 endfacet
 facet normal 0.915312 0.402745 0
  outer loop
   vertex 0.113288 0.213359 0
   vertex 0.115485 0.208367 0.5
   vertex 0.115485 0.208367 0
  endloop
 endfacet
 facet normal 0.932008 0.362439 0
  outer loop
   vertex 0.115485 0.208367 0.5
   vertex 0.117462 0.203284 0.5
   vertex 0.115485 0.208367 0
  endloop
 endfacet
 facet normal 0.932008 0.362439 0
  outer loop
   vertex 0.115485 0.208367 0
   vertex 0.117462 0.203284 0.5
   vertex 0.117462 0.203284 0
  endloop
 endfacet
 facet normal 0.94693 0.321439 0
  outer loop
   vertex 0.117462 0.203284 0.5
   vertex 0.119215 0.19812 0.5
   vertex 0.117462 0.203284 0
  endloop
 endfacet
 facet normal 0.94693 0.321439 0
  outer loop
   vertex 0.117462 0.203284 0
   vertex 0.119215 0.19812 0.5
   vertex 0.119215 0.19812 0
  endloop
 endfacet
 facet normal 0.96005 0.279829 0
  outer loop
   vertex 0.119215 0.19812 0.5
   vertex 0.120741 0.192884 0.5
   vertex 0.119215 0.19812 0
  endloop
 endfacet
 facet normal 0.96005 0.279829 0
  outer loop
   vertex 0.119215 0.19812 0
   vertex 0.120741 0.192884 0.5
   vertex 0.120741 0.192884 0
  endloop
 endfacet
 facet normal 0.971342 0.237686 0
  outer loop
   vertex 0.120741 0.192884 0.5
   vertex 0.122037 0.187586 0.5
   vertex 0.120741 0.192884 0
  endloop
 endfacet
 facet normal 0.971342 0.237686 0
  outer loop
   vertex 0.120741 0.192884 0
   vertex 0.122037 0.187586 0.5
   vertex 0.122037 0.187586 0
  endloop
 endfacet
 facet normal 0.980785 0.19509 0
  outer loop
   vertex 0.122037 0.187586 0.5
   vertex 0.123101 0.182237 0.5
   vertex 0.122037 0.187586 0
  endloop
 endfacet
 facet normal 0.980785 0.19509 0
  outer loop
   vertex 0.122037 0.187586 0
   vertex 0.123101 0.182237 0.5
   vertex 0.123101 0.182237 0
  endloop
 endfacet
 facet normal 0.988361 0.152124 0
  outer loop
   vertex 0.123101 0.182237 0.5
   vertex 0.123931 0.176847 0.5
   vertex 0.123101 0.182237 0
  endloop
 endfacet
 facet normal 0.988361 0.152124 0
  outer loop
   vertex 0.123101 0.182237 0
   vertex 0.123931 0.176847 0.5
   vertex 0.123931 0.176847 0
  endloop
 endfacet
 facet normal 0.994056 0.108867 0
  outer loop
   vertex 0.123931 0.176847 0.5
   vertex 0.124524 0.171426 0.5
   vertex 0.123931 0.176847 0
  endloop
 endfacet
 facet normal 0.994056 0.108867 0
  outer loop
   vertex 0.123931 0.176847 0
   vertex 0.124524 0.171426 0.5
   vertex 0.124524 0.171426 0
  endloop
 endfacet
 facet normal 0.997859 0.0654029 0
  outer loop
   vertex 0.124524 0.171426 0.5
   vertex 0.124881 0.165984 0.5
   vertex 0.124524 0.171426 0
  endloop
 endfacet
 facet normal 0.997859 0.0654029 0
  outer loop
   vertex 0.124524 0.171426 0
   vertex 0.124881 0.165984 0.5
   vertex 0.124881 0.165984 0
  endloop
 endfacet
 facet normal 0.999762 0.0218146 0
  outer loop
   vertex 0.124881 0.165984 0.5
   vertex 0.125 0.160531 0.5
   vertex 0.124881 0.165984 0
  endloop
 endfacet
 facet normal 0.999762 0.0218146 -1.20367e-18
  outer loop
   vertex 0.124881 0.165984 0
   vertex 0.125 0.160531 0.5
   vertex 0.125 0.160531 0
  endloop
 endfacet
 facet normal 0.999762 -0.0218146 1.21095e-18
  outer loop
   vertex 0.125 0.160531 0.5
   vertex 0.124881 0.155079 0.5
   vertex 0.125 0.160531 0
  endloop
 endfacet
 facet normal 0.999762 -0.0218146 0
  outer loop
   vertex 0.125 0.160531 0
   vertex 0.124881 0.155079 0.5
   vertex 0.124881 0.155079 0
  endloop
 endfacet
 facet normal 0.997859 -0.0654029 0
  outer loop
   vertex 0.124881 0.155079 0.5
   vertex 0.124524 0.149637 0.5
   vertex 0.124881 0.155079 0
  endloop
 endfacet
 facet normal 0.997859 -0.0654029 0
  outer loop
   vertex 0.124881 0.155079 0
   vertex 0.124524 0.149637 0.5
   vertex 0.124524 0.149637 0
  endloop
 endfacet
 facet normal 0.994056 -0.108867 0
  outer loop
   vertex 0.124524 0.149637 0.5
   vertex 0.123931 0.144216 0.5
   vertex 0.124524 0.149637 0
  endloop
 endfacet
 facet normal 0.994056 -0.108867 0
  outer loop
   vertex 0.124524 0.149637 0
   vertex 0.123931 0.144216 0.5
   vertex 0.123931 0.144216 0
  endloop
 endfacet
 facet normal 0.988361 -0.152124 0
  outer loop
   vertex 0.123931 0.144216 0.5
   vertex 0.123101 0.138825 0.5
   vertex 0.123931 0.144216 0
  endloop
 endfacet
 facet normal 0.988361 -0.152124 0
  outer loop
   vertex 0.123931 0.144216 0
   vertex 0.123101 0.138825 0.5
   vertex 0.123101 0.138825 0
  endloop
 endfacet
 facet normal 0.980785 -0.19509 0
  outer loop
   vertex 0.123101 0.138825 0.5
   vertex 0.122037 0.133476 0.5
   vertex 0.123101 0.138825 0
  endloop
 endfacet
 facet normal 0.980785 -0.19509 0
  outer loop
   vertex 0.123101 0.138825 0
   vertex 0.122037 0.133476 0.5
   vertex 0.122037 0.133476 0
  endloop
 endfacet
 facet normal 0.971342 -0.237686 0
  outer loop
   vertex 0.122037 0.133476 0.5
   vertex 0.120741 0.128179 0.5
   vertex 0.122037 0.133476 0
  endloop
 endfacet
 facet normal 0.971342 -0.237686 0
  outer loop
   vertex 0.122037 0.133476 0
   vertex 0.120741 0.128179 0.5
   vertex 0.120741 0.128179 0
  endloop
 endfacet
 facet normal 0.96005 -0.279829 0
  outer loop
   vertex 0.120741 0.128179 0.5
   vertex 0.119215 0.122943 0.5
   vertex 0.120741 0.128179 0
  endloop
 endfacet
 facet normal 0.96005 -0.279829 0
  outer loop
   vertex 0.120741 0.128179 0
   vertex 0.119215 0.122943 0.5
   vertex 0.119215 0.122943 0
  endloop
 endfacet
 facet normal 0.94693 -0.321439 0
  outer loop
   vertex 0.119215 0.122943 0.5
   vertex 0.117462 0.117779 0.5
   vertex 0.119215 0.122943 0
  endloop
 endfacet
 facet normal 0.94693 -0.321439 0
  outer loop
   vertex 0.119215 0.122943 0
   vertex 0.117462 0.117779 0.5
   vertex 0.117462 0.117779 0
  endloop
 endfacet
 facet normal 0.932008 -0.362439 0
  outer loop
   vertex 0.117462 0.117779 0.5
   vertex 0.115485 0.112696 0.5
   vertex 0.117462 0.117779 0
  endloop
 endfacet
 facet normal 0.932008 -0.362439 0
  outer loop
   vertex 0.117462 0.117779 0
   vertex 0.115485 0.112696 0.5
   vertex 0.115485 0.112696 0
  endloop
 endfacet
 facet normal 0.915312 -0.402745 0
  outer loop
   vertex 0.115485 0.112696 0.5
   vertex 0.113288 0.107704 0.5
   vertex 0.115485 0.112696 0
  endloop
 endfacet
 facet normal 0.915312 -0.402745 0
  outer loop
   vertex 0.115485 0.112696 0
   vertex 0.113288 0.107704 0.5
   vertex 0.113288 0.107704 0
  endloop
 endfacet
 facet normal 0.896872 -0.44229 0
  outer loop
   vertex 0.113288 0.107704 0.5
   vertex 0.110876 0.102813 0.5
   vertex 0.113288 0.107704 0
  endloop
 endfacet
 facet normal 0.896872 -0.44229 0
  outer loop
   vertex 0.113288 0.107704 0
   vertex 0.110876 0.102813 0.5
   vertex 0.110876 0.102813 0
  endloop
 endfacet
 facet normal 0.876727 -0.480989 0
  outer loop
   vertex 0.110876 0.102813 0.5
   vertex 0.108253 0.0980313 0.5
   vertex 0.110876 0.102813 0
  endloop
 endfacet
 facet normal 0.876727 -0.480989 0
  outer loop
   vertex 0.110876 0.102813 0
   vertex 0.108253 0.0980313 0.5
   vertex 0.108253 0.0980313 0
  endloop
 endfacet
 facet normal 0.854912 -0.518773 0
  outer loop
   vertex 0.108253 0.0980313 0.5
   vertex 0.105424 0.0933689 0.5
   vertex 0.108253 0.0980313 0
  endloop
 endfacet
 facet normal 0.854912 -0.518773 0
  outer loop
   vertex 0.108253 0.0980313 0
   vertex 0.105424 0.0933689 0.5
   vertex 0.105424 0.0933689 0
  endloop
 endfacet
 facet normal 0.83147 -0.55557 0
  outer loop
   vertex 0.105424 0.0933689 0.5
   vertex 0.102394 0.0888343 0.5
   vertex 0.105424 0.0933689 0
  endloop
 endfacet
 facet normal 0.83147 -0.55557 0
  outer loop
   vertex 0.105424 0.0933689 0
   vertex 0.102394 0.0888343 0.5
   vertex 0.102394 0.0888343 0
  endloop
 endfacet
 facet normal 0.806444 -0.59131 0
  outer loop
   vertex 0.102394 0.0888343 0.5
   vertex 0.0991692 0.0844361 0.5
   vertex 0.102394 0.0888343 0
  endloop
 endfacet
 facet normal 0.806444 -0.59131 0
  outer loop
   vertex 0.102394 0.0888343 0
   vertex 0.0991692 0.0844361 0.5
   vertex 0.0991692 0.0844361 0
  endloop
 endfacet
 facet normal 0.779885 -0.625923 0
  outer loop
   vertex 0.0991692 0.0844361 0.5
   vertex 0.0957556 0.0801829 0.5
   vertex 0.0991692 0.0844361 0
  endloop
 endfacet
 facet normal 0.779885 -0.625923 0
  outer loop
   vertex 0.0991692 0.0844361 0
   vertex 0.0957556 0.0801829 0.5
   vertex 0.0957556 0.0801829 0
  endloop
 endfacet
 facet normal 0.75184 -0.659346 0
  outer loop
   vertex 0.0957556 0.0801829 0.5
   vertex 0.0921597 0.0760825 0.5
   vertex 0.0957556 0.0801829 0
  endloop
 endfacet
 facet normal 0.75184 -0.659346 0
  outer loop
   vertex 0.0957556 0.0801829 0
   vertex 0.0921597 0.0760825 0.5
   vertex 0.0921597 0.0760825 0
  endloop
 endfacet
 facet normal 0.722364 -0.691513 0
  outer loop
   vertex 0.0921597 0.0760825 0.5
   vertex 0.0883883 0.072143 0.5
   vertex 0.0921597 0.0760825 0
  endloop
 endfacet
 facet normal 0.722364 -0.691513 0
  outer loop
   vertex 0.0921597 0.0760825 0
   vertex 0.0883883 0.072143 0.5
   vertex 0.0883883 0.072143 0
  endloop
 endfacet
 facet normal 0.691513 -0.722364 0
  outer loop
   vertex 0.0883883 0.072143 0.5
   vertex 0.0844488 0.0683717 0.5
   vertex 0.0883883 0.072143 0
  endloop
 endfacet
 facet normal 0.691513 -0.722364 0
  outer loop
   vertex 0.0883883 0.072143 0
   vertex 0.0844488 0.0683717 0.5
   vertex 0.0844488 0.0683717 0
  endloop
 endfacet
 facet normal 0.659346 -0.75184 0
  outer loop
   vertex 0.0844488 0.0683717 0.5
   vertex 0.0803485 0.0647758 0.5
   vertex 0.0844488 0.0683717 0
  endloop
 endfacet
 facet normal 0.659346 -0.75184 0
  outer loop
   vertex 0.0844488 0.0683717 0
   vertex 0.0803485 0.0647758 0.5
   vertex 0.0803485 0.0647758 0
  endloop
 endfacet
 facet normal 0.625923 -0.779885 0
  outer loop
   vertex 0.0803485 0.0647758 0.5
   vertex 0.0760952 0.0613622 0.5
   vertex 0.0803485 0.0647758 0
  endloop
 endfacet
 facet normal 0.625923 -0.779885 0
  outer loop
   vertex 0.0803485 0.0647758 0
   vertex 0.0760952 0.0613622 0.5
   vertex 0.0760952 0.0613622 0
  endloop
 endfacet
 facet normal 0.59131 -0.806444 0
  outer loop
   vertex 0.0760952 0.0613622 0.5
   vertex 0.0716971 0.0581373 0.5
   vertex 0.0760952 0.0613622 0
  endloop
 endfacet
 facet normal 0.59131 -0.806444 0
  outer loop
   vertex 0.0760952 0.0613622 0
   vertex 0.0716971 0.0581373 0.5
   vertex 0.0716971 0.0581373 0
  endloop
 endfacet
 facet normal 0.55557 -0.83147 0
  outer loop
   vertex 0.0716971 0.0581373 0.5
   vertex 0.0671625 0.0551074 0.5
   vertex 0.0716971 0.0581373 0
  endloop
 endfacet
 facet normal 0.55557 -0.83147 0
  outer loop
   vertex 0.0716971 0.0581373 0
   vertex 0.0671625 0.0551074 0.5
   vertex 0.0671625 0.0551074 0
  endloop
 endfacet
 facet normal 0.518773 -0.854912 0
  outer loop
   vertex 0.0671625 0.0551074 0.5
   vertex 0.0625 0.0522782 0.5
   vertex 0.0671625 0.0551074 0
  endloop
 endfacet
 facet normal 0.518773 -0.854912 0
  outer loop
   vertex 0.0671625 0.0551074 0
   vertex 0.0625 0.0522782 0.5
   vertex 0.0625 0.0522782 0
  endloop
 endfacet
 facet normal 0.480989 -0.876727 0
  outer loop
   vertex 0.0625 0.0522782 0.5
   vertex 0.0577186 0.049655 0.5
   vertex 0.0625 0.0522782 0
  endloop
 endfacet
 facet normal 0.480989 -0.876727 0
  outer loop
   vertex 0.0625 0.0522782 0
   vertex 0.0577186 0.049655 0.5
   vertex 0.0577186 0.049655 0
  endloop
 endfacet
 facet normal 0.44229 -0.896872 0
  outer loop
   vertex 0.0577186 0.049655 0.5
   vertex 0.0528273 0.0472428 0.5
   vertex 0.0577186 0.049655 0
  endloop
 endfacet
 facet normal 0.44229 -0.896872 0
  outer loop
   vertex 0.0577186 0.049655 0
   vertex 0.0528273 0.0472428 0.5
   vertex 0.0528273 0.0472428 0
  endloop
 endfacet
 facet normal 0.402745 -0.915312 0
  outer loop
   vertex 0.0528273 0.0472428 0.5
   vertex 0.0478354 0.0450464 0.5
   vertex 0.0528273 0.0472428 0
  endloop
 endfacet
 facet normal 0.402745 -0.915312 0
  outer loop
   vertex 0.0528273 0.0472428 0
   vertex 0.0478354 0.0450464 0.5
   vertex 0.0478354 0.0450464 0
  endloop
 endfacet
 facet normal 0.362439 -0.932008 0
  outer loop
   vertex 0.0478354 0.0450464 0.5
   vertex 0.0427525 0.0430697 0.5
   vertex 0.0478354 0.0450464 0
  endloop
 endfacet
 facet normal 0.362439 -0.932008 0
  outer loop
   vertex 0.0478354 0.0450464 0
   vertex 0.0427525 0.0430697 0.5
   vertex 0.0427525 0.0430697 0
  endloop
 endfacet
 facet normal 0.321439 -0.94693 0
  outer loop
   vertex 0.0427525 0.0430697 0.5
   vertex 0.0375882 0.0413167 0.5
   vertex 0.0427525 0.0430697 0
  endloop
 endfacet
 facet normal 0.321439 -0.94693 0
  outer loop
   vertex 0.0427525 0.0430697 0
   vertex 0.0375882 0.0413167 0.5
   vertex 0.0375882 0.0413167 0
  endloop
 endfacet
 facet normal 0.279829 -0.96005 0
  outer loop
   vertex 0.0375882 0.0413167 0.5
   vertex 0.0323524 0.0397906 0.5
   vertex 0.0375882 0.0413167 0
  endloop
 endfacet
 facet normal 0.279829 -0.96005 0
  outer loop
   vertex 0.0375882 0.0413167 0
   vertex 0.0323524 0.0397906 0.5
   vertex 0.0323524 0.0397906 0
  endloop
 endfacet
 facet normal 0.237686 -0.971342 0
  outer loop
   vertex 0.0323524 0.0397906 0.5
   vertex 0.027055 0.0384943 0.5
   vertex 0.0323524 0.0397906 0
  endloop
 endfacet
 facet normal 0.237686 -0.971342 0
  outer loop
   vertex 0.0323524 0.0397906 0
   vertex 0.027055 0.0384943 0.5
   vertex 0.027055 0.0384943 0
  endloop
 endfacet
 facet normal 0.19509 -0.980785 0
  outer loop
   vertex 0.027055 0.0384943 0.5
   vertex 0.021706 0.0374304 0.5
   vertex 0.027055 0.0384943 0
  endloop
 endfacet
 facet normal 0.19509 -0.980785 0
  outer loop
   vertex 0.027055 0.0384943 0
   vertex 0.021706 0.0374304 0.5
   vertex 0.021706 0.0374304 0
  endloop
 endfacet
 facet normal 0.152124 -0.988361 0
  outer loop
   vertex 0.021706 0.0374304 0.5
   vertex 0.0163158 0.0366007 0.5
   vertex 0.021706 0.0374304 0
  endloop
 endfacet
 facet normal 0.152124 -0.988361 0
  outer loop
   vertex 0.021706 0.0374304 0
   vertex 0.0163158 0.0366007 0.5
   vertex 0.0163158 0.0366007 0
  endloop
 endfacet
 facet normal 0.108867 -0.994056 0
  outer loop
   vertex 0.0163158 0.0366007 0.5
   vertex 0.0108945 0.036007 0.5
   vertex 0.0163158 0.0366007 0
  endloop
 endfacet
 facet normal 0.108867 -0.994056 0
  outer loop
   vertex 0.0163158 0.0366007 0
   vertex 0.0108945 0.036007 0.5
   vertex 0.0108945 0.036007 0
  endloop
 endfacet
 facet normal 0.0654029 -0.997859 0
  outer loop
   vertex 0.0108945 0.036007 0.5
   vertex 0.00545242 0.0356503 0.5
   vertex 0.0108945 0.036007 0
  endloop
 endfacet
 facet normal 0.0654029 -0.997859 0
  outer loop
   vertex 0.0108945 0.036007 0
   vertex 0.00545242 0.0356503 0.5
   vertex 0.00545242 0.0356503 0
  endloop
 endfacet
 facet normal 0.0218146 -0.999762 0
  outer loop
   vertex 0.00545242 0.0356503 0.5
   vertex 2.29621e-17 0.0355313 0.5
   vertex 0.00545242 0.0356503 0
  endloop
 endfacet
 facet normal 0.0218146 -0.999762 0
  outer loop
   vertex 0.00545242 0.0356503 0
   vertex 2.29621e-17 0.0355313 0.5
   vertex 2.29621e-17 0.0355313 0
  endloop
 endfacet
 facet normal -0.0218146 -0.999762 -0
  outer loop
   vertex 2.29621e-17 0.0355313 0.5
   vertex -0.00545242 0.0356503 0.5
   vertex 2.29621e-17 0.0355313 0
  endloop
 endfacet
 facet normal -0.0218146 -0.999762 0
  outer loop
   vertex 2.29621e-17 0.0355313 0
   vertex -0.00545242 0.0356503 0.5
   vertex -0.00545242 0.0356503 0
  endloop
 endfacet
 facet normal -0.0654029 -0.997859 -0
  outer loop
   vertex -0.00545242 0.0356503 0.5
   vertex -0.0108945 0.036007 0.5
   vertex -0.00545242 0.0356503 0
  endloop
 endfacet
 facet normal -0.0654029 -0.997859 0
  outer loop
   vertex -0.00545242 0.0356503 0
   vertex -0.0108945 0.036007 0.5
   vertex -0.0108945 0.036007 0
  endloop
 endfacet
 facet normal -0.108867 -0.994056 -0
  outer loop
   vertex -0.0108945 0.036007 0.5
   vertex -0.0163158 0.0366007 0.5
   vertex -0.0108945 0.036007 0
  endloop
 endfacet
 facet normal -0.108867 -0.994056 0
  outer loop
   vertex -0.0108945 0.036007 0
   vertex -0.0163158 0.0366007 0.5
   vertex -0.0163158 0.0366007 0
  endloop
 endfacet
 facet normal -0.152124 -0.988361 -0
  outer loop
   vertex -0.0163158 0.0366007 0.5
   vertex -0.021706 0.0374304 0.5
   vertex -0.0163158 0.0366007 0
  endloop
 endfacet
 facet normal -0.152124 -0.988361 0
  outer loop
   vertex -0.0163158 0.0366007 0
   vertex -0.021706 0.0374304 0.5
   vertex -0.021706 0.0374304 0
  endloop
 endfacet
 facet normal -0.19509 -0.980785 -0
  outer loop
   vertex -0.021706 0.0374304 0.5
   vertex -0.027055 0.0384943 0.5
   vertex -0.021706 0.0374304 0
  endloop
 endfacet
 facet normal -0.19509 -0.980785 0
  outer loop
   vertex -0.021706 0.0374304 0
   vertex -0.027055 0.0384943 0.5
   vertex -0.027055 0.0384943 0
  endloop
 endfacet
 facet normal -0.237686 -0.971342 -0
  outer loop
   vertex -0.027055 0.0384943 0.5
   vertex -0.0323524 0.0397906 0.5
   vertex -0.027055 0.0384943 0
  endloop
 endfacet
 facet normal -0.237686 -0.971342 0
  outer loop
   vertex -0.027055 0.0384943 0
   vertex -0.0323524 0.0397906 0.5
   vertex -0.0323524 0.0397906 0
  endloop
 endfacet
 facet normal -0.279829 -0.96005 -0
  outer loop
   vertex -0.0323524 0.0397906 0.5
   vertex -0.0375882 0.0413167 0.5
   vertex -0.0323524 0.0397906 0
  endloop
 endfacet
 facet normal -0.279829 -0.96005 0
  outer loop
   vertex -0.0323524 0.0397906 0
   vertex -0.0375882 0.0413167 0.5
   vertex -0.0375882 0.0413167 0
  endloop
 endfacet
 facet normal -0.321439 -0.94693 -0
  outer loop
   vertex -0.0375882 0.0413167 0.5
   vertex -0.0427525 0.0430697 0.5
   vertex -0.0375882 0.0413167 0
  endloop
 endfacet
 facet normal -0.321439 -0.94693 0
  outer loop
   vertex -0.0375882 0.0413167 0
   vertex -0.0427525 0.0430697 0.5
   vertex -0.0427525 0.0430697 0
  endloop
 endfacet
 facet normal -0.362439 -0.932008 -0
  outer loop
   vertex -0.0427525 0.0430697 0.5
   vertex -0.0478354 0.0450464 0.5
   vertex -0.0427525 0.0430697 0
  endloop
 endfacet
 facet normal -0.362439 -0.932008 0
  outer loop
   vertex -0.0427525 0.0430697 0
   vertex -0.0478354 0.0450464 0.5
   vertex -0.0478354 0.0450464 0
  endloop
 endfacet
 facet normal -0.402745 -0.915312 -0
  outer loop
   vertex -0.0478354 0.0450464 0.5
   vertex -0.0528273 0.0472428 0.5
   vertex -0.0478354 0.0450464 0
  endloop
 endfacet
 facet normal -0.402745 -0.915312 0
  outer loop
   vertex -0.0478354 0.0450464 0
   vertex -0.0528273 0.0472428 0.5
   vertex -0.0528273 0.0472428 0
  endloop
 endfacet
 facet normal -0.44229 -0.896872 -0
  outer loop
   vertex -0.0528273 0.0472428 0.5
   vertex -0.0577186 0.049655 0.5
   vertex -0.0528273 0.0472428 0
  endloop
 endfacet
 facet normal -0.44229 -0.896872 0
  outer loop
   vertex -0.0528273 0.0472428 0
   vertex -0.0577186 0.049655 0.5
   vertex -0.0577186 0.049655 0
  endloop
 endfacet
 facet normal -0.480989 -0.876727 -0
  outer loop
   vertex -0.0577186 0.049655 0.5
   vertex -0.0625 0.0522782 0.5
   vertex -0.0577186 0.049655 0
  endloop
 endfacet
 facet normal -0.480989 -0.876727 0
  outer loop
   vertex -0.0577186 0.049655 0
   vertex -0.0625 0.0522782 0.5
   vertex -0.0625 0.0522782 0
  endloop
 endfacet
 facet normal -0.518773 -0.854912 -0
  outer loop
   vertex -0.0625 0.0522782 0.5
   vertex -0.0671625 0.0551074 0.5
   vertex -0.0625 0.0522782 0
  endloop
 endfacet
 facet normal -0.518773 -0.854912 0
  outer loop
   vertex -0.0625 0.0522782 0
   vertex -0.0671625 0.0551074 0.5
   vertex -0.0671625 0.0551074 0
  endloop
 endfacet
 facet normal -0.55557 -0.83147 -0
  outer loop
   vertex -0.0671625 0.0551074 0.5
   vertex -0.0716971 0.0581373 0.5
   vertex -0.0671625 0.0551074 0
  endloop
 endfacet
 facet normal -0.55557 -0.83147 0
  outer loop
   vertex -0.0671625 0.0551074 0
   vertex -0.0716971 0.0581373 0.5
   vertex -0.0716971 0.0581373 0
  endloop
 endfacet
 facet normal -0.59131 -0.806444 -0
  outer loop
   vertex -0.0716971 0.0581373 0.5
   vertex -0.0760952 0.0613622 0.5
   vertex -0.0716971 0.0581373 0
  endloop
 endfacet
 facet normal -0.59131 -0.806444 0
  outer loop
   vertex -0.0716971 0.0581373 0
   vertex -0.0760952 0.0613622 0.5
   vertex -0.0760952 0.0613622 0
  endloop
 endfacet
 facet normal -0.625923 -0.779885 -0
  outer loop
   vertex -0.0760952 0.0613622 0.5
   vertex -0.0803485 0.0647758 0.5
   vertex -0.0760952 0.0613622 0
  endloop
 endfacet
 facet normal -0.625923 -0.779885 0
  outer loop
   vertex -0.0760952 0.0613622 0
   vertex -0.0803485 0.0647758 0.5
   vertex -0.0803485 0.0647758 0
  endloop
 endfacet
 facet normal -0.659346 -0.75184 -0
  outer loop
   vertex -0.0803485 0.0647758 0.5
   vertex -0.0844488 0.0683717 0.5
   vertex -0.0803485 0.0647758 0
  endloop
 endfacet
 facet normal -0.659346 -0.75184 0
  outer loop
   vertex -0.0803485 0.0647758 0
   vertex -0.0844488 0.0683717 0.5
   vertex -0.0844488 0.0683717 0
  endloop
 endfacet
 facet normal -0.691513 -0.722364 -0
  outer loop
   vertex -0.0844488 0.0683717 0.5
   vertex -0.0883883 0.072143 0.5
   vertex -0.0844488 0.0683717 0
  endloop
 endfacet
 facet normal -0.691513 -0.722364 0
  outer loop
   vertex -0.0844488 0.0683717 0
   vertex -0.0883883 0.072143 0.5
   vertex -0.0883883 0.072143 0
  endloop
 endfacet
 facet normal -0.722364 -0.691513 -0
  outer loop
   vertex -0.0883883 0.072143 0.5
   vertex -0.0921597 0.0760825 0.5
   vertex -0.0883883 0.072143 0
  endloop
 endfacet
 facet normal -0.722364 -0.691513 0
  outer loop
   vertex -0.0883883 0.072143 0
   vertex -0.0921597 0.0760825 0.5
   vertex -0.0921597 0.0760825 0
  endloop
 endfacet
 facet normal -0.75184 -0.659346 -0
  outer loop
   vertex -0.0921597 0.0760825 0.5
   vertex -0.0957556 0.0801829 0.5
   vertex -0.0921597 0.0760825 0
  endloop
 endfacet
 facet normal -0.75184 -0.659346 0
  outer loop
   vertex -0.0921597 0.0760825 0
   vertex -0.0957556 0.0801829 0.5
   vertex -0.0957556 0.0801829 0
  endloop
 endfacet
 facet normal -0.779885 -0.625923 -0
  outer loop
   vertex -0.0957556 0.0801829 0.5
   vertex -0.0991692 0.0844361 0.5
   vertex -0.0957556 0.0801829 0
  endloop
 endfacet
 facet normal -0.779885 -0.625923 0
  outer loop
   vertex -0.0957556 0.0801829 0
   vertex -0.0991692 0.0844361 0.5
   vertex -0.0991692 0.0844361 0
  endloop
 endfacet
 facet normal -0.806444 -0.59131 -0
  outer loop
   vertex -0.0991692 0.0844361 0.5
   vertex -0.102394 0.0888343 0.5
   vertex -0.0991692 0.0844361 0
  endloop
 endfacet
 facet normal -0.806444 -0.59131 0
  outer loop
   vertex -0.0991692 0.0844361 0
   vertex -0.102394 0.0888343 0.5
   vertex -0.102394 0.0888343 0
  endloop
 endfacet
 facet normal -0.83147 -0.55557 -0
  outer loop
   vertex -0.102394 0.0888343 0.5
   vertex -0.105424 0.0933689 0.5
   vertex -0.102394 0.0888343 0
  endloop
 endfacet
 facet normal -0.83147 -0.55557 0
  outer loop
   vertex -0.102394 0.0888343 0
   vertex -0.105424 0.0933689 0.5
   vertex -0.105424 0.0933689 0
  endloop
 endfacet
 facet normal -0.854912 -0.518773 -0
  outer loop
   vertex -0.105424 0.0933689 0.5
   vertex -0.108253 0.0980313 0.5
   vertex -0.105424 0.0933689 0
  endloop
 endfacet
 facet normal -0.854912 -0.518773 0
  outer loop
   vertex -0.105424 0.0933689 0
   vertex -0.108253 0.0980313 0.5
   vertex -0.108253 0.0980313 0
  endloop
 endfacet
 facet normal -0.876727 -0.480989 -0
  outer loop
   vertex -0.108253 0.0980313 0.5
   vertex -0.110876 0.102813 0.5
   vertex -0.108253 0.0980313 0
  endloop
 endfacet
 facet normal -0.876727 -0.480989 0
  outer loop
   vertex -0.108253 0.0980313 0
   vertex -0.110876 0.102813 0.5
   vertex -0.110876 0.102813 0
  endloop
 endfacet
 facet normal -0.896872 -0.44229 -0
  outer loop
   vertex -0.110876 0.102813 0.5
   vertex -0.113288 0.107704 0.5
   vertex -0.110876 0.102813 0
  endloop
 endfacet
 facet normal -0.896872 -0.44229 0
  outer loop
   vertex -0.110876 0.102813 0
   vertex -0.113288 0.107704 0.5
   vertex -0.113288 0.107704 0
  endloop
 endfacet
 facet normal -0.915312 -0.402745 -0
  outer loop
   vertex -0.113288 0.107704 0.5
   vertex -0.115485 0.112696 0.5
   vertex -0.113288 0.107704 0
  endloop
 endfacet
 facet normal -0.915312 -0.402745 0
  outer loop
   vertex -0.113288 0.107704 0
   vertex -0.115485 0.112696 0.5
   vertex -0.115485 0.112696 0
  endloop
 endfacet
 facet normal -0.932008 -0.362439 -0
  outer loop
   vertex -0.115485 0.112696 0.5
   vertex -0.117462 0.117779 0.5
   vertex -0.115485 0.112696 0
  endloop
 endfacet
 facet normal -0.932008 -0.362439 0
  outer loop
   vertex -0.115485 0.112696 0
   vertex -0.117462 0.117779 0.5
   vertex -0.117462 0.117779 0
  endloop
 endfacet
 facet normal -0.94693 -0.321439 -0
  outer loop
   vertex -0.117462 0.117779 0.5
   vertex -0.119215 0.122943 0.5
   vertex -0.117462 0.117779 0
  endloop
 endfacet
 facet normal -0.94693 -0.321439 0
  outer loop
   vertex -0.117462 0.117779 0
   vertex -0.119215 0.122943 0.5
   vertex -0.119215 0.122943 0
  endloop
 endfacet
 facet normal -0.96005 -0.279829 -0
  outer loop
   vertex -0.119215 0.122943 0.5
   vertex -0.120741 0.128179 0.5
   vertex -0.119215 0.122943 0
  endloop
 endfacet
 facet normal -0.96005 -0.279829 0
  outer loop
   vertex -0.119215 0.122943 0
   vertex -0.120741 0.128179 0.5
   vertex -0.120741 0.128179 0
  endloop
 endfacet
 facet normal -0.971342 -0.237686 -0
  outer loop
   vertex -0.120741 0.128179 0.5
   vertex -0.122037 0.133476 0.5
   vertex -0.120741 0.128179 0
  endloop
 endfacet
 facet normal -0.971342 -0.237686 0
  outer loop
   vertex -0.120741 0.128179 0
   vertex -0.122037 0.133476 0.5
   vertex -0.122037 0.133476 0
  endloop
 endfacet
 facet normal -0.980785 -0.19509 -0
  outer loop
   vertex -0.122037 0.133476 0.5
   vertex -0.123101 0.138825 0.5
   vertex -0.122037 0.133476 0
  endloop
 endfacet
 facet normal -0.980785 -0.19509 0
  outer loop
   vertex -0.122037 0.133476 0
   vertex -0.123101 0.138825 0.5
   vertex -0.123101 0.138825 0
  endloop
 endfacet
 facet normal -0.988361 -0.152124 -0
  outer loop
   vertex -0.123101 0.138825 0.5
   vertex -0.123931 0.144216 0.5
   vertex -0.123101 0.138825 0
  endloop
 endfacet
 facet normal -0.988361 -0.152124 0
  outer loop
   vertex -0.123101 0.138825 0
   vertex -0.123931 0.144216 0.5
   vertex -0.123931 0.144216 0
  endloop
 endfacet
 facet normal -0.994056 -0.108867 -0
  outer loop
   vertex -0.123931 0.144216 0.5
   vertex -0.124524 0.149637 0.5
   vertex -0.123931 0.144216 0
  endloop
 endfacet
 facet normal -0.994056 -0.108867 0
  outer loop
   vertex -0.123931 0.144216 0
   vertex -0.124524 0.149637 0.5
   vertex -0.124524 0.149637 0
  endloop
 endfacet
 facet normal -0.997859 -0.0654029 -0
  outer loop
   vertex -0.124524 0.149637 0.5
   vertex -0.124881 0.155079 0.5
   vertex -0.124524 0.149637 0
  endloop
 endfacet
 facet normal -0.997859 -0.0654029 0
  outer loop
   vertex -0.124524 0.149637 0
   vertex -0.124881 0.155079 0.5
   vertex -0.124881 0.155079 0
  endloop
 endfacet
 facet normal -0.999762 -0.0218146 -0
  outer loop
   vertex -0.124881 0.155079 0.5
   vertex -0.125 0.160531 0.5
   vertex -0.124881 0.155079 0
  endloop
 endfacet
 facet normal -0.999762 -0.0218146 0
  outer loop
   vertex -0.124881 0.155079 0
   vertex -0.125 0.160531 0.5
   vertex -0.125 0.160531 0
  endloop
 endfacet
 facet normal -0.999762 0.0218146 0
  outer loop
   vertex -0.125 0.160531 0.5
   vertex -0.124881 0.165984 0.5
   vertex -0.125 0.160531 0
  endloop
 endfacet
 facet normal 0 -0 1
  outer loop
   vertex 0.124524 0.149637 0.5
   vertex 0.124881 0.155079 0.5
   vertex 0 0.160531 0.5
  endloop
 endfacet
 facet normal 0 -0 1
  outer loop
   vertex 0.124881 0.155079 0.5
   vertex 0.125 0.160531 0.5
   vertex 0 0.160531 0.5
  endloop
 endfacet
 facet normal 0 0 1
  outer loop
   vertex 0 0.160531 0.5
   vertex 0.125 0.160531 0.5
   vertex 0.124881 0.165984 0.5
  endloop
 endfacet
 facet normal 0 -0 1
  outer loop
   vertex 0.122037 0.133476 0.5
   vertex 0.123101 0.138825 0.5
   vertex 0 0.160531 0.5
  endloop
 endfacet
 facet normal 0 -0 1
  outer loop
   vertex 0.123101 0.138825 0.5
   vertex 0.123931 0.144216 0.5
   vertex 0 0.160531 0.5
  endloop
 endfacet
 facet normal 0 0 1
  outer loop
   vertex 0 0.160531 0.5
   vertex 0.123931 0.144216 0.5
   vertex 0.124524 0.149637 0.5
  endloop
 endfacet
 facet normal 0 -0 1
  outer loop
   vertex 0.117462 0.117779 0.5
   vertex 0.119215 0.122943 0.5
   vertex 0 0.160531 0.5
  endloop
 endfacet
 facet normal 0 -0 1
  outer loop
   vertex 0.119215 0.122943 0.5
   vertex 0.120741 0.128179 0.5
   vertex 0 0.160531 0.5
  endloop
 endfacet
 facet normal 0 0 1
  outer loop
   vertex 0 0.160531 0.5
   vertex 0.120741 0.128179 0.5
   vertex 0.122037 0.133476 0.5
  endloop
 endfacet
 facet normal 0 -0 1
  outer loop
   vertex 0.110876 0.102813 0.5
   vertex 0.113288 0.107704 0.5
   vertex 0 0.160531 0.5
  endloop
 endfacet
 facet normal 0 -0 1
  outer loop
   vertex 0.113288 0.107704 0.5
   vertex 0.115485 0.112696 0.5
   vertex 0 0.160531 0.5
  endloop
 endfacet
 facet normal 0 0 1
  outer loop
   vertex 0 0.160531 0.5
   vertex 0.115485 0.112696 0.5
   vertex 0.117462 0.117779 0.5
  endloop
 endfacet
 facet normal 0 -0 1
  outer loop
   vertex 0.102394 0.0888343 0.5
   vertex 0.105424 0.0933689 0.5
   vertex 0 0.160531 0.5
  endloop
 endfacet
 facet normal 0 -0 1
  outer loop
   vertex 0.105424 0.0933689 0.5
   vertex 0.108253 0.0980313 0.5
   vertex 0 0.160531 0.5
  endloop
 endfacet
 facet normal 0 0 1
  outer loop
   vertex 0 0.160531 0.5
   vertex 0.108253 0.0980313 0.5
   vertex 0.110876 0.102813 0.5
  endloop
 endfacet
 facet normal 0 -0 1
  outer loop
   vertex 0.0921597 0.0760825 0.5
   vertex 0.0957556 0.0801829 0.5
   vertex 0 0.160531 0.5
  endloop
 endfacet
 facet normal 0 -0 1
  outer loop
   vertex 0.0957556 0.0801829 0.5
   vertex 0.0991692 0.0844361 0.5
   vertex 0 0.160531 0.5
  endloop
 endfacet
 facet normal 0 0 1
  outer loop
   vertex 0 0.160531 0.5
   vertex 0.0991692 0.0844361 0.5
   vertex 0.102394 0.0888343 0.5
  endloop
 endfacet
 facet normal 0 -0 1
  outer loop
   vertex 0.0803485 0.0647758 0.5
   vertex 0.0844488 0.0683717 0.5
   vertex 0 0.160531 0.5
  endloop
 endfacet
 facet normal 0 -0 1
  outer loop
   vertex 0.0844488 0.0683717 0.5
   vertex 0.0883883 0.072143 0.5
   vertex 0 0.160531 0.5
  endloop
 endfacet
 facet normal 0 0 1
  outer loop
   vertex 0 0.160531 0.5
   vertex 0.0883883 0.072143 0.5
   vertex 0.0921597 0.0760825 0.5
  endloop
 endfacet
 facet normal 0 -0 1
  outer loop
   vertex 0.0671625 0.0551074 0.5
   vertex 0.0716971 0.0581373 0.5
   vertex 0 0.160531 0.5
  endloop
 endfacet
 facet normal 0 -0 1
  outer loop
   vertex 0.0716971 0.0581373 0.5
   vertex 0.0760952 0.0613622 0.5
   vertex 0 0.160531 0.5
  endloop
 endfacet
 facet normal 0 0 1
  outer loop
   vertex 0 0.160531 0.5
   vertex 0.0760952 0.0613622 0.5
   vertex 0.0803485 0.0647758 0.5
  endloop
 endfacet
 facet normal 0 -0 1
  outer loop
   vertex 0.0528273 0.0472428 0.5
   vertex 0.0577186 0.049655 0.5
   vertex 0 0.160531 0.5
  endloop
 endfacet
 facet normal 0 -0 1
  outer loop
   vertex 0.0577186 0.049655 0.5
   vertex 0.0625 0.0522782 0.5
   vertex 0 0.160531 0.5
  endloop
 endfacet
 facet normal 0 0 1
  outer loop
   vertex 0 0.160531 0.5
   vertex 0.0625 0.0522782 0.5
   vertex 0.0671625 0.0551074 0.5
  endloop
 endfacet
 facet normal 0 -0 1
  outer loop
   vertex 0.0375882 0.0413167 0.5
   vertex 0.0427525 0.0430697 0.5
   vertex 0 0.160531 0.5
  endloop
 endfacet
 facet normal 0 -0 1
  outer loop
   vertex 0.0427525 0.0430697 0.5
   vertex 0.0478354 0.0450464 0.5
   vertex 0 0.160531 0.5
  endloop
 endfacet
 facet normal 0 0 1
  outer loop
   vertex 0 0.160531 0.5
   vertex 0.0478354 0.0450464 0.5
   vertex 0.0528273 0.0472428 0.5
  endloop
 endfacet
 facet normal 0 -0 1
  outer loop
   vertex 0.021706 0.0374304 0.5
   vertex 0.027055 0.0384943 0.5
   vertex 0 0.160531 0.5
  endloop
 endfacet
 facet normal 0 -0 1
  outer loop
   vertex 0.027055 0.0384943 0.5
   vertex 0.0323524 0.0397906 0.5
   vertex 0 0.160531 0.5
  endloop
 endfacet
 facet normal 0 0 1
  outer loop
   vertex 0 0.160531 0.5
   vertex 0.0323524 0.0397906 0.5
   vertex 0.0375882 0.0413167 0.5
  endloop
 endfacet
 facet normal 0 -0 1
  outer loop
   vertex 0.00545242 0.0356503 0.5
   vertex 0.0108945 0.036007 0.5
   vertex 0 0.160531 0.5
  endloop
 endfacet
 facet normal 0 -0 1
  outer loop
   vertex 0.0108945 0.036007 0.5
   vertex 0.0163158 0.0366007 0.5
   vertex 0 0.160531 0.5
  endloop
 endfacet
 facet normal 0 0 1
  outer loop
   vertex 0 0.160531 0.5
   vertex 0.0163158 0.0366007 0.5
   vertex 0.021706 0.0374304 0.5
  endloop
 endfacet
 facet normal -0 0 1
  outer loop
   vertex -0.0108945 0.036007 0.5
   vertex -0.00545242 0.0356503 0.5
   vertex 0 0.160531 0.5
  endloop
 endfacet
 facet normal -0 0 1
  outer loop
   vertex -0.00545242 0.0356503 0.5
   vertex 2.29621e-17 0.0355313 0.5
   vertex 0 0.160531 0.5
  endloop
 endfacet
 facet normal 0 0 1
  outer loop
   vertex 0 0.160531 0.5
   vertex 2.29621e-17 0.0355313 0.5
   vertex 0.00545242 0.0356503 0.5
  endloop
 endfacet
 facet normal -0 0 1
  outer loop
   vertex -0.027055 0.0384943 0.5
   vertex -0.021706 0.0374304 0.5
   vertex 0 0.160531 0.5
  endloop
 endfacet
 facet normal -0 0 1
  outer loop
   vertex -0.021706 0.0374304 0.5
   vertex -0.0163158 0.0366007 0.5
   vertex 0 0.160531 0.5
  endloop
 endfacet
 facet normal 0 0 1
  outer loop
   vertex 0 0.160531 0.5
   vertex -0.0163158 0.0366007 0.5
   vertex -0.0108945 0.036007 0.5
  endloop
 endfacet
 facet normal -0 0 1
  outer loop
   vertex -0.0427525 0.0430697 0.5
   vertex -0.0375882 0.0413167 0.5
   vertex 0 0.160531 0.5
  endloop
 endfacet
 facet normal -0 0 1
  outer loop
   vertex -0.0375882 0.0413167 0.5
   vertex -0.0323524 0.0397906 0.5
   vertex 0 0.160531 0.5
  endloop
 endfacet
 facet normal 0 0 1
  outer loop
   vertex 0 0.160531 0.5
   vertex -0.0323524 0.0397906 0.5
   vertex -0.027055 0.0384943 0.5
  endloop
 endfacet
 facet normal -0 0 1
  outer loop
   vertex -0.0577186 0.049655 0.5
   vertex -0.0528273 0.0472428 0.5
   vertex 0 0.160531 0.5
  endloop
 endfacet
 facet normal -0 0 1
  outer loop
   vertex -0.0528273 0.0472428 0.5
   vertex -0.0478354 0.0450464 0.5
   vertex 0 0.160531 0.5
  endloop
 endfacet
 facet normal 0 0 1
  outer loop
   vertex 0 0.160531 0.5
   vertex -0.0478354 0.0450464 0.5
   vertex -0.0427525 0.0430697 0.5
  endloop
 endfacet
 facet normal -0 0 1
  outer loop
   vertex -0.0716971 0.0581373 0.5
   vertex -0.0671625 0.0551074 0.5
   vertex 0 0.160531 0.5
  endloop
 endfacet
 facet normal -0 0 1
  outer loop
   vertex -0.0671625 0.0551074 0.5
   vertex -0.0625 0.0522782 0.5
   vertex 0 0.160531 0.5
  endloop
 endfacet
 facet normal 0 0 1
  outer loop
   vertex 0 0.160531 0.5
   vertex -0.0625 0.0522782 0.5
   vertex -0.0577186 0.049655 0.5
  endloop
 endfacet
 facet normal -0 0 1
  outer loop
   vertex -0.0844488 0.0683717 0.5
   vertex -0.0803485 0.0647758 0.5
   vertex 0 0.160531 0.5
  endloop
 endfacet
 facet normal -0 0 1
  outer loop
   vertex -0.0803485 0.0647758 0.5
   vertex -0.0760952 0.0613622 0.5
   vertex 0 0.160531 0.5
  endloop
 endfacet
 facet normal 0 0 1
  outer loop
   vertex 0 0.160531 0.5
   vertex -0.0760952 0.0613622 0.5
   vertex -0.0716971 0.0581373 0.5
  endloop
 endfacet
 facet normal -0 0 1
  outer loop
   vertex -0.0957556 0.0801829 0.5
   vertex -0.0921597 0.0760825 0.5
   vertex 0 0.160531 0.5
  endloop
 endfacet
 facet normal -0 0 1
  outer loop
   vertex -0.0921597 0.0760825 0.5
   vertex -0.0883883 0.072143 0.5
   vertex 0 0.160531 0.5
  endloop
 endfacet
 facet normal 0 0 1
  outer loop
   vertex 0 0.160531 0.5
   vertex -0.0883883 0.072143 0.5
   vertex -0.0844488 0.0683717 0.5
  endloop
 endfacet
 facet normal -0 0 1
  outer loop
   vertex -0.105424 0.0933689 0.5
   vertex -0.102394 0.0888343 0.5
   vertex 0 0.160531 0.5
  endloop
 endfacet
 facet normal -0 0 1
  outer loop
   vertex -0.102394 0.0888343 0.5
   vertex -0.0991692 0.0844361 0.5
   vertex 0 0.160531 0.5
  endloop
 endfacet
 facet normal 0 0 1
  outer loop
   vertex 0 0.160531 0.5
   vertex -0.0991692 0.0844361 0.5
   vertex -0.0957556 0.0801829 0.5
  endloop
 endfacet
 facet normal -0 0 1
  outer loop
   vertex -0.113288 0.107704 0.5
   vertex -0.110876 0.102813 0.5
   vertex 0 0.160531 0.5
  endloop
 endfacet
 facet normal -0 0 1
  outer loop
   vertex -0.110876 0.102813 0.5
   vertex -0.108253 0.0980313 0.5
   vertex 0 0.160531 0.5
  endloop
 endfacet
 facet normal 0 0 1
  outer loop
   vertex 0 0.160531 0.5
   vertex -0.108253 0.0980313 0.5
   vertex -0.105424 0.0933689 0.5
  endloop
 endfacet
 facet normal -0 0 1
  outer loop
   vertex -0.119215 0.122943 0.5
   vertex -0.117462 0.117779 0.5
   vertex 0 0.160531 0.5
  endloop
 endfacet
 facet normal -0 0 1
  outer loop
   vertex -0.117462 0.117779 0.5
   vertex -0.115485 0.112696 0.5
   vertex 0 0.160531 0.5
  endloop
 endfacet
 facet normal 0 0 1
  outer loop
   vertex 0 0.160531 0.5
   vertex -0.115485 0.112696 0.5
   vertex -0.113288 0.107704 0.5
  endloop
 endfacet
 facet normal -0 0 1
  outer loop
   vertex -0.123101 0.138825 0.5
   vertex -0.122037 0.133476 0.5
   vertex 0 0.160531 0.5
  endloop
 endfacet
 facet normal -0 0 1
  outer loop
   vertex -0.122037 0.133476 0.5
   vertex -0.120741 0.128179 0.5
   vertex 0 0.160531 0.5
  endloop
 endfacet
 facet normal 0 0 1
  outer loop
   vertex 0 0.160531 0.5
   vertex -0.120741 0.128179 0.5
   vertex -0.119215 0.122943 0.5
  endloop
 endfacet
 facet normal -0 0 1
  outer loop
   vertex -0.124881 0.155079 0.5
   vertex -0.124524 0.149637 0.5
   vertex 0 0.160531 0.5
  endloop
 endfacet
 facet normal -0 0 1
  outer loop
   vertex -0.124524 0.149637 0.5
   vertex -0.123931 0.144216 0.5
   vertex 0 0.160531 0.5
  endloop
 endfacet
 facet normal 0 0 1
  outer loop
   vertex 0 0.160531 0.5
   vertex -0.123931 0.144216 0.5
   vertex -0.123101 0.138825 0.5
  endloop
 endfacet
 facet normal 0 0 1
  outer loop
   vertex -0.124524 0.171426 0.5
   vertex -0.124881 0.165984 0.5
   vertex 0 0.160531 0.5
  endloop
 endfacet
 facet normal 0 0 1
  outer loop
   vertex -0.124881 0.165984 0.5
   vertex -0.125 0.160531 0.5
   vertex 0 0.160531 0.5
  endloop
 endfacet
 facet normal 0 0 1
  outer loop
   vertex 0 0.160531 0.5
   vertex -0.125 0.160531 0.5
   vertex -0.124881 0.155079 0.5
  endloop
 endfacet
 facet normal 0 0 1
  outer loop
   vertex -0.122037 0.187586 0.5
   vertex -0.123101 0.182237 0.5
   vertex 0 0.160531 0.5
  endloop
 endfacet
 facet normal 0 0 1
  outer loop
   vertex -0.123101 0.182237 0.5
   vertex -0.123931 0.176847 0.5
   vertex 0 0.160531 0.5
  endloop
 endfacet
 facet normal 0 0 1
  outer loop
   vertex 0 0.160531 0.5
   vertex -0.123931 0.176847 0.5
   vertex -0.124524 0.171426 0.5
  endloop
 endfacet
 facet normal 0 0 1
  outer loop
   vertex -0.117462 0.203284 0.5
   vertex -0.119215 0.19812 0.5
   vertex 0 0.160531 0.5
  endloop
 endfacet
 facet normal 0 0 1
  outer loop
   vertex -0.119215 0.19812 0.5
   vertex -0.120741 0.192884 0.5
   vertex 0 0.160531 0.5
  endloop
 endfacet
 facet normal 0 0 1
  outer loop
   vertex 0 0.160531 0.5
   vertex -0.120741 0.192884 0.5
   vertex -0.122037 0.187586 0.5
  endloop
 endfacet
 facet normal 0 0 1
  outer loop
   vertex -0.110876 0.21825 0.5
   vertex -0.113288 0.213359 0.5
   vertex 0 0.160531 0.5
  endloop
 endfacet
 facet normal 0 0 1
  outer loop
   vertex -0.113288 0.213359 0.5
   vertex -0.115485 0.208367 0.5
   vertex 0 0.160531 0.5
  endloop
 endfacet
 facet normal 0 0 1
  outer loop
   vertex 0 0.160531 0.5
   vertex -0.115485 0.208367 0.5
   vertex -0.117462 0.203284 0.5
  endloop
 endfacet
 facet normal 0 0 1
  outer loop
   vertex -0.102394 0.232228 0.5
   vertex -0.105424 0.227694 0.5
   vertex 0 0.160531 0.5
  endloop
 endfacet
 facet normal 0 0 1
  outer loop
   vertex -0.105424 0.227694 0.5
   vertex -0.108253 0.223031 0.5
   vertex 0 0.160531 0.5
  endloop
 endfacet
 facet normal 0 0 1
  outer loop
   vertex 0 0.160531 0.5
   vertex -0.108253 0.223031 0.5
   vertex -0.110876 0.21825 0.5
  endloop
 endfacet
 facet normal 0 0 1
  outer loop
   vertex -0.0921597 0.24498 0.5
   vertex -0.0957556 0.24088 0.5
   vertex 0 0.160531 0.5
  endloop
 endfacet
 facet normal 0 0 1
  outer loop
   vertex -0.0957556 0.24088 0.5
   vertex -0.0991692 0.236627 0.5
   vertex 0 0.160531 0.5
  endloop
 endfacet
 facet normal 0 0 1
  outer loop
   vertex 0 0.160531 0.5
   vertex -0.0991692 0.236627 0.5
   vertex -0.102394 0.232228 0.5
  endloop
 endfacet
 facet normal 0 0 1
  outer loop
   vertex -0.0803485 0.256287 0.5
   vertex -0.0844488 0.252691 0.5
   vertex 0 0.160531 0.5
  endloop
 endfacet
 facet normal 0 0 1
  outer loop
   vertex -0.0844488 0.252691 0.5
   vertex -0.0883883 0.24892 0.5
   vertex 0 0.160531 0.5
  endloop
 endfacet
 facet normal 0 0 1
  outer loop
   vertex 0 0.160531 0.5
   vertex -0.0883883 0.24892 0.5
   vertex -0.0921597 0.24498 0.5
  endloop
 endfacet
 facet normal 0 0 1
  outer loop
   vertex -0.0671625 0.265955 0.5
   vertex -0.0716971 0.262925 0.5
   vertex 0 0.160531 0.5
  endloop
 endfacet
 facet normal 0 0 1
  outer loop
   vertex -0.0716971 0.262925 0.5
   vertex -0.0760952 0.2597 0.5
   vertex 0 0.160531 0.5
  endloop
 endfacet
 facet normal 0 0 1
  outer loop
   vertex 0 0.160531 0.5
   vertex -0.0760952 0.2597 0.5
   vertex -0.0803485 0.256287 0.5
  endloop
 endfacet
 facet normal 0 0 1
  outer loop
   vertex -0.0528273 0.27382 0.5
   vertex -0.0577186 0.271408 0.5
   vertex 0 0.160531 0.5
  endloop
 endfacet
 facet normal 0 0 1
  outer loop
   vertex -0.0577186 0.271408 0.5
   vertex -0.0625 0.268784 0.5
   vertex 0 0.160531 0.5
  endloop
 endfacet
 facet normal 0 0 1
  outer loop
   vertex 0 0.160531 0.5
   vertex -0.0625 0.268784 0.5
   vertex -0.0671625 0.265955 0.5
  endloop
 endfacet
 facet normal 0 0 1
  outer loop
   vertex -0.0375882 0.279746 0.5
   vertex -0.0427525 0.277993 0.5
   vertex 0 0.160531 0.5
  endloop
 endfacet
 facet normal 0 0 1
  outer loop
   vertex -0.0427525 0.277993 0.5
   vertex -0.0478354 0.276016 0.5
   vertex 0 0.160531 0.5
  endloop
 endfacet
 facet normal 0 0 1
  outer loop
   vertex 0 0.160531 0.5
   vertex -0.0478354 0.276016 0.5
   vertex -0.0528273 0.27382 0.5
  endloop
 endfacet
 facet normal 0 0 1
  outer loop
   vertex -0.021706 0.283632 0.5
   vertex -0.027055 0.282568 0.5
   vertex 0 0.160531 0.5
  endloop
 endfacet
 facet normal 0 0 1
  outer loop
   vertex -0.027055 0.282568 0.5
   vertex -0.0323524 0.281272 0.5
   vertex 0 0.160531 0.5
  endloop
 endfacet
 facet normal 0 0 1
  outer loop
   vertex 0 0.160531 0.5
   vertex -0.0323524 0.281272 0.5
   vertex -0.0375882 0.279746 0.5
  endloop
 endfacet
 facet normal 0 0 1
  outer loop
   vertex -0.00545242 0.285412 0.5
   vertex -0.0108945 0.285056 0.5
   vertex 0 0.160531 0.5
  endloop
 endfacet
 facet normal 0 0 1
  outer loop
   vertex -0.0108945 0.285056 0.5
   vertex -0.0163158 0.284462 0.5
   vertex 0 0.160531 0.5
  endloop
 endfacet
 facet normal 0 0 1
  outer loop
   vertex 0 0.160531 0.5
   vertex -0.0163158 0.284462 0.5
   vertex -0.021706 0.283632 0.5
  endloop
 endfacet
 facet normal 0 0 1
  outer loop
   vertex 0.0108945 0.285056 0.5
   vertex 0.00545242 0.285412 0.5
   vertex 0 0.160531 0.5
  endloop
 endfacet
 facet normal 0 0 1
  outer loop
   vertex 0.00545242 0.285412 0.5
   vertex -7.65404e-18 0.285531 0.5
   vertex 0 0.160531 0.5
  endloop
 endfacet
 facet normal 0 0 1
  outer loop
   vertex 0 0.160531 0.5
   vertex -7.65404e-18 0.285531 0.5
   vertex -0.00545242 0.285412 0.5
  endloop
 endfacet
 facet normal 0 0 1
  outer loop
   vertex 0.027055 0.282568 0.5
   vertex 0.021706 0.283632 0.5
   vertex 0 0.160531 0.5
  endloop
 endfacet
 facet normal 0 0 1
  outer loop
   vertex 0.021706 0.283632 0.5
   vertex 0.0163158 0.284462 0.5
   vertex 0 0.160531 0.5
  endloop
 endfacet
 facet normal 0 0 1
  outer loop
   vertex 0 0.160531 0.5
   vertex 0.0163158 0.284462 0.5
   vertex 0.0108945 0.285056 0.5
  endloop
 endfacet
 facet normal 0 0 1
  outer loop
   vertex 0.0427525 0.277993 0.5
   vertex 0.0375882 0.279746 0.5
   vertex 0 0.160531 0.5
  endloop
 endfacet
 facet normal 0 0 1
  outer loop
   vertex 0.0375882 0.279746 0.5
   vertex 0.0323524 0.281272 0.5
   vertex 0 0.160531 0.5
  endloop
 endfacet
 facet normal 0 0 1
  outer loop
   vertex 0 0.160531 0.5
   vertex 0.0323524 0.281272 0.5
   vertex 0.027055 0.282568 0.5
  endloop
 endfacet
 facet normal 0 0 1
  outer loop
   vertex 0.0577186 0.271408 0.5
   vertex 0.0528273 0.27382 0.5
   vertex 0 0.160531 0.5
  endloop
 endfacet
 facet normal 0 0 1
  outer loop
   vertex 0.0528273 0.27382 0.5
   vertex 0.0478354 0.276016 0.5
   vertex 0 0.160531 0.5
  endloop
 endfacet
 facet normal 0 0 1
  outer loop
   vertex 0 0.160531 0.5
   vertex 0.0478354 0.276016 0.5
   vertex 0.0427525 0.277993 0.5
  endloop
 endfacet
 facet normal 0 0 1
  outer loop
   vertex 0.0716971 0.262925 0.5
   vertex 0.0671625 0.265955 0.5
   vertex 0 0.160531 0.5
  endloop
 endfacet
 facet normal 0 0 1
  outer loop
   vertex 0.0671625 0.265955 0.5
   vertex 0.0625 0.268784 0.5
   vertex 0 0.160531 0.5
  endloop
 endfacet
 facet normal 0 0 1
  outer loop
   vertex 0 0.160531 0.5
   vertex 0.0625 0.268784 0.5
   vertex 0.0577186 0.271408 0.5
  endloop
 endfacet
 facet normal 0 0 1
  outer loop
   vertex 0.0844488 0.252691 0.5
   vertex 0.0803485 0.256287 0.5
   vertex 0 0.160531 0.5
  endloop
 endfacet
 facet normal 0 0 1
  outer loop
   vertex 0.0803485 0.256287 0.5
   vertex 0.0760952 0.2597 0.5
   vertex 0 0.160531 0.5
  endloop
 endfacet
 facet normal 0 0 1
  outer loop
   vertex 0 0.160531 0.5
   vertex 0.0760952 0.2597 0.5
   vertex 0.0716971 0.262925 0.5
  endloop
 endfacet
 facet normal 0 0 1
  outer loop
   vertex 0.0957556 0.24088 0.5
   vertex 0.0921597 0.24498 0.5
   vertex 0 0.160531 0.5
  endloop
 endfacet
 facet normal 0 0 1
  outer loop
   vertex 0.0921597 0.24498 0.5
   vertex 0.0883883 0.24892 0.5
   vertex 0 0.160531 0.5
  endloop
 endfacet
 facet normal 0 0 1
  outer loop
   vertex 0 0.160531 0.5
   vertex 0.0883883 0.24892 0.5
   vertex 0.0844488 0.252691 0.5
  endloop
 endfacet
 facet normal 0 0 1
  outer loop
   vertex 0.105424 0.227694 0.5
   vertex 0.102394 0.232228 0.5
   vertex 0 0.160531 0.5
  endloop
 endfacet
 facet normal 0 0 1
  outer loop
   vertex 0.102394 0.232228 0.5
   vertex 0.0991692 0.236627 0.5
   vertex 0 0.160531 0.5
  endloop
 endfacet
 facet normal 0 0 1
  outer loop
   vertex 0 0.160531 0.5
   vertex 0.0991692 0.236627 0.5
   vertex 0.0957556 0.24088 0.5
  endloop
 endfacet
 facet normal 0 0 1
  outer loop
   vertex 0.113288 0.213359 0.5
   vertex 0.110876 0.21825 0.5
   vertex 0 0.160531 0.5
  endloop
 endfacet
 facet normal 0 0 1
  outer loop
   vertex 0.110876 0.21825 0.5
   vertex 0.108253 0.223031 0.5
   vertex 0 0.160531 0.5
  endloop
 endfacet
 facet normal 0 0 1
  outer loop
   vertex 0 0.160531 0.5
   vertex 0.108253 0.223031 0.5
   vertex 0.105424 0.227694 0.5
  endloop
 endfacet
 facet normal 0 0 1
  outer loop
   vertex 0.119215 0.19812 0.5
   vertex 0.117462 0.203284 0.5
   vertex 0 0.160531 0.5
  endloop
 endfacet
 facet normal 0 0 1
  outer loop
   vertex 0.117462 0.203284 0.5
   vertex 0.115485 0.208367 0.5
   vertex 0 0.160531 0.5
  endloop
 endfacet
 facet normal 0 0 1
  outer loop
   vertex 0 0.160531 0.5
   vertex 0.115485 0.208367 0.5
   vertex 0.113288 0.213359 0.5
  endloop
 endfacet
 facet normal 0 0 1
  outer loop
   vertex 0.123101 0.182237 0.5
   vertex 0.122037 0.187586 0.5
   vertex 0 0.160531 0.5
  endloop
 endfacet
 facet normal 0 0 1
  outer loop
   vertex 0.122037 0.187586 0.5
   vertex 0.120741 0.192884 0.5
   vertex 0 0.160531 0.5
  endloop
 endfacet
 facet normal 0 0 1
  outer loop
   vertex 0 0.160531 0.5
   vertex 0.120741 0.192884 0.5
   vertex 0.119215 0.19812 0.5
  endloop
 endfacet
 facet normal 0 0 1
  outer loop
   vertex 0.124881 0.165984 0.5
   vertex 0.124524 0.171426 0.5
   vertex 0 0.160531 0.5
  endloop
 endfacet
 facet normal 0 0 1
  outer loop
   vertex 0.124524 0.171426 0.5
   vertex 0.123931 0.176847 0.5
   vertex 0 0.160531 0.5
  endloop
 endfacet
 facet normal 0 0 1
  outer loop
   vertex 0 0.160531 0.5
   vertex 0.123931 0.176847 0.5
   vertex 0.123101 0.182237 0.5
  endloop
 endfacet
endsolid zone0
