solid zone0
 facet normal 0 -0 -1
  outer loop
   vertex 0.124524 0.172789 0
   vertex 0.124881 0.167347 0
   vertex 0 0.161895 0
  endloop
 endfacet
 facet normal 0 -0 -1
  outer loop
   vertex 0.124881 0.167347 0
   vertex 0.125 0.161895 0
   vertex 0 0.161895 0
  endloop
 endfacet
 facet normal 0 0 -1
  outer loop
   vertex 0 0.161895 0
   vertex 0.125 0.161895 0
   vertex 0.124881 0.156443 0
  endloop
 endfacet
 facet normal 0 -0 -1
  outer loop
   vertex 0.122037 0.18895 0
   vertex 0.123101 0.183601 0
   vertex 0 0.161895 0
  endloop
 endfacet
 facet normal 0 -0 -1
  outer loop
   vertex 0.123101 0.183601 0
   vertex 0.123931 0.178211 0
   vertex 0 0.161895 0
  endloop
 endfacet
 facet normal 0 0 -1
  outer loop
   vertex 0 0.161895 0
   vertex 0.123931 0.178211 0
   vertex 0.124524 0.172789 0
  endloop
 endfacet
 facet normal 0 -0 -1
  outer loop
   vertex 0.117462 0.204647 0
   vertex 0.119215 0.199483 0
   vertex 0 0.161895 0
  endloop
 endfacet
 facet normal 0 -0 -1
  outer loop
   vertex 0.119215 0.199483 0
   vertex 0.120741 0.194247 0
   vertex 0 0.161895 0
  endloop
 endfacet
 facet normal 0 0 -1
  outer loop
   vertex 0 0.161895 0
   vertex 0.120741 0.194247 0
   vertex 0.122037 0.18895 0
  endloop
 endfacet
 facet normal 0 -0 -1
  outer loop
   vertex 0.110876 0.219614 0
   vertex 0.113288 0.214722 0
   vertex 0 0.161895 0
  endloop
 endfacet
 facet normal 0 -0 -1
  outer loop
   vertex 0.113288 0.214722 0
   vertex 0.115485 0.20973 0
   vertex 0 0.161895 0
  endloop
 endfacet
 facet normal 0 0 -1
  outer loop
   vertex 0 0.161895 0
   vertex 0.115485 0.20973 0
   vertex 0.117462 0.204647 0
  endloop
 endfacet
 facet normal 0 -0 -1
  outer loop
   vertex 0.102394 0.233592 0
   vertex 0.105424 0.229057 0
   vertex 0 0.161895 0
  endloop
 endfacet
 facet normal 0 -0 -1
  outer loop
   vertex 0.105424 0.229057 0
   vertex 0.108253 0.224395 0
   vertex 0 0.161895 0
  endloop
 endfacet
 facet normal 0 0 -1
  outer loop
   vertex 0 0.161895 0
   vertex 0.108253 0.224395 0
   vertex 0.110876 0.219614 0
  endloop
 endfacet
 facet normal 0 -0 -1
  outer loop
   vertex 0.0921597 0.246344 0
   vertex 0.0957556 0.242243 0
   vertex 0 0.161895 0
  endloop
 endfacet
 facet normal 0 -0 -1
  outer loop
   vertex 0.0957556 0.242243 0
   vertex 0.0991692 0.23799 0
   vertex 0 0.161895 0
  endloop
 endfacet
 facet normal 0 0 -1
  outer loop
   vertex 0 0.161895 0
   vertex 0.0991692 0.23799 0
   vertex 0.102394 0.233592 0
  endloop
 endfacet
 facet normal 0 -0 -1
  outer loop
   vertex 0.0803485 0.257651 0
   vertex 0.0844488 0.254055 0
   vertex 0 0.161895 0
  endloop
 endfacet
 facet normal 0 -0 -1
  outer loop
   vertex 0.0844488 0.254055 0
   vertex 0.0883883 0.250283 0
   vertex 0 0.161895 0
  endloop
 endfacet
 facet normal 0 0 -1
  outer loop
   vertex 0 0.161895 0
   vertex 0.0883883 0.250283 0
   vertex 0.0921597 0.246344 0
  endloop
 endfacet
 facet normal 0 -0 -1
  outer loop
   vertex 0.0671625 0.267319 0
   vertex 0.0716971 0.264289 0
   vertex 0 0.161895 0
  endloop
 endfacet
 facet normal 0 -0 -1
  outer loop
   vertex 0.0716971 0.264289 0
   vertex 0.0760952 0.261064 0
   vertex 0 0.161895 0
  endloop
 endfacet
 facet normal 0 0 -1
  outer loop
   vertex 0 0.161895 0
   vertex 0.0760952 0.261064 0
   vertex 0.0803485 0.257651 0
  endloop
 endfacet
 facet normal 0 -0 -1
  outer loop
   vertex 0.0528273 0.275183 0
   vertex 0.0577186 0.272771 0
   vertex 0 0.161895 0
  endloop
 endfacet
 facet normal 0 -0 -1
  outer loop
   vertex 0.0577186 0.272771 0
   vertex 0.0625 0.270148 0
   vertex 0 0.161895 0
  endloop
 endfacet
 facet normal 0 0 -1
  outer loop
   vertex 0 0.161895 0
   vertex 0.0625 0.270148 0
   vertex 0.0671625 0.267319 0
  endloop
 endfacet
 facet normal 0 -0 -1
  outer loop
   vertex 0.0375882 0.28111 0
   vertex 0.0427525 0.279357 0
   vertex 0 0.161895 0
  endloop
 endfacet
 facet normal 0 -0 -1
  outer loop
   vertex 0.0427525 0.279357 0
   vertex 0.0478354 0.27738 0
   vertex 0 0.161895 0
  endloop
 endfacet
 facet normal 0 0 -1
  outer loop
   vertex 0 0.161895 0
   vertex 0.0478354 0.27738 0
   vertex 0.0528273 0.275183 0
  endloop
 endfacet
 facet normal 0 -0 -1
  outer loop
   vertex 0.021706 0.284996 0
   vertex 0.027055 0.283932 0
   vertex 0 0.161895 0
  endloop
 endfacet
 facet normal 0 -0 -1
  outer loop
   vertex 0.027055 0.283932 0
   vertex 0.0323524 0.282636 0
   vertex 0 0.161895 0
  endloop
 endfacet
 facet normal 0 0 -1
  outer loop
   vertex 0 0.161895 0
   vertex 0.0323524 0.282636 0
   vertex 0.0375882 0.28111 0
  endloop
 endfacet
 facet normal 0 -0 -1
  outer loop
   vertex 0.00545242 0.286776 0
   vertex 0.0108945 0.286419 0
   vertex 0 0.161895 0
  endloop
 endfacet
 facet normal 0 -0 -1
  outer loop
   vertex 0.0108945 0.286419 0
   vertex 0.0163158 0.285826 0
   vertex 0 0.161895 0
  endloop
 endfacet
 facet normal 0 0 -1
  outer loop
   vertex 0 0.161895 0
   vertex 0.0163158 0.285826 0
   vertex 0.021706 0.284996 0
  endloop
 endfacet
 facet normal 0 0 -1
  outer loop
   vertex -0.0108945 0.286419 0
   vertex -0.00545242 0.286776 0
   vertex 0 0.161895 0
  endloop
 endfacet
 facet normal 0 0 -1
  outer loop
   vertex -0.00545242 0.286776 0
   vertex -7.65404e-18 0.286895 0
   vertex 0 0.161895 0
  endloop
 endfacet
 facet normal 0 0 -1
  outer loop
   vertex 0 0.161895 0
   vertex -7.65404e-18 0.286895 0
   vertex 0.00545242 0.286776 0
  endloop
 endfacet
 facet normal 0 0 -1
  outer loop
   vertex -0.027055 0.283932 0
   vertex -0.021706 0.284996 0
   vertex 0 0.161895 0
  endloop
 endfacet
 facet normal 0 0 -1
  outer loop
   vertex -0.021706 0.284996 0
   vertex -0.0163158 0.285826 0
   vertex 0 0.161895 0
  endloop
 endfacet
 facet normal 0 0 -1
  outer loop
   vertex 0 0.161895 0
   vertex -0.0163158 0.285826 0
   vertex -0.0108945 0.286419 0
  endloop
 endfacet
 facet normal 0 0 -1
  outer loop
   vertex -0.0427525 0.279357 0
   vertex -0.0375882 0.28111 0
   vertex 0 0.161895 0
  endloop
 endfacet
 facet normal 0 0 -1
  outer loop
   vertex -0.0375882 0.28111 0
   vertex -0.0323524 0.282636 0
   vertex 0 0.161895 0
  endloop
 endfacet
 facet normal 0 0 -1
  outer loop
   vertex 0 0.161895 0
   vertex -0.0323524 0.282636 0
   vertex -0.027055 0.283932 0
  endloop
 endfacet
 facet normal 0 0 -1
  outer loop
   vertex -0.0577186 0.272771 0
   vertex -0.0528273 0.275183 0
   vertex 0 0.161895 0
  endloop
 endfacet
 facet normal 0 0 -1
  outer loop
   vertex -0.0528273 0.275183 0
   vertex -0.0478354 0.27738 0
   vertex 0 0.161895 0
  endloop
 endfacet
 facet normal 0 0 -1
  outer loop
   vertex 0 0.161895 0
   vertex -0.0478354 0.27738 0
   vertex -0.0427525 0.279357 0
  endloop
 endfacet
 facet normal 0 0 -1
  outer loop
   vertex -0.0716971 0.264289 0
   vertex -0.0671625 0.267319 0
   vertex 0 0.161895 0
  endloop
 endfacet
 facet normal 0 0 -1
  outer loop
   vertex -0.0671625 0.267319 0
   vertex -0.0625 0.270148 0
   vertex 0 0.161895 0
  endloop
 endfacet
 facet normal 0 0 -1
  outer loop
   vertex 0 0.161895 0
   vertex -0.0625 0.270148 0
   vertex -0.0577186 0.272771 0
  endloop
 endfacet
 facet normal 0 0 -1
  outer loop
   vertex -0.0844488 0.254055 0
   vertex -0.0803485 0.257651 0
   vertex 0 0.161895 0
  endloop
 endfacet
 facet normal 0 0 -1
  outer loop
   vertex -0.0803485 0.257651 0
   vertex -0.0760952 0.261064 0
   vertex 0 0.161895 0
  endloop
 endfacet
 facet normal 0 0 -1
  outer loop
   vertex 0 0.161895 0
   vertex -0.0760952 0.261064 0
   vertex -0.0716971 0.264289 0
  endloop
 endfacet
 facet normal 0 0 -1
  outer loop
   vertex -0.0957556 0.242243 0
   vertex -0.0921597 0.246344 0
   vertex 0 0.161895 0
  endloop
 endfacet
 facet normal 0 0 -1
  outer loop
   vertex -0.0921597 0.246344 0
   vertex -0.0883883 0.250283 0
   vertex 0 0.161895 0
  endloop
 endfacet
 facet normal 0 0 -1
  outer loop
   vertex 0 0.161895 0
   vertex -0.0883883 0.250283 0
   vertex -0.0844488 0.254055 0
  endloop
 endfacet
 facet normal 0 0 -1
  outer loop
   vertex -0.105424 0.229057 0
   vertex -0.102394 0.233592 0
   vertex 0 0.161895 0
  endloop
 endfacet
 facet normal 0 0 -1
  outer loop
   vertex -0.102394 0.233592 0
   vertex -0.0991692 0.23799 0
   vertex 0 0.161895 0
  endloop
 endfacet
 facet normal 0 0 -1
  outer loop
   vertex 0 0.161895 0
   vertex -0.0991692 0.23799 0
   vertex -0.0957556 0.242243 0
  endloop
 endfacet
 facet normal 0 0 -1
  outer loop
   vertex -0.113288 0.214722 0
   vertex -0.110876 0.219614 0
   vertex 0 0.161895 0
  endloop
 endfacet
 facet normal 0 0 -1
  outer loop
   vertex -0.110876 0.219614 0
   vertex -0.108253 0.224395 0
   vertex 0 0.161895 0
  endloop
 endfacet
 facet normal 0 0 -1
  outer loop
   vertex 0 0.161895 0
   vertex -0.108253 0.224395 0
   vertex -0.105424 0.229057 0
  endloop
 endfacet
 facet normal 0 0 -1
  outer loop
   vertex -0.119215 0.199483 0
   vertex -0.117462 0.204647 0
   vertex 0 0.161895 0
  endloop
 endfacet
 facet normal 0 0 -1
  outer loop
   vertex -0.117462 0.204647 0
   vertex -0.115485 0.20973 0
   vertex 0 0.161895 0
  endloop
 endfacet
 facet normal 0 0 -1
  outer loop
   vertex 0 0.161895 0
   vertex -0.115485 0.20973 0
   vertex -0.113288 0.214722 0
  endloop
 endfacet
 facet normal 0 0 -1
  outer loop
   vertex -0.123101 0.183601 0
   vertex -0.122037 0.18895 0
   vertex 0 0.161895 0
  endloop
 endfacet
 facet normal 0 0 -1
  outer loop
   vertex -0.122037 0.18895 0
   vertex -0.120741 0.194247 0
   vertex 0 0.161895 0
  endloop
 endfacet
 facet normal 0 0 -1
  outer loop
   vertex 0 0.161895 0
   vertex -0.120741 0.194247 0
   vertex -0.119215 0.199483 0
  endloop
 endfacet
 facet normal 0 0 -1
  outer loop
   vertex -0.124881 0.167347 0
   vertex -0.124524 0.172789 0
   vertex 0 0.161895 0
  endloop
 endfacet
 facet normal 0 0 -1
  outer loop
   vertex -0.124524 0.172789 0
   vertex -0.123931 0.178211 0
   vertex 0 0.161895 0
  endloop
 endfacet
 facet normal 0 0 -1
  outer loop
   vertex 0 0.161895 0
   vertex -0.123931 0.178211 0
   vertex -0.123101 0.183601 0
  endloop
 endfacet
 facet normal 0 0 -1
  outer loop
   vertex -0.124524 0.151001 0
   vertex -0.124881 0.156443 0
   vertex 0 0.161895 0
  endloop
 endfacet
 facet normal 0 0 -1
  outer loop
   vertex -0.124881 0.156443 0
   vertex -0.125 0.161895 0
   vertex 0 0.161895 0
  endloop
 endfacet
 facet normal 0 0 -1
  outer loop
   vertex 0 0.161895 0
   vertex -0.125 0.161895 0
   vertex -0.124881 0.167347 0
  endloop
 endfacet
 facet normal 0 0 -1
  outer loop
   vertex -0.122037 0.13484 0
   vertex -0.123101 0.140189 0
   vertex 0 0.161895 0
  endloop
 endfacet
 facet normal 0 0 -1
  outer loop
   vertex -0.123101 0.140189 0
   vertex -0.123931 0.145579 0
   vertex 0 0.161895 0
  endloop
 endfacet
 facet normal 0 0 -1
  outer loop
   vertex 0 0.161895 0
   vertex -0.123931 0.145579 0
   vertex -0.124524 0.151001 0
  endloop
 endfacet
 facet normal 0 0 -1
  outer loop
   vertex -0.117462 0.119142 0
   vertex -0.119215 0.124307 0
   vertex 0 0.161895 0
  endloop
 endfacet
 facet normal 0 0 -1
  outer loop
   vertex -0.119215 0.124307 0
   vertex -0.120741 0.129543 0
   vertex 0 0.161895 0
  endloop
 endfacet
 facet normal 0 0 -1
  outer loop
   vertex 0 0.161895 0
   vertex -0.120741 0.129543 0
   vertex -0.122037 0.13484 0
  endloop
 endfacet
 facet normal 0 0 -1
  outer loop
   vertex -0.110876 0.104176 0
   vertex -0.113288 0.109068 0
   vertex 0 0.161895 0
  endloop
 endfacet
 facet normal 0 0 -1
  outer loop
   vertex -0.113288 0.109068 0
   vertex -0.115485 0.11406 0
   vertex 0 0.161895 0
  endloop
 endfacet
 facet normal 0 0 -1
  outer loop
   vertex 0 0.161895 0
   vertex -0.115485 0.11406 0
   vertex -0.117462 0.119142 0
  endloop
 endfacet
 facet normal 0 0 -1
  outer loop
   vertex -0.102394 0.0901979 0
   vertex -0.105424 0.0947325 0
   vertex 0 0.161895 0
  endloop
 endfacet
 facet normal 0 0 -1
  outer loop
   vertex -0.105424 0.0947325 0
   vertex -0.108253 0.099395 0
   vertex 0 0.161895 0
  endloop
 endfacet
 facet normal 0 0 -1
  outer loop
   vertex 0 0.161895 0
   vertex -0.108253 0.099395 0
   vertex -0.110876 0.104176 0
  endloop
 endfacet
 facet normal 0 0 -1
  outer loop
   vertex -0.0921597 0.0774462 0
   vertex -0.0957556 0.0815465 0
   vertex 0 0.161895 0
  endloop
 endfacet
 facet normal 0 0 -1
  outer loop
   vertex -0.0957556 0.0815465 0
   vertex -0.0991692 0.0857998 0
   vertex 0 0.161895 0
  endloop
 endfacet
 facet normal 0 0 -1
  outer loop
   vertex 0 0.161895 0
   vertex -0.0991692 0.0857998 0
   vertex -0.102394 0.0901979 0
  endloop
 endfacet
 facet normal 0 0 -1
  outer loop
   vertex -0.0803485 0.0661394 0
   vertex -0.0844488 0.0697353 0
   vertex 0 0.161895 0
  endloop
 endfacet
 facet normal 0 0 -1
  outer loop
   vertex -0.0844488 0.0697353 0
   vertex -0.0883883 0.0735066 0
   vertex 0 0.161895 0
  endloop
 endfacet
 facet normal 0 0 -1
  outer loop
   vertex 0 0.161895 0
   vertex -0.0883883 0.0735066 0
   vertex -0.0921597 0.0774462 0
  endloop
 endfacet
 facet normal 0 0 -1
  outer loop
   vertex -0.0671625 0.0564711 0
   vertex -0.0716971 0.059501 0
   vertex 0 0.161895 0
  endloop
 endfacet
 facet normal 0 0 -1
  outer loop
   vertex -0.0716971 0.059501 0
   vertex -0.0760952 0.0627258 0
   vertex 0 0.161895 0
  endloop
 endfacet
 facet normal 0 0 -1
  outer loop
   vertex 0 0.161895 0
   vertex -0.0760952 0.0627258 0
   vertex -0.0803485 0.0661394 0
  endloop
 endfacet
 facet normal 0 0 -1
  outer loop
   vertex -0.0528273 0.0486065 0
   vertex -0.0577186 0.0510186 0
   vertex 0 0.161895 0
  endloop
 endfacet
 facet normal 0 0 -1
  outer loop
   vertex -0.0577186 0.0510186 0
   vertex -0.0625 0.0536418 0
   vertex 0 0.161895 0
  endloop
 endfacet
 facet normal 0 0 -1
  outer loop
   vertex 0 0.161895 0
   vertex -0.0625 0.0536418 0
   vertex -0.0671625 0.0564711 0
  endloop
 endfacet
 facet normal 0 0 -1
  outer loop
   vertex -0.0375882 0.0426804 0
   vertex -0.0427525 0.0444334 0
   vertex 0 0.161895 0
  endloop
 endfacet
 facet normal 0 0 -1
  outer loop
   vertex -0.0427525 0.0444334 0
   vertex -0.0478354 0.04641 0
   vertex 0 0.161895 0
  endloop
 endfacet
 facet normal 0 0 -1
  outer loop
   vertex 0 0.161895 0
   vertex -0.0478354 0.04641 0
   vertex -0.0528273 0.0486065 0
  endloop
 endfacet
 facet normal 0 0 -1
  outer loop
   vertex -0.021706 0.038794 0
   vertex -0.027055 0.039858 0
   vertex 0 0.161895 0
  endloop
 endfacet
 facet normal 0 0 -1
  outer loop
   vertex -0.027055 0.039858 0
   vertex -0.0323524 0.0411543 0
   vertex 0 0.161895 0
  endloop
 endfacet
 facet normal 0 0 -1
  outer loop
   vertex 0 0.161895 0
   vertex -0.0323524 0.0411543 0
   vertex -0.0375882 0.0426804 0
  endloop
 endfacet
 facet normal 0 0 -1
  outer loop
   vertex -0.00545242 0.037014 0
   vertex -0.0108945 0.0373706 0
   vertex 0 0.161895 0
  endloop
 endfacet
 facet normal 0 0 -1
  outer loop
   vertex -0.0108945 0.0373706 0
   vertex -0.0163158 0.0379644 0
   vertex 0 0.161895 0
  endloop
 endfacet
 facet normal 0 0 -1
  outer loop
   vertex 0 0.161895 0
   vertex -0.0163158 0.0379644 0
   vertex -0.021706 0.038794 0
  endloop
 endfacet
 facet normal -0 0 -1
  outer loop
   vertex 0.0108945 0.0373706 0
   vertex 0.00545242 0.037014 0
   vertex 0 0.161895 0
  endloop
 endfacet
 facet normal -0 0 -1
  outer loop
   vertex 0.00545242 0.037014 0
   vertex 2.29621e-17 0.036895 0
   vertex 0 0.161895 0
  endloop
 endfacet
 facet normal 0 -0 -1
  outer loop
   vertex 0 0.161895 0
   vertex 2.29621e-17 0.036895 0
   vertex -0.00545242 0.037014 0
  endloop
 endfacet
 facet normal -0 0 -1
  outer loop
   vertex 0.027055 0.039858 0
   vertex 0.021706 0.038794 0
   vertex 0 0.161895 0
  endloop
 endfacet
 facet normal -0 0 -1
  outer loop
   vertex 0.021706 0.038794 0
   vertex 0.0163158 0.0379644 0
   vertex 0 0.161895 0
  endloop
 endfacet
 facet normal 0 0 -1
  outer loop
   vertex 0 0.161895 0
   vertex 0.0163158 0.0379644 0
   vertex 0.0108945 0.0373706 0
  endloop
 endfacet
 facet normal -0 0 -1
  outer loop
   vertex 0.0427525 0.0444334 0
   vertex 0.0375882 0.0426804 0
   vertex 0 0.161895 0
  endloop
 endfacet
 facet normal -0 0 -1
  outer loop
   vertex 0.0375882 0.0426804 0
   vertex 0.0323524 0.0411543 0
   vertex 0 0.161895 0
  endloop
 endfacet
 facet normal 0 0 -1
  outer loop
   vertex 0 0.161895 0
   vertex 0.0323524 0.0411543 0
   vertex 0.027055 0.039858 0
  endloop
 endfacet
 facet normal -0 0 -1
  outer loop
   vertex 0.0577186 0.0510186 0
   vertex 0.0528273 0.0486065 0
   vertex 0 0.161895 0
  endloop
 endfacet
 facet normal -0 0 -1
  outer loop
   vertex 0.0528273 0.0486065 0
   vertex 0.0478354 0.04641 0
   vertex 0 0.161895 0
  endloop
 endfacet
 facet normal 0 0 -1
  outer loop
   vertex 0 0.161895 0
   vertex 0.0478354 0.04641 0
   vertex 0.0427525 0.0444334 0
  endloop
 endfacet
 facet normal -0 0 -1
  outer loop
   vertex 0.0716971 0.059501 0
   vertex 0.0671625 0.0564711 0
   vertex 0 0.161895 0
  endloop
 endfacet
 facet normal -0 0 -1
  outer loop
   vertex 0.0671625 0.0564711 0
   vertex 0.0625 0.0536418 0
   vertex 0 0.161895 0
  endloop
 endfacet
 facet normal 0 0 -1
  outer loop
   vertex 0 0.161895 0
   vertex 0.0625 0.0536418 0
   vertex 0.0577186 0.0510186 0
  endloop
 endfacet
 facet normal -0 0 -1
  outer loop
   vertex 0.0844488 0.0697353 0
   vertex 0.0803485 0.0661394 0
   vertex 0 0.161895 0
  endloop
 endfacet
 facet normal -0 0 -1
  outer loop
   vertex 0.0803485 0.0661394 0
   vertex 0.0760952 0.0627258 0
   vertex 0 0.161895 0
  endloop
 endfacet
 facet normal 0 0 -1
  outer loop
   vertex 0 0.161895 0
   vertex 0.0760952 0.0627258 0
   vertex 0.0716971 0.059501 0
  endloop
 endfacet
 facet normal -0 0 -1
  outer loop
   vertex 0.0957556 0.0815465 0
   vertex 0.0921597 0.0774462 0
   vertex 0 0.161895 0
  endloop
 endfacet
 facet normal -0 0 -1
  outer loop
   vertex 0.0921597 0.0774462 0
   vertex 0.0883883 0.0735066 0
   vertex 0 0.161895 0
  endloop
 endfacet
 facet normal 0 0 -1
  outer loop
   vertex 0 0.161895 0
   vertex 0.0883883 0.0735066 0
   vertex 0.0844488 0.0697353 0
  endloop
 endfacet
 facet normal -0 0 -1
  outer loop
   vertex 0.105424 0.0947325 0
   vertex 0.102394 0.0901979 0
   vertex 0 0.161895 0
  endloop
 endfacet
 facet normal -0 0 -1
  outer loop
   vertex 0.102394 0.0901979 0
   vertex 0.0991692 0.0857998 0
   vertex 0 0.161895 0
  endloop
 endfacet
 facet normal 0 0 -1
  outer loop
   vertex 0 0.161895 0
   vertex 0.0991692 0.0857998 0
   vertex 0.0957556 0.0815465 0
  endloop
 endfacet
 facet normal -0 0 -1
  outer loop
   vertex 0.113288 0.109068 0
   vertex 0.110876 0.104176 0
   vertex 0 0.161895 0
  endloop
 endfacet
 facet normal -0 0 -1
  outer loop
   vertex 0.110876 0.104176 0
   vertex 0.108253 0.099395 0
   vertex 0 0.161895 0
  endloop
 endfacet
 facet normal 0 0 -1
  outer loop
   vertex 0 0.161895 0
   vertex 0.108253 0.099395 0
   vertex 0.105424 0.0947325 0
  endloop
 endfacet
 facet normal -0 0 -1
  outer loop
   vertex 0.119215 0.124307 0
   vertex 0.117462 0.119142 0
   vertex 0 0.161895 0
  endloop
 endfacet
 facet normal -0 0 -1
  outer loop
   vertex 0.117462 0.119142 0
   vertex 0.115485 0.11406 0
   vertex 0 0.161895 0
  endloop
 endfacet
 facet normal 0 0 -1
  outer loop
   vertex 0 0.161895 0
   vertex 0.115485 0.11406 0
   vertex 0.113288 0.109068 0
  endloop
 endfacet
 facet normal -0 0 -1
  outer loop
   vertex 0.123101 0.140189 0
   vertex 0.122037 0.13484 0
   vertex 0 0.161895 0
  endloop
 endfacet
 facet normal -0 0 -1
  outer loop
   vertex 0.122037 0.13484 0
   vertex 0.120741 0.129543 0
   vertex 0 0.161895 0
  endloop
 endfacet
 facet normal 0 0 -1
  outer loop
   vertex 0 0.161895 0
   vertex 0.120741 0.129543 0
   vertex 0.119215 0.124307 0
  endloop
 endfacet
 facet normal -0 0 -1
  outer loop
   vertex 0.124881 0.156443 0
   vertex 0.124524 0.151001 0
   vertex 0 0.161895 0
  endloop
 endfacet
 facet normal -0 0 -1
  outer loop
   vertex 0.124524 0.151001 0
   vertex 0.123931 0.145579 0
   vertex 0 0.161895 0
  endloop
 endfacet
 facet normal 0 0 -1
  outer loop
   vertex 0 0.161895 0
   vertex 0.123931 0.145579 0
   vertex 0.123101 0.140189 0
  endloop
 endfacet
 facet normal -0.999762 0.0218146 0
  outer loop
   vertex -0.125 0.161895 0
   vertex -0.124881 0.167347 0.5
   vertex -0.124881 0.167347 0
  endloop
 endfacet
 facet normal -0.997859 0.0654029 0
  outer loop
   vertex -0.124881 0.167347 0.5
   vertex -0.124524 0.172789 0.5
   vertex -0.124881 0.167347 0
  endloop
 endfacet
 facet normal -0.997859 0.0654029 0
  outer loop
   vertex -0.124881 0.167347 0
   vertex -0.124524 0.172789 0.5
   vertex -0.124524 0.172789 0
  endloop
 endfacet
 facet normal -0.994056 0.108867 0
  outer loop
   vertex -0.124524 0.172789 0.5
   vertex -0.123931 0.178211 0.5
   vertex -0.124524 0.172789 0
  endloop
 endfacet
 facet normal -0.994056 0.108867 0
  outer loop
   vertex -0.124524 0.172789 0
   vertex -0.123931 0.178211 0.5
   vertex -0.123931 0.178211 0
  endloop
 endfacet
 facet normal -0.988361 0.152124 0
  outer loop
   vertex -0.123931 0.178211 0.5
   vertex -0.123101 0.183601 0.5
   vertex -0.123931 0.178211 0
  endloop
 endfacet
 facet normal -0.988361 0.152124 0
  outer loop
   vertex -0.123931 0.178211 0
   vertex -0.123101 0.183601 0.5
   vertex -0.123101 0.183601 0
  endloop
 endfacet
 facet normal -0.980785 0.19509 0
  outer loop
   vertex -0.123101 0.183601 0.5
   vertex -0.122037 0.18895 0.5
   vertex -0.123101 0.183601 0
  endloop
 endfacet
 facet normal -0.980785 0.19509 0
  outer loop
   vertex -0.123101 0.183601 0
   vertex -0.122037 0.18895 0.5
   vertex -0.122037 0.18895 0
  endloop
 endfacet
 facet normal -0.971342 0.237686 0
  outer loop
   vertex -0.122037 0.18895 0.5
   vertex -0.120741 0.194247 0.5
   vertex -0.122037 0.18895 0
  endloop
 endfacet
 facet normal -0.971342 0.237686 0
  outer loop
   vertex -0.122037 0.18895 0
   vertex -0.120741 0.194247 0.5
   vertex -0.120741 0.194247 0
  endloop
 endfacet
 facet normal -0.96005 0.279829 0
  outer loop
   vertex -0.120741 0.194247 0.5
   vertex -0.119215 0.199483 0.5
   vertex -0.120741 0.194247 0
  endloop
 endfacet
 facet normal -0.96005 0.279829 0
  outer loop
   vertex -0.120741 0.194247 0
   vertex -0.119215 0.199483 0.5
   vertex -0.119215 0.199483 0
  endloop
 endfacet
 facet normal -0.94693 0.321439 0
  outer loop
   vertex -0.119215 0.199483 0.5
   vertex -0.117462 0.204647 0.5
   vertex -0.119215 0.199483 0
  endloop
 endfacet
 facet normal -0.94693 0.321439 0
  outer loop
   vertex -0.119215 0.199483 0
   vertex -0.117462 0.204647 0.5
   vertex -0.117462 0.204647 0
  endloop
 endfacet
 facet normal -0.932008 0.362439 0
  outer loop
   vertex -0.117462 0.204647 0.5
   vertex -0.115485 0.20973 0.5
   vertex -0.117462 0.204647 0
  endloop
 endfacet
 facet normal -0.932008 0.362439 0
  outer loop
   vertex -0.117462 0.204647 0
   vertex -0.115485 0.20973 0.5
   vertex -0.115485 0.20973 0
  endloop
 endfacet
 facet normal -0.915312 0.402745 0
  outer loop
   vertex -0.115485 0.20973 0.5
   vertex -0.113288 0.214722 0.5
   vertex -0.115485 0.20973 0
  endloop
 endfacet
 facet normal -0.915312 0.402745 0
  outer loop
   vertex -0.115485 0.20973 0
   vertex -0.113288 0.214722 0.5
   vertex -0.113288 0.214722 0
  endloop
 endfacet
 facet normal -0.896872 0.44229 0
  outer loop
   vertex -0.113288 0.214722 0.5
   vertex -0.110876 0.219614 0.5
   vertex -0.113288 0.214722 0
  endloop
 endfacet
 facet normal -0.896872 0.44229 0
  outer loop
   vertex -0.113288 0.214722 0
   vertex -0.110876 0.219614 0.5
   vertex -0.110876 0.219614 0
  endloop
 endfacet
 facet normal -0.876727 0.480989 0
  outer loop
   vertex -0.110876 0.219614 0.5
   vertex -0.108253 0.224395 0.5
   vertex -0.110876 0.219614 0
  endloop
 endfacet
 facet normal -0.876727 0.480989 0
  outer loop
   vertex -0.110876 0.219614 0
   vertex -0.108253 0.224395 0.5
   vertex -0.108253 0.224395 0
  endloop
 endfacet
 facet normal -0.854912 0.518773 0
  outer loop
   vertex -0.108253 0.224395 0.5
   vertex -0.105424 0.229057 0.5
   vertex -0.108253 0.224395 0
  endloop
 endfacet
 facet normal -0.854912 0.518773 0
  outer loop
   vertex -0.108253 0.224395 0
   vertex -0.105424 0.229057 0.5
   vertex -0.105424 0.229057 0
  endloop
 endfacet
 facet normal -0.83147 0.55557 0
  outer loop
   vertex -0.105424 0.229057 0.5
   vertex -0.102394 0.233592 0.5
   vertex -0.105424 0.229057 0
  endloop
 endfacet
 facet normal -0.83147 0.55557 0
  outer loop
   vertex -0.105424 0.229057 0
   vertex -0.102394 0.233592 0.5
   vertex -0.102394 0.233592 0
  endloop
 endfacet
 facet normal -0.806444 0.59131 0
  outer loop
   vertex -0.102394 0.233592 0.5
   vertex -0.0991692 0.23799 0.5
   vertex -0.102394 0.233592 0
  endloop
 endfacet
 facet normal -0.806444 0.59131 0
  outer loop
   vertex -0.102394 0.233592 0
   vertex -0.0991692 0.23799 0.5
   vertex -0.0991692 0.23799 0
  endloop
 endfacet
 facet normal -0.779885 0.625923 0
  outer loop
   vertex -0.0991692 0.23799 0.5
   vertex -0.0957556 0.242243 0.5
   vertex -0.0991692 0.23799 0
  endloop
 endfacet
 facet normal -0.779885 0.625923 0
  outer loop
   vertex -0.0991692 0.23799 0
   vertex -0.0957556 0.242243 0.5
   vertex -0.0957556 0.242243 0
  endloop
 endfacet
 facet normal -0.75184 0.659346 0
  outer loop
   vertex -0.0957556 0.242243 0.5
   vertex -0.0921597 0.246344 0.5
   vertex -0.0957556 0.242243 0
  endloop
 endfacet
 facet normal -0.75184 0.659346 0
  outer loop
   vertex -0.0957556 0.242243 0
   vertex -0.0921597 0.246344 0.5
   vertex -0.0921597 0.246344 0
  endloop
 endfacet
 facet normal -0.722364 0.691513 0
  outer loop
   vertex -0.0921597 0.246344 0.5
   vertex -0.0883883 0.250283 0.5
   vertex -0.0921597 0.246344 0
  endloop
 endfacet
 facet normal -0.722364 0.691513 0
  outer loop
   vertex -0.0921597 0.246344 0
   vertex -0.0883883 0.250283 0.5
   vertex -0.0883883 0.250283 0
  endloop
 endfacet
 facet normal -0.691513 0.722364 0
  outer loop
   vertex -0.0883883 0.250283 0.5
   vertex -0.0844488 0.254055 0.5
   vertex -0.0883883 0.250283 0
  endloop
 endfacet
 facet normal -0.691513 0.722364 0
  outer loop
   vertex -0.0883883 0.250283 0
   vertex -0.0844488 0.254055 0.5
   vertex -0.0844488 0.254055 0
  endloop
 endfacet
 facet normal -0.659346 0.75184 0
  outer loop
   vertex -0.0844488 0.254055 0.5
   vertex -0.0803485 0.257651 0.5
   vertex -0.0844488 0.254055 0
  endloop
 endfacet
 facet normal -0.659346 0.75184 0
  outer loop
   vertex -0.0844488 0.254055 0
   vertex -0.0803485 0.257651 0.5
   vertex -0.0803485 0.257651 0
  endloop
 endfacet
 facet normal -0.625923 0.779885 0
  outer loop
   vertex -0.0803485 0.257651 0.5
   vertex -0.0760952 0.261064 0.5
   vertex -0.0803485 0.257651 0
  endloop
 endfacet
 facet normal -0.625923 0.779885 0
  outer loop
   vertex -0.0803485 0.257651 0
   vertex -0.0760952 0.261064 0.5
   vertex -0.0760952 0.261064 0
  endloop
 endfacet
 facet normal -0.59131 0.806444 0
  outer loop
   vertex -0.0760952 0.261064 0.5
   vertex -0.0716971 0.264289 0.5
   vertex -0.0760952 0.261064 0
  endloop
 endfacet
 facet normal -0.59131 0.806444 0
  outer loop
   vertex -0.0760952 0.261064 0
   vertex -0.0716971 0.264289 0.5
   vertex -0.0716971 0.264289 0
  endloop
 endfacet
 facet normal -0.55557 0.83147 0
  outer loop
   vertex -0.0716971 0.264289 0.5
   vertex -0.0671625 0.267319 0.5
   vertex -0.0716971 0.264289 0
  endloop
 endfacet
 facet normal -0.55557 0.83147 0
  outer loop
   vertex -0.0716971 0.264289 0
   vertex -0.0671625 0.267319 0.5
   vertex -0.0671625 0.267319 0
  endloop
 endfacet
 facet normal -0.518773 0.854912 0
  outer loop
   vertex -0.0671625 0.267319 0.5
   vertex -0.0625 0.270148 0.5
   vertex -0.0671625 0.267319 0
  endloop
 endfacet
 facet normal -0.518773 0.854912 0
  outer loop
   vertex -0.0671625 0.267319 0
   vertex -0.0625 0.270148 0.5
   vertex -0.0625 0.270148 0
  endloop
 endfacet
 facet normal -0.480989 0.876727 0
  outer loop
   vertex -0.0625 0.270148 0.5
   vertex -0.0577186 0.272771 0.5
   vertex -0.0625 0.270148 0
  endloop
 endfacet
 facet normal -0.480989 0.876727 0
  outer loop
   vertex -0.0625 0.270148 0
   vertex -0.0577186 0.272771 0.5
   vertex -0.0577186 0.272771 0
  endloop
 endfacet
 facet normal -0.44229 0.896872 0
  outer loop
   vertex -0.0577186 0.272771 0.5
   vertex -0.0528273 0.275183 0.5
   vertex -0.0577186 0.272771 0
  endloop
 endfacet
 facet normal -0.44229 0.896872 0
  outer loop
   vertex -0.0577186 0.272771 0
   vertex -0.0528273 0.275183 0.5
   vertex -0.0528273 0.275183 0
  endloop
 endfacet
 facet normal -0.402745 0.915312 0
  outer loop
   vertex -0.0528273 0.275183 0.5
   vertex -0.0478354 0.27738 0.5
   vertex -0.0528273 0.275183 0
  endloop
 endfacet
 facet normal -0.402745 0.915312 0
  outer loop
   vertex -0.0528273 0.275183 0
   vertex -0.0478354 0.27738 0.5
   vertex -0.0478354 0.27738 0
  endloop
 endfacet
 facet normal -0.362439 0.932008 0
  outer loop
   vertex -0.0478354 0.27738 0.5
   vertex -0.0427525 0.279357 0.5
   vertex -0.0478354 0.27738 0
  endloop
 endfacet
 facet normal -0.362439 0.932008 0
  outer loop
   vertex -0.0478354 0.27738 0
   vertex -0.0427525 0.279357 0.5
   vertex -0.0427525 0.279357 0
  endloop
 endfacet
 facet normal -0.321439 0.94693 0
  outer loop
   vertex -0.0427525 0.279357 0.5
   vertex -0.0375882 0.28111 0.5
   vertex -0.0427525 0.279357 0
  endloop
 endfacet
 facet normal -0.321439 0.94693 0
  outer loop
   vertex -0.0427525 0.279357 0
   vertex -0.0375882 0.28111 0.5
   vertex -0.0375882 0.28111 0
  endloop
 endfacet
 facet normal -0.279829 0.96005 0
  outer loop
   vertex -0.0375882 0.28111 0.5
   vertex -0.0323524 0.282636 0.5
   vertex -0.0375882 0.28111 0
  endloop
 endfacet
 facet normal -0.279829 0.96005 0
  outer loop
   vertex -0.0375882 0.28111 0
   vertex -0.0323524 0.282636 0.5
   vertex -0.0323524 0.282636 0
  endloop
 endfacet
 facet normal -0.237686 0.971342 0
  outer loop
   vertex -0.0323524 0.282636 0.5
   vertex -0.027055 0.283932 0.5
   vertex -0.0323524 0.282636 0
  endloop
 endfacet
 facet normal -0.237686 0.971342 0
  outer loop
   vertex -0.0323524 0.282636 0
   vertex -0.027055 0.283932 0.5
   vertex -0.027055 0.283932 0
  endloop
 endfacet
 facet normal -0.19509 0.980785 0
  outer loop
   vertex -0.027055 0.283932 0.5
   vertex -0.021706 0.284996 0.5
   vertex -0.027055 0.283932 0
  endloop
 endfacet
 facet normal -0.19509 0.980785 0
  outer loop
   vertex -0.027055 0.283932 0
   vertex -0.021706 0.284996 0.5
   vertex -0.021706 0.284996 0
  endloop
 endfacet
 facet normal -0.152124 0.988361 0
  outer loop
   vertex -0.021706 0.284996 0.5
   vertex -0.0163158 0.285826 0.5
   vertex -0.021706 0.284996 0
  endloop
 endfacet
 facet normal -0.152124 0.988361 0
  outer loop
   vertex -0.021706 0.284996 0
   vertex -0.0163158 0.285826 0.5
   vertex -0.0163158 0.285826 0
  endloop
 endfacet
 facet normal -0.108867 0.994056 0
  outer loop
   vertex -0.0163158 0.285826 0.5
   vertex -0.0108945 0.286419 0.5
   vertex -0.0163158 0.285826 0
  endloop
 endfacet
 facet normal -0.108867 0.994056 0
  outer loop
   vertex -0.0163158 0.285826 0
   vertex -0.0108945 0.286419 0.5
   vertex -0.0108945 0.286419 0
  endloop
 endfacet
 facet normal -0.0654029 0.997859 0
  outer loop
   vertex -0.0108945 0.286419 0.5
   vertex -0.00545242 0.286776 0.5
   vertex -0.0108945 0.286419 0
  endloop
 endfacet
 facet normal -0.0654029 0.997859 0
  outer loop
   vertex -0.0108945 0.286419 0
   vertex -0.00545242 0.286776 0.5
   vertex -0.00545242 0.286776 0
  endloop
 endfacet
 facet normal -0.0218146 0.999762 0
  outer loop
   vertex -0.00545242 0.286776 0.5
   vertex -7.65404e-18 0.286895 0.5
   vertex -0.00545242 0.286776 0
  endloop
 endfacet
 facet normal -0.0218146 0.999762 0
  outer loop
   vertex -0.00545242 0.286776 0
   vertex -7.65404e-18 0.286895 0.5
   vertex -7.65404e-18 0.286895 0
  endloop
 endfacet
 facet normal 0.0218146 0.999762 0
  outer loop
   vertex -7.65404e-18 0.286895 0.5
   vertex 0.00545242 0.286776 0.5
   vertex -7.65404e-18 0.286895 0
  endloop
 endfacet
 facet normal 0.0218146 0.999762 0
  outer loop
   vertex -7.65404e-18 0.286895 0
   vertex 0.00545242 0.286776 0.5
   vertex 0.00545242 0.286776 0
  endloop
 endfacet
 facet normal 0.0654029 0.997859 0
  outer loop
   vertex 0.00545242 0.286776 0.5
   vertex 0.0108945 0.286419 0.5
   vertex 0.00545242 0.286776 0
  endloop
 endfacet
 facet normal 0.0654029 0.997859 0
  outer loop
   vertex 0.00545242 0.286776 0
   vertex 0.0108945 0.286419 0.5
   vertex 0.0108945 0.286419 0
  endloop
 endfacet
 facet normal 0.108867 0.994056 0
  outer loop
   vertex 0.0108945 0.286419 0.5
   vertex 0.0163158 0.285826 0.5
   vertex 0.0108945 0.286419 0
  endloop
 endfacet
 facet normal 0.108867 0.994056 0
  outer loop
   vertex 0.0108945 0.286419 0
   vertex 0.0163158 0.285826 0.5
   vertex 0.0163158 0.285826 0
  endloop
 endfacet
 facet normal 0.152124 0.988361 0
  outer loop
   vertex 0.0163158 0.285826 0.5
   vertex 0.021706 0.284996 0.5
   vertex 0.0163158 0.285826 0
  endloop
 endfacet
 facet normal 0.152124 0.988361 0
  outer loop
   vertex 0.0163158 0.285826 0
   vertex 0.021706 0.284996 0.5
   vertex 0.021706 0.284996 0
  endloop
 endfacet
 facet normal 0.19509 0.980785 0
  outer loop
   vertex 0.021706 0.284996 0.5
   vertex 0.027055 0.283932 0.5
   vertex 0.021706 0.284996 0
  endloop
 endfacet
 facet normal 0.19509 0.980785 0
  outer loop
   vertex 0.021706 0.284996 0
   vertex 0.027055 0.283932 0.5
   vertex 0.027055 0.283932 0
  endloop
 endfacet
 facet normal 0.237686 0.971342 0
  outer loop
   vertex 0.027055 0.283932 0.5
   vertex 0.0323524 0.282636 0.5
   vertex 0.027055 0.283932 0
  endloop
 endfacet
 facet normal 0.237686 0.971342 0
  outer loop
   vertex 0.027055 0.283932 0
   vertex 0.0323524 0.282636 0.5
   vertex 0.0323524 0.282636 0
  endloop
 endfacet
 facet normal 0.279829 0.96005 0
  outer loop
   vertex 0.0323524 0.282636 0.5
   vertex 0.0375882 0.28111 0.5
   vertex 0.0323524 0.282636 0
  endloop
 endfacet
 facet normal 0.279829 0.96005 0
  outer loop
   vertex 0.0323524 0.282636 0
   vertex 0.0375882 0.28111 0.5
   vertex 0.0375882 0.28111 0
  endloop
 endfacet
 facet normal 0.321439 0.94693 0
  outer loop
   vertex 0.0375882 0.28111 0.5
   vertex 0.0427525 0.279357 0.5
   vertex 0.0375882 0.28111 0
  endloop
 endfacet
 facet normal 0.321439 0.94693 0
  outer loop
   vertex 0.0375882 0.28111 0
   vertex 0.0427525 0.279357 0.5
   vertex 0.0427525 0.279357 0
  endloop
 endfacet
 facet normal 0.362439 0.932008 0
  outer loop
   vertex 0.0427525 0.279357 0.5
   vertex 0.0478354 0.27738 0.5
   vertex 0.0427525 0.279357 0
  endloop
 endfacet
 facet normal 0.362439 0.932008 0
  outer loop
   vertex 0.0427525 0.279357 0
   vertex 0.0478354 0.27738 0.5
   vertex 0.0478354 0.27738 0
  endloop
 endfacet
 facet normal 0.402745 0.915312 0
  outer loop
   vertex 0.0478354 0.27738 0.5
   vertex 0.0528273 0.275183 0.5
   vertex 0.0478354 0.27738 0
  endloop
 endfacet
 facet normal 0.402745 0.915312 0
  outer loop
   vertex 0.0478354 0.27738 0
   vertex 0.0528273 0.275183 0.5
   vertex 0.0528273 0.275183 0
  endloop
 endfacet
 facet normal 0.44229 0.896872 0
  outer loop
   vertex 0.0528273 0.275183 0.5
   vertex 0.0577186 0.272771 0.5
   vertex 0.0528273 0.275183 0
  endloop
 endfacet
 facet normal 0.44229 0.896872 0
  outer loop
   vertex 0.0528273 0.275183 0
   vertex 0.0577186 0.272771 0.5
   vertex 0.0577186 0.272771 0
  endloop
 endfacet
 facet normal 0.480989 0.876727 0
  outer loop
   vertex 0.0577186 0.272771 0.5
   vertex 0.0625 0.270148 0.5
   vertex 0.0577186 0.272771 0
  endloop
 endfacet
 facet normal 0.480989 0.876727 0
  outer loop
   vertex 0.0577186 0.272771 0
   vertex 0.0625 0.270148 0.5
   vertex 0.0625 0.270148 0
  endloop
 endfacet
 facet normal 0.518773 0.854912 0
  outer loop
   vertex 0.0625 0.270148 0.5
   vertex 0.0671625 0.267319 0.5
   vertex 0.0625 0.270148 0
  endloop
 endfacet
 facet normal 0.518773 0.854912 0
  outer loop
   vertex 0.0625 0.270148 0
   vertex 0.0671625 0.267319 0.5
   vertex 0.0671625 0.267319 0
  endloop
 endfacet
 facet normal 0.55557 0.83147 0
  outer loop
   vertex 0.0671625 0.267319 0.5
   vertex 0.0716971 0.264289 0.5
   vertex 0.0671625 0.267319 0
  endloop
 endfacet
 facet normal 0.55557 0.83147 0
  outer loop
   vertex 0.0671625 0.267319 0
   vertex 0.0716971 0.264289 0.5
   vertex 0.0716971 0.264289 0
  endloop
 endfacet
 facet normal 0.59131 0.806444 0
  outer loop
   vertex 0.0716971 0.264289 0.5
   vertex 0.0760952 0.261064 0.5
   vertex 0.0716971 0.264289 0
  endloop
 endfacet
 facet normal 0.59131 0.806444 0
  outer loop
   vertex 0.0716971 0.264289 0
   vertex 0.0760952 0.261064 0.5
   vertex 0.0760952 0.261064 0
  endloop
 endfacet
 facet normal 0.625923 0.779885 0
  outer loop
   vertex 0.0760952 0.261064 0.5
   vertex 0.0803485 0.257651 0.5
   vertex 0.0760952 0.261064 0
  endloop
 endfacet
 facet normal 0.625923 0.779885 0
  outer loop
   vertex 0.0760952 0.261064 0
   vertex 0.0803485 0.257651 0.5
   vertex 0.0803485 0.257651 0
  endloop
 endfacet
 facet normal 0.659346 0.75184 0
  outer loop
   vertex 0.0803485 0.257651 0.5
   vertex 0.0844488 0.254055 0.5
   vertex 0.0803485 0.257651 0
  endloop
 endfacet
 facet normal 0.659346 0.75184 0
  outer loop
   vertex 0.0803485 0.257651 0
   vertex 0.0844488 0.254055 0.5
   vertex 0.0844488 0.254055 0
  endloop
 endfacet
 facet normal 0.691513 0.722364 0
  outer loop
   vertex 0.0844488 0.254055 0.5
   vertex 0.0883883 0.250283 0.5
   vertex 0.0844488 0.254055 0
  endloop
 endfacet
 facet normal 0.691513 0.722364 0
  outer loop
   vertex 0.0844488 0.254055 0
   vertex 0.0883883 0.250283 0.5
   vertex 0.0883883 0.250283 0
  endloop
 endfacet
 facet normal 0.722364 0.691513 0
  outer loop
   vertex 0.0883883 0.250283 0.5
   vertex 0.0921597 0.246344 0.5
   vertex 0.0883883 0.250283 0
  endloop
 endfacet
 facet normal 0.722364 0.691513 0
  outer loop
   vertex 0.0883883 0.250283 0
   vertex 0.0921597 0.246344 0.5
   vertex 0.0921597 0.246344 0
  endloop
 endfacet
 facet normal 0.75184 0.659346 0
  outer loop
   vertex 0.0921597 0.246344 0.5
   vertex 0.0957556 0.242243 0.5
   vertex 0.0921597 0.246344 0
  endloop
 endfacet
 facet normal 0.75184 0.659346 0
  outer loop
   vertex 0.0921597 0.246344 0
   vertex 0.0957556 0.242243 0.5
   vertex 0.0957556 0.242243 0
  endloop
 endfacet
 facet normal 0.779885 0.625923 0
  outer loop
   vertex 0.0957556 0.242243 0.5
   vertex 0.0991692 0.23799 0.5
   vertex 0.0957556 0.242243 0
  endloop
 endfacet
 facet normal 0.779885 0.625923 0
  outer loop
   vertex 0.0957556 0.242243 0
   vertex 0.0991692 0.23799 0.5
   vertex 0.0991692 0.23799 0
  endloop
 endfacet
 facet normal 0.806444 0.59131 0
  outer loop
   vertex 0.0991692 0.23799 0.5
   vertex 0.102394 0.233592 0.5
   vertex 0.0991692 0.23799 0
  endloop
 endfacet
 facet normal 0.806444 0.59131 0
  outer loop
   vertex 0.0991692 0.23799 0
   vertex 0.102394 0.233592 0.5
   vertex 0.102394 0.233592 0
  endloop
 endfacet
 facet normal 0.83147 0.55557 0
  outer loop
   vertex 0.102394 0.233592 0.5
   vertex 0.105424 0.229057 0.5
   vertex 0.102394 0.233592 0
  endloop
 endfacet
 facet normal 0.83147 0.55557 0
  outer loop
   vertex 0.102394 0.233592 0
   vertex 0.105424 0.229057 0.5
   vertex 0.105424 0.229057 0
  endloop
 endfacet
 facet normal 0.854912 0.518773 0
  outer loop
   vertex 0.105424 0.229057 0.5
   vertex 0.108253 0.224395 0.5
   vertex 0.105424 0.229057 0
  endloop
 endfacet
 facet normal 0.854912 0.518773 0
  outer loop
   vertex 0.105424 0.229057 0
   vertex 0.108253 0.224395 0.5
   vertex 0.108253 0.224395 0
  endloop
 endfacet
 facet normal 0.876727 0.480989 0
  outer loop
   vertex 0.108253 0.224395 0.5
   vertex 0.110876 0.219614 0.5
   vertex 0.108253 0.224395 0
  endloop
 endfacet
 facet normal 0.876727 0.480989 0
  outer loop
   vertex 0.108253 0.224395 0
   vertex 0.110876 0.219614 0.5
   vertex 0.110876 0.219614 0
  endloop
 endfacet
 facet normal 0.896872 0.44229 0
  outer loop
   vertex 0.110876 0.219614 0.5
   vertex 0.113288 0.214722 0.5
   vertex 0.110876 0.219614 0
  endloop
 endfacet
 facet normal 0.896872 0.44229 0
  outer loop
   vertex 0.110876 0.219614 0
   vertex 0.113288 0.214722 0.5
   vertex 0.113288 0.214722 0
  endloop
 endfacet
 facet normal 0.915312 0.402745 0
  outer loop
   vertex 0.113288 0.214722 0.5
   vertex 0.115485 0.20973 0.5
   vertex 0.113288 0.214722 0
  endloop
 endfacet
 facet normal 0.915312 0.402745 0
  outer loop
   vertex 0.113288 0.214722 0
   vertex 0.115485 0.20973 0.5
   vertex 0.115485 0.20973 0
  endloop
 endfacet
 facet normal 0.932008 0.362439 0
  outer loop
   vertex 0.115485 0.20973 0.5
   vertex 0.117462 0.204647 0.5
   vertex 0.115485 0.20973 0
  endloop
 endfacet
 facet normal 0.932008 0.362439 0
  outer loop
   vertex 0.115485 0.20973 0
   vertex 0.117462 0.204647 0.5
   vertex 0.117462 0.204647 0
  endloop
 endfacet
 facet normal 0.94693 0.321439 0
  outer loop
   vertex 0.117462 0.204647 0.5
   vertex 0.119215 0.199483 0.5
   vertex 0.117462 0.204647 0
  endloop
 endfacet
 facet normal 0.94693 0.321439 0
  outer loop
   vertex 0.117462 0.204647 0
   vertex 0.119215 0.199483 0.5
   vertex 0.119215 0.199483 0
  endloop
 endfacet
 facet normal 0.96005 0.279829 0
  outer loop
   vertex 0.119215 0.199483 0.5
   vertex 0.120741 0.194247 0.5
   vertex 0.119215 0.199483 0
  endloop
 endfacet
 facet normal 0.96005 0.279829 0
  outer loop
   vertex 0.119215 0.199483 0
   vertex 0.120741 0.194247 0.5
   vertex 0.120741 0.194247 0
  endloop
 endfacet
 facet normal 0.971342 0.237686 0
  outer loop
   vertex 0.120741 0.194247 0.5
   vertex 0.122037 0.18895 0.5
   vertex 0.120741 0.194247 0
  endloop
 endfacet
 facet normal 0.971342 0.237686 0
  outer loop
   vertex 0.120741 0.194247 0
   vertex 0.122037 0.18895 0.5
   vertex 0.122037 0.18895 0
  endloop
 endfacet
 facet normal 0.980785 0.19509 0
  outer loop
   vertex 0.122037 0.18895 0.5
   vertex 0.123101 0.183601 0.5
   vertex 0.122037 0.18895 0
  endloop
 endfacet
 facet normal 0.980785 0.19509 0
  outer loop
   vertex 0.122037 0.18895 0
   vertex 0.123101 0.183601 0.5
   vertex 0.123101 0.183601 0
  endloop
 endfacet
 facet normal 0.988361 0.152124 0
  outer loop
   vertex 0.123101 0.183601 0.5
   vertex 0.123931 0.178211 0.5
   vertex 0.123101 0.183601 0
  endloop
 endfacet
 facet normal 0.988361 0.152124 0
  outer loop
   vertex 0.123101 0.183601 0
   vertex 0.123931 0.178211 0.5
   vertex 0.123931 0.178211 0
  endloop
 endfacet
 facet normal 0.994056 0.108867 0
  outer loop
   vertex 0.123931 0.178211 0.5
   vertex 0.124524 0.172789 0.5
   vertex 0.123931 0.178211 0
  endloop
 endfacet
 facet normal 0.994056 0.108867 0
  outer loop
   vertex 0.123931 0.178211 0
   vertex 0.124524 0.172789 0.5
   vertex 0.124524 0.172789 0
  endloop
 endfacet
 facet normal 0.997859 0.0654029 0
  outer loop
   vertex 0.124524 0.172789 0.5
   vertex 0.124881 0.167347 0.5
   vertex 0.124524 0.172789 0
  endloop
 endfacet
 facet normal 0.997859 0.0654029 0
  outer loop
   vertex 0.124524 0.172789 0
   vertex 0.124881 0.167347 0.5
   vertex 0.124881 0.167347 0
  endloop
 endfacet
 facet normal 0.999762 0.0218146 0
  outer loop
   vertex 0.124881 0.167347 0.5
   vertex 0.125 0.161895 0.5
   vertex 0.124881 0.167347 0
  endloop
 endfacet
 facet normal 0.999762 0.0218146 -1.20367e-18
  outer loop
   vertex 0.124881 0.167347 0
   vertex 0.125 0.161895 0.5
   vertex 0.125 0.161895 0
  endloop
 endfacet
 facet normal 0.999762 -0.0218146 1.21095e-18
  outer loop
   vertex 0.125 0.161895 0.5
   vertex 0.124881 0.156443 0.5
   vertex 0.125 0.161895 0
  endloop
 endfacet
 facet normal 0.999762 -0.0218146 0
  outer loop
   vertex 0.125 0.161895 0
   vertex 0.124881 0.156443 0.5
   vertex 0.124881 0.156443 0
  endloop
 endfacet
 facet normal 0.997859 -0.0654029 0
  outer loop
   vertex 0.124881 0.156443 0.5
   vertex 0.124524 0.151001 0.5
   vertex 0.124881 0.156443 0
  endloop
 endfacet
 facet normal 0.997859 -0.0654029 0
  outer loop
   vertex 0.124881 0.156443 0
   vertex 0.124524 0.151001 0.5
   vertex 0.124524 0.151001 0
  endloop
 endfacet
 facet normal 0.994056 -0.108867 0
  outer loop
   vertex 0.124524 0.151001 0.5
   vertex 0.123931 0.145579 0.5
   vertex 0.124524 0.151001 0
  endloop
 endfacet
 facet normal 0.994056 -0.108867 0
  outer loop
   vertex 0.124524 0.151001 0
   vertex 0.123931 0.145579 0.5
   vertex 0.123931 0.145579 0
  endloop
 endfacet
 facet normal 0.988361 -0.152124 0
  outer loop
   vertex 0.123931 0.145579 0.5
   vertex 0.123101 0.140189 0.5
   vertex 0.123931 0.145579 0
  endloop
 endfacet
 facet normal 0.988361 -0.152124 0
  outer loop
   vertex 0.123931 0.145579 0
   vertex 0.123101 0.140189 0.5
   vertex 0.123101 0.140189 0
  endloop
 endfacet
 facet normal 0.980785 -0.19509 0
  outer loop
   vertex 0.123101 0.140189 0.5
   vertex 0.122037 0.13484 0.5
   vertex 0.123101 0.140189 0
  endloop
 endfacet
 facet normal 0.980785 -0.19509 0
  outer loop
   vertex 0.123101 0.140189 0
   vertex 0.122037 0.13484 0.5
   vertex 0.122037 0.13484 0
  endloop
 endfacet
 facet normal 0.971342 -0.237686 0
  outer loop
   vertex 0.122037 0.13484 0.5
   vertex 0.120741 0.129543 0.5
   vertex 0.122037 0.13484 0
  endloop
 endfacet
 facet normal 0.971342 -0.237686 0
  outer loop
   vertex 0.122037 0.13484 0
   vertex 0.120741 0.129543 0.5
   vertex 0.120741 0.129543 0
  endloop
 endfacet
 facet normal 0.96005 -0.279829 0
  outer loop
   vertex 0.120741 0.129543 0.5
   vertex 0.119215 0.124307 0.5
   vertex 0.120741 0.129543 0
  endloop
 endfacet
 facet normal 0.96005 -0.279829 0
  outer loop
   vertex 0.120741 0.129543 0
   vertex 0.119215 0.124307 0.5
   vertex 0.119215 0.124307 0
  endloop
 endfacet
 facet normal 0.94693 -0.321439 0
  outer loop
   vertex 0.119215 0.124307 0.5
   vertex 0.117462 0.119142 0.5
   vertex 0.119215 0.124307 0
  endloop
 endfacet
 facet normal 0.94693 -0.321439 0
  outer loop
   vertex 0.119215 0.124307 0
   vertex 0.117462 0.119142 0.5
   vertex 0.117462 0.119142 0
  endloop
 endfacet
 facet normal 0.932008 -0.362439 0
  outer loop
   vertex 0.117462 0.119142 0.5
   vertex 0.115485 0.11406 0.5
   vertex 0.117462 0.119142 0
  endloop
 endfacet
 facet normal 0.932008 -0.362439 0
  outer loop
   vertex 0.117462 0.119142 0
   vertex 0.115485 0.11406 0.5
   vertex 0.115485 0.11406 0
  endloop
 endfacet
 facet normal 0.915312 -0.402745 0
  outer loop
   vertex 0.115485 0.11406 0.5
   vertex 0.113288 0.109068 0.5
   vertex 0.115485 0.11406 0
  endloop
 endfacet
 facet normal 0.915312 -0.402745 0
  outer loop
   vertex 0.115485 0.11406 0
   vertex 0.113288 0.109068 0.5
   vertex 0.113288 0.109068 0
  endloop
 endfacet
 facet normal 0.896872 -0.44229 0
  outer loop
   vertex 0.113288 0.109068 0.5
   vertex 0.110876 0.104176 0.5
   vertex 0.113288 0.109068 0
  endloop
 endfacet
 facet normal 0.896872 -0.44229 0
  outer loop
   vertex 0.113288 0.109068 0
   vertex 0.110876 0.104176 0.5
   vertex 0.110876 0.104176 0
  endloop
 endfacet
 facet normal 0.876727 -0.480989 0
  outer loop
   vertex 0.110876 0.104176 0.5
   vertex 0.108253 0.099395 0.5
   vertex 0.110876 0.104176 0
  endloop
 endfacet
 facet normal 0.876727 -0.480989 0
  outer loop
   vertex 0.110876 0.104176 0
   vertex 0.108253 0.099395 0.5
   vertex 0.108253 0.099395 0
  endloop
 endfacet
 facet normal 0.854912 -0.518773 0
  outer loop
   vertex 0.108253 0.099395 0.5
   vertex 0.105424 0.0947325 0.5
   vertex 0.108253 0.099395 0
  endloop
 endfacet
 facet normal 0.854912 -0.518773 0
  outer loop
   vertex 0.108253 0.099395 0
   vertex 0.105424 0.0947325 0.5
   vertex 0.105424 0.0947325 0
  endloop
 endfacet
 facet normal 0.83147 -0.55557 0
  outer loop
   vertex 0.105424 0.0947325 0.5
   vertex 0.102394 0.0901979 0.5
   vertex 0.105424 0.0947325 0
  endloop
 endfacet
 facet normal 0.83147 -0.55557 0
  outer loop
   vertex 0.105424 0.0947325 0
   vertex 0.102394 0.0901979 0.5
   vertex 0.102394 0.0901979 0
  endloop
 endfacet
 facet normal 0.806444 -0.59131 0
  outer loop
   vertex 0.102394 0.0901979 0.5
   vertex 0.0991692 0.0857998 0.5
   vertex 0.102394 0.0901979 0
  endloop
 endfacet
 facet normal 0.806444 -0.59131 0
  outer loop
   vertex 0.102394 0.0901979 0
   vertex 0.0991692 0.0857998 0.5
   vertex 0.0991692 0.0857998 0
  endloop
 endfacet
 facet normal 0.779885 -0.625923 0
  outer loop
   vertex 0.0991692 0.0857998 0.5
   vertex 0.0957556 0.0815465 0.5
   vertex 0.0991692 0.0857998 0
  endloop
 endfacet
 facet normal 0.779885 -0.625923 0
  outer loop
   vertex 0.0991692 0.0857998 0
   vertex 0.0957556 0.0815465 0.5
   vertex 0.0957556 0.0815465 0
  endloop
 endfacet
 facet normal 0.75184 -0.659346 0
  outer loop
   vertex 0.0957556 0.0815465 0.5
   vertex 0.0921597 0.0774462 0.5
   vertex 0.0957556 0.0815465 0
  endloop
 endfacet
 facet normal 0.75184 -0.659346 0
  outer loop
   vertex 0.0957556 0.0815465 0
   vertex 0.0921597 0.0774462 0.5
   vertex 0.0921597 0.0774462 0
  endloop
 endfacet
 facet normal 0.722364 -0.691513 0
  outer loop
   vertex 0.0921597 0.0774462 0.5
   vertex 0.0883883 0.0735066 0.5
   vertex 0.0921597 0.0774462 0
  endloop
 endfacet
 facet normal 0.722364 -0.691513 0
  outer loop
   vertex 0.0921597 0.0774462 0
   vertex 0.0883883 0.0735066 0.5
   vertex 0.0883883 0.0735066 0
  endloop
 endfacet
 facet normal 0.691513 -0.722364 0
  outer loop
   vertex 0.0883883 0.0735066 0.5
   vertex 0.0844488 0.0697353 0.5
   vertex 0.0883883 0.0735066 0
  endloop
 endfacet
 facet normal 0.691513 -0.722364 0
  outer loop
   vertex 0.0883883 0.0735066 0
   vertex 0.0844488 0.0697353 0.5
   vertex 0.0844488 0.0697353 0
  endloop
 endfacet
 facet normal 0.659346 -0.75184 0
  outer loop
   vertex 0.0844488 0.0697353 0.5
   vertex 0.0803485 0.0661394 0.5
   vertex 0.0844488 0.0697353 0
  endloop
 endfacet
 facet normal 0.659346 -0.75184 0
  outer loop
   vertex 0.0844488 0.0697353 0
   vertex 0.0803485 0.0661394 0.5
   vertex 0.0803485 0.0661394 0
  endloop
 endfacet
 facet normal 0.625923 -0.779885 0
  outer loop
   vertex 0.0803485 0.0661394 0.5
   vertex 0.0760952 0.0627258 0.5
   vertex 0.0803485 0.0661394 0
  endloop
 endfacet
 facet normal 0.625923 -0.779885 0
  outer loop
   vertex 0.0803485 0.0661394 0
   vertex 0.0760952 0.0627258 0.5
   vertex 0.0760952 0.0627258 0
  endloop
 endfacet
 facet normal 0.59131 -0.806444 0
  outer loop
   vertex 0.0760952 0.0627258 0.5
   vertex 0.0716971 0.059501 0.5
   vertex 0.0760952 0.0627258 0
  endloop
 endfacet
 facet normal 0.59131 -0.806444 0
  outer loop
   vertex 0.0760952 0.0627258 0
   vertex 0.0716971 0.059501 0.5
   vertex 0.0716971 0.059501 0
  endloop
 endfacet
 facet normal 0.55557 -0.83147 0
  outer loop
   vertex 0.0716971 0.059501 0.5
   vertex 0.0671625 0.0564711 0.5
   vertex 0.0716971 0.059501 0
  endloop
 endfacet
 facet normal 0.55557 -0.83147 0
  outer loop
   vertex 0.0716971 0.059501 0
   vertex 0.0671625 0.0564711 0.5
   vertex 0.0671625 0.0564711 0
  endloop
 endfacet
 facet normal 0.518773 -0.854912 0
  outer loop
   vertex 0.0671625 0.0564711 0.5
   vertex 0.0625 0.0536418 0.5
   vertex 0.0671625 0.0564711 0
  endloop
 endfacet
 facet normal 0.518773 -0.854912 0
  outer loop
   vertex 0.0671625 0.0564711 0
   vertex 0.0625 0.0536418 0.5
   vertex 0.0625 0.0536418 0
  endloop
 endfacet
 facet normal 0.480989 -0.876727 0
  outer loop
   vertex 0.0625 0.0536418 0.5
   vertex 0.0577186 0.0510186 0.5
   vertex 0.0625 0.0536418 0
  endloop
 endfacet
 facet normal 0.480989 -0.876727 0
  outer loop
   vertex 0.0625 0.0536418 0
   vertex 0.0577186 0.0510186 0.5
   vertex 0.0577186 0.0510186 0
  endloop
 endfacet
 facet normal 0.44229 -0.896872 0
  outer loop
   vertex 0.0577186 0.0510186 0.5
   vertex 0.0528273 0.0486065 0.5
   vertex 0.0577186 0.0510186 0
  endloop
 endfacet
 facet normal 0.44229 -0.896872 0
  outer loop
   vertex 0.0577186 0.0510186 0
   vertex 0.0528273 0.0486065 0.5
   vertex 0.0528273 0.0486065 0
  endloop
 endfacet
 facet normal 0.402745 -0.915312 0
  outer loop
   vertex 0.0528273 0.0486065 0.5
   vertex 0.0478354 0.04641 0.5
   vertex 0.0528273 0.0486065 0
  endloop
 endfacet
 facet normal 0.402745 -0.915312 0
  outer loop
   vertex 0.0528273 0.0486065 0
   vertex 0.0478354 0.04641 0.5
   vertex 0.0478354 0.04641 0
  endloop
 endfacet
 facet normal 0.362439 -0.932008 0
  outer loop
   vertex 0.0478354 0.04641 0.5
   vertex 0.0427525 0.0444334 0.5
   vertex 0.0478354 0.04641 0
  endloop
 endfacet
 facet normal 0.362439 -0.932008 0
  outer loop
   vertex 0.0478354 0.04641 0
   vertex 0.0427525 0.0444334 0.5
   vertex 0.0427525 0.0444334 0
  endloop
 endfacet
 facet normal 0.321439 -0.94693 0
  outer loop
   vertex 0.0427525 0.0444334 0.5
   vertex 0.0375882 0.0426804 0.5
   vertex 0.0427525 0.0444334 0
  endloop
 endfacet
 facet normal 0.321439 -0.94693 0
  outer loop
   vertex 0.0427525 0.0444334 0
   vertex 0.0375882 0.0426804 0.5
   vertex 0.0375882 0.0426804 0
  endloop
 endfacet
 facet normal 0.279829 -0.96005 0
  outer loop
   vertex 0.0375882 0.0426804 0.5
   vertex 0.0323524 0.0411543 0.5
   vertex 0.0375882 0.0426804 0
  endloop
 endfacet
 facet normal 0.279829 -0.96005 0
  outer loop
   vertex 0.0375882 0.0426804 0
   vertex 0.0323524 0.0411543 0.5
   vertex 0.0323524 0.0411543 0
  endloop
 endfacet
 facet normal 0.237686 -0.971342 0
  outer loop
   vertex 0.0323524 0.0411543 0.5
   vertex 0.027055 0.039858 0.5
   vertex 0.0323524 0.0411543 0
  endloop
 endfacet
 facet normal 0.237686 -0.971342 0
  outer loop
   vertex 0.0323524 0.0411543 0
   vertex 0.027055 0.039858 0.5
   vertex 0.027055 0.039858 0
  endloop
 endfacet
 facet normal 0.19509 -0.980785 0
  outer loop
   vertex 0.027055 0.039858 0.5
   vertex 0.021706 0.038794 0.5
   vertex 0.027055 0.039858 0
  endloop
 endfacet
 facet normal 0.19509 -0.980785 0
  outer loop
   vertex 0.027055 0.039858 0
   vertex 0.021706 0.038794 0.5
   vertex 0.021706 0.038794 0
  endloop
 endfacet
 facet normal 0.152124 -0.988361 0
  outer loop
   vertex 0.021706 0.038794 0.5
   vertex 0.0163158 0.0379644 0.5
   vertex 0.021706 0.038794 0
  endloop
 endfacet
 facet normal 0.152124 -0.988361 0
  outer loop
   vertex 0.021706 0.038794 0
   vertex 0.0163158 0.0379644 0.5
   vertex 0.0163158 0.0379644 0
  endloop
 endfacet
 facet normal 0.108867 -0.994056 0
  outer loop
   vertex 0.0163158 0.0379644 0.5
   vertex 0.0108945 0.0373706 0.5
   vertex 0.0163158 0.0379644 0
  endloop
 endfacet
 facet normal 0.108867 -0.994056 0
  outer loop
   vertex 0.0163158 0.0379644 0
   vertex 0.0108945 0.0373706 0.5
   vertex 0.0108945 0.0373706 0
  endloop
 endfacet
 facet normal 0.0654029 -0.997859 0
  outer loop
   vertex 0.0108945 0.0373706 0.5
   vertex 0.00545242 0.037014 0.5
   vertex 0.0108945 0.0373706 0
  endloop
 endfacet
 facet normal 0.0654029 -0.997859 0
  outer loop
   vertex 0.0108945 0.0373706 0
   vertex 0.00545242 0.037014 0.5
   vertex 0.00545242 0.037014 0
  endloop
 endfacet
 facet normal 0.0218146 -0.999762 0
  outer loop
   vertex 0.00545242 0.037014 0.5
   vertex 2.29621e-17 0.036895 0.5
   vertex 0.00545242 0.037014 0
  endloop
 endfacet
 facet normal 0.0218146 -0.999762 0
  outer loop
   vertex 0.00545242 0.037014 0
   vertex 2.29621e-17 0.036895 0.5
   vertex 2.29621e-17 0.036895 0
  endloop
 endfacet
 facet normal -0.0218146 -0.999762 -0
  outer loop
   vertex 2.29621e-17 0.036895 0.5
   vertex -0.00545242 0.037014 0.5
   vertex 2.29621e-17 0.036895 0
  endloop
 endfacet
 facet normal -0.0218146 -0.999762 0
  outer loop
   vertex 2.29621e-17 0.036895 0
   vertex -0.00545242 0.037014 0.5
   vertex -0.00545242 0.037014 0
  endloop
 endfacet
 facet normal -0.0654029 -0.997859 -0
  outer loop
   vertex -0.00545242 0.037014 0.5
   vertex -0.0108945 0.0373706 0.5
   vertex -0.00545242 0.037014 0
  endloop
 endfacet
 facet normal -0.0654029 -0.997859 0
  outer loop
   vertex -0.00545242 0.037014 0
   vertex -0.0108945 0.0373706 0.5
   vertex -0.0108945 0.0373706 0
  endloop
 endfacet
 facet normal -0.108867 -0.994056 -0
  outer loop
   vertex -0.0108945 0.0373706 0.5
   vertex -0.0163158 0.0379644 0.5
   vertex -0.0108945 0.0373706 0
  endloop
 endfacet
 facet normal -0.108867 -0.994056 0
  outer loop
   vertex -0.0108945 0.0373706 0
   vertex -0.0163158 0.0379644 0.5
   vertex -0.0163158 0.0379644 0
  endloop
 endfacet
 facet normal -0.152124 -0.988361 -0
  outer loop
   vertex -0.0163158 0.0379644 0.5
   vertex -0.021706 0.038794 0.5
   vertex -0.0163158 0.0379644 0
  endloop
 endfacet
 facet normal -0.152124 -0.988361 0
  outer loop
   vertex -0.0163158 0.0379644 0
   vertex -0.021706 0.038794 0.5
   vertex -0.021706 0.038794 0
  endloop
 endfacet
 facet normal -0.19509 -0.980785 -0
  outer loop
   vertex -0.021706 0.038794 0.5
   vertex -0.027055 0.039858 0.5
   vertex -0.021706 0.038794 0
  endloop
 endfacet
 facet normal -0.19509 -0.980785 0
  outer loop
   vertex -0.021706 0.038794 0
   vertex -0.027055 0.039858 0.5
   vertex -0.027055 0.039858 0
  endloop
 endfacet
 facet normal -0.237686 -0.971342 -0
  outer loop
   vertex -0.027055 0.039858 0.5
   vertex -0.0323524 0.0411543 0.5
   vertex -0.027055 0.039858 0
  endloop
 endfacet
 facet normal -0.237686 -0.971342 0
  outer loop
   vertex -0.027055 0.039858 0
   vertex -0.0323524 0.0411543 0.5
   vertex -0.0323524 0.0411543 0
  endloop
 endfacet
 facet normal -0.279829 -0.96005 -0
  outer loop
   vertex -0.0323524 0.0411543 0.5
   vertex -0.0375882 0.0426804 0.5
   vertex -0.0323524 0.0411543 0
  endloop
 endfacet
 facet normal -0.279829 -0.96005 0
  outer loop
   vertex -0.0323524 0.0411543 0
   vertex -0.0375882 0.0426804 0.5
   vertex -0.0375882 0.0426804 0
  endloop
 endfacet
 facet normal -0.321439 -0.94693 -0
  outer loop
   vertex -0.0375882 0.0426804 0.5
   vertex -0.0427525 0.0444334 0.5
   vertex -0.0375882 0.0426804 0
  endloop
 endfacet
 facet normal -0.321439 -0.94693 0
  outer loop
   vertex -0.0375882 0.0426804 0
   vertex -0.0427525 0.0444334 0.5
   vertex -0.0427525 0.0444334 0
  endloop
 endfacet
 facet normal -0.362439 -0.932008 -0
  outer loop
   vertex -0.0427525 0.0444334 0.5
   vertex -0.0478354 0.04641 0.5
   vertex -0.0427525 0.0444334 0
  endloop
 endfacet
 facet normal -0.362439 -0.932008 0
  outer loop
   vertex -0.0427525 0.0444334 0
   vertex -0.0478354 0.04641 0.5
   vertex -0.0478354 0.04641 0
  endloop
 endfacet
 facet normal -0.402745 -0.915312 -0
  outer loop
   vertex -0.0478354 0.04641 0.5
   vertex -0.0528273 0.0486065 0.5
   vertex -0.0478354 0.04641 0
  endloop
 endfacet
 facet normal -0.402745 -0.915312 0
  outer loop
   vertex -0.0478354 0.04641 0
   vertex -0.0528273 0.0486065 0.5
   vertex -0.0528273 0.0486065 0
  endloop
 endfacet
 facet normal -0.44229 -0.896872 -0
  outer loop
   vertex -0.0528273 0.0486065 0.5
   vertex -0.0577186 0.0510186 0.5
   vertex -0.0528273 0.0486065 0
  endloop
 endfacet
 facet normal -0.44229 -0.896872 0
  outer loop
   vertex -0.0528273 0.0486065 0
   vertex -0.0577186 0.0510186 0.5
   vertex -0.0577186 0.0510186 0
  endloop
 endfacet
 facet normal -0.480989 -0.876727 -0
  outer loop
   vertex -0.0577186 0.0510186 0.5
   vertex -0.0625 0.0536418 0.5
   vertex -0.0577186 0.0510186 0
  endloop
 endfacet
 facet normal -0.480989 -0.876727 0
  outer loop
   vertex -0.0577186 0.0510186 0
   vertex -0.0625 0.0536418 0.5
   vertex -0.0625 0.0536418 0
  endloop
 endfacet
 facet normal -0.518773 -0.854912 -0
  outer loop
   vertex -0.0625 0.0536418 0.5
   vertex -0.0671625 0.0564711 0.5
   vertex -0.0625 0.0536418 0
  endloop
 endfacet
 facet normal -0.518773 -0.854912 0
  outer loop
   vertex -0.0625 0.0536418 0
   vertex -0.0671625 0.0564711 0.5
   vertex -0.0671625 0.0564711 0
  endloop
 endfacet
 facet normal -0.55557 -0.83147 -0
  outer loop
   vertex -0.0671625 0.0564711 0.5
   vertex -0.0716971 0.059501 0.5
   vertex -0.0671625 0.0564711 0
  endloop
 endfacet
 facet normal -0.55557 -0.83147 0
  outer loop
   vertex -0.0671625 0.0564711 0
   vertex -0.0716971 0.059501 0.5
   vertex -0.0716971 0.059501 0
  endloop
 endfacet
 facet normal -0.59131 -0.806444 -0
  outer loop
   vertex -0.0716971 0.059501 0.5
   vertex -0.0760952 0.0627258 0.5
   vertex -0.0716971 0.059501 0
  endloop
 endfacet
 facet normal -0.59131 -0.806444 0
  outer loop
   vertex -0.0716971 0.059501 0
   vertex -0.0760952 0.0627258 0.5
   vertex -0.0760952 0.0627258 0
  endloop
 endfacet
 facet normal -0.625923 -0.779885 -0
  outer loop
   vertex -0.0760952 0.0627258 0.5
   vertex -0.0803485 0.0661394 0.5
   vertex -0.0760952 0.0627258 0
  endloop
 endfacet
 facet normal -0.625923 -0.779885 0
  outer loop
   vertex -0.0760952 0.0627258 0
   vertex -0.0803485 0.0661394 0.5
   vertex -0.0803485 0.0661394 0
  endloop
 endfacet
 facet normal -0.659346 -0.75184 -0
  outer loop
   vertex -0.0803485 0.0661394 0.5
   vertex -0.0844488 0.0697353 0.5
   vertex -0.0803485 0.0661394 0
  endloop
 endfacet
 facet normal -0.659346 -0.75184 0
  outer loop
   vertex -0.0803485 0.0661394 0
   vertex -0.0844488 0.0697353 0.5
   vertex -0.0844488 0.0697353 0
  endloop
 endfacet
 facet normal -0.691513 -0.722364 -0
  outer loop
   vertex -0.0844488 0.0697353 0.5
   vertex -0.0883883 0.0735066 0.5
   vertex -0.0844488 0.0697353 0
  endloop
 endfacet
 facet normal -0.691513 -0.722364 0
  outer loop
   vertex -0.0844488 0.0697353 0
   vertex -0.0883883 0.0735066 0.5
   vertex -0.0883883 0.0735066 0
  endloop
 endfacet
 facet normal -0.722364 -0.691513 -0
  outer loop
   vertex -0.0883883 0.0735066 0.5
   vertex -0.0921597 0.0774462 0.5
   vertex -0.0883883 0.0735066 0
  endloop
 endfacet
 facet normal -0.722364 -0.691513 0
  outer loop
   vertex -0.0883883 0.0735066 0
   vertex -0.0921597 0.0774462 0.5
   vertex -0.0921597 0.0774462 0
  endloop
 endfacet
 facet normal -0.75184 -0.659346 -0
  outer loop
   vertex -0.0921597 0.0774462 0.5
   vertex -0.0957556 0.0815465 0.5
   vertex -0.0921597 0.0774462 0
  endloop
 endfacet
 facet normal -0.75184 -0.659346 0
  outer loop
   vertex -0.0921597 0.0774462 0
   vertex -0.0957556 0.0815465 0.5
   vertex -0.0957556 0.0815465 0
  endloop
 endfacet
 facet normal -0.779885 -0.625923 -0
  outer loop
   vertex -0.0957556 0.0815465 0.5
   vertex -0.0991692 0.0857998 0.5
   vertex -0.0957556 0.0815465 0
  endloop
 endfacet
 facet normal -0.779885 -0.625923 0
  outer loop
   vertex -0.0957556 0.0815465 0
   vertex -0.0991692 0.0857998 0.5
   vertex -0.0991692 0.0857998 0
  endloop
 endfacet
 facet normal -0.806444 -0.59131 -0
  outer loop
   vertex -0.0991692 0.0857998 0.5
   vertex -0.102394 0.0901979 0.5
   vertex -0.0991692 0.0857998 0
  endloop
 endfacet
 facet normal -0.806444 -0.59131 0
  outer loop
   vertex -0.0991692 0.0857998 0
   vertex -0.102394 0.0901979 0.5
   vertex -0.102394 0.0901979 0
  endloop
 endfacet
 facet normal -0.83147 -0.55557 -0
  outer loop
   vertex -0.102394 0.0901979 0.5
   vertex -0.105424 0.0947325 0.5
   vertex -0.102394 0.0901979 0
  endloop
 endfacet
 facet normal -0.83147 -0.55557 0
  outer loop
   vertex -0.102394 0.0901979 0
   vertex -0.105424 0.0947325 0.5
   vertex -0.105424 0.0947325 0
  endloop
 endfacet
 facet normal -0.854912 -0.518773 -0
  outer loop
   vertex -0.105424 0.0947325 0.5
   vertex -0.108253 0.099395 0.5
   vertex -0.105424 0.0947325 0
  endloop
 endfacet
 facet normal -0.854912 -0.518773 0
  outer loop
   vertex -0.105424 0.0947325 0
   vertex -0.108253 0.099395 0.5
   vertex -0.108253 0.099395 0
  endloop
 endfacet
 facet normal -0.876727 -0.480989 -0
  outer loop
   vertex -0.108253 0.099395 0.5
   vertex -0.110876 0.104176 0.5
   vertex -0.108253 0.099395 0
  endloop
 endfacet
 facet normal -0.876727 -0.480989 0
  outer loop
   vertex -0.108253 0.099395 0
   vertex -0.110876 0.104176 0.5
   vertex -0.110876 0.104176 0
  endloop
 endfacet
 facet normal -0.896872 -0.44229 -0
  outer loop
   vertex -0.110876 0.104176 0.5
   vertex -0.113288 0.109068 0.5
   vertex -0.110876 0.104176 0
  endloop
 endfacet
 facet normal -0.896872 -0.44229 0
  outer loop
   vertex -0.110876 0.104176 0
   vertex -0.113288 0.109068 0.5
   vertex -0.113288 0.109068 0
  endloop
 endfacet
 facet normal -0.915312 -0.402745 -0
  outer loop
   vertex -0.113288 0.109068 0.5
   vertex -0.115485 0.11406 0.5
   vertex -0.113288 0.109068 0
  endloop
 endfacet
 facet normal -0.915312 -0.402745 0
  outer loop
   vertex -0.113288 0.109068 0
   vertex -0.115485 0.11406 0.5
   vertex -0.115485 0.11406 0
  endloop
 endfacet
 facet normal -0.932008 -0.362439 -0
  outer loop
   vertex -0.115485 0.11406 0.5
   vertex -0.117462 0.119142 0.5
   vertex -0.115485 0.11406 0
  endloop
 endfacet
 facet normal -0.932008 -0.362439 0
  outer loop
   vertex -0.115485 0.11406 0
   vertex -0.117462 0.119142 0.5
   vertex -0.117462 0.119142 0
  endloop
 endfacet
 facet normal -0.94693 -0.321439 -0
  outer loop
   vertex -0.117462 0.119142 0.5
   vertex -0.119215 0.124307 0.5
   vertex -0.117462 0.119142 0
  endloop
 endfacet
 facet normal -0.94693 -0.321439 0
  outer loop
   vertex -0.117462 0.119142 0
   vertex -0.119215 0.124307 0.5
   vertex -0.119215 0.124307 0
  endloop
 endfacet
 facet normal -0.96005 -0.279829 -0
  outer loop
   vertex -0.119215 0.124307 0.5
   vertex -0.120741 0.129543 0.5
   vertex -0.119215 0.124307 0
  endloop
 endfacet
 facet normal -0.96005 -0.279829 0
  outer loop
   vertex -0.119215 0.124307 0
   vertex -0.120741 0.129543 0.5
   vertex -0.120741 0.129543 0
  endloop
 endfacet
 facet normal -0.971342 -0.237686 -0
  outer loop
   vertex -0.120741 0.129543 0.5
   vertex -0.122037 0.13484 0.5
   vertex -0.120741 0.129543 0
  endloop
 endfacet
 facet normal -0.971342 -0.237686 0
  outer loop
   vertex -0.120741 0.129543 0
   vertex -0.122037 0.13484 0.5
   vertex -0.122037 0.13484 0
  endloop
 endfacet
 facet normal -0.980785 -0.19509 -0
  outer loop
   vertex -0.122037 0.13484 0.5
   vertex -0.123101 0.140189 0.5
   vertex -0.122037 0.13484 0
  endloop
 endfacet
 facet normal -0.980785 -0.19509 0
  outer loop
   vertex -0.122037 0.13484 0
   vertex -0.123101 0.140189 0.5
   vertex -0.123101 0.140189 0
  endloop
 endfacet
 facet normal -0.988361 -0.152124 -0
  outer loop
   vertex -0.123101 0.140189 0.5
   vertex -0.123931 0.145579 0.5
   vertex -0.123101 0.140189 0
  endloop
 endfacet
 facet normal -0.988361 -0.152124 0
  outer loop
   vertex -0.123101 0.140189 0
   vertex -0.123931 0.145579 0.5
   vertex -0.123931 0.145579 0
  endloop
 endfacet
 facet normal -0.994056 -0.108867 -0
  outer loop
   vertex -0.123931 0.145579 0.5
   vertex -0.124524 0.151001 0.5
   vertex -0.123931 0.145579 0
  endloop
 endfacet
 facet normal -0.994056 -0.108867 0
  outer loop
   vertex -0.123931 0.145579 0
   vertex -0.124524 0.151001 0.5
   vertex -0.124524 0.151001 0
  endloop
 endfacet
 facet normal -0.997859 -0.0654029 -0
  outer loop
   vertex -0.124524 0.151001 0.5
   vertex -0.124881 0.156443 0.5
   vertex -0.124524 0.151001 0
  endloop
 endfacet
 facet normal -0.997859 -0.0654029 0
  outer loop
   vertex -0.124524 0.151001 0
   vertex -0.124881 0.156443 0.5
   vertex -0.124881 0.156443 0
  endloop
 endfacet
 facet normal -0.999762 -0.0218146 -0
  outer loop
   vertex -0.124881 0.156443 0.5
   vertex -0.125 0.161895 0.5
   vertex -0.124881 0.156443 0
  endloop
 endfacet
 facet normal -0.999762 -0.0218146 0
  outer loop
   vertex -0.124881 0.156443 0
   vertex -0.125 0.161895 0.5
   vertex -0.125 0.161895 0
  endloop
 endfacet
 facet normal -0.999762 0.0218146 0
  outer loop
   vertex -0.125 0.161895 0.5
   vertex -0.124881 0.167347 0.5
   vertex -0.125 0.161895 0
  endloop
 endfacet
 facet normal 0 -0 1
  outer loop
   vertex 0.124524 0.151001 0.5
   vertex 0.124881 0.156443 0.5
   vertex 0 0.161895 0.5
  endloop
 endfacet
 facet normal 0 -0 1
  outer loop
   vertex 0.124881 0.156443 0.5
   vertex 0.125 0.161895 0.5
   vertex 0 0.161895 0.5
  endloop
 endfacet
 facet normal 0 0 1
  outer loop
   vertex 0 0.161895 0.5
   vertex 0.125 0.161895 0.5
   vertex 0.124881 0.167347 0.5
  endloop
 endfacet
 facet normal 0 -0 1
  outer loop
   vertex 0.122037 0.13484 0.5
   vertex 0.123101 0.140189 0.5
   vertex 0 0.161895 0.5
  endloop
 endfacet
 facet normal 0 -0 1
  outer loop
   vertex 0.123101 0.140189 0.5
   vertex 0.123931 0.145579 0.5
   vertex 0 0.161895 0.5
  endloop
 endfacet
 facet normal 0 0 1
  outer loop
   vertex 0 0.161895 0.5
   vertex 0.123931 0.145579 0.5
   vertex 0.124524 0.151001 0.5
  endloop
 endfacet
 facet normal 0 -0 1
  outer loop
   vertex 0.117462 0.119142 0.5
   vertex 0.119215 0.124307 0.5
   vertex 0 0.161895 0.5
  endloop
 endfacet
 facet normal 0 -0 1
  outer loop
   vertex 0.119215 0.124307 0.5
   vertex 0.120741 0.129543 0.5
   vertex 0 0.161895 0.5
  endloop
 endfacet
 facet normal 0 0 1
  outer loop
   vertex 0 0.161895 0.5
   vertex 0.120741 0.129543 0.5
   vertex 0.122037 0.13484 0.5
  endloop
 endfacet
 facet normal 0 -0 1
  outer loop
   vertex 0.110876 0.104176 0.5
   vertex 0.113288 0.109068 0.5
   vertex 0 0.161895 0.5
  endloop
 endfacet
 facet normal 0 -0 1
  outer loop
   vertex 0.113288 0.109068 0.5
   vertex 0.115485 0.11406 0.5
   vertex 0 0.161895 0.5
  endloop
 endfacet
 facet normal 0 0 1
  outer loop
   vertex 0 0.161895 0.5
   vertex 0.115485 0.11406 0.5
   vertex 0.117462 0.119142 0.5
  endloop
 endfacet
 facet normal 0 -0 1
  outer loop
   vertex 0.102394 0.0901979 0.5
   vertex 0.105424 0.0947325 0.5
   vertex 0 0.161895 0.5
  endloop
 endfacet
 facet normal 0 -0 1
  outer loop
   vertex 0.105424 0.0947325 0.5
   vertex 0.108253 0.099395 0.5
   vertex 0 0.161895 0.5
  endloop
 endfacet
 facet normal 0 0 1
  outer loop
   vertex 0 0.161895 0.5
   vertex 0.108253 0.099395 0.5
   vertex 0.110876 0.104176 0.5
  endloop
 endfacet
 facet normal 0 -0 1
  outer loop
   vertex 0.0921597 0.0774462 0.5
   vertex 0.0957556 0.0815465 0.5
   vertex 0 0.161895 0.5
  endloop
 endfacet
 facet normal 0 -0 1
  outer loop
   vertex 0.0957556 0.0815465 0.5
   vertex 0.0991692 0.0857998 0.5
   vertex 0 0.161895 0.5
  endloop
 endfacet
 facet normal 0 0 1
  outer loop
   vertex 0 0.161895 0.5
   vertex 0.0991692 0.0857998 0.5
   vertex 0.102394 0.0901979 0.5
  endloop
 endfacet
 facet normal 0 -0 1
  outer loop
   vertex 0.0803485 0.0661394 0.5
   vertex 0.0844488 0.0697353 0.5
   vertex 0 0.161895 0.5
  endloop
 endfacet
 facet normal 0 -0 1
  outer loop
   vertex 0.0844488 0.0697353 0.5
   vertex 0.0883883 0.0735066 0.5
   vertex 0 0.161895 0.5
  endloop
 endfacet
 facet normal 0 0 1
  outer loop
   vertex 0 0.161895 0.5
   vertex 0.0883883 0.0735066 0.5
   vertex 0.0921597 0.0774462 0.5
  endloop
 endfacet
 facet normal 0 -0 1
  outer loop
   vertex 0.0671625 0.0564711 0.5
   vertex 0.0716971 0.059501 0.5
   vertex 0 0.161895 0.5
  endloop
 endfacet
 facet normal 0 -0 1
  outer loop
   vertex 0.0716971 0.059501 0.5
   vertex 0.0760952 0.0627258 0.5
   vertex 0 0.161895 0.5
  endloop
 endfacet
 facet normal 0 0 1
  outer loop
   vertex 0 0.161895 0.5
   vertex 0.0760952 0.0627258 0.5
   vertex 0.0803485 0.0661394 0.5
  endloop
 endfacet
 facet normal 0 -0 1
  outer loop
   vertex 0.0528273 0.0486065 0.5
   vertex 0.0577186 0.0510186 0.5
   vertex 0 0.161895 0.5
  endloop
 endfacet
 facet normal 0 -0 1
  outer loop
   vertex 0.0577186 0.0510186 0.5
   vertex 0.0625 0.0536418 0.5
   vertex 0 0.161895 0.5
  endloop
 endfacet
 facet normal 0 0 1
  outer loop
   vertex 0 0.161895 0.5
   vertex 0.0625 0.0536418 0.5
   vertex 0.0671625 0.0564711 0.5
  endloop
 endfacet
 facet normal 0 -0 1
  outer loop
   vertex 0.0375882 0.0426804 0.5
   vertex 0.0427525 0.0444334 0.5
   vertex 0 0.161895 0.5
  endloop
 endfacet
 facet normal 0 -0 1
  outer loop
   vertex 0.0427525 0.0444334 0.5
   vertex 0.0478354 0.04641 0.5
   vertex 0 0.161895 0.5
  endloop
 endfacet
 facet normal 0 0 1
  outer loop
   vertex 0 0.161895 0.5
   vertex 0.0478354 0.04641 0.5
   vertex 0.0528273 0.0486065 0.5
  endloop
 endfacet
 facet normal 0 -0 1
  outer loop
   vertex 0.021706 0.038794 0.5
   vertex 0.027055 0.039858 0.5
   vertex 0 0.161895 0.5
  endloop
 endfacet
 facet normal 0 -0 1
  outer loop
   vertex 0.027055 0.039858 0.5
   vertex 0.0323524 0.0411543 0.5
   vertex 0 0.161895 0.5
  endloop
 endfacet
 facet normal 0 0 1
  outer loop
   vertex 0 0.161895 0.5
   vertex 0.0323524 0.0411543 0.5
   vertex 0.0375882 0.0426804 0.5
  endloop
 endfacet
 facet normal 0 -0 1
  outer loop
   vertex 0.00545242 0.037014 0.5
   vertex 0.0108945 0.0373706 0.5
   vertex 0 0.161895 0.5
  endloop
 endfacet
 facet normal 0 -0 1
  outer loop
   vertex 0.0108945 0.0373706 0.5
   vertex 0.0163158 0.0379644 0.5
   vertex 0 0.161895 0.5
  endloop
 endfacet
 facet normal 0 0 1
  outer loop
   vertex 0 0.161895 0.5
   vertex 0.0163158 0.0379644 0.5
   vertex 0.021706 0.038794 0.5
  endloop
 endfacet
 facet normal -0 0 1
  outer loop
   vertex -0.0108945 0.0373706 0.5
   vertex -0.00545242 0.037014 0.5
   vertex 0 0.161895 0.5
  endloop
 endfacet
 facet normal -0 0 1
  outer loop
   vertex -0.00545242 0.037014 0.5
   vertex 2.29621e-17 0.036895 0.5
   vertex 0 0.161895 0.5
  endloop
 endfacet
 facet normal 0 0 1
  outer loop
   vertex 0 0.161895 0.5
   vertex 2.29621e-17 0.036895 0.5
   vertex 0.00545242 0.037014 0.5
  endloop
 endfacet
 facet normal -0 0 1
  outer loop
   vertex -0.027055 0.039858 0.5
   vertex -0.021706 0.038794 0.5
   vertex 0 0.161895 0.5
  endloop
 endfacet
 facet normal -0 0 1
  outer loop
   vertex -0.021706 0.038794 0.5
   vertex -0.0163158 0.0379644 0.5
   vertex 0 0.161895 0.5
  endloop
 endfacet
 facet normal 0 0 1
  outer loop
   vertex 0 0.161895 0.5
   vertex -0.0163158 0.0379644 0.5
   vertex -0.0108945 0.0373706 0.5
  endloop
 endfacet
 facet normal -0 0 1
  outer loop
   vertex -0.0427525 0.0444334 0.5
   vertex -0.0375882 0.0426804 0.5
   vertex 0 0.161895 0.5
  endloop
 endfacet
 facet normal -0 0 1
  outer loop
   vertex -0.0375882 0.0426804 0.5
   vertex -0.0323524 0.0411543 0.5
   vertex 0 0.161895 0.5
  endloop
 endfacet
 facet normal 0 0 1
  outer loop
   vertex 0 0.161895 0.5
   vertex -0.0323524 0.0411543 0.5
   vertex -0.027055 0.039858 0.5
  endloop
 endfacet
 facet normal -0 0 1
  outer loop
   vertex -0.0577186 0.0510186 0.5
   vertex -0.0528273 0.0486065 0.5
   vertex 0 0.161895 0.5
  endloop
 endfacet
 facet normal -0 0 1
  outer loop
   vertex -0.0528273 0.0486065 0.5
   vertex -0.0478354 0.04641 0.5
   vertex 0 0.161895 0.5
  endloop
 endfacet
 facet normal 0 0 1
  outer loop
   vertex 0 0.161895 0.5
   vertex -0.0478354 0.04641 0.5
   vertex -0.0427525 0.0444334 0.5
  endloop
 endfacet
 facet normal -0 0 1
  outer loop
   vertex -0.0716971 0.059501 0.5
   vertex -0.0671625 0.0564711 0.5
   vertex 0 0.161895 0.5
  endloop
 endfacet
 facet normal -0 0 1
  outer loop
   vertex -0.0671625 0.0564711 0.5
   vertex -0.0625 0.0536418 0.5
   vertex 0 0.161895 0.5
  endloop
 endfacet
 facet normal 0 0 1
  outer loop
   vertex 0 0.161895 0.5
   vertex -0.0625 0.0536418 0.5
   vertex -0.0577186 0.0510186 0.5
  endloop
 endfacet
 facet normal -0 0 1
  outer loop
   vertex -0.0844488 0.0697353 0.5
   vertex -0.0803485 0.0661394 0.5
   vertex 0 0.161895 0.5
  endloop
 endfacet
 facet normal -0 0 1
  outer loop
   vertex -0.0803485 0.0661394 0.5
   vertex -0.0760952 0.0627258 0.5
   vertex 0 0.161895 0.5
  endloop
 endfacet
 facet normal 0 0 1
  outer loop
   vertex 0 0.161895 0.5
   vertex -0.0760952 0.0627258 0.5
   vertex -0.0716971 0.059501 0.5
  endloop
 endfacet
 facet normal -0 0 1
  outer loop
   vertex -0.0957556 0.0815465 0.5
   vertex -0.0921597 0.0774462 0.5
   vertex 0 0.161895 0.5
  endloop
 endfacet
 facet normal -0 0 1
  outer loop
   vertex -0.0921597 0.0774462 0.5
   vertex -0.0883883 0.0735066 0.5
   vertex 0 0.161895 0.5
  endloop
 endfacet
 facet normal 0 0 1
  outer loop
   vertex 0 0.161895 0.5
   vertex -0.0883883 0.0735066 0.5
   vertex -0.0844488 0.0697353 0.5
  endloop
 endfacet
 facet normal -0 0 1
  outer loop
   vertex -0.105424 0.0947325 0.5
   vertex -0.102394 0.0901979 0.5
   vertex 0 0.161895 0.5
  endloop
 endfacet
 facet normal -0 0 1
  outer loop
   vertex -0.102394 0.0901979 0.5
   vertex -0.0991692 0.0857998 0.5
   vertex 0 0.161895 0.5
  endloop
 endfacet
 facet normal 0 0 1
  outer loop
   vertex 0 0.161895 0.5
   vertex -0.0991692 0.0857998 0.5
   vertex -0.0957556 0.0815465 0.5
  endloop
 endfacet
 facet normal -0 0 1
  outer loop
   vertex -0.113288 0.109068 0.5
   vertex -0.110876 0.104176 0.5
   vertex 0 0.161895 0.5
  endloop
 endfacet
 facet normal -0 0 1
  outer loop
   vertex -0.110876 0.104176 0.5
   vertex -0.108253 0.099395 0.5
   vertex 0 0.161895 0.5
  endloop
 endfacet
 facet normal 0 0 1
  outer loop
   vertex 0 0.161895 0.5
   vertex -0.108253 0.099395 0.5
   vertex -0.105424 0.0947325 0.5
  endloop
 endfacet
 facet normal -0 0 1
  outer loop
   vertex -0.119215 0.124307 0.5
   vertex -0.117462 0.119142 0.5
   vertex 0 0.161895 0.5
  endloop
 endfacet
 facet normal -0 0 1
  outer loop
   vertex -0.117462 0.119142 0.5
   vertex -0.115485 0.11406 0.5
   vertex 0 0.161895 0.5
  endloop
 endfacet
 facet normal 0 0 1
  outer loop
   vertex 0 0.161895 0.5
   vertex -0.115485 0.11406 0.5
   vertex -0.113288 0.109068 0.5
  endloop
 endfacet
 facet normal -0 0 1
  outer loop
   vertex -0.123101 0.140189 0.5
   vertex -0.122037 0.13484 0.5
   vertex 0 0.161895 0.5
  endloop
 endfacet
 facet normal -0 0 1
  outer loop
   vertex -0.122037 0.13484 0.5
   vertex -0.120741 0.129543 0.5
   vertex 0 0.161895 0.5
  endloop
 endfacet
 facet normal 0 0 1
  outer loop
   vertex 0 0.161895 0.5
   vertex -0.120741 0.129543 0.5
   vertex -0.119215 0.124307 0.5
  endloop
 endfacet
 facet normal -0 0 1
  outer loop
   vertex -0.124881 0.156443 0.5
   vertex -0.124524 0.151001 0.5
   vertex 0 0.161895 0.5
  endloop
 endfacet
 facet normal -0 0 1
  outer loop
   vertex -0.124524 0.151001 0.5
   vertex -0.123931 0.145579 0.5
   vertex 0 0.161895 0.5
  endloop
 endfacet
 facet normal 0 0 1
  outer loop
   vertex 0 0.161895 0.5
   vertex -0.123931 0.145579 0.5
   vertex -0.123101 0.140189 0.5
  endloop
 endfacet
 facet normal 0 0 1
  outer loop
   vertex -0.124524 0.172789 0.5
   vertex -0.124881 0.167347 0.5
   vertex 0 0.161895 0.5
  endloop
 endfacet
 facet normal 0 0 1
  outer loop
   vertex -0.124881 0.167347 0.5
   vertex -0.125 0.161895 0.5
   vertex 0 0.161895 0.5
  endloop
 endfacet
 facet normal 0 0 1
  outer loop
   vertex 0 0.161895 0.5
   vertex -0.125 0.161895 0.5
   vertex -0.124881 0.156443 0.5
  endloop
 endfacet
 facet normal 0 0 1
  outer loop
   vertex -0.122037 0.18895 0.5
   vertex -0.123101 0.183601 0.5
   vertex 0 0.161895 0.5
  endloop
 endfacet
 facet normal 0 0 1
  outer loop
   vertex -0.123101 0.183601 0.5
   vertex -0.123931 0.178211 0.5
   vertex 0 0.161895 0.5
  endloop
 endfacet
 facet normal 0 0 1
  outer loop
   vertex 0 0.161895 0.5
   vertex -0.123931 0.178211 0.5
   vertex -0.124524 0.172789 0.5
  endloop
 endfacet
 facet normal 0 0 1
  outer loop
   vertex -0.117462 0.204647 0.5
   vertex -0.119215 0.199483 0.5
   vertex 0 0.161895 0.5
  endloop
 endfacet
 facet normal 0 0 1
  outer loop
   vertex -0.119215 0.199483 0.5
   vertex -0.120741 0.194247 0.5
   vertex 0 0.161895 0.5
  endloop
 endfacet
 facet normal 0 0 1
  outer loop
   vertex 0 0.161895 0.5
   vertex -0.120741 0.194247 0.5
   vertex -0.122037 0.18895 0.5
  endloop
 endfacet
 facet normal 0 0 1
  outer loop
   vertex -0.110876 0.219614 0.5
   vertex -0.113288 0.214722 0.5
   vertex 0 0.161895 0.5
  endloop
 endfacet
 facet normal 0 0 1
  outer loop
   vertex -0.113288 0.214722 0.5
   vertex -0.115485 0.20973 0.5
   vertex 0 0.161895 0.5
  endloop
 endfacet
 facet normal 0 0 1
  outer loop
   vertex 0 0.161895 0.5
   vertex -0.115485 0.20973 0.5
   vertex -0.117462 0.204647 0.5
  endloop
 endfacet
 facet normal 0 0 1
  outer loop
   vertex -0.102394 0.233592 0.5
   vertex -0.105424 0.229057 0.5
   vertex 0 0.161895 0.5
  endloop
 endfacet
 facet normal 0 0 1
  outer loop
   vertex -0.105424 0.229057 0.5
   vertex -0.108253 0.224395 0.5
   vertex 0 0.161895 0.5
  endloop
 endfacet
 facet normal 0 0 1
  outer loop
   vertex 0 0.161895 0.5
   vertex -0.108253 0.224395 0.5
   vertex -0.110876 0.219614 0.5
  endloop
 endfacet
 facet normal 0 0 1
  outer loop
   vertex -0.0921597 0.246344 0.5
   vertex -0.0957556 0.242243 0.5
   vertex 0 0.161895 0.5
  endloop
 endfacet
 facet normal 0 0 1
  outer loop
   vertex -0.0957556 0.242243 0.5
   vertex -0.0991692 0.23799 0.5
   vertex 0 0.161895 0.5
  endloop
 endfacet
 facet normal 0 0 1
  outer loop
   vertex 0 0.161895 0.5
   vertex -0.0991692 0.23799 0.5
   vertex -0.102394 0.233592 0.5
  endloop
 endfacet
 facet normal 0 0 1
  outer loop
   vertex -0.0803485 0.257651 0.5
   vertex -0.0844488 0.254055 0.5
   vertex 0 0.161895 0.5
  endloop
 endfacet
 facet normal 0 0 1
  outer loop
   vertex -0.0844488 0.254055 0.5
   vertex -0.0883883 0.250283 0.5
   vertex 0 0.161895 0.5
  endloop
 endfacet
 facet normal 0 0 1
  outer loop
   vertex 0 0.161895 0.5
   vertex -0.0883883 0.250283 0.5
   vertex -0.0921597 0.246344 0.5
  endloop
 endfacet
 facet normal 0 0 1
  outer loop
   vertex -0.0671625 0.267319 0.5
   vertex -0.0716971 0.264289 0.5
   vertex 0 0.161895 0.5
  endloop
 endfacet
 facet normal 0 0 1
  outer loop
   vertex -0.0716971 0.264289 0.5
   vertex -0.0760952 0.261064 0.5
   vertex 0 0.161895 0.5
  endloop
 endfacet
 facet normal 0 0 1
  outer loop
   vertex 0 0.161895 0.5
   vertex -0.0760952 0.261064 0.5
   vertex -0.0803485 0.257651 0.5
  endloop
 endfacet
 facet normal 0 0 1
  outer loop
   vertex -0.0528273 0.275183 0.5
   vertex -0.0577186 0.272771 0.5
   vertex 0 0.161895 0.5
  endloop
 endfacet
 facet normal 0 0 1
  outer loop
   vertex -0.0577186 0.272771 0.5
   vertex -0.0625 0.270148 0.5
   vertex 0 0.161895 0.5
  endloop
 endfacet
 facet normal 0 0 1
  outer loop
   vertex 0 0.161895 0.5
   vertex -0.0625 0.270148 0.5
   vertex -0.0671625 0.267319 0.5
  endloop
 endfacet
 facet normal 0 0 1
  outer loop
   vertex -0.0375882 0.28111 0.5
   vertex -0.0427525 0.279357 0.5
   vertex 0 0.161895 0.5
  endloop
 endfacet
 facet normal 0 0 1
  outer loop
   vertex -0.0427525 0.279357 0.5
   vertex -0.0478354 0.27738 0.5
   vertex 0 0.161895 0.5
  endloop
 endfacet
 facet normal 0 0 1
  outer loop
   vertex 0 0.161895 0.5
   vertex -0.0478354 0.27738 0.5
   vertex -0.0528273 0.275183 0.5
  endloop
 endfacet
 facet normal 0 0 1
  outer loop
   vertex -0.021706 0.284996 0.5
   vertex -0.027055 0.283932 0.5
   vertex 0 0.161895 0.5
  endloop
 endfacet
 facet normal 0 0 1
  outer loop
   vertex -0.027055 0.283932 0.5
   vertex -0.0323524 0.282636 0.5
   vertex 0 0.161895 0.5
  endloop
 endfacet
 facet normal 0 0 1
  outer loop
   vertex 0 0.161895 0.5
   vertex -0.0323524 0.282636 0.5
   vertex -0.0375882 0.28111 0.5
  endloop
 endfacet
 facet normal 0 0 1
  outer loop
   vertex -0.00545242 0.286776 0.5
   vertex -0.0108945 0.286419 0.5
   vertex 0 0.161895 0.5
  endloop
 endfacet
 facet normal 0 0 1
  outer loop
   vertex -0.0108945 0.286419 0.5
   vertex -0.0163158 0.285826 0.5
   vertex 0 0.161895 0.5
  endloop
 endfacet
 facet normal 0 0 1
  outer loop
   vertex 0 0.161895 0.5
   vertex -0.0163158 0.285826 0.5
   vertex -0.021706 0.284996 0.5
  endloop
 endfacet
 facet normal 0 0 1
  outer loop
   vertex 0.0108945 0.286419 0.5
   vertex 0.00545242 0.286776 0.5
   vertex 0 0.161895 0.5
  endloop
 endfacet
 facet normal 0 0 1
  outer loop
   vertex 0.00545242 0.286776 0.5
   vertex -7.65404e-18 0.286895 0.5
   vertex 0 0.161895 0.5
  endloop
 endfacet
 facet normal 0 0 1
  outer loop
   vertex 0 0.161895 0.5
   vertex -7.65404e-18 0.286895 0.5
   vertex -0.00545242 0.286776 0.5
  endloop
 endfacet
 facet normal 0 0 1
  outer loop
   vertex 0.027055 0.283932 0.5
   vertex 0.021706 0.284996 0.5
   vertex 0 0.161895 0.5
  endloop
 endfacet
 facet normal 0 0 1
  outer loop
   vertex 0.021706 0.284996 0.5
   vertex 0.0163158 0.285826 0.5
   vertex 0 0.161895 0.5
  endloop
 endfacet
 facet normal 0 0 1
  outer loop
   vertex 0 0.161895 0.5
   vertex 0.0163158 0.285826 0.5
   vertex 0.0108945 0.286419 0.5
  endloop
 endfacet
 facet normal 0 0 1
  outer loop
   vertex 0.0427525 0.279357 0.5
   vertex 0.0375882 0.28111 0.5
   vertex 0 0.161895 0.5
  endloop
 endfacet
 facet normal 0 0 1
  outer loop
   vertex 0.0375882 0.28111 0.5
   vertex 0.0323524 0.282636 0.5
   vertex 0 0.161895 0.5
  endloop
 endfacet
 facet normal 0 0 1
  outer loop
   vertex 0 0.161895 0.5
   vertex 0.0323524 0.282636 0.5
   vertex 0.027055 0.283932 0.5
  endloop
 endfacet
 facet normal 0 0 1
  outer loop
   vertex 0.0577186 0.272771 0.5
   vertex 0.0528273 0.275183 0.5
   vertex 0 0.161895 0.5
  endloop
 endfacet
 facet normal 0 0 1
  outer loop
   vertex 0.0528273 0.275183 0.5
   vertex 0.0478354 0.27738 0.5
   vertex 0 0.161895 0.5
  endloop
 endfacet
 facet normal 0 0 1
  outer loop
   vertex 0 0.161895 0.5
   vertex 0.0478354 0.27738 0.5
   vertex 0.0427525 0.279357 0.5
  endloop
 endfacet
 facet normal 0 0 1
  outer loop
   vertex 0.0716971 0.264289 0.5
   vertex 0.0671625 0.267319 0.5
   vertex 0 0.161895 0.5
  endloop
 endfacet
 facet normal 0 0 1
  outer loop
   vertex 0.0671625 0.267319 0.5
   vertex 0.0625 0.270148 0.5
   vertex 0 0.161895 0.5
  endloop
 endfacet
 facet normal 0 0 1
  outer loop
   vertex 0 0.161895 0.5
   vertex 0.0625 0.270148 0.5
   vertex 0.0577186 0.272771 0.5
  endloop
 endfacet
 facet normal 0 0 1
  outer loop
   vertex 0.0844488 0.254055 0.5
   vertex 0.0803485 0.257651 0.5
   vertex 0 0.161895 0.5
  endloop
 endfacet
 facet normal 0 0 1
  outer loop
   vertex 0.0803485 0.257651 0.5
   vertex 0.0760952 0.261064 0.5
   vertex 0 0.161895 0.5
  endloop
 endfacet
 facet normal 0 0 1
  outer loop
   vertex 0 0.161895 0.5
   vertex 0.0760952 0.261064 0.5
   vertex 0.0716971 0.264289 0.5
  endloop
 endfacet
 facet normal 0 0 1
  outer loop
   vertex 0.0957556 0.242243 0.5
   vertex 0.0921597 0.246344 0.5
   vertex 0 0.161895 0.5
  endloop
 endfacet
 facet normal 0 0 1
  outer loop
   vertex 0.0921597 0.246344 0.5
   vertex 0.0883883 0.250283 0.5
   vertex 0 0.161895 0.5
  endloop
 endfacet
 facet normal 0 0 1
  outer loop
   vertex 0 0.161895 0.5
   vertex 0.0883883 0.250283 0.5
   vertex 0.0844488 0.254055 0.5
  endloop
 endfacet
 facet normal 0 0 1
  outer loop
   vertex 0.105424 0.229057 0.5
   vertex 0.102394 0.233592 0.5
   vertex 0 0.161895 0.5
  endloop
 endfacet
 facet normal 0 0 1
  outer loop
   vertex 0.102394 0.233592 0.5
   vertex 0.0991692 0.23799 0.5
   vertex 0 0.161895 0.5
  endloop
 endfacet
 facet normal 0 0 1
  outer loop
   vertex 0 0.161895 0.5
   vertex 0.0991692 0.23799 0.5
   vertex 0.0957556 0.242243 0.5
  endloop
 endfacet
 facet normal 0 0 1
  outer loop
   vertex 0.113288 0.214722 0.5
   vertex 0.110876 0.219614 0.5
   vertex 0 0.161895 0.5
  endloop
 endfacet
 facet normal 0 0 1
  outer loop
   vertex 0.110876 0.219614 0.5
   vertex 0.108253 0.224395 0.5
   vertex 0 0.161895 0.5
  endloop
 endfacet
 facet normal 0 0 1
  outer loop
   vertex 0 0.161895 0.5
   vertex 0.108253 0.224395 0.5
   vertex 0.105424 0.229057 0.5
  endloop
 endfacet
 facet normal 0 0 1
  outer loop
   vertex 0.119215 0.199483 0.5
   vertex 0.117462 0.204647 0.5
   vertex 0 0.161895 0.5
  endloop
 endfacet
 facet normal 0 0 1
  outer loop
   vertex 0.117462 0.204647 0.5
   vertex 0.115485 0.20973 0.5
   vertex 0 0.161895 0.5
  endloop
 endfacet
 facet normal 0 0 1
  outer loop
   vertex 0 0.161895 0.5
   vertex 0.115485 0.20973 0.5
   vertex 0.113288 0.214722 0.5
  endloop
 endfacet
 facet normal 0 0 1
  outer loop
   vertex 0.123101 0.183601 0.5
   vertex 0.122037 0.18895 0.5
   vertex 0 0.161895 0.5
  endloop
 endfacet
 facet normal 0 0 1
  outer loop
   vertex 0.122037 0.18895 0.5
   vertex 0.120741 0.194247 0.5
   vertex 0 0.161895 0.5
  endloop
 endfacet
 facet normal 0 0 1
  outer loop
   vertex 0 0.161895 0.5
   vertex 0.120741 0.194247 0.5
   vertex 0.119215 0.199483 0.5
  endloop
 endfacet
 facet normal 0 0 1
  outer loop
   vertex 0.124881 0.167347 0.5
   vertex 0.124524 0.172789 0.5
   vertex 0 0.161895 0.5
  endloop
 endfacet
 facet normal 0 0 1
  outer loop
   vertex 0.124524 0.172789 0.5
   vertex 0.123931 0.178211 0.5
   vertex 0 0.161895 0.5
  endloop
 endfacet
 facet normal 0 0 1
  outer loop
   vertex 0 0.161895 0.5
   vertex 0.123931 0.178211 0.5
   vertex 0.123101 0.183601 0.5
  endloop
 endfacet
endsolid zone0
